G04 #@! TF.FileFunction,Legend,Top*
%FSLAX46Y46*%
G04 Gerber Fmt 4.6, Leading zero omitted, Abs format (unit mm)*
G04 Created by KiCad (PCBNEW 4.0.7) date 07/09/18 21:34:00*
%MOMM*%
%LPD*%
G01*
G04 APERTURE LIST*
%ADD10C,0.100000*%
%ADD11C,0.300000*%
%ADD12C,0.120000*%
%ADD13C,0.150000*%
G04 APERTURE END LIST*
D10*
D11*
X90115714Y-64020000D02*
X89972857Y-63948571D01*
X89758571Y-63948571D01*
X89544286Y-64020000D01*
X89401428Y-64162857D01*
X89330000Y-64305714D01*
X89258571Y-64591429D01*
X89258571Y-64805714D01*
X89330000Y-65091429D01*
X89401428Y-65234286D01*
X89544286Y-65377143D01*
X89758571Y-65448571D01*
X89901428Y-65448571D01*
X90115714Y-65377143D01*
X90187143Y-65305714D01*
X90187143Y-64805714D01*
X89901428Y-64805714D01*
X91044286Y-65448571D02*
X90901428Y-65377143D01*
X90830000Y-65305714D01*
X90758571Y-65162857D01*
X90758571Y-64734286D01*
X90830000Y-64591429D01*
X90901428Y-64520000D01*
X91044286Y-64448571D01*
X91258571Y-64448571D01*
X91401428Y-64520000D01*
X91472857Y-64591429D01*
X91544286Y-64734286D01*
X91544286Y-65162857D01*
X91472857Y-65305714D01*
X91401428Y-65377143D01*
X91258571Y-65448571D01*
X91044286Y-65448571D01*
X92401429Y-65448571D02*
X92258571Y-65377143D01*
X92187143Y-65234286D01*
X92187143Y-63948571D01*
X93615714Y-65448571D02*
X93615714Y-63948571D01*
X93615714Y-65377143D02*
X93472857Y-65448571D01*
X93187143Y-65448571D01*
X93044285Y-65377143D01*
X92972857Y-65305714D01*
X92901428Y-65162857D01*
X92901428Y-64734286D01*
X92972857Y-64591429D01*
X93044285Y-64520000D01*
X93187143Y-64448571D01*
X93472857Y-64448571D01*
X93615714Y-64520000D01*
X94115714Y-64448571D02*
X94687143Y-64448571D01*
X94330000Y-65448571D02*
X94330000Y-64162857D01*
X94401428Y-64020000D01*
X94544286Y-63948571D01*
X94687143Y-63948571D01*
X95187143Y-65448571D02*
X95187143Y-64448571D01*
X95187143Y-63948571D02*
X95115714Y-64020000D01*
X95187143Y-64091429D01*
X95258571Y-64020000D01*
X95187143Y-63948571D01*
X95187143Y-64091429D01*
X95830000Y-65377143D02*
X95972857Y-65448571D01*
X96258572Y-65448571D01*
X96401429Y-65377143D01*
X96472857Y-65234286D01*
X96472857Y-65162857D01*
X96401429Y-65020000D01*
X96258572Y-64948571D01*
X96044286Y-64948571D01*
X95901429Y-64877143D01*
X95830000Y-64734286D01*
X95830000Y-64662857D01*
X95901429Y-64520000D01*
X96044286Y-64448571D01*
X96258572Y-64448571D01*
X96401429Y-64520000D01*
X97115715Y-65448571D02*
X97115715Y-63948571D01*
X97758572Y-65448571D02*
X97758572Y-64662857D01*
X97687143Y-64520000D01*
X97544286Y-64448571D01*
X97330001Y-64448571D01*
X97187143Y-64520000D01*
X97115715Y-64591429D01*
X99615715Y-64662857D02*
X100115715Y-64662857D01*
X100330001Y-65448571D02*
X99615715Y-65448571D01*
X99615715Y-63948571D01*
X100330001Y-63948571D01*
X101187144Y-65448571D02*
X101044286Y-65377143D01*
X100972858Y-65234286D01*
X100972858Y-63948571D01*
X102330000Y-65377143D02*
X102187143Y-65448571D01*
X101901429Y-65448571D01*
X101758572Y-65377143D01*
X101687143Y-65234286D01*
X101687143Y-64662857D01*
X101758572Y-64520000D01*
X101901429Y-64448571D01*
X102187143Y-64448571D01*
X102330000Y-64520000D01*
X102401429Y-64662857D01*
X102401429Y-64805714D01*
X101687143Y-64948571D01*
X103687143Y-65377143D02*
X103544286Y-65448571D01*
X103258572Y-65448571D01*
X103115714Y-65377143D01*
X103044286Y-65305714D01*
X102972857Y-65162857D01*
X102972857Y-64734286D01*
X103044286Y-64591429D01*
X103115714Y-64520000D01*
X103258572Y-64448571D01*
X103544286Y-64448571D01*
X103687143Y-64520000D01*
X104115714Y-64448571D02*
X104687143Y-64448571D01*
X104330000Y-63948571D02*
X104330000Y-65234286D01*
X104401428Y-65377143D01*
X104544286Y-65448571D01*
X104687143Y-65448571D01*
X105187143Y-65448571D02*
X105187143Y-64448571D01*
X105187143Y-64734286D02*
X105258571Y-64591429D01*
X105330000Y-64520000D01*
X105472857Y-64448571D01*
X105615714Y-64448571D01*
X106330000Y-65448571D02*
X106187142Y-65377143D01*
X106115714Y-65305714D01*
X106044285Y-65162857D01*
X106044285Y-64734286D01*
X106115714Y-64591429D01*
X106187142Y-64520000D01*
X106330000Y-64448571D01*
X106544285Y-64448571D01*
X106687142Y-64520000D01*
X106758571Y-64591429D01*
X106830000Y-64734286D01*
X106830000Y-65162857D01*
X106758571Y-65305714D01*
X106687142Y-65377143D01*
X106544285Y-65448571D01*
X106330000Y-65448571D01*
X107472857Y-64448571D02*
X107472857Y-65448571D01*
X107472857Y-64591429D02*
X107544285Y-64520000D01*
X107687143Y-64448571D01*
X107901428Y-64448571D01*
X108044285Y-64520000D01*
X108115714Y-64662857D01*
X108115714Y-65448571D01*
X108830000Y-65448571D02*
X108830000Y-64448571D01*
X108830000Y-63948571D02*
X108758571Y-64020000D01*
X108830000Y-64091429D01*
X108901428Y-64020000D01*
X108830000Y-63948571D01*
X108830000Y-64091429D01*
X110187143Y-65377143D02*
X110044286Y-65448571D01*
X109758572Y-65448571D01*
X109615714Y-65377143D01*
X109544286Y-65305714D01*
X109472857Y-65162857D01*
X109472857Y-64734286D01*
X109544286Y-64591429D01*
X109615714Y-64520000D01*
X109758572Y-64448571D01*
X110044286Y-64448571D01*
X110187143Y-64520000D01*
X110758571Y-65377143D02*
X110901428Y-65448571D01*
X111187143Y-65448571D01*
X111330000Y-65377143D01*
X111401428Y-65234286D01*
X111401428Y-65162857D01*
X111330000Y-65020000D01*
X111187143Y-64948571D01*
X110972857Y-64948571D01*
X110830000Y-64877143D01*
X110758571Y-64734286D01*
X110758571Y-64662857D01*
X110830000Y-64520000D01*
X110972857Y-64448571D01*
X111187143Y-64448571D01*
X111330000Y-64520000D01*
X89830002Y-42588571D02*
X89830002Y-41088571D01*
X90401430Y-41088571D01*
X90544288Y-41160000D01*
X90615716Y-41231429D01*
X90687145Y-41374286D01*
X90687145Y-41588571D01*
X90615716Y-41731429D01*
X90544288Y-41802857D01*
X90401430Y-41874286D01*
X89830002Y-41874286D01*
X91330002Y-42588571D02*
X91330002Y-41588571D01*
X91330002Y-41874286D02*
X91401430Y-41731429D01*
X91472859Y-41660000D01*
X91615716Y-41588571D01*
X91758573Y-41588571D01*
X92472859Y-42588571D02*
X92330001Y-42517143D01*
X92258573Y-42445714D01*
X92187144Y-42302857D01*
X92187144Y-41874286D01*
X92258573Y-41731429D01*
X92330001Y-41660000D01*
X92472859Y-41588571D01*
X92687144Y-41588571D01*
X92830001Y-41660000D01*
X92901430Y-41731429D01*
X92972859Y-41874286D01*
X92972859Y-42302857D01*
X92901430Y-42445714D01*
X92830001Y-42517143D01*
X92687144Y-42588571D01*
X92472859Y-42588571D01*
X93615716Y-41588571D02*
X93615716Y-42874286D01*
X93544287Y-43017143D01*
X93401430Y-43088571D01*
X93330002Y-43088571D01*
X93615716Y-41088571D02*
X93544287Y-41160000D01*
X93615716Y-41231429D01*
X93687144Y-41160000D01*
X93615716Y-41088571D01*
X93615716Y-41231429D01*
X94901430Y-42517143D02*
X94758573Y-42588571D01*
X94472859Y-42588571D01*
X94330002Y-42517143D01*
X94258573Y-42374286D01*
X94258573Y-41802857D01*
X94330002Y-41660000D01*
X94472859Y-41588571D01*
X94758573Y-41588571D01*
X94901430Y-41660000D01*
X94972859Y-41802857D01*
X94972859Y-41945714D01*
X94258573Y-42088571D01*
X96258573Y-42517143D02*
X96115716Y-42588571D01*
X95830002Y-42588571D01*
X95687144Y-42517143D01*
X95615716Y-42445714D01*
X95544287Y-42302857D01*
X95544287Y-41874286D01*
X95615716Y-41731429D01*
X95687144Y-41660000D01*
X95830002Y-41588571D01*
X96115716Y-41588571D01*
X96258573Y-41660000D01*
X96687144Y-41588571D02*
X97258573Y-41588571D01*
X96901430Y-41088571D02*
X96901430Y-42374286D01*
X96972858Y-42517143D01*
X97115716Y-42588571D01*
X97258573Y-42588571D01*
X98830001Y-41231429D02*
X98901430Y-41160000D01*
X99044287Y-41088571D01*
X99401430Y-41088571D01*
X99544287Y-41160000D01*
X99615716Y-41231429D01*
X99687144Y-41374286D01*
X99687144Y-41517143D01*
X99615716Y-41731429D01*
X98758573Y-42588571D01*
X99687144Y-42588571D01*
X100187144Y-41088571D02*
X101115715Y-41088571D01*
X100615715Y-41660000D01*
X100830001Y-41660000D01*
X100972858Y-41731429D01*
X101044287Y-41802857D01*
X101115715Y-41945714D01*
X101115715Y-42302857D01*
X101044287Y-42445714D01*
X100972858Y-42517143D01*
X100830001Y-42588571D01*
X100401429Y-42588571D01*
X100258572Y-42517143D01*
X100187144Y-42445714D01*
X103758572Y-42588571D02*
X103258572Y-41874286D01*
X102901429Y-42588571D02*
X102901429Y-41088571D01*
X103472857Y-41088571D01*
X103615715Y-41160000D01*
X103687143Y-41231429D01*
X103758572Y-41374286D01*
X103758572Y-41588571D01*
X103687143Y-41731429D01*
X103615715Y-41802857D01*
X103472857Y-41874286D01*
X102901429Y-41874286D01*
X104972857Y-42517143D02*
X104830000Y-42588571D01*
X104544286Y-42588571D01*
X104401429Y-42517143D01*
X104330000Y-42374286D01*
X104330000Y-41802857D01*
X104401429Y-41660000D01*
X104544286Y-41588571D01*
X104830000Y-41588571D01*
X104972857Y-41660000D01*
X105044286Y-41802857D01*
X105044286Y-41945714D01*
X104330000Y-42088571D01*
X105544286Y-41588571D02*
X105901429Y-42588571D01*
X106258571Y-41588571D01*
X108258571Y-41088571D02*
X108401428Y-41088571D01*
X108544285Y-41160000D01*
X108615714Y-41231429D01*
X108687143Y-41374286D01*
X108758571Y-41660000D01*
X108758571Y-42017143D01*
X108687143Y-42302857D01*
X108615714Y-42445714D01*
X108544285Y-42517143D01*
X108401428Y-42588571D01*
X108258571Y-42588571D01*
X108115714Y-42517143D01*
X108044285Y-42445714D01*
X107972857Y-42302857D01*
X107901428Y-42017143D01*
X107901428Y-41660000D01*
X107972857Y-41374286D01*
X108044285Y-41231429D01*
X108115714Y-41160000D01*
X108258571Y-41088571D01*
X109401428Y-42445714D02*
X109472856Y-42517143D01*
X109401428Y-42588571D01*
X109329999Y-42517143D01*
X109401428Y-42445714D01*
X109401428Y-42588571D01*
X110758571Y-41588571D02*
X110758571Y-42588571D01*
X110401428Y-41017143D02*
X110044285Y-42088571D01*
X110972857Y-42088571D01*
D10*
X112000000Y-40000000D02*
X50000000Y-40000000D01*
X112000000Y-82000000D02*
X112000000Y-40000000D01*
X50000000Y-82000000D02*
X112000000Y-82000000D01*
X50000000Y-40000000D02*
X50000000Y-82000000D01*
D12*
X79900000Y-69750000D02*
X85400000Y-69750000D01*
X79900000Y-71850000D02*
X85400000Y-71850000D01*
X79900000Y-69750000D02*
X79900000Y-71850000D01*
X60619677Y-76710000D02*
X60695000Y-76710000D01*
X60695000Y-76710000D02*
X60695000Y-77830000D01*
X60695000Y-77830000D02*
X54225000Y-77830000D01*
X54225000Y-77830000D02*
X54225000Y-76710000D01*
X54225000Y-76710000D02*
X54300323Y-76710000D01*
X60260000Y-77830000D02*
X60260000Y-81830000D01*
X60260000Y-81830000D02*
X59740000Y-81830000D01*
X59740000Y-81830000D02*
X59740000Y-77830000D01*
X60200000Y-77830000D02*
X60200000Y-81830000D01*
X60080000Y-77830000D02*
X60080000Y-81830000D01*
X59960000Y-77830000D02*
X59960000Y-81830000D01*
X59840000Y-77830000D02*
X59840000Y-81830000D01*
X59365000Y-76710000D02*
X59365000Y-77830000D01*
X59380323Y-76710000D02*
X59349677Y-76710000D01*
X58990000Y-77830000D02*
X58990000Y-81830000D01*
X58990000Y-81830000D02*
X58470000Y-81830000D01*
X58470000Y-81830000D02*
X58470000Y-77830000D01*
X58095000Y-76710000D02*
X58095000Y-77830000D01*
X58110323Y-76710000D02*
X58079677Y-76710000D01*
X57720000Y-77830000D02*
X57720000Y-81830000D01*
X57720000Y-81830000D02*
X57200000Y-81830000D01*
X57200000Y-81830000D02*
X57200000Y-77830000D01*
X56825000Y-76710000D02*
X56825000Y-77830000D01*
X56840323Y-76710000D02*
X56809677Y-76710000D01*
X56450000Y-77830000D02*
X56450000Y-81830000D01*
X56450000Y-81830000D02*
X55930000Y-81830000D01*
X55930000Y-81830000D02*
X55930000Y-77830000D01*
X55555000Y-76710000D02*
X55555000Y-77830000D01*
X55570323Y-76710000D02*
X55539677Y-76710000D01*
X55180000Y-77830000D02*
X55180000Y-81830000D01*
X55180000Y-81830000D02*
X54660000Y-81830000D01*
X54660000Y-81830000D02*
X54660000Y-77830000D01*
X60000000Y-74240000D02*
X60760000Y-74240000D01*
X60760000Y-74240000D02*
X60760000Y-75000000D01*
X74350000Y-60000000D02*
X74350000Y-59000000D01*
X72650000Y-59000000D02*
X72650000Y-60000000D01*
X59560000Y-71870000D02*
X59560000Y-61590000D01*
X59560000Y-61590000D02*
X56900000Y-61590000D01*
X56900000Y-61590000D02*
X56900000Y-71870000D01*
X56900000Y-71870000D02*
X59560000Y-71870000D01*
X56900000Y-70920000D02*
X50900000Y-70920000D01*
X50900000Y-70920000D02*
X50900000Y-70160000D01*
X50900000Y-70160000D02*
X56900000Y-70160000D01*
X56900000Y-70860000D02*
X50900000Y-70860000D01*
X56900000Y-70740000D02*
X50900000Y-70740000D01*
X56900000Y-70620000D02*
X50900000Y-70620000D01*
X56900000Y-70500000D02*
X50900000Y-70500000D01*
X56900000Y-70380000D02*
X50900000Y-70380000D01*
X56900000Y-70260000D02*
X50900000Y-70260000D01*
X59890000Y-70920000D02*
X59560000Y-70920000D01*
X59890000Y-70160000D02*
X59560000Y-70160000D01*
X59560000Y-69270000D02*
X56900000Y-69270000D01*
X56900000Y-68380000D02*
X50900000Y-68380000D01*
X50900000Y-68380000D02*
X50900000Y-67620000D01*
X50900000Y-67620000D02*
X56900000Y-67620000D01*
X59957071Y-68380000D02*
X59560000Y-68380000D01*
X59957071Y-67620000D02*
X59560000Y-67620000D01*
X59560000Y-66730000D02*
X56900000Y-66730000D01*
X56900000Y-65840000D02*
X50900000Y-65840000D01*
X50900000Y-65840000D02*
X50900000Y-65080000D01*
X50900000Y-65080000D02*
X56900000Y-65080000D01*
X59957071Y-65840000D02*
X59560000Y-65840000D01*
X59957071Y-65080000D02*
X59560000Y-65080000D01*
X59560000Y-64190000D02*
X56900000Y-64190000D01*
X56900000Y-63300000D02*
X50900000Y-63300000D01*
X50900000Y-63300000D02*
X50900000Y-62540000D01*
X50900000Y-62540000D02*
X56900000Y-62540000D01*
X59957071Y-63300000D02*
X59560000Y-63300000D01*
X59957071Y-62540000D02*
X59560000Y-62540000D01*
X62270000Y-70540000D02*
X62270000Y-71810000D01*
X62270000Y-71810000D02*
X61000000Y-71810000D01*
X87500000Y-48350000D02*
X88500000Y-48350000D01*
X88500000Y-46650000D02*
X87500000Y-46650000D01*
X87500000Y-53350000D02*
X88500000Y-53350000D01*
X88500000Y-51650000D02*
X87500000Y-51650000D01*
X86750000Y-61350000D02*
X87750000Y-61350000D01*
X87750000Y-59650000D02*
X86750000Y-59650000D01*
X86750000Y-58100000D02*
X87750000Y-58100000D01*
X87750000Y-56400000D02*
X86750000Y-56400000D01*
X83100000Y-62750000D02*
X83100000Y-61750000D01*
X81400000Y-61750000D02*
X81400000Y-62750000D01*
X52350000Y-46500000D02*
X52350000Y-45500000D01*
X50650000Y-45500000D02*
X50650000Y-46500000D01*
X56650000Y-45500000D02*
X56650000Y-46500000D01*
X58350000Y-46500000D02*
X58350000Y-45500000D01*
X64150000Y-69250000D02*
X64150000Y-70250000D01*
X65850000Y-70250000D02*
X65850000Y-69250000D01*
X73350000Y-70250000D02*
X73350000Y-69250000D01*
X71650000Y-69250000D02*
X71650000Y-70250000D01*
X96050000Y-73600000D02*
X96050000Y-79100000D01*
X93950000Y-73600000D02*
X93950000Y-79100000D01*
X96050000Y-73600000D02*
X93950000Y-73600000D01*
X101000000Y-80750000D02*
X97800000Y-80750000D01*
X97800000Y-79250000D02*
X101000000Y-79250000D01*
X97800000Y-79250000D02*
X97800000Y-80750000D01*
X105750000Y-80750000D02*
X102550000Y-80750000D01*
X102550000Y-79250000D02*
X105750000Y-79250000D01*
X102550000Y-79250000D02*
X102550000Y-80750000D01*
X110500000Y-80750000D02*
X107300000Y-80750000D01*
X107300000Y-79250000D02*
X110500000Y-79250000D01*
X107300000Y-79250000D02*
X107300000Y-80750000D01*
X78619677Y-76710000D02*
X78695000Y-76710000D01*
X78695000Y-76710000D02*
X78695000Y-77830000D01*
X78695000Y-77830000D02*
X72225000Y-77830000D01*
X72225000Y-77830000D02*
X72225000Y-76710000D01*
X72225000Y-76710000D02*
X72300323Y-76710000D01*
X78260000Y-77830000D02*
X78260000Y-81830000D01*
X78260000Y-81830000D02*
X77740000Y-81830000D01*
X77740000Y-81830000D02*
X77740000Y-77830000D01*
X78200000Y-77830000D02*
X78200000Y-81830000D01*
X78080000Y-77830000D02*
X78080000Y-81830000D01*
X77960000Y-77830000D02*
X77960000Y-81830000D01*
X77840000Y-77830000D02*
X77840000Y-81830000D01*
X77365000Y-76710000D02*
X77365000Y-77830000D01*
X77380323Y-76710000D02*
X77349677Y-76710000D01*
X76990000Y-77830000D02*
X76990000Y-81830000D01*
X76990000Y-81830000D02*
X76470000Y-81830000D01*
X76470000Y-81830000D02*
X76470000Y-77830000D01*
X76095000Y-76710000D02*
X76095000Y-77830000D01*
X76110323Y-76710000D02*
X76079677Y-76710000D01*
X75720000Y-77830000D02*
X75720000Y-81830000D01*
X75720000Y-81830000D02*
X75200000Y-81830000D01*
X75200000Y-81830000D02*
X75200000Y-77830000D01*
X74825000Y-76710000D02*
X74825000Y-77830000D01*
X74840323Y-76710000D02*
X74809677Y-76710000D01*
X74450000Y-77830000D02*
X74450000Y-81830000D01*
X74450000Y-81830000D02*
X73930000Y-81830000D01*
X73930000Y-81830000D02*
X73930000Y-77830000D01*
X73555000Y-76710000D02*
X73555000Y-77830000D01*
X73570323Y-76710000D02*
X73539677Y-76710000D01*
X73180000Y-77830000D02*
X73180000Y-81830000D01*
X73180000Y-81830000D02*
X72660000Y-81830000D01*
X72660000Y-81830000D02*
X72660000Y-77830000D01*
X78000000Y-74240000D02*
X78760000Y-74240000D01*
X78760000Y-74240000D02*
X78760000Y-75000000D01*
X57830000Y-43330000D02*
X57830000Y-40670000D01*
X55230000Y-43330000D02*
X57830000Y-43330000D01*
X55230000Y-40670000D02*
X57830000Y-40670000D01*
X55230000Y-43330000D02*
X55230000Y-40670000D01*
X53960000Y-43330000D02*
X52630000Y-43330000D01*
X52630000Y-43330000D02*
X52630000Y-42000000D01*
X92980000Y-73750000D02*
X92980000Y-75750000D01*
X90020000Y-75750000D02*
X90020000Y-73750000D01*
X66605000Y-45190000D02*
X65675000Y-45190000D01*
X63445000Y-45190000D02*
X64375000Y-45190000D01*
X63445000Y-45190000D02*
X63445000Y-48350000D01*
X66605000Y-45190000D02*
X66605000Y-46650000D01*
X109120000Y-70750000D02*
X109120000Y-69550000D01*
X110880000Y-69550000D02*
X110880000Y-70750000D01*
X85520000Y-80050000D02*
X85520000Y-78850000D01*
X87280000Y-78850000D02*
X87280000Y-80050000D01*
X76250000Y-47880000D02*
X75050000Y-47880000D01*
X75050000Y-46120000D02*
X76250000Y-46120000D01*
X64600000Y-56205000D02*
X63400000Y-56205000D01*
X63400000Y-54445000D02*
X64600000Y-54445000D01*
X64600000Y-54205000D02*
X63400000Y-54205000D01*
X63400000Y-52445000D02*
X64600000Y-52445000D01*
X69450000Y-57380000D02*
X68250000Y-57380000D01*
X68250000Y-55620000D02*
X69450000Y-55620000D01*
X69350000Y-53130000D02*
X68150000Y-53130000D01*
X68150000Y-51370000D02*
X69350000Y-51370000D01*
X95620000Y-71600000D02*
X95620000Y-70600000D01*
X98980000Y-71600000D02*
X98980000Y-70600000D01*
X102000000Y-53500000D02*
X106500000Y-53500000D01*
X100750000Y-49500000D02*
X100750000Y-51000000D01*
X106500000Y-47000000D02*
X102000000Y-47000000D01*
X107750000Y-51000000D02*
X107750000Y-49500000D01*
X102000000Y-73500000D02*
X106500000Y-73500000D01*
X100750000Y-69500000D02*
X100750000Y-71000000D01*
X106500000Y-67000000D02*
X102000000Y-67000000D01*
X107750000Y-71000000D02*
X107750000Y-69500000D01*
D13*
X83275000Y-58375000D02*
X83275000Y-57925000D01*
X76025000Y-58375000D02*
X76025000Y-57850000D01*
X76025000Y-51125000D02*
X76025000Y-51650000D01*
X83275000Y-51125000D02*
X83275000Y-51650000D01*
X83275000Y-58375000D02*
X82750000Y-58375000D01*
X83275000Y-51125000D02*
X82750000Y-51125000D01*
X76025000Y-51125000D02*
X76550000Y-51125000D01*
X76025000Y-58375000D02*
X76550000Y-58375000D01*
X83275000Y-57925000D02*
X84650000Y-57925000D01*
D12*
X52940000Y-45250000D02*
X52940000Y-47050000D01*
X56160000Y-47050000D02*
X56160000Y-44600000D01*
X68100000Y-71610000D02*
X69900000Y-71610000D01*
X69900000Y-68390000D02*
X67450000Y-68390000D01*
X88750000Y-81660000D02*
X90550000Y-81660000D01*
X90550000Y-78440000D02*
X88100000Y-78440000D01*
X78950000Y-43330000D02*
X78950000Y-40670000D01*
X63650000Y-43330000D02*
X78950000Y-43330000D01*
X63650000Y-40670000D02*
X78950000Y-40670000D01*
X63650000Y-43330000D02*
X63650000Y-40670000D01*
X62380000Y-43330000D02*
X61050000Y-43330000D01*
X61050000Y-43330000D02*
X61050000Y-42000000D01*
X95525000Y-46835000D02*
X95525000Y-53085000D01*
X90475000Y-46835000D02*
X90475000Y-53085000D01*
X90475000Y-46835000D02*
G75*
G02X95525000Y-46835000I2525000J0D01*
G01*
X90475000Y-53085000D02*
G75*
G03X95525000Y-53085000I2525000J0D01*
G01*
X75250000Y-49600000D02*
X76250000Y-49600000D01*
X76250000Y-47900000D02*
X75250000Y-47900000D01*
X88500000Y-49900000D02*
X87500000Y-49900000D01*
X87500000Y-51600000D02*
X88500000Y-51600000D01*
X75120000Y-67400000D02*
X75120000Y-66400000D01*
X78480000Y-67400000D02*
X78480000Y-66400000D01*
X82680000Y-66400000D02*
X82680000Y-67400000D01*
X79320000Y-66400000D02*
X79320000Y-67400000D01*
X83400000Y-75130000D02*
X85400000Y-75130000D01*
X85400000Y-77270000D02*
X83400000Y-77270000D01*
X68000000Y-74130000D02*
X70000000Y-74130000D01*
X70000000Y-76270000D02*
X68000000Y-76270000D01*
X79900000Y-72150000D02*
X79900000Y-75450000D01*
X79900000Y-75450000D02*
X86800000Y-75450000D01*
X79900000Y-72150000D02*
X86800000Y-72150000D01*
X63350000Y-67100000D02*
X67650000Y-67100000D01*
X67650000Y-67100000D02*
X67650000Y-59800000D01*
X63350000Y-67100000D02*
X63350000Y-59800000D01*
X67850000Y-67000000D02*
X72150000Y-67000000D01*
X72150000Y-67000000D02*
X72150000Y-59700000D01*
X67850000Y-67000000D02*
X67850000Y-59700000D01*
D13*
X83157143Y-69707143D02*
X83109524Y-69754762D01*
X82966667Y-69802381D01*
X82871429Y-69802381D01*
X82728571Y-69754762D01*
X82633333Y-69659524D01*
X82585714Y-69564286D01*
X82538095Y-69373810D01*
X82538095Y-69230952D01*
X82585714Y-69040476D01*
X82633333Y-68945238D01*
X82728571Y-68850000D01*
X82871429Y-68802381D01*
X82966667Y-68802381D01*
X83109524Y-68850000D01*
X83157143Y-68897619D01*
X84014286Y-69135714D02*
X84014286Y-69802381D01*
X83776190Y-68754762D02*
X83538095Y-69469048D01*
X84157143Y-69469048D01*
X84490476Y-68897619D02*
X84538095Y-68850000D01*
X84633333Y-68802381D01*
X84871429Y-68802381D01*
X84966667Y-68850000D01*
X85014286Y-68897619D01*
X85061905Y-68992857D01*
X85061905Y-69088095D01*
X85014286Y-69230952D01*
X84442857Y-69802381D01*
X85061905Y-69802381D01*
X61087381Y-78877023D02*
X61801667Y-78877023D01*
X61944524Y-78924643D01*
X62039762Y-79019881D01*
X62087381Y-79162738D01*
X62087381Y-79257976D01*
X62087381Y-77877023D02*
X62087381Y-78448452D01*
X62087381Y-78162738D02*
X61087381Y-78162738D01*
X61230238Y-78257976D01*
X61325476Y-78353214D01*
X61373095Y-78448452D01*
X62087381Y-76924642D02*
X62087381Y-77496071D01*
X62087381Y-77210357D02*
X61087381Y-77210357D01*
X61230238Y-77305595D01*
X61325476Y-77400833D01*
X61373095Y-77496071D01*
X75607143Y-60142857D02*
X75654762Y-60190476D01*
X75702381Y-60333333D01*
X75702381Y-60428571D01*
X75654762Y-60571429D01*
X75559524Y-60666667D01*
X75464286Y-60714286D01*
X75273810Y-60761905D01*
X75130952Y-60761905D01*
X74940476Y-60714286D01*
X74845238Y-60666667D01*
X74750000Y-60571429D01*
X74702381Y-60428571D01*
X74702381Y-60333333D01*
X74750000Y-60190476D01*
X74797619Y-60142857D01*
X75702381Y-59190476D02*
X75702381Y-59761905D01*
X75702381Y-59476191D02*
X74702381Y-59476191D01*
X74845238Y-59571429D01*
X74940476Y-59666667D01*
X74988095Y-59761905D01*
X75130952Y-58619048D02*
X75083333Y-58714286D01*
X75035714Y-58761905D01*
X74940476Y-58809524D01*
X74892857Y-58809524D01*
X74797619Y-58761905D01*
X74750000Y-58714286D01*
X74702381Y-58619048D01*
X74702381Y-58428571D01*
X74750000Y-58333333D01*
X74797619Y-58285714D01*
X74892857Y-58238095D01*
X74940476Y-58238095D01*
X75035714Y-58285714D01*
X75083333Y-58333333D01*
X75130952Y-58428571D01*
X75130952Y-58619048D01*
X75178571Y-58714286D01*
X75226190Y-58761905D01*
X75321429Y-58809524D01*
X75511905Y-58809524D01*
X75607143Y-58761905D01*
X75654762Y-58714286D01*
X75702381Y-58619048D01*
X75702381Y-58428571D01*
X75654762Y-58333333D01*
X75607143Y-58285714D01*
X75511905Y-58238095D01*
X75321429Y-58238095D01*
X75226190Y-58285714D01*
X75178571Y-58333333D01*
X75130952Y-58428571D01*
X55805477Y-72262381D02*
X55805477Y-72976667D01*
X55757857Y-73119524D01*
X55662619Y-73214762D01*
X55519762Y-73262381D01*
X55424524Y-73262381D01*
X56805477Y-73262381D02*
X56234048Y-73262381D01*
X56519762Y-73262381D02*
X56519762Y-72262381D01*
X56424524Y-72405238D01*
X56329286Y-72500476D01*
X56234048Y-72548095D01*
X57138810Y-72262381D02*
X57757858Y-72262381D01*
X57424524Y-72643333D01*
X57567382Y-72643333D01*
X57662620Y-72690952D01*
X57710239Y-72738571D01*
X57757858Y-72833810D01*
X57757858Y-73071905D01*
X57710239Y-73167143D01*
X57662620Y-73214762D01*
X57567382Y-73262381D01*
X57281667Y-73262381D01*
X57186429Y-73214762D01*
X57138810Y-73167143D01*
X87357143Y-46357143D02*
X87309524Y-46404762D01*
X87166667Y-46452381D01*
X87071429Y-46452381D01*
X86928571Y-46404762D01*
X86833333Y-46309524D01*
X86785714Y-46214286D01*
X86738095Y-46023810D01*
X86738095Y-45880952D01*
X86785714Y-45690476D01*
X86833333Y-45595238D01*
X86928571Y-45500000D01*
X87071429Y-45452381D01*
X87166667Y-45452381D01*
X87309524Y-45500000D01*
X87357143Y-45547619D01*
X88309524Y-46452381D02*
X87738095Y-46452381D01*
X88023809Y-46452381D02*
X88023809Y-45452381D01*
X87928571Y-45595238D01*
X87833333Y-45690476D01*
X87738095Y-45738095D01*
X89261905Y-46452381D02*
X88690476Y-46452381D01*
X88976190Y-46452381D02*
X88976190Y-45452381D01*
X88880952Y-45595238D01*
X88785714Y-45690476D01*
X88690476Y-45738095D01*
X87357143Y-54607143D02*
X87309524Y-54654762D01*
X87166667Y-54702381D01*
X87071429Y-54702381D01*
X86928571Y-54654762D01*
X86833333Y-54559524D01*
X86785714Y-54464286D01*
X86738095Y-54273810D01*
X86738095Y-54130952D01*
X86785714Y-53940476D01*
X86833333Y-53845238D01*
X86928571Y-53750000D01*
X87071429Y-53702381D01*
X87166667Y-53702381D01*
X87309524Y-53750000D01*
X87357143Y-53797619D01*
X88309524Y-54702381D02*
X87738095Y-54702381D01*
X88023809Y-54702381D02*
X88023809Y-53702381D01*
X87928571Y-53845238D01*
X87833333Y-53940476D01*
X87738095Y-53988095D01*
X88690476Y-53797619D02*
X88738095Y-53750000D01*
X88833333Y-53702381D01*
X89071429Y-53702381D01*
X89166667Y-53750000D01*
X89214286Y-53797619D01*
X89261905Y-53892857D01*
X89261905Y-53988095D01*
X89214286Y-54130952D01*
X88642857Y-54702381D01*
X89261905Y-54702381D01*
X86607143Y-62607143D02*
X86559524Y-62654762D01*
X86416667Y-62702381D01*
X86321429Y-62702381D01*
X86178571Y-62654762D01*
X86083333Y-62559524D01*
X86035714Y-62464286D01*
X85988095Y-62273810D01*
X85988095Y-62130952D01*
X86035714Y-61940476D01*
X86083333Y-61845238D01*
X86178571Y-61750000D01*
X86321429Y-61702381D01*
X86416667Y-61702381D01*
X86559524Y-61750000D01*
X86607143Y-61797619D01*
X87559524Y-62702381D02*
X86988095Y-62702381D01*
X87273809Y-62702381D02*
X87273809Y-61702381D01*
X87178571Y-61845238D01*
X87083333Y-61940476D01*
X86988095Y-61988095D01*
X87892857Y-61702381D02*
X88511905Y-61702381D01*
X88178571Y-62083333D01*
X88321429Y-62083333D01*
X88416667Y-62130952D01*
X88464286Y-62178571D01*
X88511905Y-62273810D01*
X88511905Y-62511905D01*
X88464286Y-62607143D01*
X88416667Y-62654762D01*
X88321429Y-62702381D01*
X88035714Y-62702381D01*
X87940476Y-62654762D01*
X87892857Y-62607143D01*
X86607143Y-59357143D02*
X86559524Y-59404762D01*
X86416667Y-59452381D01*
X86321429Y-59452381D01*
X86178571Y-59404762D01*
X86083333Y-59309524D01*
X86035714Y-59214286D01*
X85988095Y-59023810D01*
X85988095Y-58880952D01*
X86035714Y-58690476D01*
X86083333Y-58595238D01*
X86178571Y-58500000D01*
X86321429Y-58452381D01*
X86416667Y-58452381D01*
X86559524Y-58500000D01*
X86607143Y-58547619D01*
X87559524Y-59452381D02*
X86988095Y-59452381D01*
X87273809Y-59452381D02*
X87273809Y-58452381D01*
X87178571Y-58595238D01*
X87083333Y-58690476D01*
X86988095Y-58738095D01*
X88416667Y-58785714D02*
X88416667Y-59452381D01*
X88178571Y-58404762D02*
X87940476Y-59119048D01*
X88559524Y-59119048D01*
X84357143Y-62892857D02*
X84404762Y-62940476D01*
X84452381Y-63083333D01*
X84452381Y-63178571D01*
X84404762Y-63321429D01*
X84309524Y-63416667D01*
X84214286Y-63464286D01*
X84023810Y-63511905D01*
X83880952Y-63511905D01*
X83690476Y-63464286D01*
X83595238Y-63416667D01*
X83500000Y-63321429D01*
X83452381Y-63178571D01*
X83452381Y-63083333D01*
X83500000Y-62940476D01*
X83547619Y-62892857D01*
X84452381Y-61940476D02*
X84452381Y-62511905D01*
X84452381Y-62226191D02*
X83452381Y-62226191D01*
X83595238Y-62321429D01*
X83690476Y-62416667D01*
X83738095Y-62511905D01*
X83452381Y-61083333D02*
X83452381Y-61273810D01*
X83500000Y-61369048D01*
X83547619Y-61416667D01*
X83690476Y-61511905D01*
X83880952Y-61559524D01*
X84261905Y-61559524D01*
X84357143Y-61511905D01*
X84404762Y-61464286D01*
X84452381Y-61369048D01*
X84452381Y-61178571D01*
X84404762Y-61083333D01*
X84357143Y-61035714D01*
X84261905Y-60988095D01*
X84023810Y-60988095D01*
X83928571Y-61035714D01*
X83880952Y-61083333D01*
X83833333Y-61178571D01*
X83833333Y-61369048D01*
X83880952Y-61464286D01*
X83928571Y-61511905D01*
X84023810Y-61559524D01*
X51357143Y-50142857D02*
X51404762Y-50190476D01*
X51452381Y-50333333D01*
X51452381Y-50428571D01*
X51404762Y-50571429D01*
X51309524Y-50666667D01*
X51214286Y-50714286D01*
X51023810Y-50761905D01*
X50880952Y-50761905D01*
X50690476Y-50714286D01*
X50595238Y-50666667D01*
X50500000Y-50571429D01*
X50452381Y-50428571D01*
X50452381Y-50333333D01*
X50500000Y-50190476D01*
X50547619Y-50142857D01*
X50547619Y-49761905D02*
X50500000Y-49714286D01*
X50452381Y-49619048D01*
X50452381Y-49380952D01*
X50500000Y-49285714D01*
X50547619Y-49238095D01*
X50642857Y-49190476D01*
X50738095Y-49190476D01*
X50880952Y-49238095D01*
X51452381Y-49809524D01*
X51452381Y-49190476D01*
X51452381Y-48238095D02*
X51452381Y-48809524D01*
X51452381Y-48523810D02*
X50452381Y-48523810D01*
X50595238Y-48619048D01*
X50690476Y-48714286D01*
X50738095Y-48809524D01*
X60357143Y-46642857D02*
X60404762Y-46690476D01*
X60452381Y-46833333D01*
X60452381Y-46928571D01*
X60404762Y-47071429D01*
X60309524Y-47166667D01*
X60214286Y-47214286D01*
X60023810Y-47261905D01*
X59880952Y-47261905D01*
X59690476Y-47214286D01*
X59595238Y-47166667D01*
X59500000Y-47071429D01*
X59452381Y-46928571D01*
X59452381Y-46833333D01*
X59500000Y-46690476D01*
X59547619Y-46642857D01*
X59547619Y-46261905D02*
X59500000Y-46214286D01*
X59452381Y-46119048D01*
X59452381Y-45880952D01*
X59500000Y-45785714D01*
X59547619Y-45738095D01*
X59642857Y-45690476D01*
X59738095Y-45690476D01*
X59880952Y-45738095D01*
X60452381Y-46309524D01*
X60452381Y-45690476D01*
X59547619Y-45309524D02*
X59500000Y-45261905D01*
X59452381Y-45166667D01*
X59452381Y-44928571D01*
X59500000Y-44833333D01*
X59547619Y-44785714D01*
X59642857Y-44738095D01*
X59738095Y-44738095D01*
X59880952Y-44785714D01*
X60452381Y-45357143D01*
X60452381Y-44738095D01*
X63607143Y-70392857D02*
X63654762Y-70440476D01*
X63702381Y-70583333D01*
X63702381Y-70678571D01*
X63654762Y-70821429D01*
X63559524Y-70916667D01*
X63464286Y-70964286D01*
X63273810Y-71011905D01*
X63130952Y-71011905D01*
X62940476Y-70964286D01*
X62845238Y-70916667D01*
X62750000Y-70821429D01*
X62702381Y-70678571D01*
X62702381Y-70583333D01*
X62750000Y-70440476D01*
X62797619Y-70392857D01*
X62702381Y-70059524D02*
X62702381Y-69440476D01*
X63083333Y-69773810D01*
X63083333Y-69630952D01*
X63130952Y-69535714D01*
X63178571Y-69488095D01*
X63273810Y-69440476D01*
X63511905Y-69440476D01*
X63607143Y-69488095D01*
X63654762Y-69535714D01*
X63702381Y-69630952D01*
X63702381Y-69916667D01*
X63654762Y-70011905D01*
X63607143Y-70059524D01*
X63702381Y-68488095D02*
X63702381Y-69059524D01*
X63702381Y-68773810D02*
X62702381Y-68773810D01*
X62845238Y-68869048D01*
X62940476Y-68964286D01*
X62988095Y-69059524D01*
X74607143Y-70392857D02*
X74654762Y-70440476D01*
X74702381Y-70583333D01*
X74702381Y-70678571D01*
X74654762Y-70821429D01*
X74559524Y-70916667D01*
X74464286Y-70964286D01*
X74273810Y-71011905D01*
X74130952Y-71011905D01*
X73940476Y-70964286D01*
X73845238Y-70916667D01*
X73750000Y-70821429D01*
X73702381Y-70678571D01*
X73702381Y-70583333D01*
X73750000Y-70440476D01*
X73797619Y-70392857D01*
X73702381Y-70059524D02*
X73702381Y-69440476D01*
X74083333Y-69773810D01*
X74083333Y-69630952D01*
X74130952Y-69535714D01*
X74178571Y-69488095D01*
X74273810Y-69440476D01*
X74511905Y-69440476D01*
X74607143Y-69488095D01*
X74654762Y-69535714D01*
X74702381Y-69630952D01*
X74702381Y-69916667D01*
X74654762Y-70011905D01*
X74607143Y-70059524D01*
X73797619Y-69059524D02*
X73750000Y-69011905D01*
X73702381Y-68916667D01*
X73702381Y-68678571D01*
X73750000Y-68583333D01*
X73797619Y-68535714D01*
X73892857Y-68488095D01*
X73988095Y-68488095D01*
X74130952Y-68535714D01*
X74702381Y-69107143D01*
X74702381Y-68488095D01*
X97357143Y-78142857D02*
X97404762Y-78190476D01*
X97452381Y-78333333D01*
X97452381Y-78428571D01*
X97404762Y-78571429D01*
X97309524Y-78666667D01*
X97214286Y-78714286D01*
X97023810Y-78761905D01*
X96880952Y-78761905D01*
X96690476Y-78714286D01*
X96595238Y-78666667D01*
X96500000Y-78571429D01*
X96452381Y-78428571D01*
X96452381Y-78333333D01*
X96500000Y-78190476D01*
X96547619Y-78142857D01*
X96785714Y-77285714D02*
X97452381Y-77285714D01*
X96404762Y-77523810D02*
X97119048Y-77761905D01*
X97119048Y-77142857D01*
X97452381Y-76238095D02*
X97452381Y-76809524D01*
X97452381Y-76523810D02*
X96452381Y-76523810D01*
X96595238Y-76619048D01*
X96690476Y-76714286D01*
X96738095Y-76809524D01*
X99261905Y-78752381D02*
X99261905Y-77752381D01*
X99500000Y-77752381D01*
X99642858Y-77800000D01*
X99738096Y-77895238D01*
X99785715Y-77990476D01*
X99833334Y-78180952D01*
X99833334Y-78323810D01*
X99785715Y-78514286D01*
X99738096Y-78609524D01*
X99642858Y-78704762D01*
X99500000Y-78752381D01*
X99261905Y-78752381D01*
X100166667Y-77752381D02*
X100785715Y-77752381D01*
X100452381Y-78133333D01*
X100595239Y-78133333D01*
X100690477Y-78180952D01*
X100738096Y-78228571D01*
X100785715Y-78323810D01*
X100785715Y-78561905D01*
X100738096Y-78657143D01*
X100690477Y-78704762D01*
X100595239Y-78752381D01*
X100309524Y-78752381D01*
X100214286Y-78704762D01*
X100166667Y-78657143D01*
X104011905Y-78752381D02*
X104011905Y-77752381D01*
X104250000Y-77752381D01*
X104392858Y-77800000D01*
X104488096Y-77895238D01*
X104535715Y-77990476D01*
X104583334Y-78180952D01*
X104583334Y-78323810D01*
X104535715Y-78514286D01*
X104488096Y-78609524D01*
X104392858Y-78704762D01*
X104250000Y-78752381D01*
X104011905Y-78752381D01*
X105440477Y-78085714D02*
X105440477Y-78752381D01*
X105202381Y-77704762D02*
X104964286Y-78419048D01*
X105583334Y-78419048D01*
X108761905Y-78752381D02*
X108761905Y-77752381D01*
X109000000Y-77752381D01*
X109142858Y-77800000D01*
X109238096Y-77895238D01*
X109285715Y-77990476D01*
X109333334Y-78180952D01*
X109333334Y-78323810D01*
X109285715Y-78514286D01*
X109238096Y-78609524D01*
X109142858Y-78704762D01*
X109000000Y-78752381D01*
X108761905Y-78752381D01*
X110238096Y-77752381D02*
X109761905Y-77752381D01*
X109714286Y-78228571D01*
X109761905Y-78180952D01*
X109857143Y-78133333D01*
X110095239Y-78133333D01*
X110190477Y-78180952D01*
X110238096Y-78228571D01*
X110285715Y-78323810D01*
X110285715Y-78561905D01*
X110238096Y-78657143D01*
X110190477Y-78704762D01*
X110095239Y-78752381D01*
X109857143Y-78752381D01*
X109761905Y-78704762D01*
X109714286Y-78657143D01*
X74990477Y-73052381D02*
X74990477Y-73766667D01*
X74942857Y-73909524D01*
X74847619Y-74004762D01*
X74704762Y-74052381D01*
X74609524Y-74052381D01*
X75990477Y-74052381D02*
X75419048Y-74052381D01*
X75704762Y-74052381D02*
X75704762Y-73052381D01*
X75609524Y-73195238D01*
X75514286Y-73290476D01*
X75419048Y-73338095D01*
X76371429Y-73147619D02*
X76419048Y-73100000D01*
X76514286Y-73052381D01*
X76752382Y-73052381D01*
X76847620Y-73100000D01*
X76895239Y-73147619D01*
X76942858Y-73242857D01*
X76942858Y-73338095D01*
X76895239Y-73480952D01*
X76323810Y-74052381D01*
X76942858Y-74052381D01*
X51082381Y-42809523D02*
X51796667Y-42809523D01*
X51939524Y-42857143D01*
X52034762Y-42952381D01*
X52082381Y-43095238D01*
X52082381Y-43190476D01*
X51177619Y-42380952D02*
X51130000Y-42333333D01*
X51082381Y-42238095D01*
X51082381Y-41999999D01*
X51130000Y-41904761D01*
X51177619Y-41857142D01*
X51272857Y-41809523D01*
X51368095Y-41809523D01*
X51510952Y-41857142D01*
X52082381Y-42428571D01*
X52082381Y-41809523D01*
X52082381Y-40857142D02*
X52082381Y-41428571D01*
X52082381Y-41142857D02*
X51082381Y-41142857D01*
X51225238Y-41238095D01*
X51320476Y-41333333D01*
X51368095Y-41428571D01*
X56952381Y-56809523D02*
X57666667Y-56809523D01*
X57809524Y-56857143D01*
X57904762Y-56952381D01*
X57952381Y-57095238D01*
X57952381Y-57190476D01*
X56952381Y-55904761D02*
X56952381Y-56095238D01*
X57000000Y-56190476D01*
X57047619Y-56238095D01*
X57190476Y-56333333D01*
X57380952Y-56380952D01*
X57761905Y-56380952D01*
X57857143Y-56333333D01*
X57904762Y-56285714D01*
X57952381Y-56190476D01*
X57952381Y-55999999D01*
X57904762Y-55904761D01*
X57857143Y-55857142D01*
X57761905Y-55809523D01*
X57523810Y-55809523D01*
X57428571Y-55857142D01*
X57380952Y-55904761D01*
X57333333Y-55999999D01*
X57333333Y-56190476D01*
X57380952Y-56285714D01*
X57428571Y-56333333D01*
X57523810Y-56380952D01*
X57952381Y-54857142D02*
X57952381Y-55428571D01*
X57952381Y-55142857D02*
X56952381Y-55142857D01*
X57095238Y-55238095D01*
X57190476Y-55333333D01*
X57238095Y-55428571D01*
X89452381Y-72642857D02*
X89452381Y-73119048D01*
X88452381Y-73119048D01*
X88785714Y-71880952D02*
X89452381Y-71880952D01*
X88404762Y-72119048D02*
X89119048Y-72357143D01*
X89119048Y-71738095D01*
X89452381Y-70833333D02*
X89452381Y-71404762D01*
X89452381Y-71119048D02*
X88452381Y-71119048D01*
X88595238Y-71214286D01*
X88690476Y-71309524D01*
X88738095Y-71404762D01*
X62428572Y-44547619D02*
X62333334Y-44500000D01*
X62238096Y-44404762D01*
X62095239Y-44261905D01*
X62000000Y-44214286D01*
X61904762Y-44214286D01*
X61952381Y-44452381D02*
X61857143Y-44404762D01*
X61761905Y-44309524D01*
X61714286Y-44119048D01*
X61714286Y-43785714D01*
X61761905Y-43595238D01*
X61857143Y-43500000D01*
X61952381Y-43452381D01*
X62142858Y-43452381D01*
X62238096Y-43500000D01*
X62333334Y-43595238D01*
X62380953Y-43785714D01*
X62380953Y-44119048D01*
X62333334Y-44309524D01*
X62238096Y-44404762D01*
X62142858Y-44452381D01*
X61952381Y-44452381D01*
X63285715Y-43452381D02*
X62809524Y-43452381D01*
X62761905Y-43928571D01*
X62809524Y-43880952D01*
X62904762Y-43833333D01*
X63142858Y-43833333D01*
X63238096Y-43880952D01*
X63285715Y-43928571D01*
X63333334Y-44023810D01*
X63333334Y-44261905D01*
X63285715Y-44357143D01*
X63238096Y-44404762D01*
X63142858Y-44452381D01*
X62904762Y-44452381D01*
X62809524Y-44404762D01*
X62761905Y-44357143D01*
X64285715Y-44452381D02*
X63714286Y-44452381D01*
X64000000Y-44452381D02*
X64000000Y-43452381D01*
X63904762Y-43595238D01*
X63809524Y-43690476D01*
X63714286Y-43738095D01*
X112152381Y-70792857D02*
X111676190Y-71126191D01*
X112152381Y-71364286D02*
X111152381Y-71364286D01*
X111152381Y-70983333D01*
X111200000Y-70888095D01*
X111247619Y-70840476D01*
X111342857Y-70792857D01*
X111485714Y-70792857D01*
X111580952Y-70840476D01*
X111628571Y-70888095D01*
X111676190Y-70983333D01*
X111676190Y-71364286D01*
X112152381Y-69840476D02*
X112152381Y-70411905D01*
X112152381Y-70126191D02*
X111152381Y-70126191D01*
X111295238Y-70221429D01*
X111390476Y-70316667D01*
X111438095Y-70411905D01*
X111247619Y-69459524D02*
X111200000Y-69411905D01*
X111152381Y-69316667D01*
X111152381Y-69078571D01*
X111200000Y-68983333D01*
X111247619Y-68935714D01*
X111342857Y-68888095D01*
X111438095Y-68888095D01*
X111580952Y-68935714D01*
X112152381Y-69507143D01*
X112152381Y-68888095D01*
X85052381Y-80042857D02*
X84576190Y-80376191D01*
X85052381Y-80614286D02*
X84052381Y-80614286D01*
X84052381Y-80233333D01*
X84100000Y-80138095D01*
X84147619Y-80090476D01*
X84242857Y-80042857D01*
X84385714Y-80042857D01*
X84480952Y-80090476D01*
X84528571Y-80138095D01*
X84576190Y-80233333D01*
X84576190Y-80614286D01*
X84385714Y-79185714D02*
X85052381Y-79185714D01*
X84004762Y-79423810D02*
X84719048Y-79661905D01*
X84719048Y-79042857D01*
X85052381Y-78138095D02*
X85052381Y-78709524D01*
X85052381Y-78423810D02*
X84052381Y-78423810D01*
X84195238Y-78519048D01*
X84290476Y-78614286D01*
X84338095Y-78709524D01*
X75007143Y-45752381D02*
X74673809Y-45276190D01*
X74435714Y-45752381D02*
X74435714Y-44752381D01*
X74816667Y-44752381D01*
X74911905Y-44800000D01*
X74959524Y-44847619D01*
X75007143Y-44942857D01*
X75007143Y-45085714D01*
X74959524Y-45180952D01*
X74911905Y-45228571D01*
X74816667Y-45276190D01*
X74435714Y-45276190D01*
X75911905Y-44752381D02*
X75435714Y-44752381D01*
X75388095Y-45228571D01*
X75435714Y-45180952D01*
X75530952Y-45133333D01*
X75769048Y-45133333D01*
X75864286Y-45180952D01*
X75911905Y-45228571D01*
X75959524Y-45323810D01*
X75959524Y-45561905D01*
X75911905Y-45657143D01*
X75864286Y-45704762D01*
X75769048Y-45752381D01*
X75530952Y-45752381D01*
X75435714Y-45704762D01*
X75388095Y-45657143D01*
X76911905Y-45752381D02*
X76340476Y-45752381D01*
X76626190Y-45752381D02*
X76626190Y-44752381D01*
X76530952Y-44895238D01*
X76435714Y-44990476D01*
X76340476Y-45038095D01*
X63357143Y-57427381D02*
X63023809Y-56951190D01*
X62785714Y-57427381D02*
X62785714Y-56427381D01*
X63166667Y-56427381D01*
X63261905Y-56475000D01*
X63309524Y-56522619D01*
X63357143Y-56617857D01*
X63357143Y-56760714D01*
X63309524Y-56855952D01*
X63261905Y-56903571D01*
X63166667Y-56951190D01*
X62785714Y-56951190D01*
X64214286Y-56427381D02*
X64023809Y-56427381D01*
X63928571Y-56475000D01*
X63880952Y-56522619D01*
X63785714Y-56665476D01*
X63738095Y-56855952D01*
X63738095Y-57236905D01*
X63785714Y-57332143D01*
X63833333Y-57379762D01*
X63928571Y-57427381D01*
X64119048Y-57427381D01*
X64214286Y-57379762D01*
X64261905Y-57332143D01*
X64309524Y-57236905D01*
X64309524Y-56998810D01*
X64261905Y-56903571D01*
X64214286Y-56855952D01*
X64119048Y-56808333D01*
X63928571Y-56808333D01*
X63833333Y-56855952D01*
X63785714Y-56903571D01*
X63738095Y-56998810D01*
X65261905Y-57427381D02*
X64690476Y-57427381D01*
X64976190Y-57427381D02*
X64976190Y-56427381D01*
X64880952Y-56570238D01*
X64785714Y-56665476D01*
X64690476Y-56713095D01*
X63357143Y-52077381D02*
X63023809Y-51601190D01*
X62785714Y-52077381D02*
X62785714Y-51077381D01*
X63166667Y-51077381D01*
X63261905Y-51125000D01*
X63309524Y-51172619D01*
X63357143Y-51267857D01*
X63357143Y-51410714D01*
X63309524Y-51505952D01*
X63261905Y-51553571D01*
X63166667Y-51601190D01*
X62785714Y-51601190D01*
X64214286Y-51077381D02*
X64023809Y-51077381D01*
X63928571Y-51125000D01*
X63880952Y-51172619D01*
X63785714Y-51315476D01*
X63738095Y-51505952D01*
X63738095Y-51886905D01*
X63785714Y-51982143D01*
X63833333Y-52029762D01*
X63928571Y-52077381D01*
X64119048Y-52077381D01*
X64214286Y-52029762D01*
X64261905Y-51982143D01*
X64309524Y-51886905D01*
X64309524Y-51648810D01*
X64261905Y-51553571D01*
X64214286Y-51505952D01*
X64119048Y-51458333D01*
X63928571Y-51458333D01*
X63833333Y-51505952D01*
X63785714Y-51553571D01*
X63738095Y-51648810D01*
X64690476Y-51172619D02*
X64738095Y-51125000D01*
X64833333Y-51077381D01*
X65071429Y-51077381D01*
X65166667Y-51125000D01*
X65214286Y-51172619D01*
X65261905Y-51267857D01*
X65261905Y-51363095D01*
X65214286Y-51505952D01*
X64642857Y-52077381D01*
X65261905Y-52077381D01*
X68207143Y-55252381D02*
X67873809Y-54776190D01*
X67635714Y-55252381D02*
X67635714Y-54252381D01*
X68016667Y-54252381D01*
X68111905Y-54300000D01*
X68159524Y-54347619D01*
X68207143Y-54442857D01*
X68207143Y-54585714D01*
X68159524Y-54680952D01*
X68111905Y-54728571D01*
X68016667Y-54776190D01*
X67635714Y-54776190D01*
X69064286Y-54252381D02*
X68873809Y-54252381D01*
X68778571Y-54300000D01*
X68730952Y-54347619D01*
X68635714Y-54490476D01*
X68588095Y-54680952D01*
X68588095Y-55061905D01*
X68635714Y-55157143D01*
X68683333Y-55204762D01*
X68778571Y-55252381D01*
X68969048Y-55252381D01*
X69064286Y-55204762D01*
X69111905Y-55157143D01*
X69159524Y-55061905D01*
X69159524Y-54823810D01*
X69111905Y-54728571D01*
X69064286Y-54680952D01*
X68969048Y-54633333D01*
X68778571Y-54633333D01*
X68683333Y-54680952D01*
X68635714Y-54728571D01*
X68588095Y-54823810D01*
X69492857Y-54252381D02*
X70111905Y-54252381D01*
X69778571Y-54633333D01*
X69921429Y-54633333D01*
X70016667Y-54680952D01*
X70064286Y-54728571D01*
X70111905Y-54823810D01*
X70111905Y-55061905D01*
X70064286Y-55157143D01*
X70016667Y-55204762D01*
X69921429Y-55252381D01*
X69635714Y-55252381D01*
X69540476Y-55204762D01*
X69492857Y-55157143D01*
X68107143Y-51002381D02*
X67773809Y-50526190D01*
X67535714Y-51002381D02*
X67535714Y-50002381D01*
X67916667Y-50002381D01*
X68011905Y-50050000D01*
X68059524Y-50097619D01*
X68107143Y-50192857D01*
X68107143Y-50335714D01*
X68059524Y-50430952D01*
X68011905Y-50478571D01*
X67916667Y-50526190D01*
X67535714Y-50526190D01*
X68964286Y-50002381D02*
X68773809Y-50002381D01*
X68678571Y-50050000D01*
X68630952Y-50097619D01*
X68535714Y-50240476D01*
X68488095Y-50430952D01*
X68488095Y-50811905D01*
X68535714Y-50907143D01*
X68583333Y-50954762D01*
X68678571Y-51002381D01*
X68869048Y-51002381D01*
X68964286Y-50954762D01*
X69011905Y-50907143D01*
X69059524Y-50811905D01*
X69059524Y-50573810D01*
X69011905Y-50478571D01*
X68964286Y-50430952D01*
X68869048Y-50383333D01*
X68678571Y-50383333D01*
X68583333Y-50430952D01*
X68535714Y-50478571D01*
X68488095Y-50573810D01*
X69916667Y-50335714D02*
X69916667Y-51002381D01*
X69678571Y-49954762D02*
X69440476Y-50669048D01*
X70059524Y-50669048D01*
X95452381Y-71690476D02*
X94976190Y-72023810D01*
X95452381Y-72261905D02*
X94452381Y-72261905D01*
X94452381Y-71880952D01*
X94500000Y-71785714D01*
X94547619Y-71738095D01*
X94642857Y-71690476D01*
X94785714Y-71690476D01*
X94880952Y-71738095D01*
X94928571Y-71785714D01*
X94976190Y-71880952D01*
X94976190Y-72261905D01*
X95452381Y-71261905D02*
X94452381Y-71261905D01*
X95452381Y-70690476D01*
X94452381Y-70690476D01*
X95452381Y-69690476D02*
X95452381Y-70261905D01*
X95452381Y-69976191D02*
X94452381Y-69976191D01*
X94595238Y-70071429D01*
X94690476Y-70166667D01*
X94738095Y-70261905D01*
X102440476Y-46404762D02*
X102583333Y-46452381D01*
X102821429Y-46452381D01*
X102916667Y-46404762D01*
X102964286Y-46357143D01*
X103011905Y-46261905D01*
X103011905Y-46166667D01*
X102964286Y-46071429D01*
X102916667Y-46023810D01*
X102821429Y-45976190D01*
X102630952Y-45928571D01*
X102535714Y-45880952D01*
X102488095Y-45833333D01*
X102440476Y-45738095D01*
X102440476Y-45642857D01*
X102488095Y-45547619D01*
X102535714Y-45500000D01*
X102630952Y-45452381D01*
X102869048Y-45452381D01*
X103011905Y-45500000D01*
X103345238Y-45452381D02*
X103583333Y-46452381D01*
X103773810Y-45738095D01*
X103964286Y-46452381D01*
X104202381Y-45452381D01*
X105107143Y-46452381D02*
X104535714Y-46452381D01*
X104821428Y-46452381D02*
X104821428Y-45452381D01*
X104726190Y-45595238D01*
X104630952Y-45690476D01*
X104535714Y-45738095D01*
X106059524Y-46452381D02*
X105488095Y-46452381D01*
X105773809Y-46452381D02*
X105773809Y-45452381D01*
X105678571Y-45595238D01*
X105583333Y-45690476D01*
X105488095Y-45738095D01*
X102440476Y-66404762D02*
X102583333Y-66452381D01*
X102821429Y-66452381D01*
X102916667Y-66404762D01*
X102964286Y-66357143D01*
X103011905Y-66261905D01*
X103011905Y-66166667D01*
X102964286Y-66071429D01*
X102916667Y-66023810D01*
X102821429Y-65976190D01*
X102630952Y-65928571D01*
X102535714Y-65880952D01*
X102488095Y-65833333D01*
X102440476Y-65738095D01*
X102440476Y-65642857D01*
X102488095Y-65547619D01*
X102535714Y-65500000D01*
X102630952Y-65452381D01*
X102869048Y-65452381D01*
X103011905Y-65500000D01*
X103345238Y-65452381D02*
X103583333Y-66452381D01*
X103773810Y-65738095D01*
X103964286Y-66452381D01*
X104202381Y-65452381D01*
X105107143Y-66452381D02*
X104535714Y-66452381D01*
X104821428Y-66452381D02*
X104821428Y-65452381D01*
X104726190Y-65595238D01*
X104630952Y-65690476D01*
X104535714Y-65738095D01*
X105488095Y-65547619D02*
X105535714Y-65500000D01*
X105630952Y-65452381D01*
X105869048Y-65452381D01*
X105964286Y-65500000D01*
X106011905Y-65547619D01*
X106059524Y-65642857D01*
X106059524Y-65738095D01*
X106011905Y-65880952D01*
X105440476Y-66452381D01*
X106059524Y-66452381D01*
X78888095Y-60202381D02*
X78888095Y-61011905D01*
X78935714Y-61107143D01*
X78983333Y-61154762D01*
X79078571Y-61202381D01*
X79269048Y-61202381D01*
X79364286Y-61154762D01*
X79411905Y-61107143D01*
X79459524Y-61011905D01*
X79459524Y-60202381D01*
X80459524Y-61202381D02*
X79888095Y-61202381D01*
X80173809Y-61202381D02*
X80173809Y-60202381D01*
X80078571Y-60345238D01*
X79983333Y-60440476D01*
X79888095Y-60488095D01*
X53238095Y-48452381D02*
X53238095Y-49261905D01*
X53285714Y-49357143D01*
X53333333Y-49404762D01*
X53428571Y-49452381D01*
X53619048Y-49452381D01*
X53714286Y-49404762D01*
X53761905Y-49357143D01*
X53809524Y-49261905D01*
X53809524Y-48452381D01*
X54238095Y-48547619D02*
X54285714Y-48500000D01*
X54380952Y-48452381D01*
X54619048Y-48452381D01*
X54714286Y-48500000D01*
X54761905Y-48547619D01*
X54809524Y-48642857D01*
X54809524Y-48738095D01*
X54761905Y-48880952D01*
X54190476Y-49452381D01*
X54809524Y-49452381D01*
X68238095Y-67452381D02*
X68238095Y-68261905D01*
X68285714Y-68357143D01*
X68333333Y-68404762D01*
X68428571Y-68452381D01*
X68619048Y-68452381D01*
X68714286Y-68404762D01*
X68761905Y-68357143D01*
X68809524Y-68261905D01*
X68809524Y-67452381D01*
X69190476Y-67452381D02*
X69809524Y-67452381D01*
X69476190Y-67833333D01*
X69619048Y-67833333D01*
X69714286Y-67880952D01*
X69761905Y-67928571D01*
X69809524Y-68023810D01*
X69809524Y-68261905D01*
X69761905Y-68357143D01*
X69714286Y-68404762D01*
X69619048Y-68452381D01*
X69333333Y-68452381D01*
X69238095Y-68404762D01*
X69190476Y-68357143D01*
X85238095Y-80452381D02*
X85238095Y-81261905D01*
X85285714Y-81357143D01*
X85333333Y-81404762D01*
X85428571Y-81452381D01*
X85619048Y-81452381D01*
X85714286Y-81404762D01*
X85761905Y-81357143D01*
X85809524Y-81261905D01*
X85809524Y-80452381D01*
X86714286Y-80785714D02*
X86714286Y-81452381D01*
X86476190Y-80404762D02*
X86238095Y-81119048D01*
X86857143Y-81119048D01*
X59288095Y-41452381D02*
X59288095Y-42261905D01*
X59335714Y-42357143D01*
X59383333Y-42404762D01*
X59478571Y-42452381D01*
X59669048Y-42452381D01*
X59764286Y-42404762D01*
X59811905Y-42357143D01*
X59859524Y-42261905D01*
X59859524Y-41452381D01*
X60811905Y-41452381D02*
X60335714Y-41452381D01*
X60288095Y-41928571D01*
X60335714Y-41880952D01*
X60430952Y-41833333D01*
X60669048Y-41833333D01*
X60764286Y-41880952D01*
X60811905Y-41928571D01*
X60859524Y-42023810D01*
X60859524Y-42261905D01*
X60811905Y-42357143D01*
X60764286Y-42404762D01*
X60669048Y-42452381D01*
X60430952Y-42452381D01*
X60335714Y-42404762D01*
X60288095Y-42357143D01*
X96501190Y-50912381D02*
X96977381Y-50912381D01*
X95977381Y-51245714D02*
X96501190Y-50912381D01*
X95977381Y-50579047D01*
X96977381Y-49721904D02*
X96977381Y-50293333D01*
X96977381Y-50007619D02*
X95977381Y-50007619D01*
X96120238Y-50102857D01*
X96215476Y-50198095D01*
X96263095Y-50293333D01*
X96977381Y-48769523D02*
X96977381Y-49340952D01*
X96977381Y-49055238D02*
X95977381Y-49055238D01*
X96120238Y-49150476D01*
X96215476Y-49245714D01*
X96263095Y-49340952D01*
X79847619Y-62636190D02*
X79847619Y-63112381D01*
X79514286Y-62112381D02*
X79847619Y-62636190D01*
X80180953Y-62112381D01*
X81038096Y-63112381D02*
X80466667Y-63112381D01*
X80752381Y-63112381D02*
X80752381Y-62112381D01*
X80657143Y-62255238D01*
X80561905Y-62350476D01*
X80466667Y-62398095D01*
X81419048Y-62207619D02*
X81466667Y-62160000D01*
X81561905Y-62112381D01*
X81800001Y-62112381D01*
X81895239Y-62160000D01*
X81942858Y-62207619D01*
X81990477Y-62302857D01*
X81990477Y-62398095D01*
X81942858Y-62540952D01*
X81371429Y-63112381D01*
X81990477Y-63112381D01*
X74607143Y-50857143D02*
X74559524Y-50904762D01*
X74416667Y-50952381D01*
X74321429Y-50952381D01*
X74178571Y-50904762D01*
X74083333Y-50809524D01*
X74035714Y-50714286D01*
X73988095Y-50523810D01*
X73988095Y-50380952D01*
X74035714Y-50190476D01*
X74083333Y-50095238D01*
X74178571Y-50000000D01*
X74321429Y-49952381D01*
X74416667Y-49952381D01*
X74559524Y-50000000D01*
X74607143Y-50047619D01*
X75559524Y-50952381D02*
X74988095Y-50952381D01*
X75273809Y-50952381D02*
X75273809Y-49952381D01*
X75178571Y-50095238D01*
X75083333Y-50190476D01*
X74988095Y-50238095D01*
X75892857Y-49952381D02*
X76559524Y-49952381D01*
X76130952Y-50952381D01*
X87357143Y-49357143D02*
X87309524Y-49404762D01*
X87166667Y-49452381D01*
X87071429Y-49452381D01*
X86928571Y-49404762D01*
X86833333Y-49309524D01*
X86785714Y-49214286D01*
X86738095Y-49023810D01*
X86738095Y-48880952D01*
X86785714Y-48690476D01*
X86833333Y-48595238D01*
X86928571Y-48500000D01*
X87071429Y-48452381D01*
X87166667Y-48452381D01*
X87309524Y-48500000D01*
X87357143Y-48547619D01*
X88309524Y-49452381D02*
X87738095Y-49452381D01*
X88023809Y-49452381D02*
X88023809Y-48452381D01*
X87928571Y-48595238D01*
X87833333Y-48690476D01*
X87738095Y-48738095D01*
X88785714Y-49452381D02*
X88976190Y-49452381D01*
X89071429Y-49404762D01*
X89119048Y-49357143D01*
X89214286Y-49214286D01*
X89261905Y-49023810D01*
X89261905Y-48642857D01*
X89214286Y-48547619D01*
X89166667Y-48500000D01*
X89071429Y-48452381D01*
X88880952Y-48452381D01*
X88785714Y-48500000D01*
X88738095Y-48547619D01*
X88690476Y-48642857D01*
X88690476Y-48880952D01*
X88738095Y-48976190D01*
X88785714Y-49023810D01*
X88880952Y-49071429D01*
X89071429Y-49071429D01*
X89166667Y-49023810D01*
X89214286Y-48976190D01*
X89261905Y-48880952D01*
X74852381Y-68066666D02*
X74376190Y-68400000D01*
X74852381Y-68638095D02*
X73852381Y-68638095D01*
X73852381Y-68257142D01*
X73900000Y-68161904D01*
X73947619Y-68114285D01*
X74042857Y-68066666D01*
X74185714Y-68066666D01*
X74280952Y-68114285D01*
X74328571Y-68161904D01*
X74376190Y-68257142D01*
X74376190Y-68638095D01*
X74852381Y-67638095D02*
X73852381Y-67638095D01*
X74852381Y-67066666D01*
X73852381Y-67066666D01*
X74852381Y-66066666D02*
X74852381Y-66638095D01*
X74852381Y-66352381D02*
X73852381Y-66352381D01*
X73995238Y-66447619D01*
X74090476Y-66542857D01*
X74138095Y-66638095D01*
X74852381Y-65114285D02*
X74852381Y-65685714D01*
X74852381Y-65400000D02*
X73852381Y-65400000D01*
X73995238Y-65495238D01*
X74090476Y-65590476D01*
X74138095Y-65685714D01*
X84252381Y-68066666D02*
X83776190Y-68400000D01*
X84252381Y-68638095D02*
X83252381Y-68638095D01*
X83252381Y-68257142D01*
X83300000Y-68161904D01*
X83347619Y-68114285D01*
X83442857Y-68066666D01*
X83585714Y-68066666D01*
X83680952Y-68114285D01*
X83728571Y-68161904D01*
X83776190Y-68257142D01*
X83776190Y-68638095D01*
X84252381Y-67638095D02*
X83252381Y-67638095D01*
X84252381Y-67066666D01*
X83252381Y-67066666D01*
X84252381Y-66066666D02*
X84252381Y-66638095D01*
X84252381Y-66352381D02*
X83252381Y-66352381D01*
X83395238Y-66447619D01*
X83490476Y-66542857D01*
X83538095Y-66638095D01*
X83347619Y-65685714D02*
X83300000Y-65638095D01*
X83252381Y-65542857D01*
X83252381Y-65304761D01*
X83300000Y-65209523D01*
X83347619Y-65161904D01*
X83442857Y-65114285D01*
X83538095Y-65114285D01*
X83680952Y-65161904D01*
X84252381Y-65733333D01*
X84252381Y-65114285D01*
X81190477Y-77928571D02*
X80857143Y-77928571D01*
X80857143Y-78452381D02*
X80857143Y-77452381D01*
X81333334Y-77452381D01*
X82238096Y-78452381D02*
X81666667Y-78452381D01*
X81952381Y-78452381D02*
X81952381Y-77452381D01*
X81857143Y-77595238D01*
X81761905Y-77690476D01*
X81666667Y-77738095D01*
X83190477Y-78452381D02*
X82619048Y-78452381D01*
X82904762Y-78452381D02*
X82904762Y-77452381D01*
X82809524Y-77595238D01*
X82714286Y-77690476D01*
X82619048Y-77738095D01*
X68190477Y-76978571D02*
X67857143Y-76978571D01*
X67857143Y-77502381D02*
X67857143Y-76502381D01*
X68333334Y-76502381D01*
X69238096Y-77502381D02*
X68666667Y-77502381D01*
X68952381Y-77502381D02*
X68952381Y-76502381D01*
X68857143Y-76645238D01*
X68761905Y-76740476D01*
X68666667Y-76788095D01*
X69619048Y-76597619D02*
X69666667Y-76550000D01*
X69761905Y-76502381D01*
X70000001Y-76502381D01*
X70095239Y-76550000D01*
X70142858Y-76597619D01*
X70190477Y-76692857D01*
X70190477Y-76788095D01*
X70142858Y-76930952D01*
X69571429Y-77502381D01*
X70190477Y-77502381D01*
X83085714Y-71752381D02*
X83085714Y-70752381D01*
X83323809Y-70752381D01*
X83466667Y-70800000D01*
X83561905Y-70895238D01*
X83609524Y-70990476D01*
X83657143Y-71180952D01*
X83657143Y-71323810D01*
X83609524Y-71514286D01*
X83561905Y-71609524D01*
X83466667Y-71704762D01*
X83323809Y-71752381D01*
X83085714Y-71752381D01*
X84514286Y-71085714D02*
X84514286Y-71752381D01*
X84276190Y-70704762D02*
X84038095Y-71419048D01*
X84657143Y-71419048D01*
X85561905Y-71752381D02*
X84990476Y-71752381D01*
X85276190Y-71752381D02*
X85276190Y-70752381D01*
X85180952Y-70895238D01*
X85085714Y-70990476D01*
X84990476Y-71038095D01*
X62952381Y-63238095D02*
X61952381Y-63238095D01*
X61952381Y-63000000D01*
X62000000Y-62857142D01*
X62095238Y-62761904D01*
X62190476Y-62714285D01*
X62380952Y-62666666D01*
X62523810Y-62666666D01*
X62714286Y-62714285D01*
X62809524Y-62761904D01*
X62904762Y-62857142D01*
X62952381Y-63000000D01*
X62952381Y-63238095D01*
X62952381Y-61714285D02*
X62952381Y-62285714D01*
X62952381Y-62000000D02*
X61952381Y-62000000D01*
X62095238Y-62095238D01*
X62190476Y-62190476D01*
X62238095Y-62285714D01*
X67452381Y-63138095D02*
X66452381Y-63138095D01*
X66452381Y-62900000D01*
X66500000Y-62757142D01*
X66595238Y-62661904D01*
X66690476Y-62614285D01*
X66880952Y-62566666D01*
X67023810Y-62566666D01*
X67214286Y-62614285D01*
X67309524Y-62661904D01*
X67404762Y-62757142D01*
X67452381Y-62900000D01*
X67452381Y-63138095D01*
X66547619Y-62185714D02*
X66500000Y-62138095D01*
X66452381Y-62042857D01*
X66452381Y-61804761D01*
X66500000Y-61709523D01*
X66547619Y-61661904D01*
X66642857Y-61614285D01*
X66738095Y-61614285D01*
X66880952Y-61661904D01*
X67452381Y-62233333D01*
X67452381Y-61614285D01*
M02*
