G04 #@! TF.GenerationSoftware,KiCad,Pcbnew,(5.0.0)*
G04 #@! TF.CreationDate,2018-10-09T10:58:44+11:00*
G04 #@! TF.ProjectId,Project 23,50726F6A6563742032332E6B69636164,V 0.6*
G04 #@! TF.SameCoordinates,Original*
G04 #@! TF.FileFunction,Legend,Top*
G04 #@! TF.FilePolarity,Positive*
%FSLAX46Y46*%
G04 Gerber Fmt 4.6, Leading zero omitted, Abs format (unit mm)*
G04 Created by KiCad (PCBNEW (5.0.0)) date 10/09/18 10:58:44*
%MOMM*%
%LPD*%
G01*
G04 APERTURE LIST*
%ADD10C,0.300000*%
%ADD11C,0.100000*%
%ADD12C,0.120000*%
%ADD13C,0.150000*%
G04 APERTURE END LIST*
D10*
X90115714Y-62673800D02*
X89972857Y-62602371D01*
X89758571Y-62602371D01*
X89544285Y-62673800D01*
X89401428Y-62816657D01*
X89329999Y-62959514D01*
X89258571Y-63245228D01*
X89258571Y-63459514D01*
X89329999Y-63745228D01*
X89401428Y-63888085D01*
X89544285Y-64030942D01*
X89758571Y-64102371D01*
X89901428Y-64102371D01*
X90115714Y-64030942D01*
X90187142Y-63959514D01*
X90187142Y-63459514D01*
X89901428Y-63459514D01*
X91044285Y-64102371D02*
X90901428Y-64030942D01*
X90829999Y-63959514D01*
X90758571Y-63816657D01*
X90758571Y-63388085D01*
X90829999Y-63245228D01*
X90901428Y-63173800D01*
X91044285Y-63102371D01*
X91258571Y-63102371D01*
X91401428Y-63173800D01*
X91472857Y-63245228D01*
X91544285Y-63388085D01*
X91544285Y-63816657D01*
X91472857Y-63959514D01*
X91401428Y-64030942D01*
X91258571Y-64102371D01*
X91044285Y-64102371D01*
X92401428Y-64102371D02*
X92258571Y-64030942D01*
X92187142Y-63888085D01*
X92187142Y-62602371D01*
X93615714Y-64102371D02*
X93615714Y-62602371D01*
X93615714Y-64030942D02*
X93472857Y-64102371D01*
X93187142Y-64102371D01*
X93044285Y-64030942D01*
X92972857Y-63959514D01*
X92901428Y-63816657D01*
X92901428Y-63388085D01*
X92972857Y-63245228D01*
X93044285Y-63173800D01*
X93187142Y-63102371D01*
X93472857Y-63102371D01*
X93615714Y-63173800D01*
X94115714Y-63102371D02*
X94687142Y-63102371D01*
X94329999Y-64102371D02*
X94329999Y-62816657D01*
X94401428Y-62673800D01*
X94544285Y-62602371D01*
X94687142Y-62602371D01*
X95187142Y-64102371D02*
X95187142Y-63102371D01*
X95187142Y-62602371D02*
X95115714Y-62673800D01*
X95187142Y-62745228D01*
X95258571Y-62673800D01*
X95187142Y-62602371D01*
X95187142Y-62745228D01*
X95829999Y-64030942D02*
X95972857Y-64102371D01*
X96258571Y-64102371D01*
X96401428Y-64030942D01*
X96472857Y-63888085D01*
X96472857Y-63816657D01*
X96401428Y-63673800D01*
X96258571Y-63602371D01*
X96044285Y-63602371D01*
X95901428Y-63530942D01*
X95829999Y-63388085D01*
X95829999Y-63316657D01*
X95901428Y-63173800D01*
X96044285Y-63102371D01*
X96258571Y-63102371D01*
X96401428Y-63173800D01*
X97115714Y-64102371D02*
X97115714Y-62602371D01*
X97758571Y-64102371D02*
X97758571Y-63316657D01*
X97687142Y-63173800D01*
X97544285Y-63102371D01*
X97330000Y-63102371D01*
X97187142Y-63173800D01*
X97115714Y-63245228D01*
X99615714Y-63316657D02*
X100115714Y-63316657D01*
X100330000Y-64102371D02*
X99615714Y-64102371D01*
X99615714Y-62602371D01*
X100330000Y-62602371D01*
X101187142Y-64102371D02*
X101044285Y-64030942D01*
X100972857Y-63888085D01*
X100972857Y-62602371D01*
X102330000Y-64030942D02*
X102187142Y-64102371D01*
X101901428Y-64102371D01*
X101758571Y-64030942D01*
X101687142Y-63888085D01*
X101687142Y-63316657D01*
X101758571Y-63173800D01*
X101901428Y-63102371D01*
X102187142Y-63102371D01*
X102330000Y-63173800D01*
X102401428Y-63316657D01*
X102401428Y-63459514D01*
X101687142Y-63602371D01*
X103687142Y-64030942D02*
X103544285Y-64102371D01*
X103258571Y-64102371D01*
X103115714Y-64030942D01*
X103044285Y-63959514D01*
X102972857Y-63816657D01*
X102972857Y-63388085D01*
X103044285Y-63245228D01*
X103115714Y-63173800D01*
X103258571Y-63102371D01*
X103544285Y-63102371D01*
X103687142Y-63173800D01*
X104115714Y-63102371D02*
X104687142Y-63102371D01*
X104329999Y-62602371D02*
X104329999Y-63888085D01*
X104401428Y-64030942D01*
X104544285Y-64102371D01*
X104687142Y-64102371D01*
X105187142Y-64102371D02*
X105187142Y-63102371D01*
X105187142Y-63388085D02*
X105258571Y-63245228D01*
X105329999Y-63173800D01*
X105472857Y-63102371D01*
X105615714Y-63102371D01*
X106329999Y-64102371D02*
X106187142Y-64030942D01*
X106115714Y-63959514D01*
X106044285Y-63816657D01*
X106044285Y-63388085D01*
X106115714Y-63245228D01*
X106187142Y-63173800D01*
X106329999Y-63102371D01*
X106544285Y-63102371D01*
X106687142Y-63173800D01*
X106758571Y-63245228D01*
X106829999Y-63388085D01*
X106829999Y-63816657D01*
X106758571Y-63959514D01*
X106687142Y-64030942D01*
X106544285Y-64102371D01*
X106329999Y-64102371D01*
X107472857Y-63102371D02*
X107472857Y-64102371D01*
X107472857Y-63245228D02*
X107544285Y-63173800D01*
X107687142Y-63102371D01*
X107901428Y-63102371D01*
X108044285Y-63173800D01*
X108115714Y-63316657D01*
X108115714Y-64102371D01*
X108830000Y-64102371D02*
X108830000Y-63102371D01*
X108830000Y-62602371D02*
X108758571Y-62673800D01*
X108830000Y-62745228D01*
X108901428Y-62673800D01*
X108830000Y-62602371D01*
X108830000Y-62745228D01*
X110187142Y-64030942D02*
X110044285Y-64102371D01*
X109758571Y-64102371D01*
X109615714Y-64030942D01*
X109544285Y-63959514D01*
X109472857Y-63816657D01*
X109472857Y-63388085D01*
X109544285Y-63245228D01*
X109615714Y-63173800D01*
X109758571Y-63102371D01*
X110044285Y-63102371D01*
X110187142Y-63173800D01*
X110758571Y-64030942D02*
X110901428Y-64102371D01*
X111187142Y-64102371D01*
X111330000Y-64030942D01*
X111401428Y-63888085D01*
X111401428Y-63816657D01*
X111330000Y-63673800D01*
X111187142Y-63602371D01*
X110972857Y-63602371D01*
X110830000Y-63530942D01*
X110758571Y-63388085D01*
X110758571Y-63316657D01*
X110830000Y-63173800D01*
X110972857Y-63102371D01*
X111187142Y-63102371D01*
X111330000Y-63173800D01*
X87899599Y-42812171D02*
X87899599Y-41312171D01*
X88471028Y-41312171D01*
X88613885Y-41383600D01*
X88685314Y-41455028D01*
X88756742Y-41597885D01*
X88756742Y-41812171D01*
X88685314Y-41955028D01*
X88613885Y-42026457D01*
X88471028Y-42097885D01*
X87899599Y-42097885D01*
X89399599Y-42812171D02*
X89399599Y-41812171D01*
X89399599Y-42097885D02*
X89471028Y-41955028D01*
X89542457Y-41883600D01*
X89685314Y-41812171D01*
X89828171Y-41812171D01*
X90542457Y-42812171D02*
X90399599Y-42740742D01*
X90328171Y-42669314D01*
X90256742Y-42526457D01*
X90256742Y-42097885D01*
X90328171Y-41955028D01*
X90399599Y-41883600D01*
X90542457Y-41812171D01*
X90756742Y-41812171D01*
X90899599Y-41883600D01*
X90971028Y-41955028D01*
X91042457Y-42097885D01*
X91042457Y-42526457D01*
X90971028Y-42669314D01*
X90899599Y-42740742D01*
X90756742Y-42812171D01*
X90542457Y-42812171D01*
X91685314Y-41812171D02*
X91685314Y-43097885D01*
X91613885Y-43240742D01*
X91471028Y-43312171D01*
X91399599Y-43312171D01*
X91685314Y-41312171D02*
X91613885Y-41383600D01*
X91685314Y-41455028D01*
X91756742Y-41383600D01*
X91685314Y-41312171D01*
X91685314Y-41455028D01*
X92971028Y-42740742D02*
X92828171Y-42812171D01*
X92542457Y-42812171D01*
X92399599Y-42740742D01*
X92328171Y-42597885D01*
X92328171Y-42026457D01*
X92399599Y-41883600D01*
X92542457Y-41812171D01*
X92828171Y-41812171D01*
X92971028Y-41883600D01*
X93042457Y-42026457D01*
X93042457Y-42169314D01*
X92328171Y-42312171D01*
X94328171Y-42740742D02*
X94185314Y-42812171D01*
X93899599Y-42812171D01*
X93756742Y-42740742D01*
X93685314Y-42669314D01*
X93613885Y-42526457D01*
X93613885Y-42097885D01*
X93685314Y-41955028D01*
X93756742Y-41883600D01*
X93899599Y-41812171D01*
X94185314Y-41812171D01*
X94328171Y-41883600D01*
X94756742Y-41812171D02*
X95328171Y-41812171D01*
X94971028Y-41312171D02*
X94971028Y-42597885D01*
X95042457Y-42740742D01*
X95185314Y-42812171D01*
X95328171Y-42812171D01*
X96899599Y-41455028D02*
X96971028Y-41383600D01*
X97113885Y-41312171D01*
X97471028Y-41312171D01*
X97613885Y-41383600D01*
X97685314Y-41455028D01*
X97756742Y-41597885D01*
X97756742Y-41740742D01*
X97685314Y-41955028D01*
X96828171Y-42812171D01*
X97756742Y-42812171D01*
X98256742Y-41312171D02*
X99185314Y-41312171D01*
X98685314Y-41883600D01*
X98899599Y-41883600D01*
X99042457Y-41955028D01*
X99113885Y-42026457D01*
X99185314Y-42169314D01*
X99185314Y-42526457D01*
X99113885Y-42669314D01*
X99042457Y-42740742D01*
X98899599Y-42812171D01*
X98471028Y-42812171D01*
X98328171Y-42740742D01*
X98256742Y-42669314D01*
X101828171Y-42812171D02*
X101328171Y-42097885D01*
X100971028Y-42812171D02*
X100971028Y-41312171D01*
X101542457Y-41312171D01*
X101685314Y-41383600D01*
X101756742Y-41455028D01*
X101828171Y-41597885D01*
X101828171Y-41812171D01*
X101756742Y-41955028D01*
X101685314Y-42026457D01*
X101542457Y-42097885D01*
X100971028Y-42097885D01*
X103042457Y-42740742D02*
X102899599Y-42812171D01*
X102613885Y-42812171D01*
X102471028Y-42740742D01*
X102399599Y-42597885D01*
X102399599Y-42026457D01*
X102471028Y-41883600D01*
X102613885Y-41812171D01*
X102899599Y-41812171D01*
X103042457Y-41883600D01*
X103113885Y-42026457D01*
X103113885Y-42169314D01*
X102399599Y-42312171D01*
X103613885Y-41812171D02*
X103971028Y-42812171D01*
X104328171Y-41812171D01*
X106328171Y-41312171D02*
X106471028Y-41312171D01*
X106613885Y-41383600D01*
X106685314Y-41455028D01*
X106756742Y-41597885D01*
X106828171Y-41883600D01*
X106828171Y-42240742D01*
X106756742Y-42526457D01*
X106685314Y-42669314D01*
X106613885Y-42740742D01*
X106471028Y-42812171D01*
X106328171Y-42812171D01*
X106185314Y-42740742D01*
X106113885Y-42669314D01*
X106042457Y-42526457D01*
X105971028Y-42240742D01*
X105971028Y-41883600D01*
X106042457Y-41597885D01*
X106113885Y-41455028D01*
X106185314Y-41383600D01*
X106328171Y-41312171D01*
X107471028Y-42669314D02*
X107542457Y-42740742D01*
X107471028Y-42812171D01*
X107399600Y-42740742D01*
X107471028Y-42669314D01*
X107471028Y-42812171D01*
X108828171Y-41312171D02*
X108542457Y-41312171D01*
X108399599Y-41383600D01*
X108328171Y-41455028D01*
X108185314Y-41669314D01*
X108113885Y-41955028D01*
X108113885Y-42526457D01*
X108185314Y-42669314D01*
X108256742Y-42740742D01*
X108399599Y-42812171D01*
X108685314Y-42812171D01*
X108828171Y-42740742D01*
X108899599Y-42669314D01*
X108971028Y-42526457D01*
X108971028Y-42169314D01*
X108899599Y-42026457D01*
X108828171Y-41955028D01*
X108685314Y-41883600D01*
X108399599Y-41883600D01*
X108256742Y-41955028D01*
X108185314Y-42026457D01*
X108113885Y-42169314D01*
D11*
X112000000Y-40000000D02*
X50000000Y-40000000D01*
X112000000Y-82000000D02*
X112000000Y-40000000D01*
X50000000Y-82000000D02*
X112000000Y-82000000D01*
X50000000Y-40000000D02*
X50000000Y-82000000D01*
D12*
G04 #@! TO.C,C41*
X96510000Y-79250000D02*
X96510000Y-74865000D01*
X96510000Y-74865000D02*
X93490000Y-74865000D01*
X93490000Y-74865000D02*
X93490000Y-79250000D01*
G04 #@! TO.C,C42*
X86800000Y-69090000D02*
X79865000Y-69090000D01*
X79865000Y-69090000D02*
X79865000Y-72510000D01*
X79865000Y-72510000D02*
X86800000Y-72510000D01*
G04 #@! TO.C,C11*
X88261252Y-48210000D02*
X87738748Y-48210000D01*
X88261252Y-46790000D02*
X87738748Y-46790000D01*
G04 #@! TO.C,C12*
X88261252Y-51790000D02*
X87738748Y-51790000D01*
X88261252Y-53210000D02*
X87738748Y-53210000D01*
G04 #@! TO.C,C16*
X81540000Y-61988748D02*
X81540000Y-62511252D01*
X82960000Y-61988748D02*
X82960000Y-62511252D01*
G04 #@! TO.C,C17*
X76011252Y-48040000D02*
X75488748Y-48040000D01*
X76011252Y-49460000D02*
X75488748Y-49460000D01*
G04 #@! TO.C,C18*
X74210000Y-59238748D02*
X74210000Y-59761252D01*
X72790000Y-59238748D02*
X72790000Y-59761252D01*
G04 #@! TO.C,C19*
X87738748Y-50040000D02*
X88261252Y-50040000D01*
X87738748Y-51460000D02*
X88261252Y-51460000D01*
G04 #@! TO.C,C21*
X50790000Y-45738748D02*
X50790000Y-46261252D01*
X52210000Y-45738748D02*
X52210000Y-46261252D01*
G04 #@! TO.C,C22*
X56790000Y-46261252D02*
X56790000Y-45738748D01*
X58210000Y-46261252D02*
X58210000Y-45738748D01*
G04 #@! TO.C,C31*
X64290000Y-70011252D02*
X64290000Y-69488748D01*
X65710000Y-70011252D02*
X65710000Y-69488748D01*
G04 #@! TO.C,C32*
X71790000Y-69488748D02*
X71790000Y-70011252D01*
X73210000Y-69488748D02*
X73210000Y-70011252D01*
G04 #@! TO.C,D1*
X63350000Y-67100000D02*
X67650000Y-67100000D01*
X67650000Y-67100000D02*
X67650000Y-59800000D01*
X63350000Y-67100000D02*
X63350000Y-59800000D01*
G04 #@! TO.C,D2*
X67850000Y-67000000D02*
X67850000Y-59700000D01*
X72150000Y-67000000D02*
X72150000Y-59700000D01*
X67850000Y-67000000D02*
X72150000Y-67000000D01*
G04 #@! TO.C,D3*
X98140000Y-80960000D02*
X101000000Y-80960000D01*
X98140000Y-79040000D02*
X98140000Y-80960000D01*
X101000000Y-79040000D02*
X98140000Y-79040000D01*
G04 #@! TO.C,D4*
X105750000Y-79040000D02*
X102890000Y-79040000D01*
X102890000Y-79040000D02*
X102890000Y-80960000D01*
X102890000Y-80960000D02*
X105750000Y-80960000D01*
G04 #@! TO.C,D5*
X110500000Y-79040000D02*
X107640000Y-79040000D01*
X107640000Y-79040000D02*
X107640000Y-80960000D01*
X107640000Y-80960000D02*
X110500000Y-80960000D01*
G04 #@! TO.C,D41*
X79900000Y-72150000D02*
X79900000Y-75450000D01*
X79900000Y-75450000D02*
X86800000Y-75450000D01*
X79900000Y-72150000D02*
X86800000Y-72150000D01*
G04 #@! TO.C,F11*
X85002064Y-77110000D02*
X83797936Y-77110000D01*
X85002064Y-75290000D02*
X83797936Y-75290000D01*
G04 #@! TO.C,F12*
X69602064Y-74290000D02*
X68397936Y-74290000D01*
X69602064Y-76110000D02*
X68397936Y-76110000D01*
G04 #@! TO.C,L41*
X90140000Y-75352064D02*
X90140000Y-74147936D01*
X92860000Y-75352064D02*
X92860000Y-74147936D01*
G04 #@! TO.C,Q51*
X66605000Y-45190000D02*
X65675000Y-45190000D01*
X63445000Y-45190000D02*
X64375000Y-45190000D01*
X63445000Y-45190000D02*
X63445000Y-48350000D01*
X66605000Y-45190000D02*
X66605000Y-46650000D01*
G04 #@! TO.C,R12*
X110710000Y-69888748D02*
X110710000Y-70411252D01*
X109290000Y-69888748D02*
X109290000Y-70411252D01*
G04 #@! TO.C,R41*
X85690000Y-79188748D02*
X85690000Y-79711252D01*
X87110000Y-79188748D02*
X87110000Y-79711252D01*
G04 #@! TO.C,R51*
X75388748Y-47710000D02*
X75911252Y-47710000D01*
X75388748Y-46290000D02*
X75911252Y-46290000D01*
G04 #@! TO.C,R61*
X63738748Y-56035000D02*
X64261252Y-56035000D01*
X63738748Y-54615000D02*
X64261252Y-54615000D01*
G04 #@! TO.C,R62*
X63738748Y-52615000D02*
X64261252Y-52615000D01*
X63738748Y-54035000D02*
X64261252Y-54035000D01*
G04 #@! TO.C,R63*
X68588748Y-55790000D02*
X69111252Y-55790000D01*
X68588748Y-57210000D02*
X69111252Y-57210000D01*
G04 #@! TO.C,R64*
X68488748Y-51540000D02*
X69011252Y-51540000D01*
X68488748Y-52960000D02*
X69011252Y-52960000D01*
G04 #@! TO.C,RN1*
X95620000Y-71600000D02*
X95620000Y-70600000D01*
X98980000Y-71600000D02*
X98980000Y-70600000D01*
G04 #@! TO.C,RN11*
X75120000Y-67400000D02*
X75120000Y-66400000D01*
X78480000Y-67400000D02*
X78480000Y-66400000D01*
G04 #@! TO.C,RN12*
X79320000Y-66400000D02*
X79320000Y-67400000D01*
X82680000Y-66400000D02*
X82680000Y-67400000D01*
G04 #@! TO.C,SW11*
X107750000Y-51000000D02*
X107750000Y-49500000D01*
X106500000Y-47000000D02*
X102000000Y-47000000D01*
X100750000Y-49500000D02*
X100750000Y-51000000D01*
X102000000Y-53500000D02*
X106500000Y-53500000D01*
G04 #@! TO.C,SW12*
X102000000Y-73500000D02*
X106500000Y-73500000D01*
X100750000Y-69500000D02*
X100750000Y-71000000D01*
X106500000Y-67000000D02*
X102000000Y-67000000D01*
X107750000Y-71000000D02*
X107750000Y-69500000D01*
G04 #@! TO.C,U1*
X76090000Y-58310000D02*
X76090000Y-57890000D01*
X76090000Y-51190000D02*
X76090000Y-51610000D01*
X83210000Y-51190000D02*
X83210000Y-51610000D01*
X83210000Y-58310000D02*
X82790000Y-58310000D01*
X76090000Y-51190000D02*
X76510000Y-51190000D01*
X76090000Y-58310000D02*
X76510000Y-58310000D01*
X83210000Y-57890000D02*
X84590000Y-57890000D01*
X83210000Y-58310000D02*
X83210000Y-57890000D01*
X83210000Y-51190000D02*
X82790000Y-51190000D01*
G04 #@! TO.C,U2*
X52940000Y-45250000D02*
X52940000Y-47050000D01*
X56160000Y-47050000D02*
X56160000Y-44600000D01*
G04 #@! TO.C,U3*
X68100000Y-71610000D02*
X69900000Y-71610000D01*
X69900000Y-68390000D02*
X67450000Y-68390000D01*
G04 #@! TO.C,U4*
X90550000Y-78440000D02*
X88100000Y-78440000D01*
X88750000Y-81660000D02*
X90550000Y-81660000D01*
G04 #@! TO.C,U5*
X63650000Y-43330000D02*
X63650000Y-40670000D01*
X63650000Y-43330000D02*
X78950000Y-43330000D01*
X78950000Y-43330000D02*
X78950000Y-40670000D01*
X63650000Y-40670000D02*
X78950000Y-40670000D01*
X61050000Y-40670000D02*
X62380000Y-40670000D01*
X61050000Y-42000000D02*
X61050000Y-40670000D01*
G04 #@! TO.C,Y11*
X95525000Y-46760000D02*
X95525000Y-53160000D01*
X90475000Y-46760000D02*
X90475000Y-53160000D01*
X90475000Y-46760000D02*
G75*
G02X95525000Y-46760000I2525000J0D01*
G01*
X90475000Y-53160000D02*
G75*
G03X95525000Y-53160000I2525000J0D01*
G01*
G04 #@! TO.C,J13*
X59560000Y-71870000D02*
X59560000Y-61590000D01*
X59560000Y-61590000D02*
X56900000Y-61590000D01*
X56900000Y-61590000D02*
X56900000Y-71870000D01*
X56900000Y-71870000D02*
X59560000Y-71870000D01*
X56900000Y-70920000D02*
X50900000Y-70920000D01*
X50900000Y-70920000D02*
X50900000Y-70160000D01*
X50900000Y-70160000D02*
X56900000Y-70160000D01*
X56900000Y-70860000D02*
X50900000Y-70860000D01*
X56900000Y-70740000D02*
X50900000Y-70740000D01*
X56900000Y-70620000D02*
X50900000Y-70620000D01*
X56900000Y-70500000D02*
X50900000Y-70500000D01*
X56900000Y-70380000D02*
X50900000Y-70380000D01*
X56900000Y-70260000D02*
X50900000Y-70260000D01*
X59890000Y-70920000D02*
X59560000Y-70920000D01*
X59890000Y-70160000D02*
X59560000Y-70160000D01*
X59560000Y-69270000D02*
X56900000Y-69270000D01*
X56900000Y-68380000D02*
X50900000Y-68380000D01*
X50900000Y-68380000D02*
X50900000Y-67620000D01*
X50900000Y-67620000D02*
X56900000Y-67620000D01*
X59957071Y-68380000D02*
X59560000Y-68380000D01*
X59957071Y-67620000D02*
X59560000Y-67620000D01*
X59560000Y-66730000D02*
X56900000Y-66730000D01*
X56900000Y-65840000D02*
X50900000Y-65840000D01*
X50900000Y-65840000D02*
X50900000Y-65080000D01*
X50900000Y-65080000D02*
X56900000Y-65080000D01*
X59957071Y-65840000D02*
X59560000Y-65840000D01*
X59957071Y-65080000D02*
X59560000Y-65080000D01*
X59560000Y-64190000D02*
X56900000Y-64190000D01*
X56900000Y-63300000D02*
X50900000Y-63300000D01*
X50900000Y-63300000D02*
X50900000Y-62540000D01*
X50900000Y-62540000D02*
X56900000Y-62540000D01*
X59957071Y-63300000D02*
X59560000Y-63300000D01*
X59957071Y-62540000D02*
X59560000Y-62540000D01*
X62270000Y-70540000D02*
X62270000Y-71810000D01*
X62270000Y-71810000D02*
X61000000Y-71810000D01*
G04 #@! TO.C,J21*
X57830000Y-43330000D02*
X57830000Y-40670000D01*
X55230000Y-43330000D02*
X57830000Y-43330000D01*
X55230000Y-40670000D02*
X57830000Y-40670000D01*
X55230000Y-43330000D02*
X55230000Y-40670000D01*
X53960000Y-43330000D02*
X52630000Y-43330000D01*
X52630000Y-43330000D02*
X52630000Y-42000000D01*
G04 #@! TO.C,J11*
X60619677Y-76710000D02*
X60695000Y-76710000D01*
X60695000Y-76710000D02*
X60695000Y-77830000D01*
X60695000Y-77830000D02*
X54225000Y-77830000D01*
X54225000Y-77830000D02*
X54225000Y-76710000D01*
X54225000Y-76710000D02*
X54300323Y-76710000D01*
X60260000Y-77830000D02*
X60260000Y-81830000D01*
X60260000Y-81830000D02*
X59740000Y-81830000D01*
X59740000Y-81830000D02*
X59740000Y-77830000D01*
X60200000Y-77830000D02*
X60200000Y-81830000D01*
X60080000Y-77830000D02*
X60080000Y-81830000D01*
X59960000Y-77830000D02*
X59960000Y-81830000D01*
X59840000Y-77830000D02*
X59840000Y-81830000D01*
X59365000Y-76710000D02*
X59365000Y-77830000D01*
X59380323Y-76710000D02*
X59349677Y-76710000D01*
X58990000Y-77830000D02*
X58990000Y-81830000D01*
X58990000Y-81830000D02*
X58470000Y-81830000D01*
X58470000Y-81830000D02*
X58470000Y-77830000D01*
X58095000Y-76710000D02*
X58095000Y-77830000D01*
X58110323Y-76710000D02*
X58079677Y-76710000D01*
X57720000Y-77830000D02*
X57720000Y-81830000D01*
X57720000Y-81830000D02*
X57200000Y-81830000D01*
X57200000Y-81830000D02*
X57200000Y-77830000D01*
X56825000Y-76710000D02*
X56825000Y-77830000D01*
X56840323Y-76710000D02*
X56809677Y-76710000D01*
X56450000Y-77830000D02*
X56450000Y-81830000D01*
X56450000Y-81830000D02*
X55930000Y-81830000D01*
X55930000Y-81830000D02*
X55930000Y-77830000D01*
X55555000Y-76710000D02*
X55555000Y-77830000D01*
X55570323Y-76710000D02*
X55539677Y-76710000D01*
X55180000Y-77830000D02*
X55180000Y-81830000D01*
X55180000Y-81830000D02*
X54660000Y-81830000D01*
X54660000Y-81830000D02*
X54660000Y-77830000D01*
X60000000Y-74240000D02*
X60760000Y-74240000D01*
X60760000Y-74240000D02*
X60760000Y-75000000D01*
G04 #@! TO.C,J12*
X78760000Y-74240000D02*
X78760000Y-75000000D01*
X78000000Y-74240000D02*
X78760000Y-74240000D01*
X72660000Y-81830000D02*
X72660000Y-77830000D01*
X73180000Y-81830000D02*
X72660000Y-81830000D01*
X73180000Y-77830000D02*
X73180000Y-81830000D01*
X73570323Y-76710000D02*
X73539677Y-76710000D01*
X73555000Y-76710000D02*
X73555000Y-77830000D01*
X73930000Y-81830000D02*
X73930000Y-77830000D01*
X74450000Y-81830000D02*
X73930000Y-81830000D01*
X74450000Y-77830000D02*
X74450000Y-81830000D01*
X74840323Y-76710000D02*
X74809677Y-76710000D01*
X74825000Y-76710000D02*
X74825000Y-77830000D01*
X75200000Y-81830000D02*
X75200000Y-77830000D01*
X75720000Y-81830000D02*
X75200000Y-81830000D01*
X75720000Y-77830000D02*
X75720000Y-81830000D01*
X76110323Y-76710000D02*
X76079677Y-76710000D01*
X76095000Y-76710000D02*
X76095000Y-77830000D01*
X76470000Y-81830000D02*
X76470000Y-77830000D01*
X76990000Y-81830000D02*
X76470000Y-81830000D01*
X76990000Y-77830000D02*
X76990000Y-81830000D01*
X77380323Y-76710000D02*
X77349677Y-76710000D01*
X77365000Y-76710000D02*
X77365000Y-77830000D01*
X77840000Y-77830000D02*
X77840000Y-81830000D01*
X77960000Y-77830000D02*
X77960000Y-81830000D01*
X78080000Y-77830000D02*
X78080000Y-81830000D01*
X78200000Y-77830000D02*
X78200000Y-81830000D01*
X77740000Y-81830000D02*
X77740000Y-77830000D01*
X78260000Y-81830000D02*
X77740000Y-81830000D01*
X78260000Y-77830000D02*
X78260000Y-81830000D01*
X72225000Y-76710000D02*
X72300323Y-76710000D01*
X72225000Y-77830000D02*
X72225000Y-76710000D01*
X78695000Y-77830000D02*
X72225000Y-77830000D01*
X78695000Y-76710000D02*
X78695000Y-77830000D01*
X78619677Y-76710000D02*
X78695000Y-76710000D01*
G04 #@! TD*
G04 #@! TO.C,J61*
D13*
X56952380Y-56809523D02*
X57666666Y-56809523D01*
X57809523Y-56857142D01*
X57904761Y-56952380D01*
X57952380Y-57095238D01*
X57952380Y-57190476D01*
X56952380Y-55904761D02*
X56952380Y-56095238D01*
X57000000Y-56190476D01*
X57047619Y-56238095D01*
X57190476Y-56333333D01*
X57380952Y-56380952D01*
X57761904Y-56380952D01*
X57857142Y-56333333D01*
X57904761Y-56285714D01*
X57952380Y-56190476D01*
X57952380Y-56000000D01*
X57904761Y-55904761D01*
X57857142Y-55857142D01*
X57761904Y-55809523D01*
X57523809Y-55809523D01*
X57428571Y-55857142D01*
X57380952Y-55904761D01*
X57333333Y-56000000D01*
X57333333Y-56190476D01*
X57380952Y-56285714D01*
X57428571Y-56333333D01*
X57523809Y-56380952D01*
X57952380Y-54857142D02*
X57952380Y-55428571D01*
X57952380Y-55142857D02*
X56952380Y-55142857D01*
X57095238Y-55238095D01*
X57190476Y-55333333D01*
X57238095Y-55428571D01*
G04 #@! TO.C,1*
X61285714Y-46252380D02*
X60714285Y-46252380D01*
X61000000Y-46252380D02*
X61000000Y-45252380D01*
X60904761Y-45395238D01*
X60809523Y-45490476D01*
X60714285Y-45538095D01*
G04 #@! TO.C,M2*
X101190476Y-57252380D02*
X101190476Y-56252380D01*
X101523809Y-56966666D01*
X101857142Y-56252380D01*
X101857142Y-57252380D01*
X102285714Y-56347619D02*
X102333333Y-56300000D01*
X102428571Y-56252380D01*
X102666666Y-56252380D01*
X102761904Y-56300000D01*
X102809523Y-56347619D01*
X102857142Y-56442857D01*
X102857142Y-56538095D01*
X102809523Y-56680952D01*
X102238095Y-57252380D01*
X102857142Y-57252380D01*
G04 #@! TO.C,C41*
X97707142Y-78142857D02*
X97754761Y-78190476D01*
X97802380Y-78333333D01*
X97802380Y-78428571D01*
X97754761Y-78571428D01*
X97659523Y-78666666D01*
X97564285Y-78714285D01*
X97373809Y-78761904D01*
X97230952Y-78761904D01*
X97040476Y-78714285D01*
X96945238Y-78666666D01*
X96850000Y-78571428D01*
X96802380Y-78428571D01*
X96802380Y-78333333D01*
X96850000Y-78190476D01*
X96897619Y-78142857D01*
X97135714Y-77285714D02*
X97802380Y-77285714D01*
X96754761Y-77523809D02*
X97469047Y-77761904D01*
X97469047Y-77142857D01*
X97802380Y-76238095D02*
X97802380Y-76809523D01*
X97802380Y-76523809D02*
X96802380Y-76523809D01*
X96945238Y-76619047D01*
X97040476Y-76714285D01*
X97088095Y-76809523D01*
G04 #@! TO.C,C42*
X83253342Y-71172342D02*
X83205723Y-71219961D01*
X83062866Y-71267580D01*
X82967628Y-71267580D01*
X82824771Y-71219961D01*
X82729533Y-71124723D01*
X82681914Y-71029485D01*
X82634295Y-70839009D01*
X82634295Y-70696152D01*
X82681914Y-70505676D01*
X82729533Y-70410438D01*
X82824771Y-70315200D01*
X82967628Y-70267580D01*
X83062866Y-70267580D01*
X83205723Y-70315200D01*
X83253342Y-70362819D01*
X84110485Y-70600914D02*
X84110485Y-71267580D01*
X83872390Y-70219961D02*
X83634295Y-70934247D01*
X84253342Y-70934247D01*
X84586676Y-70362819D02*
X84634295Y-70315200D01*
X84729533Y-70267580D01*
X84967628Y-70267580D01*
X85062866Y-70315200D01*
X85110485Y-70362819D01*
X85158104Y-70458057D01*
X85158104Y-70553295D01*
X85110485Y-70696152D01*
X84539057Y-71267580D01*
X85158104Y-71267580D01*
G04 #@! TO.C,C11*
X87342742Y-46026342D02*
X87295123Y-46073961D01*
X87152266Y-46121580D01*
X87057028Y-46121580D01*
X86914171Y-46073961D01*
X86818933Y-45978723D01*
X86771314Y-45883485D01*
X86723695Y-45693009D01*
X86723695Y-45550152D01*
X86771314Y-45359676D01*
X86818933Y-45264438D01*
X86914171Y-45169200D01*
X87057028Y-45121580D01*
X87152266Y-45121580D01*
X87295123Y-45169200D01*
X87342742Y-45216819D01*
X88295123Y-46121580D02*
X87723695Y-46121580D01*
X88009409Y-46121580D02*
X88009409Y-45121580D01*
X87914171Y-45264438D01*
X87818933Y-45359676D01*
X87723695Y-45407295D01*
X89247504Y-46121580D02*
X88676076Y-46121580D01*
X88961790Y-46121580D02*
X88961790Y-45121580D01*
X88866552Y-45264438D01*
X88771314Y-45359676D01*
X88676076Y-45407295D01*
G04 #@! TO.C,C12*
X87357142Y-54507142D02*
X87309523Y-54554761D01*
X87166666Y-54602380D01*
X87071428Y-54602380D01*
X86928571Y-54554761D01*
X86833333Y-54459523D01*
X86785714Y-54364285D01*
X86738095Y-54173809D01*
X86738095Y-54030952D01*
X86785714Y-53840476D01*
X86833333Y-53745238D01*
X86928571Y-53650000D01*
X87071428Y-53602380D01*
X87166666Y-53602380D01*
X87309523Y-53650000D01*
X87357142Y-53697619D01*
X88309523Y-54602380D02*
X87738095Y-54602380D01*
X88023809Y-54602380D02*
X88023809Y-53602380D01*
X87928571Y-53745238D01*
X87833333Y-53840476D01*
X87738095Y-53888095D01*
X88690476Y-53697619D02*
X88738095Y-53650000D01*
X88833333Y-53602380D01*
X89071428Y-53602380D01*
X89166666Y-53650000D01*
X89214285Y-53697619D01*
X89261904Y-53792857D01*
X89261904Y-53888095D01*
X89214285Y-54030952D01*
X88642857Y-54602380D01*
X89261904Y-54602380D01*
G04 #@! TO.C,C16*
X84257142Y-62892857D02*
X84304761Y-62940476D01*
X84352380Y-63083333D01*
X84352380Y-63178571D01*
X84304761Y-63321428D01*
X84209523Y-63416666D01*
X84114285Y-63464285D01*
X83923809Y-63511904D01*
X83780952Y-63511904D01*
X83590476Y-63464285D01*
X83495238Y-63416666D01*
X83400000Y-63321428D01*
X83352380Y-63178571D01*
X83352380Y-63083333D01*
X83400000Y-62940476D01*
X83447619Y-62892857D01*
X84352380Y-61940476D02*
X84352380Y-62511904D01*
X84352380Y-62226190D02*
X83352380Y-62226190D01*
X83495238Y-62321428D01*
X83590476Y-62416666D01*
X83638095Y-62511904D01*
X83352380Y-61083333D02*
X83352380Y-61273809D01*
X83400000Y-61369047D01*
X83447619Y-61416666D01*
X83590476Y-61511904D01*
X83780952Y-61559523D01*
X84161904Y-61559523D01*
X84257142Y-61511904D01*
X84304761Y-61464285D01*
X84352380Y-61369047D01*
X84352380Y-61178571D01*
X84304761Y-61083333D01*
X84257142Y-61035714D01*
X84161904Y-60988095D01*
X83923809Y-60988095D01*
X83828571Y-61035714D01*
X83780952Y-61083333D01*
X83733333Y-61178571D01*
X83733333Y-61369047D01*
X83780952Y-61464285D01*
X83828571Y-61511904D01*
X83923809Y-61559523D01*
G04 #@! TO.C,C17*
X74134742Y-50801542D02*
X74087123Y-50849161D01*
X73944266Y-50896780D01*
X73849028Y-50896780D01*
X73706171Y-50849161D01*
X73610933Y-50753923D01*
X73563314Y-50658685D01*
X73515695Y-50468209D01*
X73515695Y-50325352D01*
X73563314Y-50134876D01*
X73610933Y-50039638D01*
X73706171Y-49944400D01*
X73849028Y-49896780D01*
X73944266Y-49896780D01*
X74087123Y-49944400D01*
X74134742Y-49992019D01*
X75087123Y-50896780D02*
X74515695Y-50896780D01*
X74801409Y-50896780D02*
X74801409Y-49896780D01*
X74706171Y-50039638D01*
X74610933Y-50134876D01*
X74515695Y-50182495D01*
X75420457Y-49896780D02*
X76087123Y-49896780D01*
X75658552Y-50896780D01*
G04 #@! TO.C,C18*
X75507142Y-60142857D02*
X75554761Y-60190476D01*
X75602380Y-60333333D01*
X75602380Y-60428571D01*
X75554761Y-60571428D01*
X75459523Y-60666666D01*
X75364285Y-60714285D01*
X75173809Y-60761904D01*
X75030952Y-60761904D01*
X74840476Y-60714285D01*
X74745238Y-60666666D01*
X74650000Y-60571428D01*
X74602380Y-60428571D01*
X74602380Y-60333333D01*
X74650000Y-60190476D01*
X74697619Y-60142857D01*
X75602380Y-59190476D02*
X75602380Y-59761904D01*
X75602380Y-59476190D02*
X74602380Y-59476190D01*
X74745238Y-59571428D01*
X74840476Y-59666666D01*
X74888095Y-59761904D01*
X75030952Y-58619047D02*
X74983333Y-58714285D01*
X74935714Y-58761904D01*
X74840476Y-58809523D01*
X74792857Y-58809523D01*
X74697619Y-58761904D01*
X74650000Y-58714285D01*
X74602380Y-58619047D01*
X74602380Y-58428571D01*
X74650000Y-58333333D01*
X74697619Y-58285714D01*
X74792857Y-58238095D01*
X74840476Y-58238095D01*
X74935714Y-58285714D01*
X74983333Y-58333333D01*
X75030952Y-58428571D01*
X75030952Y-58619047D01*
X75078571Y-58714285D01*
X75126190Y-58761904D01*
X75221428Y-58809523D01*
X75411904Y-58809523D01*
X75507142Y-58761904D01*
X75554761Y-58714285D01*
X75602380Y-58619047D01*
X75602380Y-58428571D01*
X75554761Y-58333333D01*
X75507142Y-58285714D01*
X75411904Y-58238095D01*
X75221428Y-58238095D01*
X75126190Y-58285714D01*
X75078571Y-58333333D01*
X75030952Y-58428571D01*
G04 #@! TO.C,C19*
X87357142Y-49457142D02*
X87309523Y-49504761D01*
X87166666Y-49552380D01*
X87071428Y-49552380D01*
X86928571Y-49504761D01*
X86833333Y-49409523D01*
X86785714Y-49314285D01*
X86738095Y-49123809D01*
X86738095Y-48980952D01*
X86785714Y-48790476D01*
X86833333Y-48695238D01*
X86928571Y-48600000D01*
X87071428Y-48552380D01*
X87166666Y-48552380D01*
X87309523Y-48600000D01*
X87357142Y-48647619D01*
X88309523Y-49552380D02*
X87738095Y-49552380D01*
X88023809Y-49552380D02*
X88023809Y-48552380D01*
X87928571Y-48695238D01*
X87833333Y-48790476D01*
X87738095Y-48838095D01*
X88785714Y-49552380D02*
X88976190Y-49552380D01*
X89071428Y-49504761D01*
X89119047Y-49457142D01*
X89214285Y-49314285D01*
X89261904Y-49123809D01*
X89261904Y-48742857D01*
X89214285Y-48647619D01*
X89166666Y-48600000D01*
X89071428Y-48552380D01*
X88880952Y-48552380D01*
X88785714Y-48600000D01*
X88738095Y-48647619D01*
X88690476Y-48742857D01*
X88690476Y-48980952D01*
X88738095Y-49076190D01*
X88785714Y-49123809D01*
X88880952Y-49171428D01*
X89071428Y-49171428D01*
X89166666Y-49123809D01*
X89214285Y-49076190D01*
X89261904Y-48980952D01*
G04 #@! TO.C,C21*
X50893742Y-49201342D02*
X50846123Y-49248961D01*
X50703266Y-49296580D01*
X50608028Y-49296580D01*
X50465171Y-49248961D01*
X50369933Y-49153723D01*
X50322314Y-49058485D01*
X50274695Y-48868009D01*
X50274695Y-48725152D01*
X50322314Y-48534676D01*
X50369933Y-48439438D01*
X50465171Y-48344200D01*
X50608028Y-48296580D01*
X50703266Y-48296580D01*
X50846123Y-48344200D01*
X50893742Y-48391819D01*
X51274695Y-48391819D02*
X51322314Y-48344200D01*
X51417552Y-48296580D01*
X51655647Y-48296580D01*
X51750885Y-48344200D01*
X51798504Y-48391819D01*
X51846123Y-48487057D01*
X51846123Y-48582295D01*
X51798504Y-48725152D01*
X51227076Y-49296580D01*
X51846123Y-49296580D01*
X52798504Y-49296580D02*
X52227076Y-49296580D01*
X52512790Y-49296580D02*
X52512790Y-48296580D01*
X52417552Y-48439438D01*
X52322314Y-48534676D01*
X52227076Y-48582295D01*
G04 #@! TO.C,C22*
X59691542Y-46591457D02*
X59739161Y-46639076D01*
X59786780Y-46781933D01*
X59786780Y-46877171D01*
X59739161Y-47020028D01*
X59643923Y-47115266D01*
X59548685Y-47162885D01*
X59358209Y-47210504D01*
X59215352Y-47210504D01*
X59024876Y-47162885D01*
X58929638Y-47115266D01*
X58834400Y-47020028D01*
X58786780Y-46877171D01*
X58786780Y-46781933D01*
X58834400Y-46639076D01*
X58882019Y-46591457D01*
X58882019Y-46210504D02*
X58834400Y-46162885D01*
X58786780Y-46067647D01*
X58786780Y-45829552D01*
X58834400Y-45734314D01*
X58882019Y-45686695D01*
X58977257Y-45639076D01*
X59072495Y-45639076D01*
X59215352Y-45686695D01*
X59786780Y-46258123D01*
X59786780Y-45639076D01*
X58882019Y-45258123D02*
X58834400Y-45210504D01*
X58786780Y-45115266D01*
X58786780Y-44877171D01*
X58834400Y-44781933D01*
X58882019Y-44734314D01*
X58977257Y-44686695D01*
X59072495Y-44686695D01*
X59215352Y-44734314D01*
X59786780Y-45305742D01*
X59786780Y-44686695D01*
G04 #@! TO.C,C31*
X63707142Y-70392857D02*
X63754761Y-70440476D01*
X63802380Y-70583333D01*
X63802380Y-70678571D01*
X63754761Y-70821428D01*
X63659523Y-70916666D01*
X63564285Y-70964285D01*
X63373809Y-71011904D01*
X63230952Y-71011904D01*
X63040476Y-70964285D01*
X62945238Y-70916666D01*
X62850000Y-70821428D01*
X62802380Y-70678571D01*
X62802380Y-70583333D01*
X62850000Y-70440476D01*
X62897619Y-70392857D01*
X62802380Y-70059523D02*
X62802380Y-69440476D01*
X63183333Y-69773809D01*
X63183333Y-69630952D01*
X63230952Y-69535714D01*
X63278571Y-69488095D01*
X63373809Y-69440476D01*
X63611904Y-69440476D01*
X63707142Y-69488095D01*
X63754761Y-69535714D01*
X63802380Y-69630952D01*
X63802380Y-69916666D01*
X63754761Y-70011904D01*
X63707142Y-70059523D01*
X63802380Y-68488095D02*
X63802380Y-69059523D01*
X63802380Y-68773809D02*
X62802380Y-68773809D01*
X62945238Y-68869047D01*
X63040476Y-68964285D01*
X63088095Y-69059523D01*
G04 #@! TO.C,C32*
X74550542Y-71356457D02*
X74598161Y-71404076D01*
X74645780Y-71546933D01*
X74645780Y-71642171D01*
X74598161Y-71785028D01*
X74502923Y-71880266D01*
X74407685Y-71927885D01*
X74217209Y-71975504D01*
X74074352Y-71975504D01*
X73883876Y-71927885D01*
X73788638Y-71880266D01*
X73693400Y-71785028D01*
X73645780Y-71642171D01*
X73645780Y-71546933D01*
X73693400Y-71404076D01*
X73741019Y-71356457D01*
X73645780Y-71023123D02*
X73645780Y-70404076D01*
X74026733Y-70737409D01*
X74026733Y-70594552D01*
X74074352Y-70499314D01*
X74121971Y-70451695D01*
X74217209Y-70404076D01*
X74455304Y-70404076D01*
X74550542Y-70451695D01*
X74598161Y-70499314D01*
X74645780Y-70594552D01*
X74645780Y-70880266D01*
X74598161Y-70975504D01*
X74550542Y-71023123D01*
X73741019Y-70023123D02*
X73693400Y-69975504D01*
X73645780Y-69880266D01*
X73645780Y-69642171D01*
X73693400Y-69546933D01*
X73741019Y-69499314D01*
X73836257Y-69451695D01*
X73931495Y-69451695D01*
X74074352Y-69499314D01*
X74645780Y-70070742D01*
X74645780Y-69451695D01*
G04 #@! TO.C,D1*
X62952380Y-63238095D02*
X61952380Y-63238095D01*
X61952380Y-63000000D01*
X62000000Y-62857142D01*
X62095238Y-62761904D01*
X62190476Y-62714285D01*
X62380952Y-62666666D01*
X62523809Y-62666666D01*
X62714285Y-62714285D01*
X62809523Y-62761904D01*
X62904761Y-62857142D01*
X62952380Y-63000000D01*
X62952380Y-63238095D01*
X62952380Y-61714285D02*
X62952380Y-62285714D01*
X62952380Y-62000000D02*
X61952380Y-62000000D01*
X62095238Y-62095238D01*
X62190476Y-62190476D01*
X62238095Y-62285714D01*
G04 #@! TO.C,D2*
X67452380Y-63138095D02*
X66452380Y-63138095D01*
X66452380Y-62900000D01*
X66500000Y-62757142D01*
X66595238Y-62661904D01*
X66690476Y-62614285D01*
X66880952Y-62566666D01*
X67023809Y-62566666D01*
X67214285Y-62614285D01*
X67309523Y-62661904D01*
X67404761Y-62757142D01*
X67452380Y-62900000D01*
X67452380Y-63138095D01*
X66547619Y-62185714D02*
X66500000Y-62138095D01*
X66452380Y-62042857D01*
X66452380Y-61804761D01*
X66500000Y-61709523D01*
X66547619Y-61661904D01*
X66642857Y-61614285D01*
X66738095Y-61614285D01*
X66880952Y-61661904D01*
X67452380Y-62233333D01*
X67452380Y-61614285D01*
G04 #@! TO.C,D3*
X99261904Y-78802380D02*
X99261904Y-77802380D01*
X99500000Y-77802380D01*
X99642857Y-77850000D01*
X99738095Y-77945238D01*
X99785714Y-78040476D01*
X99833333Y-78230952D01*
X99833333Y-78373809D01*
X99785714Y-78564285D01*
X99738095Y-78659523D01*
X99642857Y-78754761D01*
X99500000Y-78802380D01*
X99261904Y-78802380D01*
X100166666Y-77802380D02*
X100785714Y-77802380D01*
X100452380Y-78183333D01*
X100595238Y-78183333D01*
X100690476Y-78230952D01*
X100738095Y-78278571D01*
X100785714Y-78373809D01*
X100785714Y-78611904D01*
X100738095Y-78707142D01*
X100690476Y-78754761D01*
X100595238Y-78802380D01*
X100309523Y-78802380D01*
X100214285Y-78754761D01*
X100166666Y-78707142D01*
G04 #@! TO.C,D4*
X104011904Y-78802380D02*
X104011904Y-77802380D01*
X104250000Y-77802380D01*
X104392857Y-77850000D01*
X104488095Y-77945238D01*
X104535714Y-78040476D01*
X104583333Y-78230952D01*
X104583333Y-78373809D01*
X104535714Y-78564285D01*
X104488095Y-78659523D01*
X104392857Y-78754761D01*
X104250000Y-78802380D01*
X104011904Y-78802380D01*
X105440476Y-78135714D02*
X105440476Y-78802380D01*
X105202380Y-77754761D02*
X104964285Y-78469047D01*
X105583333Y-78469047D01*
G04 #@! TO.C,D5*
X108761904Y-78802380D02*
X108761904Y-77802380D01*
X109000000Y-77802380D01*
X109142857Y-77850000D01*
X109238095Y-77945238D01*
X109285714Y-78040476D01*
X109333333Y-78230952D01*
X109333333Y-78373809D01*
X109285714Y-78564285D01*
X109238095Y-78659523D01*
X109142857Y-78754761D01*
X109000000Y-78802380D01*
X108761904Y-78802380D01*
X110238095Y-77802380D02*
X109761904Y-77802380D01*
X109714285Y-78278571D01*
X109761904Y-78230952D01*
X109857142Y-78183333D01*
X110095238Y-78183333D01*
X110190476Y-78230952D01*
X110238095Y-78278571D01*
X110285714Y-78373809D01*
X110285714Y-78611904D01*
X110238095Y-78707142D01*
X110190476Y-78754761D01*
X110095238Y-78802380D01*
X109857142Y-78802380D01*
X109761904Y-78754761D01*
X109714285Y-78707142D01*
G04 #@! TO.C,D41*
X79430714Y-76626980D02*
X79430714Y-75626980D01*
X79668809Y-75626980D01*
X79811666Y-75674600D01*
X79906904Y-75769838D01*
X79954523Y-75865076D01*
X80002142Y-76055552D01*
X80002142Y-76198409D01*
X79954523Y-76388885D01*
X79906904Y-76484123D01*
X79811666Y-76579361D01*
X79668809Y-76626980D01*
X79430714Y-76626980D01*
X80859285Y-75960314D02*
X80859285Y-76626980D01*
X80621190Y-75579361D02*
X80383095Y-76293647D01*
X81002142Y-76293647D01*
X81906904Y-76626980D02*
X81335476Y-76626980D01*
X81621190Y-76626980D02*
X81621190Y-75626980D01*
X81525952Y-75769838D01*
X81430714Y-75865076D01*
X81335476Y-75912695D01*
G04 #@! TO.C,F11*
X83590476Y-77948571D02*
X83257142Y-77948571D01*
X83257142Y-78472380D02*
X83257142Y-77472380D01*
X83733333Y-77472380D01*
X84638095Y-78472380D02*
X84066666Y-78472380D01*
X84352380Y-78472380D02*
X84352380Y-77472380D01*
X84257142Y-77615238D01*
X84161904Y-77710476D01*
X84066666Y-77758095D01*
X85590476Y-78472380D02*
X85019047Y-78472380D01*
X85304761Y-78472380D02*
X85304761Y-77472380D01*
X85209523Y-77615238D01*
X85114285Y-77710476D01*
X85019047Y-77758095D01*
G04 #@! TO.C,F12*
X68190476Y-76948571D02*
X67857142Y-76948571D01*
X67857142Y-77472380D02*
X67857142Y-76472380D01*
X68333333Y-76472380D01*
X69238095Y-77472380D02*
X68666666Y-77472380D01*
X68952380Y-77472380D02*
X68952380Y-76472380D01*
X68857142Y-76615238D01*
X68761904Y-76710476D01*
X68666666Y-76758095D01*
X69619047Y-76567619D02*
X69666666Y-76520000D01*
X69761904Y-76472380D01*
X70000000Y-76472380D01*
X70095238Y-76520000D01*
X70142857Y-76567619D01*
X70190476Y-76662857D01*
X70190476Y-76758095D01*
X70142857Y-76900952D01*
X69571428Y-77472380D01*
X70190476Y-77472380D01*
G04 #@! TO.C,L41*
X89672380Y-75392857D02*
X89672380Y-75869047D01*
X88672380Y-75869047D01*
X89005714Y-74630952D02*
X89672380Y-74630952D01*
X88624761Y-74869047D02*
X89339047Y-75107142D01*
X89339047Y-74488095D01*
X89672380Y-73583333D02*
X89672380Y-74154761D01*
X89672380Y-73869047D02*
X88672380Y-73869047D01*
X88815238Y-73964285D01*
X88910476Y-74059523D01*
X88958095Y-74154761D01*
G04 #@! TO.C,Q51*
X62428571Y-44547619D02*
X62333333Y-44500000D01*
X62238095Y-44404761D01*
X62095238Y-44261904D01*
X62000000Y-44214285D01*
X61904761Y-44214285D01*
X61952380Y-44452380D02*
X61857142Y-44404761D01*
X61761904Y-44309523D01*
X61714285Y-44119047D01*
X61714285Y-43785714D01*
X61761904Y-43595238D01*
X61857142Y-43500000D01*
X61952380Y-43452380D01*
X62142857Y-43452380D01*
X62238095Y-43500000D01*
X62333333Y-43595238D01*
X62380952Y-43785714D01*
X62380952Y-44119047D01*
X62333333Y-44309523D01*
X62238095Y-44404761D01*
X62142857Y-44452380D01*
X61952380Y-44452380D01*
X63285714Y-43452380D02*
X62809523Y-43452380D01*
X62761904Y-43928571D01*
X62809523Y-43880952D01*
X62904761Y-43833333D01*
X63142857Y-43833333D01*
X63238095Y-43880952D01*
X63285714Y-43928571D01*
X63333333Y-44023809D01*
X63333333Y-44261904D01*
X63285714Y-44357142D01*
X63238095Y-44404761D01*
X63142857Y-44452380D01*
X62904761Y-44452380D01*
X62809523Y-44404761D01*
X62761904Y-44357142D01*
X64285714Y-44452380D02*
X63714285Y-44452380D01*
X64000000Y-44452380D02*
X64000000Y-43452380D01*
X63904761Y-43595238D01*
X63809523Y-43690476D01*
X63714285Y-43738095D01*
G04 #@! TO.C,R12*
X112102380Y-70792857D02*
X111626190Y-71126190D01*
X112102380Y-71364285D02*
X111102380Y-71364285D01*
X111102380Y-70983333D01*
X111150000Y-70888095D01*
X111197619Y-70840476D01*
X111292857Y-70792857D01*
X111435714Y-70792857D01*
X111530952Y-70840476D01*
X111578571Y-70888095D01*
X111626190Y-70983333D01*
X111626190Y-71364285D01*
X112102380Y-69840476D02*
X112102380Y-70411904D01*
X112102380Y-70126190D02*
X111102380Y-70126190D01*
X111245238Y-70221428D01*
X111340476Y-70316666D01*
X111388095Y-70411904D01*
X111197619Y-69459523D02*
X111150000Y-69411904D01*
X111102380Y-69316666D01*
X111102380Y-69078571D01*
X111150000Y-68983333D01*
X111197619Y-68935714D01*
X111292857Y-68888095D01*
X111388095Y-68888095D01*
X111530952Y-68935714D01*
X112102380Y-69507142D01*
X112102380Y-68888095D01*
G04 #@! TO.C,R41*
X85237580Y-80449657D02*
X84761390Y-80782990D01*
X85237580Y-81021085D02*
X84237580Y-81021085D01*
X84237580Y-80640133D01*
X84285200Y-80544895D01*
X84332819Y-80497276D01*
X84428057Y-80449657D01*
X84570914Y-80449657D01*
X84666152Y-80497276D01*
X84713771Y-80544895D01*
X84761390Y-80640133D01*
X84761390Y-81021085D01*
X84570914Y-79592514D02*
X85237580Y-79592514D01*
X84189961Y-79830609D02*
X84904247Y-80068704D01*
X84904247Y-79449657D01*
X85237580Y-78544895D02*
X85237580Y-79116323D01*
X85237580Y-78830609D02*
X84237580Y-78830609D01*
X84380438Y-78925847D01*
X84475676Y-79021085D01*
X84523295Y-79116323D01*
G04 #@! TO.C,R51*
X75007142Y-45802380D02*
X74673809Y-45326190D01*
X74435714Y-45802380D02*
X74435714Y-44802380D01*
X74816666Y-44802380D01*
X74911904Y-44850000D01*
X74959523Y-44897619D01*
X75007142Y-44992857D01*
X75007142Y-45135714D01*
X74959523Y-45230952D01*
X74911904Y-45278571D01*
X74816666Y-45326190D01*
X74435714Y-45326190D01*
X75911904Y-44802380D02*
X75435714Y-44802380D01*
X75388095Y-45278571D01*
X75435714Y-45230952D01*
X75530952Y-45183333D01*
X75769047Y-45183333D01*
X75864285Y-45230952D01*
X75911904Y-45278571D01*
X75959523Y-45373809D01*
X75959523Y-45611904D01*
X75911904Y-45707142D01*
X75864285Y-45754761D01*
X75769047Y-45802380D01*
X75530952Y-45802380D01*
X75435714Y-45754761D01*
X75388095Y-45707142D01*
X76911904Y-45802380D02*
X76340476Y-45802380D01*
X76626190Y-45802380D02*
X76626190Y-44802380D01*
X76530952Y-44945238D01*
X76435714Y-45040476D01*
X76340476Y-45088095D01*
G04 #@! TO.C,R61*
X63357142Y-54127380D02*
X63023809Y-53651190D01*
X62785714Y-54127380D02*
X62785714Y-53127380D01*
X63166666Y-53127380D01*
X63261904Y-53175000D01*
X63309523Y-53222619D01*
X63357142Y-53317857D01*
X63357142Y-53460714D01*
X63309523Y-53555952D01*
X63261904Y-53603571D01*
X63166666Y-53651190D01*
X62785714Y-53651190D01*
X64214285Y-53127380D02*
X64023809Y-53127380D01*
X63928571Y-53175000D01*
X63880952Y-53222619D01*
X63785714Y-53365476D01*
X63738095Y-53555952D01*
X63738095Y-53936904D01*
X63785714Y-54032142D01*
X63833333Y-54079761D01*
X63928571Y-54127380D01*
X64119047Y-54127380D01*
X64214285Y-54079761D01*
X64261904Y-54032142D01*
X64309523Y-53936904D01*
X64309523Y-53698809D01*
X64261904Y-53603571D01*
X64214285Y-53555952D01*
X64119047Y-53508333D01*
X63928571Y-53508333D01*
X63833333Y-53555952D01*
X63785714Y-53603571D01*
X63738095Y-53698809D01*
X65261904Y-54127380D02*
X64690476Y-54127380D01*
X64976190Y-54127380D02*
X64976190Y-53127380D01*
X64880952Y-53270238D01*
X64785714Y-53365476D01*
X64690476Y-53413095D01*
G04 #@! TO.C,R62*
X63357142Y-52127380D02*
X63023809Y-51651190D01*
X62785714Y-52127380D02*
X62785714Y-51127380D01*
X63166666Y-51127380D01*
X63261904Y-51175000D01*
X63309523Y-51222619D01*
X63357142Y-51317857D01*
X63357142Y-51460714D01*
X63309523Y-51555952D01*
X63261904Y-51603571D01*
X63166666Y-51651190D01*
X62785714Y-51651190D01*
X64214285Y-51127380D02*
X64023809Y-51127380D01*
X63928571Y-51175000D01*
X63880952Y-51222619D01*
X63785714Y-51365476D01*
X63738095Y-51555952D01*
X63738095Y-51936904D01*
X63785714Y-52032142D01*
X63833333Y-52079761D01*
X63928571Y-52127380D01*
X64119047Y-52127380D01*
X64214285Y-52079761D01*
X64261904Y-52032142D01*
X64309523Y-51936904D01*
X64309523Y-51698809D01*
X64261904Y-51603571D01*
X64214285Y-51555952D01*
X64119047Y-51508333D01*
X63928571Y-51508333D01*
X63833333Y-51555952D01*
X63785714Y-51603571D01*
X63738095Y-51698809D01*
X64690476Y-51222619D02*
X64738095Y-51175000D01*
X64833333Y-51127380D01*
X65071428Y-51127380D01*
X65166666Y-51175000D01*
X65214285Y-51222619D01*
X65261904Y-51317857D01*
X65261904Y-51413095D01*
X65214285Y-51555952D01*
X64642857Y-52127380D01*
X65261904Y-52127380D01*
G04 #@! TO.C,R63*
X68207142Y-55302380D02*
X67873809Y-54826190D01*
X67635714Y-55302380D02*
X67635714Y-54302380D01*
X68016666Y-54302380D01*
X68111904Y-54350000D01*
X68159523Y-54397619D01*
X68207142Y-54492857D01*
X68207142Y-54635714D01*
X68159523Y-54730952D01*
X68111904Y-54778571D01*
X68016666Y-54826190D01*
X67635714Y-54826190D01*
X69064285Y-54302380D02*
X68873809Y-54302380D01*
X68778571Y-54350000D01*
X68730952Y-54397619D01*
X68635714Y-54540476D01*
X68588095Y-54730952D01*
X68588095Y-55111904D01*
X68635714Y-55207142D01*
X68683333Y-55254761D01*
X68778571Y-55302380D01*
X68969047Y-55302380D01*
X69064285Y-55254761D01*
X69111904Y-55207142D01*
X69159523Y-55111904D01*
X69159523Y-54873809D01*
X69111904Y-54778571D01*
X69064285Y-54730952D01*
X68969047Y-54683333D01*
X68778571Y-54683333D01*
X68683333Y-54730952D01*
X68635714Y-54778571D01*
X68588095Y-54873809D01*
X69492857Y-54302380D02*
X70111904Y-54302380D01*
X69778571Y-54683333D01*
X69921428Y-54683333D01*
X70016666Y-54730952D01*
X70064285Y-54778571D01*
X70111904Y-54873809D01*
X70111904Y-55111904D01*
X70064285Y-55207142D01*
X70016666Y-55254761D01*
X69921428Y-55302380D01*
X69635714Y-55302380D01*
X69540476Y-55254761D01*
X69492857Y-55207142D01*
G04 #@! TO.C,R64*
X68107142Y-51052380D02*
X67773809Y-50576190D01*
X67535714Y-51052380D02*
X67535714Y-50052380D01*
X67916666Y-50052380D01*
X68011904Y-50100000D01*
X68059523Y-50147619D01*
X68107142Y-50242857D01*
X68107142Y-50385714D01*
X68059523Y-50480952D01*
X68011904Y-50528571D01*
X67916666Y-50576190D01*
X67535714Y-50576190D01*
X68964285Y-50052380D02*
X68773809Y-50052380D01*
X68678571Y-50100000D01*
X68630952Y-50147619D01*
X68535714Y-50290476D01*
X68488095Y-50480952D01*
X68488095Y-50861904D01*
X68535714Y-50957142D01*
X68583333Y-51004761D01*
X68678571Y-51052380D01*
X68869047Y-51052380D01*
X68964285Y-51004761D01*
X69011904Y-50957142D01*
X69059523Y-50861904D01*
X69059523Y-50623809D01*
X69011904Y-50528571D01*
X68964285Y-50480952D01*
X68869047Y-50433333D01*
X68678571Y-50433333D01*
X68583333Y-50480952D01*
X68535714Y-50528571D01*
X68488095Y-50623809D01*
X69916666Y-50385714D02*
X69916666Y-51052380D01*
X69678571Y-50004761D02*
X69440476Y-50719047D01*
X70059523Y-50719047D01*
G04 #@! TO.C,RN1*
X95452380Y-71690476D02*
X94976190Y-72023809D01*
X95452380Y-72261904D02*
X94452380Y-72261904D01*
X94452380Y-71880952D01*
X94500000Y-71785714D01*
X94547619Y-71738095D01*
X94642857Y-71690476D01*
X94785714Y-71690476D01*
X94880952Y-71738095D01*
X94928571Y-71785714D01*
X94976190Y-71880952D01*
X94976190Y-72261904D01*
X95452380Y-71261904D02*
X94452380Y-71261904D01*
X95452380Y-70690476D01*
X94452380Y-70690476D01*
X95452380Y-69690476D02*
X95452380Y-70261904D01*
X95452380Y-69976190D02*
X94452380Y-69976190D01*
X94595238Y-70071428D01*
X94690476Y-70166666D01*
X94738095Y-70261904D01*
G04 #@! TO.C,RN11*
X74852380Y-68066666D02*
X74376190Y-68400000D01*
X74852380Y-68638095D02*
X73852380Y-68638095D01*
X73852380Y-68257142D01*
X73900000Y-68161904D01*
X73947619Y-68114285D01*
X74042857Y-68066666D01*
X74185714Y-68066666D01*
X74280952Y-68114285D01*
X74328571Y-68161904D01*
X74376190Y-68257142D01*
X74376190Y-68638095D01*
X74852380Y-67638095D02*
X73852380Y-67638095D01*
X74852380Y-67066666D01*
X73852380Y-67066666D01*
X74852380Y-66066666D02*
X74852380Y-66638095D01*
X74852380Y-66352380D02*
X73852380Y-66352380D01*
X73995238Y-66447619D01*
X74090476Y-66542857D01*
X74138095Y-66638095D01*
X74852380Y-65114285D02*
X74852380Y-65685714D01*
X74852380Y-65400000D02*
X73852380Y-65400000D01*
X73995238Y-65495238D01*
X74090476Y-65590476D01*
X74138095Y-65685714D01*
G04 #@! TO.C,RN12*
X84252380Y-68066666D02*
X83776190Y-68400000D01*
X84252380Y-68638095D02*
X83252380Y-68638095D01*
X83252380Y-68257142D01*
X83300000Y-68161904D01*
X83347619Y-68114285D01*
X83442857Y-68066666D01*
X83585714Y-68066666D01*
X83680952Y-68114285D01*
X83728571Y-68161904D01*
X83776190Y-68257142D01*
X83776190Y-68638095D01*
X84252380Y-67638095D02*
X83252380Y-67638095D01*
X84252380Y-67066666D01*
X83252380Y-67066666D01*
X84252380Y-66066666D02*
X84252380Y-66638095D01*
X84252380Y-66352380D02*
X83252380Y-66352380D01*
X83395238Y-66447619D01*
X83490476Y-66542857D01*
X83538095Y-66638095D01*
X83347619Y-65685714D02*
X83300000Y-65638095D01*
X83252380Y-65542857D01*
X83252380Y-65304761D01*
X83300000Y-65209523D01*
X83347619Y-65161904D01*
X83442857Y-65114285D01*
X83538095Y-65114285D01*
X83680952Y-65161904D01*
X84252380Y-65733333D01*
X84252380Y-65114285D01*
G04 #@! TO.C,SW11*
X102440476Y-46404761D02*
X102583333Y-46452380D01*
X102821428Y-46452380D01*
X102916666Y-46404761D01*
X102964285Y-46357142D01*
X103011904Y-46261904D01*
X103011904Y-46166666D01*
X102964285Y-46071428D01*
X102916666Y-46023809D01*
X102821428Y-45976190D01*
X102630952Y-45928571D01*
X102535714Y-45880952D01*
X102488095Y-45833333D01*
X102440476Y-45738095D01*
X102440476Y-45642857D01*
X102488095Y-45547619D01*
X102535714Y-45500000D01*
X102630952Y-45452380D01*
X102869047Y-45452380D01*
X103011904Y-45500000D01*
X103345238Y-45452380D02*
X103583333Y-46452380D01*
X103773809Y-45738095D01*
X103964285Y-46452380D01*
X104202380Y-45452380D01*
X105107142Y-46452380D02*
X104535714Y-46452380D01*
X104821428Y-46452380D02*
X104821428Y-45452380D01*
X104726190Y-45595238D01*
X104630952Y-45690476D01*
X104535714Y-45738095D01*
X106059523Y-46452380D02*
X105488095Y-46452380D01*
X105773809Y-46452380D02*
X105773809Y-45452380D01*
X105678571Y-45595238D01*
X105583333Y-45690476D01*
X105488095Y-45738095D01*
G04 #@! TO.C,SW12*
X102440476Y-66404761D02*
X102583333Y-66452380D01*
X102821428Y-66452380D01*
X102916666Y-66404761D01*
X102964285Y-66357142D01*
X103011904Y-66261904D01*
X103011904Y-66166666D01*
X102964285Y-66071428D01*
X102916666Y-66023809D01*
X102821428Y-65976190D01*
X102630952Y-65928571D01*
X102535714Y-65880952D01*
X102488095Y-65833333D01*
X102440476Y-65738095D01*
X102440476Y-65642857D01*
X102488095Y-65547619D01*
X102535714Y-65500000D01*
X102630952Y-65452380D01*
X102869047Y-65452380D01*
X103011904Y-65500000D01*
X103345238Y-65452380D02*
X103583333Y-66452380D01*
X103773809Y-65738095D01*
X103964285Y-66452380D01*
X104202380Y-65452380D01*
X105107142Y-66452380D02*
X104535714Y-66452380D01*
X104821428Y-66452380D02*
X104821428Y-65452380D01*
X104726190Y-65595238D01*
X104630952Y-65690476D01*
X104535714Y-65738095D01*
X105488095Y-65547619D02*
X105535714Y-65500000D01*
X105630952Y-65452380D01*
X105869047Y-65452380D01*
X105964285Y-65500000D01*
X106011904Y-65547619D01*
X106059523Y-65642857D01*
X106059523Y-65738095D01*
X106011904Y-65880952D01*
X105440476Y-66452380D01*
X106059523Y-66452380D01*
G04 #@! TO.C,U1*
X78888095Y-60202380D02*
X78888095Y-61011904D01*
X78935714Y-61107142D01*
X78983333Y-61154761D01*
X79078571Y-61202380D01*
X79269047Y-61202380D01*
X79364285Y-61154761D01*
X79411904Y-61107142D01*
X79459523Y-61011904D01*
X79459523Y-60202380D01*
X80459523Y-61202380D02*
X79888095Y-61202380D01*
X80173809Y-61202380D02*
X80173809Y-60202380D01*
X80078571Y-60345238D01*
X79983333Y-60440476D01*
X79888095Y-60488095D01*
G04 #@! TO.C,U2*
X53822695Y-48372780D02*
X53822695Y-49182304D01*
X53870314Y-49277542D01*
X53917933Y-49325161D01*
X54013171Y-49372780D01*
X54203647Y-49372780D01*
X54298885Y-49325161D01*
X54346504Y-49277542D01*
X54394123Y-49182304D01*
X54394123Y-48372780D01*
X54822695Y-48468019D02*
X54870314Y-48420400D01*
X54965552Y-48372780D01*
X55203647Y-48372780D01*
X55298885Y-48420400D01*
X55346504Y-48468019D01*
X55394123Y-48563257D01*
X55394123Y-48658495D01*
X55346504Y-48801352D01*
X54775076Y-49372780D01*
X55394123Y-49372780D01*
G04 #@! TO.C,U3*
X68238095Y-67452380D02*
X68238095Y-68261904D01*
X68285714Y-68357142D01*
X68333333Y-68404761D01*
X68428571Y-68452380D01*
X68619047Y-68452380D01*
X68714285Y-68404761D01*
X68761904Y-68357142D01*
X68809523Y-68261904D01*
X68809523Y-67452380D01*
X69190476Y-67452380D02*
X69809523Y-67452380D01*
X69476190Y-67833333D01*
X69619047Y-67833333D01*
X69714285Y-67880952D01*
X69761904Y-67928571D01*
X69809523Y-68023809D01*
X69809523Y-68261904D01*
X69761904Y-68357142D01*
X69714285Y-68404761D01*
X69619047Y-68452380D01*
X69333333Y-68452380D01*
X69238095Y-68404761D01*
X69190476Y-68357142D01*
G04 #@! TO.C,U4*
X92060780Y-80771904D02*
X92870304Y-80771904D01*
X92965542Y-80724285D01*
X93013161Y-80676666D01*
X93060780Y-80581428D01*
X93060780Y-80390952D01*
X93013161Y-80295714D01*
X92965542Y-80248095D01*
X92870304Y-80200476D01*
X92060780Y-80200476D01*
X92394114Y-79295714D02*
X93060780Y-79295714D01*
X92013161Y-79533809D02*
X92727447Y-79771904D01*
X92727447Y-79152857D01*
G04 #@! TO.C,U5*
X59062380Y-42761904D02*
X59871904Y-42761904D01*
X59967142Y-42714285D01*
X60014761Y-42666666D01*
X60062380Y-42571428D01*
X60062380Y-42380952D01*
X60014761Y-42285714D01*
X59967142Y-42238095D01*
X59871904Y-42190476D01*
X59062380Y-42190476D01*
X59062380Y-41238095D02*
X59062380Y-41714285D01*
X59538571Y-41761904D01*
X59490952Y-41714285D01*
X59443333Y-41619047D01*
X59443333Y-41380952D01*
X59490952Y-41285714D01*
X59538571Y-41238095D01*
X59633809Y-41190476D01*
X59871904Y-41190476D01*
X59967142Y-41238095D01*
X60014761Y-41285714D01*
X60062380Y-41380952D01*
X60062380Y-41619047D01*
X60014761Y-41714285D01*
X59967142Y-41761904D01*
G04 #@! TO.C,Y11*
X96501190Y-50912380D02*
X96977380Y-50912380D01*
X95977380Y-51245714D02*
X96501190Y-50912380D01*
X95977380Y-50579047D01*
X96977380Y-49721904D02*
X96977380Y-50293333D01*
X96977380Y-50007619D02*
X95977380Y-50007619D01*
X96120238Y-50102857D01*
X96215476Y-50198095D01*
X96263095Y-50293333D01*
X96977380Y-48769523D02*
X96977380Y-49340952D01*
X96977380Y-49055238D02*
X95977380Y-49055238D01*
X96120238Y-49150476D01*
X96215476Y-49245714D01*
X96263095Y-49340952D01*
G04 #@! TO.C,J13*
X55805476Y-72262380D02*
X55805476Y-72976666D01*
X55757857Y-73119523D01*
X55662619Y-73214761D01*
X55519761Y-73262380D01*
X55424523Y-73262380D01*
X56805476Y-73262380D02*
X56234047Y-73262380D01*
X56519761Y-73262380D02*
X56519761Y-72262380D01*
X56424523Y-72405238D01*
X56329285Y-72500476D01*
X56234047Y-72548095D01*
X57138809Y-72262380D02*
X57757857Y-72262380D01*
X57424523Y-72643333D01*
X57567380Y-72643333D01*
X57662619Y-72690952D01*
X57710238Y-72738571D01*
X57757857Y-72833809D01*
X57757857Y-73071904D01*
X57710238Y-73167142D01*
X57662619Y-73214761D01*
X57567380Y-73262380D01*
X57281666Y-73262380D01*
X57186428Y-73214761D01*
X57138809Y-73167142D01*
G04 #@! TO.C,J21*
X51082380Y-42809523D02*
X51796666Y-42809523D01*
X51939523Y-42857142D01*
X52034761Y-42952380D01*
X52082380Y-43095238D01*
X52082380Y-43190476D01*
X51177619Y-42380952D02*
X51130000Y-42333333D01*
X51082380Y-42238095D01*
X51082380Y-42000000D01*
X51130000Y-41904761D01*
X51177619Y-41857142D01*
X51272857Y-41809523D01*
X51368095Y-41809523D01*
X51510952Y-41857142D01*
X52082380Y-42428571D01*
X52082380Y-41809523D01*
X52082380Y-40857142D02*
X52082380Y-41428571D01*
X52082380Y-41142857D02*
X51082380Y-41142857D01*
X51225238Y-41238095D01*
X51320476Y-41333333D01*
X51368095Y-41428571D01*
G04 #@! TO.C,J11*
X61087380Y-78877023D02*
X61801666Y-78877023D01*
X61944523Y-78924642D01*
X62039761Y-79019880D01*
X62087380Y-79162738D01*
X62087380Y-79257976D01*
X62087380Y-77877023D02*
X62087380Y-78448452D01*
X62087380Y-78162738D02*
X61087380Y-78162738D01*
X61230238Y-78257976D01*
X61325476Y-78353214D01*
X61373095Y-78448452D01*
X62087380Y-76924642D02*
X62087380Y-77496071D01*
X62087380Y-77210357D02*
X61087380Y-77210357D01*
X61230238Y-77305595D01*
X61325476Y-77400833D01*
X61373095Y-77496071D01*
G04 #@! TO.C,J12*
X79087380Y-78877023D02*
X79801666Y-78877023D01*
X79944523Y-78924642D01*
X80039761Y-79019880D01*
X80087380Y-79162738D01*
X80087380Y-79257976D01*
X80087380Y-77877023D02*
X80087380Y-78448452D01*
X80087380Y-78162738D02*
X79087380Y-78162738D01*
X79230238Y-78257976D01*
X79325476Y-78353214D01*
X79373095Y-78448452D01*
X79182619Y-77496071D02*
X79135000Y-77448452D01*
X79087380Y-77353214D01*
X79087380Y-77115119D01*
X79135000Y-77019880D01*
X79182619Y-76972261D01*
X79277857Y-76924642D01*
X79373095Y-76924642D01*
X79515952Y-76972261D01*
X80087380Y-77543690D01*
X80087380Y-76924642D01*
G04 #@! TD*
M02*
