G04 #@! TF.GenerationSoftware,KiCad,Pcbnew,(5.0.0)*
G04 #@! TF.CreationDate,2019-01-23T14:37:11-05:00*
G04 #@! TF.ProjectId,Project 23,50726F6A6563742032332E6B69636164,V 0.7*
G04 #@! TF.SameCoordinates,Original*
G04 #@! TF.FileFunction,Legend,Top*
G04 #@! TF.FilePolarity,Positive*
%FSLAX46Y46*%
G04 Gerber Fmt 4.6, Leading zero omitted, Abs format (unit mm)*
G04 Created by KiCad (PCBNEW (5.0.0)) date 01/23/19 14:37:11*
%MOMM*%
%LPD*%
G01*
G04 APERTURE LIST*
%ADD10C,0.200000*%
%ADD11C,0.100000*%
%ADD12C,0.120000*%
%ADD13C,0.150000*%
G04 APERTURE END LIST*
D10*
X81000000Y-75000000D02*
X79000000Y-71250000D01*
D11*
X55500000Y-51050000D02*
X50000000Y-51050000D01*
X55500000Y-58950000D02*
X55500000Y-51050000D01*
X50000000Y-58950000D02*
X55500000Y-58950000D01*
X50000000Y-58950000D02*
X50000000Y-82000000D01*
X112000000Y-40000000D02*
X50000000Y-40000000D01*
X112000000Y-82000000D02*
X112000000Y-40000000D01*
X50000000Y-82000000D02*
X112000000Y-82000000D01*
X50000000Y-40000000D02*
X50000000Y-51050000D01*
D12*
G04 #@! TO.C,R61*
X60463748Y-56310000D02*
X60986252Y-56310000D01*
X60463748Y-54890000D02*
X60986252Y-54890000D01*
G04 #@! TO.C,J13*
X58885000Y-73720000D02*
X58885000Y-63440000D01*
X58885000Y-63440000D02*
X56225000Y-63440000D01*
X56225000Y-63440000D02*
X56225000Y-73720000D01*
X56225000Y-73720000D02*
X58885000Y-73720000D01*
X56225000Y-72770000D02*
X50225000Y-72770000D01*
X50225000Y-72770000D02*
X50225000Y-72010000D01*
X50225000Y-72010000D02*
X56225000Y-72010000D01*
X56225000Y-72710000D02*
X50225000Y-72710000D01*
X56225000Y-72590000D02*
X50225000Y-72590000D01*
X56225000Y-72470000D02*
X50225000Y-72470000D01*
X56225000Y-72350000D02*
X50225000Y-72350000D01*
X56225000Y-72230000D02*
X50225000Y-72230000D01*
X56225000Y-72110000D02*
X50225000Y-72110000D01*
X59215000Y-72770000D02*
X58885000Y-72770000D01*
X59215000Y-72010000D02*
X58885000Y-72010000D01*
X58885000Y-71120000D02*
X56225000Y-71120000D01*
X56225000Y-70230000D02*
X50225000Y-70230000D01*
X50225000Y-70230000D02*
X50225000Y-69470000D01*
X50225000Y-69470000D02*
X56225000Y-69470000D01*
X59282071Y-70230000D02*
X58885000Y-70230000D01*
X59282071Y-69470000D02*
X58885000Y-69470000D01*
X58885000Y-68580000D02*
X56225000Y-68580000D01*
X56225000Y-67690000D02*
X50225000Y-67690000D01*
X50225000Y-67690000D02*
X50225000Y-66930000D01*
X50225000Y-66930000D02*
X56225000Y-66930000D01*
X59282071Y-67690000D02*
X58885000Y-67690000D01*
X59282071Y-66930000D02*
X58885000Y-66930000D01*
X58885000Y-66040000D02*
X56225000Y-66040000D01*
X56225000Y-65150000D02*
X50225000Y-65150000D01*
X50225000Y-65150000D02*
X50225000Y-64390000D01*
X50225000Y-64390000D02*
X56225000Y-64390000D01*
X59282071Y-65150000D02*
X58885000Y-65150000D01*
X59282071Y-64390000D02*
X58885000Y-64390000D01*
X61595000Y-72390000D02*
X61595000Y-73660000D01*
X61595000Y-73660000D02*
X60325000Y-73660000D01*
G04 #@! TO.C,R41*
X82040000Y-74236252D02*
X82040000Y-73713748D01*
X83460000Y-74236252D02*
X83460000Y-73713748D01*
G04 #@! TO.C,Y11*
X93965000Y-52072000D02*
X93965000Y-58472000D01*
X88915000Y-52072000D02*
X88915000Y-58472000D01*
X88915000Y-52072000D02*
G75*
G02X93965000Y-52072000I2525000J0D01*
G01*
X88915000Y-58472000D02*
G75*
G03X93965000Y-58472000I2525000J0D01*
G01*
G04 #@! TO.C,C11*
X84784000Y-54602748D02*
X84784000Y-55125252D01*
X83364000Y-54602748D02*
X83364000Y-55125252D01*
G04 #@! TO.C,C12*
X86666000Y-55125252D02*
X86666000Y-54602748D01*
X88086000Y-55125252D02*
X88086000Y-54602748D01*
G04 #@! TO.C,C16*
X69833748Y-46534000D02*
X70356252Y-46534000D01*
X69833748Y-47954000D02*
X70356252Y-47954000D01*
G04 #@! TO.C,C17*
X79704000Y-51560252D02*
X79704000Y-51037748D01*
X78284000Y-51560252D02*
X78284000Y-51037748D01*
G04 #@! TO.C,C18*
X66564252Y-58622000D02*
X66041748Y-58622000D01*
X66564252Y-57202000D02*
X66041748Y-57202000D01*
G04 #@! TO.C,C19*
X76656000Y-58675748D02*
X76656000Y-59198252D01*
X75236000Y-58675748D02*
X75236000Y-59198252D01*
G04 #@! TO.C,C21*
X59638000Y-45482252D02*
X59638000Y-44959748D01*
X58218000Y-45482252D02*
X58218000Y-44959748D01*
G04 #@! TO.C,C22*
X51106000Y-44959748D02*
X51106000Y-45482252D01*
X52526000Y-44959748D02*
X52526000Y-45482252D01*
G04 #@! TO.C,C31*
X86666000Y-46483748D02*
X86666000Y-47006252D01*
X88086000Y-46483748D02*
X88086000Y-47006252D01*
G04 #@! TO.C,C32*
X79554000Y-46988252D02*
X79554000Y-46465748D01*
X80974000Y-46988252D02*
X80974000Y-46465748D01*
G04 #@! TO.C,C33*
X86666000Y-42942252D02*
X86666000Y-42419748D01*
X88086000Y-42942252D02*
X88086000Y-42419748D01*
G04 #@! TO.C,C34*
X80974000Y-42933252D02*
X80974000Y-42410748D01*
X79554000Y-42933252D02*
X79554000Y-42410748D01*
G04 #@! TO.C,C71*
X91710252Y-61266000D02*
X91187748Y-61266000D01*
X91710252Y-62686000D02*
X91187748Y-62686000D01*
G04 #@! TO.C,D1*
X61985000Y-71750000D02*
X66285000Y-71750000D01*
X66285000Y-71750000D02*
X66285000Y-64450000D01*
X61985000Y-71750000D02*
X61985000Y-64450000D01*
G04 #@! TO.C,D2*
X65795000Y-71750000D02*
X65795000Y-64450000D01*
X70095000Y-71750000D02*
X70095000Y-64450000D01*
X65795000Y-71750000D02*
X70095000Y-71750000D01*
G04 #@! TO.C,D3*
X97988000Y-80511000D02*
X97988000Y-77651000D01*
X97988000Y-77651000D02*
X96068000Y-77651000D01*
X96068000Y-77651000D02*
X96068000Y-80511000D01*
G04 #@! TO.C,D4*
X98862000Y-77633000D02*
X98862000Y-80493000D01*
X100782000Y-77633000D02*
X98862000Y-77633000D01*
X100782000Y-80493000D02*
X100782000Y-77633000D01*
G04 #@! TO.C,D5*
X103576000Y-80502000D02*
X103576000Y-77642000D01*
X103576000Y-77642000D02*
X101656000Y-77642000D01*
X101656000Y-77642000D02*
X101656000Y-80502000D01*
G04 #@! TO.C,D11*
X80828000Y-61216000D02*
X79898000Y-61216000D01*
X77668000Y-61216000D02*
X78598000Y-61216000D01*
X77668000Y-61216000D02*
X77668000Y-63376000D01*
X80828000Y-61216000D02*
X80828000Y-62676000D01*
G04 #@! TO.C,F11*
X92139564Y-79610000D02*
X90935436Y-79610000D01*
X92139564Y-77790000D02*
X90935436Y-77790000D01*
G04 #@! TO.C,F12*
X90960436Y-77410000D02*
X92164564Y-77410000D01*
X90960436Y-75590000D02*
X92164564Y-75590000D01*
G04 #@! TO.C,J21*
X50740000Y-43330000D02*
X53400000Y-43330000D01*
X50740000Y-43270000D02*
X50740000Y-43330000D01*
X53400000Y-43270000D02*
X53400000Y-43330000D01*
X50740000Y-43270000D02*
X53400000Y-43270000D01*
X50740000Y-42000000D02*
X50740000Y-40670000D01*
X50740000Y-40670000D02*
X52070000Y-40670000D01*
G04 #@! TO.C,J22*
X58360000Y-40680000D02*
X59690000Y-40680000D01*
X58360000Y-42010000D02*
X58360000Y-40680000D01*
X58360000Y-43280000D02*
X61020000Y-43280000D01*
X61020000Y-43280000D02*
X61020000Y-43340000D01*
X58360000Y-43280000D02*
X58360000Y-43340000D01*
X58360000Y-43340000D02*
X61020000Y-43340000D01*
D13*
G04 #@! TO.C,J71*
X110950000Y-68310000D02*
X110950000Y-57960000D01*
X110950000Y-57960000D02*
X111950000Y-56960000D01*
X111950000Y-56960000D02*
X111950000Y-52610000D01*
D12*
G04 #@! TO.C,R12*
X105208000Y-73652748D02*
X105208000Y-74175252D01*
X106628000Y-73652748D02*
X106628000Y-74175252D01*
G04 #@! TO.C,R15*
X80974000Y-66032748D02*
X80974000Y-66555252D01*
X79554000Y-66032748D02*
X79554000Y-66555252D01*
G04 #@! TO.C,R16*
X77522000Y-66023748D02*
X77522000Y-66546252D01*
X78942000Y-66023748D02*
X78942000Y-66546252D01*
G04 #@! TO.C,R21*
X55624252Y-47042000D02*
X55101748Y-47042000D01*
X55624252Y-48462000D02*
X55101748Y-48462000D01*
G04 #@! TO.C,R22*
X63194000Y-44941748D02*
X63194000Y-45464252D01*
X61774000Y-44941748D02*
X61774000Y-45464252D01*
G04 #@! TO.C,R62*
X60463748Y-53040000D02*
X60986252Y-53040000D01*
X60463748Y-54460000D02*
X60986252Y-54460000D01*
G04 #@! TO.C,R63*
X60986252Y-58210000D02*
X60463748Y-58210000D01*
X60986252Y-56790000D02*
X60463748Y-56790000D01*
G04 #@! TO.C,R81*
X59892000Y-49292252D02*
X59892000Y-48769748D01*
X58472000Y-49292252D02*
X58472000Y-48769748D01*
G04 #@! TO.C,R82*
X60504000Y-49274252D02*
X60504000Y-48751748D01*
X61924000Y-49274252D02*
X61924000Y-48751748D01*
G04 #@! TO.C,R83*
X64568000Y-49292252D02*
X64568000Y-48769748D01*
X65988000Y-49292252D02*
X65988000Y-48769748D01*
G04 #@! TO.C,R84*
X62536000Y-48760748D02*
X62536000Y-49283252D01*
X63956000Y-48760748D02*
X63956000Y-49283252D01*
G04 #@! TO.C,RN1*
X84320000Y-64926000D02*
X83320000Y-64926000D01*
X84320000Y-61566000D02*
X83320000Y-61566000D01*
G04 #@! TO.C,RN11*
X70386000Y-70974000D02*
X70386000Y-69974000D01*
X73746000Y-70974000D02*
X73746000Y-69974000D01*
G04 #@! TO.C,RN12*
X73828000Y-69996000D02*
X73828000Y-70996000D01*
X77188000Y-69996000D02*
X77188000Y-70996000D01*
G04 #@! TO.C,SW11*
X103270000Y-46180000D02*
X103270000Y-44680000D01*
X102020000Y-42180000D02*
X97520000Y-42180000D01*
X96270000Y-44680000D02*
X96270000Y-46180000D01*
X97520000Y-48680000D02*
X102020000Y-48680000D01*
G04 #@! TO.C,SW12*
X97520000Y-77200000D02*
X102020000Y-77200000D01*
X96270000Y-73200000D02*
X96270000Y-74700000D01*
X102020000Y-70700000D02*
X97520000Y-70700000D01*
X103270000Y-74700000D02*
X103270000Y-73200000D01*
G04 #@! TO.C,U1*
X68240000Y-57210000D02*
X68240000Y-56790000D01*
X68240000Y-50090000D02*
X68240000Y-50510000D01*
X75360000Y-50090000D02*
X75360000Y-50510000D01*
X75360000Y-57210000D02*
X74940000Y-57210000D01*
X68240000Y-50090000D02*
X68660000Y-50090000D01*
X68240000Y-57210000D02*
X68660000Y-57210000D01*
X75360000Y-56790000D02*
X76740000Y-56790000D01*
X75360000Y-57210000D02*
X75360000Y-56790000D01*
X75360000Y-50090000D02*
X74940000Y-50090000D01*
G04 #@! TO.C,U21*
X54472000Y-46822000D02*
X56272000Y-46822000D01*
X56272000Y-43602000D02*
X53822000Y-43602000D01*
G04 #@! TO.C,U31*
X84720000Y-45126000D02*
X82920000Y-45126000D01*
X82920000Y-48346000D02*
X85370000Y-48346000D01*
G04 #@! TO.C,U32*
X82920000Y-44282000D02*
X85370000Y-44282000D01*
X84720000Y-41062000D02*
X82920000Y-41062000D01*
G04 #@! TO.C,C41*
X85040000Y-73763748D02*
X85040000Y-74286252D01*
X86460000Y-73763748D02*
X86460000Y-74286252D01*
G04 #@! TO.C,C42*
X92540000Y-74036252D02*
X92540000Y-73513748D01*
X93960000Y-74036252D02*
X93960000Y-73513748D01*
G04 #@! TO.C,L41*
X89839564Y-71910000D02*
X88635436Y-71910000D01*
X89839564Y-70090000D02*
X88635436Y-70090000D01*
G04 #@! TO.C,U5*
X78950000Y-43330000D02*
X78950000Y-40670000D01*
X63650000Y-43330000D02*
X78950000Y-43330000D01*
X63650000Y-40670000D02*
X78950000Y-40670000D01*
X63650000Y-43330000D02*
X63650000Y-40670000D01*
X62380000Y-43330000D02*
X61050000Y-43330000D01*
X61050000Y-43330000D02*
X61050000Y-42000000D01*
G04 #@! TO.C,U41*
X89950000Y-73090000D02*
X88050000Y-73090000D01*
X88550000Y-75410000D02*
X89950000Y-75410000D01*
G04 #@! TO.C,U2*
X82100000Y-72360000D02*
X83900000Y-72360000D01*
X83900000Y-69140000D02*
X81450000Y-69140000D01*
D13*
G04 #@! TO.C,J61*
X55500000Y-51050000D02*
X55500000Y-58950000D01*
X50000000Y-51050000D02*
X55500000Y-51050000D01*
X55500000Y-58950000D02*
X50000000Y-58950000D01*
X50000000Y-51050000D02*
X50000000Y-48500000D01*
X50000000Y-58950000D02*
X50000000Y-61500000D01*
D12*
G04 #@! TO.C,J11*
X59260000Y-77830000D02*
X59260000Y-81830000D01*
X59260000Y-81830000D02*
X58740000Y-81830000D01*
X58740000Y-81830000D02*
X58740000Y-77830000D01*
X59200000Y-77830000D02*
X59200000Y-81830000D01*
X59080000Y-77830000D02*
X59080000Y-81830000D01*
X58960000Y-77830000D02*
X58960000Y-81830000D01*
X58840000Y-77830000D02*
X58840000Y-81830000D01*
X57990000Y-77830000D02*
X57990000Y-81830000D01*
X57990000Y-81830000D02*
X57470000Y-81830000D01*
X57470000Y-81830000D02*
X57470000Y-77830000D01*
X56720000Y-77830000D02*
X56720000Y-81830000D01*
X56720000Y-81830000D02*
X56200000Y-81830000D01*
X56200000Y-81830000D02*
X56200000Y-77830000D01*
X55450000Y-77830000D02*
X55450000Y-81830000D01*
X55450000Y-81830000D02*
X54930000Y-81830000D01*
X54930000Y-81830000D02*
X54930000Y-77830000D01*
X54180000Y-77830000D02*
X54180000Y-81830000D01*
X54180000Y-81830000D02*
X53660000Y-81830000D01*
X53660000Y-81830000D02*
X53660000Y-77830000D01*
X59000000Y-74240000D02*
X59760000Y-74240000D01*
X59760000Y-74240000D02*
X59760000Y-75000000D01*
D13*
X62785000Y-77470000D02*
X50135000Y-77470000D01*
X62785000Y-77470000D02*
X62785000Y-83140000D01*
X62785000Y-83140000D02*
X50135000Y-83140000D01*
X50135000Y-77470000D02*
X50135000Y-83140000D01*
G04 #@! TO.C,J12*
X72135000Y-77470000D02*
X72135000Y-83140000D01*
X84785000Y-83140000D02*
X72135000Y-83140000D01*
X84785000Y-77470000D02*
X84785000Y-83140000D01*
X84785000Y-77470000D02*
X72135000Y-77470000D01*
D12*
X81760000Y-74240000D02*
X81760000Y-75000000D01*
X81000000Y-74240000D02*
X81760000Y-74240000D01*
X75660000Y-81830000D02*
X75660000Y-77830000D01*
X76180000Y-81830000D02*
X75660000Y-81830000D01*
X76180000Y-77830000D02*
X76180000Y-81830000D01*
X76930000Y-81830000D02*
X76930000Y-77830000D01*
X77450000Y-81830000D02*
X76930000Y-81830000D01*
X77450000Y-77830000D02*
X77450000Y-81830000D01*
X78200000Y-81830000D02*
X78200000Y-77830000D01*
X78720000Y-81830000D02*
X78200000Y-81830000D01*
X78720000Y-77830000D02*
X78720000Y-81830000D01*
X79470000Y-81830000D02*
X79470000Y-77830000D01*
X79990000Y-81830000D02*
X79470000Y-81830000D01*
X79990000Y-77830000D02*
X79990000Y-81830000D01*
X80840000Y-77830000D02*
X80840000Y-81830000D01*
X80960000Y-77830000D02*
X80960000Y-81830000D01*
X81080000Y-77830000D02*
X81080000Y-81830000D01*
X81200000Y-77830000D02*
X81200000Y-81830000D01*
X80740000Y-81830000D02*
X80740000Y-77830000D01*
X81260000Y-81830000D02*
X80740000Y-81830000D01*
X81260000Y-77830000D02*
X81260000Y-81830000D01*
G04 #@! TD*
G04 #@! TO.C,J13*
D13*
X60150476Y-73747380D02*
X60150476Y-74461666D01*
X60102857Y-74604523D01*
X60007619Y-74699761D01*
X59864761Y-74747380D01*
X59769523Y-74747380D01*
X61150476Y-74747380D02*
X60579047Y-74747380D01*
X60864761Y-74747380D02*
X60864761Y-73747380D01*
X60769523Y-73890238D01*
X60674285Y-73985476D01*
X60579047Y-74033095D01*
X61483809Y-73747380D02*
X62102857Y-73747380D01*
X61769523Y-74128333D01*
X61912380Y-74128333D01*
X62007619Y-74175952D01*
X62055238Y-74223571D01*
X62102857Y-74318809D01*
X62102857Y-74556904D01*
X62055238Y-74652142D01*
X62007619Y-74699761D01*
X61912380Y-74747380D01*
X61626666Y-74747380D01*
X61531428Y-74699761D01*
X61483809Y-74652142D01*
G04 #@! TO.C,R41*
X84970380Y-74460857D02*
X84494190Y-74794190D01*
X84970380Y-75032285D02*
X83970380Y-75032285D01*
X83970380Y-74651333D01*
X84018000Y-74556095D01*
X84065619Y-74508476D01*
X84160857Y-74460857D01*
X84303714Y-74460857D01*
X84398952Y-74508476D01*
X84446571Y-74556095D01*
X84494190Y-74651333D01*
X84494190Y-75032285D01*
X84303714Y-73603714D02*
X84970380Y-73603714D01*
X83922761Y-73841809D02*
X84637047Y-74079904D01*
X84637047Y-73460857D01*
X84970380Y-72556095D02*
X84970380Y-73127523D01*
X84970380Y-72841809D02*
X83970380Y-72841809D01*
X84113238Y-72937047D01*
X84208476Y-73032285D01*
X84256095Y-73127523D01*
G04 #@! TO.C,Y11*
X91416190Y-56082380D02*
X91892380Y-56082380D01*
X90892380Y-56415714D02*
X91416190Y-56082380D01*
X90892380Y-55749047D01*
X91892380Y-54891904D02*
X91892380Y-55463333D01*
X91892380Y-55177619D02*
X90892380Y-55177619D01*
X91035238Y-55272857D01*
X91130476Y-55368095D01*
X91178095Y-55463333D01*
X91892380Y-53939523D02*
X91892380Y-54510952D01*
X91892380Y-54225238D02*
X90892380Y-54225238D01*
X91035238Y-54320476D01*
X91130476Y-54415714D01*
X91178095Y-54510952D01*
G04 #@! TO.C,C11*
X82653142Y-55506857D02*
X82700761Y-55554476D01*
X82748380Y-55697333D01*
X82748380Y-55792571D01*
X82700761Y-55935428D01*
X82605523Y-56030666D01*
X82510285Y-56078285D01*
X82319809Y-56125904D01*
X82176952Y-56125904D01*
X81986476Y-56078285D01*
X81891238Y-56030666D01*
X81796000Y-55935428D01*
X81748380Y-55792571D01*
X81748380Y-55697333D01*
X81796000Y-55554476D01*
X81843619Y-55506857D01*
X82748380Y-54554476D02*
X82748380Y-55125904D01*
X82748380Y-54840190D02*
X81748380Y-54840190D01*
X81891238Y-54935428D01*
X81986476Y-55030666D01*
X82034095Y-55125904D01*
X82748380Y-53602095D02*
X82748380Y-54173523D01*
X82748380Y-53887809D02*
X81748380Y-53887809D01*
X81891238Y-53983047D01*
X81986476Y-54078285D01*
X82034095Y-54173523D01*
G04 #@! TO.C,C12*
X86083142Y-55506857D02*
X86130761Y-55554476D01*
X86178380Y-55697333D01*
X86178380Y-55792571D01*
X86130761Y-55935428D01*
X86035523Y-56030666D01*
X85940285Y-56078285D01*
X85749809Y-56125904D01*
X85606952Y-56125904D01*
X85416476Y-56078285D01*
X85321238Y-56030666D01*
X85226000Y-55935428D01*
X85178380Y-55792571D01*
X85178380Y-55697333D01*
X85226000Y-55554476D01*
X85273619Y-55506857D01*
X86178380Y-54554476D02*
X86178380Y-55125904D01*
X86178380Y-54840190D02*
X85178380Y-54840190D01*
X85321238Y-54935428D01*
X85416476Y-55030666D01*
X85464095Y-55125904D01*
X85273619Y-54173523D02*
X85226000Y-54125904D01*
X85178380Y-54030666D01*
X85178380Y-53792571D01*
X85226000Y-53697333D01*
X85273619Y-53649714D01*
X85368857Y-53602095D01*
X85464095Y-53602095D01*
X85606952Y-53649714D01*
X86178380Y-54221142D01*
X86178380Y-53602095D01*
G04 #@! TO.C,C16*
X69452142Y-45951142D02*
X69404523Y-45998761D01*
X69261666Y-46046380D01*
X69166428Y-46046380D01*
X69023571Y-45998761D01*
X68928333Y-45903523D01*
X68880714Y-45808285D01*
X68833095Y-45617809D01*
X68833095Y-45474952D01*
X68880714Y-45284476D01*
X68928333Y-45189238D01*
X69023571Y-45094000D01*
X69166428Y-45046380D01*
X69261666Y-45046380D01*
X69404523Y-45094000D01*
X69452142Y-45141619D01*
X70404523Y-46046380D02*
X69833095Y-46046380D01*
X70118809Y-46046380D02*
X70118809Y-45046380D01*
X70023571Y-45189238D01*
X69928333Y-45284476D01*
X69833095Y-45332095D01*
X71261666Y-45046380D02*
X71071190Y-45046380D01*
X70975952Y-45094000D01*
X70928333Y-45141619D01*
X70833095Y-45284476D01*
X70785476Y-45474952D01*
X70785476Y-45855904D01*
X70833095Y-45951142D01*
X70880714Y-45998761D01*
X70975952Y-46046380D01*
X71166428Y-46046380D01*
X71261666Y-45998761D01*
X71309285Y-45951142D01*
X71356904Y-45855904D01*
X71356904Y-45617809D01*
X71309285Y-45522571D01*
X71261666Y-45474952D01*
X71166428Y-45427333D01*
X70975952Y-45427333D01*
X70880714Y-45474952D01*
X70833095Y-45522571D01*
X70785476Y-45617809D01*
G04 #@! TO.C,C17*
X79351142Y-51941857D02*
X79398761Y-51989476D01*
X79446380Y-52132333D01*
X79446380Y-52227571D01*
X79398761Y-52370428D01*
X79303523Y-52465666D01*
X79208285Y-52513285D01*
X79017809Y-52560904D01*
X78874952Y-52560904D01*
X78684476Y-52513285D01*
X78589238Y-52465666D01*
X78494000Y-52370428D01*
X78446380Y-52227571D01*
X78446380Y-52132333D01*
X78494000Y-51989476D01*
X78541619Y-51941857D01*
X79446380Y-50989476D02*
X79446380Y-51560904D01*
X79446380Y-51275190D02*
X78446380Y-51275190D01*
X78589238Y-51370428D01*
X78684476Y-51465666D01*
X78732095Y-51560904D01*
X78446380Y-50656142D02*
X78446380Y-49989476D01*
X79446380Y-50418047D01*
G04 #@! TO.C,C18*
X65660142Y-59919142D02*
X65612523Y-59966761D01*
X65469666Y-60014380D01*
X65374428Y-60014380D01*
X65231571Y-59966761D01*
X65136333Y-59871523D01*
X65088714Y-59776285D01*
X65041095Y-59585809D01*
X65041095Y-59442952D01*
X65088714Y-59252476D01*
X65136333Y-59157238D01*
X65231571Y-59062000D01*
X65374428Y-59014380D01*
X65469666Y-59014380D01*
X65612523Y-59062000D01*
X65660142Y-59109619D01*
X66612523Y-60014380D02*
X66041095Y-60014380D01*
X66326809Y-60014380D02*
X66326809Y-59014380D01*
X66231571Y-59157238D01*
X66136333Y-59252476D01*
X66041095Y-59300095D01*
X67183952Y-59442952D02*
X67088714Y-59395333D01*
X67041095Y-59347714D01*
X66993476Y-59252476D01*
X66993476Y-59204857D01*
X67041095Y-59109619D01*
X67088714Y-59062000D01*
X67183952Y-59014380D01*
X67374428Y-59014380D01*
X67469666Y-59062000D01*
X67517285Y-59109619D01*
X67564904Y-59204857D01*
X67564904Y-59252476D01*
X67517285Y-59347714D01*
X67469666Y-59395333D01*
X67374428Y-59442952D01*
X67183952Y-59442952D01*
X67088714Y-59490571D01*
X67041095Y-59538190D01*
X66993476Y-59633428D01*
X66993476Y-59823904D01*
X67041095Y-59919142D01*
X67088714Y-59966761D01*
X67183952Y-60014380D01*
X67374428Y-60014380D01*
X67469666Y-59966761D01*
X67517285Y-59919142D01*
X67564904Y-59823904D01*
X67564904Y-59633428D01*
X67517285Y-59538190D01*
X67469666Y-59490571D01*
X67374428Y-59442952D01*
G04 #@! TO.C,C19*
X78081142Y-59570857D02*
X78128761Y-59618476D01*
X78176380Y-59761333D01*
X78176380Y-59856571D01*
X78128761Y-59999428D01*
X78033523Y-60094666D01*
X77938285Y-60142285D01*
X77747809Y-60189904D01*
X77604952Y-60189904D01*
X77414476Y-60142285D01*
X77319238Y-60094666D01*
X77224000Y-59999428D01*
X77176380Y-59856571D01*
X77176380Y-59761333D01*
X77224000Y-59618476D01*
X77271619Y-59570857D01*
X78176380Y-58618476D02*
X78176380Y-59189904D01*
X78176380Y-58904190D02*
X77176380Y-58904190D01*
X77319238Y-58999428D01*
X77414476Y-59094666D01*
X77462095Y-59189904D01*
X78176380Y-58142285D02*
X78176380Y-57951809D01*
X78128761Y-57856571D01*
X78081142Y-57808952D01*
X77938285Y-57713714D01*
X77747809Y-57666095D01*
X77366857Y-57666095D01*
X77271619Y-57713714D01*
X77224000Y-57761333D01*
X77176380Y-57856571D01*
X77176380Y-58047047D01*
X77224000Y-58142285D01*
X77271619Y-58189904D01*
X77366857Y-58237523D01*
X77604952Y-58237523D01*
X77700190Y-58189904D01*
X77747809Y-58142285D01*
X77795428Y-58047047D01*
X77795428Y-57856571D01*
X77747809Y-57761333D01*
X77700190Y-57713714D01*
X77604952Y-57666095D01*
G04 #@! TO.C,C31*
X89527142Y-47392857D02*
X89574761Y-47440476D01*
X89622380Y-47583333D01*
X89622380Y-47678571D01*
X89574761Y-47821428D01*
X89479523Y-47916666D01*
X89384285Y-47964285D01*
X89193809Y-48011904D01*
X89050952Y-48011904D01*
X88860476Y-47964285D01*
X88765238Y-47916666D01*
X88670000Y-47821428D01*
X88622380Y-47678571D01*
X88622380Y-47583333D01*
X88670000Y-47440476D01*
X88717619Y-47392857D01*
X88622380Y-47059523D02*
X88622380Y-46440476D01*
X89003333Y-46773809D01*
X89003333Y-46630952D01*
X89050952Y-46535714D01*
X89098571Y-46488095D01*
X89193809Y-46440476D01*
X89431904Y-46440476D01*
X89527142Y-46488095D01*
X89574761Y-46535714D01*
X89622380Y-46630952D01*
X89622380Y-46916666D01*
X89574761Y-47011904D01*
X89527142Y-47059523D01*
X89622380Y-45488095D02*
X89622380Y-46059523D01*
X89622380Y-45773809D02*
X88622380Y-45773809D01*
X88765238Y-45869047D01*
X88860476Y-45964285D01*
X88908095Y-46059523D01*
G04 #@! TO.C,C32*
X79017142Y-47542857D02*
X79064761Y-47590476D01*
X79112380Y-47733333D01*
X79112380Y-47828571D01*
X79064761Y-47971428D01*
X78969523Y-48066666D01*
X78874285Y-48114285D01*
X78683809Y-48161904D01*
X78540952Y-48161904D01*
X78350476Y-48114285D01*
X78255238Y-48066666D01*
X78160000Y-47971428D01*
X78112380Y-47828571D01*
X78112380Y-47733333D01*
X78160000Y-47590476D01*
X78207619Y-47542857D01*
X78112380Y-47209523D02*
X78112380Y-46590476D01*
X78493333Y-46923809D01*
X78493333Y-46780952D01*
X78540952Y-46685714D01*
X78588571Y-46638095D01*
X78683809Y-46590476D01*
X78921904Y-46590476D01*
X79017142Y-46638095D01*
X79064761Y-46685714D01*
X79112380Y-46780952D01*
X79112380Y-47066666D01*
X79064761Y-47161904D01*
X79017142Y-47209523D01*
X78207619Y-46209523D02*
X78160000Y-46161904D01*
X78112380Y-46066666D01*
X78112380Y-45828571D01*
X78160000Y-45733333D01*
X78207619Y-45685714D01*
X78302857Y-45638095D01*
X78398095Y-45638095D01*
X78540952Y-45685714D01*
X79112380Y-46257142D01*
X79112380Y-45638095D01*
G04 #@! TO.C,C33*
X89497142Y-43322857D02*
X89544761Y-43370476D01*
X89592380Y-43513333D01*
X89592380Y-43608571D01*
X89544761Y-43751428D01*
X89449523Y-43846666D01*
X89354285Y-43894285D01*
X89163809Y-43941904D01*
X89020952Y-43941904D01*
X88830476Y-43894285D01*
X88735238Y-43846666D01*
X88640000Y-43751428D01*
X88592380Y-43608571D01*
X88592380Y-43513333D01*
X88640000Y-43370476D01*
X88687619Y-43322857D01*
X88592380Y-42989523D02*
X88592380Y-42370476D01*
X88973333Y-42703809D01*
X88973333Y-42560952D01*
X89020952Y-42465714D01*
X89068571Y-42418095D01*
X89163809Y-42370476D01*
X89401904Y-42370476D01*
X89497142Y-42418095D01*
X89544761Y-42465714D01*
X89592380Y-42560952D01*
X89592380Y-42846666D01*
X89544761Y-42941904D01*
X89497142Y-42989523D01*
X88592380Y-42037142D02*
X88592380Y-41418095D01*
X88973333Y-41751428D01*
X88973333Y-41608571D01*
X89020952Y-41513333D01*
X89068571Y-41465714D01*
X89163809Y-41418095D01*
X89401904Y-41418095D01*
X89497142Y-41465714D01*
X89544761Y-41513333D01*
X89592380Y-41608571D01*
X89592380Y-41894285D01*
X89544761Y-41989523D01*
X89497142Y-42037142D01*
G04 #@! TO.C,C34*
X79087142Y-44682857D02*
X79134761Y-44730476D01*
X79182380Y-44873333D01*
X79182380Y-44968571D01*
X79134761Y-45111428D01*
X79039523Y-45206666D01*
X78944285Y-45254285D01*
X78753809Y-45301904D01*
X78610952Y-45301904D01*
X78420476Y-45254285D01*
X78325238Y-45206666D01*
X78230000Y-45111428D01*
X78182380Y-44968571D01*
X78182380Y-44873333D01*
X78230000Y-44730476D01*
X78277619Y-44682857D01*
X78182380Y-44349523D02*
X78182380Y-43730476D01*
X78563333Y-44063809D01*
X78563333Y-43920952D01*
X78610952Y-43825714D01*
X78658571Y-43778095D01*
X78753809Y-43730476D01*
X78991904Y-43730476D01*
X79087142Y-43778095D01*
X79134761Y-43825714D01*
X79182380Y-43920952D01*
X79182380Y-44206666D01*
X79134761Y-44301904D01*
X79087142Y-44349523D01*
X78515714Y-42873333D02*
X79182380Y-42873333D01*
X78134761Y-43111428D02*
X78849047Y-43349523D01*
X78849047Y-42730476D01*
G04 #@! TO.C,C71*
X90806142Y-63983142D02*
X90758523Y-64030761D01*
X90615666Y-64078380D01*
X90520428Y-64078380D01*
X90377571Y-64030761D01*
X90282333Y-63935523D01*
X90234714Y-63840285D01*
X90187095Y-63649809D01*
X90187095Y-63506952D01*
X90234714Y-63316476D01*
X90282333Y-63221238D01*
X90377571Y-63126000D01*
X90520428Y-63078380D01*
X90615666Y-63078380D01*
X90758523Y-63126000D01*
X90806142Y-63173619D01*
X91139476Y-63078380D02*
X91806142Y-63078380D01*
X91377571Y-64078380D01*
X92710904Y-64078380D02*
X92139476Y-64078380D01*
X92425190Y-64078380D02*
X92425190Y-63078380D01*
X92329952Y-63221238D01*
X92234714Y-63316476D01*
X92139476Y-63364095D01*
G04 #@! TO.C,D1*
X64587380Y-67888095D02*
X63587380Y-67888095D01*
X63587380Y-67650000D01*
X63635000Y-67507142D01*
X63730238Y-67411904D01*
X63825476Y-67364285D01*
X64015952Y-67316666D01*
X64158809Y-67316666D01*
X64349285Y-67364285D01*
X64444523Y-67411904D01*
X64539761Y-67507142D01*
X64587380Y-67650000D01*
X64587380Y-67888095D01*
X64587380Y-66364285D02*
X64587380Y-66935714D01*
X64587380Y-66650000D02*
X63587380Y-66650000D01*
X63730238Y-66745238D01*
X63825476Y-66840476D01*
X63873095Y-66935714D01*
G04 #@! TO.C,D2*
X68397380Y-67888095D02*
X67397380Y-67888095D01*
X67397380Y-67650000D01*
X67445000Y-67507142D01*
X67540238Y-67411904D01*
X67635476Y-67364285D01*
X67825952Y-67316666D01*
X67968809Y-67316666D01*
X68159285Y-67364285D01*
X68254523Y-67411904D01*
X68349761Y-67507142D01*
X68397380Y-67650000D01*
X68397380Y-67888095D01*
X67492619Y-66935714D02*
X67445000Y-66888095D01*
X67397380Y-66792857D01*
X67397380Y-66554761D01*
X67445000Y-66459523D01*
X67492619Y-66411904D01*
X67587857Y-66364285D01*
X67683095Y-66364285D01*
X67825952Y-66411904D01*
X68397380Y-66983333D01*
X68397380Y-66364285D01*
G04 #@! TO.C,D3*
X95922380Y-80008095D02*
X94922380Y-80008095D01*
X94922380Y-79770000D01*
X94970000Y-79627142D01*
X95065238Y-79531904D01*
X95160476Y-79484285D01*
X95350952Y-79436666D01*
X95493809Y-79436666D01*
X95684285Y-79484285D01*
X95779523Y-79531904D01*
X95874761Y-79627142D01*
X95922380Y-79770000D01*
X95922380Y-80008095D01*
X94922380Y-79103333D02*
X94922380Y-78484285D01*
X95303333Y-78817619D01*
X95303333Y-78674761D01*
X95350952Y-78579523D01*
X95398571Y-78531904D01*
X95493809Y-78484285D01*
X95731904Y-78484285D01*
X95827142Y-78531904D01*
X95874761Y-78579523D01*
X95922380Y-78674761D01*
X95922380Y-78960476D01*
X95874761Y-79055714D01*
X95827142Y-79103333D01*
G04 #@! TO.C,D4*
X99141904Y-77122380D02*
X99141904Y-76122380D01*
X99380000Y-76122380D01*
X99522857Y-76170000D01*
X99618095Y-76265238D01*
X99665714Y-76360476D01*
X99713333Y-76550952D01*
X99713333Y-76693809D01*
X99665714Y-76884285D01*
X99618095Y-76979523D01*
X99522857Y-77074761D01*
X99380000Y-77122380D01*
X99141904Y-77122380D01*
X100570476Y-76455714D02*
X100570476Y-77122380D01*
X100332380Y-76074761D02*
X100094285Y-76789047D01*
X100713333Y-76789047D01*
G04 #@! TO.C,D5*
X104812380Y-80228095D02*
X103812380Y-80228095D01*
X103812380Y-79990000D01*
X103860000Y-79847142D01*
X103955238Y-79751904D01*
X104050476Y-79704285D01*
X104240952Y-79656666D01*
X104383809Y-79656666D01*
X104574285Y-79704285D01*
X104669523Y-79751904D01*
X104764761Y-79847142D01*
X104812380Y-79990000D01*
X104812380Y-80228095D01*
X103812380Y-78751904D02*
X103812380Y-79228095D01*
X104288571Y-79275714D01*
X104240952Y-79228095D01*
X104193333Y-79132857D01*
X104193333Y-78894761D01*
X104240952Y-78799523D01*
X104288571Y-78751904D01*
X104383809Y-78704285D01*
X104621904Y-78704285D01*
X104717142Y-78751904D01*
X104764761Y-78799523D01*
X104812380Y-78894761D01*
X104812380Y-79132857D01*
X104764761Y-79228095D01*
X104717142Y-79275714D01*
G04 #@! TO.C,D11*
X77200380Y-63190285D02*
X76200380Y-63190285D01*
X76200380Y-62952190D01*
X76248000Y-62809333D01*
X76343238Y-62714095D01*
X76438476Y-62666476D01*
X76628952Y-62618857D01*
X76771809Y-62618857D01*
X76962285Y-62666476D01*
X77057523Y-62714095D01*
X77152761Y-62809333D01*
X77200380Y-62952190D01*
X77200380Y-63190285D01*
X77200380Y-61666476D02*
X77200380Y-62237904D01*
X77200380Y-61952190D02*
X76200380Y-61952190D01*
X76343238Y-62047428D01*
X76438476Y-62142666D01*
X76486095Y-62237904D01*
X77200380Y-60714095D02*
X77200380Y-61285523D01*
X77200380Y-60999809D02*
X76200380Y-60999809D01*
X76343238Y-61095047D01*
X76438476Y-61190285D01*
X76486095Y-61285523D01*
G04 #@! TO.C,F11*
X90764476Y-78628571D02*
X90431142Y-78628571D01*
X90431142Y-79152380D02*
X90431142Y-78152380D01*
X90907333Y-78152380D01*
X91812095Y-79152380D02*
X91240666Y-79152380D01*
X91526380Y-79152380D02*
X91526380Y-78152380D01*
X91431142Y-78295238D01*
X91335904Y-78390476D01*
X91240666Y-78438095D01*
X92764476Y-79152380D02*
X92193047Y-79152380D01*
X92478761Y-79152380D02*
X92478761Y-78152380D01*
X92383523Y-78295238D01*
X92288285Y-78390476D01*
X92193047Y-78438095D01*
G04 #@! TO.C,F12*
X90752976Y-76428571D02*
X90419642Y-76428571D01*
X90419642Y-76952380D02*
X90419642Y-75952380D01*
X90895833Y-75952380D01*
X91800595Y-76952380D02*
X91229166Y-76952380D01*
X91514880Y-76952380D02*
X91514880Y-75952380D01*
X91419642Y-76095238D01*
X91324404Y-76190476D01*
X91229166Y-76238095D01*
X92181547Y-76047619D02*
X92229166Y-76000000D01*
X92324404Y-75952380D01*
X92562500Y-75952380D01*
X92657738Y-76000000D01*
X92705357Y-76047619D01*
X92752976Y-76142857D01*
X92752976Y-76238095D01*
X92705357Y-76380952D01*
X92133928Y-76952380D01*
X92752976Y-76952380D01*
G04 #@! TO.C,J71*
X104402380Y-61769523D02*
X105116666Y-61769523D01*
X105259523Y-61817142D01*
X105354761Y-61912380D01*
X105402380Y-62055238D01*
X105402380Y-62150476D01*
X104402380Y-61388571D02*
X104402380Y-60721904D01*
X105402380Y-61150476D01*
X105402380Y-59817142D02*
X105402380Y-60388571D01*
X105402380Y-60102857D02*
X104402380Y-60102857D01*
X104545238Y-60198095D01*
X104640476Y-60293333D01*
X104688095Y-60388571D01*
G04 #@! TO.C,R12*
X108020380Y-74556857D02*
X107544190Y-74890190D01*
X108020380Y-75128285D02*
X107020380Y-75128285D01*
X107020380Y-74747333D01*
X107068000Y-74652095D01*
X107115619Y-74604476D01*
X107210857Y-74556857D01*
X107353714Y-74556857D01*
X107448952Y-74604476D01*
X107496571Y-74652095D01*
X107544190Y-74747333D01*
X107544190Y-75128285D01*
X108020380Y-73604476D02*
X108020380Y-74175904D01*
X108020380Y-73890190D02*
X107020380Y-73890190D01*
X107163238Y-73985428D01*
X107258476Y-74080666D01*
X107306095Y-74175904D01*
X107115619Y-73223523D02*
X107068000Y-73175904D01*
X107020380Y-73080666D01*
X107020380Y-72842571D01*
X107068000Y-72747333D01*
X107115619Y-72699714D01*
X107210857Y-72652095D01*
X107306095Y-72652095D01*
X107448952Y-72699714D01*
X108020380Y-73271142D01*
X108020380Y-72652095D01*
G04 #@! TO.C,R15*
X82272380Y-66932857D02*
X81796190Y-67266190D01*
X82272380Y-67504285D02*
X81272380Y-67504285D01*
X81272380Y-67123333D01*
X81320000Y-67028095D01*
X81367619Y-66980476D01*
X81462857Y-66932857D01*
X81605714Y-66932857D01*
X81700952Y-66980476D01*
X81748571Y-67028095D01*
X81796190Y-67123333D01*
X81796190Y-67504285D01*
X82272380Y-65980476D02*
X82272380Y-66551904D01*
X82272380Y-66266190D02*
X81272380Y-66266190D01*
X81415238Y-66361428D01*
X81510476Y-66456666D01*
X81558095Y-66551904D01*
X81272380Y-65075714D02*
X81272380Y-65551904D01*
X81748571Y-65599523D01*
X81700952Y-65551904D01*
X81653333Y-65456666D01*
X81653333Y-65218571D01*
X81700952Y-65123333D01*
X81748571Y-65075714D01*
X81843809Y-65028095D01*
X82081904Y-65028095D01*
X82177142Y-65075714D01*
X82224761Y-65123333D01*
X82272380Y-65218571D01*
X82272380Y-65456666D01*
X82224761Y-65551904D01*
X82177142Y-65599523D01*
G04 #@! TO.C,R16*
X77222380Y-66912857D02*
X76746190Y-67246190D01*
X77222380Y-67484285D02*
X76222380Y-67484285D01*
X76222380Y-67103333D01*
X76270000Y-67008095D01*
X76317619Y-66960476D01*
X76412857Y-66912857D01*
X76555714Y-66912857D01*
X76650952Y-66960476D01*
X76698571Y-67008095D01*
X76746190Y-67103333D01*
X76746190Y-67484285D01*
X77222380Y-65960476D02*
X77222380Y-66531904D01*
X77222380Y-66246190D02*
X76222380Y-66246190D01*
X76365238Y-66341428D01*
X76460476Y-66436666D01*
X76508095Y-66531904D01*
X76222380Y-65103333D02*
X76222380Y-65293809D01*
X76270000Y-65389047D01*
X76317619Y-65436666D01*
X76460476Y-65531904D01*
X76650952Y-65579523D01*
X77031904Y-65579523D01*
X77127142Y-65531904D01*
X77174761Y-65484285D01*
X77222380Y-65389047D01*
X77222380Y-65198571D01*
X77174761Y-65103333D01*
X77127142Y-65055714D01*
X77031904Y-65008095D01*
X76793809Y-65008095D01*
X76698571Y-65055714D01*
X76650952Y-65103333D01*
X76603333Y-65198571D01*
X76603333Y-65389047D01*
X76650952Y-65484285D01*
X76698571Y-65531904D01*
X76793809Y-65579523D01*
G04 #@! TO.C,R21*
X51155142Y-48204380D02*
X50821809Y-47728190D01*
X50583714Y-48204380D02*
X50583714Y-47204380D01*
X50964666Y-47204380D01*
X51059904Y-47252000D01*
X51107523Y-47299619D01*
X51155142Y-47394857D01*
X51155142Y-47537714D01*
X51107523Y-47632952D01*
X51059904Y-47680571D01*
X50964666Y-47728190D01*
X50583714Y-47728190D01*
X51536095Y-47299619D02*
X51583714Y-47252000D01*
X51678952Y-47204380D01*
X51917047Y-47204380D01*
X52012285Y-47252000D01*
X52059904Y-47299619D01*
X52107523Y-47394857D01*
X52107523Y-47490095D01*
X52059904Y-47632952D01*
X51488476Y-48204380D01*
X52107523Y-48204380D01*
X53059904Y-48204380D02*
X52488476Y-48204380D01*
X52774190Y-48204380D02*
X52774190Y-47204380D01*
X52678952Y-47347238D01*
X52583714Y-47442476D01*
X52488476Y-47490095D01*
G04 #@! TO.C,R62*
X60082142Y-52552380D02*
X59748809Y-52076190D01*
X59510714Y-52552380D02*
X59510714Y-51552380D01*
X59891666Y-51552380D01*
X59986904Y-51600000D01*
X60034523Y-51647619D01*
X60082142Y-51742857D01*
X60082142Y-51885714D01*
X60034523Y-51980952D01*
X59986904Y-52028571D01*
X59891666Y-52076190D01*
X59510714Y-52076190D01*
X60939285Y-51552380D02*
X60748809Y-51552380D01*
X60653571Y-51600000D01*
X60605952Y-51647619D01*
X60510714Y-51790476D01*
X60463095Y-51980952D01*
X60463095Y-52361904D01*
X60510714Y-52457142D01*
X60558333Y-52504761D01*
X60653571Y-52552380D01*
X60844047Y-52552380D01*
X60939285Y-52504761D01*
X60986904Y-52457142D01*
X61034523Y-52361904D01*
X61034523Y-52123809D01*
X60986904Y-52028571D01*
X60939285Y-51980952D01*
X60844047Y-51933333D01*
X60653571Y-51933333D01*
X60558333Y-51980952D01*
X60510714Y-52028571D01*
X60463095Y-52123809D01*
X61415476Y-51647619D02*
X61463095Y-51600000D01*
X61558333Y-51552380D01*
X61796428Y-51552380D01*
X61891666Y-51600000D01*
X61939285Y-51647619D01*
X61986904Y-51742857D01*
X61986904Y-51838095D01*
X61939285Y-51980952D01*
X61367857Y-52552380D01*
X61986904Y-52552380D01*
G04 #@! TO.C,R63*
X60082142Y-59602380D02*
X59748809Y-59126190D01*
X59510714Y-59602380D02*
X59510714Y-58602380D01*
X59891666Y-58602380D01*
X59986904Y-58650000D01*
X60034523Y-58697619D01*
X60082142Y-58792857D01*
X60082142Y-58935714D01*
X60034523Y-59030952D01*
X59986904Y-59078571D01*
X59891666Y-59126190D01*
X59510714Y-59126190D01*
X60939285Y-58602380D02*
X60748809Y-58602380D01*
X60653571Y-58650000D01*
X60605952Y-58697619D01*
X60510714Y-58840476D01*
X60463095Y-59030952D01*
X60463095Y-59411904D01*
X60510714Y-59507142D01*
X60558333Y-59554761D01*
X60653571Y-59602380D01*
X60844047Y-59602380D01*
X60939285Y-59554761D01*
X60986904Y-59507142D01*
X61034523Y-59411904D01*
X61034523Y-59173809D01*
X60986904Y-59078571D01*
X60939285Y-59030952D01*
X60844047Y-58983333D01*
X60653571Y-58983333D01*
X60558333Y-59030952D01*
X60510714Y-59078571D01*
X60463095Y-59173809D01*
X61367857Y-58602380D02*
X61986904Y-58602380D01*
X61653571Y-58983333D01*
X61796428Y-58983333D01*
X61891666Y-59030952D01*
X61939285Y-59078571D01*
X61986904Y-59173809D01*
X61986904Y-59411904D01*
X61939285Y-59507142D01*
X61891666Y-59554761D01*
X61796428Y-59602380D01*
X61510714Y-59602380D01*
X61415476Y-59554761D01*
X61367857Y-59507142D01*
G04 #@! TO.C,RN1*
X83069523Y-66192380D02*
X82736190Y-65716190D01*
X82498095Y-66192380D02*
X82498095Y-65192380D01*
X82879047Y-65192380D01*
X82974285Y-65240000D01*
X83021904Y-65287619D01*
X83069523Y-65382857D01*
X83069523Y-65525714D01*
X83021904Y-65620952D01*
X82974285Y-65668571D01*
X82879047Y-65716190D01*
X82498095Y-65716190D01*
X83498095Y-66192380D02*
X83498095Y-65192380D01*
X84069523Y-66192380D01*
X84069523Y-65192380D01*
X85069523Y-66192380D02*
X84498095Y-66192380D01*
X84783809Y-66192380D02*
X84783809Y-65192380D01*
X84688571Y-65335238D01*
X84593333Y-65430476D01*
X84498095Y-65478095D01*
G04 #@! TO.C,RN11*
X70693333Y-73022380D02*
X70360000Y-72546190D01*
X70121904Y-73022380D02*
X70121904Y-72022380D01*
X70502857Y-72022380D01*
X70598095Y-72070000D01*
X70645714Y-72117619D01*
X70693333Y-72212857D01*
X70693333Y-72355714D01*
X70645714Y-72450952D01*
X70598095Y-72498571D01*
X70502857Y-72546190D01*
X70121904Y-72546190D01*
X71121904Y-73022380D02*
X71121904Y-72022380D01*
X71693333Y-73022380D01*
X71693333Y-72022380D01*
X72693333Y-73022380D02*
X72121904Y-73022380D01*
X72407619Y-73022380D02*
X72407619Y-72022380D01*
X72312380Y-72165238D01*
X72217142Y-72260476D01*
X72121904Y-72308095D01*
X73645714Y-73022380D02*
X73074285Y-73022380D01*
X73360000Y-73022380D02*
X73360000Y-72022380D01*
X73264761Y-72165238D01*
X73169523Y-72260476D01*
X73074285Y-72308095D01*
G04 #@! TO.C,RN12*
X74693333Y-73082380D02*
X74360000Y-72606190D01*
X74121904Y-73082380D02*
X74121904Y-72082380D01*
X74502857Y-72082380D01*
X74598095Y-72130000D01*
X74645714Y-72177619D01*
X74693333Y-72272857D01*
X74693333Y-72415714D01*
X74645714Y-72510952D01*
X74598095Y-72558571D01*
X74502857Y-72606190D01*
X74121904Y-72606190D01*
X75121904Y-73082380D02*
X75121904Y-72082380D01*
X75693333Y-73082380D01*
X75693333Y-72082380D01*
X76693333Y-73082380D02*
X76121904Y-73082380D01*
X76407619Y-73082380D02*
X76407619Y-72082380D01*
X76312380Y-72225238D01*
X76217142Y-72320476D01*
X76121904Y-72368095D01*
X77074285Y-72177619D02*
X77121904Y-72130000D01*
X77217142Y-72082380D01*
X77455238Y-72082380D01*
X77550476Y-72130000D01*
X77598095Y-72177619D01*
X77645714Y-72272857D01*
X77645714Y-72368095D01*
X77598095Y-72510952D01*
X77026666Y-73082380D01*
X77645714Y-73082380D01*
G04 #@! TO.C,SW11*
X97960476Y-41584761D02*
X98103333Y-41632380D01*
X98341428Y-41632380D01*
X98436666Y-41584761D01*
X98484285Y-41537142D01*
X98531904Y-41441904D01*
X98531904Y-41346666D01*
X98484285Y-41251428D01*
X98436666Y-41203809D01*
X98341428Y-41156190D01*
X98150952Y-41108571D01*
X98055714Y-41060952D01*
X98008095Y-41013333D01*
X97960476Y-40918095D01*
X97960476Y-40822857D01*
X98008095Y-40727619D01*
X98055714Y-40680000D01*
X98150952Y-40632380D01*
X98389047Y-40632380D01*
X98531904Y-40680000D01*
X98865238Y-40632380D02*
X99103333Y-41632380D01*
X99293809Y-40918095D01*
X99484285Y-41632380D01*
X99722380Y-40632380D01*
X100627142Y-41632380D02*
X100055714Y-41632380D01*
X100341428Y-41632380D02*
X100341428Y-40632380D01*
X100246190Y-40775238D01*
X100150952Y-40870476D01*
X100055714Y-40918095D01*
X101579523Y-41632380D02*
X101008095Y-41632380D01*
X101293809Y-41632380D02*
X101293809Y-40632380D01*
X101198571Y-40775238D01*
X101103333Y-40870476D01*
X101008095Y-40918095D01*
G04 #@! TO.C,SW12*
X97950476Y-74104761D02*
X98093333Y-74152380D01*
X98331428Y-74152380D01*
X98426666Y-74104761D01*
X98474285Y-74057142D01*
X98521904Y-73961904D01*
X98521904Y-73866666D01*
X98474285Y-73771428D01*
X98426666Y-73723809D01*
X98331428Y-73676190D01*
X98140952Y-73628571D01*
X98045714Y-73580952D01*
X97998095Y-73533333D01*
X97950476Y-73438095D01*
X97950476Y-73342857D01*
X97998095Y-73247619D01*
X98045714Y-73200000D01*
X98140952Y-73152380D01*
X98379047Y-73152380D01*
X98521904Y-73200000D01*
X98855238Y-73152380D02*
X99093333Y-74152380D01*
X99283809Y-73438095D01*
X99474285Y-74152380D01*
X99712380Y-73152380D01*
X100617142Y-74152380D02*
X100045714Y-74152380D01*
X100331428Y-74152380D02*
X100331428Y-73152380D01*
X100236190Y-73295238D01*
X100140952Y-73390476D01*
X100045714Y-73438095D01*
X100998095Y-73247619D02*
X101045714Y-73200000D01*
X101140952Y-73152380D01*
X101379047Y-73152380D01*
X101474285Y-73200000D01*
X101521904Y-73247619D01*
X101569523Y-73342857D01*
X101569523Y-73438095D01*
X101521904Y-73580952D01*
X100950476Y-74152380D01*
X101569523Y-74152380D01*
G04 #@! TO.C,U1*
X71038095Y-53202380D02*
X71038095Y-54011904D01*
X71085714Y-54107142D01*
X71133333Y-54154761D01*
X71228571Y-54202380D01*
X71419047Y-54202380D01*
X71514285Y-54154761D01*
X71561904Y-54107142D01*
X71609523Y-54011904D01*
X71609523Y-53202380D01*
X72609523Y-54202380D02*
X72038095Y-54202380D01*
X72323809Y-54202380D02*
X72323809Y-53202380D01*
X72228571Y-53345238D01*
X72133333Y-53440476D01*
X72038095Y-53488095D01*
G04 #@! TO.C,U21*
X54824380Y-46450095D02*
X55633904Y-46450095D01*
X55729142Y-46402476D01*
X55776761Y-46354857D01*
X55824380Y-46259619D01*
X55824380Y-46069142D01*
X55776761Y-45973904D01*
X55729142Y-45926285D01*
X55633904Y-45878666D01*
X54824380Y-45878666D01*
X54919619Y-45450095D02*
X54872000Y-45402476D01*
X54824380Y-45307238D01*
X54824380Y-45069142D01*
X54872000Y-44973904D01*
X54919619Y-44926285D01*
X55014857Y-44878666D01*
X55110095Y-44878666D01*
X55252952Y-44926285D01*
X55824380Y-45497714D01*
X55824380Y-44878666D01*
X55824380Y-43926285D02*
X55824380Y-44497714D01*
X55824380Y-44212000D02*
X54824380Y-44212000D01*
X54967238Y-44307238D01*
X55062476Y-44402476D01*
X55110095Y-44497714D01*
G04 #@! TO.C,U31*
X83272380Y-47974095D02*
X84081904Y-47974095D01*
X84177142Y-47926476D01*
X84224761Y-47878857D01*
X84272380Y-47783619D01*
X84272380Y-47593142D01*
X84224761Y-47497904D01*
X84177142Y-47450285D01*
X84081904Y-47402666D01*
X83272380Y-47402666D01*
X83272380Y-47021714D02*
X83272380Y-46402666D01*
X83653333Y-46736000D01*
X83653333Y-46593142D01*
X83700952Y-46497904D01*
X83748571Y-46450285D01*
X83843809Y-46402666D01*
X84081904Y-46402666D01*
X84177142Y-46450285D01*
X84224761Y-46497904D01*
X84272380Y-46593142D01*
X84272380Y-46878857D01*
X84224761Y-46974095D01*
X84177142Y-47021714D01*
X84272380Y-45450285D02*
X84272380Y-46021714D01*
X84272380Y-45736000D02*
X83272380Y-45736000D01*
X83415238Y-45831238D01*
X83510476Y-45926476D01*
X83558095Y-46021714D01*
G04 #@! TO.C,U32*
X83272380Y-43910095D02*
X84081904Y-43910095D01*
X84177142Y-43862476D01*
X84224761Y-43814857D01*
X84272380Y-43719619D01*
X84272380Y-43529142D01*
X84224761Y-43433904D01*
X84177142Y-43386285D01*
X84081904Y-43338666D01*
X83272380Y-43338666D01*
X83272380Y-42957714D02*
X83272380Y-42338666D01*
X83653333Y-42672000D01*
X83653333Y-42529142D01*
X83700952Y-42433904D01*
X83748571Y-42386285D01*
X83843809Y-42338666D01*
X84081904Y-42338666D01*
X84177142Y-42386285D01*
X84224761Y-42433904D01*
X84272380Y-42529142D01*
X84272380Y-42814857D01*
X84224761Y-42910095D01*
X84177142Y-42957714D01*
X83367619Y-41957714D02*
X83320000Y-41910095D01*
X83272380Y-41814857D01*
X83272380Y-41576761D01*
X83320000Y-41481523D01*
X83367619Y-41433904D01*
X83462857Y-41386285D01*
X83558095Y-41386285D01*
X83700952Y-41433904D01*
X84272380Y-42005333D01*
X84272380Y-41386285D01*
G04 #@! TO.C,H2*
X68938095Y-80542380D02*
X68938095Y-79542380D01*
X68938095Y-80018571D02*
X69509523Y-80018571D01*
X69509523Y-80542380D02*
X69509523Y-79542380D01*
X69938095Y-79637619D02*
X69985714Y-79590000D01*
X70080952Y-79542380D01*
X70319047Y-79542380D01*
X70414285Y-79590000D01*
X70461904Y-79637619D01*
X70509523Y-79732857D01*
X70509523Y-79828095D01*
X70461904Y-79970952D01*
X69890476Y-80542380D01*
X70509523Y-80542380D01*
G04 #@! TO.C,H3*
X106338095Y-79832380D02*
X106338095Y-78832380D01*
X106338095Y-79308571D02*
X106909523Y-79308571D01*
X106909523Y-79832380D02*
X106909523Y-78832380D01*
X107290476Y-78832380D02*
X107909523Y-78832380D01*
X107576190Y-79213333D01*
X107719047Y-79213333D01*
X107814285Y-79260952D01*
X107861904Y-79308571D01*
X107909523Y-79403809D01*
X107909523Y-79641904D01*
X107861904Y-79737142D01*
X107814285Y-79784761D01*
X107719047Y-79832380D01*
X107433333Y-79832380D01*
X107338095Y-79784761D01*
X107290476Y-79737142D01*
G04 #@! TO.C,H4*
X106988095Y-42752380D02*
X106988095Y-41752380D01*
X106988095Y-42228571D02*
X107559523Y-42228571D01*
X107559523Y-42752380D02*
X107559523Y-41752380D01*
X108464285Y-42085714D02*
X108464285Y-42752380D01*
X108226190Y-41704761D02*
X107988095Y-42419047D01*
X108607142Y-42419047D01*
G04 #@! TO.C,C41*
X87757142Y-74667857D02*
X87804761Y-74715476D01*
X87852380Y-74858333D01*
X87852380Y-74953571D01*
X87804761Y-75096428D01*
X87709523Y-75191666D01*
X87614285Y-75239285D01*
X87423809Y-75286904D01*
X87280952Y-75286904D01*
X87090476Y-75239285D01*
X86995238Y-75191666D01*
X86900000Y-75096428D01*
X86852380Y-74953571D01*
X86852380Y-74858333D01*
X86900000Y-74715476D01*
X86947619Y-74667857D01*
X87185714Y-73810714D02*
X87852380Y-73810714D01*
X86804761Y-74048809D02*
X87519047Y-74286904D01*
X87519047Y-73667857D01*
X87852380Y-72763095D02*
X87852380Y-73334523D01*
X87852380Y-73048809D02*
X86852380Y-73048809D01*
X86995238Y-73144047D01*
X87090476Y-73239285D01*
X87138095Y-73334523D01*
G04 #@! TO.C,C42*
X91957142Y-74417857D02*
X92004761Y-74465476D01*
X92052380Y-74608333D01*
X92052380Y-74703571D01*
X92004761Y-74846428D01*
X91909523Y-74941666D01*
X91814285Y-74989285D01*
X91623809Y-75036904D01*
X91480952Y-75036904D01*
X91290476Y-74989285D01*
X91195238Y-74941666D01*
X91100000Y-74846428D01*
X91052380Y-74703571D01*
X91052380Y-74608333D01*
X91100000Y-74465476D01*
X91147619Y-74417857D01*
X91385714Y-73560714D02*
X92052380Y-73560714D01*
X91004761Y-73798809D02*
X91719047Y-74036904D01*
X91719047Y-73417857D01*
X91147619Y-73084523D02*
X91100000Y-73036904D01*
X91052380Y-72941666D01*
X91052380Y-72703571D01*
X91100000Y-72608333D01*
X91147619Y-72560714D01*
X91242857Y-72513095D01*
X91338095Y-72513095D01*
X91480952Y-72560714D01*
X92052380Y-73132142D01*
X92052380Y-72513095D01*
G04 #@! TO.C,L41*
X88594642Y-73272380D02*
X88118452Y-73272380D01*
X88118452Y-72272380D01*
X89356547Y-72605714D02*
X89356547Y-73272380D01*
X89118452Y-72224761D02*
X88880357Y-72939047D01*
X89499404Y-72939047D01*
X90404166Y-73272380D02*
X89832738Y-73272380D01*
X90118452Y-73272380D02*
X90118452Y-72272380D01*
X90023214Y-72415238D01*
X89927976Y-72510476D01*
X89832738Y-72558095D01*
G04 #@! TO.C,U5*
X59502380Y-42761904D02*
X60311904Y-42761904D01*
X60407142Y-42714285D01*
X60454761Y-42666666D01*
X60502380Y-42571428D01*
X60502380Y-42380952D01*
X60454761Y-42285714D01*
X60407142Y-42238095D01*
X60311904Y-42190476D01*
X59502380Y-42190476D01*
X59502380Y-41238095D02*
X59502380Y-41714285D01*
X59978571Y-41761904D01*
X59930952Y-41714285D01*
X59883333Y-41619047D01*
X59883333Y-41380952D01*
X59930952Y-41285714D01*
X59978571Y-41238095D01*
X60073809Y-41190476D01*
X60311904Y-41190476D01*
X60407142Y-41238095D01*
X60454761Y-41285714D01*
X60502380Y-41380952D01*
X60502380Y-41619047D01*
X60454761Y-41714285D01*
X60407142Y-41761904D01*
G04 #@! TO.C,U41*
X88011904Y-71702380D02*
X88011904Y-72511904D01*
X88059523Y-72607142D01*
X88107142Y-72654761D01*
X88202380Y-72702380D01*
X88392857Y-72702380D01*
X88488095Y-72654761D01*
X88535714Y-72607142D01*
X88583333Y-72511904D01*
X88583333Y-71702380D01*
X89488095Y-72035714D02*
X89488095Y-72702380D01*
X89250000Y-71654761D02*
X89011904Y-72369047D01*
X89630952Y-72369047D01*
X90535714Y-72702380D02*
X89964285Y-72702380D01*
X90250000Y-72702380D02*
X90250000Y-71702380D01*
X90154761Y-71845238D01*
X90059523Y-71940476D01*
X89964285Y-71988095D01*
G04 #@! TO.C,U2*
X82238095Y-67302380D02*
X82238095Y-68111904D01*
X82285714Y-68207142D01*
X82333333Y-68254761D01*
X82428571Y-68302380D01*
X82619047Y-68302380D01*
X82714285Y-68254761D01*
X82761904Y-68207142D01*
X82809523Y-68111904D01*
X82809523Y-67302380D01*
X83238095Y-67397619D02*
X83285714Y-67350000D01*
X83380952Y-67302380D01*
X83619047Y-67302380D01*
X83714285Y-67350000D01*
X83761904Y-67397619D01*
X83809523Y-67492857D01*
X83809523Y-67588095D01*
X83761904Y-67730952D01*
X83190476Y-68302380D01*
X83809523Y-68302380D01*
G04 #@! TO.C,J61*
X52602380Y-55809523D02*
X53316666Y-55809523D01*
X53459523Y-55857142D01*
X53554761Y-55952380D01*
X53602380Y-56095238D01*
X53602380Y-56190476D01*
X52602380Y-54904761D02*
X52602380Y-55095238D01*
X52650000Y-55190476D01*
X52697619Y-55238095D01*
X52840476Y-55333333D01*
X53030952Y-55380952D01*
X53411904Y-55380952D01*
X53507142Y-55333333D01*
X53554761Y-55285714D01*
X53602380Y-55190476D01*
X53602380Y-55000000D01*
X53554761Y-54904761D01*
X53507142Y-54857142D01*
X53411904Y-54809523D01*
X53173809Y-54809523D01*
X53078571Y-54857142D01*
X53030952Y-54904761D01*
X52983333Y-55000000D01*
X52983333Y-55190476D01*
X53030952Y-55285714D01*
X53078571Y-55333333D01*
X53173809Y-55380952D01*
X53602380Y-53857142D02*
X53602380Y-54428571D01*
X53602380Y-54142857D02*
X52602380Y-54142857D01*
X52745238Y-54238095D01*
X52840476Y-54333333D01*
X52888095Y-54428571D01*
G04 #@! TO.C,J11*
X60087380Y-78877023D02*
X60801666Y-78877023D01*
X60944523Y-78924642D01*
X61039761Y-79019880D01*
X61087380Y-79162738D01*
X61087380Y-79257976D01*
X61087380Y-77877023D02*
X61087380Y-78448452D01*
X61087380Y-78162738D02*
X60087380Y-78162738D01*
X60230238Y-78257976D01*
X60325476Y-78353214D01*
X60373095Y-78448452D01*
X61087380Y-76924642D02*
X61087380Y-77496071D01*
X61087380Y-77210357D02*
X60087380Y-77210357D01*
X60230238Y-77305595D01*
X60325476Y-77400833D01*
X60373095Y-77496071D01*
G04 #@! TO.C,J12*
X82087380Y-78877023D02*
X82801666Y-78877023D01*
X82944523Y-78924642D01*
X83039761Y-79019880D01*
X83087380Y-79162738D01*
X83087380Y-79257976D01*
X83087380Y-77877023D02*
X83087380Y-78448452D01*
X83087380Y-78162738D02*
X82087380Y-78162738D01*
X82230238Y-78257976D01*
X82325476Y-78353214D01*
X82373095Y-78448452D01*
X82182619Y-77496071D02*
X82135000Y-77448452D01*
X82087380Y-77353214D01*
X82087380Y-77115119D01*
X82135000Y-77019880D01*
X82182619Y-76972261D01*
X82277857Y-76924642D01*
X82373095Y-76924642D01*
X82515952Y-76972261D01*
X83087380Y-77543690D01*
X83087380Y-76924642D01*
G04 #@! TD*
M02*
