G04 #@! TF.GenerationSoftware,KiCad,Pcbnew,(5.0.1)-4*
G04 #@! TF.CreationDate,2018-12-14T18:15:29+08:00*
G04 #@! TF.ProjectId,Project 23,50726F6A6563742032332E6B69636164,V 0.7*
G04 #@! TF.SameCoordinates,Original*
G04 #@! TF.FileFunction,Soldermask,Bot*
G04 #@! TF.FilePolarity,Negative*
%FSLAX46Y46*%
G04 Gerber Fmt 4.6, Leading zero omitted, Abs format (unit mm)*
G04 Created by KiCad (PCBNEW (5.0.1)-4) date 12/14/2018 6:15:29 PM*
%MOMM*%
%LPD*%
G01*
G04 APERTURE LIST*
%ADD10C,0.100000*%
G04 APERTURE END LIST*
D10*
X54500000Y-58700000D02*
X50000000Y-58700000D01*
X54500000Y-51300000D02*
X54500000Y-58700000D01*
X50000000Y-51300000D02*
X54500000Y-51300000D01*
X50000000Y-58700000D02*
X50000000Y-82000000D01*
X112000000Y-40000000D02*
X50000000Y-40000000D01*
X112000000Y-82000000D02*
X112000000Y-40000000D01*
X50000000Y-82000000D02*
X112000000Y-82000000D01*
X50000000Y-40000000D02*
X50000000Y-51300000D01*
G36*
X64335443Y-78394194D02*
X64544728Y-78480883D01*
X64733085Y-78606739D01*
X64893261Y-78766915D01*
X65019117Y-78955272D01*
X65105806Y-79164557D01*
X65150000Y-79386734D01*
X65150000Y-79613266D01*
X65105806Y-79835443D01*
X65019117Y-80044728D01*
X64893261Y-80233085D01*
X64733085Y-80393261D01*
X64544728Y-80519117D01*
X64335443Y-80605806D01*
X64113266Y-80650000D01*
X63886734Y-80650000D01*
X63664557Y-80605806D01*
X63455272Y-80519117D01*
X63266915Y-80393261D01*
X63106739Y-80233085D01*
X62980883Y-80044728D01*
X62894194Y-79835443D01*
X62850000Y-79613266D01*
X62850000Y-79386734D01*
X62894194Y-79164557D01*
X62980883Y-78955272D01*
X63106739Y-78766915D01*
X63266915Y-78606739D01*
X63455272Y-78480883D01*
X63664557Y-78394194D01*
X63886734Y-78350000D01*
X64113266Y-78350000D01*
X64335443Y-78394194D01*
X64335443Y-78394194D01*
G37*
G36*
X110335443Y-78144194D02*
X110544728Y-78230883D01*
X110733085Y-78356739D01*
X110893261Y-78516915D01*
X111019117Y-78705272D01*
X111105806Y-78914557D01*
X111150000Y-79136734D01*
X111150000Y-79363266D01*
X111105806Y-79585443D01*
X111019117Y-79794728D01*
X110893261Y-79983085D01*
X110733085Y-80143261D01*
X110544728Y-80269117D01*
X110335443Y-80355806D01*
X110113266Y-80400000D01*
X109886734Y-80400000D01*
X109664557Y-80355806D01*
X109455272Y-80269117D01*
X109266915Y-80143261D01*
X109106739Y-79983085D01*
X108980883Y-79794728D01*
X108894194Y-79585443D01*
X108850000Y-79363266D01*
X108850000Y-79136734D01*
X108894194Y-78914557D01*
X108980883Y-78705272D01*
X109106739Y-78516915D01*
X109266915Y-78356739D01*
X109455272Y-78230883D01*
X109664557Y-78144194D01*
X109886734Y-78100000D01*
X110113266Y-78100000D01*
X110335443Y-78144194D01*
X110335443Y-78144194D01*
G37*
G36*
X103136930Y-75152688D02*
X103326274Y-75190350D01*
X103517362Y-75269502D01*
X103689336Y-75384411D01*
X103835589Y-75530664D01*
X103950498Y-75702638D01*
X104029650Y-75893726D01*
X104070000Y-76096584D01*
X104070000Y-76303416D01*
X104029650Y-76506274D01*
X103950498Y-76697362D01*
X103835589Y-76869336D01*
X103689336Y-77015589D01*
X103517362Y-77130498D01*
X103326274Y-77209650D01*
X103145888Y-77245530D01*
X103123417Y-77250000D01*
X102916583Y-77250000D01*
X102894112Y-77245530D01*
X102713726Y-77209650D01*
X102522638Y-77130498D01*
X102350664Y-77015589D01*
X102204411Y-76869336D01*
X102089502Y-76697362D01*
X102010350Y-76506274D01*
X101970000Y-76303416D01*
X101970000Y-76096584D01*
X102010350Y-75893726D01*
X102089502Y-75702638D01*
X102204411Y-75530664D01*
X102350664Y-75384411D01*
X102522638Y-75269502D01*
X102713726Y-75190350D01*
X102903070Y-75152688D01*
X102916583Y-75150000D01*
X103123417Y-75150000D01*
X103136930Y-75152688D01*
X103136930Y-75152688D01*
G37*
G36*
X96636930Y-75152688D02*
X96826274Y-75190350D01*
X97017362Y-75269502D01*
X97189336Y-75384411D01*
X97335589Y-75530664D01*
X97450498Y-75702638D01*
X97529650Y-75893726D01*
X97570000Y-76096584D01*
X97570000Y-76303416D01*
X97529650Y-76506274D01*
X97450498Y-76697362D01*
X97335589Y-76869336D01*
X97189336Y-77015589D01*
X97017362Y-77130498D01*
X96826274Y-77209650D01*
X96645888Y-77245530D01*
X96623417Y-77250000D01*
X96416583Y-77250000D01*
X96394112Y-77245530D01*
X96213726Y-77209650D01*
X96022638Y-77130498D01*
X95850664Y-77015589D01*
X95704411Y-76869336D01*
X95589502Y-76697362D01*
X95510350Y-76506274D01*
X95470000Y-76303416D01*
X95470000Y-76096584D01*
X95510350Y-75893726D01*
X95589502Y-75702638D01*
X95704411Y-75530664D01*
X95850664Y-75384411D01*
X96022638Y-75269502D01*
X96213726Y-75190350D01*
X96403070Y-75152688D01*
X96416583Y-75150000D01*
X96623417Y-75150000D01*
X96636930Y-75152688D01*
X96636930Y-75152688D01*
G37*
G36*
X53393952Y-74452653D02*
X53447819Y-74457958D01*
X53524518Y-74481225D01*
X53551498Y-74489409D01*
X53647039Y-74540476D01*
X53730790Y-74609210D01*
X53799524Y-74692961D01*
X53850591Y-74788502D01*
X53855382Y-74804297D01*
X53864759Y-74826936D01*
X53878373Y-74847311D01*
X53895700Y-74864638D01*
X53916075Y-74878252D01*
X53938714Y-74887629D01*
X53962747Y-74892410D01*
X53987251Y-74892410D01*
X54011285Y-74887630D01*
X54033924Y-74878253D01*
X54054299Y-74864639D01*
X54071626Y-74847312D01*
X54085240Y-74826937D01*
X54094618Y-74804297D01*
X54099409Y-74788502D01*
X54150476Y-74692961D01*
X54219210Y-74609210D01*
X54302961Y-74540476D01*
X54398502Y-74489409D01*
X54425482Y-74481225D01*
X54502181Y-74457958D01*
X54556048Y-74452653D01*
X54582981Y-74450000D01*
X54637019Y-74450000D01*
X54663952Y-74452653D01*
X54717819Y-74457958D01*
X54794518Y-74481225D01*
X54821498Y-74489409D01*
X54917039Y-74540476D01*
X55000790Y-74609210D01*
X55069524Y-74692961D01*
X55120591Y-74788502D01*
X55125382Y-74804297D01*
X55134759Y-74826936D01*
X55148373Y-74847311D01*
X55165700Y-74864638D01*
X55186075Y-74878252D01*
X55208714Y-74887629D01*
X55232747Y-74892410D01*
X55257251Y-74892410D01*
X55281285Y-74887630D01*
X55303924Y-74878253D01*
X55324299Y-74864639D01*
X55341626Y-74847312D01*
X55355240Y-74826937D01*
X55364618Y-74804297D01*
X55369409Y-74788502D01*
X55420476Y-74692961D01*
X55489210Y-74609210D01*
X55572961Y-74540476D01*
X55668502Y-74489409D01*
X55695482Y-74481225D01*
X55772181Y-74457958D01*
X55826048Y-74452653D01*
X55852981Y-74450000D01*
X55907019Y-74450000D01*
X55933952Y-74452653D01*
X55987819Y-74457958D01*
X56064518Y-74481225D01*
X56091498Y-74489409D01*
X56187039Y-74540476D01*
X56270790Y-74609210D01*
X56339524Y-74692961D01*
X56390591Y-74788502D01*
X56395382Y-74804297D01*
X56404759Y-74826936D01*
X56418373Y-74847311D01*
X56435700Y-74864638D01*
X56456075Y-74878252D01*
X56478714Y-74887629D01*
X56502747Y-74892410D01*
X56527251Y-74892410D01*
X56551285Y-74887630D01*
X56573924Y-74878253D01*
X56594299Y-74864639D01*
X56611626Y-74847312D01*
X56625240Y-74826937D01*
X56634618Y-74804297D01*
X56639409Y-74788502D01*
X56690476Y-74692961D01*
X56759210Y-74609210D01*
X56842961Y-74540476D01*
X56938502Y-74489409D01*
X56965482Y-74481225D01*
X57042181Y-74457958D01*
X57096048Y-74452653D01*
X57122981Y-74450000D01*
X57177019Y-74450000D01*
X57203952Y-74452653D01*
X57257819Y-74457958D01*
X57334518Y-74481225D01*
X57361498Y-74489409D01*
X57457039Y-74540476D01*
X57540790Y-74609210D01*
X57609524Y-74692961D01*
X57634760Y-74740176D01*
X57648373Y-74760551D01*
X57665700Y-74777878D01*
X57686075Y-74791492D01*
X57708714Y-74800869D01*
X57732747Y-74805650D01*
X57757252Y-74805650D01*
X57781285Y-74800870D01*
X57803924Y-74791492D01*
X57824299Y-74777879D01*
X57841626Y-74760552D01*
X57855240Y-74740177D01*
X57864617Y-74717538D01*
X57869398Y-74693505D01*
X57870000Y-74681252D01*
X57870000Y-74450000D01*
X58970000Y-74450000D01*
X58970000Y-75550000D01*
X58738748Y-75550000D01*
X58714362Y-75552402D01*
X58690913Y-75559515D01*
X58669302Y-75571066D01*
X58650360Y-75586612D01*
X58634814Y-75605554D01*
X58623263Y-75627165D01*
X58616150Y-75650614D01*
X58613748Y-75675000D01*
X58616150Y-75699386D01*
X58623263Y-75722835D01*
X58634814Y-75744446D01*
X58650360Y-75763388D01*
X58669302Y-75778934D01*
X58679824Y-75785240D01*
X58727039Y-75810476D01*
X58810790Y-75879210D01*
X58879524Y-75962961D01*
X58930591Y-76058502D01*
X58930592Y-76058506D01*
X58962042Y-76162181D01*
X58972661Y-76270000D01*
X58962042Y-76377819D01*
X58942250Y-76443063D01*
X58930591Y-76481498D01*
X58879524Y-76577039D01*
X58810790Y-76660790D01*
X58727039Y-76729524D01*
X58631498Y-76780591D01*
X58604518Y-76788775D01*
X58527819Y-76812042D01*
X58473952Y-76817347D01*
X58447019Y-76820000D01*
X58392981Y-76820000D01*
X58366048Y-76817347D01*
X58312181Y-76812042D01*
X58235482Y-76788775D01*
X58208502Y-76780591D01*
X58112961Y-76729524D01*
X58029210Y-76660790D01*
X57960476Y-76577039D01*
X57909409Y-76481498D01*
X57904618Y-76465703D01*
X57895241Y-76443064D01*
X57881627Y-76422689D01*
X57864300Y-76405362D01*
X57843925Y-76391748D01*
X57821286Y-76382371D01*
X57797253Y-76377590D01*
X57772749Y-76377590D01*
X57748715Y-76382370D01*
X57726076Y-76391747D01*
X57705701Y-76405361D01*
X57688374Y-76422688D01*
X57674760Y-76443063D01*
X57665382Y-76465703D01*
X57660591Y-76481498D01*
X57609524Y-76577039D01*
X57540790Y-76660790D01*
X57457039Y-76729524D01*
X57361498Y-76780591D01*
X57334518Y-76788775D01*
X57257819Y-76812042D01*
X57203952Y-76817347D01*
X57177019Y-76820000D01*
X57122981Y-76820000D01*
X57096048Y-76817347D01*
X57042181Y-76812042D01*
X56965482Y-76788775D01*
X56938502Y-76780591D01*
X56842961Y-76729524D01*
X56759210Y-76660790D01*
X56690476Y-76577039D01*
X56639409Y-76481498D01*
X56634618Y-76465703D01*
X56625241Y-76443064D01*
X56611627Y-76422689D01*
X56594300Y-76405362D01*
X56573925Y-76391748D01*
X56551286Y-76382371D01*
X56527253Y-76377590D01*
X56502749Y-76377590D01*
X56478715Y-76382370D01*
X56456076Y-76391747D01*
X56435701Y-76405361D01*
X56418374Y-76422688D01*
X56404760Y-76443063D01*
X56395382Y-76465703D01*
X56390591Y-76481498D01*
X56339524Y-76577039D01*
X56270790Y-76660790D01*
X56187039Y-76729524D01*
X56091498Y-76780591D01*
X56064518Y-76788775D01*
X55987819Y-76812042D01*
X55933952Y-76817347D01*
X55907019Y-76820000D01*
X55852981Y-76820000D01*
X55826048Y-76817347D01*
X55772181Y-76812042D01*
X55695482Y-76788775D01*
X55668502Y-76780591D01*
X55572961Y-76729524D01*
X55489210Y-76660790D01*
X55420476Y-76577039D01*
X55369409Y-76481498D01*
X55364618Y-76465703D01*
X55355241Y-76443064D01*
X55341627Y-76422689D01*
X55324300Y-76405362D01*
X55303925Y-76391748D01*
X55281286Y-76382371D01*
X55257253Y-76377590D01*
X55232749Y-76377590D01*
X55208715Y-76382370D01*
X55186076Y-76391747D01*
X55165701Y-76405361D01*
X55148374Y-76422688D01*
X55134760Y-76443063D01*
X55125382Y-76465703D01*
X55120591Y-76481498D01*
X55069524Y-76577039D01*
X55000790Y-76660790D01*
X54917039Y-76729524D01*
X54821498Y-76780591D01*
X54794518Y-76788775D01*
X54717819Y-76812042D01*
X54663952Y-76817347D01*
X54637019Y-76820000D01*
X54582981Y-76820000D01*
X54556048Y-76817347D01*
X54502181Y-76812042D01*
X54425482Y-76788775D01*
X54398502Y-76780591D01*
X54302961Y-76729524D01*
X54219210Y-76660790D01*
X54150476Y-76577039D01*
X54099409Y-76481498D01*
X54094618Y-76465703D01*
X54085241Y-76443064D01*
X54071627Y-76422689D01*
X54054300Y-76405362D01*
X54033925Y-76391748D01*
X54011286Y-76382371D01*
X53987253Y-76377590D01*
X53962749Y-76377590D01*
X53938715Y-76382370D01*
X53916076Y-76391747D01*
X53895701Y-76405361D01*
X53878374Y-76422688D01*
X53864760Y-76443063D01*
X53855382Y-76465703D01*
X53850591Y-76481498D01*
X53799524Y-76577039D01*
X53730790Y-76660790D01*
X53647039Y-76729524D01*
X53551498Y-76780591D01*
X53524518Y-76788775D01*
X53447819Y-76812042D01*
X53393952Y-76817347D01*
X53367019Y-76820000D01*
X53312981Y-76820000D01*
X53286048Y-76817347D01*
X53232181Y-76812042D01*
X53155482Y-76788775D01*
X53128502Y-76780591D01*
X53032961Y-76729524D01*
X52949210Y-76660790D01*
X52880476Y-76577039D01*
X52829409Y-76481498D01*
X52817750Y-76443063D01*
X52797958Y-76377819D01*
X52787339Y-76270000D01*
X52797958Y-76162181D01*
X52829408Y-76058506D01*
X52829409Y-76058502D01*
X52880476Y-75962961D01*
X52949210Y-75879210D01*
X53032961Y-75810476D01*
X53128502Y-75759409D01*
X53136128Y-75757096D01*
X53144299Y-75754617D01*
X53166936Y-75745241D01*
X53187311Y-75731627D01*
X53204638Y-75714300D01*
X53218252Y-75693925D01*
X53227629Y-75671286D01*
X53232410Y-75647253D01*
X53232410Y-75622749D01*
X53232410Y-75622747D01*
X53447590Y-75622747D01*
X53447590Y-75647251D01*
X53452370Y-75671285D01*
X53461747Y-75693924D01*
X53475361Y-75714299D01*
X53492688Y-75731626D01*
X53513063Y-75745240D01*
X53535701Y-75754617D01*
X53543872Y-75757096D01*
X53551498Y-75759409D01*
X53647039Y-75810476D01*
X53730790Y-75879210D01*
X53799524Y-75962961D01*
X53850591Y-76058502D01*
X53855382Y-76074297D01*
X53864759Y-76096936D01*
X53878373Y-76117311D01*
X53895700Y-76134638D01*
X53916075Y-76148252D01*
X53938714Y-76157629D01*
X53962747Y-76162410D01*
X53987251Y-76162410D01*
X54011285Y-76157630D01*
X54033924Y-76148253D01*
X54054299Y-76134639D01*
X54071626Y-76117312D01*
X54085240Y-76096937D01*
X54094618Y-76074297D01*
X54099409Y-76058502D01*
X54150476Y-75962961D01*
X54219210Y-75879210D01*
X54302961Y-75810476D01*
X54398502Y-75759409D01*
X54406128Y-75757096D01*
X54414299Y-75754617D01*
X54436936Y-75745241D01*
X54457311Y-75731627D01*
X54474638Y-75714300D01*
X54488252Y-75693925D01*
X54497629Y-75671286D01*
X54502410Y-75647253D01*
X54502410Y-75622749D01*
X54502410Y-75622747D01*
X54717590Y-75622747D01*
X54717590Y-75647251D01*
X54722370Y-75671285D01*
X54731747Y-75693924D01*
X54745361Y-75714299D01*
X54762688Y-75731626D01*
X54783063Y-75745240D01*
X54805701Y-75754617D01*
X54813872Y-75757096D01*
X54821498Y-75759409D01*
X54917039Y-75810476D01*
X55000790Y-75879210D01*
X55069524Y-75962961D01*
X55120591Y-76058502D01*
X55125382Y-76074297D01*
X55134759Y-76096936D01*
X55148373Y-76117311D01*
X55165700Y-76134638D01*
X55186075Y-76148252D01*
X55208714Y-76157629D01*
X55232747Y-76162410D01*
X55257251Y-76162410D01*
X55281285Y-76157630D01*
X55303924Y-76148253D01*
X55324299Y-76134639D01*
X55341626Y-76117312D01*
X55355240Y-76096937D01*
X55364618Y-76074297D01*
X55369409Y-76058502D01*
X55420476Y-75962961D01*
X55489210Y-75879210D01*
X55572961Y-75810476D01*
X55668502Y-75759409D01*
X55676128Y-75757096D01*
X55684299Y-75754617D01*
X55706936Y-75745241D01*
X55727311Y-75731627D01*
X55744638Y-75714300D01*
X55758252Y-75693925D01*
X55767629Y-75671286D01*
X55772410Y-75647253D01*
X55772410Y-75622749D01*
X55772410Y-75622747D01*
X55987590Y-75622747D01*
X55987590Y-75647251D01*
X55992370Y-75671285D01*
X56001747Y-75693924D01*
X56015361Y-75714299D01*
X56032688Y-75731626D01*
X56053063Y-75745240D01*
X56075701Y-75754617D01*
X56083872Y-75757096D01*
X56091498Y-75759409D01*
X56187039Y-75810476D01*
X56270790Y-75879210D01*
X56339524Y-75962961D01*
X56390591Y-76058502D01*
X56395382Y-76074297D01*
X56404759Y-76096936D01*
X56418373Y-76117311D01*
X56435700Y-76134638D01*
X56456075Y-76148252D01*
X56478714Y-76157629D01*
X56502747Y-76162410D01*
X56527251Y-76162410D01*
X56551285Y-76157630D01*
X56573924Y-76148253D01*
X56594299Y-76134639D01*
X56611626Y-76117312D01*
X56625240Y-76096937D01*
X56634618Y-76074297D01*
X56639409Y-76058502D01*
X56690476Y-75962961D01*
X56759210Y-75879210D01*
X56842961Y-75810476D01*
X56938502Y-75759409D01*
X56946128Y-75757096D01*
X56954299Y-75754617D01*
X56976936Y-75745241D01*
X56997311Y-75731627D01*
X57014638Y-75714300D01*
X57028252Y-75693925D01*
X57037629Y-75671286D01*
X57042410Y-75647253D01*
X57042410Y-75622749D01*
X57042410Y-75622747D01*
X57257590Y-75622747D01*
X57257590Y-75647251D01*
X57262370Y-75671285D01*
X57271747Y-75693924D01*
X57285361Y-75714299D01*
X57302688Y-75731626D01*
X57323063Y-75745240D01*
X57345701Y-75754617D01*
X57353872Y-75757096D01*
X57361498Y-75759409D01*
X57457039Y-75810476D01*
X57540790Y-75879210D01*
X57609524Y-75962961D01*
X57660591Y-76058502D01*
X57665382Y-76074297D01*
X57674759Y-76096936D01*
X57688373Y-76117311D01*
X57705700Y-76134638D01*
X57726075Y-76148252D01*
X57748714Y-76157629D01*
X57772747Y-76162410D01*
X57797251Y-76162410D01*
X57821285Y-76157630D01*
X57843924Y-76148253D01*
X57864299Y-76134639D01*
X57881626Y-76117312D01*
X57895240Y-76096937D01*
X57904618Y-76074297D01*
X57909409Y-76058502D01*
X57960476Y-75962961D01*
X58029210Y-75879210D01*
X58112961Y-75810476D01*
X58160176Y-75785240D01*
X58180551Y-75771627D01*
X58197878Y-75754300D01*
X58211492Y-75733925D01*
X58220869Y-75711286D01*
X58225650Y-75687253D01*
X58225650Y-75662748D01*
X58220870Y-75638715D01*
X58211492Y-75616076D01*
X58197879Y-75595701D01*
X58180552Y-75578374D01*
X58160177Y-75564760D01*
X58137538Y-75555383D01*
X58113505Y-75550602D01*
X58101252Y-75550000D01*
X57870000Y-75550000D01*
X57870000Y-75318748D01*
X57867598Y-75294362D01*
X57860485Y-75270913D01*
X57848934Y-75249302D01*
X57833388Y-75230360D01*
X57814446Y-75214814D01*
X57792835Y-75203263D01*
X57769386Y-75196150D01*
X57745000Y-75193748D01*
X57720614Y-75196150D01*
X57697165Y-75203263D01*
X57675554Y-75214814D01*
X57656612Y-75230360D01*
X57641066Y-75249302D01*
X57634760Y-75259824D01*
X57609524Y-75307039D01*
X57540790Y-75390790D01*
X57457039Y-75459524D01*
X57361498Y-75510591D01*
X57353872Y-75512904D01*
X57345701Y-75515383D01*
X57323064Y-75524759D01*
X57302689Y-75538373D01*
X57285362Y-75555700D01*
X57271748Y-75576075D01*
X57262371Y-75598714D01*
X57257590Y-75622747D01*
X57042410Y-75622747D01*
X57037630Y-75598715D01*
X57028253Y-75576076D01*
X57014639Y-75555701D01*
X56997312Y-75538374D01*
X56976937Y-75524760D01*
X56954299Y-75515383D01*
X56946128Y-75512904D01*
X56938502Y-75510591D01*
X56842961Y-75459524D01*
X56759210Y-75390790D01*
X56690476Y-75307039D01*
X56639409Y-75211498D01*
X56636911Y-75203263D01*
X56634617Y-75195701D01*
X56625241Y-75173064D01*
X56611627Y-75152689D01*
X56594300Y-75135362D01*
X56573925Y-75121748D01*
X56551286Y-75112371D01*
X56527253Y-75107590D01*
X56502749Y-75107590D01*
X56478715Y-75112370D01*
X56456076Y-75121747D01*
X56435701Y-75135361D01*
X56418374Y-75152688D01*
X56404760Y-75173063D01*
X56395383Y-75195701D01*
X56393089Y-75203263D01*
X56390591Y-75211498D01*
X56339524Y-75307039D01*
X56270790Y-75390790D01*
X56187039Y-75459524D01*
X56091498Y-75510591D01*
X56083872Y-75512904D01*
X56075701Y-75515383D01*
X56053064Y-75524759D01*
X56032689Y-75538373D01*
X56015362Y-75555700D01*
X56001748Y-75576075D01*
X55992371Y-75598714D01*
X55987590Y-75622747D01*
X55772410Y-75622747D01*
X55767630Y-75598715D01*
X55758253Y-75576076D01*
X55744639Y-75555701D01*
X55727312Y-75538374D01*
X55706937Y-75524760D01*
X55684299Y-75515383D01*
X55676128Y-75512904D01*
X55668502Y-75510591D01*
X55572961Y-75459524D01*
X55489210Y-75390790D01*
X55420476Y-75307039D01*
X55369409Y-75211498D01*
X55366911Y-75203263D01*
X55364617Y-75195701D01*
X55355241Y-75173064D01*
X55341627Y-75152689D01*
X55324300Y-75135362D01*
X55303925Y-75121748D01*
X55281286Y-75112371D01*
X55257253Y-75107590D01*
X55232749Y-75107590D01*
X55208715Y-75112370D01*
X55186076Y-75121747D01*
X55165701Y-75135361D01*
X55148374Y-75152688D01*
X55134760Y-75173063D01*
X55125383Y-75195701D01*
X55123089Y-75203263D01*
X55120591Y-75211498D01*
X55069524Y-75307039D01*
X55000790Y-75390790D01*
X54917039Y-75459524D01*
X54821498Y-75510591D01*
X54813872Y-75512904D01*
X54805701Y-75515383D01*
X54783064Y-75524759D01*
X54762689Y-75538373D01*
X54745362Y-75555700D01*
X54731748Y-75576075D01*
X54722371Y-75598714D01*
X54717590Y-75622747D01*
X54502410Y-75622747D01*
X54497630Y-75598715D01*
X54488253Y-75576076D01*
X54474639Y-75555701D01*
X54457312Y-75538374D01*
X54436937Y-75524760D01*
X54414299Y-75515383D01*
X54406128Y-75512904D01*
X54398502Y-75510591D01*
X54302961Y-75459524D01*
X54219210Y-75390790D01*
X54150476Y-75307039D01*
X54099409Y-75211498D01*
X54096911Y-75203263D01*
X54094617Y-75195701D01*
X54085241Y-75173064D01*
X54071627Y-75152689D01*
X54054300Y-75135362D01*
X54033925Y-75121748D01*
X54011286Y-75112371D01*
X53987253Y-75107590D01*
X53962749Y-75107590D01*
X53938715Y-75112370D01*
X53916076Y-75121747D01*
X53895701Y-75135361D01*
X53878374Y-75152688D01*
X53864760Y-75173063D01*
X53855383Y-75195701D01*
X53853089Y-75203263D01*
X53850591Y-75211498D01*
X53799524Y-75307039D01*
X53730790Y-75390790D01*
X53647039Y-75459524D01*
X53551498Y-75510591D01*
X53543872Y-75512904D01*
X53535701Y-75515383D01*
X53513064Y-75524759D01*
X53492689Y-75538373D01*
X53475362Y-75555700D01*
X53461748Y-75576075D01*
X53452371Y-75598714D01*
X53447590Y-75622747D01*
X53232410Y-75622747D01*
X53227630Y-75598715D01*
X53218253Y-75576076D01*
X53204639Y-75555701D01*
X53187312Y-75538374D01*
X53166937Y-75524760D01*
X53144299Y-75515383D01*
X53136128Y-75512904D01*
X53128502Y-75510591D01*
X53032961Y-75459524D01*
X52949210Y-75390790D01*
X52880476Y-75307039D01*
X52829409Y-75211498D01*
X52817750Y-75173063D01*
X52797958Y-75107819D01*
X52787339Y-75000000D01*
X52797958Y-74892181D01*
X52829408Y-74788506D01*
X52829409Y-74788502D01*
X52880476Y-74692961D01*
X52949210Y-74609210D01*
X53032961Y-74540476D01*
X53128502Y-74489409D01*
X53155482Y-74481225D01*
X53232181Y-74457958D01*
X53286048Y-74452653D01*
X53312981Y-74450000D01*
X53367019Y-74450000D01*
X53393952Y-74452653D01*
X53393952Y-74452653D01*
G37*
G36*
X68633952Y-74452653D02*
X68687819Y-74457958D01*
X68764518Y-74481225D01*
X68791498Y-74489409D01*
X68887039Y-74540476D01*
X68970790Y-74609210D01*
X69039524Y-74692961D01*
X69090591Y-74788502D01*
X69095382Y-74804297D01*
X69104759Y-74826936D01*
X69118373Y-74847311D01*
X69135700Y-74864638D01*
X69156075Y-74878252D01*
X69178714Y-74887629D01*
X69202747Y-74892410D01*
X69227251Y-74892410D01*
X69251285Y-74887630D01*
X69273924Y-74878253D01*
X69294299Y-74864639D01*
X69311626Y-74847312D01*
X69325240Y-74826937D01*
X69334618Y-74804297D01*
X69339409Y-74788502D01*
X69390476Y-74692961D01*
X69459210Y-74609210D01*
X69542961Y-74540476D01*
X69638502Y-74489409D01*
X69665482Y-74481225D01*
X69742181Y-74457958D01*
X69796048Y-74452653D01*
X69822981Y-74450000D01*
X69877019Y-74450000D01*
X69903952Y-74452653D01*
X69957819Y-74457958D01*
X70034518Y-74481225D01*
X70061498Y-74489409D01*
X70157039Y-74540476D01*
X70240790Y-74609210D01*
X70309524Y-74692961D01*
X70360591Y-74788502D01*
X70365382Y-74804297D01*
X70374759Y-74826936D01*
X70388373Y-74847311D01*
X70405700Y-74864638D01*
X70426075Y-74878252D01*
X70448714Y-74887629D01*
X70472747Y-74892410D01*
X70497251Y-74892410D01*
X70521285Y-74887630D01*
X70543924Y-74878253D01*
X70564299Y-74864639D01*
X70581626Y-74847312D01*
X70595240Y-74826937D01*
X70604618Y-74804297D01*
X70609409Y-74788502D01*
X70660476Y-74692961D01*
X70729210Y-74609210D01*
X70812961Y-74540476D01*
X70908502Y-74489409D01*
X70935482Y-74481225D01*
X71012181Y-74457958D01*
X71066048Y-74452653D01*
X71092981Y-74450000D01*
X71147019Y-74450000D01*
X71173952Y-74452653D01*
X71227819Y-74457958D01*
X71304518Y-74481225D01*
X71331498Y-74489409D01*
X71427039Y-74540476D01*
X71510790Y-74609210D01*
X71579524Y-74692961D01*
X71630591Y-74788502D01*
X71635382Y-74804297D01*
X71644759Y-74826936D01*
X71658373Y-74847311D01*
X71675700Y-74864638D01*
X71696075Y-74878252D01*
X71718714Y-74887629D01*
X71742747Y-74892410D01*
X71767251Y-74892410D01*
X71791285Y-74887630D01*
X71813924Y-74878253D01*
X71834299Y-74864639D01*
X71851626Y-74847312D01*
X71865240Y-74826937D01*
X71874618Y-74804297D01*
X71879409Y-74788502D01*
X71930476Y-74692961D01*
X71999210Y-74609210D01*
X72082961Y-74540476D01*
X72178502Y-74489409D01*
X72205482Y-74481225D01*
X72282181Y-74457958D01*
X72336048Y-74452653D01*
X72362981Y-74450000D01*
X72417019Y-74450000D01*
X72443952Y-74452653D01*
X72497819Y-74457958D01*
X72574518Y-74481225D01*
X72601498Y-74489409D01*
X72697039Y-74540476D01*
X72780790Y-74609210D01*
X72849524Y-74692961D01*
X72874760Y-74740176D01*
X72888373Y-74760551D01*
X72905700Y-74777878D01*
X72926075Y-74791492D01*
X72948714Y-74800869D01*
X72972747Y-74805650D01*
X72997252Y-74805650D01*
X73021285Y-74800870D01*
X73043924Y-74791492D01*
X73064299Y-74777879D01*
X73081626Y-74760552D01*
X73095240Y-74740177D01*
X73104617Y-74717538D01*
X73109398Y-74693505D01*
X73110000Y-74681252D01*
X73110000Y-74450000D01*
X74210000Y-74450000D01*
X74210000Y-75550000D01*
X73978748Y-75550000D01*
X73954362Y-75552402D01*
X73930913Y-75559515D01*
X73909302Y-75571066D01*
X73890360Y-75586612D01*
X73874814Y-75605554D01*
X73863263Y-75627165D01*
X73856150Y-75650614D01*
X73853748Y-75675000D01*
X73856150Y-75699386D01*
X73863263Y-75722835D01*
X73874814Y-75744446D01*
X73890360Y-75763388D01*
X73909302Y-75778934D01*
X73919824Y-75785240D01*
X73967039Y-75810476D01*
X74050790Y-75879210D01*
X74119524Y-75962961D01*
X74170591Y-76058502D01*
X74170592Y-76058506D01*
X74202042Y-76162181D01*
X74212661Y-76270000D01*
X74202042Y-76377819D01*
X74182250Y-76443063D01*
X74170591Y-76481498D01*
X74119524Y-76577039D01*
X74050790Y-76660790D01*
X73967039Y-76729524D01*
X73871498Y-76780591D01*
X73844518Y-76788775D01*
X73767819Y-76812042D01*
X73713952Y-76817347D01*
X73687019Y-76820000D01*
X73632981Y-76820000D01*
X73606048Y-76817347D01*
X73552181Y-76812042D01*
X73475482Y-76788775D01*
X73448502Y-76780591D01*
X73352961Y-76729524D01*
X73269210Y-76660790D01*
X73200476Y-76577039D01*
X73149409Y-76481498D01*
X73144618Y-76465703D01*
X73135241Y-76443064D01*
X73121627Y-76422689D01*
X73104300Y-76405362D01*
X73083925Y-76391748D01*
X73061286Y-76382371D01*
X73037253Y-76377590D01*
X73012749Y-76377590D01*
X72988715Y-76382370D01*
X72966076Y-76391747D01*
X72945701Y-76405361D01*
X72928374Y-76422688D01*
X72914760Y-76443063D01*
X72905382Y-76465703D01*
X72900591Y-76481498D01*
X72849524Y-76577039D01*
X72780790Y-76660790D01*
X72697039Y-76729524D01*
X72601498Y-76780591D01*
X72574518Y-76788775D01*
X72497819Y-76812042D01*
X72443952Y-76817347D01*
X72417019Y-76820000D01*
X72362981Y-76820000D01*
X72336048Y-76817347D01*
X72282181Y-76812042D01*
X72205482Y-76788775D01*
X72178502Y-76780591D01*
X72082961Y-76729524D01*
X71999210Y-76660790D01*
X71930476Y-76577039D01*
X71879409Y-76481498D01*
X71874618Y-76465703D01*
X71865241Y-76443064D01*
X71851627Y-76422689D01*
X71834300Y-76405362D01*
X71813925Y-76391748D01*
X71791286Y-76382371D01*
X71767253Y-76377590D01*
X71742749Y-76377590D01*
X71718715Y-76382370D01*
X71696076Y-76391747D01*
X71675701Y-76405361D01*
X71658374Y-76422688D01*
X71644760Y-76443063D01*
X71635382Y-76465703D01*
X71630591Y-76481498D01*
X71579524Y-76577039D01*
X71510790Y-76660790D01*
X71427039Y-76729524D01*
X71331498Y-76780591D01*
X71304518Y-76788775D01*
X71227819Y-76812042D01*
X71173952Y-76817347D01*
X71147019Y-76820000D01*
X71092981Y-76820000D01*
X71066048Y-76817347D01*
X71012181Y-76812042D01*
X70935482Y-76788775D01*
X70908502Y-76780591D01*
X70812961Y-76729524D01*
X70729210Y-76660790D01*
X70660476Y-76577039D01*
X70609409Y-76481498D01*
X70604618Y-76465703D01*
X70595241Y-76443064D01*
X70581627Y-76422689D01*
X70564300Y-76405362D01*
X70543925Y-76391748D01*
X70521286Y-76382371D01*
X70497253Y-76377590D01*
X70472749Y-76377590D01*
X70448715Y-76382370D01*
X70426076Y-76391747D01*
X70405701Y-76405361D01*
X70388374Y-76422688D01*
X70374760Y-76443063D01*
X70365382Y-76465703D01*
X70360591Y-76481498D01*
X70309524Y-76577039D01*
X70240790Y-76660790D01*
X70157039Y-76729524D01*
X70061498Y-76780591D01*
X70034518Y-76788775D01*
X69957819Y-76812042D01*
X69903952Y-76817347D01*
X69877019Y-76820000D01*
X69822981Y-76820000D01*
X69796048Y-76817347D01*
X69742181Y-76812042D01*
X69665482Y-76788775D01*
X69638502Y-76780591D01*
X69542961Y-76729524D01*
X69459210Y-76660790D01*
X69390476Y-76577039D01*
X69339409Y-76481498D01*
X69334618Y-76465703D01*
X69325241Y-76443064D01*
X69311627Y-76422689D01*
X69294300Y-76405362D01*
X69273925Y-76391748D01*
X69251286Y-76382371D01*
X69227253Y-76377590D01*
X69202749Y-76377590D01*
X69178715Y-76382370D01*
X69156076Y-76391747D01*
X69135701Y-76405361D01*
X69118374Y-76422688D01*
X69104760Y-76443063D01*
X69095382Y-76465703D01*
X69090591Y-76481498D01*
X69039524Y-76577039D01*
X68970790Y-76660790D01*
X68887039Y-76729524D01*
X68791498Y-76780591D01*
X68764518Y-76788775D01*
X68687819Y-76812042D01*
X68633952Y-76817347D01*
X68607019Y-76820000D01*
X68552981Y-76820000D01*
X68526048Y-76817347D01*
X68472181Y-76812042D01*
X68395482Y-76788775D01*
X68368502Y-76780591D01*
X68272961Y-76729524D01*
X68189210Y-76660790D01*
X68120476Y-76577039D01*
X68069409Y-76481498D01*
X68057750Y-76443063D01*
X68037958Y-76377819D01*
X68027339Y-76270000D01*
X68037958Y-76162181D01*
X68069408Y-76058506D01*
X68069409Y-76058502D01*
X68120476Y-75962961D01*
X68189210Y-75879210D01*
X68272961Y-75810476D01*
X68368502Y-75759409D01*
X68376128Y-75757096D01*
X68384299Y-75754617D01*
X68406936Y-75745241D01*
X68427311Y-75731627D01*
X68444638Y-75714300D01*
X68458252Y-75693925D01*
X68467629Y-75671286D01*
X68472410Y-75647253D01*
X68472410Y-75622749D01*
X68472410Y-75622747D01*
X68687590Y-75622747D01*
X68687590Y-75647251D01*
X68692370Y-75671285D01*
X68701747Y-75693924D01*
X68715361Y-75714299D01*
X68732688Y-75731626D01*
X68753063Y-75745240D01*
X68775701Y-75754617D01*
X68783872Y-75757096D01*
X68791498Y-75759409D01*
X68887039Y-75810476D01*
X68970790Y-75879210D01*
X69039524Y-75962961D01*
X69090591Y-76058502D01*
X69095382Y-76074297D01*
X69104759Y-76096936D01*
X69118373Y-76117311D01*
X69135700Y-76134638D01*
X69156075Y-76148252D01*
X69178714Y-76157629D01*
X69202747Y-76162410D01*
X69227251Y-76162410D01*
X69251285Y-76157630D01*
X69273924Y-76148253D01*
X69294299Y-76134639D01*
X69311626Y-76117312D01*
X69325240Y-76096937D01*
X69334618Y-76074297D01*
X69339409Y-76058502D01*
X69390476Y-75962961D01*
X69459210Y-75879210D01*
X69542961Y-75810476D01*
X69638502Y-75759409D01*
X69646128Y-75757096D01*
X69654299Y-75754617D01*
X69676936Y-75745241D01*
X69697311Y-75731627D01*
X69714638Y-75714300D01*
X69728252Y-75693925D01*
X69737629Y-75671286D01*
X69742410Y-75647253D01*
X69742410Y-75622749D01*
X69742410Y-75622747D01*
X69957590Y-75622747D01*
X69957590Y-75647251D01*
X69962370Y-75671285D01*
X69971747Y-75693924D01*
X69985361Y-75714299D01*
X70002688Y-75731626D01*
X70023063Y-75745240D01*
X70045701Y-75754617D01*
X70053872Y-75757096D01*
X70061498Y-75759409D01*
X70157039Y-75810476D01*
X70240790Y-75879210D01*
X70309524Y-75962961D01*
X70360591Y-76058502D01*
X70365382Y-76074297D01*
X70374759Y-76096936D01*
X70388373Y-76117311D01*
X70405700Y-76134638D01*
X70426075Y-76148252D01*
X70448714Y-76157629D01*
X70472747Y-76162410D01*
X70497251Y-76162410D01*
X70521285Y-76157630D01*
X70543924Y-76148253D01*
X70564299Y-76134639D01*
X70581626Y-76117312D01*
X70595240Y-76096937D01*
X70604618Y-76074297D01*
X70609409Y-76058502D01*
X70660476Y-75962961D01*
X70729210Y-75879210D01*
X70812961Y-75810476D01*
X70908502Y-75759409D01*
X70916128Y-75757096D01*
X70924299Y-75754617D01*
X70946936Y-75745241D01*
X70967311Y-75731627D01*
X70984638Y-75714300D01*
X70998252Y-75693925D01*
X71007629Y-75671286D01*
X71012410Y-75647253D01*
X71012410Y-75622749D01*
X71012410Y-75622747D01*
X71227590Y-75622747D01*
X71227590Y-75647251D01*
X71232370Y-75671285D01*
X71241747Y-75693924D01*
X71255361Y-75714299D01*
X71272688Y-75731626D01*
X71293063Y-75745240D01*
X71315701Y-75754617D01*
X71323872Y-75757096D01*
X71331498Y-75759409D01*
X71427039Y-75810476D01*
X71510790Y-75879210D01*
X71579524Y-75962961D01*
X71630591Y-76058502D01*
X71635382Y-76074297D01*
X71644759Y-76096936D01*
X71658373Y-76117311D01*
X71675700Y-76134638D01*
X71696075Y-76148252D01*
X71718714Y-76157629D01*
X71742747Y-76162410D01*
X71767251Y-76162410D01*
X71791285Y-76157630D01*
X71813924Y-76148253D01*
X71834299Y-76134639D01*
X71851626Y-76117312D01*
X71865240Y-76096937D01*
X71874618Y-76074297D01*
X71879409Y-76058502D01*
X71930476Y-75962961D01*
X71999210Y-75879210D01*
X72082961Y-75810476D01*
X72178502Y-75759409D01*
X72186128Y-75757096D01*
X72194299Y-75754617D01*
X72216936Y-75745241D01*
X72237311Y-75731627D01*
X72254638Y-75714300D01*
X72268252Y-75693925D01*
X72277629Y-75671286D01*
X72282410Y-75647253D01*
X72282410Y-75622749D01*
X72282410Y-75622747D01*
X72497590Y-75622747D01*
X72497590Y-75647251D01*
X72502370Y-75671285D01*
X72511747Y-75693924D01*
X72525361Y-75714299D01*
X72542688Y-75731626D01*
X72563063Y-75745240D01*
X72585701Y-75754617D01*
X72593872Y-75757096D01*
X72601498Y-75759409D01*
X72697039Y-75810476D01*
X72780790Y-75879210D01*
X72849524Y-75962961D01*
X72900591Y-76058502D01*
X72905382Y-76074297D01*
X72914759Y-76096936D01*
X72928373Y-76117311D01*
X72945700Y-76134638D01*
X72966075Y-76148252D01*
X72988714Y-76157629D01*
X73012747Y-76162410D01*
X73037251Y-76162410D01*
X73061285Y-76157630D01*
X73083924Y-76148253D01*
X73104299Y-76134639D01*
X73121626Y-76117312D01*
X73135240Y-76096937D01*
X73144618Y-76074297D01*
X73149409Y-76058502D01*
X73200476Y-75962961D01*
X73269210Y-75879210D01*
X73352961Y-75810476D01*
X73400176Y-75785240D01*
X73420551Y-75771627D01*
X73437878Y-75754300D01*
X73451492Y-75733925D01*
X73460869Y-75711286D01*
X73465650Y-75687253D01*
X73465650Y-75662748D01*
X73460870Y-75638715D01*
X73451492Y-75616076D01*
X73437879Y-75595701D01*
X73420552Y-75578374D01*
X73400177Y-75564760D01*
X73377538Y-75555383D01*
X73353505Y-75550602D01*
X73341252Y-75550000D01*
X73110000Y-75550000D01*
X73110000Y-75318748D01*
X73107598Y-75294362D01*
X73100485Y-75270913D01*
X73088934Y-75249302D01*
X73073388Y-75230360D01*
X73054446Y-75214814D01*
X73032835Y-75203263D01*
X73009386Y-75196150D01*
X72985000Y-75193748D01*
X72960614Y-75196150D01*
X72937165Y-75203263D01*
X72915554Y-75214814D01*
X72896612Y-75230360D01*
X72881066Y-75249302D01*
X72874760Y-75259824D01*
X72849524Y-75307039D01*
X72780790Y-75390790D01*
X72697039Y-75459524D01*
X72601498Y-75510591D01*
X72593872Y-75512904D01*
X72585701Y-75515383D01*
X72563064Y-75524759D01*
X72542689Y-75538373D01*
X72525362Y-75555700D01*
X72511748Y-75576075D01*
X72502371Y-75598714D01*
X72497590Y-75622747D01*
X72282410Y-75622747D01*
X72277630Y-75598715D01*
X72268253Y-75576076D01*
X72254639Y-75555701D01*
X72237312Y-75538374D01*
X72216937Y-75524760D01*
X72194299Y-75515383D01*
X72186128Y-75512904D01*
X72178502Y-75510591D01*
X72082961Y-75459524D01*
X71999210Y-75390790D01*
X71930476Y-75307039D01*
X71879409Y-75211498D01*
X71876911Y-75203263D01*
X71874617Y-75195701D01*
X71865241Y-75173064D01*
X71851627Y-75152689D01*
X71834300Y-75135362D01*
X71813925Y-75121748D01*
X71791286Y-75112371D01*
X71767253Y-75107590D01*
X71742749Y-75107590D01*
X71718715Y-75112370D01*
X71696076Y-75121747D01*
X71675701Y-75135361D01*
X71658374Y-75152688D01*
X71644760Y-75173063D01*
X71635383Y-75195701D01*
X71633089Y-75203263D01*
X71630591Y-75211498D01*
X71579524Y-75307039D01*
X71510790Y-75390790D01*
X71427039Y-75459524D01*
X71331498Y-75510591D01*
X71323872Y-75512904D01*
X71315701Y-75515383D01*
X71293064Y-75524759D01*
X71272689Y-75538373D01*
X71255362Y-75555700D01*
X71241748Y-75576075D01*
X71232371Y-75598714D01*
X71227590Y-75622747D01*
X71012410Y-75622747D01*
X71007630Y-75598715D01*
X70998253Y-75576076D01*
X70984639Y-75555701D01*
X70967312Y-75538374D01*
X70946937Y-75524760D01*
X70924299Y-75515383D01*
X70916128Y-75512904D01*
X70908502Y-75510591D01*
X70812961Y-75459524D01*
X70729210Y-75390790D01*
X70660476Y-75307039D01*
X70609409Y-75211498D01*
X70606911Y-75203263D01*
X70604617Y-75195701D01*
X70595241Y-75173064D01*
X70581627Y-75152689D01*
X70564300Y-75135362D01*
X70543925Y-75121748D01*
X70521286Y-75112371D01*
X70497253Y-75107590D01*
X70472749Y-75107590D01*
X70448715Y-75112370D01*
X70426076Y-75121747D01*
X70405701Y-75135361D01*
X70388374Y-75152688D01*
X70374760Y-75173063D01*
X70365383Y-75195701D01*
X70363089Y-75203263D01*
X70360591Y-75211498D01*
X70309524Y-75307039D01*
X70240790Y-75390790D01*
X70157039Y-75459524D01*
X70061498Y-75510591D01*
X70053872Y-75512904D01*
X70045701Y-75515383D01*
X70023064Y-75524759D01*
X70002689Y-75538373D01*
X69985362Y-75555700D01*
X69971748Y-75576075D01*
X69962371Y-75598714D01*
X69957590Y-75622747D01*
X69742410Y-75622747D01*
X69737630Y-75598715D01*
X69728253Y-75576076D01*
X69714639Y-75555701D01*
X69697312Y-75538374D01*
X69676937Y-75524760D01*
X69654299Y-75515383D01*
X69646128Y-75512904D01*
X69638502Y-75510591D01*
X69542961Y-75459524D01*
X69459210Y-75390790D01*
X69390476Y-75307039D01*
X69339409Y-75211498D01*
X69336911Y-75203263D01*
X69334617Y-75195701D01*
X69325241Y-75173064D01*
X69311627Y-75152689D01*
X69294300Y-75135362D01*
X69273925Y-75121748D01*
X69251286Y-75112371D01*
X69227253Y-75107590D01*
X69202749Y-75107590D01*
X69178715Y-75112370D01*
X69156076Y-75121747D01*
X69135701Y-75135361D01*
X69118374Y-75152688D01*
X69104760Y-75173063D01*
X69095383Y-75195701D01*
X69093089Y-75203263D01*
X69090591Y-75211498D01*
X69039524Y-75307039D01*
X68970790Y-75390790D01*
X68887039Y-75459524D01*
X68791498Y-75510591D01*
X68783872Y-75512904D01*
X68775701Y-75515383D01*
X68753064Y-75524759D01*
X68732689Y-75538373D01*
X68715362Y-75555700D01*
X68701748Y-75576075D01*
X68692371Y-75598714D01*
X68687590Y-75622747D01*
X68472410Y-75622747D01*
X68467630Y-75598715D01*
X68458253Y-75576076D01*
X68444639Y-75555701D01*
X68427312Y-75538374D01*
X68406937Y-75524760D01*
X68384299Y-75515383D01*
X68376128Y-75512904D01*
X68368502Y-75510591D01*
X68272961Y-75459524D01*
X68189210Y-75390790D01*
X68120476Y-75307039D01*
X68069409Y-75211498D01*
X68057750Y-75173063D01*
X68037958Y-75107819D01*
X68027339Y-75000000D01*
X68037958Y-74892181D01*
X68069408Y-74788506D01*
X68069409Y-74788502D01*
X68120476Y-74692961D01*
X68189210Y-74609210D01*
X68272961Y-74540476D01*
X68368502Y-74489409D01*
X68395482Y-74481225D01*
X68472181Y-74457958D01*
X68526048Y-74452653D01*
X68552981Y-74450000D01*
X68607019Y-74450000D01*
X68633952Y-74452653D01*
X68633952Y-74452653D01*
G37*
G36*
X61225000Y-73290000D02*
X59425000Y-73290000D01*
X59425000Y-71490000D01*
X61225000Y-71490000D01*
X61225000Y-73290000D01*
X61225000Y-73290000D01*
G37*
G36*
X96645888Y-70654470D02*
X96826274Y-70690350D01*
X97017362Y-70769502D01*
X97189336Y-70884411D01*
X97335589Y-71030664D01*
X97450498Y-71202638D01*
X97529650Y-71393726D01*
X97570000Y-71596584D01*
X97570000Y-71803416D01*
X97529650Y-72006274D01*
X97450498Y-72197362D01*
X97335589Y-72369336D01*
X97189336Y-72515589D01*
X97017362Y-72630498D01*
X96826274Y-72709650D01*
X96645888Y-72745530D01*
X96623417Y-72750000D01*
X96416583Y-72750000D01*
X96394112Y-72745530D01*
X96213726Y-72709650D01*
X96022638Y-72630498D01*
X95850664Y-72515589D01*
X95704411Y-72369336D01*
X95589502Y-72197362D01*
X95510350Y-72006274D01*
X95470000Y-71803416D01*
X95470000Y-71596584D01*
X95510350Y-71393726D01*
X95589502Y-71202638D01*
X95704411Y-71030664D01*
X95850664Y-70884411D01*
X96022638Y-70769502D01*
X96213726Y-70690350D01*
X96394112Y-70654470D01*
X96416583Y-70650000D01*
X96623417Y-70650000D01*
X96645888Y-70654470D01*
X96645888Y-70654470D01*
G37*
G36*
X103145888Y-70654470D02*
X103326274Y-70690350D01*
X103517362Y-70769502D01*
X103689336Y-70884411D01*
X103835589Y-71030664D01*
X103950498Y-71202638D01*
X104029650Y-71393726D01*
X104070000Y-71596584D01*
X104070000Y-71803416D01*
X104029650Y-72006274D01*
X103950498Y-72197362D01*
X103835589Y-72369336D01*
X103689336Y-72515589D01*
X103517362Y-72630498D01*
X103326274Y-72709650D01*
X103145888Y-72745530D01*
X103123417Y-72750000D01*
X102916583Y-72750000D01*
X102894112Y-72745530D01*
X102713726Y-72709650D01*
X102522638Y-72630498D01*
X102350664Y-72515589D01*
X102204411Y-72369336D01*
X102089502Y-72197362D01*
X102010350Y-72006274D01*
X101970000Y-71803416D01*
X101970000Y-71596584D01*
X102010350Y-71393726D01*
X102089502Y-71202638D01*
X102204411Y-71030664D01*
X102350664Y-70884411D01*
X102522638Y-70769502D01*
X102713726Y-70690350D01*
X102894112Y-70654470D01*
X102916583Y-70650000D01*
X103123417Y-70650000D01*
X103145888Y-70654470D01*
X103145888Y-70654470D01*
G37*
G36*
X60501432Y-68963022D02*
X60671081Y-69014485D01*
X60827433Y-69098056D01*
X60964475Y-69210525D01*
X61076944Y-69347567D01*
X61160515Y-69503919D01*
X61211978Y-69673568D01*
X61229354Y-69850000D01*
X61211978Y-70026432D01*
X61160515Y-70196081D01*
X61076944Y-70352433D01*
X60964475Y-70489475D01*
X60827433Y-70601944D01*
X60671081Y-70685515D01*
X60501432Y-70736978D01*
X60369211Y-70750000D01*
X60280789Y-70750000D01*
X60148568Y-70736978D01*
X59978919Y-70685515D01*
X59822567Y-70601944D01*
X59685525Y-70489475D01*
X59573056Y-70352433D01*
X59489485Y-70196081D01*
X59438022Y-70026432D01*
X59420646Y-69850000D01*
X59438022Y-69673568D01*
X59489485Y-69503919D01*
X59573056Y-69347567D01*
X59685525Y-69210525D01*
X59822567Y-69098056D01*
X59978919Y-69014485D01*
X60148568Y-68963022D01*
X60280789Y-68950000D01*
X60369211Y-68950000D01*
X60501432Y-68963022D01*
X60501432Y-68963022D01*
G37*
G36*
X60501432Y-66423022D02*
X60671081Y-66474485D01*
X60827433Y-66558056D01*
X60964475Y-66670525D01*
X61076944Y-66807567D01*
X61160515Y-66963919D01*
X61211978Y-67133568D01*
X61229354Y-67310000D01*
X61211978Y-67486432D01*
X61160515Y-67656081D01*
X61076944Y-67812433D01*
X60964475Y-67949475D01*
X60827433Y-68061944D01*
X60671081Y-68145515D01*
X60501432Y-68196978D01*
X60369211Y-68210000D01*
X60280789Y-68210000D01*
X60148568Y-68196978D01*
X59978919Y-68145515D01*
X59822567Y-68061944D01*
X59685525Y-67949475D01*
X59573056Y-67812433D01*
X59489485Y-67656081D01*
X59438022Y-67486432D01*
X59420646Y-67310000D01*
X59438022Y-67133568D01*
X59489485Y-66963919D01*
X59573056Y-66807567D01*
X59685525Y-66670525D01*
X59822567Y-66558056D01*
X59978919Y-66474485D01*
X60148568Y-66423022D01*
X60280789Y-66410000D01*
X60369211Y-66410000D01*
X60501432Y-66423022D01*
X60501432Y-66423022D01*
G37*
G36*
X60501432Y-63883022D02*
X60671081Y-63934485D01*
X60827433Y-64018056D01*
X60964475Y-64130525D01*
X61076944Y-64267567D01*
X61160515Y-64423919D01*
X61211978Y-64593568D01*
X61229354Y-64770000D01*
X61211978Y-64946432D01*
X61160515Y-65116081D01*
X61076944Y-65272433D01*
X60964475Y-65409475D01*
X60827433Y-65521944D01*
X60671081Y-65605515D01*
X60501432Y-65656978D01*
X60369211Y-65670000D01*
X60280789Y-65670000D01*
X60148568Y-65656978D01*
X59978919Y-65605515D01*
X59822567Y-65521944D01*
X59685525Y-65409475D01*
X59573056Y-65272433D01*
X59489485Y-65116081D01*
X59438022Y-64946432D01*
X59420646Y-64770000D01*
X59438022Y-64593568D01*
X59489485Y-64423919D01*
X59573056Y-64267567D01*
X59685525Y-64130525D01*
X59822567Y-64018056D01*
X59978919Y-63934485D01*
X60148568Y-63883022D01*
X60280789Y-63870000D01*
X60369211Y-63870000D01*
X60501432Y-63883022D01*
X60501432Y-63883022D01*
G37*
G36*
X108039590Y-64417045D02*
X108110429Y-64431136D01*
X108210523Y-64472597D01*
X108300607Y-64532789D01*
X108377211Y-64609393D01*
X108377213Y-64609396D01*
X108437403Y-64699477D01*
X108478864Y-64799571D01*
X108500000Y-64905830D01*
X108500000Y-65014170D01*
X108478864Y-65120429D01*
X108437403Y-65220523D01*
X108377211Y-65310607D01*
X108300607Y-65387211D01*
X108300604Y-65387213D01*
X108210523Y-65447403D01*
X108110429Y-65488864D01*
X108039590Y-65502955D01*
X108004171Y-65510000D01*
X107895829Y-65510000D01*
X107860410Y-65502955D01*
X107789571Y-65488864D01*
X107689477Y-65447403D01*
X107599396Y-65387213D01*
X107599393Y-65387211D01*
X107522789Y-65310607D01*
X107462597Y-65220523D01*
X107421136Y-65120429D01*
X107400000Y-65014170D01*
X107400000Y-64905830D01*
X107421136Y-64799571D01*
X107462597Y-64699477D01*
X107522787Y-64609396D01*
X107522789Y-64609393D01*
X107599393Y-64532789D01*
X107689477Y-64472597D01*
X107789571Y-64431136D01*
X107860410Y-64417045D01*
X107895829Y-64410000D01*
X108004171Y-64410000D01*
X108039590Y-64417045D01*
X108039590Y-64417045D01*
G37*
G36*
X52698348Y-59106597D02*
X52756858Y-59124347D01*
X52810777Y-59153167D01*
X52858043Y-59191957D01*
X52896833Y-59239223D01*
X52925653Y-59293142D01*
X52943403Y-59351652D01*
X52950000Y-59418639D01*
X52950000Y-60281361D01*
X52943403Y-60348348D01*
X52925653Y-60406858D01*
X52896833Y-60460777D01*
X52858043Y-60508043D01*
X52810777Y-60546833D01*
X52756858Y-60575653D01*
X52698348Y-60593403D01*
X52631361Y-60600000D01*
X50868639Y-60600000D01*
X50801652Y-60593403D01*
X50743142Y-60575653D01*
X50689223Y-60546833D01*
X50641957Y-60508043D01*
X50603167Y-60460777D01*
X50574347Y-60406858D01*
X50556597Y-60348348D01*
X50550000Y-60281361D01*
X50550000Y-59418639D01*
X50556597Y-59351652D01*
X50574347Y-59293142D01*
X50603167Y-59239223D01*
X50641957Y-59191957D01*
X50689223Y-59153167D01*
X50743142Y-59124347D01*
X50801652Y-59106597D01*
X50868639Y-59100000D01*
X52631361Y-59100000D01*
X52698348Y-59106597D01*
X52698348Y-59106597D01*
G37*
G36*
X55998348Y-59106597D02*
X56056858Y-59124347D01*
X56110777Y-59153167D01*
X56158043Y-59191957D01*
X56196833Y-59239223D01*
X56225653Y-59293142D01*
X56243403Y-59351652D01*
X56250000Y-59418639D01*
X56250000Y-60281361D01*
X56243403Y-60348348D01*
X56225653Y-60406858D01*
X56196833Y-60460777D01*
X56158043Y-60508043D01*
X56110777Y-60546833D01*
X56056858Y-60575653D01*
X55998348Y-60593403D01*
X55931361Y-60600000D01*
X54168639Y-60600000D01*
X54101652Y-60593403D01*
X54043142Y-60575653D01*
X53989223Y-60546833D01*
X53941957Y-60508043D01*
X53903167Y-60460777D01*
X53874347Y-60406858D01*
X53856597Y-60348348D01*
X53850000Y-60281361D01*
X53850000Y-59418639D01*
X53856597Y-59351652D01*
X53874347Y-59293142D01*
X53903167Y-59239223D01*
X53941957Y-59191957D01*
X53989223Y-59153167D01*
X54043142Y-59124347D01*
X54101652Y-59106597D01*
X54168639Y-59100000D01*
X55931361Y-59100000D01*
X55998348Y-59106597D01*
X55998348Y-59106597D01*
G37*
G36*
X91673352Y-56942743D02*
X91818941Y-57003048D01*
X91949973Y-57090601D01*
X92061399Y-57202027D01*
X92148952Y-57333059D01*
X92209257Y-57478648D01*
X92240000Y-57633205D01*
X92240000Y-57790795D01*
X92209257Y-57945352D01*
X92148952Y-58090941D01*
X92061399Y-58221973D01*
X91949973Y-58333399D01*
X91818941Y-58420952D01*
X91673352Y-58481257D01*
X91518795Y-58512000D01*
X91361205Y-58512000D01*
X91206648Y-58481257D01*
X91061059Y-58420952D01*
X90930027Y-58333399D01*
X90818601Y-58221973D01*
X90731048Y-58090941D01*
X90670743Y-57945352D01*
X90640000Y-57790795D01*
X90640000Y-57633205D01*
X90670743Y-57478648D01*
X90731048Y-57333059D01*
X90818601Y-57202027D01*
X90930027Y-57090601D01*
X91061059Y-57003048D01*
X91206648Y-56942743D01*
X91361205Y-56912000D01*
X91518795Y-56912000D01*
X91673352Y-56942743D01*
X91673352Y-56942743D01*
G37*
G36*
X108039590Y-56417045D02*
X108110429Y-56431136D01*
X108210523Y-56472597D01*
X108300607Y-56532789D01*
X108377211Y-56609393D01*
X108377213Y-56609396D01*
X108437403Y-56699477D01*
X108478864Y-56799571D01*
X108500000Y-56905830D01*
X108500000Y-57014170D01*
X108478864Y-57120429D01*
X108445064Y-57202027D01*
X108437403Y-57220523D01*
X108377211Y-57310607D01*
X108300607Y-57387211D01*
X108300604Y-57387213D01*
X108210523Y-57447403D01*
X108110429Y-57488864D01*
X108039590Y-57502955D01*
X108004171Y-57510000D01*
X107895829Y-57510000D01*
X107860410Y-57502955D01*
X107789571Y-57488864D01*
X107689477Y-57447403D01*
X107599396Y-57387213D01*
X107599393Y-57387211D01*
X107522789Y-57310607D01*
X107462597Y-57220523D01*
X107454936Y-57202027D01*
X107421136Y-57120429D01*
X107400000Y-57014170D01*
X107400000Y-56905830D01*
X107421136Y-56799571D01*
X107462597Y-56699477D01*
X107522787Y-56609396D01*
X107522789Y-56609393D01*
X107599393Y-56532789D01*
X107689477Y-56472597D01*
X107789571Y-56431136D01*
X107860410Y-56417045D01*
X107895829Y-56410000D01*
X108004171Y-56410000D01*
X108039590Y-56417045D01*
X108039590Y-56417045D01*
G37*
G36*
X91673352Y-52062743D02*
X91818941Y-52123048D01*
X91949973Y-52210601D01*
X92061399Y-52322027D01*
X92148952Y-52453059D01*
X92209257Y-52598648D01*
X92240000Y-52753205D01*
X92240000Y-52910795D01*
X92209257Y-53065352D01*
X92148952Y-53210941D01*
X92061399Y-53341973D01*
X91949973Y-53453399D01*
X91818941Y-53540952D01*
X91673352Y-53601257D01*
X91518795Y-53632000D01*
X91361205Y-53632000D01*
X91206648Y-53601257D01*
X91061059Y-53540952D01*
X90930027Y-53453399D01*
X90818601Y-53341973D01*
X90731048Y-53210941D01*
X90670743Y-53065352D01*
X90640000Y-52910795D01*
X90640000Y-52753205D01*
X90670743Y-52598648D01*
X90731048Y-52453059D01*
X90818601Y-52322027D01*
X90930027Y-52210601D01*
X91061059Y-52123048D01*
X91206648Y-52062743D01*
X91361205Y-52032000D01*
X91518795Y-52032000D01*
X91673352Y-52062743D01*
X91673352Y-52062743D01*
G37*
G36*
X52698348Y-49406597D02*
X52756858Y-49424347D01*
X52810777Y-49453167D01*
X52858043Y-49491957D01*
X52896833Y-49539223D01*
X52925653Y-49593142D01*
X52943403Y-49651652D01*
X52950000Y-49718639D01*
X52950000Y-50581361D01*
X52943403Y-50648348D01*
X52925653Y-50706858D01*
X52896833Y-50760777D01*
X52858043Y-50808043D01*
X52810777Y-50846833D01*
X52756858Y-50875653D01*
X52698348Y-50893403D01*
X52631361Y-50900000D01*
X50868639Y-50900000D01*
X50801652Y-50893403D01*
X50743142Y-50875653D01*
X50689223Y-50846833D01*
X50641957Y-50808043D01*
X50603167Y-50760777D01*
X50574347Y-50706858D01*
X50556597Y-50648348D01*
X50550000Y-50581361D01*
X50550000Y-49718639D01*
X50556597Y-49651652D01*
X50574347Y-49593142D01*
X50603167Y-49539223D01*
X50641957Y-49491957D01*
X50689223Y-49453167D01*
X50743142Y-49424347D01*
X50801652Y-49406597D01*
X50868639Y-49400000D01*
X52631361Y-49400000D01*
X52698348Y-49406597D01*
X52698348Y-49406597D01*
G37*
G36*
X55998348Y-49406597D02*
X56056858Y-49424347D01*
X56110777Y-49453167D01*
X56158043Y-49491957D01*
X56196833Y-49539223D01*
X56225653Y-49593142D01*
X56243403Y-49651652D01*
X56250000Y-49718639D01*
X56250000Y-50581361D01*
X56243403Y-50648348D01*
X56225653Y-50706858D01*
X56196833Y-50760777D01*
X56158043Y-50808043D01*
X56110777Y-50846833D01*
X56056858Y-50875653D01*
X55998348Y-50893403D01*
X55931361Y-50900000D01*
X54168639Y-50900000D01*
X54101652Y-50893403D01*
X54043142Y-50875653D01*
X53989223Y-50846833D01*
X53941957Y-50808043D01*
X53903167Y-50760777D01*
X53874347Y-50706858D01*
X53856597Y-50648348D01*
X53850000Y-50581361D01*
X53850000Y-49718639D01*
X53856597Y-49651652D01*
X53874347Y-49593142D01*
X53903167Y-49539223D01*
X53941957Y-49491957D01*
X53989223Y-49453167D01*
X54043142Y-49424347D01*
X54101652Y-49406597D01*
X54168639Y-49400000D01*
X55931361Y-49400000D01*
X55998348Y-49406597D01*
X55998348Y-49406597D01*
G37*
G36*
X96645888Y-46634470D02*
X96826274Y-46670350D01*
X97017362Y-46749502D01*
X97189336Y-46864411D01*
X97335589Y-47010664D01*
X97450498Y-47182638D01*
X97529650Y-47373726D01*
X97570000Y-47576584D01*
X97570000Y-47783416D01*
X97529650Y-47986274D01*
X97450498Y-48177362D01*
X97335589Y-48349336D01*
X97189336Y-48495589D01*
X97017362Y-48610498D01*
X96826274Y-48689650D01*
X96645888Y-48725530D01*
X96623417Y-48730000D01*
X96416583Y-48730000D01*
X96394112Y-48725530D01*
X96213726Y-48689650D01*
X96022638Y-48610498D01*
X95850664Y-48495589D01*
X95704411Y-48349336D01*
X95589502Y-48177362D01*
X95510350Y-47986274D01*
X95470000Y-47783416D01*
X95470000Y-47576584D01*
X95510350Y-47373726D01*
X95589502Y-47182638D01*
X95704411Y-47010664D01*
X95850664Y-46864411D01*
X96022638Y-46749502D01*
X96213726Y-46670350D01*
X96394112Y-46634470D01*
X96416583Y-46630000D01*
X96623417Y-46630000D01*
X96645888Y-46634470D01*
X96645888Y-46634470D01*
G37*
G36*
X103145888Y-46634470D02*
X103326274Y-46670350D01*
X103517362Y-46749502D01*
X103689336Y-46864411D01*
X103835589Y-47010664D01*
X103950498Y-47182638D01*
X104029650Y-47373726D01*
X104070000Y-47576584D01*
X104070000Y-47783416D01*
X104029650Y-47986274D01*
X103950498Y-48177362D01*
X103835589Y-48349336D01*
X103689336Y-48495589D01*
X103517362Y-48610498D01*
X103326274Y-48689650D01*
X103145888Y-48725530D01*
X103123417Y-48730000D01*
X102916583Y-48730000D01*
X102894112Y-48725530D01*
X102713726Y-48689650D01*
X102522638Y-48610498D01*
X102350664Y-48495589D01*
X102204411Y-48349336D01*
X102089502Y-48177362D01*
X102010350Y-47986274D01*
X101970000Y-47783416D01*
X101970000Y-47576584D01*
X102010350Y-47373726D01*
X102089502Y-47182638D01*
X102204411Y-47010664D01*
X102350664Y-46864411D01*
X102522638Y-46749502D01*
X102713726Y-46670350D01*
X102894112Y-46634470D01*
X102916583Y-46630000D01*
X103123417Y-46630000D01*
X103145888Y-46634470D01*
X103145888Y-46634470D01*
G37*
G36*
X110335443Y-44394194D02*
X110544728Y-44480883D01*
X110733085Y-44606739D01*
X110893261Y-44766915D01*
X111019117Y-44955272D01*
X111105806Y-45164557D01*
X111150000Y-45386734D01*
X111150000Y-45613266D01*
X111105806Y-45835443D01*
X111019117Y-46044728D01*
X110893261Y-46233085D01*
X110733085Y-46393261D01*
X110544728Y-46519117D01*
X110335443Y-46605806D01*
X110113266Y-46650000D01*
X109886734Y-46650000D01*
X109664557Y-46605806D01*
X109455272Y-46519117D01*
X109266915Y-46393261D01*
X109106739Y-46233085D01*
X108980883Y-46044728D01*
X108894194Y-45835443D01*
X108850000Y-45613266D01*
X108850000Y-45386734D01*
X108894194Y-45164557D01*
X108980883Y-44955272D01*
X109106739Y-44766915D01*
X109266915Y-44606739D01*
X109455272Y-44480883D01*
X109664557Y-44394194D01*
X109886734Y-44350000D01*
X110113266Y-44350000D01*
X110335443Y-44394194D01*
X110335443Y-44394194D01*
G37*
G36*
X96645888Y-42134470D02*
X96826274Y-42170350D01*
X97017362Y-42249502D01*
X97189336Y-42364411D01*
X97335589Y-42510664D01*
X97450498Y-42682638D01*
X97529650Y-42873726D01*
X97570000Y-43076584D01*
X97570000Y-43283416D01*
X97529650Y-43486274D01*
X97450498Y-43677362D01*
X97335589Y-43849336D01*
X97189336Y-43995589D01*
X97017362Y-44110498D01*
X96826274Y-44189650D01*
X96645888Y-44225530D01*
X96623417Y-44230000D01*
X96416583Y-44230000D01*
X96394112Y-44225530D01*
X96213726Y-44189650D01*
X96022638Y-44110498D01*
X95850664Y-43995589D01*
X95704411Y-43849336D01*
X95589502Y-43677362D01*
X95510350Y-43486274D01*
X95470000Y-43283416D01*
X95470000Y-43076584D01*
X95510350Y-42873726D01*
X95589502Y-42682638D01*
X95704411Y-42510664D01*
X95850664Y-42364411D01*
X96022638Y-42249502D01*
X96213726Y-42170350D01*
X96394112Y-42134470D01*
X96416583Y-42130000D01*
X96623417Y-42130000D01*
X96645888Y-42134470D01*
X96645888Y-42134470D01*
G37*
G36*
X103145888Y-42134470D02*
X103326274Y-42170350D01*
X103517362Y-42249502D01*
X103689336Y-42364411D01*
X103835589Y-42510664D01*
X103950498Y-42682638D01*
X104029650Y-42873726D01*
X104070000Y-43076584D01*
X104070000Y-43283416D01*
X104029650Y-43486274D01*
X103950498Y-43677362D01*
X103835589Y-43849336D01*
X103689336Y-43995589D01*
X103517362Y-44110498D01*
X103326274Y-44189650D01*
X103145888Y-44225530D01*
X103123417Y-44230000D01*
X102916583Y-44230000D01*
X102894112Y-44225530D01*
X102713726Y-44189650D01*
X102522638Y-44110498D01*
X102350664Y-43995589D01*
X102204411Y-43849336D01*
X102089502Y-43677362D01*
X102010350Y-43486274D01*
X101970000Y-43283416D01*
X101970000Y-43076584D01*
X102010350Y-42873726D01*
X102089502Y-42682638D01*
X102204411Y-42510664D01*
X102350664Y-42364411D01*
X102522638Y-42249502D01*
X102713726Y-42170350D01*
X102894112Y-42134470D01*
X102916583Y-42130000D01*
X103123417Y-42130000D01*
X103145888Y-42134470D01*
X103145888Y-42134470D01*
G37*
G36*
X56085443Y-40894194D02*
X56294728Y-40980883D01*
X56483085Y-41106739D01*
X56643261Y-41266915D01*
X56769117Y-41455272D01*
X56855806Y-41664557D01*
X56900000Y-41886734D01*
X56900000Y-42113266D01*
X56855806Y-42335443D01*
X56769117Y-42544728D01*
X56643261Y-42733085D01*
X56483085Y-42893261D01*
X56294728Y-43019117D01*
X56085443Y-43105806D01*
X55863266Y-43150000D01*
X55636734Y-43150000D01*
X55414557Y-43105806D01*
X55205272Y-43019117D01*
X55016915Y-42893261D01*
X54856739Y-42733085D01*
X54730883Y-42544728D01*
X54644194Y-42335443D01*
X54600000Y-42113266D01*
X54600000Y-41886734D01*
X54644194Y-41664557D01*
X54730883Y-41455272D01*
X54856739Y-41266915D01*
X55016915Y-41106739D01*
X55205272Y-40980883D01*
X55414557Y-40894194D01*
X55636734Y-40850000D01*
X55863266Y-40850000D01*
X56085443Y-40894194D01*
X56085443Y-40894194D01*
G37*
G36*
X75256432Y-41113022D02*
X75426081Y-41164485D01*
X75582433Y-41248056D01*
X75719475Y-41360525D01*
X75831944Y-41497567D01*
X75915515Y-41653919D01*
X75966978Y-41823568D01*
X75984354Y-42000000D01*
X75966978Y-42176432D01*
X75915515Y-42346081D01*
X75831944Y-42502433D01*
X75719475Y-42639475D01*
X75582433Y-42751944D01*
X75426081Y-42835515D01*
X75256432Y-42886978D01*
X75124211Y-42900000D01*
X75035789Y-42900000D01*
X74903568Y-42886978D01*
X74733919Y-42835515D01*
X74577567Y-42751944D01*
X74440525Y-42639475D01*
X74328056Y-42502433D01*
X74244485Y-42346081D01*
X74193022Y-42176432D01*
X74175646Y-42000000D01*
X74193022Y-41823568D01*
X74244485Y-41653919D01*
X74328056Y-41497567D01*
X74440525Y-41360525D01*
X74577567Y-41248056D01*
X74733919Y-41164485D01*
X74903568Y-41113022D01*
X75035789Y-41100000D01*
X75124211Y-41100000D01*
X75256432Y-41113022D01*
X75256432Y-41113022D01*
G37*
G36*
X72716432Y-41113022D02*
X72886081Y-41164485D01*
X73042433Y-41248056D01*
X73179475Y-41360525D01*
X73291944Y-41497567D01*
X73375515Y-41653919D01*
X73426978Y-41823568D01*
X73444354Y-42000000D01*
X73426978Y-42176432D01*
X73375515Y-42346081D01*
X73291944Y-42502433D01*
X73179475Y-42639475D01*
X73042433Y-42751944D01*
X72886081Y-42835515D01*
X72716432Y-42886978D01*
X72584211Y-42900000D01*
X72495789Y-42900000D01*
X72363568Y-42886978D01*
X72193919Y-42835515D01*
X72037567Y-42751944D01*
X71900525Y-42639475D01*
X71788056Y-42502433D01*
X71704485Y-42346081D01*
X71653022Y-42176432D01*
X71635646Y-42000000D01*
X71653022Y-41823568D01*
X71704485Y-41653919D01*
X71788056Y-41497567D01*
X71900525Y-41360525D01*
X72037567Y-41248056D01*
X72193919Y-41164485D01*
X72363568Y-41113022D01*
X72495789Y-41100000D01*
X72584211Y-41100000D01*
X72716432Y-41113022D01*
X72716432Y-41113022D01*
G37*
G36*
X77796432Y-41113022D02*
X77966081Y-41164485D01*
X78122433Y-41248056D01*
X78259475Y-41360525D01*
X78371944Y-41497567D01*
X78455515Y-41653919D01*
X78506978Y-41823568D01*
X78524354Y-42000000D01*
X78506978Y-42176432D01*
X78455515Y-42346081D01*
X78371944Y-42502433D01*
X78259475Y-42639475D01*
X78122433Y-42751944D01*
X77966081Y-42835515D01*
X77796432Y-42886978D01*
X77664211Y-42900000D01*
X77575789Y-42900000D01*
X77443568Y-42886978D01*
X77273919Y-42835515D01*
X77117567Y-42751944D01*
X76980525Y-42639475D01*
X76868056Y-42502433D01*
X76784485Y-42346081D01*
X76733022Y-42176432D01*
X76715646Y-42000000D01*
X76733022Y-41823568D01*
X76784485Y-41653919D01*
X76868056Y-41497567D01*
X76980525Y-41360525D01*
X77117567Y-41248056D01*
X77273919Y-41164485D01*
X77443568Y-41113022D01*
X77575789Y-41100000D01*
X77664211Y-41100000D01*
X77796432Y-41113022D01*
X77796432Y-41113022D01*
G37*
G36*
X70176432Y-41113022D02*
X70346081Y-41164485D01*
X70502433Y-41248056D01*
X70639475Y-41360525D01*
X70751944Y-41497567D01*
X70835515Y-41653919D01*
X70886978Y-41823568D01*
X70904354Y-42000000D01*
X70886978Y-42176432D01*
X70835515Y-42346081D01*
X70751944Y-42502433D01*
X70639475Y-42639475D01*
X70502433Y-42751944D01*
X70346081Y-42835515D01*
X70176432Y-42886978D01*
X70044211Y-42900000D01*
X69955789Y-42900000D01*
X69823568Y-42886978D01*
X69653919Y-42835515D01*
X69497567Y-42751944D01*
X69360525Y-42639475D01*
X69248056Y-42502433D01*
X69164485Y-42346081D01*
X69113022Y-42176432D01*
X69095646Y-42000000D01*
X69113022Y-41823568D01*
X69164485Y-41653919D01*
X69248056Y-41497567D01*
X69360525Y-41360525D01*
X69497567Y-41248056D01*
X69653919Y-41164485D01*
X69823568Y-41113022D01*
X69955789Y-41100000D01*
X70044211Y-41100000D01*
X70176432Y-41113022D01*
X70176432Y-41113022D01*
G37*
G36*
X67636432Y-41113022D02*
X67806081Y-41164485D01*
X67962433Y-41248056D01*
X68099475Y-41360525D01*
X68211944Y-41497567D01*
X68295515Y-41653919D01*
X68346978Y-41823568D01*
X68364354Y-42000000D01*
X68346978Y-42176432D01*
X68295515Y-42346081D01*
X68211944Y-42502433D01*
X68099475Y-42639475D01*
X67962433Y-42751944D01*
X67806081Y-42835515D01*
X67636432Y-42886978D01*
X67504211Y-42900000D01*
X67415789Y-42900000D01*
X67283568Y-42886978D01*
X67113919Y-42835515D01*
X66957567Y-42751944D01*
X66820525Y-42639475D01*
X66708056Y-42502433D01*
X66624485Y-42346081D01*
X66573022Y-42176432D01*
X66555646Y-42000000D01*
X66573022Y-41823568D01*
X66624485Y-41653919D01*
X66708056Y-41497567D01*
X66820525Y-41360525D01*
X66957567Y-41248056D01*
X67113919Y-41164485D01*
X67283568Y-41113022D01*
X67415789Y-41100000D01*
X67504211Y-41100000D01*
X67636432Y-41113022D01*
X67636432Y-41113022D01*
G37*
G36*
X65096432Y-41113022D02*
X65266081Y-41164485D01*
X65422433Y-41248056D01*
X65559475Y-41360525D01*
X65671944Y-41497567D01*
X65755515Y-41653919D01*
X65806978Y-41823568D01*
X65824354Y-42000000D01*
X65806978Y-42176432D01*
X65755515Y-42346081D01*
X65671944Y-42502433D01*
X65559475Y-42639475D01*
X65422433Y-42751944D01*
X65266081Y-42835515D01*
X65096432Y-42886978D01*
X64964211Y-42900000D01*
X64875789Y-42900000D01*
X64743568Y-42886978D01*
X64573919Y-42835515D01*
X64417567Y-42751944D01*
X64280525Y-42639475D01*
X64168056Y-42502433D01*
X64084485Y-42346081D01*
X64033022Y-42176432D01*
X64015646Y-42000000D01*
X64033022Y-41823568D01*
X64084485Y-41653919D01*
X64168056Y-41497567D01*
X64280525Y-41360525D01*
X64417567Y-41248056D01*
X64573919Y-41164485D01*
X64743568Y-41113022D01*
X64875789Y-41100000D01*
X64964211Y-41100000D01*
X65096432Y-41113022D01*
X65096432Y-41113022D01*
G37*
G36*
X63280000Y-42900000D02*
X61480000Y-42900000D01*
X61480000Y-41100000D01*
X63280000Y-41100000D01*
X63280000Y-42900000D01*
X63280000Y-42900000D01*
G37*
G36*
X60590000Y-42900000D02*
X58790000Y-42900000D01*
X58790000Y-41100000D01*
X60590000Y-41100000D01*
X60590000Y-42900000D01*
X60590000Y-42900000D01*
G37*
G36*
X52970000Y-42900000D02*
X51170000Y-42900000D01*
X51170000Y-41100000D01*
X52970000Y-41100000D01*
X52970000Y-42900000D01*
X52970000Y-42900000D01*
G37*
M02*
