G04 #@! TF.FileFunction,Copper,L1,Top,Signal*
%FSLAX46Y46*%
G04 Gerber Fmt 4.6, Leading zero omitted, Abs format (unit mm)*
G04 Created by KiCad (PCBNEW 4.0.7) date 07/09/18 21:34:00*
%MOMM*%
%LPD*%
G01*
G04 APERTURE LIST*
%ADD10C,0.100000*%
%ADD11R,3.200000X1.500000*%
%ADD12R,1.000000X1.000000*%
%ADD13O,1.000000X1.000000*%
%ADD14R,1.250000X1.500000*%
%ADD15R,1.700000X1.700000*%
%ADD16O,1.700000X1.700000*%
%ADD17R,1.500000X1.250000*%
%ADD18R,1.500000X3.200000*%
%ADD19R,1.500000X1.300000*%
%ADD20R,2.000000X0.400000*%
%ADD21R,1.600000X2.100000*%
%ADD22R,1.900000X1.900000*%
%ADD23R,2.500000X2.000000*%
%ADD24R,0.800000X1.900000*%
%ADD25R,1.300000X1.500000*%
%ADD26R,0.500000X0.800000*%
%ADD27R,0.400000X0.800000*%
%ADD28C,2.000000*%
%ADD29R,1.300000X0.250000*%
%ADD30R,0.250000X1.300000*%
%ADD31R,0.650000X1.560000*%
%ADD32R,1.560000X0.650000*%
%ADD33C,1.500000*%
%ADD34R,1.400000X2.200000*%
%ADD35R,2.000000X1.700000*%
%ADD36R,3.500000X1.800000*%
%ADD37R,2.300000X3.500000*%
%ADD38C,0.600000*%
%ADD39C,0.203000*%
%ADD40C,0.220000*%
%ADD41C,0.152000*%
%ADD42C,0.254000*%
G04 APERTURE END LIST*
D10*
X112000000Y-40000000D02*
X50000000Y-40000000D01*
X112000000Y-82000000D02*
X112000000Y-40000000D01*
X50000000Y-82000000D02*
X112000000Y-82000000D01*
X50000000Y-40000000D02*
X50000000Y-82000000D01*
D11*
X81800000Y-70800000D03*
X85800000Y-70800000D03*
D12*
X60000000Y-75000000D03*
D13*
X60000000Y-76270000D03*
X58730000Y-75000000D03*
X58730000Y-76270000D03*
X57460000Y-75000000D03*
X57460000Y-76270000D03*
X56190000Y-75000000D03*
X56190000Y-76270000D03*
X54920000Y-75000000D03*
X54920000Y-76270000D03*
D14*
X73500000Y-58250000D03*
X73500000Y-60750000D03*
D15*
X61000000Y-70540000D03*
D16*
X61000000Y-68000000D03*
X61000000Y-65460000D03*
X61000000Y-62920000D03*
D17*
X89250000Y-47500000D03*
X86750000Y-47500000D03*
X89250000Y-52500000D03*
X86750000Y-52500000D03*
X88500000Y-60500000D03*
X86000000Y-60500000D03*
X88500000Y-57250000D03*
X86000000Y-57250000D03*
D14*
X82250000Y-61000000D03*
X82250000Y-63500000D03*
X51500000Y-44750000D03*
X51500000Y-47250000D03*
X57500000Y-47250000D03*
X57500000Y-44750000D03*
X65000000Y-71000000D03*
X65000000Y-68500000D03*
X72500000Y-68500000D03*
X72500000Y-71000000D03*
D18*
X95000000Y-75500000D03*
X95000000Y-79500000D03*
D19*
X98650000Y-80000000D03*
X101350000Y-80000000D03*
X103400000Y-80000000D03*
X106100000Y-80000000D03*
X108150000Y-80000000D03*
X110850000Y-80000000D03*
D12*
X78000000Y-75000000D03*
D13*
X78000000Y-76270000D03*
X76730000Y-75000000D03*
X76730000Y-76270000D03*
X75460000Y-75000000D03*
X75460000Y-76270000D03*
X74190000Y-75000000D03*
X74190000Y-76270000D03*
X72920000Y-75000000D03*
X72920000Y-76270000D03*
D15*
X53960000Y-42000000D03*
D16*
X56500000Y-42000000D03*
D20*
X55500000Y-55950000D03*
X55500000Y-55300000D03*
X55500000Y-54650000D03*
X55500000Y-54000000D03*
D21*
X55050000Y-57750000D03*
X55050000Y-51550000D03*
D22*
X52500000Y-58500000D03*
X52500000Y-50800000D03*
X52500000Y-53450000D03*
X52500000Y-55850000D03*
D20*
X55500000Y-53350000D03*
D23*
X91500000Y-76750000D03*
X91500000Y-72750000D03*
D24*
X64075000Y-47450000D03*
X65975000Y-47450000D03*
X65025000Y-44450000D03*
D25*
X110000000Y-68800000D03*
X110000000Y-71500000D03*
X86400000Y-78100000D03*
X86400000Y-80800000D03*
D19*
X74300000Y-47000000D03*
X77000000Y-47000000D03*
X62650000Y-55325000D03*
X65350000Y-55325000D03*
X62650000Y-53325000D03*
X65350000Y-53325000D03*
X67500000Y-56500000D03*
X70200000Y-56500000D03*
X67400000Y-52250000D03*
X70100000Y-52250000D03*
D26*
X98500000Y-70200000D03*
D27*
X96900000Y-70200000D03*
X97700000Y-70200000D03*
D26*
X96100000Y-70200000D03*
D27*
X97700000Y-72000000D03*
D26*
X98500000Y-72000000D03*
D27*
X96900000Y-72000000D03*
D26*
X96100000Y-72000000D03*
D28*
X101000000Y-52500000D03*
X101000000Y-48000000D03*
X107500000Y-52500000D03*
X107500000Y-48000000D03*
X101000000Y-72500000D03*
X101000000Y-68000000D03*
X107500000Y-72500000D03*
X107500000Y-68000000D03*
D29*
X84000000Y-57500000D03*
X84000000Y-57000000D03*
X84000000Y-56500000D03*
X84000000Y-56000000D03*
X84000000Y-55500000D03*
X84000000Y-55000000D03*
X84000000Y-54500000D03*
X84000000Y-54000000D03*
X84000000Y-53500000D03*
X84000000Y-53000000D03*
X84000000Y-52500000D03*
X84000000Y-52000000D03*
D30*
X82400000Y-50400000D03*
X81900000Y-50400000D03*
X81400000Y-50400000D03*
X80900000Y-50400000D03*
X80400000Y-50400000D03*
X79900000Y-50400000D03*
X79400000Y-50400000D03*
X78900000Y-50400000D03*
X78400000Y-50400000D03*
X77900000Y-50400000D03*
X77400000Y-50400000D03*
X76900000Y-50400000D03*
D29*
X75300000Y-52000000D03*
X75300000Y-52500000D03*
X75300000Y-53000000D03*
X75300000Y-53500000D03*
X75300000Y-54000000D03*
X75300000Y-54500000D03*
X75300000Y-55000000D03*
X75300000Y-55500000D03*
X75300000Y-56000000D03*
X75300000Y-56500000D03*
X75300000Y-57000000D03*
X75300000Y-57500000D03*
D30*
X76900000Y-59100000D03*
X77400000Y-59100000D03*
X77900000Y-59100000D03*
X78400000Y-59100000D03*
X78900000Y-59100000D03*
X79400000Y-59100000D03*
X79900000Y-59100000D03*
X80400000Y-59100000D03*
X80900000Y-59100000D03*
X81400000Y-59100000D03*
X81900000Y-59100000D03*
X82400000Y-59100000D03*
D31*
X55500000Y-44800000D03*
X54550000Y-44800000D03*
X53600000Y-44800000D03*
X53600000Y-47500000D03*
X55500000Y-47500000D03*
D32*
X67650000Y-69050000D03*
X67650000Y-70000000D03*
X67650000Y-70950000D03*
X70350000Y-70950000D03*
X70350000Y-69050000D03*
X88300000Y-79100000D03*
X88300000Y-80050000D03*
X88300000Y-81000000D03*
X91000000Y-81000000D03*
X91000000Y-79100000D03*
D15*
X62380000Y-42000000D03*
D16*
X64920000Y-42000000D03*
X67460000Y-42000000D03*
X70000000Y-42000000D03*
X72540000Y-42000000D03*
X75080000Y-42000000D03*
X77620000Y-42000000D03*
D33*
X93000000Y-47520000D03*
X93000000Y-52400000D03*
D34*
X96250000Y-60450000D03*
X96250000Y-57250000D03*
X90750000Y-57250000D03*
X90750000Y-60450000D03*
D17*
X77000000Y-48750000D03*
X74500000Y-48750000D03*
X86750000Y-50750000D03*
X89250000Y-50750000D03*
D26*
X78000000Y-66000000D03*
D27*
X76400000Y-66000000D03*
X77200000Y-66000000D03*
D26*
X75600000Y-66000000D03*
D27*
X77200000Y-67800000D03*
D26*
X78000000Y-67800000D03*
D27*
X76400000Y-67800000D03*
D26*
X75600000Y-67800000D03*
X79800000Y-67800000D03*
D27*
X81400000Y-67800000D03*
X80600000Y-67800000D03*
D26*
X82200000Y-67800000D03*
D27*
X80600000Y-66000000D03*
D26*
X79800000Y-66000000D03*
D27*
X81400000Y-66000000D03*
D26*
X82200000Y-66000000D03*
D35*
X86400000Y-76200000D03*
X82400000Y-76200000D03*
X71000000Y-75200000D03*
X67000000Y-75200000D03*
D36*
X81800000Y-73800000D03*
X86800000Y-73800000D03*
D37*
X65500000Y-65200000D03*
X65500000Y-59800000D03*
X70000000Y-65100000D03*
X70000000Y-59700000D03*
D38*
X84800000Y-79600000D03*
X84600000Y-80800000D03*
X83800000Y-69200000D03*
X85800000Y-69400000D03*
X70960010Y-70000000D03*
X81015906Y-63483377D03*
X87000000Y-60500000D03*
X73750000Y-50750000D03*
X75000000Y-50750000D03*
X59250000Y-46250000D03*
X59250000Y-43000000D03*
X59250000Y-44750000D03*
X77393977Y-52250342D03*
X79000000Y-52250000D03*
X57500000Y-55500000D03*
X52750000Y-47500000D03*
X80721969Y-61750000D03*
X85500000Y-58500000D03*
X66375000Y-70000000D03*
X63500000Y-69000000D03*
X66500000Y-68000000D03*
X57500000Y-58750000D03*
X57500000Y-57000000D03*
X56750000Y-57750000D03*
X54500000Y-49250000D03*
X54500000Y-46250000D03*
X87000000Y-46000000D03*
X85250000Y-46000000D03*
X85250000Y-47500000D03*
X85250000Y-49000000D03*
X87000000Y-49000000D03*
X85500000Y-54500000D03*
X72250000Y-62750000D03*
X72500000Y-64000000D03*
X73500000Y-62500000D03*
X74000000Y-56999998D03*
X72500000Y-48750000D03*
X91250000Y-48750000D03*
X91750000Y-50750000D03*
X109250000Y-74250000D03*
X110750000Y-74250000D03*
X110000000Y-73500000D03*
X96750000Y-81000000D03*
X96750000Y-79500000D03*
X92750000Y-81000000D03*
X92750000Y-80000000D03*
X91000000Y-80000000D03*
X68200000Y-75200000D03*
X68600000Y-71800000D03*
X81771920Y-57406018D03*
X73250000Y-65750000D03*
X72500000Y-67000000D03*
X105750000Y-67250000D03*
X101250000Y-76000000D03*
X79250000Y-55500000D03*
X79250000Y-57000000D03*
X75000000Y-58000000D03*
X83000000Y-59000000D03*
X82000000Y-54750000D03*
X63400000Y-60800000D03*
X67200000Y-60800000D03*
X79000000Y-62000000D03*
X81750000Y-52500000D03*
X79486979Y-62805115D03*
X78250000Y-61500000D03*
X76730376Y-62294159D03*
X77600000Y-64200000D03*
X76500000Y-57250000D03*
X75750000Y-58500000D03*
X75000000Y-78093042D03*
X77598490Y-63166932D03*
X76933714Y-61520420D03*
X74389996Y-59575984D03*
X76916032Y-60250000D03*
X88750000Y-55000000D03*
X82000000Y-53500000D03*
X92250000Y-57000000D03*
X92750000Y-58500000D03*
X84400000Y-76000000D03*
X84400000Y-74000000D03*
X81110010Y-60689414D03*
X81000000Y-54250000D03*
X88500000Y-69500000D03*
X88500000Y-71000000D03*
X72867059Y-56429518D03*
X77806343Y-56389990D03*
X81351510Y-55980337D03*
X83448489Y-59994438D03*
X82708754Y-56601963D03*
X83806343Y-60943657D03*
X88750000Y-59000000D03*
X87000000Y-59000000D03*
X75500000Y-43425000D03*
X78825000Y-43400000D03*
X76756407Y-73579983D03*
X78589171Y-73939835D03*
X76556937Y-77690012D03*
X75484430Y-73176978D03*
X74752607Y-72592470D03*
X78750000Y-72500000D03*
X74000000Y-78500000D03*
X74000000Y-72000000D03*
D39*
X89250000Y-47500000D02*
X92980000Y-47500000D01*
X92980000Y-47500000D02*
X93000000Y-47520000D01*
X88198499Y-49629501D02*
X89250000Y-48578000D01*
X89250000Y-48578000D02*
X89250000Y-47500000D01*
X88198499Y-52969203D02*
X88198499Y-49629501D01*
X86066200Y-55101502D02*
X88198499Y-52969203D01*
X85211278Y-55101502D02*
X86066200Y-55101502D01*
X84000000Y-55000000D02*
X85109776Y-55000000D01*
X85109776Y-55000000D02*
X85211278Y-55101502D01*
D40*
X86400000Y-80800000D02*
X84600000Y-80800000D01*
X85800000Y-70800000D02*
X84950000Y-70800000D01*
X85800000Y-70800000D02*
X85800000Y-69400000D01*
X71625000Y-70000000D02*
X71384274Y-70000000D01*
X72500000Y-71000000D02*
X72500000Y-70875000D01*
X72500000Y-70875000D02*
X71625000Y-70000000D01*
X71384274Y-70000000D02*
X70960010Y-70000000D01*
X80721969Y-61750000D02*
X80721969Y-62740005D01*
X80721969Y-62740005D02*
X81015906Y-63033942D01*
X81015906Y-63033942D02*
X81015906Y-63059113D01*
X81015906Y-63059113D02*
X81015906Y-63483377D01*
X81032529Y-63500000D02*
X81015906Y-63483377D01*
X82250000Y-63500000D02*
X81032529Y-63500000D01*
X87000000Y-60500000D02*
X86000000Y-60500000D01*
X74500000Y-48750000D02*
X74500000Y-50250000D01*
X74500000Y-50250000D02*
X75000000Y-50750000D01*
X59250000Y-44750000D02*
X59250000Y-46250000D01*
X57500000Y-44750000D02*
X59250000Y-44750000D01*
X78900000Y-50400000D02*
X78900000Y-52150000D01*
X78900000Y-52150000D02*
X79000000Y-52250000D01*
X77400000Y-52244319D02*
X77393977Y-52250342D01*
X77400000Y-50400000D02*
X77400000Y-52244319D01*
X55500000Y-55950000D02*
X57050000Y-55950000D01*
X57050000Y-55950000D02*
X57500000Y-55500000D01*
X55500000Y-55300000D02*
X57300000Y-55300000D01*
X57300000Y-55300000D02*
X57500000Y-55500000D01*
X51500000Y-47250000D02*
X52500000Y-47250000D01*
X52500000Y-47250000D02*
X52750000Y-47500000D01*
X80630000Y-58000000D02*
X81633002Y-58000000D01*
X81633002Y-58000000D02*
X81900000Y-58266998D01*
X81900000Y-58266998D02*
X81900000Y-59100000D01*
X80400000Y-59100000D02*
X80400000Y-58230000D01*
X80400000Y-58230000D02*
X80630000Y-58000000D01*
X80400000Y-59100000D02*
X80400000Y-61428031D01*
X80400000Y-61428031D02*
X80721969Y-61750000D01*
X86000000Y-58000000D02*
X85500000Y-58500000D01*
X86000000Y-57250000D02*
X86000000Y-58000000D01*
X67650000Y-70000000D02*
X66375000Y-70000000D01*
X65000000Y-68500000D02*
X64000000Y-68500000D01*
X64000000Y-68500000D02*
X63500000Y-69000000D01*
X65000000Y-68500000D02*
X66000000Y-68500000D01*
X66000000Y-68500000D02*
X66500000Y-68000000D01*
X66375000Y-70000000D02*
X65000000Y-68625000D01*
X65000000Y-68625000D02*
X65000000Y-68500000D01*
X57500000Y-57000000D02*
X57500000Y-58750000D01*
X55050000Y-57750000D02*
X56750000Y-57750000D01*
X52500000Y-58500000D02*
X54300000Y-58500000D01*
X54300000Y-58500000D02*
X55050000Y-57750000D01*
X55050000Y-51550000D02*
X55050000Y-49800000D01*
X55050000Y-49800000D02*
X54500000Y-49250000D01*
X52500000Y-50800000D02*
X54300000Y-50800000D01*
X54300000Y-50800000D02*
X55050000Y-51550000D01*
X54550000Y-44800000D02*
X54550000Y-46200000D01*
X54550000Y-46200000D02*
X54500000Y-46250000D01*
X51500000Y-47250000D02*
X51500000Y-47125000D01*
X51500000Y-47125000D02*
X52345000Y-46280000D01*
X54550000Y-45800000D02*
X54550000Y-44800000D01*
X52345000Y-46280000D02*
X54070000Y-46280000D01*
X54070000Y-46280000D02*
X54550000Y-45800000D01*
X85250000Y-46000000D02*
X87000000Y-46000000D01*
X85250000Y-49000000D02*
X85250000Y-47500000D01*
X87000000Y-47500000D02*
X87000000Y-49000000D01*
X85500000Y-54500000D02*
X85000000Y-54000000D01*
X85000000Y-54000000D02*
X84000000Y-54000000D01*
X86095000Y-54000000D02*
X86000000Y-54000000D01*
X86000000Y-54000000D02*
X85500000Y-54500000D01*
X84000000Y-54000000D02*
X86095000Y-54000000D01*
X86095000Y-54000000D02*
X86750000Y-53345000D01*
X86750000Y-53345000D02*
X86750000Y-52500000D01*
X72500000Y-64000000D02*
X72500000Y-63000000D01*
X72500000Y-63000000D02*
X72250000Y-62750000D01*
X73500000Y-60750000D02*
X73500000Y-62500000D01*
X75300000Y-57000000D02*
X74000002Y-57000000D01*
X74000002Y-57000000D02*
X74000000Y-56999998D01*
X74500000Y-48750000D02*
X72500000Y-48750000D01*
X89250000Y-50750000D02*
X91750000Y-50750000D01*
X110000000Y-73500000D02*
X110750000Y-74250000D01*
X110000000Y-71500000D02*
X110000000Y-73500000D01*
X95000000Y-79500000D02*
X96750000Y-79500000D01*
X92750000Y-80000000D02*
X92750000Y-81000000D01*
X91000000Y-81000000D02*
X91000000Y-80000000D01*
X56500000Y-42000000D02*
X54550000Y-43950000D01*
X54550000Y-43950000D02*
X54550000Y-44800000D01*
D39*
X84857513Y-55504513D02*
X87073487Y-55504513D01*
X84853000Y-55500000D02*
X84857513Y-55504513D01*
X84000000Y-55500000D02*
X84853000Y-55500000D01*
X89250000Y-53328000D02*
X89250000Y-52500000D01*
X87073487Y-55504513D02*
X89250000Y-53328000D01*
X89250000Y-52500000D02*
X92900000Y-52500000D01*
X92900000Y-52500000D02*
X93000000Y-52400000D01*
X88500000Y-60500000D02*
X90700000Y-60500000D01*
X90700000Y-60500000D02*
X90750000Y-60450000D01*
X88500000Y-59609776D02*
X88500000Y-60500000D01*
X85029501Y-56323499D02*
X84853000Y-56500000D01*
X87051501Y-56383799D02*
X86991201Y-56323499D01*
X87051501Y-58161277D02*
X87051501Y-56383799D01*
X84853000Y-56500000D02*
X84000000Y-56500000D01*
X86991201Y-56323499D02*
X85029501Y-56323499D01*
X88500000Y-59609776D02*
X87051501Y-58161277D01*
X88500000Y-56422000D02*
X88500000Y-57250000D01*
X84000000Y-56000000D02*
X84783057Y-56000000D01*
X84783057Y-56000000D02*
X84862569Y-55920488D01*
X87998488Y-55920488D02*
X88500000Y-56422000D01*
X84862569Y-55920488D02*
X87998488Y-55920488D01*
X88500000Y-57250000D02*
X90750000Y-57250000D01*
D40*
X68200000Y-75200000D02*
X67000000Y-75200000D01*
X69259999Y-71140001D02*
X68600000Y-71800000D01*
X70350000Y-69050000D02*
X69895000Y-69050000D01*
X69895000Y-69050000D02*
X69259999Y-69685001D01*
X69259999Y-69685001D02*
X69259999Y-71140001D01*
X78950001Y-55200001D02*
X79250000Y-55500000D01*
X76783975Y-53033975D02*
X78950001Y-55200001D01*
X76783975Y-51386025D02*
X76783975Y-53033975D01*
X76900000Y-50400000D02*
X76900000Y-51270000D01*
X76900000Y-51270000D02*
X76783975Y-51386025D01*
X79250000Y-57000000D02*
X79656018Y-57406018D01*
X81347656Y-57406018D02*
X81771920Y-57406018D01*
X79656018Y-57406018D02*
X81347656Y-57406018D01*
X75000000Y-64000000D02*
X75000000Y-58000000D01*
X73250000Y-65750000D02*
X75000000Y-64000000D01*
X72500000Y-68500000D02*
X72500000Y-67000000D01*
X65975000Y-47450000D02*
X73850000Y-47450000D01*
X73850000Y-47450000D02*
X74300000Y-47000000D01*
X95750000Y-71250000D02*
X99750000Y-71250000D01*
X99750000Y-71250000D02*
X101000000Y-72500000D01*
X87250000Y-62750000D02*
X95750000Y-71250000D01*
X84610448Y-62750000D02*
X87250000Y-62750000D01*
X82250000Y-61000000D02*
X82860448Y-61000000D01*
X82860448Y-61000000D02*
X84610448Y-62750000D01*
X105750000Y-67250000D02*
X105750000Y-54250000D01*
X105750000Y-54250000D02*
X107500000Y-52500000D01*
X101350000Y-80000000D02*
X101350000Y-76100000D01*
X101350000Y-76100000D02*
X101250000Y-76000000D01*
X101730000Y-81250000D02*
X106250000Y-81250000D01*
X106250000Y-81250000D02*
X110470000Y-81250000D01*
X106100000Y-80000000D02*
X106100000Y-80870000D01*
X106100000Y-80870000D02*
X106250000Y-81020000D01*
X106250000Y-81020000D02*
X106250000Y-81250000D01*
X101350000Y-80000000D02*
X101350000Y-80870000D01*
X101350000Y-80870000D02*
X101730000Y-81250000D01*
X110470000Y-81250000D02*
X110850000Y-80870000D01*
X110850000Y-80870000D02*
X110850000Y-80000000D01*
X84000000Y-53500000D02*
X84870000Y-53500000D01*
X84870000Y-53500000D02*
X85689999Y-52680001D01*
X85689999Y-52680001D02*
X85689999Y-51685001D01*
X85689999Y-51685001D02*
X86625000Y-50750000D01*
X86625000Y-50750000D02*
X86750000Y-50750000D01*
X77000000Y-48750000D02*
X76900000Y-48850000D01*
X76900000Y-48850000D02*
X76900000Y-50400000D01*
X74300000Y-47000000D02*
X75125000Y-47000000D01*
X75125000Y-47000000D02*
X76875000Y-48750000D01*
X76875000Y-48750000D02*
X77000000Y-48750000D01*
X73500000Y-58250000D02*
X74750000Y-58250000D01*
X74750000Y-58250000D02*
X75000000Y-58000000D01*
X82400000Y-59100000D02*
X82400000Y-60850000D01*
X82400000Y-60850000D02*
X82250000Y-61000000D01*
X75300000Y-57500000D02*
X75300000Y-57700000D01*
X75300000Y-57700000D02*
X75000000Y-58000000D01*
X83000000Y-59000000D02*
X82500000Y-59000000D01*
X82500000Y-59000000D02*
X82400000Y-59100000D01*
X84000000Y-53500000D02*
X83130000Y-53500000D01*
X83130000Y-53500000D02*
X82000000Y-54630000D01*
X82000000Y-54630000D02*
X82000000Y-54750000D01*
X101000000Y-52500000D02*
X107500000Y-52500000D01*
X101000000Y-72500000D02*
X102414213Y-72500000D01*
X102414213Y-72500000D02*
X107500000Y-72500000D01*
X72500000Y-68500000D02*
X71355000Y-68500000D01*
X71355000Y-68500000D02*
X70805000Y-69050000D01*
X70805000Y-69050000D02*
X70350000Y-69050000D01*
X63400000Y-60800000D02*
X51748013Y-60800000D01*
X70000000Y-59700000D02*
X68630000Y-59700000D01*
X68630000Y-59700000D02*
X67530000Y-60800000D01*
X67530000Y-60800000D02*
X67200000Y-60800000D01*
X50579990Y-59673974D02*
X50621987Y-59673974D01*
X50621987Y-59673974D02*
X51748013Y-60800000D01*
X51500000Y-44750000D02*
X53550000Y-44750000D01*
X53550000Y-44750000D02*
X53600000Y-44800000D01*
X50579990Y-49000000D02*
X50579990Y-48820010D01*
X50579990Y-59673974D02*
X50579990Y-49000000D01*
X50579990Y-49000000D02*
X50564999Y-48985009D01*
X50564999Y-48985009D02*
X50564999Y-45810001D01*
X50564999Y-45810001D02*
X51500000Y-44875000D01*
X51500000Y-44875000D02*
X51500000Y-44750000D01*
X53600000Y-44800000D02*
X53600000Y-42360000D01*
X53600000Y-42360000D02*
X53960000Y-42000000D01*
X56500000Y-49500000D02*
X57500000Y-48500000D01*
X57500000Y-48500000D02*
X57500000Y-47250000D01*
X67400000Y-52250000D02*
X61761598Y-52250000D01*
X60661598Y-53350000D02*
X56720000Y-53350000D01*
X61761598Y-52250000D02*
X60661598Y-53350000D01*
X56720000Y-53350000D02*
X55500000Y-53350000D01*
X57500000Y-47250000D02*
X55750000Y-47250000D01*
X55750000Y-47250000D02*
X55500000Y-47500000D01*
X65500000Y-59600000D02*
X64550000Y-59600000D01*
X64550000Y-59600000D02*
X64389999Y-59760001D01*
X64389999Y-59760001D02*
X51301999Y-59760001D01*
X51000000Y-49555000D02*
X51555000Y-49000000D01*
X53600000Y-48400000D02*
X53600000Y-47500000D01*
X51301999Y-59760001D02*
X51000000Y-59458002D01*
X51000000Y-59458002D02*
X51000000Y-49555000D01*
X51555000Y-49000000D02*
X53000000Y-49000000D01*
X53000000Y-49000000D02*
X53600000Y-48400000D01*
X55500000Y-44800000D02*
X55500000Y-45800000D01*
X55500000Y-45800000D02*
X55500000Y-47500000D01*
X53600000Y-47500000D02*
X55500000Y-47500000D01*
X56500000Y-53150000D02*
X56500000Y-49500000D01*
X55500000Y-53350000D02*
X56300000Y-53350000D01*
X56300000Y-53350000D02*
X56500000Y-53150000D01*
X91500000Y-72750000D02*
X91250000Y-72750000D01*
X70000000Y-65300000D02*
X69900000Y-65400000D01*
X67650000Y-67550000D02*
X67650000Y-69050000D01*
X91250000Y-72750000D02*
X88689999Y-70189999D01*
X88689999Y-70189999D02*
X88098001Y-70189999D01*
X88098001Y-70189999D02*
X84618003Y-66710001D01*
X69900000Y-65400000D02*
X65500000Y-65400000D01*
X84618003Y-66710001D02*
X73110001Y-66710001D01*
X73110001Y-66710001D02*
X71702804Y-65302804D01*
X71702804Y-65302804D02*
X71702804Y-65300000D01*
X71702804Y-65300000D02*
X70000000Y-65300000D01*
X65500000Y-65400000D02*
X67650000Y-67550000D01*
X68839988Y-69239988D02*
X68650000Y-69050000D01*
X68839988Y-70760012D02*
X68839988Y-69239988D01*
X68650000Y-70950000D02*
X68839988Y-70760012D01*
X67650000Y-70950000D02*
X68650000Y-70950000D01*
X68650000Y-69050000D02*
X67650000Y-69050000D01*
X94500000Y-72750000D02*
X95000000Y-73250000D01*
X95000000Y-73250000D02*
X95000000Y-75500000D01*
X91500000Y-72750000D02*
X94500000Y-72750000D01*
X65000000Y-71000000D02*
X67600000Y-71000000D01*
X67600000Y-71000000D02*
X67650000Y-70950000D01*
X89600000Y-79750000D02*
X89600000Y-78180000D01*
X89600000Y-78180000D02*
X87620000Y-76200000D01*
X87620000Y-76200000D02*
X86400000Y-76200000D01*
X88300000Y-80050000D02*
X89300000Y-80050000D01*
X89300000Y-80050000D02*
X89600000Y-79750000D01*
X86250000Y-76200000D02*
X86400000Y-76200000D01*
X85180000Y-75130000D02*
X86250000Y-76200000D01*
X83980000Y-75130000D02*
X85180000Y-75130000D01*
X82650000Y-73800000D02*
X83980000Y-75130000D01*
X81800000Y-73800000D02*
X82650000Y-73800000D01*
X81800000Y-73800000D02*
X82250000Y-74250000D01*
X81800000Y-70800000D02*
X81800000Y-73800000D01*
D39*
X96100000Y-72000000D02*
X96100000Y-72603000D01*
X96100000Y-72603000D02*
X98650000Y-75153000D01*
X98650000Y-75153000D02*
X98650000Y-80000000D01*
X103400000Y-77259776D02*
X103400000Y-79147000D01*
X103400000Y-79147000D02*
X103400000Y-80000000D01*
X99695498Y-75398498D02*
X101538722Y-75398498D01*
X101538722Y-75398498D02*
X103400000Y-77259776D01*
X96900000Y-72603000D02*
X99695498Y-75398498D01*
X96900000Y-72000000D02*
X96900000Y-72603000D01*
X108050000Y-80000000D02*
X108150000Y-80000000D01*
X103045487Y-74995487D02*
X108050000Y-80000000D01*
X100092487Y-74995487D02*
X103045487Y-74995487D01*
X97700000Y-72603000D02*
X100092487Y-74995487D01*
X97700000Y-72000000D02*
X97700000Y-72603000D01*
X87650000Y-74750000D02*
X87650000Y-74650000D01*
X87650000Y-74650000D02*
X86800000Y-73800000D01*
X87650000Y-74750000D02*
X89650000Y-76750000D01*
X89650000Y-76750000D02*
X91500000Y-76750000D01*
X91500000Y-76750000D02*
X91500000Y-78600000D01*
X91500000Y-78600000D02*
X91000000Y-79100000D01*
X79000000Y-62000000D02*
X78201501Y-62798499D01*
X78000000Y-64690222D02*
X78000000Y-66000000D01*
X78201501Y-62798499D02*
X78201501Y-64488721D01*
X78201501Y-64488721D02*
X78000000Y-64690222D01*
X81750000Y-52500000D02*
X84000000Y-52500000D01*
X79486979Y-63229379D02*
X79486979Y-62805115D01*
X80600000Y-66000000D02*
X80600000Y-64627240D01*
X80600000Y-64627240D02*
X79486979Y-63514219D01*
X79486979Y-63514219D02*
X79486979Y-63229379D01*
X78250000Y-61500000D02*
X77950001Y-61200001D01*
X77920544Y-59120544D02*
X77900000Y-59100000D01*
X77950001Y-61200001D02*
X77950001Y-59150001D01*
X77950001Y-59150001D02*
X77920544Y-59120544D01*
X75750000Y-61313783D02*
X76430377Y-61994160D01*
X76430377Y-61994160D02*
X76730376Y-62294159D01*
X75750000Y-58500000D02*
X75750000Y-61313783D01*
X77600000Y-64200000D02*
X77200000Y-64600000D01*
X77200000Y-64600000D02*
X77200000Y-66000000D01*
X76500000Y-54882298D02*
X76117702Y-54500000D01*
X76117702Y-54500000D02*
X75300000Y-54500000D01*
X76500000Y-57250000D02*
X76500000Y-54882298D01*
X74381192Y-77898498D02*
X59088498Y-77898498D01*
X57959999Y-76769999D02*
X57460000Y-76270000D01*
X74575736Y-78093042D02*
X74381192Y-77898498D01*
X59088498Y-77898498D02*
X57959999Y-76769999D01*
X75000000Y-78093042D02*
X74575736Y-78093042D01*
X76473499Y-59648498D02*
X76314522Y-59807475D01*
X76314522Y-60901228D02*
X76633715Y-61220421D01*
X76473499Y-58166723D02*
X76473499Y-59648498D01*
X77101501Y-57538721D02*
X76473499Y-58166723D01*
X76187645Y-54000000D02*
X77101501Y-54913856D01*
X77101501Y-54913856D02*
X77101501Y-57538721D01*
X75300000Y-54000000D02*
X76187645Y-54000000D01*
X76633715Y-61220421D02*
X76933714Y-61520420D01*
X76400000Y-66000000D02*
X76400000Y-64365422D01*
X77298491Y-63466931D02*
X77598490Y-63166932D01*
X76314522Y-59807475D02*
X76314522Y-60901228D01*
X76400000Y-64365422D02*
X77298491Y-63466931D01*
X82200000Y-65657298D02*
X82200000Y-66000000D01*
X80088489Y-63545787D02*
X82200000Y-65657298D01*
X80088489Y-62228713D02*
X80088489Y-63545787D01*
X78400000Y-59953000D02*
X79898498Y-61451498D01*
X79898498Y-62038722D02*
X80088489Y-62228713D01*
X79898498Y-61451498D02*
X79898498Y-62038722D01*
X78400000Y-59100000D02*
X78400000Y-59953000D01*
X77601501Y-61421444D02*
X77601501Y-62273699D01*
X77601501Y-62273699D02*
X75600000Y-64275200D01*
X75600000Y-64275200D02*
X75600000Y-65397000D01*
X77517533Y-61337476D02*
X77601501Y-61421444D01*
X77400000Y-59100000D02*
X77400000Y-59843746D01*
X75600000Y-65397000D02*
X75600000Y-66000000D01*
X77400000Y-59843746D02*
X77517533Y-59961279D01*
X77517533Y-59961279D02*
X77517533Y-61337476D01*
X75300000Y-56500000D02*
X74390226Y-56500000D01*
X74390226Y-56500000D02*
X74288722Y-56398496D01*
X74288722Y-56398496D02*
X73711278Y-56398496D01*
X73711278Y-56398496D02*
X73398498Y-56711276D01*
X73398498Y-56711276D02*
X73398498Y-57101502D01*
X73301501Y-57198499D02*
X72633799Y-57198499D01*
X73398498Y-57101502D02*
X73301501Y-57198499D01*
X72573499Y-57258799D02*
X71741201Y-57258799D01*
X72633799Y-57198499D02*
X72573499Y-57258799D01*
X71741201Y-57258799D02*
X71600000Y-57400000D01*
X71600000Y-57400000D02*
X71600000Y-61542702D01*
X71600000Y-61542702D02*
X70945713Y-62196989D01*
X70945713Y-62196989D02*
X64433068Y-62196989D01*
X64433068Y-62196989D02*
X62151501Y-64478556D01*
X62151501Y-64478556D02*
X62151501Y-66848499D01*
X62151501Y-66848499D02*
X61000000Y-68000000D01*
X61000000Y-65460000D02*
X59848499Y-66611501D01*
X62554512Y-68445488D02*
X62554512Y-64752786D01*
X62554512Y-64752786D02*
X64707298Y-62600000D01*
X59848499Y-66611501D02*
X59848499Y-68598499D01*
X59848499Y-68598499D02*
X60401501Y-69151501D01*
X60401501Y-69151501D02*
X61848499Y-69151501D01*
X61848499Y-69151501D02*
X62554512Y-68445488D01*
X71200000Y-62600000D02*
X72200000Y-61600000D01*
X64707298Y-62600000D02*
X71200000Y-62600000D01*
X72756314Y-59575984D02*
X73965732Y-59575984D01*
X73965732Y-59575984D02*
X74389996Y-59575984D01*
X72200000Y-61600000D02*
X72200000Y-60132298D01*
X72200000Y-60132298D02*
X72756314Y-59575984D01*
X76900000Y-59100000D02*
X76900000Y-60233968D01*
X76900000Y-60233968D02*
X76916032Y-60250000D01*
D41*
X57147500Y-54502500D02*
X60702500Y-54502500D01*
X60702500Y-54502500D02*
X61525000Y-55325000D01*
X55500000Y-54650000D02*
X57000000Y-54650000D01*
X57000000Y-54650000D02*
X57147500Y-54502500D01*
X61525000Y-55325000D02*
X62650000Y-55325000D01*
X60702500Y-54147500D02*
X61525000Y-53325000D01*
X55500000Y-54000000D02*
X57000000Y-54000000D01*
X57000000Y-54000000D02*
X57147500Y-54147500D01*
X57147500Y-54147500D02*
X60702500Y-54147500D01*
X61525000Y-53325000D02*
X62650000Y-53325000D01*
D39*
X77000000Y-47000000D02*
X76900000Y-47000000D01*
X76900000Y-47000000D02*
X75948499Y-46048499D01*
X75948499Y-46048499D02*
X64926501Y-46048499D01*
X64926501Y-46048499D02*
X64075000Y-46900000D01*
X64075000Y-46900000D02*
X64075000Y-47450000D01*
X79400000Y-47500000D02*
X78900000Y-47000000D01*
X78900000Y-47000000D02*
X77000000Y-47000000D01*
X79400000Y-47500000D02*
X79400000Y-50400000D01*
X65025000Y-44450000D02*
X65025000Y-42105000D01*
X65025000Y-42105000D02*
X64920000Y-42000000D01*
X88750000Y-55000000D02*
X90842702Y-55000000D01*
X90842702Y-55000000D02*
X92250000Y-56407298D01*
X92250000Y-56407298D02*
X92250000Y-56575736D01*
X92250000Y-56575736D02*
X92250000Y-57000000D01*
X84000000Y-53000000D02*
X82500000Y-53000000D01*
X82500000Y-53000000D02*
X82000000Y-53500000D01*
X107500000Y-68000000D02*
X109200000Y-68000000D01*
X109200000Y-68000000D02*
X110000000Y-68800000D01*
X101000000Y-68000000D02*
X92750000Y-59750000D01*
X92750000Y-59750000D02*
X92750000Y-58500000D01*
X101000000Y-68000000D02*
X107500000Y-68000000D01*
X86400000Y-78100000D02*
X87828000Y-78100000D01*
X87828000Y-78100000D02*
X88300000Y-78572000D01*
X88300000Y-78572000D02*
X88300000Y-79100000D01*
X84400000Y-76000000D02*
X84400000Y-76953000D01*
X84400000Y-76953000D02*
X85547000Y-78100000D01*
X85547000Y-78100000D02*
X86400000Y-78100000D01*
X85007298Y-72400000D02*
X84400000Y-73007298D01*
X84400000Y-73007298D02*
X84400000Y-74000000D01*
X88500000Y-71000000D02*
X88500000Y-71392702D01*
X88500000Y-71392702D02*
X87492702Y-72400000D01*
X87492702Y-72400000D02*
X85007298Y-72400000D01*
X81110010Y-61113678D02*
X81110010Y-60689414D01*
X81323499Y-61327167D02*
X81110010Y-61113678D01*
X81383799Y-62051501D02*
X81323499Y-61991201D01*
X82719203Y-62051501D02*
X81383799Y-62051501D01*
X88500000Y-67832298D02*
X82719203Y-62051501D01*
X81323499Y-61991201D02*
X81323499Y-61327167D01*
X88500000Y-69500000D02*
X88500000Y-67832298D01*
X81000000Y-54250000D02*
X79900000Y-53150000D01*
X79900000Y-53150000D02*
X79900000Y-50400000D01*
X88250000Y-79050000D02*
X88300000Y-79100000D01*
D41*
X67500000Y-56500000D02*
X65723000Y-56500000D01*
X65350000Y-56127000D02*
X65350000Y-55325000D01*
X65723000Y-56500000D02*
X65350000Y-56127000D01*
X73626478Y-55927500D02*
X72201478Y-54502500D01*
X72201478Y-54502500D02*
X67297500Y-54502500D01*
X66475000Y-55325000D02*
X65350000Y-55325000D01*
X67297500Y-54502500D02*
X66475000Y-55325000D01*
X75300000Y-56000000D02*
X74325000Y-56000000D01*
X74325000Y-56000000D02*
X74252500Y-55927500D01*
X74252500Y-55927500D02*
X73626478Y-55927500D01*
X73773522Y-55572500D02*
X72348522Y-54147500D01*
X72348522Y-54147500D02*
X67297500Y-54147500D01*
X67297500Y-54147500D02*
X66475000Y-53325000D01*
X66475000Y-53325000D02*
X65350000Y-53325000D01*
X75300000Y-55500000D02*
X74325000Y-55500000D01*
X74325000Y-55500000D02*
X74252500Y-55572500D01*
X74252500Y-55572500D02*
X73773522Y-55572500D01*
D39*
X70200000Y-56500000D02*
X72796577Y-56500000D01*
X72796577Y-56500000D02*
X72867059Y-56429518D01*
X78900000Y-57537314D02*
X78106342Y-56743656D01*
X78106342Y-56743656D02*
X78106342Y-56689989D01*
X78900000Y-59100000D02*
X78900000Y-57537314D01*
X78106342Y-56689989D02*
X77806343Y-56389990D01*
X70100000Y-52250000D02*
X71053000Y-52250000D01*
X71053000Y-52250000D02*
X73803000Y-55000000D01*
X73803000Y-55000000D02*
X74447000Y-55000000D01*
X74447000Y-55000000D02*
X75300000Y-55000000D01*
X80927246Y-55980337D02*
X81351510Y-55980337D01*
X80891749Y-55980337D02*
X80927246Y-55980337D01*
X77900000Y-50400000D02*
X77900000Y-51698859D01*
X77995487Y-51794346D02*
X77995487Y-53084075D01*
X77900000Y-51698859D02*
X77995487Y-51794346D01*
X77995487Y-53084075D02*
X80891749Y-55980337D01*
X84841867Y-61829512D02*
X84545488Y-61533133D01*
X84998895Y-61846989D02*
X84981418Y-61829512D01*
X96900000Y-70200000D02*
X96900000Y-69597000D01*
X96900000Y-69597000D02*
X89149989Y-61846989D01*
X84981418Y-61829512D02*
X84841867Y-61829512D01*
X84545488Y-60667173D02*
X83872753Y-59994438D01*
X83872753Y-59994438D02*
X83448489Y-59994438D01*
X89149989Y-61846989D02*
X84998895Y-61846989D01*
X84545488Y-61533133D02*
X84545488Y-60667173D01*
X76153000Y-52000000D02*
X75300000Y-52000000D01*
X83016201Y-58398499D02*
X82373422Y-57755720D01*
X76372464Y-53512688D02*
X76372464Y-52219464D01*
X78961278Y-56101502D02*
X76372464Y-53512688D01*
X76372464Y-52219464D02*
X76153000Y-52000000D01*
X79211280Y-56101502D02*
X78961278Y-56101502D01*
X79698267Y-56588489D02*
X79211280Y-56101502D01*
X84948499Y-61366201D02*
X84948499Y-60058277D01*
X82373422Y-57117296D02*
X81844615Y-56588489D01*
X83288721Y-58398499D02*
X83016201Y-58398499D01*
X84948499Y-60058277D02*
X83288721Y-58398499D01*
X81844615Y-56588489D02*
X79698267Y-56588489D01*
X85008799Y-61426501D02*
X84948499Y-61366201D01*
X97700000Y-69810115D02*
X89316386Y-61426501D01*
X97700000Y-70200000D02*
X97700000Y-69810115D01*
X89316386Y-61426501D02*
X85008799Y-61426501D01*
X82373422Y-57755720D02*
X82373422Y-57117296D01*
X82708754Y-56177699D02*
X82708754Y-56601963D01*
X81238845Y-55378835D02*
X81909890Y-55378835D01*
X78398498Y-52538488D02*
X81238845Y-55378835D01*
X81909890Y-55378835D02*
X82708754Y-56177699D01*
X78400000Y-51253000D02*
X78398498Y-51254502D01*
X78400000Y-50400000D02*
X78400000Y-51253000D01*
X78398498Y-51254502D02*
X78398498Y-52538488D01*
X84106342Y-61243656D02*
X83806343Y-60943657D01*
X84106342Y-61663930D02*
X84106342Y-61243656D01*
X84780901Y-62338489D02*
X84106342Y-61663930D01*
X95647000Y-69565036D02*
X88420453Y-62338489D01*
X95647000Y-69597000D02*
X95647000Y-69565036D01*
X96100000Y-70050000D02*
X95647000Y-69597000D01*
X88420453Y-62338489D02*
X84780901Y-62338489D01*
X96100000Y-70200000D02*
X96100000Y-70050000D01*
X86700001Y-59299999D02*
X87000000Y-59000000D01*
X85409775Y-59299999D02*
X86700001Y-59299999D01*
X84105264Y-57995488D02*
X85409775Y-59299999D01*
X83183133Y-57995488D02*
X84105264Y-57995488D01*
X83250232Y-57000000D02*
X83048499Y-57201733D01*
X83048499Y-57201733D02*
X83048499Y-57860854D01*
X83048499Y-57860854D02*
X83183133Y-57995488D01*
X84000000Y-57000000D02*
X83250232Y-57000000D01*
X101000000Y-48000000D02*
X107500000Y-48000000D01*
X94250000Y-49750000D02*
X96000000Y-48000000D01*
X96000000Y-48000000D02*
X101000000Y-48000000D01*
X94250000Y-56092702D02*
X94250000Y-49750000D01*
X88750000Y-59000000D02*
X91342702Y-59000000D01*
X91342702Y-59000000D02*
X94250000Y-56092702D01*
X84000000Y-51672000D02*
X84000000Y-52000000D01*
X72540000Y-42000000D02*
X74168009Y-40371991D01*
X78319936Y-40371991D02*
X84000000Y-46052055D01*
X84000000Y-46052055D02*
X84000000Y-51672000D01*
X74168009Y-40371991D02*
X78319936Y-40371991D01*
X78226501Y-40848499D02*
X82400000Y-45021998D01*
X74326501Y-40848499D02*
X78226501Y-40848499D01*
X73928499Y-41246501D02*
X74326501Y-40848499D01*
X73928499Y-42315723D02*
X73928499Y-41246501D01*
X71151501Y-43151501D02*
X73092721Y-43151501D01*
X73092721Y-43151501D02*
X73928499Y-42315723D01*
X70000000Y-42000000D02*
X71151501Y-43151501D01*
X82400000Y-45021998D02*
X82400000Y-50400000D01*
X74925736Y-43575000D02*
X69035000Y-43575000D01*
X69035000Y-43575000D02*
X67460000Y-42000000D01*
X75500000Y-43425000D02*
X75075736Y-43425000D01*
X75075736Y-43425000D02*
X74925736Y-43575000D01*
X81900000Y-46475000D02*
X78825000Y-43400000D01*
X81900000Y-50400000D02*
X81900000Y-46475000D01*
X81400000Y-49547000D02*
X81400000Y-50400000D01*
X81400000Y-46982081D02*
X81400000Y-49547000D01*
X77620000Y-43202081D02*
X81400000Y-46982081D01*
X77620000Y-42000000D02*
X77620000Y-43202081D01*
X75080000Y-42000000D02*
X80400000Y-47320000D01*
X80400000Y-47320000D02*
X80400000Y-50400000D01*
X58730000Y-74292894D02*
X58730000Y-75000000D01*
X76332143Y-73579983D02*
X76133638Y-73778488D01*
X76756407Y-73579983D02*
X76332143Y-73579983D01*
X59244406Y-73778488D02*
X58730000Y-74292894D01*
X76133638Y-73778488D02*
X59244406Y-73778488D01*
X78000000Y-68403000D02*
X78000000Y-67800000D01*
X76835477Y-73076649D02*
X76835477Y-69567523D01*
X76756407Y-73155719D02*
X76835477Y-73076649D01*
X76835477Y-69567523D02*
X78000000Y-68403000D01*
X76756407Y-73579983D02*
X76756407Y-73155719D01*
X80600000Y-68403000D02*
X80600000Y-67800000D01*
X80006011Y-68996989D02*
X80600000Y-68403000D01*
X79633068Y-68996989D02*
X80006011Y-68996989D01*
X78038488Y-70591569D02*
X79633068Y-68996989D01*
X78038488Y-73389152D02*
X78038488Y-70591569D01*
X78589171Y-73939835D02*
X78038488Y-73389152D01*
X59229999Y-76769999D02*
X58730000Y-76270000D01*
X59951512Y-77491512D02*
X59229999Y-76769999D01*
X75934173Y-77491512D02*
X59951512Y-77491512D01*
X76132673Y-77690012D02*
X75934173Y-77491512D01*
X76556937Y-77690012D02*
X76132673Y-77690012D01*
X75060166Y-73176978D02*
X75484430Y-73176978D01*
X75043164Y-73193980D02*
X75060166Y-73176978D01*
X73684638Y-73375477D02*
X73866135Y-73193980D01*
X57959999Y-74500001D02*
X57959999Y-73799944D01*
X73866135Y-73193980D02*
X75043164Y-73193980D01*
X57959999Y-73799944D02*
X58384466Y-73375477D01*
X57460000Y-75000000D02*
X57959999Y-74500001D01*
X58384466Y-73375477D02*
X73684638Y-73375477D01*
X76432466Y-69170534D02*
X77200000Y-68403000D01*
X76432466Y-72228942D02*
X76432466Y-69170534D01*
X77200000Y-68403000D02*
X77200000Y-67800000D01*
X75484430Y-73176978D02*
X76432466Y-72228942D01*
X76029455Y-71315622D02*
X75052606Y-72292471D01*
X74328343Y-72592470D02*
X74752607Y-72592470D01*
X76400000Y-67800000D02*
X76400000Y-68403000D01*
X70717705Y-72972466D02*
X70899204Y-72790967D01*
X76400000Y-68403000D02*
X76029455Y-68773545D01*
X74129846Y-72790967D02*
X74328343Y-72592470D01*
X70899204Y-72790967D02*
X74129846Y-72790967D01*
X56190000Y-75000000D02*
X58217534Y-72972466D01*
X76029455Y-68773545D02*
X76029455Y-71315622D01*
X75052606Y-72292471D02*
X74752607Y-72592470D01*
X58217534Y-72972466D02*
X70717705Y-72972466D01*
X81600000Y-69400000D02*
X82200000Y-68800000D01*
X82200000Y-68800000D02*
X82200000Y-67800000D01*
X79800000Y-69400000D02*
X81600000Y-69400000D01*
X78750000Y-70450000D02*
X79800000Y-69400000D01*
X78750000Y-72500000D02*
X78750000Y-70450000D01*
X56190000Y-76270000D02*
X58420000Y-78500000D01*
X58420000Y-78500000D02*
X74000000Y-78500000D01*
X73700001Y-72299999D02*
X74000000Y-72000000D01*
X57420000Y-72500000D02*
X70620228Y-72500000D01*
X54920000Y-75000000D02*
X57420000Y-72500000D01*
X70732272Y-72387956D02*
X73612044Y-72387956D01*
X73612044Y-72387956D02*
X73700001Y-72299999D01*
X70620228Y-72500000D02*
X70732272Y-72387956D01*
X74000000Y-72000000D02*
X75600000Y-70400000D01*
X75600000Y-70400000D02*
X75600000Y-67800000D01*
X78000000Y-76270000D02*
X82330000Y-76270000D01*
X82330000Y-76270000D02*
X82400000Y-76200000D01*
X71000000Y-75200000D02*
X71000000Y-74400000D01*
X71000000Y-74400000D02*
X71201501Y-74198499D01*
X71201501Y-74198499D02*
X77901499Y-74198499D01*
X77901499Y-74198499D02*
X78000000Y-74297000D01*
X78000000Y-74297000D02*
X78000000Y-75000000D01*
D42*
G36*
X51221216Y-61326792D02*
X51221218Y-61326795D01*
X51448283Y-61478514D01*
X51462914Y-61488290D01*
X51748013Y-61545000D01*
X60501536Y-61545000D01*
X60118642Y-61724817D01*
X59728355Y-62153076D01*
X59558524Y-62563110D01*
X59679845Y-62793000D01*
X60873000Y-62793000D01*
X60873000Y-62773000D01*
X61127000Y-62773000D01*
X61127000Y-62793000D01*
X62320155Y-62793000D01*
X62441476Y-62563110D01*
X62271645Y-62153076D01*
X61881358Y-61724817D01*
X61498464Y-61545000D01*
X62822563Y-61545000D01*
X62869673Y-61592192D01*
X63213201Y-61734838D01*
X63585167Y-61735162D01*
X63726419Y-61676798D01*
X63746838Y-61785317D01*
X63768895Y-61819594D01*
X62396612Y-63191877D01*
X62320155Y-63047000D01*
X61127000Y-63047000D01*
X61127000Y-63067000D01*
X60873000Y-63067000D01*
X60873000Y-63047000D01*
X59679845Y-63047000D01*
X59558524Y-63276890D01*
X59728355Y-63686924D01*
X60118642Y-64115183D01*
X60261553Y-64182298D01*
X59920853Y-64409946D01*
X59598946Y-64891715D01*
X59485907Y-65460000D01*
X59564304Y-65854128D01*
X59327715Y-66090717D01*
X59168062Y-66329655D01*
X59111999Y-66611501D01*
X59111999Y-68598499D01*
X59168062Y-68880345D01*
X59327715Y-69119283D01*
X59591308Y-69382876D01*
X59553569Y-69438110D01*
X59502560Y-69690000D01*
X59502560Y-71390000D01*
X59546838Y-71625317D01*
X59635756Y-71763500D01*
X57420000Y-71763500D01*
X57138154Y-71819563D01*
X56899216Y-71979216D01*
X55016477Y-73861955D01*
X54920000Y-73842764D01*
X54485654Y-73929161D01*
X54117434Y-74175198D01*
X53871397Y-74543418D01*
X53785000Y-74977764D01*
X53785000Y-75022236D01*
X53871397Y-75456582D01*
X53992104Y-75637232D01*
X53825868Y-75968123D01*
X53950865Y-76143000D01*
X54793000Y-76143000D01*
X54793000Y-76131974D01*
X54920000Y-76157236D01*
X55047000Y-76131974D01*
X55047000Y-76143000D01*
X55067000Y-76143000D01*
X55067000Y-76187436D01*
X55055000Y-76247764D01*
X55055000Y-76292236D01*
X55067000Y-76352564D01*
X55067000Y-76397000D01*
X55047000Y-76397000D01*
X55047000Y-77237954D01*
X55221874Y-77364119D01*
X55480209Y-77257127D01*
X55545696Y-77200549D01*
X55755654Y-77340839D01*
X56190000Y-77427236D01*
X56286477Y-77408045D01*
X57899216Y-79020784D01*
X58138153Y-79180437D01*
X58420000Y-79236500D01*
X73414078Y-79236500D01*
X73469673Y-79292192D01*
X73813201Y-79434838D01*
X74185167Y-79435162D01*
X74528943Y-79293117D01*
X74792192Y-79030327D01*
X74796148Y-79020799D01*
X74813201Y-79027880D01*
X75185167Y-79028204D01*
X75528943Y-78886159D01*
X75792192Y-78623369D01*
X75893675Y-78378972D01*
X75930962Y-78386389D01*
X76026610Y-78482204D01*
X76370138Y-78624850D01*
X76742104Y-78625174D01*
X77085880Y-78483129D01*
X77349129Y-78220339D01*
X77491775Y-77876811D01*
X77492099Y-77504845D01*
X77370437Y-77210399D01*
X77565654Y-77340839D01*
X78000000Y-77427236D01*
X78434346Y-77340839D01*
X78802566Y-77094802D01*
X78861568Y-77006500D01*
X80752560Y-77006500D01*
X80752560Y-77050000D01*
X80796838Y-77285317D01*
X80935910Y-77501441D01*
X81148110Y-77646431D01*
X81400000Y-77697440D01*
X83400000Y-77697440D01*
X83635317Y-77653162D01*
X83851441Y-77514090D01*
X83879100Y-77473610D01*
X83879216Y-77473784D01*
X85026216Y-78620784D01*
X85102560Y-78671795D01*
X85102560Y-78850000D01*
X85146838Y-79085317D01*
X85285910Y-79301441D01*
X85498110Y-79446431D01*
X85531490Y-79453191D01*
X85390301Y-79511673D01*
X85211673Y-79690302D01*
X85115000Y-79923691D01*
X85115000Y-80514250D01*
X85273750Y-80673000D01*
X86273000Y-80673000D01*
X86273000Y-80653000D01*
X86527000Y-80653000D01*
X86527000Y-80673000D01*
X86547000Y-80673000D01*
X86547000Y-80927000D01*
X86527000Y-80927000D01*
X86527000Y-80947000D01*
X86273000Y-80947000D01*
X86273000Y-80927000D01*
X85273750Y-80927000D01*
X85115000Y-81085750D01*
X85115000Y-81315000D01*
X50685000Y-81315000D01*
X50685000Y-76571877D01*
X53825868Y-76571877D01*
X54024677Y-76967604D01*
X54359791Y-77257127D01*
X54618126Y-77364119D01*
X54793000Y-77237954D01*
X54793000Y-76397000D01*
X53950865Y-76397000D01*
X53825868Y-76571877D01*
X50685000Y-76571877D01*
X50685000Y-60790576D01*
X51221216Y-61326792D01*
X51221216Y-61326792D01*
G37*
X51221216Y-61326792D02*
X51221218Y-61326795D01*
X51448283Y-61478514D01*
X51462914Y-61488290D01*
X51748013Y-61545000D01*
X60501536Y-61545000D01*
X60118642Y-61724817D01*
X59728355Y-62153076D01*
X59558524Y-62563110D01*
X59679845Y-62793000D01*
X60873000Y-62793000D01*
X60873000Y-62773000D01*
X61127000Y-62773000D01*
X61127000Y-62793000D01*
X62320155Y-62793000D01*
X62441476Y-62563110D01*
X62271645Y-62153076D01*
X61881358Y-61724817D01*
X61498464Y-61545000D01*
X62822563Y-61545000D01*
X62869673Y-61592192D01*
X63213201Y-61734838D01*
X63585167Y-61735162D01*
X63726419Y-61676798D01*
X63746838Y-61785317D01*
X63768895Y-61819594D01*
X62396612Y-63191877D01*
X62320155Y-63047000D01*
X61127000Y-63047000D01*
X61127000Y-63067000D01*
X60873000Y-63067000D01*
X60873000Y-63047000D01*
X59679845Y-63047000D01*
X59558524Y-63276890D01*
X59728355Y-63686924D01*
X60118642Y-64115183D01*
X60261553Y-64182298D01*
X59920853Y-64409946D01*
X59598946Y-64891715D01*
X59485907Y-65460000D01*
X59564304Y-65854128D01*
X59327715Y-66090717D01*
X59168062Y-66329655D01*
X59111999Y-66611501D01*
X59111999Y-68598499D01*
X59168062Y-68880345D01*
X59327715Y-69119283D01*
X59591308Y-69382876D01*
X59553569Y-69438110D01*
X59502560Y-69690000D01*
X59502560Y-71390000D01*
X59546838Y-71625317D01*
X59635756Y-71763500D01*
X57420000Y-71763500D01*
X57138154Y-71819563D01*
X56899216Y-71979216D01*
X55016477Y-73861955D01*
X54920000Y-73842764D01*
X54485654Y-73929161D01*
X54117434Y-74175198D01*
X53871397Y-74543418D01*
X53785000Y-74977764D01*
X53785000Y-75022236D01*
X53871397Y-75456582D01*
X53992104Y-75637232D01*
X53825868Y-75968123D01*
X53950865Y-76143000D01*
X54793000Y-76143000D01*
X54793000Y-76131974D01*
X54920000Y-76157236D01*
X55047000Y-76131974D01*
X55047000Y-76143000D01*
X55067000Y-76143000D01*
X55067000Y-76187436D01*
X55055000Y-76247764D01*
X55055000Y-76292236D01*
X55067000Y-76352564D01*
X55067000Y-76397000D01*
X55047000Y-76397000D01*
X55047000Y-77237954D01*
X55221874Y-77364119D01*
X55480209Y-77257127D01*
X55545696Y-77200549D01*
X55755654Y-77340839D01*
X56190000Y-77427236D01*
X56286477Y-77408045D01*
X57899216Y-79020784D01*
X58138153Y-79180437D01*
X58420000Y-79236500D01*
X73414078Y-79236500D01*
X73469673Y-79292192D01*
X73813201Y-79434838D01*
X74185167Y-79435162D01*
X74528943Y-79293117D01*
X74792192Y-79030327D01*
X74796148Y-79020799D01*
X74813201Y-79027880D01*
X75185167Y-79028204D01*
X75528943Y-78886159D01*
X75792192Y-78623369D01*
X75893675Y-78378972D01*
X75930962Y-78386389D01*
X76026610Y-78482204D01*
X76370138Y-78624850D01*
X76742104Y-78625174D01*
X77085880Y-78483129D01*
X77349129Y-78220339D01*
X77491775Y-77876811D01*
X77492099Y-77504845D01*
X77370437Y-77210399D01*
X77565654Y-77340839D01*
X78000000Y-77427236D01*
X78434346Y-77340839D01*
X78802566Y-77094802D01*
X78861568Y-77006500D01*
X80752560Y-77006500D01*
X80752560Y-77050000D01*
X80796838Y-77285317D01*
X80935910Y-77501441D01*
X81148110Y-77646431D01*
X81400000Y-77697440D01*
X83400000Y-77697440D01*
X83635317Y-77653162D01*
X83851441Y-77514090D01*
X83879100Y-77473610D01*
X83879216Y-77473784D01*
X85026216Y-78620784D01*
X85102560Y-78671795D01*
X85102560Y-78850000D01*
X85146838Y-79085317D01*
X85285910Y-79301441D01*
X85498110Y-79446431D01*
X85531490Y-79453191D01*
X85390301Y-79511673D01*
X85211673Y-79690302D01*
X85115000Y-79923691D01*
X85115000Y-80514250D01*
X85273750Y-80673000D01*
X86273000Y-80673000D01*
X86273000Y-80653000D01*
X86527000Y-80653000D01*
X86527000Y-80673000D01*
X86547000Y-80673000D01*
X86547000Y-80927000D01*
X86527000Y-80927000D01*
X86527000Y-80947000D01*
X86273000Y-80947000D01*
X86273000Y-80927000D01*
X85273750Y-80927000D01*
X85115000Y-81085750D01*
X85115000Y-81315000D01*
X50685000Y-81315000D01*
X50685000Y-76571877D01*
X53825868Y-76571877D01*
X54024677Y-76967604D01*
X54359791Y-77257127D01*
X54618126Y-77364119D01*
X54793000Y-77237954D01*
X54793000Y-76397000D01*
X53950865Y-76397000D01*
X53825868Y-76571877D01*
X50685000Y-76571877D01*
X50685000Y-60790576D01*
X51221216Y-61326792D01*
G36*
X89602560Y-72156149D02*
X89602560Y-73750000D01*
X89646838Y-73985317D01*
X89785910Y-74201441D01*
X89998110Y-74346431D01*
X90250000Y-74397440D01*
X92750000Y-74397440D01*
X92985317Y-74353162D01*
X93201441Y-74214090D01*
X93346431Y-74001890D01*
X93397440Y-73750000D01*
X93397440Y-73495000D01*
X93758185Y-73495000D01*
X93653569Y-73648110D01*
X93602560Y-73900000D01*
X93602560Y-77100000D01*
X93646838Y-77335317D01*
X93752482Y-77499493D01*
X93711673Y-77540302D01*
X93615000Y-77773691D01*
X93615000Y-79214250D01*
X93773750Y-79373000D01*
X94873000Y-79373000D01*
X94873000Y-79353000D01*
X95127000Y-79353000D01*
X95127000Y-79373000D01*
X96226250Y-79373000D01*
X96385000Y-79214250D01*
X96385000Y-77773691D01*
X96288327Y-77540302D01*
X96246366Y-77498340D01*
X96346431Y-77351890D01*
X96397440Y-77100000D01*
X96397440Y-73942008D01*
X97913500Y-75458068D01*
X97913500Y-78702560D01*
X97900000Y-78702560D01*
X97664683Y-78746838D01*
X97448559Y-78885910D01*
X97303569Y-79098110D01*
X97252560Y-79350000D01*
X97252560Y-80650000D01*
X97296838Y-80885317D01*
X97435910Y-81101441D01*
X97648110Y-81246431D01*
X97900000Y-81297440D01*
X99400000Y-81297440D01*
X99635317Y-81253162D01*
X99851441Y-81114090D01*
X99996431Y-80901890D01*
X99999081Y-80888803D01*
X100135910Y-81101441D01*
X100348110Y-81246431D01*
X100600000Y-81297440D01*
X100756819Y-81297440D01*
X100768552Y-81315000D01*
X96348263Y-81315000D01*
X96385000Y-81226309D01*
X96385000Y-79785750D01*
X96226250Y-79627000D01*
X95127000Y-79627000D01*
X95127000Y-79647000D01*
X94873000Y-79647000D01*
X94873000Y-79627000D01*
X93773750Y-79627000D01*
X93615000Y-79785750D01*
X93615000Y-81226309D01*
X93651737Y-81315000D01*
X92415000Y-81315000D01*
X92415000Y-81285750D01*
X92256250Y-81127000D01*
X91127000Y-81127000D01*
X91127000Y-81147000D01*
X90873000Y-81147000D01*
X90873000Y-81127000D01*
X90853000Y-81127000D01*
X90853000Y-80873000D01*
X90873000Y-80873000D01*
X90873000Y-80853000D01*
X91127000Y-80853000D01*
X91127000Y-80873000D01*
X92256250Y-80873000D01*
X92415000Y-80714250D01*
X92415000Y-80548690D01*
X92318327Y-80315301D01*
X92139698Y-80136673D01*
X91920707Y-80045964D01*
X92015317Y-80028162D01*
X92231441Y-79889090D01*
X92376431Y-79676890D01*
X92427440Y-79425000D01*
X92427440Y-78775000D01*
X92383162Y-78539683D01*
X92291631Y-78397440D01*
X92750000Y-78397440D01*
X92985317Y-78353162D01*
X93201441Y-78214090D01*
X93346431Y-78001890D01*
X93397440Y-77750000D01*
X93397440Y-75750000D01*
X93353162Y-75514683D01*
X93214090Y-75298559D01*
X93001890Y-75153569D01*
X92750000Y-75102560D01*
X90250000Y-75102560D01*
X90014683Y-75146838D01*
X89798559Y-75285910D01*
X89653569Y-75498110D01*
X89617549Y-75675981D01*
X89043745Y-75102177D01*
X89146431Y-74951890D01*
X89197440Y-74700000D01*
X89197440Y-72900000D01*
X89153162Y-72664683D01*
X89014090Y-72448559D01*
X88801890Y-72303569D01*
X88659530Y-72274740D01*
X89020784Y-71913486D01*
X89106134Y-71785750D01*
X89156613Y-71710203D01*
X89602560Y-72156149D01*
X89602560Y-72156149D01*
G37*
X89602560Y-72156149D02*
X89602560Y-73750000D01*
X89646838Y-73985317D01*
X89785910Y-74201441D01*
X89998110Y-74346431D01*
X90250000Y-74397440D01*
X92750000Y-74397440D01*
X92985317Y-74353162D01*
X93201441Y-74214090D01*
X93346431Y-74001890D01*
X93397440Y-73750000D01*
X93397440Y-73495000D01*
X93758185Y-73495000D01*
X93653569Y-73648110D01*
X93602560Y-73900000D01*
X93602560Y-77100000D01*
X93646838Y-77335317D01*
X93752482Y-77499493D01*
X93711673Y-77540302D01*
X93615000Y-77773691D01*
X93615000Y-79214250D01*
X93773750Y-79373000D01*
X94873000Y-79373000D01*
X94873000Y-79353000D01*
X95127000Y-79353000D01*
X95127000Y-79373000D01*
X96226250Y-79373000D01*
X96385000Y-79214250D01*
X96385000Y-77773691D01*
X96288327Y-77540302D01*
X96246366Y-77498340D01*
X96346431Y-77351890D01*
X96397440Y-77100000D01*
X96397440Y-73942008D01*
X97913500Y-75458068D01*
X97913500Y-78702560D01*
X97900000Y-78702560D01*
X97664683Y-78746838D01*
X97448559Y-78885910D01*
X97303569Y-79098110D01*
X97252560Y-79350000D01*
X97252560Y-80650000D01*
X97296838Y-80885317D01*
X97435910Y-81101441D01*
X97648110Y-81246431D01*
X97900000Y-81297440D01*
X99400000Y-81297440D01*
X99635317Y-81253162D01*
X99851441Y-81114090D01*
X99996431Y-80901890D01*
X99999081Y-80888803D01*
X100135910Y-81101441D01*
X100348110Y-81246431D01*
X100600000Y-81297440D01*
X100756819Y-81297440D01*
X100768552Y-81315000D01*
X96348263Y-81315000D01*
X96385000Y-81226309D01*
X96385000Y-79785750D01*
X96226250Y-79627000D01*
X95127000Y-79627000D01*
X95127000Y-79647000D01*
X94873000Y-79647000D01*
X94873000Y-79627000D01*
X93773750Y-79627000D01*
X93615000Y-79785750D01*
X93615000Y-81226309D01*
X93651737Y-81315000D01*
X92415000Y-81315000D01*
X92415000Y-81285750D01*
X92256250Y-81127000D01*
X91127000Y-81127000D01*
X91127000Y-81147000D01*
X90873000Y-81147000D01*
X90873000Y-81127000D01*
X90853000Y-81127000D01*
X90853000Y-80873000D01*
X90873000Y-80873000D01*
X90873000Y-80853000D01*
X91127000Y-80853000D01*
X91127000Y-80873000D01*
X92256250Y-80873000D01*
X92415000Y-80714250D01*
X92415000Y-80548690D01*
X92318327Y-80315301D01*
X92139698Y-80136673D01*
X91920707Y-80045964D01*
X92015317Y-80028162D01*
X92231441Y-79889090D01*
X92376431Y-79676890D01*
X92427440Y-79425000D01*
X92427440Y-78775000D01*
X92383162Y-78539683D01*
X92291631Y-78397440D01*
X92750000Y-78397440D01*
X92985317Y-78353162D01*
X93201441Y-78214090D01*
X93346431Y-78001890D01*
X93397440Y-77750000D01*
X93397440Y-75750000D01*
X93353162Y-75514683D01*
X93214090Y-75298559D01*
X93001890Y-75153569D01*
X92750000Y-75102560D01*
X90250000Y-75102560D01*
X90014683Y-75146838D01*
X89798559Y-75285910D01*
X89653569Y-75498110D01*
X89617549Y-75675981D01*
X89043745Y-75102177D01*
X89146431Y-74951890D01*
X89197440Y-74700000D01*
X89197440Y-72900000D01*
X89153162Y-72664683D01*
X89014090Y-72448559D01*
X88801890Y-72303569D01*
X88659530Y-72274740D01*
X89020784Y-71913486D01*
X89106134Y-71785750D01*
X89156613Y-71710203D01*
X89602560Y-72156149D01*
G36*
X111315000Y-78702560D02*
X110100000Y-78702560D01*
X109864683Y-78746838D01*
X109648559Y-78885910D01*
X109503569Y-79098110D01*
X109500919Y-79111197D01*
X109364090Y-78898559D01*
X109151890Y-78753569D01*
X108900000Y-78702560D01*
X107794128Y-78702560D01*
X103566271Y-74474703D01*
X103327333Y-74315050D01*
X103045487Y-74258987D01*
X100397555Y-74258987D01*
X99080489Y-72941921D01*
X99201441Y-72864090D01*
X99346431Y-72651890D01*
X99364946Y-72560460D01*
X99364716Y-72823795D01*
X99613106Y-73424943D01*
X100072637Y-73885278D01*
X100673352Y-74134716D01*
X101323795Y-74135284D01*
X101924943Y-73886894D01*
X102385278Y-73427363D01*
X102461002Y-73245000D01*
X106038755Y-73245000D01*
X106113106Y-73424943D01*
X106572637Y-73885278D01*
X107173352Y-74134716D01*
X107823795Y-74135284D01*
X108424943Y-73886894D01*
X108885278Y-73427363D01*
X109127099Y-72844991D01*
X109223690Y-72885000D01*
X109714250Y-72885000D01*
X109873000Y-72726250D01*
X109873000Y-71627000D01*
X110127000Y-71627000D01*
X110127000Y-72726250D01*
X110285750Y-72885000D01*
X110776310Y-72885000D01*
X111009699Y-72788327D01*
X111188327Y-72609698D01*
X111285000Y-72376309D01*
X111285000Y-71785750D01*
X111126250Y-71627000D01*
X110127000Y-71627000D01*
X109873000Y-71627000D01*
X109853000Y-71627000D01*
X109853000Y-71373000D01*
X109873000Y-71373000D01*
X109873000Y-71353000D01*
X110127000Y-71353000D01*
X110127000Y-71373000D01*
X111126250Y-71373000D01*
X111285000Y-71214250D01*
X111285000Y-70623691D01*
X111188327Y-70390302D01*
X111009699Y-70211673D01*
X110873713Y-70155346D01*
X110885317Y-70153162D01*
X111101441Y-70014090D01*
X111246431Y-69801890D01*
X111297440Y-69550000D01*
X111297440Y-68050000D01*
X111253162Y-67814683D01*
X111114090Y-67598559D01*
X110901890Y-67453569D01*
X110650000Y-67402560D01*
X109606060Y-67402560D01*
X109481846Y-67319563D01*
X109200000Y-67263500D01*
X108964757Y-67263500D01*
X108886894Y-67075057D01*
X108427363Y-66614722D01*
X107826648Y-66365284D01*
X107176205Y-66364716D01*
X106575057Y-66613106D01*
X106505084Y-66682957D01*
X106495000Y-66672856D01*
X106495000Y-54558590D01*
X106993538Y-54060051D01*
X107173352Y-54134716D01*
X107823795Y-54135284D01*
X108424943Y-53886894D01*
X108885278Y-53427363D01*
X109134716Y-52826648D01*
X109135284Y-52176205D01*
X108886894Y-51575057D01*
X108427363Y-51114722D01*
X107826648Y-50865284D01*
X107176205Y-50864716D01*
X106575057Y-51113106D01*
X106114722Y-51572637D01*
X106038998Y-51755000D01*
X102461245Y-51755000D01*
X102386894Y-51575057D01*
X101927363Y-51114722D01*
X101326648Y-50865284D01*
X100676205Y-50864716D01*
X100075057Y-51113106D01*
X99614722Y-51572637D01*
X99365284Y-52173352D01*
X99364716Y-52823795D01*
X99613106Y-53424943D01*
X100072637Y-53885278D01*
X100673352Y-54134716D01*
X101323795Y-54135284D01*
X101924943Y-53886894D01*
X102385278Y-53427363D01*
X102461002Y-53245000D01*
X105701410Y-53245000D01*
X105223205Y-53723205D01*
X105061710Y-53964901D01*
X105004999Y-54250000D01*
X105005000Y-54250005D01*
X105005000Y-66672563D01*
X104957808Y-66719673D01*
X104815162Y-67063201D01*
X104814988Y-67263500D01*
X102464757Y-67263500D01*
X102386894Y-67075057D01*
X101927363Y-66614722D01*
X101326648Y-66365284D01*
X100676205Y-66364716D01*
X100485204Y-66443636D01*
X96239008Y-62197440D01*
X96950000Y-62197440D01*
X97185317Y-62153162D01*
X97401441Y-62014090D01*
X97546431Y-61801890D01*
X97597440Y-61550000D01*
X97597440Y-59350000D01*
X97553162Y-59114683D01*
X97414090Y-58898559D01*
X97344289Y-58850866D01*
X97401441Y-58814090D01*
X97546431Y-58601890D01*
X97597440Y-58350000D01*
X97597440Y-56150000D01*
X97553162Y-55914683D01*
X97414090Y-55698559D01*
X97201890Y-55553569D01*
X96950000Y-55502560D01*
X95550000Y-55502560D01*
X95314683Y-55546838D01*
X95098559Y-55685910D01*
X94986500Y-55849914D01*
X94986500Y-50055068D01*
X96305068Y-48736500D01*
X99535243Y-48736500D01*
X99613106Y-48924943D01*
X100072637Y-49385278D01*
X100673352Y-49634716D01*
X101323795Y-49635284D01*
X101924943Y-49386894D01*
X102385278Y-48927363D01*
X102464531Y-48736500D01*
X106035243Y-48736500D01*
X106113106Y-48924943D01*
X106572637Y-49385278D01*
X107173352Y-49634716D01*
X107823795Y-49635284D01*
X108424943Y-49386894D01*
X108885278Y-48927363D01*
X109134716Y-48326648D01*
X109135284Y-47676205D01*
X108886894Y-47075057D01*
X108427363Y-46614722D01*
X107826648Y-46365284D01*
X107176205Y-46364716D01*
X106575057Y-46613106D01*
X106114722Y-47072637D01*
X106035469Y-47263500D01*
X102464757Y-47263500D01*
X102386894Y-47075057D01*
X101927363Y-46614722D01*
X101326648Y-46365284D01*
X100676205Y-46364716D01*
X100075057Y-46613106D01*
X99614722Y-47072637D01*
X99535469Y-47263500D01*
X96000000Y-47263500D01*
X95718154Y-47319563D01*
X95479216Y-47479216D01*
X93729216Y-49229216D01*
X93569563Y-49468154D01*
X93513500Y-49750000D01*
X93513500Y-51113568D01*
X93276702Y-51015241D01*
X92725715Y-51014760D01*
X92216485Y-51225169D01*
X91826539Y-51614436D01*
X91764642Y-51763500D01*
X90626460Y-51763500D01*
X90603162Y-51639683D01*
X90587662Y-51615595D01*
X90635000Y-51501310D01*
X90635000Y-51035750D01*
X90476250Y-50877000D01*
X89377000Y-50877000D01*
X89377000Y-50897000D01*
X89123000Y-50897000D01*
X89123000Y-50877000D01*
X89103000Y-50877000D01*
X89103000Y-50623000D01*
X89123000Y-50623000D01*
X89123000Y-50603000D01*
X89377000Y-50603000D01*
X89377000Y-50623000D01*
X90476250Y-50623000D01*
X90635000Y-50464250D01*
X90635000Y-49998690D01*
X90538327Y-49765301D01*
X90359698Y-49586673D01*
X90126309Y-49490000D01*
X89535750Y-49490000D01*
X89377002Y-49648748D01*
X89377002Y-49492566D01*
X89770784Y-49098784D01*
X89930437Y-48859846D01*
X89947823Y-48772440D01*
X90000000Y-48772440D01*
X90235317Y-48728162D01*
X90451441Y-48589090D01*
X90596431Y-48376890D01*
X90624861Y-48236500D01*
X91797479Y-48236500D01*
X91825169Y-48303515D01*
X92214436Y-48693461D01*
X92723298Y-48904759D01*
X93274285Y-48905240D01*
X93783515Y-48694831D01*
X94173461Y-48305564D01*
X94384759Y-47796702D01*
X94385240Y-47245715D01*
X94174831Y-46736485D01*
X93785564Y-46346539D01*
X93276702Y-46135241D01*
X92725715Y-46134760D01*
X92216485Y-46345169D01*
X91826539Y-46734436D01*
X91814471Y-46763500D01*
X90626460Y-46763500D01*
X90603162Y-46639683D01*
X90464090Y-46423559D01*
X90251890Y-46278569D01*
X90000000Y-46227560D01*
X88500000Y-46227560D01*
X88264683Y-46271838D01*
X88048559Y-46410910D01*
X88002031Y-46479006D01*
X87859698Y-46336673D01*
X87626309Y-46240000D01*
X87035750Y-46240000D01*
X86877000Y-46398750D01*
X86877000Y-47373000D01*
X86897000Y-47373000D01*
X86897000Y-47627000D01*
X86877000Y-47627000D01*
X86877000Y-48601250D01*
X87035750Y-48760000D01*
X87626309Y-48760000D01*
X87859698Y-48663327D01*
X88000936Y-48522090D01*
X88035910Y-48576441D01*
X88139328Y-48647104D01*
X87677715Y-49108717D01*
X87518062Y-49347655D01*
X87492222Y-49477560D01*
X86000000Y-49477560D01*
X85764683Y-49521838D01*
X85548559Y-49660910D01*
X85403569Y-49873110D01*
X85352560Y-50125000D01*
X85352560Y-50968850D01*
X85163204Y-51158206D01*
X85026082Y-51363425D01*
X84901890Y-51278569D01*
X84736500Y-51245077D01*
X84736500Y-47785750D01*
X85365000Y-47785750D01*
X85365000Y-48251310D01*
X85461673Y-48484699D01*
X85640302Y-48663327D01*
X85873691Y-48760000D01*
X86464250Y-48760000D01*
X86623000Y-48601250D01*
X86623000Y-47627000D01*
X85523750Y-47627000D01*
X85365000Y-47785750D01*
X84736500Y-47785750D01*
X84736500Y-46748690D01*
X85365000Y-46748690D01*
X85365000Y-47214250D01*
X85523750Y-47373000D01*
X86623000Y-47373000D01*
X86623000Y-46398750D01*
X86464250Y-46240000D01*
X85873691Y-46240000D01*
X85640302Y-46336673D01*
X85461673Y-46515301D01*
X85365000Y-46748690D01*
X84736500Y-46748690D01*
X84736500Y-46052055D01*
X84680437Y-45770209D01*
X84520784Y-45531271D01*
X79674513Y-40685000D01*
X111315000Y-40685000D01*
X111315000Y-78702560D01*
X111315000Y-78702560D01*
G37*
X111315000Y-78702560D02*
X110100000Y-78702560D01*
X109864683Y-78746838D01*
X109648559Y-78885910D01*
X109503569Y-79098110D01*
X109500919Y-79111197D01*
X109364090Y-78898559D01*
X109151890Y-78753569D01*
X108900000Y-78702560D01*
X107794128Y-78702560D01*
X103566271Y-74474703D01*
X103327333Y-74315050D01*
X103045487Y-74258987D01*
X100397555Y-74258987D01*
X99080489Y-72941921D01*
X99201441Y-72864090D01*
X99346431Y-72651890D01*
X99364946Y-72560460D01*
X99364716Y-72823795D01*
X99613106Y-73424943D01*
X100072637Y-73885278D01*
X100673352Y-74134716D01*
X101323795Y-74135284D01*
X101924943Y-73886894D01*
X102385278Y-73427363D01*
X102461002Y-73245000D01*
X106038755Y-73245000D01*
X106113106Y-73424943D01*
X106572637Y-73885278D01*
X107173352Y-74134716D01*
X107823795Y-74135284D01*
X108424943Y-73886894D01*
X108885278Y-73427363D01*
X109127099Y-72844991D01*
X109223690Y-72885000D01*
X109714250Y-72885000D01*
X109873000Y-72726250D01*
X109873000Y-71627000D01*
X110127000Y-71627000D01*
X110127000Y-72726250D01*
X110285750Y-72885000D01*
X110776310Y-72885000D01*
X111009699Y-72788327D01*
X111188327Y-72609698D01*
X111285000Y-72376309D01*
X111285000Y-71785750D01*
X111126250Y-71627000D01*
X110127000Y-71627000D01*
X109873000Y-71627000D01*
X109853000Y-71627000D01*
X109853000Y-71373000D01*
X109873000Y-71373000D01*
X109873000Y-71353000D01*
X110127000Y-71353000D01*
X110127000Y-71373000D01*
X111126250Y-71373000D01*
X111285000Y-71214250D01*
X111285000Y-70623691D01*
X111188327Y-70390302D01*
X111009699Y-70211673D01*
X110873713Y-70155346D01*
X110885317Y-70153162D01*
X111101441Y-70014090D01*
X111246431Y-69801890D01*
X111297440Y-69550000D01*
X111297440Y-68050000D01*
X111253162Y-67814683D01*
X111114090Y-67598559D01*
X110901890Y-67453569D01*
X110650000Y-67402560D01*
X109606060Y-67402560D01*
X109481846Y-67319563D01*
X109200000Y-67263500D01*
X108964757Y-67263500D01*
X108886894Y-67075057D01*
X108427363Y-66614722D01*
X107826648Y-66365284D01*
X107176205Y-66364716D01*
X106575057Y-66613106D01*
X106505084Y-66682957D01*
X106495000Y-66672856D01*
X106495000Y-54558590D01*
X106993538Y-54060051D01*
X107173352Y-54134716D01*
X107823795Y-54135284D01*
X108424943Y-53886894D01*
X108885278Y-53427363D01*
X109134716Y-52826648D01*
X109135284Y-52176205D01*
X108886894Y-51575057D01*
X108427363Y-51114722D01*
X107826648Y-50865284D01*
X107176205Y-50864716D01*
X106575057Y-51113106D01*
X106114722Y-51572637D01*
X106038998Y-51755000D01*
X102461245Y-51755000D01*
X102386894Y-51575057D01*
X101927363Y-51114722D01*
X101326648Y-50865284D01*
X100676205Y-50864716D01*
X100075057Y-51113106D01*
X99614722Y-51572637D01*
X99365284Y-52173352D01*
X99364716Y-52823795D01*
X99613106Y-53424943D01*
X100072637Y-53885278D01*
X100673352Y-54134716D01*
X101323795Y-54135284D01*
X101924943Y-53886894D01*
X102385278Y-53427363D01*
X102461002Y-53245000D01*
X105701410Y-53245000D01*
X105223205Y-53723205D01*
X105061710Y-53964901D01*
X105004999Y-54250000D01*
X105005000Y-54250005D01*
X105005000Y-66672563D01*
X104957808Y-66719673D01*
X104815162Y-67063201D01*
X104814988Y-67263500D01*
X102464757Y-67263500D01*
X102386894Y-67075057D01*
X101927363Y-66614722D01*
X101326648Y-66365284D01*
X100676205Y-66364716D01*
X100485204Y-66443636D01*
X96239008Y-62197440D01*
X96950000Y-62197440D01*
X97185317Y-62153162D01*
X97401441Y-62014090D01*
X97546431Y-61801890D01*
X97597440Y-61550000D01*
X97597440Y-59350000D01*
X97553162Y-59114683D01*
X97414090Y-58898559D01*
X97344289Y-58850866D01*
X97401441Y-58814090D01*
X97546431Y-58601890D01*
X97597440Y-58350000D01*
X97597440Y-56150000D01*
X97553162Y-55914683D01*
X97414090Y-55698559D01*
X97201890Y-55553569D01*
X96950000Y-55502560D01*
X95550000Y-55502560D01*
X95314683Y-55546838D01*
X95098559Y-55685910D01*
X94986500Y-55849914D01*
X94986500Y-50055068D01*
X96305068Y-48736500D01*
X99535243Y-48736500D01*
X99613106Y-48924943D01*
X100072637Y-49385278D01*
X100673352Y-49634716D01*
X101323795Y-49635284D01*
X101924943Y-49386894D01*
X102385278Y-48927363D01*
X102464531Y-48736500D01*
X106035243Y-48736500D01*
X106113106Y-48924943D01*
X106572637Y-49385278D01*
X107173352Y-49634716D01*
X107823795Y-49635284D01*
X108424943Y-49386894D01*
X108885278Y-48927363D01*
X109134716Y-48326648D01*
X109135284Y-47676205D01*
X108886894Y-47075057D01*
X108427363Y-46614722D01*
X107826648Y-46365284D01*
X107176205Y-46364716D01*
X106575057Y-46613106D01*
X106114722Y-47072637D01*
X106035469Y-47263500D01*
X102464757Y-47263500D01*
X102386894Y-47075057D01*
X101927363Y-46614722D01*
X101326648Y-46365284D01*
X100676205Y-46364716D01*
X100075057Y-46613106D01*
X99614722Y-47072637D01*
X99535469Y-47263500D01*
X96000000Y-47263500D01*
X95718154Y-47319563D01*
X95479216Y-47479216D01*
X93729216Y-49229216D01*
X93569563Y-49468154D01*
X93513500Y-49750000D01*
X93513500Y-51113568D01*
X93276702Y-51015241D01*
X92725715Y-51014760D01*
X92216485Y-51225169D01*
X91826539Y-51614436D01*
X91764642Y-51763500D01*
X90626460Y-51763500D01*
X90603162Y-51639683D01*
X90587662Y-51615595D01*
X90635000Y-51501310D01*
X90635000Y-51035750D01*
X90476250Y-50877000D01*
X89377000Y-50877000D01*
X89377000Y-50897000D01*
X89123000Y-50897000D01*
X89123000Y-50877000D01*
X89103000Y-50877000D01*
X89103000Y-50623000D01*
X89123000Y-50623000D01*
X89123000Y-50603000D01*
X89377000Y-50603000D01*
X89377000Y-50623000D01*
X90476250Y-50623000D01*
X90635000Y-50464250D01*
X90635000Y-49998690D01*
X90538327Y-49765301D01*
X90359698Y-49586673D01*
X90126309Y-49490000D01*
X89535750Y-49490000D01*
X89377002Y-49648748D01*
X89377002Y-49492566D01*
X89770784Y-49098784D01*
X89930437Y-48859846D01*
X89947823Y-48772440D01*
X90000000Y-48772440D01*
X90235317Y-48728162D01*
X90451441Y-48589090D01*
X90596431Y-48376890D01*
X90624861Y-48236500D01*
X91797479Y-48236500D01*
X91825169Y-48303515D01*
X92214436Y-48693461D01*
X92723298Y-48904759D01*
X93274285Y-48905240D01*
X93783515Y-48694831D01*
X94173461Y-48305564D01*
X94384759Y-47796702D01*
X94385240Y-47245715D01*
X94174831Y-46736485D01*
X93785564Y-46346539D01*
X93276702Y-46135241D01*
X92725715Y-46134760D01*
X92216485Y-46345169D01*
X91826539Y-46734436D01*
X91814471Y-46763500D01*
X90626460Y-46763500D01*
X90603162Y-46639683D01*
X90464090Y-46423559D01*
X90251890Y-46278569D01*
X90000000Y-46227560D01*
X88500000Y-46227560D01*
X88264683Y-46271838D01*
X88048559Y-46410910D01*
X88002031Y-46479006D01*
X87859698Y-46336673D01*
X87626309Y-46240000D01*
X87035750Y-46240000D01*
X86877000Y-46398750D01*
X86877000Y-47373000D01*
X86897000Y-47373000D01*
X86897000Y-47627000D01*
X86877000Y-47627000D01*
X86877000Y-48601250D01*
X87035750Y-48760000D01*
X87626309Y-48760000D01*
X87859698Y-48663327D01*
X88000936Y-48522090D01*
X88035910Y-48576441D01*
X88139328Y-48647104D01*
X87677715Y-49108717D01*
X87518062Y-49347655D01*
X87492222Y-49477560D01*
X86000000Y-49477560D01*
X85764683Y-49521838D01*
X85548559Y-49660910D01*
X85403569Y-49873110D01*
X85352560Y-50125000D01*
X85352560Y-50968850D01*
X85163204Y-51158206D01*
X85026082Y-51363425D01*
X84901890Y-51278569D01*
X84736500Y-51245077D01*
X84736500Y-47785750D01*
X85365000Y-47785750D01*
X85365000Y-48251310D01*
X85461673Y-48484699D01*
X85640302Y-48663327D01*
X85873691Y-48760000D01*
X86464250Y-48760000D01*
X86623000Y-48601250D01*
X86623000Y-47627000D01*
X85523750Y-47627000D01*
X85365000Y-47785750D01*
X84736500Y-47785750D01*
X84736500Y-46748690D01*
X85365000Y-46748690D01*
X85365000Y-47214250D01*
X85523750Y-47373000D01*
X86623000Y-47373000D01*
X86623000Y-46398750D01*
X86464250Y-46240000D01*
X85873691Y-46240000D01*
X85640302Y-46336673D01*
X85461673Y-46515301D01*
X85365000Y-46748690D01*
X84736500Y-46748690D01*
X84736500Y-46052055D01*
X84680437Y-45770209D01*
X84520784Y-45531271D01*
X79674513Y-40685000D01*
X111315000Y-40685000D01*
X111315000Y-78702560D01*
G36*
X73047000Y-76143000D02*
X73067000Y-76143000D01*
X73067000Y-76187436D01*
X73055000Y-76247764D01*
X73055000Y-76292236D01*
X73067000Y-76352564D01*
X73067000Y-76397000D01*
X73047000Y-76397000D01*
X73047000Y-76417000D01*
X72793000Y-76417000D01*
X72793000Y-76397000D01*
X72773000Y-76397000D01*
X72773000Y-76143000D01*
X72793000Y-76143000D01*
X72793000Y-76131974D01*
X72920000Y-76157236D01*
X73047000Y-76131974D01*
X73047000Y-76143000D01*
X73047000Y-76143000D01*
G37*
X73047000Y-76143000D02*
X73067000Y-76143000D01*
X73067000Y-76187436D01*
X73055000Y-76247764D01*
X73055000Y-76292236D01*
X73067000Y-76352564D01*
X73067000Y-76397000D01*
X73047000Y-76397000D01*
X73047000Y-76417000D01*
X72793000Y-76417000D01*
X72793000Y-76397000D01*
X72773000Y-76397000D01*
X72773000Y-76143000D01*
X72793000Y-76143000D01*
X72793000Y-76131974D01*
X72920000Y-76157236D01*
X73047000Y-76131974D01*
X73047000Y-76143000D01*
G36*
X63702560Y-66950000D02*
X63746838Y-67185317D01*
X63862271Y-67364704D01*
X63836673Y-67390302D01*
X63740000Y-67623691D01*
X63740000Y-68214250D01*
X63898750Y-68373000D01*
X64873000Y-68373000D01*
X64873000Y-68353000D01*
X65127000Y-68353000D01*
X65127000Y-68373000D01*
X66101250Y-68373000D01*
X66260000Y-68214250D01*
X66260000Y-67623691D01*
X66249126Y-67597440D01*
X66643851Y-67597440D01*
X66905000Y-67858589D01*
X66905000Y-68077560D01*
X66870000Y-68077560D01*
X66634683Y-68121838D01*
X66418559Y-68260910D01*
X66273569Y-68473110D01*
X66222560Y-68725000D01*
X66222560Y-68748310D01*
X66101250Y-68627000D01*
X65127000Y-68627000D01*
X65127000Y-68647000D01*
X64873000Y-68647000D01*
X64873000Y-68627000D01*
X63898750Y-68627000D01*
X63740000Y-68785750D01*
X63740000Y-69376309D01*
X63836673Y-69609698D01*
X63977910Y-69750936D01*
X63923559Y-69785910D01*
X63778569Y-69998110D01*
X63727560Y-70250000D01*
X63727560Y-71750000D01*
X63730100Y-71763500D01*
X62363338Y-71763500D01*
X62446431Y-71641890D01*
X62497440Y-71390000D01*
X62497440Y-69690000D01*
X62474339Y-69567229D01*
X63075296Y-68966272D01*
X63234949Y-68727335D01*
X63291012Y-68445488D01*
X63291012Y-65057854D01*
X63702560Y-64646306D01*
X63702560Y-66950000D01*
X63702560Y-66950000D01*
G37*
X63702560Y-66950000D02*
X63746838Y-67185317D01*
X63862271Y-67364704D01*
X63836673Y-67390302D01*
X63740000Y-67623691D01*
X63740000Y-68214250D01*
X63898750Y-68373000D01*
X64873000Y-68373000D01*
X64873000Y-68353000D01*
X65127000Y-68353000D01*
X65127000Y-68373000D01*
X66101250Y-68373000D01*
X66260000Y-68214250D01*
X66260000Y-67623691D01*
X66249126Y-67597440D01*
X66643851Y-67597440D01*
X66905000Y-67858589D01*
X66905000Y-68077560D01*
X66870000Y-68077560D01*
X66634683Y-68121838D01*
X66418559Y-68260910D01*
X66273569Y-68473110D01*
X66222560Y-68725000D01*
X66222560Y-68748310D01*
X66101250Y-68627000D01*
X65127000Y-68627000D01*
X65127000Y-68647000D01*
X64873000Y-68647000D01*
X64873000Y-68627000D01*
X63898750Y-68627000D01*
X63740000Y-68785750D01*
X63740000Y-69376309D01*
X63836673Y-69609698D01*
X63977910Y-69750936D01*
X63923559Y-69785910D01*
X63778569Y-69998110D01*
X63727560Y-70250000D01*
X63727560Y-71750000D01*
X63730100Y-71763500D01*
X62363338Y-71763500D01*
X62446431Y-71641890D01*
X62497440Y-71390000D01*
X62497440Y-69690000D01*
X62474339Y-69567229D01*
X63075296Y-68966272D01*
X63234949Y-68727335D01*
X63291012Y-68445488D01*
X63291012Y-65057854D01*
X63702560Y-64646306D01*
X63702560Y-66950000D01*
G36*
X74702560Y-68200000D02*
X74746838Y-68435317D01*
X74863500Y-68616615D01*
X74863500Y-70094932D01*
X73893525Y-71064907D01*
X73814833Y-71064838D01*
X73619711Y-71145461D01*
X73601250Y-71127000D01*
X72627000Y-71127000D01*
X72627000Y-71147000D01*
X72373000Y-71147000D01*
X72373000Y-71127000D01*
X72353000Y-71127000D01*
X72353000Y-70873000D01*
X72373000Y-70873000D01*
X72373000Y-70853000D01*
X72627000Y-70853000D01*
X72627000Y-70873000D01*
X73601250Y-70873000D01*
X73760000Y-70714250D01*
X73760000Y-70123691D01*
X73663327Y-69890302D01*
X73522090Y-69749064D01*
X73576441Y-69714090D01*
X73721431Y-69501890D01*
X73772440Y-69250000D01*
X73772440Y-67750000D01*
X73728162Y-67514683D01*
X73689758Y-67455001D01*
X74702560Y-67455001D01*
X74702560Y-68200000D01*
X74702560Y-68200000D01*
G37*
X74702560Y-68200000D02*
X74746838Y-68435317D01*
X74863500Y-68616615D01*
X74863500Y-70094932D01*
X73893525Y-71064907D01*
X73814833Y-71064838D01*
X73619711Y-71145461D01*
X73601250Y-71127000D01*
X72627000Y-71127000D01*
X72627000Y-71147000D01*
X72373000Y-71147000D01*
X72373000Y-71127000D01*
X72353000Y-71127000D01*
X72353000Y-70873000D01*
X72373000Y-70873000D01*
X72373000Y-70853000D01*
X72627000Y-70853000D01*
X72627000Y-70873000D01*
X73601250Y-70873000D01*
X73760000Y-70714250D01*
X73760000Y-70123691D01*
X73663327Y-69890302D01*
X73522090Y-69749064D01*
X73576441Y-69714090D01*
X73721431Y-69501890D01*
X73772440Y-69250000D01*
X73772440Y-67750000D01*
X73728162Y-67514683D01*
X73689758Y-67455001D01*
X74702560Y-67455001D01*
X74702560Y-68200000D01*
G36*
X86269413Y-69415000D02*
X86085750Y-69415000D01*
X85927000Y-69573750D01*
X85927000Y-70673000D01*
X85947000Y-70673000D01*
X85947000Y-70927000D01*
X85927000Y-70927000D01*
X85927000Y-70947000D01*
X85673000Y-70947000D01*
X85673000Y-70927000D01*
X85653000Y-70927000D01*
X85653000Y-70673000D01*
X85673000Y-70673000D01*
X85673000Y-69573750D01*
X85514250Y-69415000D01*
X84073691Y-69415000D01*
X83840302Y-69511673D01*
X83798340Y-69553634D01*
X83651890Y-69453569D01*
X83400000Y-69402560D01*
X82639008Y-69402560D01*
X82720784Y-69320784D01*
X82880437Y-69081846D01*
X82936500Y-68800000D01*
X82936500Y-68612779D01*
X83046431Y-68451890D01*
X83097440Y-68200000D01*
X83097440Y-67455001D01*
X84309413Y-67455001D01*
X86269413Y-69415000D01*
X86269413Y-69415000D01*
G37*
X86269413Y-69415000D02*
X86085750Y-69415000D01*
X85927000Y-69573750D01*
X85927000Y-70673000D01*
X85947000Y-70673000D01*
X85947000Y-70927000D01*
X85927000Y-70927000D01*
X85927000Y-70947000D01*
X85673000Y-70947000D01*
X85673000Y-70927000D01*
X85653000Y-70927000D01*
X85653000Y-70673000D01*
X85673000Y-70673000D01*
X85673000Y-69573750D01*
X85514250Y-69415000D01*
X84073691Y-69415000D01*
X83840302Y-69511673D01*
X83798340Y-69553634D01*
X83651890Y-69453569D01*
X83400000Y-69402560D01*
X82639008Y-69402560D01*
X82720784Y-69320784D01*
X82880437Y-69081846D01*
X82936500Y-68800000D01*
X82936500Y-68612779D01*
X83046431Y-68451890D01*
X83097440Y-68200000D01*
X83097440Y-67455001D01*
X84309413Y-67455001D01*
X86269413Y-69415000D01*
G36*
X66248919Y-69515086D02*
X66235000Y-69548690D01*
X66235000Y-69714250D01*
X66393750Y-69873000D01*
X66474051Y-69873000D01*
X66618110Y-69971431D01*
X66755120Y-69999176D01*
X66634683Y-70021838D01*
X66471257Y-70127000D01*
X66393750Y-70127000D01*
X66272172Y-70248578D01*
X66228162Y-70014683D01*
X66089090Y-69798559D01*
X66020994Y-69752031D01*
X66163327Y-69609698D01*
X66234424Y-69438054D01*
X66248919Y-69515086D01*
X66248919Y-69515086D01*
G37*
X66248919Y-69515086D02*
X66235000Y-69548690D01*
X66235000Y-69714250D01*
X66393750Y-69873000D01*
X66474051Y-69873000D01*
X66618110Y-69971431D01*
X66755120Y-69999176D01*
X66634683Y-70021838D01*
X66471257Y-70127000D01*
X66393750Y-70127000D01*
X66272172Y-70248578D01*
X66228162Y-70014683D01*
X66089090Y-69798559D01*
X66020994Y-69752031D01*
X66163327Y-69609698D01*
X66234424Y-69438054D01*
X66248919Y-69515086D01*
G36*
X73627000Y-60623000D02*
X73647000Y-60623000D01*
X73647000Y-60877000D01*
X73627000Y-60877000D01*
X73627000Y-61976250D01*
X73785750Y-62135000D01*
X74251310Y-62135000D01*
X74255000Y-62133472D01*
X74255000Y-63691411D01*
X73131514Y-64814896D01*
X73064833Y-64814838D01*
X72721057Y-64956883D01*
X72565629Y-65112040D01*
X72235245Y-64781655D01*
X72229599Y-64773205D01*
X71987903Y-64611710D01*
X71797440Y-64573824D01*
X71797440Y-63350000D01*
X71753162Y-63114683D01*
X71742874Y-63098694D01*
X72718905Y-62122663D01*
X72748690Y-62135000D01*
X73214250Y-62135000D01*
X73373000Y-61976250D01*
X73373000Y-60877000D01*
X73353000Y-60877000D01*
X73353000Y-60623000D01*
X73373000Y-60623000D01*
X73373000Y-60603000D01*
X73627000Y-60603000D01*
X73627000Y-60623000D01*
X73627000Y-60623000D01*
G37*
X73627000Y-60623000D02*
X73647000Y-60623000D01*
X73647000Y-60877000D01*
X73627000Y-60877000D01*
X73627000Y-61976250D01*
X73785750Y-62135000D01*
X74251310Y-62135000D01*
X74255000Y-62133472D01*
X74255000Y-63691411D01*
X73131514Y-64814896D01*
X73064833Y-64814838D01*
X72721057Y-64956883D01*
X72565629Y-65112040D01*
X72235245Y-64781655D01*
X72229599Y-64773205D01*
X71987903Y-64611710D01*
X71797440Y-64573824D01*
X71797440Y-63350000D01*
X71753162Y-63114683D01*
X71742874Y-63098694D01*
X72718905Y-62122663D01*
X72748690Y-62135000D01*
X73214250Y-62135000D01*
X73373000Y-61976250D01*
X73373000Y-60877000D01*
X73353000Y-60877000D01*
X73353000Y-60623000D01*
X73373000Y-60623000D01*
X73373000Y-60603000D01*
X73627000Y-60603000D01*
X73627000Y-60623000D01*
G36*
X82377000Y-63373000D02*
X82397000Y-63373000D01*
X82397000Y-63627000D01*
X82377000Y-63627000D01*
X82377000Y-63647000D01*
X82123000Y-63647000D01*
X82123000Y-63627000D01*
X82103000Y-63627000D01*
X82103000Y-63373000D01*
X82123000Y-63373000D01*
X82123000Y-63353000D01*
X82377000Y-63353000D01*
X82377000Y-63373000D01*
X82377000Y-63373000D01*
G37*
X82377000Y-63373000D02*
X82397000Y-63373000D01*
X82397000Y-63627000D01*
X82377000Y-63627000D01*
X82377000Y-63647000D01*
X82123000Y-63647000D01*
X82123000Y-63627000D01*
X82103000Y-63627000D01*
X82103000Y-63373000D01*
X82123000Y-63373000D01*
X82123000Y-63353000D01*
X82377000Y-63353000D01*
X82377000Y-63373000D01*
G36*
X86127000Y-60373000D02*
X86147000Y-60373000D01*
X86147000Y-60627000D01*
X86127000Y-60627000D01*
X86127000Y-60647000D01*
X85873000Y-60647000D01*
X85873000Y-60627000D01*
X85853000Y-60627000D01*
X85853000Y-60373000D01*
X85873000Y-60373000D01*
X85873000Y-60353000D01*
X86127000Y-60353000D01*
X86127000Y-60373000D01*
X86127000Y-60373000D01*
G37*
X86127000Y-60373000D02*
X86147000Y-60373000D01*
X86147000Y-60627000D01*
X86127000Y-60627000D01*
X86127000Y-60647000D01*
X85873000Y-60647000D01*
X85873000Y-60627000D01*
X85853000Y-60627000D01*
X85853000Y-60373000D01*
X85873000Y-60373000D01*
X85873000Y-60353000D01*
X86127000Y-60353000D01*
X86127000Y-60373000D01*
G36*
X61022247Y-55827753D02*
X61252912Y-55981878D01*
X61253891Y-55982073D01*
X61296838Y-56210317D01*
X61435910Y-56426441D01*
X61648110Y-56571431D01*
X61900000Y-56622440D01*
X63400000Y-56622440D01*
X63635317Y-56578162D01*
X63851441Y-56439090D01*
X63996431Y-56226890D01*
X63999081Y-56213803D01*
X64135910Y-56426441D01*
X64348110Y-56571431D01*
X64600000Y-56622440D01*
X64842361Y-56622440D01*
X64847247Y-56629753D01*
X65220247Y-57002753D01*
X65450912Y-57156878D01*
X65723000Y-57211000D01*
X66114038Y-57211000D01*
X66146838Y-57385317D01*
X66157934Y-57402560D01*
X64350000Y-57402560D01*
X64114683Y-57446838D01*
X63898559Y-57585910D01*
X63753569Y-57798110D01*
X63702560Y-58050000D01*
X63702560Y-59015001D01*
X56448263Y-59015001D01*
X56485000Y-58926309D01*
X56485000Y-58035750D01*
X56326250Y-57877000D01*
X55177000Y-57877000D01*
X55177000Y-57897000D01*
X54923000Y-57897000D01*
X54923000Y-57877000D01*
X54903000Y-57877000D01*
X54903000Y-57623000D01*
X54923000Y-57623000D01*
X54923000Y-57603000D01*
X55177000Y-57603000D01*
X55177000Y-57623000D01*
X56326250Y-57623000D01*
X56485000Y-57464250D01*
X56485000Y-56785000D01*
X56626310Y-56785000D01*
X56859699Y-56688327D01*
X57038327Y-56509698D01*
X57135000Y-56276309D01*
X57135000Y-56208750D01*
X56976250Y-56050000D01*
X56831518Y-56050000D01*
X56859699Y-56038327D01*
X57038327Y-55859698D01*
X57089080Y-55737170D01*
X57135000Y-55691250D01*
X57135000Y-55558750D01*
X57089080Y-55512830D01*
X57053529Y-55427002D01*
X57135000Y-55427002D01*
X57135000Y-55334147D01*
X57272088Y-55306878D01*
X57411838Y-55213500D01*
X60407994Y-55213500D01*
X61022247Y-55827753D01*
X61022247Y-55827753D01*
G37*
X61022247Y-55827753D02*
X61252912Y-55981878D01*
X61253891Y-55982073D01*
X61296838Y-56210317D01*
X61435910Y-56426441D01*
X61648110Y-56571431D01*
X61900000Y-56622440D01*
X63400000Y-56622440D01*
X63635317Y-56578162D01*
X63851441Y-56439090D01*
X63996431Y-56226890D01*
X63999081Y-56213803D01*
X64135910Y-56426441D01*
X64348110Y-56571431D01*
X64600000Y-56622440D01*
X64842361Y-56622440D01*
X64847247Y-56629753D01*
X65220247Y-57002753D01*
X65450912Y-57156878D01*
X65723000Y-57211000D01*
X66114038Y-57211000D01*
X66146838Y-57385317D01*
X66157934Y-57402560D01*
X64350000Y-57402560D01*
X64114683Y-57446838D01*
X63898559Y-57585910D01*
X63753569Y-57798110D01*
X63702560Y-58050000D01*
X63702560Y-59015001D01*
X56448263Y-59015001D01*
X56485000Y-58926309D01*
X56485000Y-58035750D01*
X56326250Y-57877000D01*
X55177000Y-57877000D01*
X55177000Y-57897000D01*
X54923000Y-57897000D01*
X54923000Y-57877000D01*
X54903000Y-57877000D01*
X54903000Y-57623000D01*
X54923000Y-57623000D01*
X54923000Y-57603000D01*
X55177000Y-57603000D01*
X55177000Y-57623000D01*
X56326250Y-57623000D01*
X56485000Y-57464250D01*
X56485000Y-56785000D01*
X56626310Y-56785000D01*
X56859699Y-56688327D01*
X57038327Y-56509698D01*
X57135000Y-56276309D01*
X57135000Y-56208750D01*
X56976250Y-56050000D01*
X56831518Y-56050000D01*
X56859699Y-56038327D01*
X57038327Y-55859698D01*
X57089080Y-55737170D01*
X57135000Y-55691250D01*
X57135000Y-55558750D01*
X57089080Y-55512830D01*
X57053529Y-55427002D01*
X57135000Y-55427002D01*
X57135000Y-55334147D01*
X57272088Y-55306878D01*
X57411838Y-55213500D01*
X60407994Y-55213500D01*
X61022247Y-55827753D01*
G36*
X52627000Y-50673000D02*
X52647000Y-50673000D01*
X52647000Y-50927000D01*
X52627000Y-50927000D01*
X52627000Y-53323000D01*
X52647000Y-53323000D01*
X52647000Y-53577000D01*
X52627000Y-53577000D01*
X52627000Y-55723000D01*
X52647000Y-55723000D01*
X52647000Y-55977000D01*
X52627000Y-55977000D01*
X52627000Y-58373000D01*
X52647000Y-58373000D01*
X52647000Y-58627000D01*
X52627000Y-58627000D01*
X52627000Y-58647000D01*
X52373000Y-58647000D01*
X52373000Y-58627000D01*
X52353000Y-58627000D01*
X52353000Y-58373000D01*
X52373000Y-58373000D01*
X52373000Y-55977000D01*
X52353000Y-55977000D01*
X52353000Y-55723000D01*
X52373000Y-55723000D01*
X52373000Y-53577000D01*
X52353000Y-53577000D01*
X52353000Y-53323000D01*
X52373000Y-53323000D01*
X52373000Y-50927000D01*
X52353000Y-50927000D01*
X52353000Y-50673000D01*
X52373000Y-50673000D01*
X52373000Y-50653000D01*
X52627000Y-50653000D01*
X52627000Y-50673000D01*
X52627000Y-50673000D01*
G37*
X52627000Y-50673000D02*
X52647000Y-50673000D01*
X52647000Y-50927000D01*
X52627000Y-50927000D01*
X52627000Y-53323000D01*
X52647000Y-53323000D01*
X52647000Y-53577000D01*
X52627000Y-53577000D01*
X52627000Y-55723000D01*
X52647000Y-55723000D01*
X52647000Y-55977000D01*
X52627000Y-55977000D01*
X52627000Y-58373000D01*
X52647000Y-58373000D01*
X52647000Y-58627000D01*
X52627000Y-58627000D01*
X52627000Y-58647000D01*
X52373000Y-58647000D01*
X52373000Y-58627000D01*
X52353000Y-58627000D01*
X52353000Y-58373000D01*
X52373000Y-58373000D01*
X52373000Y-55977000D01*
X52353000Y-55977000D01*
X52353000Y-55723000D01*
X52373000Y-55723000D01*
X52373000Y-53577000D01*
X52353000Y-53577000D01*
X52353000Y-53323000D01*
X52373000Y-53323000D01*
X52373000Y-50927000D01*
X52353000Y-50927000D01*
X52353000Y-50673000D01*
X52373000Y-50673000D01*
X52373000Y-50653000D01*
X52627000Y-50653000D01*
X52627000Y-50673000D01*
G36*
X86127000Y-57123000D02*
X86147000Y-57123000D01*
X86147000Y-57377000D01*
X86127000Y-57377000D01*
X86127000Y-58351250D01*
X86226632Y-58450882D01*
X86207808Y-58469673D01*
X86168848Y-58563499D01*
X85714843Y-58563499D01*
X85661344Y-58510000D01*
X85714250Y-58510000D01*
X85873000Y-58351250D01*
X85873000Y-57377000D01*
X85853000Y-57377000D01*
X85853000Y-57123000D01*
X85873000Y-57123000D01*
X85873000Y-57103000D01*
X86127000Y-57103000D01*
X86127000Y-57123000D01*
X86127000Y-57123000D01*
G37*
X86127000Y-57123000D02*
X86147000Y-57123000D01*
X86147000Y-57377000D01*
X86127000Y-57377000D01*
X86127000Y-58351250D01*
X86226632Y-58450882D01*
X86207808Y-58469673D01*
X86168848Y-58563499D01*
X85714843Y-58563499D01*
X85661344Y-58510000D01*
X85714250Y-58510000D01*
X85873000Y-58351250D01*
X85873000Y-57377000D01*
X85853000Y-57377000D01*
X85853000Y-57123000D01*
X85873000Y-57123000D01*
X85873000Y-57103000D01*
X86127000Y-57103000D01*
X86127000Y-57123000D01*
G36*
X85873691Y-53760000D02*
X86366134Y-53760000D01*
X85761132Y-54365002D01*
X85459626Y-54365002D01*
X85391622Y-54319563D01*
X85282941Y-54297945D01*
X85277550Y-54269295D01*
X85285000Y-54251310D01*
X85285000Y-54221250D01*
X85264688Y-54200938D01*
X85253162Y-54139683D01*
X85245550Y-54127853D01*
X85246824Y-54127002D01*
X85285000Y-54127002D01*
X85285000Y-54101494D01*
X85396795Y-54026795D01*
X85725127Y-53698463D01*
X85873691Y-53760000D01*
X85873691Y-53760000D01*
G37*
X85873691Y-53760000D02*
X86366134Y-53760000D01*
X85761132Y-54365002D01*
X85459626Y-54365002D01*
X85391622Y-54319563D01*
X85282941Y-54297945D01*
X85277550Y-54269295D01*
X85285000Y-54251310D01*
X85285000Y-54221250D01*
X85264688Y-54200938D01*
X85253162Y-54139683D01*
X85245550Y-54127853D01*
X85246824Y-54127002D01*
X85285000Y-54127002D01*
X85285000Y-54101494D01*
X85396795Y-54026795D01*
X85725127Y-53698463D01*
X85873691Y-53760000D01*
G36*
X60991673Y-40790302D02*
X60895000Y-41023691D01*
X60895000Y-41714250D01*
X61053750Y-41873000D01*
X62253000Y-41873000D01*
X62253000Y-41853000D01*
X62507000Y-41853000D01*
X62507000Y-41873000D01*
X62527000Y-41873000D01*
X62527000Y-42127000D01*
X62507000Y-42127000D01*
X62507000Y-43326250D01*
X62665750Y-43485000D01*
X63356310Y-43485000D01*
X63589699Y-43388327D01*
X63768327Y-43209698D01*
X63840597Y-43035223D01*
X63869946Y-43079147D01*
X64058111Y-43204874D01*
X64028569Y-43248110D01*
X63977560Y-43500000D01*
X63977560Y-45400000D01*
X64021838Y-45635317D01*
X64130010Y-45803422D01*
X64080872Y-45852560D01*
X63675000Y-45852560D01*
X63439683Y-45896838D01*
X63223559Y-46035910D01*
X63078569Y-46248110D01*
X63027560Y-46500000D01*
X63027560Y-48400000D01*
X63071838Y-48635317D01*
X63210910Y-48851441D01*
X63423110Y-48996431D01*
X63675000Y-49047440D01*
X64475000Y-49047440D01*
X64710317Y-49003162D01*
X64926441Y-48864090D01*
X65025633Y-48718917D01*
X65110910Y-48851441D01*
X65323110Y-48996431D01*
X65575000Y-49047440D01*
X66375000Y-49047440D01*
X66437126Y-49035750D01*
X73115000Y-49035750D01*
X73115000Y-49501310D01*
X73211673Y-49734699D01*
X73390302Y-49913327D01*
X73623691Y-50010000D01*
X74214250Y-50010000D01*
X74373000Y-49851250D01*
X74373000Y-48877000D01*
X73273750Y-48877000D01*
X73115000Y-49035750D01*
X66437126Y-49035750D01*
X66610317Y-49003162D01*
X66826441Y-48864090D01*
X66971431Y-48651890D01*
X67022440Y-48400000D01*
X67022440Y-48195000D01*
X73115000Y-48195000D01*
X73115000Y-48464250D01*
X73273750Y-48623000D01*
X74373000Y-48623000D01*
X74373000Y-48603000D01*
X74627000Y-48603000D01*
X74627000Y-48623000D01*
X74647000Y-48623000D01*
X74647000Y-48877000D01*
X74627000Y-48877000D01*
X74627000Y-49851250D01*
X74785750Y-50010000D01*
X75376309Y-50010000D01*
X75609698Y-49913327D01*
X75750936Y-49772090D01*
X75785910Y-49826441D01*
X75998110Y-49971431D01*
X76127560Y-49997645D01*
X76127560Y-51050000D01*
X76128033Y-51052514D01*
X76095685Y-51100926D01*
X76065830Y-51251016D01*
X75950000Y-51227560D01*
X74650000Y-51227560D01*
X74414683Y-51271838D01*
X74198559Y-51410910D01*
X74053569Y-51623110D01*
X74002560Y-51875000D01*
X74002560Y-52125000D01*
X74026944Y-52254589D01*
X74002560Y-52375000D01*
X74002560Y-52625000D01*
X74026944Y-52754589D01*
X74002560Y-52875000D01*
X74002560Y-53125000D01*
X74026944Y-53254589D01*
X74002560Y-53375000D01*
X74002560Y-53625000D01*
X74026944Y-53754589D01*
X74002560Y-53875000D01*
X74002560Y-54125000D01*
X74010207Y-54165639D01*
X71573784Y-51729216D01*
X71497440Y-51678205D01*
X71497440Y-51600000D01*
X71453162Y-51364683D01*
X71314090Y-51148559D01*
X71101890Y-51003569D01*
X70850000Y-50952560D01*
X69350000Y-50952560D01*
X69114683Y-50996838D01*
X68898559Y-51135910D01*
X68753569Y-51348110D01*
X68750919Y-51361197D01*
X68614090Y-51148559D01*
X68401890Y-51003569D01*
X68150000Y-50952560D01*
X66650000Y-50952560D01*
X66414683Y-50996838D01*
X66198559Y-51135910D01*
X66053569Y-51348110D01*
X66021798Y-51505000D01*
X61761603Y-51505000D01*
X61761598Y-51504999D01*
X61476499Y-51561710D01*
X61234803Y-51723205D01*
X61234801Y-51723208D01*
X60353008Y-52605000D01*
X57245000Y-52605000D01*
X57245000Y-49808590D01*
X58026792Y-49026797D01*
X58026795Y-49026795D01*
X58188290Y-48785099D01*
X58199616Y-48728162D01*
X58219198Y-48629715D01*
X58360317Y-48603162D01*
X58576441Y-48464090D01*
X58721431Y-48251890D01*
X58772440Y-48000000D01*
X58772440Y-46500000D01*
X58728162Y-46264683D01*
X58589090Y-46048559D01*
X58520994Y-46002031D01*
X58663327Y-45859698D01*
X58760000Y-45626309D01*
X58760000Y-45035750D01*
X58601250Y-44877000D01*
X57627000Y-44877000D01*
X57627000Y-44897000D01*
X57373000Y-44897000D01*
X57373000Y-44877000D01*
X57353000Y-44877000D01*
X57353000Y-44623000D01*
X57373000Y-44623000D01*
X57373000Y-43523750D01*
X57627000Y-43523750D01*
X57627000Y-44623000D01*
X58601250Y-44623000D01*
X58760000Y-44464250D01*
X58760000Y-43873691D01*
X58663327Y-43640302D01*
X58484699Y-43461673D01*
X58251310Y-43365000D01*
X57785750Y-43365000D01*
X57627000Y-43523750D01*
X57373000Y-43523750D01*
X57214250Y-43365000D01*
X57041531Y-43365000D01*
X57266924Y-43271645D01*
X57695183Y-42881358D01*
X57941486Y-42356892D01*
X57904145Y-42285750D01*
X60895000Y-42285750D01*
X60895000Y-42976309D01*
X60991673Y-43209698D01*
X61170301Y-43388327D01*
X61403690Y-43485000D01*
X62094250Y-43485000D01*
X62253000Y-43326250D01*
X62253000Y-42127000D01*
X61053750Y-42127000D01*
X60895000Y-42285750D01*
X57904145Y-42285750D01*
X57820819Y-42127000D01*
X56627000Y-42127000D01*
X56627000Y-42147000D01*
X56373000Y-42147000D01*
X56373000Y-42127000D01*
X56353000Y-42127000D01*
X56353000Y-41873000D01*
X56373000Y-41873000D01*
X56373000Y-41853000D01*
X56627000Y-41853000D01*
X56627000Y-41873000D01*
X57820819Y-41873000D01*
X57941486Y-41643108D01*
X57695183Y-41118642D01*
X57266924Y-40728355D01*
X57162249Y-40685000D01*
X61096974Y-40685000D01*
X60991673Y-40790302D01*
X60991673Y-40790302D01*
G37*
X60991673Y-40790302D02*
X60895000Y-41023691D01*
X60895000Y-41714250D01*
X61053750Y-41873000D01*
X62253000Y-41873000D01*
X62253000Y-41853000D01*
X62507000Y-41853000D01*
X62507000Y-41873000D01*
X62527000Y-41873000D01*
X62527000Y-42127000D01*
X62507000Y-42127000D01*
X62507000Y-43326250D01*
X62665750Y-43485000D01*
X63356310Y-43485000D01*
X63589699Y-43388327D01*
X63768327Y-43209698D01*
X63840597Y-43035223D01*
X63869946Y-43079147D01*
X64058111Y-43204874D01*
X64028569Y-43248110D01*
X63977560Y-43500000D01*
X63977560Y-45400000D01*
X64021838Y-45635317D01*
X64130010Y-45803422D01*
X64080872Y-45852560D01*
X63675000Y-45852560D01*
X63439683Y-45896838D01*
X63223559Y-46035910D01*
X63078569Y-46248110D01*
X63027560Y-46500000D01*
X63027560Y-48400000D01*
X63071838Y-48635317D01*
X63210910Y-48851441D01*
X63423110Y-48996431D01*
X63675000Y-49047440D01*
X64475000Y-49047440D01*
X64710317Y-49003162D01*
X64926441Y-48864090D01*
X65025633Y-48718917D01*
X65110910Y-48851441D01*
X65323110Y-48996431D01*
X65575000Y-49047440D01*
X66375000Y-49047440D01*
X66437126Y-49035750D01*
X73115000Y-49035750D01*
X73115000Y-49501310D01*
X73211673Y-49734699D01*
X73390302Y-49913327D01*
X73623691Y-50010000D01*
X74214250Y-50010000D01*
X74373000Y-49851250D01*
X74373000Y-48877000D01*
X73273750Y-48877000D01*
X73115000Y-49035750D01*
X66437126Y-49035750D01*
X66610317Y-49003162D01*
X66826441Y-48864090D01*
X66971431Y-48651890D01*
X67022440Y-48400000D01*
X67022440Y-48195000D01*
X73115000Y-48195000D01*
X73115000Y-48464250D01*
X73273750Y-48623000D01*
X74373000Y-48623000D01*
X74373000Y-48603000D01*
X74627000Y-48603000D01*
X74627000Y-48623000D01*
X74647000Y-48623000D01*
X74647000Y-48877000D01*
X74627000Y-48877000D01*
X74627000Y-49851250D01*
X74785750Y-50010000D01*
X75376309Y-50010000D01*
X75609698Y-49913327D01*
X75750936Y-49772090D01*
X75785910Y-49826441D01*
X75998110Y-49971431D01*
X76127560Y-49997645D01*
X76127560Y-51050000D01*
X76128033Y-51052514D01*
X76095685Y-51100926D01*
X76065830Y-51251016D01*
X75950000Y-51227560D01*
X74650000Y-51227560D01*
X74414683Y-51271838D01*
X74198559Y-51410910D01*
X74053569Y-51623110D01*
X74002560Y-51875000D01*
X74002560Y-52125000D01*
X74026944Y-52254589D01*
X74002560Y-52375000D01*
X74002560Y-52625000D01*
X74026944Y-52754589D01*
X74002560Y-52875000D01*
X74002560Y-53125000D01*
X74026944Y-53254589D01*
X74002560Y-53375000D01*
X74002560Y-53625000D01*
X74026944Y-53754589D01*
X74002560Y-53875000D01*
X74002560Y-54125000D01*
X74010207Y-54165639D01*
X71573784Y-51729216D01*
X71497440Y-51678205D01*
X71497440Y-51600000D01*
X71453162Y-51364683D01*
X71314090Y-51148559D01*
X71101890Y-51003569D01*
X70850000Y-50952560D01*
X69350000Y-50952560D01*
X69114683Y-50996838D01*
X68898559Y-51135910D01*
X68753569Y-51348110D01*
X68750919Y-51361197D01*
X68614090Y-51148559D01*
X68401890Y-51003569D01*
X68150000Y-50952560D01*
X66650000Y-50952560D01*
X66414683Y-50996838D01*
X66198559Y-51135910D01*
X66053569Y-51348110D01*
X66021798Y-51505000D01*
X61761603Y-51505000D01*
X61761598Y-51504999D01*
X61476499Y-51561710D01*
X61234803Y-51723205D01*
X61234801Y-51723208D01*
X60353008Y-52605000D01*
X57245000Y-52605000D01*
X57245000Y-49808590D01*
X58026792Y-49026797D01*
X58026795Y-49026795D01*
X58188290Y-48785099D01*
X58199616Y-48728162D01*
X58219198Y-48629715D01*
X58360317Y-48603162D01*
X58576441Y-48464090D01*
X58721431Y-48251890D01*
X58772440Y-48000000D01*
X58772440Y-46500000D01*
X58728162Y-46264683D01*
X58589090Y-46048559D01*
X58520994Y-46002031D01*
X58663327Y-45859698D01*
X58760000Y-45626309D01*
X58760000Y-45035750D01*
X58601250Y-44877000D01*
X57627000Y-44877000D01*
X57627000Y-44897000D01*
X57373000Y-44897000D01*
X57373000Y-44877000D01*
X57353000Y-44877000D01*
X57353000Y-44623000D01*
X57373000Y-44623000D01*
X57373000Y-43523750D01*
X57627000Y-43523750D01*
X57627000Y-44623000D01*
X58601250Y-44623000D01*
X58760000Y-44464250D01*
X58760000Y-43873691D01*
X58663327Y-43640302D01*
X58484699Y-43461673D01*
X58251310Y-43365000D01*
X57785750Y-43365000D01*
X57627000Y-43523750D01*
X57373000Y-43523750D01*
X57214250Y-43365000D01*
X57041531Y-43365000D01*
X57266924Y-43271645D01*
X57695183Y-42881358D01*
X57941486Y-42356892D01*
X57904145Y-42285750D01*
X60895000Y-42285750D01*
X60895000Y-42976309D01*
X60991673Y-43209698D01*
X61170301Y-43388327D01*
X61403690Y-43485000D01*
X62094250Y-43485000D01*
X62253000Y-43326250D01*
X62253000Y-42127000D01*
X61053750Y-42127000D01*
X60895000Y-42285750D01*
X57904145Y-42285750D01*
X57820819Y-42127000D01*
X56627000Y-42127000D01*
X56627000Y-42147000D01*
X56373000Y-42147000D01*
X56373000Y-42127000D01*
X56353000Y-42127000D01*
X56353000Y-41873000D01*
X56373000Y-41873000D01*
X56373000Y-41853000D01*
X56627000Y-41853000D01*
X56627000Y-41873000D01*
X57820819Y-41873000D01*
X57941486Y-41643108D01*
X57695183Y-41118642D01*
X57266924Y-40728355D01*
X57162249Y-40685000D01*
X61096974Y-40685000D01*
X60991673Y-40790302D01*
G36*
X86877000Y-52373000D02*
X86897000Y-52373000D01*
X86897000Y-52627000D01*
X86877000Y-52627000D01*
X86877000Y-52647000D01*
X86623000Y-52647000D01*
X86623000Y-52627000D01*
X86603000Y-52627000D01*
X86603000Y-52373000D01*
X86623000Y-52373000D01*
X86623000Y-52353000D01*
X86877000Y-52353000D01*
X86877000Y-52373000D01*
X86877000Y-52373000D01*
G37*
X86877000Y-52373000D02*
X86897000Y-52373000D01*
X86897000Y-52627000D01*
X86877000Y-52627000D01*
X86877000Y-52647000D01*
X86623000Y-52647000D01*
X86623000Y-52627000D01*
X86603000Y-52627000D01*
X86603000Y-52373000D01*
X86623000Y-52373000D01*
X86623000Y-52353000D01*
X86877000Y-52353000D01*
X86877000Y-52373000D01*
G36*
X54571838Y-48515317D02*
X54710910Y-48731441D01*
X54923110Y-48876431D01*
X55175000Y-48927440D01*
X55825000Y-48927440D01*
X56060317Y-48883162D01*
X56068538Y-48877872D01*
X55973205Y-48973205D01*
X55811710Y-49214901D01*
X55754999Y-49500000D01*
X55755000Y-49500005D01*
X55755000Y-49865000D01*
X55335750Y-49865000D01*
X55177000Y-50023750D01*
X55177000Y-51423000D01*
X55197000Y-51423000D01*
X55197000Y-51677000D01*
X55177000Y-51677000D01*
X55177000Y-51697000D01*
X54923000Y-51697000D01*
X54923000Y-51677000D01*
X54903000Y-51677000D01*
X54903000Y-51423000D01*
X54923000Y-51423000D01*
X54923000Y-50023750D01*
X54764250Y-49865000D01*
X54123690Y-49865000D01*
X54085000Y-49881026D01*
X54085000Y-49723691D01*
X53988327Y-49490302D01*
X53809699Y-49311673D01*
X53761770Y-49291820D01*
X54126792Y-48926797D01*
X54126795Y-48926795D01*
X54155321Y-48884102D01*
X54160317Y-48883162D01*
X54376441Y-48744090D01*
X54521431Y-48531890D01*
X54549176Y-48394880D01*
X54571838Y-48515317D01*
X54571838Y-48515317D01*
G37*
X54571838Y-48515317D02*
X54710910Y-48731441D01*
X54923110Y-48876431D01*
X55175000Y-48927440D01*
X55825000Y-48927440D01*
X56060317Y-48883162D01*
X56068538Y-48877872D01*
X55973205Y-48973205D01*
X55811710Y-49214901D01*
X55754999Y-49500000D01*
X55755000Y-49500005D01*
X55755000Y-49865000D01*
X55335750Y-49865000D01*
X55177000Y-50023750D01*
X55177000Y-51423000D01*
X55197000Y-51423000D01*
X55197000Y-51677000D01*
X55177000Y-51677000D01*
X55177000Y-51697000D01*
X54923000Y-51697000D01*
X54923000Y-51677000D01*
X54903000Y-51677000D01*
X54903000Y-51423000D01*
X54923000Y-51423000D01*
X54923000Y-50023750D01*
X54764250Y-49865000D01*
X54123690Y-49865000D01*
X54085000Y-49881026D01*
X54085000Y-49723691D01*
X53988327Y-49490302D01*
X53809699Y-49311673D01*
X53761770Y-49291820D01*
X54126792Y-48926797D01*
X54126795Y-48926795D01*
X54155321Y-48884102D01*
X54160317Y-48883162D01*
X54376441Y-48744090D01*
X54521431Y-48531890D01*
X54549176Y-48394880D01*
X54571838Y-48515317D01*
G36*
X51627000Y-47123000D02*
X51647000Y-47123000D01*
X51647000Y-47377000D01*
X51627000Y-47377000D01*
X51627000Y-47397000D01*
X51373000Y-47397000D01*
X51373000Y-47377000D01*
X51353000Y-47377000D01*
X51353000Y-47123000D01*
X51373000Y-47123000D01*
X51373000Y-47103000D01*
X51627000Y-47103000D01*
X51627000Y-47123000D01*
X51627000Y-47123000D01*
G37*
X51627000Y-47123000D02*
X51647000Y-47123000D01*
X51647000Y-47377000D01*
X51627000Y-47377000D01*
X51627000Y-47397000D01*
X51373000Y-47397000D01*
X51373000Y-47377000D01*
X51353000Y-47377000D01*
X51353000Y-47123000D01*
X51373000Y-47123000D01*
X51373000Y-47103000D01*
X51627000Y-47103000D01*
X51627000Y-47123000D01*
G36*
X54571838Y-45815317D02*
X54677000Y-45978743D01*
X54677000Y-46056250D01*
X54755000Y-46134250D01*
X54755000Y-46235678D01*
X54723559Y-46255910D01*
X54578569Y-46468110D01*
X54550824Y-46605120D01*
X54528162Y-46484683D01*
X54389090Y-46268559D01*
X54283106Y-46196144D01*
X54423000Y-46056250D01*
X54423000Y-45975949D01*
X54521431Y-45831890D01*
X54549176Y-45694880D01*
X54571838Y-45815317D01*
X54571838Y-45815317D01*
G37*
X54571838Y-45815317D02*
X54677000Y-45978743D01*
X54677000Y-46056250D01*
X54755000Y-46134250D01*
X54755000Y-46235678D01*
X54723559Y-46255910D01*
X54578569Y-46468110D01*
X54550824Y-46605120D01*
X54528162Y-46484683D01*
X54389090Y-46268559D01*
X54283106Y-46196144D01*
X54423000Y-46056250D01*
X54423000Y-45975949D01*
X54521431Y-45831890D01*
X54549176Y-45694880D01*
X54571838Y-45815317D01*
M02*
