M48
;DRILL file {KiCad (5.0.1)-4} date 12/14/2018 6:15:37 PM
;FORMAT={-:-/ absolute / metric / decimal}
FMAT,2
METRIC,TZ
T1C0.400
T2C0.650
T3C0.800
T4C1.000
T5C1.100
%
G90
G05
M71
T1
X51.75Y-47.75
X52.75Y-47.75
X55.293Y-45.742
X56.388Y-77.724
X56.722Y-44.262
X57.15Y-78.326
X57.404Y-49.276
X57.404Y-72.39
X57.562Y-47.752
X57.62Y-55.626
X57.658Y-53.848
X57.912Y-61.976
X58.42Y-55.626
X58.591Y-72.727
X58.674Y-62.738
X59.182Y-77.724
X59.453Y-78.524
X59.69Y-74.676
X59.75Y-52.25
X59.893Y-49.073
X60.491Y-51.226
X60.5Y-44.25
X60.706Y-74.582
X62.25Y-51.25
X62.738Y-60.706
X62.992Y-61.468
X63.514Y-51.256
X64.245Y-45.039
X65.5Y-56.5
X65.532Y-51.308
X67.056Y-50.275
X67.818Y-49.276
X68.454Y-48.484
X68.61Y-45.641
X68.813Y-72.733
X68.825Y-56.409
X69.126Y-55.251
X69.141Y-52.208
X69.609Y-72.877
X69.742Y-60.432
X69.757Y-51.697
X70.049Y-48.15
X70.329Y-55.518
X70.452Y-73.597
X70.5Y-46.
X70.556Y-51.657
X70.584Y-54.51
X70.715Y-59.553
X70.877Y-52.399
X70.983Y-60.555
X71.127Y-55.46
X71.597Y-50.328
X71.775Y-60.875
X71.882Y-78.486
X72.136Y-77.724
X72.136Y-63.501
X72.227Y-50.821
X72.25Y-52.75
X72.36Y-62.156
X72.562Y-59.108
X72.652Y-47.835
X72.793Y-54.509
X72.885Y-63.197
X73.143Y-61.994
X73.391Y-55.041
X73.418Y-45.514
X73.75Y-51.75
X73.901Y-56.358
X74.674Y-55.756
X74.774Y-57.226
X74.93Y-76.962
X75.Y-62.25
X75.045Y-77.754
X75.065Y-74.398
X75.09Y-46.228
X75.5Y-49.75
X75.651Y-48.301
X75.685Y-47.098
X75.692Y-65.786
X75.71Y-72.898
X75.946Y-67.056
X76.Y-59.
X76.449Y-48.357
X76.708Y-65.786
X76.708Y-67.31
X76.75Y-64.75
X77.316Y-64.184
X77.458Y-57.266
X77.47Y-58.166
X77.75Y-50.
X77.75Y-53.
X77.978Y-54.606
X78.143Y-56.212
X78.28Y-57.052
X78.44Y-78.81
X78.5Y-48.75
X79.001Y-55.285
X79.051Y-56.083
X79.248Y-61.976
X79.25Y-68.75
X79.75Y-70.5
X80.054Y-51.616
X80.256Y-52.475
X80.518Y-50.038
X80.845Y-51.499
X80.943Y-55.289
X81.25Y-42.75
X81.25Y-64.25
X81.25Y-75.
X81.25Y-78.75
X81.777Y-76.791
X82.494Y-68.393
X82.95Y-44.704
X83.Y-78.25
X83.391Y-57.939
X83.898Y-49.114
X84.Y-78.75
X84.085Y-65.32
X84.25Y-75.
X84.75Y-57.5
X85.148Y-57.
X85.5Y-51.5
X85.5Y-66.
X85.569Y-61.475
X85.75Y-60.25
X85.852Y-44.704
X85.852Y-49.022
X86.144Y-51.026
X86.25Y-69.
X86.25Y-71.75
X86.264Y-61.08
X87.25Y-62.5
X89.Y-47.75
X89.25Y-41.75
X89.25Y-61.25
X89.5Y-54.
X89.5Y-55.75
X90.5Y-72.75
X90.761Y-47.327
X91.948Y-48.514
X92.202Y-46.736
X93.25Y-67.25
X93.25Y-71.25
X93.472Y-58.166
X93.472Y-60.452
X95.5Y-65.5
X95.75Y-66.829
X95.75Y-55.
X96.Y-51.25
X100.Y-55.
X100.5Y-53.
X107.5Y-49.25
X108.25Y-70.75
X110.Y-51.75
X110.25Y-68.5
T2
X68.58Y-75.
X68.58Y-76.27
X69.85Y-75.
X69.85Y-76.27
X71.12Y-75.
X71.12Y-76.27
X72.39Y-75.
X72.39Y-76.27
X73.66Y-75.
X73.66Y-76.27
X53.34Y-75.
X53.34Y-76.27
X54.61Y-75.
X54.61Y-76.27
X55.88Y-75.
X55.88Y-76.27
X57.15Y-75.
X57.15Y-76.27
X58.42Y-75.
X58.42Y-76.27
T3
X91.44Y-52.832
X91.44Y-57.712
T4
X60.325Y-64.77
X60.325Y-67.31
X60.325Y-69.85
X60.325Y-72.39
X52.07Y-42.
X62.38Y-42.
X64.92Y-42.
X67.46Y-42.
X70.Y-42.
X72.54Y-42.
X75.08Y-42.
X77.62Y-42.
X59.69Y-42.
T5
X96.52Y-71.7
X96.52Y-76.2
X103.02Y-71.7
X103.02Y-76.2
X96.52Y-43.18
X96.52Y-47.68
X103.02Y-43.18
X103.02Y-47.68
T2
X52.275Y-50.15G85X51.225Y-50.15
G05
X52.275Y-59.85G85X51.225Y-59.85
G05
X55.575Y-50.15G85X54.525Y-50.15
G05
X55.575Y-59.85G85X54.525Y-59.85
G05
T0
M30
