G04 #@! TF.GenerationSoftware,KiCad,Pcbnew,(5.0.1)-4*
G04 #@! TF.CreationDate,2018-12-14T18:15:29+08:00*
G04 #@! TF.ProjectId,Project 23,50726F6A6563742032332E6B69636164,V 0.7*
G04 #@! TF.SameCoordinates,Original*
G04 #@! TF.FileFunction,Legend,Bot*
G04 #@! TF.FilePolarity,Positive*
%FSLAX46Y46*%
G04 Gerber Fmt 4.6, Leading zero omitted, Abs format (unit mm)*
G04 Created by KiCad (PCBNEW (5.0.1)-4) date 12/14/2018 6:15:29 PM*
%MOMM*%
%LPD*%
G01*
G04 APERTURE LIST*
%ADD10C,0.300000*%
%ADD11C,0.100000*%
G04 APERTURE END LIST*
D10*
X109610000Y-69978571D02*
X109610000Y-68478571D01*
X109038571Y-68478571D01*
X108895714Y-68550000D01*
X108824285Y-68621428D01*
X108752857Y-68764285D01*
X108752857Y-68978571D01*
X108824285Y-69121428D01*
X108895714Y-69192857D01*
X109038571Y-69264285D01*
X109610000Y-69264285D01*
X108110000Y-69978571D02*
X108110000Y-68978571D01*
X108110000Y-69264285D02*
X108038571Y-69121428D01*
X107967142Y-69050000D01*
X107824285Y-68978571D01*
X107681428Y-68978571D01*
X106967142Y-69978571D02*
X107110000Y-69907142D01*
X107181428Y-69835714D01*
X107252857Y-69692857D01*
X107252857Y-69264285D01*
X107181428Y-69121428D01*
X107110000Y-69050000D01*
X106967142Y-68978571D01*
X106752857Y-68978571D01*
X106610000Y-69050000D01*
X106538571Y-69121428D01*
X106467142Y-69264285D01*
X106467142Y-69692857D01*
X106538571Y-69835714D01*
X106610000Y-69907142D01*
X106752857Y-69978571D01*
X106967142Y-69978571D01*
X105824285Y-68978571D02*
X105824285Y-70264285D01*
X105895714Y-70407142D01*
X106038571Y-70478571D01*
X106110000Y-70478571D01*
X105824285Y-68478571D02*
X105895714Y-68550000D01*
X105824285Y-68621428D01*
X105752857Y-68550000D01*
X105824285Y-68478571D01*
X105824285Y-68621428D01*
X104538571Y-69907142D02*
X104681428Y-69978571D01*
X104967142Y-69978571D01*
X105110000Y-69907142D01*
X105181428Y-69764285D01*
X105181428Y-69192857D01*
X105110000Y-69050000D01*
X104967142Y-68978571D01*
X104681428Y-68978571D01*
X104538571Y-69050000D01*
X104467142Y-69192857D01*
X104467142Y-69335714D01*
X105181428Y-69478571D01*
X103181428Y-69907142D02*
X103324285Y-69978571D01*
X103610000Y-69978571D01*
X103752857Y-69907142D01*
X103824285Y-69835714D01*
X103895714Y-69692857D01*
X103895714Y-69264285D01*
X103824285Y-69121428D01*
X103752857Y-69050000D01*
X103610000Y-68978571D01*
X103324285Y-68978571D01*
X103181428Y-69050000D01*
X102752857Y-68978571D02*
X102181428Y-68978571D01*
X102538571Y-68478571D02*
X102538571Y-69764285D01*
X102467142Y-69907142D01*
X102324285Y-69978571D01*
X102181428Y-69978571D01*
X100610000Y-68621428D02*
X100538571Y-68550000D01*
X100395714Y-68478571D01*
X100038571Y-68478571D01*
X99895714Y-68550000D01*
X99824285Y-68621428D01*
X99752857Y-68764285D01*
X99752857Y-68907142D01*
X99824285Y-69121428D01*
X100681428Y-69978571D01*
X99752857Y-69978571D01*
X99252857Y-68478571D02*
X98324285Y-68478571D01*
X98824285Y-69050000D01*
X98610000Y-69050000D01*
X98467142Y-69121428D01*
X98395714Y-69192857D01*
X98324285Y-69335714D01*
X98324285Y-69692857D01*
X98395714Y-69835714D01*
X98467142Y-69907142D01*
X98610000Y-69978571D01*
X99038571Y-69978571D01*
X99181428Y-69907142D01*
X99252857Y-69835714D01*
X96538571Y-69978571D02*
X96538571Y-68478571D01*
X96538571Y-69192857D02*
X95681428Y-69192857D01*
X95681428Y-69978571D02*
X95681428Y-68478571D01*
X95110000Y-68478571D02*
X94752857Y-69978571D01*
X94467142Y-68907142D01*
X94181428Y-69978571D01*
X93824285Y-68478571D01*
X92252857Y-68978571D02*
X91895714Y-69978571D01*
X91538571Y-68978571D01*
X90681428Y-68478571D02*
X90538571Y-68478571D01*
X90395714Y-68550000D01*
X90324285Y-68621428D01*
X90252857Y-68764285D01*
X90181428Y-69050000D01*
X90181428Y-69407142D01*
X90252857Y-69692857D01*
X90324285Y-69835714D01*
X90395714Y-69907142D01*
X90538571Y-69978571D01*
X90681428Y-69978571D01*
X90824285Y-69907142D01*
X90895714Y-69835714D01*
X90967142Y-69692857D01*
X91038571Y-69407142D01*
X91038571Y-69050000D01*
X90967142Y-68764285D01*
X90895714Y-68621428D01*
X90824285Y-68550000D01*
X90681428Y-68478571D01*
X89538571Y-69835714D02*
X89467142Y-69907142D01*
X89538571Y-69978571D01*
X89610000Y-69907142D01*
X89538571Y-69835714D01*
X89538571Y-69978571D01*
X88967142Y-68478571D02*
X87967142Y-68478571D01*
X88610000Y-69978571D01*
X108844285Y-49550000D02*
X108987142Y-49478571D01*
X109201428Y-49478571D01*
X109415714Y-49550000D01*
X109558571Y-49692857D01*
X109630000Y-49835714D01*
X109701428Y-50121428D01*
X109701428Y-50335714D01*
X109630000Y-50621428D01*
X109558571Y-50764285D01*
X109415714Y-50907142D01*
X109201428Y-50978571D01*
X109058571Y-50978571D01*
X108844285Y-50907142D01*
X108772857Y-50835714D01*
X108772857Y-50335714D01*
X109058571Y-50335714D01*
X107915714Y-50978571D02*
X108058571Y-50907142D01*
X108130000Y-50835714D01*
X108201428Y-50692857D01*
X108201428Y-50264285D01*
X108130000Y-50121428D01*
X108058571Y-50050000D01*
X107915714Y-49978571D01*
X107701428Y-49978571D01*
X107558571Y-50050000D01*
X107487142Y-50121428D01*
X107415714Y-50264285D01*
X107415714Y-50692857D01*
X107487142Y-50835714D01*
X107558571Y-50907142D01*
X107701428Y-50978571D01*
X107915714Y-50978571D01*
X106558571Y-50978571D02*
X106701428Y-50907142D01*
X106772857Y-50764285D01*
X106772857Y-49478571D01*
X105344285Y-50978571D02*
X105344285Y-49478571D01*
X105344285Y-50907142D02*
X105487142Y-50978571D01*
X105772857Y-50978571D01*
X105915714Y-50907142D01*
X105987142Y-50835714D01*
X106058571Y-50692857D01*
X106058571Y-50264285D01*
X105987142Y-50121428D01*
X105915714Y-50050000D01*
X105772857Y-49978571D01*
X105487142Y-49978571D01*
X105344285Y-50050000D01*
X104844285Y-49978571D02*
X104272857Y-49978571D01*
X104629999Y-50978571D02*
X104629999Y-49692857D01*
X104558571Y-49550000D01*
X104415714Y-49478571D01*
X104272857Y-49478571D01*
X103772857Y-50978571D02*
X103772857Y-49978571D01*
X103772857Y-49478571D02*
X103844285Y-49550000D01*
X103772857Y-49621428D01*
X103701428Y-49550000D01*
X103772857Y-49478571D01*
X103772857Y-49621428D01*
X103129999Y-50907142D02*
X102987142Y-50978571D01*
X102701428Y-50978571D01*
X102558571Y-50907142D01*
X102487142Y-50764285D01*
X102487142Y-50692857D01*
X102558571Y-50550000D01*
X102701428Y-50478571D01*
X102915714Y-50478571D01*
X103058571Y-50407142D01*
X103129999Y-50264285D01*
X103129999Y-50192857D01*
X103058571Y-50050000D01*
X102915714Y-49978571D01*
X102701428Y-49978571D01*
X102558571Y-50050000D01*
X101844285Y-50978571D02*
X101844285Y-49478571D01*
X101201428Y-50978571D02*
X101201428Y-50192857D01*
X101272857Y-50050000D01*
X101415714Y-49978571D01*
X101629999Y-49978571D01*
X101772857Y-50050000D01*
X101844285Y-50121428D01*
X99344285Y-50192857D02*
X98844285Y-50192857D01*
X98629999Y-50978571D02*
X99344285Y-50978571D01*
X99344285Y-49478571D01*
X98629999Y-49478571D01*
X97772857Y-50978571D02*
X97915714Y-50907142D01*
X97987142Y-50764285D01*
X97987142Y-49478571D01*
X96629999Y-50907142D02*
X96772857Y-50978571D01*
X97058571Y-50978571D01*
X97201428Y-50907142D01*
X97272857Y-50764285D01*
X97272857Y-50192857D01*
X97201428Y-50050000D01*
X97058571Y-49978571D01*
X96772857Y-49978571D01*
X96629999Y-50050000D01*
X96558571Y-50192857D01*
X96558571Y-50335714D01*
X97272857Y-50478571D01*
X95272857Y-50907142D02*
X95415714Y-50978571D01*
X95701428Y-50978571D01*
X95844285Y-50907142D01*
X95915714Y-50835714D01*
X95987142Y-50692857D01*
X95987142Y-50264285D01*
X95915714Y-50121428D01*
X95844285Y-50050000D01*
X95701428Y-49978571D01*
X95415714Y-49978571D01*
X95272857Y-50050000D01*
X94844285Y-49978571D02*
X94272857Y-49978571D01*
X94629999Y-49478571D02*
X94629999Y-50764285D01*
X94558571Y-50907142D01*
X94415714Y-50978571D01*
X94272857Y-50978571D01*
X93772857Y-50978571D02*
X93772857Y-49978571D01*
X93772857Y-50264285D02*
X93701428Y-50121428D01*
X93629999Y-50050000D01*
X93487142Y-49978571D01*
X93344285Y-49978571D01*
X92629999Y-50978571D02*
X92772857Y-50907142D01*
X92844285Y-50835714D01*
X92915714Y-50692857D01*
X92915714Y-50264285D01*
X92844285Y-50121428D01*
X92772857Y-50050000D01*
X92629999Y-49978571D01*
X92415714Y-49978571D01*
X92272857Y-50050000D01*
X92201428Y-50121428D01*
X92129999Y-50264285D01*
X92129999Y-50692857D01*
X92201428Y-50835714D01*
X92272857Y-50907142D01*
X92415714Y-50978571D01*
X92629999Y-50978571D01*
X91487142Y-49978571D02*
X91487142Y-50978571D01*
X91487142Y-50121428D02*
X91415714Y-50050000D01*
X91272857Y-49978571D01*
X91058571Y-49978571D01*
X90915714Y-50050000D01*
X90844285Y-50192857D01*
X90844285Y-50978571D01*
X90129999Y-50978571D02*
X90129999Y-49978571D01*
X90129999Y-49478571D02*
X90201428Y-49550000D01*
X90129999Y-49621428D01*
X90058571Y-49550000D01*
X90129999Y-49478571D01*
X90129999Y-49621428D01*
X88772857Y-50907142D02*
X88915714Y-50978571D01*
X89201428Y-50978571D01*
X89344285Y-50907142D01*
X89415714Y-50835714D01*
X89487142Y-50692857D01*
X89487142Y-50264285D01*
X89415714Y-50121428D01*
X89344285Y-50050000D01*
X89201428Y-49978571D01*
X88915714Y-49978571D01*
X88772857Y-50050000D01*
X88201428Y-50907142D02*
X88058571Y-50978571D01*
X87772857Y-50978571D01*
X87629999Y-50907142D01*
X87558571Y-50764285D01*
X87558571Y-50692857D01*
X87629999Y-50550000D01*
X87772857Y-50478571D01*
X87987142Y-50478571D01*
X88129999Y-50407142D01*
X88201428Y-50264285D01*
X88201428Y-50192857D01*
X88129999Y-50050000D01*
X87987142Y-49978571D01*
X87772857Y-49978571D01*
X87629999Y-50050000D01*
D11*
X54500000Y-58700000D02*
X50000000Y-58700000D01*
X54500000Y-51300000D02*
X54500000Y-58700000D01*
X50000000Y-51300000D02*
X54500000Y-51300000D01*
X50000000Y-58700000D02*
X50000000Y-82000000D01*
X112000000Y-40000000D02*
X50000000Y-40000000D01*
X112000000Y-82000000D02*
X112000000Y-40000000D01*
X50000000Y-82000000D02*
X112000000Y-82000000D01*
X50000000Y-40000000D02*
X50000000Y-51300000D01*
M02*
