G04 #@! TF.GenerationSoftware,KiCad,Pcbnew,(5.0.0)*
G04 #@! TF.CreationDate,2018-10-09T10:58:44+11:00*
G04 #@! TF.ProjectId,Project 23,50726F6A6563742032332E6B69636164,V 0.6*
G04 #@! TF.SameCoordinates,Original*
G04 #@! TF.FileFunction,Soldermask,Top*
G04 #@! TF.FilePolarity,Negative*
%FSLAX46Y46*%
G04 Gerber Fmt 4.6, Leading zero omitted, Abs format (unit mm)*
G04 Created by KiCad (PCBNEW (5.0.0)) date 10/09/18 10:58:44*
%MOMM*%
%LPD*%
G01*
G04 APERTURE LIST*
%ADD10C,0.100000*%
%ADD11R,2.100000X0.500000*%
%ADD12R,1.700000X2.200000*%
%ADD13R,2.000000X2.000000*%
%ADD14C,2.300000*%
%ADD15C,1.600000*%
%ADD16C,2.350000*%
%ADD17C,1.250000*%
%ADD18R,2.400000X3.600000*%
%ADD19R,3.600000X1.900000*%
%ADD20C,1.525000*%
%ADD21R,0.900000X2.000000*%
%ADD22R,0.600000X0.900000*%
%ADD23R,0.500000X0.900000*%
%ADD24C,2.100000*%
%ADD25R,1.400000X0.350000*%
%ADD26R,0.350000X1.400000*%
%ADD27R,0.750000X1.660000*%
%ADD28R,1.660000X0.750000*%
%ADD29R,1.800000X1.800000*%
%ADD30O,1.800000X1.800000*%
%ADD31R,1.100000X1.100000*%
%ADD32O,1.100000X1.100000*%
G04 APERTURE END LIST*
D10*
X112000000Y-40000000D02*
X50000000Y-40000000D01*
X112000000Y-82000000D02*
X112000000Y-40000000D01*
X50000000Y-82000000D02*
X112000000Y-82000000D01*
X50000000Y-40000000D02*
X50000000Y-82000000D01*
D11*
G04 #@! TO.C,J61*
X55500000Y-55950000D03*
X55500000Y-55300000D03*
X55500000Y-54650000D03*
X55500000Y-54000000D03*
D12*
X55050000Y-57750000D03*
X55050000Y-51550000D03*
D13*
X52500000Y-58500000D03*
X52500000Y-50800000D03*
X52500000Y-53450000D03*
X52500000Y-55850000D03*
D11*
X55500000Y-53350000D03*
G04 #@! TD*
D14*
G04 #@! TO.C,1*
X61000000Y-49000000D03*
G04 #@! TD*
G04 #@! TO.C,M2*
X102000000Y-60000000D03*
G04 #@! TD*
D10*
G04 #@! TO.C,C41*
G36*
X95984471Y-75076284D02*
X96010357Y-75080124D01*
X96035742Y-75086483D01*
X96060382Y-75095299D01*
X96084039Y-75106488D01*
X96106485Y-75119941D01*
X96127505Y-75135531D01*
X96146895Y-75153105D01*
X96164469Y-75172495D01*
X96180059Y-75193515D01*
X96193512Y-75215961D01*
X96204701Y-75239618D01*
X96213517Y-75264258D01*
X96219876Y-75289643D01*
X96223716Y-75315529D01*
X96225000Y-75341667D01*
X96225000Y-76408333D01*
X96223716Y-76434471D01*
X96219876Y-76460357D01*
X96213517Y-76485742D01*
X96204701Y-76510382D01*
X96193512Y-76534039D01*
X96180059Y-76556485D01*
X96164469Y-76577505D01*
X96146895Y-76596895D01*
X96127505Y-76614469D01*
X96106485Y-76630059D01*
X96084039Y-76643512D01*
X96060382Y-76654701D01*
X96035742Y-76663517D01*
X96010357Y-76669876D01*
X95984471Y-76673716D01*
X95958333Y-76675000D01*
X94041667Y-76675000D01*
X94015529Y-76673716D01*
X93989643Y-76669876D01*
X93964258Y-76663517D01*
X93939618Y-76654701D01*
X93915961Y-76643512D01*
X93893515Y-76630059D01*
X93872495Y-76614469D01*
X93853105Y-76596895D01*
X93835531Y-76577505D01*
X93819941Y-76556485D01*
X93806488Y-76534039D01*
X93795299Y-76510382D01*
X93786483Y-76485742D01*
X93780124Y-76460357D01*
X93776284Y-76434471D01*
X93775000Y-76408333D01*
X93775000Y-75341667D01*
X93776284Y-75315529D01*
X93780124Y-75289643D01*
X93786483Y-75264258D01*
X93795299Y-75239618D01*
X93806488Y-75215961D01*
X93819941Y-75193515D01*
X93835531Y-75172495D01*
X93853105Y-75153105D01*
X93872495Y-75135531D01*
X93893515Y-75119941D01*
X93915961Y-75106488D01*
X93939618Y-75095299D01*
X93964258Y-75086483D01*
X93989643Y-75080124D01*
X94015529Y-75076284D01*
X94041667Y-75075000D01*
X95958333Y-75075000D01*
X95984471Y-75076284D01*
X95984471Y-75076284D01*
G37*
D15*
X95000000Y-75875000D03*
D10*
G36*
X95984471Y-78326284D02*
X96010357Y-78330124D01*
X96035742Y-78336483D01*
X96060382Y-78345299D01*
X96084039Y-78356488D01*
X96106485Y-78369941D01*
X96127505Y-78385531D01*
X96146895Y-78403105D01*
X96164469Y-78422495D01*
X96180059Y-78443515D01*
X96193512Y-78465961D01*
X96204701Y-78489618D01*
X96213517Y-78514258D01*
X96219876Y-78539643D01*
X96223716Y-78565529D01*
X96225000Y-78591667D01*
X96225000Y-79658333D01*
X96223716Y-79684471D01*
X96219876Y-79710357D01*
X96213517Y-79735742D01*
X96204701Y-79760382D01*
X96193512Y-79784039D01*
X96180059Y-79806485D01*
X96164469Y-79827505D01*
X96146895Y-79846895D01*
X96127505Y-79864469D01*
X96106485Y-79880059D01*
X96084039Y-79893512D01*
X96060382Y-79904701D01*
X96035742Y-79913517D01*
X96010357Y-79919876D01*
X95984471Y-79923716D01*
X95958333Y-79925000D01*
X94041667Y-79925000D01*
X94015529Y-79923716D01*
X93989643Y-79919876D01*
X93964258Y-79913517D01*
X93939618Y-79904701D01*
X93915961Y-79893512D01*
X93893515Y-79880059D01*
X93872495Y-79864469D01*
X93853105Y-79846895D01*
X93835531Y-79827505D01*
X93819941Y-79806485D01*
X93806488Y-79784039D01*
X93795299Y-79760382D01*
X93786483Y-79735742D01*
X93780124Y-79710357D01*
X93776284Y-79684471D01*
X93775000Y-79658333D01*
X93775000Y-78591667D01*
X93776284Y-78565529D01*
X93780124Y-78539643D01*
X93786483Y-78514258D01*
X93795299Y-78489618D01*
X93806488Y-78465961D01*
X93819941Y-78443515D01*
X93835531Y-78422495D01*
X93853105Y-78403105D01*
X93872495Y-78385531D01*
X93893515Y-78369941D01*
X93915961Y-78356488D01*
X93939618Y-78345299D01*
X93964258Y-78336483D01*
X93989643Y-78330124D01*
X94015529Y-78326284D01*
X94041667Y-78325000D01*
X95958333Y-78325000D01*
X95984471Y-78326284D01*
X95984471Y-78326284D01*
G37*
D15*
X95000000Y-79125000D03*
G04 #@! TD*
D10*
G04 #@! TO.C,C42*
G36*
X82189483Y-69576257D02*
X82214830Y-69580017D01*
X82239686Y-69586243D01*
X82263812Y-69594876D01*
X82286976Y-69605832D01*
X82308955Y-69619005D01*
X82329536Y-69634269D01*
X82348523Y-69651477D01*
X82365731Y-69670464D01*
X82380995Y-69691045D01*
X82394168Y-69713024D01*
X82405124Y-69736188D01*
X82413757Y-69760314D01*
X82419983Y-69785170D01*
X82423743Y-69810517D01*
X82425000Y-69836110D01*
X82425000Y-71763890D01*
X82423743Y-71789483D01*
X82419983Y-71814830D01*
X82413757Y-71839686D01*
X82405124Y-71863812D01*
X82394168Y-71886976D01*
X82380995Y-71908955D01*
X82365731Y-71929536D01*
X82348523Y-71948523D01*
X82329536Y-71965731D01*
X82308955Y-71980995D01*
X82286976Y-71994168D01*
X82263812Y-72005124D01*
X82239686Y-72013757D01*
X82214830Y-72019983D01*
X82189483Y-72023743D01*
X82163890Y-72025000D01*
X80336110Y-72025000D01*
X80310517Y-72023743D01*
X80285170Y-72019983D01*
X80260314Y-72013757D01*
X80236188Y-72005124D01*
X80213024Y-71994168D01*
X80191045Y-71980995D01*
X80170464Y-71965731D01*
X80151477Y-71948523D01*
X80134269Y-71929536D01*
X80119005Y-71908955D01*
X80105832Y-71886976D01*
X80094876Y-71863812D01*
X80086243Y-71839686D01*
X80080017Y-71814830D01*
X80076257Y-71789483D01*
X80075000Y-71763890D01*
X80075000Y-69836110D01*
X80076257Y-69810517D01*
X80080017Y-69785170D01*
X80086243Y-69760314D01*
X80094876Y-69736188D01*
X80105832Y-69713024D01*
X80119005Y-69691045D01*
X80134269Y-69670464D01*
X80151477Y-69651477D01*
X80170464Y-69634269D01*
X80191045Y-69619005D01*
X80213024Y-69605832D01*
X80236188Y-69594876D01*
X80260314Y-69586243D01*
X80285170Y-69580017D01*
X80310517Y-69576257D01*
X80336110Y-69575000D01*
X82163890Y-69575000D01*
X82189483Y-69576257D01*
X82189483Y-69576257D01*
G37*
D16*
X81250000Y-70800000D03*
D10*
G36*
X87289483Y-69576257D02*
X87314830Y-69580017D01*
X87339686Y-69586243D01*
X87363812Y-69594876D01*
X87386976Y-69605832D01*
X87408955Y-69619005D01*
X87429536Y-69634269D01*
X87448523Y-69651477D01*
X87465731Y-69670464D01*
X87480995Y-69691045D01*
X87494168Y-69713024D01*
X87505124Y-69736188D01*
X87513757Y-69760314D01*
X87519983Y-69785170D01*
X87523743Y-69810517D01*
X87525000Y-69836110D01*
X87525000Y-71763890D01*
X87523743Y-71789483D01*
X87519983Y-71814830D01*
X87513757Y-71839686D01*
X87505124Y-71863812D01*
X87494168Y-71886976D01*
X87480995Y-71908955D01*
X87465731Y-71929536D01*
X87448523Y-71948523D01*
X87429536Y-71965731D01*
X87408955Y-71980995D01*
X87386976Y-71994168D01*
X87363812Y-72005124D01*
X87339686Y-72013757D01*
X87314830Y-72019983D01*
X87289483Y-72023743D01*
X87263890Y-72025000D01*
X85436110Y-72025000D01*
X85410517Y-72023743D01*
X85385170Y-72019983D01*
X85360314Y-72013757D01*
X85336188Y-72005124D01*
X85313024Y-71994168D01*
X85291045Y-71980995D01*
X85270464Y-71965731D01*
X85251477Y-71948523D01*
X85234269Y-71929536D01*
X85219005Y-71908955D01*
X85205832Y-71886976D01*
X85194876Y-71863812D01*
X85186243Y-71839686D01*
X85180017Y-71814830D01*
X85176257Y-71789483D01*
X85175000Y-71763890D01*
X85175000Y-69836110D01*
X85176257Y-69810517D01*
X85180017Y-69785170D01*
X85186243Y-69760314D01*
X85194876Y-69736188D01*
X85205832Y-69713024D01*
X85219005Y-69691045D01*
X85234269Y-69670464D01*
X85251477Y-69651477D01*
X85270464Y-69634269D01*
X85291045Y-69619005D01*
X85313024Y-69605832D01*
X85336188Y-69594876D01*
X85360314Y-69586243D01*
X85385170Y-69580017D01*
X85410517Y-69576257D01*
X85436110Y-69575000D01*
X87263890Y-69575000D01*
X87289483Y-69576257D01*
X87289483Y-69576257D01*
G37*
D16*
X86350000Y-70800000D03*
G04 #@! TD*
D10*
G04 #@! TO.C,C11*
G36*
X89404897Y-46751308D02*
X89431275Y-46755221D01*
X89457143Y-46761701D01*
X89482252Y-46770685D01*
X89506358Y-46782086D01*
X89529232Y-46795796D01*
X89550651Y-46811682D01*
X89570410Y-46829590D01*
X89588318Y-46849349D01*
X89604204Y-46870768D01*
X89617914Y-46893642D01*
X89629315Y-46917748D01*
X89638299Y-46942857D01*
X89644779Y-46968725D01*
X89648692Y-46995103D01*
X89650000Y-47021738D01*
X89650000Y-47978262D01*
X89648692Y-48004897D01*
X89644779Y-48031275D01*
X89638299Y-48057143D01*
X89629315Y-48082252D01*
X89617914Y-48106358D01*
X89604204Y-48129232D01*
X89588318Y-48150651D01*
X89570410Y-48170410D01*
X89550651Y-48188318D01*
X89529232Y-48204204D01*
X89506358Y-48217914D01*
X89482252Y-48229315D01*
X89457143Y-48238299D01*
X89431275Y-48244779D01*
X89404897Y-48248692D01*
X89378262Y-48250000D01*
X88671738Y-48250000D01*
X88645103Y-48248692D01*
X88618725Y-48244779D01*
X88592857Y-48238299D01*
X88567748Y-48229315D01*
X88543642Y-48217914D01*
X88520768Y-48204204D01*
X88499349Y-48188318D01*
X88479590Y-48170410D01*
X88461682Y-48150651D01*
X88445796Y-48129232D01*
X88432086Y-48106358D01*
X88420685Y-48082252D01*
X88411701Y-48057143D01*
X88405221Y-48031275D01*
X88401308Y-48004897D01*
X88400000Y-47978262D01*
X88400000Y-47021738D01*
X88401308Y-46995103D01*
X88405221Y-46968725D01*
X88411701Y-46942857D01*
X88420685Y-46917748D01*
X88432086Y-46893642D01*
X88445796Y-46870768D01*
X88461682Y-46849349D01*
X88479590Y-46829590D01*
X88499349Y-46811682D01*
X88520768Y-46795796D01*
X88543642Y-46782086D01*
X88567748Y-46770685D01*
X88592857Y-46761701D01*
X88618725Y-46755221D01*
X88645103Y-46751308D01*
X88671738Y-46750000D01*
X89378262Y-46750000D01*
X89404897Y-46751308D01*
X89404897Y-46751308D01*
G37*
D17*
X89025000Y-47500000D03*
D10*
G36*
X87354897Y-46751308D02*
X87381275Y-46755221D01*
X87407143Y-46761701D01*
X87432252Y-46770685D01*
X87456358Y-46782086D01*
X87479232Y-46795796D01*
X87500651Y-46811682D01*
X87520410Y-46829590D01*
X87538318Y-46849349D01*
X87554204Y-46870768D01*
X87567914Y-46893642D01*
X87579315Y-46917748D01*
X87588299Y-46942857D01*
X87594779Y-46968725D01*
X87598692Y-46995103D01*
X87600000Y-47021738D01*
X87600000Y-47978262D01*
X87598692Y-48004897D01*
X87594779Y-48031275D01*
X87588299Y-48057143D01*
X87579315Y-48082252D01*
X87567914Y-48106358D01*
X87554204Y-48129232D01*
X87538318Y-48150651D01*
X87520410Y-48170410D01*
X87500651Y-48188318D01*
X87479232Y-48204204D01*
X87456358Y-48217914D01*
X87432252Y-48229315D01*
X87407143Y-48238299D01*
X87381275Y-48244779D01*
X87354897Y-48248692D01*
X87328262Y-48250000D01*
X86621738Y-48250000D01*
X86595103Y-48248692D01*
X86568725Y-48244779D01*
X86542857Y-48238299D01*
X86517748Y-48229315D01*
X86493642Y-48217914D01*
X86470768Y-48204204D01*
X86449349Y-48188318D01*
X86429590Y-48170410D01*
X86411682Y-48150651D01*
X86395796Y-48129232D01*
X86382086Y-48106358D01*
X86370685Y-48082252D01*
X86361701Y-48057143D01*
X86355221Y-48031275D01*
X86351308Y-48004897D01*
X86350000Y-47978262D01*
X86350000Y-47021738D01*
X86351308Y-46995103D01*
X86355221Y-46968725D01*
X86361701Y-46942857D01*
X86370685Y-46917748D01*
X86382086Y-46893642D01*
X86395796Y-46870768D01*
X86411682Y-46849349D01*
X86429590Y-46829590D01*
X86449349Y-46811682D01*
X86470768Y-46795796D01*
X86493642Y-46782086D01*
X86517748Y-46770685D01*
X86542857Y-46761701D01*
X86568725Y-46755221D01*
X86595103Y-46751308D01*
X86621738Y-46750000D01*
X87328262Y-46750000D01*
X87354897Y-46751308D01*
X87354897Y-46751308D01*
G37*
D17*
X86975000Y-47500000D03*
G04 #@! TD*
D10*
G04 #@! TO.C,C12*
G36*
X87354897Y-51751308D02*
X87381275Y-51755221D01*
X87407143Y-51761701D01*
X87432252Y-51770685D01*
X87456358Y-51782086D01*
X87479232Y-51795796D01*
X87500651Y-51811682D01*
X87520410Y-51829590D01*
X87538318Y-51849349D01*
X87554204Y-51870768D01*
X87567914Y-51893642D01*
X87579315Y-51917748D01*
X87588299Y-51942857D01*
X87594779Y-51968725D01*
X87598692Y-51995103D01*
X87600000Y-52021738D01*
X87600000Y-52978262D01*
X87598692Y-53004897D01*
X87594779Y-53031275D01*
X87588299Y-53057143D01*
X87579315Y-53082252D01*
X87567914Y-53106358D01*
X87554204Y-53129232D01*
X87538318Y-53150651D01*
X87520410Y-53170410D01*
X87500651Y-53188318D01*
X87479232Y-53204204D01*
X87456358Y-53217914D01*
X87432252Y-53229315D01*
X87407143Y-53238299D01*
X87381275Y-53244779D01*
X87354897Y-53248692D01*
X87328262Y-53250000D01*
X86621738Y-53250000D01*
X86595103Y-53248692D01*
X86568725Y-53244779D01*
X86542857Y-53238299D01*
X86517748Y-53229315D01*
X86493642Y-53217914D01*
X86470768Y-53204204D01*
X86449349Y-53188318D01*
X86429590Y-53170410D01*
X86411682Y-53150651D01*
X86395796Y-53129232D01*
X86382086Y-53106358D01*
X86370685Y-53082252D01*
X86361701Y-53057143D01*
X86355221Y-53031275D01*
X86351308Y-53004897D01*
X86350000Y-52978262D01*
X86350000Y-52021738D01*
X86351308Y-51995103D01*
X86355221Y-51968725D01*
X86361701Y-51942857D01*
X86370685Y-51917748D01*
X86382086Y-51893642D01*
X86395796Y-51870768D01*
X86411682Y-51849349D01*
X86429590Y-51829590D01*
X86449349Y-51811682D01*
X86470768Y-51795796D01*
X86493642Y-51782086D01*
X86517748Y-51770685D01*
X86542857Y-51761701D01*
X86568725Y-51755221D01*
X86595103Y-51751308D01*
X86621738Y-51750000D01*
X87328262Y-51750000D01*
X87354897Y-51751308D01*
X87354897Y-51751308D01*
G37*
D17*
X86975000Y-52500000D03*
D10*
G36*
X89404897Y-51751308D02*
X89431275Y-51755221D01*
X89457143Y-51761701D01*
X89482252Y-51770685D01*
X89506358Y-51782086D01*
X89529232Y-51795796D01*
X89550651Y-51811682D01*
X89570410Y-51829590D01*
X89588318Y-51849349D01*
X89604204Y-51870768D01*
X89617914Y-51893642D01*
X89629315Y-51917748D01*
X89638299Y-51942857D01*
X89644779Y-51968725D01*
X89648692Y-51995103D01*
X89650000Y-52021738D01*
X89650000Y-52978262D01*
X89648692Y-53004897D01*
X89644779Y-53031275D01*
X89638299Y-53057143D01*
X89629315Y-53082252D01*
X89617914Y-53106358D01*
X89604204Y-53129232D01*
X89588318Y-53150651D01*
X89570410Y-53170410D01*
X89550651Y-53188318D01*
X89529232Y-53204204D01*
X89506358Y-53217914D01*
X89482252Y-53229315D01*
X89457143Y-53238299D01*
X89431275Y-53244779D01*
X89404897Y-53248692D01*
X89378262Y-53250000D01*
X88671738Y-53250000D01*
X88645103Y-53248692D01*
X88618725Y-53244779D01*
X88592857Y-53238299D01*
X88567748Y-53229315D01*
X88543642Y-53217914D01*
X88520768Y-53204204D01*
X88499349Y-53188318D01*
X88479590Y-53170410D01*
X88461682Y-53150651D01*
X88445796Y-53129232D01*
X88432086Y-53106358D01*
X88420685Y-53082252D01*
X88411701Y-53057143D01*
X88405221Y-53031275D01*
X88401308Y-53004897D01*
X88400000Y-52978262D01*
X88400000Y-52021738D01*
X88401308Y-51995103D01*
X88405221Y-51968725D01*
X88411701Y-51942857D01*
X88420685Y-51917748D01*
X88432086Y-51893642D01*
X88445796Y-51870768D01*
X88461682Y-51849349D01*
X88479590Y-51829590D01*
X88499349Y-51811682D01*
X88520768Y-51795796D01*
X88543642Y-51782086D01*
X88567748Y-51770685D01*
X88592857Y-51761701D01*
X88618725Y-51755221D01*
X88645103Y-51751308D01*
X88671738Y-51750000D01*
X89378262Y-51750000D01*
X89404897Y-51751308D01*
X89404897Y-51751308D01*
G37*
D17*
X89025000Y-52500000D03*
G04 #@! TD*
D10*
G04 #@! TO.C,C16*
G36*
X82754897Y-62651308D02*
X82781275Y-62655221D01*
X82807143Y-62661701D01*
X82832252Y-62670685D01*
X82856358Y-62682086D01*
X82879232Y-62695796D01*
X82900651Y-62711682D01*
X82920410Y-62729590D01*
X82938318Y-62749349D01*
X82954204Y-62770768D01*
X82967914Y-62793642D01*
X82979315Y-62817748D01*
X82988299Y-62842857D01*
X82994779Y-62868725D01*
X82998692Y-62895103D01*
X83000000Y-62921738D01*
X83000000Y-63628262D01*
X82998692Y-63654897D01*
X82994779Y-63681275D01*
X82988299Y-63707143D01*
X82979315Y-63732252D01*
X82967914Y-63756358D01*
X82954204Y-63779232D01*
X82938318Y-63800651D01*
X82920410Y-63820410D01*
X82900651Y-63838318D01*
X82879232Y-63854204D01*
X82856358Y-63867914D01*
X82832252Y-63879315D01*
X82807143Y-63888299D01*
X82781275Y-63894779D01*
X82754897Y-63898692D01*
X82728262Y-63900000D01*
X81771738Y-63900000D01*
X81745103Y-63898692D01*
X81718725Y-63894779D01*
X81692857Y-63888299D01*
X81667748Y-63879315D01*
X81643642Y-63867914D01*
X81620768Y-63854204D01*
X81599349Y-63838318D01*
X81579590Y-63820410D01*
X81561682Y-63800651D01*
X81545796Y-63779232D01*
X81532086Y-63756358D01*
X81520685Y-63732252D01*
X81511701Y-63707143D01*
X81505221Y-63681275D01*
X81501308Y-63654897D01*
X81500000Y-63628262D01*
X81500000Y-62921738D01*
X81501308Y-62895103D01*
X81505221Y-62868725D01*
X81511701Y-62842857D01*
X81520685Y-62817748D01*
X81532086Y-62793642D01*
X81545796Y-62770768D01*
X81561682Y-62749349D01*
X81579590Y-62729590D01*
X81599349Y-62711682D01*
X81620768Y-62695796D01*
X81643642Y-62682086D01*
X81667748Y-62670685D01*
X81692857Y-62661701D01*
X81718725Y-62655221D01*
X81745103Y-62651308D01*
X81771738Y-62650000D01*
X82728262Y-62650000D01*
X82754897Y-62651308D01*
X82754897Y-62651308D01*
G37*
D17*
X82250000Y-63275000D03*
D10*
G36*
X82754897Y-60601308D02*
X82781275Y-60605221D01*
X82807143Y-60611701D01*
X82832252Y-60620685D01*
X82856358Y-60632086D01*
X82879232Y-60645796D01*
X82900651Y-60661682D01*
X82920410Y-60679590D01*
X82938318Y-60699349D01*
X82954204Y-60720768D01*
X82967914Y-60743642D01*
X82979315Y-60767748D01*
X82988299Y-60792857D01*
X82994779Y-60818725D01*
X82998692Y-60845103D01*
X83000000Y-60871738D01*
X83000000Y-61578262D01*
X82998692Y-61604897D01*
X82994779Y-61631275D01*
X82988299Y-61657143D01*
X82979315Y-61682252D01*
X82967914Y-61706358D01*
X82954204Y-61729232D01*
X82938318Y-61750651D01*
X82920410Y-61770410D01*
X82900651Y-61788318D01*
X82879232Y-61804204D01*
X82856358Y-61817914D01*
X82832252Y-61829315D01*
X82807143Y-61838299D01*
X82781275Y-61844779D01*
X82754897Y-61848692D01*
X82728262Y-61850000D01*
X81771738Y-61850000D01*
X81745103Y-61848692D01*
X81718725Y-61844779D01*
X81692857Y-61838299D01*
X81667748Y-61829315D01*
X81643642Y-61817914D01*
X81620768Y-61804204D01*
X81599349Y-61788318D01*
X81579590Y-61770410D01*
X81561682Y-61750651D01*
X81545796Y-61729232D01*
X81532086Y-61706358D01*
X81520685Y-61682252D01*
X81511701Y-61657143D01*
X81505221Y-61631275D01*
X81501308Y-61604897D01*
X81500000Y-61578262D01*
X81500000Y-60871738D01*
X81501308Y-60845103D01*
X81505221Y-60818725D01*
X81511701Y-60792857D01*
X81520685Y-60767748D01*
X81532086Y-60743642D01*
X81545796Y-60720768D01*
X81561682Y-60699349D01*
X81579590Y-60679590D01*
X81599349Y-60661682D01*
X81620768Y-60645796D01*
X81643642Y-60632086D01*
X81667748Y-60620685D01*
X81692857Y-60611701D01*
X81718725Y-60605221D01*
X81745103Y-60601308D01*
X81771738Y-60600000D01*
X82728262Y-60600000D01*
X82754897Y-60601308D01*
X82754897Y-60601308D01*
G37*
D17*
X82250000Y-61225000D03*
G04 #@! TD*
D10*
G04 #@! TO.C,C17*
G36*
X75104897Y-48001308D02*
X75131275Y-48005221D01*
X75157143Y-48011701D01*
X75182252Y-48020685D01*
X75206358Y-48032086D01*
X75229232Y-48045796D01*
X75250651Y-48061682D01*
X75270410Y-48079590D01*
X75288318Y-48099349D01*
X75304204Y-48120768D01*
X75317914Y-48143642D01*
X75329315Y-48167748D01*
X75338299Y-48192857D01*
X75344779Y-48218725D01*
X75348692Y-48245103D01*
X75350000Y-48271738D01*
X75350000Y-49228262D01*
X75348692Y-49254897D01*
X75344779Y-49281275D01*
X75338299Y-49307143D01*
X75329315Y-49332252D01*
X75317914Y-49356358D01*
X75304204Y-49379232D01*
X75288318Y-49400651D01*
X75270410Y-49420410D01*
X75250651Y-49438318D01*
X75229232Y-49454204D01*
X75206358Y-49467914D01*
X75182252Y-49479315D01*
X75157143Y-49488299D01*
X75131275Y-49494779D01*
X75104897Y-49498692D01*
X75078262Y-49500000D01*
X74371738Y-49500000D01*
X74345103Y-49498692D01*
X74318725Y-49494779D01*
X74292857Y-49488299D01*
X74267748Y-49479315D01*
X74243642Y-49467914D01*
X74220768Y-49454204D01*
X74199349Y-49438318D01*
X74179590Y-49420410D01*
X74161682Y-49400651D01*
X74145796Y-49379232D01*
X74132086Y-49356358D01*
X74120685Y-49332252D01*
X74111701Y-49307143D01*
X74105221Y-49281275D01*
X74101308Y-49254897D01*
X74100000Y-49228262D01*
X74100000Y-48271738D01*
X74101308Y-48245103D01*
X74105221Y-48218725D01*
X74111701Y-48192857D01*
X74120685Y-48167748D01*
X74132086Y-48143642D01*
X74145796Y-48120768D01*
X74161682Y-48099349D01*
X74179590Y-48079590D01*
X74199349Y-48061682D01*
X74220768Y-48045796D01*
X74243642Y-48032086D01*
X74267748Y-48020685D01*
X74292857Y-48011701D01*
X74318725Y-48005221D01*
X74345103Y-48001308D01*
X74371738Y-48000000D01*
X75078262Y-48000000D01*
X75104897Y-48001308D01*
X75104897Y-48001308D01*
G37*
D17*
X74725000Y-48750000D03*
D10*
G36*
X77154897Y-48001308D02*
X77181275Y-48005221D01*
X77207143Y-48011701D01*
X77232252Y-48020685D01*
X77256358Y-48032086D01*
X77279232Y-48045796D01*
X77300651Y-48061682D01*
X77320410Y-48079590D01*
X77338318Y-48099349D01*
X77354204Y-48120768D01*
X77367914Y-48143642D01*
X77379315Y-48167748D01*
X77388299Y-48192857D01*
X77394779Y-48218725D01*
X77398692Y-48245103D01*
X77400000Y-48271738D01*
X77400000Y-49228262D01*
X77398692Y-49254897D01*
X77394779Y-49281275D01*
X77388299Y-49307143D01*
X77379315Y-49332252D01*
X77367914Y-49356358D01*
X77354204Y-49379232D01*
X77338318Y-49400651D01*
X77320410Y-49420410D01*
X77300651Y-49438318D01*
X77279232Y-49454204D01*
X77256358Y-49467914D01*
X77232252Y-49479315D01*
X77207143Y-49488299D01*
X77181275Y-49494779D01*
X77154897Y-49498692D01*
X77128262Y-49500000D01*
X76421738Y-49500000D01*
X76395103Y-49498692D01*
X76368725Y-49494779D01*
X76342857Y-49488299D01*
X76317748Y-49479315D01*
X76293642Y-49467914D01*
X76270768Y-49454204D01*
X76249349Y-49438318D01*
X76229590Y-49420410D01*
X76211682Y-49400651D01*
X76195796Y-49379232D01*
X76182086Y-49356358D01*
X76170685Y-49332252D01*
X76161701Y-49307143D01*
X76155221Y-49281275D01*
X76151308Y-49254897D01*
X76150000Y-49228262D01*
X76150000Y-48271738D01*
X76151308Y-48245103D01*
X76155221Y-48218725D01*
X76161701Y-48192857D01*
X76170685Y-48167748D01*
X76182086Y-48143642D01*
X76195796Y-48120768D01*
X76211682Y-48099349D01*
X76229590Y-48079590D01*
X76249349Y-48061682D01*
X76270768Y-48045796D01*
X76293642Y-48032086D01*
X76317748Y-48020685D01*
X76342857Y-48011701D01*
X76368725Y-48005221D01*
X76395103Y-48001308D01*
X76421738Y-48000000D01*
X77128262Y-48000000D01*
X77154897Y-48001308D01*
X77154897Y-48001308D01*
G37*
D17*
X76775000Y-48750000D03*
G04 #@! TD*
D10*
G04 #@! TO.C,C18*
G36*
X74004897Y-57851308D02*
X74031275Y-57855221D01*
X74057143Y-57861701D01*
X74082252Y-57870685D01*
X74106358Y-57882086D01*
X74129232Y-57895796D01*
X74150651Y-57911682D01*
X74170410Y-57929590D01*
X74188318Y-57949349D01*
X74204204Y-57970768D01*
X74217914Y-57993642D01*
X74229315Y-58017748D01*
X74238299Y-58042857D01*
X74244779Y-58068725D01*
X74248692Y-58095103D01*
X74250000Y-58121738D01*
X74250000Y-58828262D01*
X74248692Y-58854897D01*
X74244779Y-58881275D01*
X74238299Y-58907143D01*
X74229315Y-58932252D01*
X74217914Y-58956358D01*
X74204204Y-58979232D01*
X74188318Y-59000651D01*
X74170410Y-59020410D01*
X74150651Y-59038318D01*
X74129232Y-59054204D01*
X74106358Y-59067914D01*
X74082252Y-59079315D01*
X74057143Y-59088299D01*
X74031275Y-59094779D01*
X74004897Y-59098692D01*
X73978262Y-59100000D01*
X73021738Y-59100000D01*
X72995103Y-59098692D01*
X72968725Y-59094779D01*
X72942857Y-59088299D01*
X72917748Y-59079315D01*
X72893642Y-59067914D01*
X72870768Y-59054204D01*
X72849349Y-59038318D01*
X72829590Y-59020410D01*
X72811682Y-59000651D01*
X72795796Y-58979232D01*
X72782086Y-58956358D01*
X72770685Y-58932252D01*
X72761701Y-58907143D01*
X72755221Y-58881275D01*
X72751308Y-58854897D01*
X72750000Y-58828262D01*
X72750000Y-58121738D01*
X72751308Y-58095103D01*
X72755221Y-58068725D01*
X72761701Y-58042857D01*
X72770685Y-58017748D01*
X72782086Y-57993642D01*
X72795796Y-57970768D01*
X72811682Y-57949349D01*
X72829590Y-57929590D01*
X72849349Y-57911682D01*
X72870768Y-57895796D01*
X72893642Y-57882086D01*
X72917748Y-57870685D01*
X72942857Y-57861701D01*
X72968725Y-57855221D01*
X72995103Y-57851308D01*
X73021738Y-57850000D01*
X73978262Y-57850000D01*
X74004897Y-57851308D01*
X74004897Y-57851308D01*
G37*
D17*
X73500000Y-58475000D03*
D10*
G36*
X74004897Y-59901308D02*
X74031275Y-59905221D01*
X74057143Y-59911701D01*
X74082252Y-59920685D01*
X74106358Y-59932086D01*
X74129232Y-59945796D01*
X74150651Y-59961682D01*
X74170410Y-59979590D01*
X74188318Y-59999349D01*
X74204204Y-60020768D01*
X74217914Y-60043642D01*
X74229315Y-60067748D01*
X74238299Y-60092857D01*
X74244779Y-60118725D01*
X74248692Y-60145103D01*
X74250000Y-60171738D01*
X74250000Y-60878262D01*
X74248692Y-60904897D01*
X74244779Y-60931275D01*
X74238299Y-60957143D01*
X74229315Y-60982252D01*
X74217914Y-61006358D01*
X74204204Y-61029232D01*
X74188318Y-61050651D01*
X74170410Y-61070410D01*
X74150651Y-61088318D01*
X74129232Y-61104204D01*
X74106358Y-61117914D01*
X74082252Y-61129315D01*
X74057143Y-61138299D01*
X74031275Y-61144779D01*
X74004897Y-61148692D01*
X73978262Y-61150000D01*
X73021738Y-61150000D01*
X72995103Y-61148692D01*
X72968725Y-61144779D01*
X72942857Y-61138299D01*
X72917748Y-61129315D01*
X72893642Y-61117914D01*
X72870768Y-61104204D01*
X72849349Y-61088318D01*
X72829590Y-61070410D01*
X72811682Y-61050651D01*
X72795796Y-61029232D01*
X72782086Y-61006358D01*
X72770685Y-60982252D01*
X72761701Y-60957143D01*
X72755221Y-60931275D01*
X72751308Y-60904897D01*
X72750000Y-60878262D01*
X72750000Y-60171738D01*
X72751308Y-60145103D01*
X72755221Y-60118725D01*
X72761701Y-60092857D01*
X72770685Y-60067748D01*
X72782086Y-60043642D01*
X72795796Y-60020768D01*
X72811682Y-59999349D01*
X72829590Y-59979590D01*
X72849349Y-59961682D01*
X72870768Y-59945796D01*
X72893642Y-59932086D01*
X72917748Y-59920685D01*
X72942857Y-59911701D01*
X72968725Y-59905221D01*
X72995103Y-59901308D01*
X73021738Y-59900000D01*
X73978262Y-59900000D01*
X74004897Y-59901308D01*
X74004897Y-59901308D01*
G37*
D17*
X73500000Y-60525000D03*
G04 #@! TD*
D10*
G04 #@! TO.C,C19*
G36*
X87354897Y-50001308D02*
X87381275Y-50005221D01*
X87407143Y-50011701D01*
X87432252Y-50020685D01*
X87456358Y-50032086D01*
X87479232Y-50045796D01*
X87500651Y-50061682D01*
X87520410Y-50079590D01*
X87538318Y-50099349D01*
X87554204Y-50120768D01*
X87567914Y-50143642D01*
X87579315Y-50167748D01*
X87588299Y-50192857D01*
X87594779Y-50218725D01*
X87598692Y-50245103D01*
X87600000Y-50271738D01*
X87600000Y-51228262D01*
X87598692Y-51254897D01*
X87594779Y-51281275D01*
X87588299Y-51307143D01*
X87579315Y-51332252D01*
X87567914Y-51356358D01*
X87554204Y-51379232D01*
X87538318Y-51400651D01*
X87520410Y-51420410D01*
X87500651Y-51438318D01*
X87479232Y-51454204D01*
X87456358Y-51467914D01*
X87432252Y-51479315D01*
X87407143Y-51488299D01*
X87381275Y-51494779D01*
X87354897Y-51498692D01*
X87328262Y-51500000D01*
X86621738Y-51500000D01*
X86595103Y-51498692D01*
X86568725Y-51494779D01*
X86542857Y-51488299D01*
X86517748Y-51479315D01*
X86493642Y-51467914D01*
X86470768Y-51454204D01*
X86449349Y-51438318D01*
X86429590Y-51420410D01*
X86411682Y-51400651D01*
X86395796Y-51379232D01*
X86382086Y-51356358D01*
X86370685Y-51332252D01*
X86361701Y-51307143D01*
X86355221Y-51281275D01*
X86351308Y-51254897D01*
X86350000Y-51228262D01*
X86350000Y-50271738D01*
X86351308Y-50245103D01*
X86355221Y-50218725D01*
X86361701Y-50192857D01*
X86370685Y-50167748D01*
X86382086Y-50143642D01*
X86395796Y-50120768D01*
X86411682Y-50099349D01*
X86429590Y-50079590D01*
X86449349Y-50061682D01*
X86470768Y-50045796D01*
X86493642Y-50032086D01*
X86517748Y-50020685D01*
X86542857Y-50011701D01*
X86568725Y-50005221D01*
X86595103Y-50001308D01*
X86621738Y-50000000D01*
X87328262Y-50000000D01*
X87354897Y-50001308D01*
X87354897Y-50001308D01*
G37*
D17*
X86975000Y-50750000D03*
D10*
G36*
X89404897Y-50001308D02*
X89431275Y-50005221D01*
X89457143Y-50011701D01*
X89482252Y-50020685D01*
X89506358Y-50032086D01*
X89529232Y-50045796D01*
X89550651Y-50061682D01*
X89570410Y-50079590D01*
X89588318Y-50099349D01*
X89604204Y-50120768D01*
X89617914Y-50143642D01*
X89629315Y-50167748D01*
X89638299Y-50192857D01*
X89644779Y-50218725D01*
X89648692Y-50245103D01*
X89650000Y-50271738D01*
X89650000Y-51228262D01*
X89648692Y-51254897D01*
X89644779Y-51281275D01*
X89638299Y-51307143D01*
X89629315Y-51332252D01*
X89617914Y-51356358D01*
X89604204Y-51379232D01*
X89588318Y-51400651D01*
X89570410Y-51420410D01*
X89550651Y-51438318D01*
X89529232Y-51454204D01*
X89506358Y-51467914D01*
X89482252Y-51479315D01*
X89457143Y-51488299D01*
X89431275Y-51494779D01*
X89404897Y-51498692D01*
X89378262Y-51500000D01*
X88671738Y-51500000D01*
X88645103Y-51498692D01*
X88618725Y-51494779D01*
X88592857Y-51488299D01*
X88567748Y-51479315D01*
X88543642Y-51467914D01*
X88520768Y-51454204D01*
X88499349Y-51438318D01*
X88479590Y-51420410D01*
X88461682Y-51400651D01*
X88445796Y-51379232D01*
X88432086Y-51356358D01*
X88420685Y-51332252D01*
X88411701Y-51307143D01*
X88405221Y-51281275D01*
X88401308Y-51254897D01*
X88400000Y-51228262D01*
X88400000Y-50271738D01*
X88401308Y-50245103D01*
X88405221Y-50218725D01*
X88411701Y-50192857D01*
X88420685Y-50167748D01*
X88432086Y-50143642D01*
X88445796Y-50120768D01*
X88461682Y-50099349D01*
X88479590Y-50079590D01*
X88499349Y-50061682D01*
X88520768Y-50045796D01*
X88543642Y-50032086D01*
X88567748Y-50020685D01*
X88592857Y-50011701D01*
X88618725Y-50005221D01*
X88645103Y-50001308D01*
X88671738Y-50000000D01*
X89378262Y-50000000D01*
X89404897Y-50001308D01*
X89404897Y-50001308D01*
G37*
D17*
X89025000Y-50750000D03*
G04 #@! TD*
D10*
G04 #@! TO.C,C21*
G36*
X52004897Y-46401308D02*
X52031275Y-46405221D01*
X52057143Y-46411701D01*
X52082252Y-46420685D01*
X52106358Y-46432086D01*
X52129232Y-46445796D01*
X52150651Y-46461682D01*
X52170410Y-46479590D01*
X52188318Y-46499349D01*
X52204204Y-46520768D01*
X52217914Y-46543642D01*
X52229315Y-46567748D01*
X52238299Y-46592857D01*
X52244779Y-46618725D01*
X52248692Y-46645103D01*
X52250000Y-46671738D01*
X52250000Y-47378262D01*
X52248692Y-47404897D01*
X52244779Y-47431275D01*
X52238299Y-47457143D01*
X52229315Y-47482252D01*
X52217914Y-47506358D01*
X52204204Y-47529232D01*
X52188318Y-47550651D01*
X52170410Y-47570410D01*
X52150651Y-47588318D01*
X52129232Y-47604204D01*
X52106358Y-47617914D01*
X52082252Y-47629315D01*
X52057143Y-47638299D01*
X52031275Y-47644779D01*
X52004897Y-47648692D01*
X51978262Y-47650000D01*
X51021738Y-47650000D01*
X50995103Y-47648692D01*
X50968725Y-47644779D01*
X50942857Y-47638299D01*
X50917748Y-47629315D01*
X50893642Y-47617914D01*
X50870768Y-47604204D01*
X50849349Y-47588318D01*
X50829590Y-47570410D01*
X50811682Y-47550651D01*
X50795796Y-47529232D01*
X50782086Y-47506358D01*
X50770685Y-47482252D01*
X50761701Y-47457143D01*
X50755221Y-47431275D01*
X50751308Y-47404897D01*
X50750000Y-47378262D01*
X50750000Y-46671738D01*
X50751308Y-46645103D01*
X50755221Y-46618725D01*
X50761701Y-46592857D01*
X50770685Y-46567748D01*
X50782086Y-46543642D01*
X50795796Y-46520768D01*
X50811682Y-46499349D01*
X50829590Y-46479590D01*
X50849349Y-46461682D01*
X50870768Y-46445796D01*
X50893642Y-46432086D01*
X50917748Y-46420685D01*
X50942857Y-46411701D01*
X50968725Y-46405221D01*
X50995103Y-46401308D01*
X51021738Y-46400000D01*
X51978262Y-46400000D01*
X52004897Y-46401308D01*
X52004897Y-46401308D01*
G37*
D17*
X51500000Y-47025000D03*
D10*
G36*
X52004897Y-44351308D02*
X52031275Y-44355221D01*
X52057143Y-44361701D01*
X52082252Y-44370685D01*
X52106358Y-44382086D01*
X52129232Y-44395796D01*
X52150651Y-44411682D01*
X52170410Y-44429590D01*
X52188318Y-44449349D01*
X52204204Y-44470768D01*
X52217914Y-44493642D01*
X52229315Y-44517748D01*
X52238299Y-44542857D01*
X52244779Y-44568725D01*
X52248692Y-44595103D01*
X52250000Y-44621738D01*
X52250000Y-45328262D01*
X52248692Y-45354897D01*
X52244779Y-45381275D01*
X52238299Y-45407143D01*
X52229315Y-45432252D01*
X52217914Y-45456358D01*
X52204204Y-45479232D01*
X52188318Y-45500651D01*
X52170410Y-45520410D01*
X52150651Y-45538318D01*
X52129232Y-45554204D01*
X52106358Y-45567914D01*
X52082252Y-45579315D01*
X52057143Y-45588299D01*
X52031275Y-45594779D01*
X52004897Y-45598692D01*
X51978262Y-45600000D01*
X51021738Y-45600000D01*
X50995103Y-45598692D01*
X50968725Y-45594779D01*
X50942857Y-45588299D01*
X50917748Y-45579315D01*
X50893642Y-45567914D01*
X50870768Y-45554204D01*
X50849349Y-45538318D01*
X50829590Y-45520410D01*
X50811682Y-45500651D01*
X50795796Y-45479232D01*
X50782086Y-45456358D01*
X50770685Y-45432252D01*
X50761701Y-45407143D01*
X50755221Y-45381275D01*
X50751308Y-45354897D01*
X50750000Y-45328262D01*
X50750000Y-44621738D01*
X50751308Y-44595103D01*
X50755221Y-44568725D01*
X50761701Y-44542857D01*
X50770685Y-44517748D01*
X50782086Y-44493642D01*
X50795796Y-44470768D01*
X50811682Y-44449349D01*
X50829590Y-44429590D01*
X50849349Y-44411682D01*
X50870768Y-44395796D01*
X50893642Y-44382086D01*
X50917748Y-44370685D01*
X50942857Y-44361701D01*
X50968725Y-44355221D01*
X50995103Y-44351308D01*
X51021738Y-44350000D01*
X51978262Y-44350000D01*
X52004897Y-44351308D01*
X52004897Y-44351308D01*
G37*
D17*
X51500000Y-44975000D03*
G04 #@! TD*
D10*
G04 #@! TO.C,C22*
G36*
X58004897Y-46401308D02*
X58031275Y-46405221D01*
X58057143Y-46411701D01*
X58082252Y-46420685D01*
X58106358Y-46432086D01*
X58129232Y-46445796D01*
X58150651Y-46461682D01*
X58170410Y-46479590D01*
X58188318Y-46499349D01*
X58204204Y-46520768D01*
X58217914Y-46543642D01*
X58229315Y-46567748D01*
X58238299Y-46592857D01*
X58244779Y-46618725D01*
X58248692Y-46645103D01*
X58250000Y-46671738D01*
X58250000Y-47378262D01*
X58248692Y-47404897D01*
X58244779Y-47431275D01*
X58238299Y-47457143D01*
X58229315Y-47482252D01*
X58217914Y-47506358D01*
X58204204Y-47529232D01*
X58188318Y-47550651D01*
X58170410Y-47570410D01*
X58150651Y-47588318D01*
X58129232Y-47604204D01*
X58106358Y-47617914D01*
X58082252Y-47629315D01*
X58057143Y-47638299D01*
X58031275Y-47644779D01*
X58004897Y-47648692D01*
X57978262Y-47650000D01*
X57021738Y-47650000D01*
X56995103Y-47648692D01*
X56968725Y-47644779D01*
X56942857Y-47638299D01*
X56917748Y-47629315D01*
X56893642Y-47617914D01*
X56870768Y-47604204D01*
X56849349Y-47588318D01*
X56829590Y-47570410D01*
X56811682Y-47550651D01*
X56795796Y-47529232D01*
X56782086Y-47506358D01*
X56770685Y-47482252D01*
X56761701Y-47457143D01*
X56755221Y-47431275D01*
X56751308Y-47404897D01*
X56750000Y-47378262D01*
X56750000Y-46671738D01*
X56751308Y-46645103D01*
X56755221Y-46618725D01*
X56761701Y-46592857D01*
X56770685Y-46567748D01*
X56782086Y-46543642D01*
X56795796Y-46520768D01*
X56811682Y-46499349D01*
X56829590Y-46479590D01*
X56849349Y-46461682D01*
X56870768Y-46445796D01*
X56893642Y-46432086D01*
X56917748Y-46420685D01*
X56942857Y-46411701D01*
X56968725Y-46405221D01*
X56995103Y-46401308D01*
X57021738Y-46400000D01*
X57978262Y-46400000D01*
X58004897Y-46401308D01*
X58004897Y-46401308D01*
G37*
D17*
X57500000Y-47025000D03*
D10*
G36*
X58004897Y-44351308D02*
X58031275Y-44355221D01*
X58057143Y-44361701D01*
X58082252Y-44370685D01*
X58106358Y-44382086D01*
X58129232Y-44395796D01*
X58150651Y-44411682D01*
X58170410Y-44429590D01*
X58188318Y-44449349D01*
X58204204Y-44470768D01*
X58217914Y-44493642D01*
X58229315Y-44517748D01*
X58238299Y-44542857D01*
X58244779Y-44568725D01*
X58248692Y-44595103D01*
X58250000Y-44621738D01*
X58250000Y-45328262D01*
X58248692Y-45354897D01*
X58244779Y-45381275D01*
X58238299Y-45407143D01*
X58229315Y-45432252D01*
X58217914Y-45456358D01*
X58204204Y-45479232D01*
X58188318Y-45500651D01*
X58170410Y-45520410D01*
X58150651Y-45538318D01*
X58129232Y-45554204D01*
X58106358Y-45567914D01*
X58082252Y-45579315D01*
X58057143Y-45588299D01*
X58031275Y-45594779D01*
X58004897Y-45598692D01*
X57978262Y-45600000D01*
X57021738Y-45600000D01*
X56995103Y-45598692D01*
X56968725Y-45594779D01*
X56942857Y-45588299D01*
X56917748Y-45579315D01*
X56893642Y-45567914D01*
X56870768Y-45554204D01*
X56849349Y-45538318D01*
X56829590Y-45520410D01*
X56811682Y-45500651D01*
X56795796Y-45479232D01*
X56782086Y-45456358D01*
X56770685Y-45432252D01*
X56761701Y-45407143D01*
X56755221Y-45381275D01*
X56751308Y-45354897D01*
X56750000Y-45328262D01*
X56750000Y-44621738D01*
X56751308Y-44595103D01*
X56755221Y-44568725D01*
X56761701Y-44542857D01*
X56770685Y-44517748D01*
X56782086Y-44493642D01*
X56795796Y-44470768D01*
X56811682Y-44449349D01*
X56829590Y-44429590D01*
X56849349Y-44411682D01*
X56870768Y-44395796D01*
X56893642Y-44382086D01*
X56917748Y-44370685D01*
X56942857Y-44361701D01*
X56968725Y-44355221D01*
X56995103Y-44351308D01*
X57021738Y-44350000D01*
X57978262Y-44350000D01*
X58004897Y-44351308D01*
X58004897Y-44351308D01*
G37*
D17*
X57500000Y-44975000D03*
G04 #@! TD*
D10*
G04 #@! TO.C,C31*
G36*
X65504897Y-70151308D02*
X65531275Y-70155221D01*
X65557143Y-70161701D01*
X65582252Y-70170685D01*
X65606358Y-70182086D01*
X65629232Y-70195796D01*
X65650651Y-70211682D01*
X65670410Y-70229590D01*
X65688318Y-70249349D01*
X65704204Y-70270768D01*
X65717914Y-70293642D01*
X65729315Y-70317748D01*
X65738299Y-70342857D01*
X65744779Y-70368725D01*
X65748692Y-70395103D01*
X65750000Y-70421738D01*
X65750000Y-71128262D01*
X65748692Y-71154897D01*
X65744779Y-71181275D01*
X65738299Y-71207143D01*
X65729315Y-71232252D01*
X65717914Y-71256358D01*
X65704204Y-71279232D01*
X65688318Y-71300651D01*
X65670410Y-71320410D01*
X65650651Y-71338318D01*
X65629232Y-71354204D01*
X65606358Y-71367914D01*
X65582252Y-71379315D01*
X65557143Y-71388299D01*
X65531275Y-71394779D01*
X65504897Y-71398692D01*
X65478262Y-71400000D01*
X64521738Y-71400000D01*
X64495103Y-71398692D01*
X64468725Y-71394779D01*
X64442857Y-71388299D01*
X64417748Y-71379315D01*
X64393642Y-71367914D01*
X64370768Y-71354204D01*
X64349349Y-71338318D01*
X64329590Y-71320410D01*
X64311682Y-71300651D01*
X64295796Y-71279232D01*
X64282086Y-71256358D01*
X64270685Y-71232252D01*
X64261701Y-71207143D01*
X64255221Y-71181275D01*
X64251308Y-71154897D01*
X64250000Y-71128262D01*
X64250000Y-70421738D01*
X64251308Y-70395103D01*
X64255221Y-70368725D01*
X64261701Y-70342857D01*
X64270685Y-70317748D01*
X64282086Y-70293642D01*
X64295796Y-70270768D01*
X64311682Y-70249349D01*
X64329590Y-70229590D01*
X64349349Y-70211682D01*
X64370768Y-70195796D01*
X64393642Y-70182086D01*
X64417748Y-70170685D01*
X64442857Y-70161701D01*
X64468725Y-70155221D01*
X64495103Y-70151308D01*
X64521738Y-70150000D01*
X65478262Y-70150000D01*
X65504897Y-70151308D01*
X65504897Y-70151308D01*
G37*
D17*
X65000000Y-70775000D03*
D10*
G36*
X65504897Y-68101308D02*
X65531275Y-68105221D01*
X65557143Y-68111701D01*
X65582252Y-68120685D01*
X65606358Y-68132086D01*
X65629232Y-68145796D01*
X65650651Y-68161682D01*
X65670410Y-68179590D01*
X65688318Y-68199349D01*
X65704204Y-68220768D01*
X65717914Y-68243642D01*
X65729315Y-68267748D01*
X65738299Y-68292857D01*
X65744779Y-68318725D01*
X65748692Y-68345103D01*
X65750000Y-68371738D01*
X65750000Y-69078262D01*
X65748692Y-69104897D01*
X65744779Y-69131275D01*
X65738299Y-69157143D01*
X65729315Y-69182252D01*
X65717914Y-69206358D01*
X65704204Y-69229232D01*
X65688318Y-69250651D01*
X65670410Y-69270410D01*
X65650651Y-69288318D01*
X65629232Y-69304204D01*
X65606358Y-69317914D01*
X65582252Y-69329315D01*
X65557143Y-69338299D01*
X65531275Y-69344779D01*
X65504897Y-69348692D01*
X65478262Y-69350000D01*
X64521738Y-69350000D01*
X64495103Y-69348692D01*
X64468725Y-69344779D01*
X64442857Y-69338299D01*
X64417748Y-69329315D01*
X64393642Y-69317914D01*
X64370768Y-69304204D01*
X64349349Y-69288318D01*
X64329590Y-69270410D01*
X64311682Y-69250651D01*
X64295796Y-69229232D01*
X64282086Y-69206358D01*
X64270685Y-69182252D01*
X64261701Y-69157143D01*
X64255221Y-69131275D01*
X64251308Y-69104897D01*
X64250000Y-69078262D01*
X64250000Y-68371738D01*
X64251308Y-68345103D01*
X64255221Y-68318725D01*
X64261701Y-68292857D01*
X64270685Y-68267748D01*
X64282086Y-68243642D01*
X64295796Y-68220768D01*
X64311682Y-68199349D01*
X64329590Y-68179590D01*
X64349349Y-68161682D01*
X64370768Y-68145796D01*
X64393642Y-68132086D01*
X64417748Y-68120685D01*
X64442857Y-68111701D01*
X64468725Y-68105221D01*
X64495103Y-68101308D01*
X64521738Y-68100000D01*
X65478262Y-68100000D01*
X65504897Y-68101308D01*
X65504897Y-68101308D01*
G37*
D17*
X65000000Y-68725000D03*
G04 #@! TD*
D10*
G04 #@! TO.C,C32*
G36*
X73004897Y-70151308D02*
X73031275Y-70155221D01*
X73057143Y-70161701D01*
X73082252Y-70170685D01*
X73106358Y-70182086D01*
X73129232Y-70195796D01*
X73150651Y-70211682D01*
X73170410Y-70229590D01*
X73188318Y-70249349D01*
X73204204Y-70270768D01*
X73217914Y-70293642D01*
X73229315Y-70317748D01*
X73238299Y-70342857D01*
X73244779Y-70368725D01*
X73248692Y-70395103D01*
X73250000Y-70421738D01*
X73250000Y-71128262D01*
X73248692Y-71154897D01*
X73244779Y-71181275D01*
X73238299Y-71207143D01*
X73229315Y-71232252D01*
X73217914Y-71256358D01*
X73204204Y-71279232D01*
X73188318Y-71300651D01*
X73170410Y-71320410D01*
X73150651Y-71338318D01*
X73129232Y-71354204D01*
X73106358Y-71367914D01*
X73082252Y-71379315D01*
X73057143Y-71388299D01*
X73031275Y-71394779D01*
X73004897Y-71398692D01*
X72978262Y-71400000D01*
X72021738Y-71400000D01*
X71995103Y-71398692D01*
X71968725Y-71394779D01*
X71942857Y-71388299D01*
X71917748Y-71379315D01*
X71893642Y-71367914D01*
X71870768Y-71354204D01*
X71849349Y-71338318D01*
X71829590Y-71320410D01*
X71811682Y-71300651D01*
X71795796Y-71279232D01*
X71782086Y-71256358D01*
X71770685Y-71232252D01*
X71761701Y-71207143D01*
X71755221Y-71181275D01*
X71751308Y-71154897D01*
X71750000Y-71128262D01*
X71750000Y-70421738D01*
X71751308Y-70395103D01*
X71755221Y-70368725D01*
X71761701Y-70342857D01*
X71770685Y-70317748D01*
X71782086Y-70293642D01*
X71795796Y-70270768D01*
X71811682Y-70249349D01*
X71829590Y-70229590D01*
X71849349Y-70211682D01*
X71870768Y-70195796D01*
X71893642Y-70182086D01*
X71917748Y-70170685D01*
X71942857Y-70161701D01*
X71968725Y-70155221D01*
X71995103Y-70151308D01*
X72021738Y-70150000D01*
X72978262Y-70150000D01*
X73004897Y-70151308D01*
X73004897Y-70151308D01*
G37*
D17*
X72500000Y-70775000D03*
D10*
G36*
X73004897Y-68101308D02*
X73031275Y-68105221D01*
X73057143Y-68111701D01*
X73082252Y-68120685D01*
X73106358Y-68132086D01*
X73129232Y-68145796D01*
X73150651Y-68161682D01*
X73170410Y-68179590D01*
X73188318Y-68199349D01*
X73204204Y-68220768D01*
X73217914Y-68243642D01*
X73229315Y-68267748D01*
X73238299Y-68292857D01*
X73244779Y-68318725D01*
X73248692Y-68345103D01*
X73250000Y-68371738D01*
X73250000Y-69078262D01*
X73248692Y-69104897D01*
X73244779Y-69131275D01*
X73238299Y-69157143D01*
X73229315Y-69182252D01*
X73217914Y-69206358D01*
X73204204Y-69229232D01*
X73188318Y-69250651D01*
X73170410Y-69270410D01*
X73150651Y-69288318D01*
X73129232Y-69304204D01*
X73106358Y-69317914D01*
X73082252Y-69329315D01*
X73057143Y-69338299D01*
X73031275Y-69344779D01*
X73004897Y-69348692D01*
X72978262Y-69350000D01*
X72021738Y-69350000D01*
X71995103Y-69348692D01*
X71968725Y-69344779D01*
X71942857Y-69338299D01*
X71917748Y-69329315D01*
X71893642Y-69317914D01*
X71870768Y-69304204D01*
X71849349Y-69288318D01*
X71829590Y-69270410D01*
X71811682Y-69250651D01*
X71795796Y-69229232D01*
X71782086Y-69206358D01*
X71770685Y-69182252D01*
X71761701Y-69157143D01*
X71755221Y-69131275D01*
X71751308Y-69104897D01*
X71750000Y-69078262D01*
X71750000Y-68371738D01*
X71751308Y-68345103D01*
X71755221Y-68318725D01*
X71761701Y-68292857D01*
X71770685Y-68267748D01*
X71782086Y-68243642D01*
X71795796Y-68220768D01*
X71811682Y-68199349D01*
X71829590Y-68179590D01*
X71849349Y-68161682D01*
X71870768Y-68145796D01*
X71893642Y-68132086D01*
X71917748Y-68120685D01*
X71942857Y-68111701D01*
X71968725Y-68105221D01*
X71995103Y-68101308D01*
X72021738Y-68100000D01*
X72978262Y-68100000D01*
X73004897Y-68101308D01*
X73004897Y-68101308D01*
G37*
D17*
X72500000Y-68725000D03*
G04 #@! TD*
D18*
G04 #@! TO.C,D1*
X65500000Y-65200000D03*
X65500000Y-59800000D03*
G04 #@! TD*
G04 #@! TO.C,D2*
X70000000Y-59700000D03*
X70000000Y-65100000D03*
G04 #@! TD*
D10*
G04 #@! TO.C,D3*
G36*
X101404897Y-79251308D02*
X101431275Y-79255221D01*
X101457143Y-79261701D01*
X101482252Y-79270685D01*
X101506358Y-79282086D01*
X101529232Y-79295796D01*
X101550651Y-79311682D01*
X101570410Y-79329590D01*
X101588318Y-79349349D01*
X101604204Y-79370768D01*
X101617914Y-79393642D01*
X101629315Y-79417748D01*
X101638299Y-79442857D01*
X101644779Y-79468725D01*
X101648692Y-79495103D01*
X101650000Y-79521738D01*
X101650000Y-80478262D01*
X101648692Y-80504897D01*
X101644779Y-80531275D01*
X101638299Y-80557143D01*
X101629315Y-80582252D01*
X101617914Y-80606358D01*
X101604204Y-80629232D01*
X101588318Y-80650651D01*
X101570410Y-80670410D01*
X101550651Y-80688318D01*
X101529232Y-80704204D01*
X101506358Y-80717914D01*
X101482252Y-80729315D01*
X101457143Y-80738299D01*
X101431275Y-80744779D01*
X101404897Y-80748692D01*
X101378262Y-80750000D01*
X100671738Y-80750000D01*
X100645103Y-80748692D01*
X100618725Y-80744779D01*
X100592857Y-80738299D01*
X100567748Y-80729315D01*
X100543642Y-80717914D01*
X100520768Y-80704204D01*
X100499349Y-80688318D01*
X100479590Y-80670410D01*
X100461682Y-80650651D01*
X100445796Y-80629232D01*
X100432086Y-80606358D01*
X100420685Y-80582252D01*
X100411701Y-80557143D01*
X100405221Y-80531275D01*
X100401308Y-80504897D01*
X100400000Y-80478262D01*
X100400000Y-79521738D01*
X100401308Y-79495103D01*
X100405221Y-79468725D01*
X100411701Y-79442857D01*
X100420685Y-79417748D01*
X100432086Y-79393642D01*
X100445796Y-79370768D01*
X100461682Y-79349349D01*
X100479590Y-79329590D01*
X100499349Y-79311682D01*
X100520768Y-79295796D01*
X100543642Y-79282086D01*
X100567748Y-79270685D01*
X100592857Y-79261701D01*
X100618725Y-79255221D01*
X100645103Y-79251308D01*
X100671738Y-79250000D01*
X101378262Y-79250000D01*
X101404897Y-79251308D01*
X101404897Y-79251308D01*
G37*
D17*
X101025000Y-80000000D03*
D10*
G36*
X99354897Y-79251308D02*
X99381275Y-79255221D01*
X99407143Y-79261701D01*
X99432252Y-79270685D01*
X99456358Y-79282086D01*
X99479232Y-79295796D01*
X99500651Y-79311682D01*
X99520410Y-79329590D01*
X99538318Y-79349349D01*
X99554204Y-79370768D01*
X99567914Y-79393642D01*
X99579315Y-79417748D01*
X99588299Y-79442857D01*
X99594779Y-79468725D01*
X99598692Y-79495103D01*
X99600000Y-79521738D01*
X99600000Y-80478262D01*
X99598692Y-80504897D01*
X99594779Y-80531275D01*
X99588299Y-80557143D01*
X99579315Y-80582252D01*
X99567914Y-80606358D01*
X99554204Y-80629232D01*
X99538318Y-80650651D01*
X99520410Y-80670410D01*
X99500651Y-80688318D01*
X99479232Y-80704204D01*
X99456358Y-80717914D01*
X99432252Y-80729315D01*
X99407143Y-80738299D01*
X99381275Y-80744779D01*
X99354897Y-80748692D01*
X99328262Y-80750000D01*
X98621738Y-80750000D01*
X98595103Y-80748692D01*
X98568725Y-80744779D01*
X98542857Y-80738299D01*
X98517748Y-80729315D01*
X98493642Y-80717914D01*
X98470768Y-80704204D01*
X98449349Y-80688318D01*
X98429590Y-80670410D01*
X98411682Y-80650651D01*
X98395796Y-80629232D01*
X98382086Y-80606358D01*
X98370685Y-80582252D01*
X98361701Y-80557143D01*
X98355221Y-80531275D01*
X98351308Y-80504897D01*
X98350000Y-80478262D01*
X98350000Y-79521738D01*
X98351308Y-79495103D01*
X98355221Y-79468725D01*
X98361701Y-79442857D01*
X98370685Y-79417748D01*
X98382086Y-79393642D01*
X98395796Y-79370768D01*
X98411682Y-79349349D01*
X98429590Y-79329590D01*
X98449349Y-79311682D01*
X98470768Y-79295796D01*
X98493642Y-79282086D01*
X98517748Y-79270685D01*
X98542857Y-79261701D01*
X98568725Y-79255221D01*
X98595103Y-79251308D01*
X98621738Y-79250000D01*
X99328262Y-79250000D01*
X99354897Y-79251308D01*
X99354897Y-79251308D01*
G37*
D17*
X98975000Y-80000000D03*
G04 #@! TD*
D10*
G04 #@! TO.C,D4*
G36*
X104104897Y-79251308D02*
X104131275Y-79255221D01*
X104157143Y-79261701D01*
X104182252Y-79270685D01*
X104206358Y-79282086D01*
X104229232Y-79295796D01*
X104250651Y-79311682D01*
X104270410Y-79329590D01*
X104288318Y-79349349D01*
X104304204Y-79370768D01*
X104317914Y-79393642D01*
X104329315Y-79417748D01*
X104338299Y-79442857D01*
X104344779Y-79468725D01*
X104348692Y-79495103D01*
X104350000Y-79521738D01*
X104350000Y-80478262D01*
X104348692Y-80504897D01*
X104344779Y-80531275D01*
X104338299Y-80557143D01*
X104329315Y-80582252D01*
X104317914Y-80606358D01*
X104304204Y-80629232D01*
X104288318Y-80650651D01*
X104270410Y-80670410D01*
X104250651Y-80688318D01*
X104229232Y-80704204D01*
X104206358Y-80717914D01*
X104182252Y-80729315D01*
X104157143Y-80738299D01*
X104131275Y-80744779D01*
X104104897Y-80748692D01*
X104078262Y-80750000D01*
X103371738Y-80750000D01*
X103345103Y-80748692D01*
X103318725Y-80744779D01*
X103292857Y-80738299D01*
X103267748Y-80729315D01*
X103243642Y-80717914D01*
X103220768Y-80704204D01*
X103199349Y-80688318D01*
X103179590Y-80670410D01*
X103161682Y-80650651D01*
X103145796Y-80629232D01*
X103132086Y-80606358D01*
X103120685Y-80582252D01*
X103111701Y-80557143D01*
X103105221Y-80531275D01*
X103101308Y-80504897D01*
X103100000Y-80478262D01*
X103100000Y-79521738D01*
X103101308Y-79495103D01*
X103105221Y-79468725D01*
X103111701Y-79442857D01*
X103120685Y-79417748D01*
X103132086Y-79393642D01*
X103145796Y-79370768D01*
X103161682Y-79349349D01*
X103179590Y-79329590D01*
X103199349Y-79311682D01*
X103220768Y-79295796D01*
X103243642Y-79282086D01*
X103267748Y-79270685D01*
X103292857Y-79261701D01*
X103318725Y-79255221D01*
X103345103Y-79251308D01*
X103371738Y-79250000D01*
X104078262Y-79250000D01*
X104104897Y-79251308D01*
X104104897Y-79251308D01*
G37*
D17*
X103725000Y-80000000D03*
D10*
G36*
X106154897Y-79251308D02*
X106181275Y-79255221D01*
X106207143Y-79261701D01*
X106232252Y-79270685D01*
X106256358Y-79282086D01*
X106279232Y-79295796D01*
X106300651Y-79311682D01*
X106320410Y-79329590D01*
X106338318Y-79349349D01*
X106354204Y-79370768D01*
X106367914Y-79393642D01*
X106379315Y-79417748D01*
X106388299Y-79442857D01*
X106394779Y-79468725D01*
X106398692Y-79495103D01*
X106400000Y-79521738D01*
X106400000Y-80478262D01*
X106398692Y-80504897D01*
X106394779Y-80531275D01*
X106388299Y-80557143D01*
X106379315Y-80582252D01*
X106367914Y-80606358D01*
X106354204Y-80629232D01*
X106338318Y-80650651D01*
X106320410Y-80670410D01*
X106300651Y-80688318D01*
X106279232Y-80704204D01*
X106256358Y-80717914D01*
X106232252Y-80729315D01*
X106207143Y-80738299D01*
X106181275Y-80744779D01*
X106154897Y-80748692D01*
X106128262Y-80750000D01*
X105421738Y-80750000D01*
X105395103Y-80748692D01*
X105368725Y-80744779D01*
X105342857Y-80738299D01*
X105317748Y-80729315D01*
X105293642Y-80717914D01*
X105270768Y-80704204D01*
X105249349Y-80688318D01*
X105229590Y-80670410D01*
X105211682Y-80650651D01*
X105195796Y-80629232D01*
X105182086Y-80606358D01*
X105170685Y-80582252D01*
X105161701Y-80557143D01*
X105155221Y-80531275D01*
X105151308Y-80504897D01*
X105150000Y-80478262D01*
X105150000Y-79521738D01*
X105151308Y-79495103D01*
X105155221Y-79468725D01*
X105161701Y-79442857D01*
X105170685Y-79417748D01*
X105182086Y-79393642D01*
X105195796Y-79370768D01*
X105211682Y-79349349D01*
X105229590Y-79329590D01*
X105249349Y-79311682D01*
X105270768Y-79295796D01*
X105293642Y-79282086D01*
X105317748Y-79270685D01*
X105342857Y-79261701D01*
X105368725Y-79255221D01*
X105395103Y-79251308D01*
X105421738Y-79250000D01*
X106128262Y-79250000D01*
X106154897Y-79251308D01*
X106154897Y-79251308D01*
G37*
D17*
X105775000Y-80000000D03*
G04 #@! TD*
D10*
G04 #@! TO.C,D5*
G36*
X108854897Y-79251308D02*
X108881275Y-79255221D01*
X108907143Y-79261701D01*
X108932252Y-79270685D01*
X108956358Y-79282086D01*
X108979232Y-79295796D01*
X109000651Y-79311682D01*
X109020410Y-79329590D01*
X109038318Y-79349349D01*
X109054204Y-79370768D01*
X109067914Y-79393642D01*
X109079315Y-79417748D01*
X109088299Y-79442857D01*
X109094779Y-79468725D01*
X109098692Y-79495103D01*
X109100000Y-79521738D01*
X109100000Y-80478262D01*
X109098692Y-80504897D01*
X109094779Y-80531275D01*
X109088299Y-80557143D01*
X109079315Y-80582252D01*
X109067914Y-80606358D01*
X109054204Y-80629232D01*
X109038318Y-80650651D01*
X109020410Y-80670410D01*
X109000651Y-80688318D01*
X108979232Y-80704204D01*
X108956358Y-80717914D01*
X108932252Y-80729315D01*
X108907143Y-80738299D01*
X108881275Y-80744779D01*
X108854897Y-80748692D01*
X108828262Y-80750000D01*
X108121738Y-80750000D01*
X108095103Y-80748692D01*
X108068725Y-80744779D01*
X108042857Y-80738299D01*
X108017748Y-80729315D01*
X107993642Y-80717914D01*
X107970768Y-80704204D01*
X107949349Y-80688318D01*
X107929590Y-80670410D01*
X107911682Y-80650651D01*
X107895796Y-80629232D01*
X107882086Y-80606358D01*
X107870685Y-80582252D01*
X107861701Y-80557143D01*
X107855221Y-80531275D01*
X107851308Y-80504897D01*
X107850000Y-80478262D01*
X107850000Y-79521738D01*
X107851308Y-79495103D01*
X107855221Y-79468725D01*
X107861701Y-79442857D01*
X107870685Y-79417748D01*
X107882086Y-79393642D01*
X107895796Y-79370768D01*
X107911682Y-79349349D01*
X107929590Y-79329590D01*
X107949349Y-79311682D01*
X107970768Y-79295796D01*
X107993642Y-79282086D01*
X108017748Y-79270685D01*
X108042857Y-79261701D01*
X108068725Y-79255221D01*
X108095103Y-79251308D01*
X108121738Y-79250000D01*
X108828262Y-79250000D01*
X108854897Y-79251308D01*
X108854897Y-79251308D01*
G37*
D17*
X108475000Y-80000000D03*
D10*
G36*
X110904897Y-79251308D02*
X110931275Y-79255221D01*
X110957143Y-79261701D01*
X110982252Y-79270685D01*
X111006358Y-79282086D01*
X111029232Y-79295796D01*
X111050651Y-79311682D01*
X111070410Y-79329590D01*
X111088318Y-79349349D01*
X111104204Y-79370768D01*
X111117914Y-79393642D01*
X111129315Y-79417748D01*
X111138299Y-79442857D01*
X111144779Y-79468725D01*
X111148692Y-79495103D01*
X111150000Y-79521738D01*
X111150000Y-80478262D01*
X111148692Y-80504897D01*
X111144779Y-80531275D01*
X111138299Y-80557143D01*
X111129315Y-80582252D01*
X111117914Y-80606358D01*
X111104204Y-80629232D01*
X111088318Y-80650651D01*
X111070410Y-80670410D01*
X111050651Y-80688318D01*
X111029232Y-80704204D01*
X111006358Y-80717914D01*
X110982252Y-80729315D01*
X110957143Y-80738299D01*
X110931275Y-80744779D01*
X110904897Y-80748692D01*
X110878262Y-80750000D01*
X110171738Y-80750000D01*
X110145103Y-80748692D01*
X110118725Y-80744779D01*
X110092857Y-80738299D01*
X110067748Y-80729315D01*
X110043642Y-80717914D01*
X110020768Y-80704204D01*
X109999349Y-80688318D01*
X109979590Y-80670410D01*
X109961682Y-80650651D01*
X109945796Y-80629232D01*
X109932086Y-80606358D01*
X109920685Y-80582252D01*
X109911701Y-80557143D01*
X109905221Y-80531275D01*
X109901308Y-80504897D01*
X109900000Y-80478262D01*
X109900000Y-79521738D01*
X109901308Y-79495103D01*
X109905221Y-79468725D01*
X109911701Y-79442857D01*
X109920685Y-79417748D01*
X109932086Y-79393642D01*
X109945796Y-79370768D01*
X109961682Y-79349349D01*
X109979590Y-79329590D01*
X109999349Y-79311682D01*
X110020768Y-79295796D01*
X110043642Y-79282086D01*
X110067748Y-79270685D01*
X110092857Y-79261701D01*
X110118725Y-79255221D01*
X110145103Y-79251308D01*
X110171738Y-79250000D01*
X110878262Y-79250000D01*
X110904897Y-79251308D01*
X110904897Y-79251308D01*
G37*
D17*
X110525000Y-80000000D03*
G04 #@! TD*
D19*
G04 #@! TO.C,D41*
X81800000Y-73800000D03*
X86800000Y-73800000D03*
G04 #@! TD*
D10*
G04 #@! TO.C,F11*
G36*
X86408680Y-75276288D02*
X86434651Y-75280141D01*
X86460120Y-75286520D01*
X86484841Y-75295366D01*
X86508575Y-75306591D01*
X86531095Y-75320089D01*
X86552184Y-75335730D01*
X86571638Y-75353362D01*
X86589270Y-75372816D01*
X86604911Y-75393905D01*
X86618409Y-75416425D01*
X86629634Y-75440159D01*
X86638480Y-75464880D01*
X86644859Y-75490349D01*
X86648712Y-75516320D01*
X86650000Y-75542544D01*
X86650000Y-76857456D01*
X86648712Y-76883680D01*
X86644859Y-76909651D01*
X86638480Y-76935120D01*
X86629634Y-76959841D01*
X86618409Y-76983575D01*
X86604911Y-77006095D01*
X86589270Y-77027184D01*
X86571638Y-77046638D01*
X86552184Y-77064270D01*
X86531095Y-77079911D01*
X86508575Y-77093409D01*
X86484841Y-77104634D01*
X86460120Y-77113480D01*
X86434651Y-77119859D01*
X86408680Y-77123712D01*
X86382456Y-77125000D01*
X85392544Y-77125000D01*
X85366320Y-77123712D01*
X85340349Y-77119859D01*
X85314880Y-77113480D01*
X85290159Y-77104634D01*
X85266425Y-77093409D01*
X85243905Y-77079911D01*
X85222816Y-77064270D01*
X85203362Y-77046638D01*
X85185730Y-77027184D01*
X85170089Y-77006095D01*
X85156591Y-76983575D01*
X85145366Y-76959841D01*
X85136520Y-76935120D01*
X85130141Y-76909651D01*
X85126288Y-76883680D01*
X85125000Y-76857456D01*
X85125000Y-75542544D01*
X85126288Y-75516320D01*
X85130141Y-75490349D01*
X85136520Y-75464880D01*
X85145366Y-75440159D01*
X85156591Y-75416425D01*
X85170089Y-75393905D01*
X85185730Y-75372816D01*
X85203362Y-75353362D01*
X85222816Y-75335730D01*
X85243905Y-75320089D01*
X85266425Y-75306591D01*
X85290159Y-75295366D01*
X85314880Y-75286520D01*
X85340349Y-75280141D01*
X85366320Y-75276288D01*
X85392544Y-75275000D01*
X86382456Y-75275000D01*
X86408680Y-75276288D01*
X86408680Y-75276288D01*
G37*
D20*
X85887500Y-76200000D03*
D10*
G36*
X83433680Y-75276288D02*
X83459651Y-75280141D01*
X83485120Y-75286520D01*
X83509841Y-75295366D01*
X83533575Y-75306591D01*
X83556095Y-75320089D01*
X83577184Y-75335730D01*
X83596638Y-75353362D01*
X83614270Y-75372816D01*
X83629911Y-75393905D01*
X83643409Y-75416425D01*
X83654634Y-75440159D01*
X83663480Y-75464880D01*
X83669859Y-75490349D01*
X83673712Y-75516320D01*
X83675000Y-75542544D01*
X83675000Y-76857456D01*
X83673712Y-76883680D01*
X83669859Y-76909651D01*
X83663480Y-76935120D01*
X83654634Y-76959841D01*
X83643409Y-76983575D01*
X83629911Y-77006095D01*
X83614270Y-77027184D01*
X83596638Y-77046638D01*
X83577184Y-77064270D01*
X83556095Y-77079911D01*
X83533575Y-77093409D01*
X83509841Y-77104634D01*
X83485120Y-77113480D01*
X83459651Y-77119859D01*
X83433680Y-77123712D01*
X83407456Y-77125000D01*
X82417544Y-77125000D01*
X82391320Y-77123712D01*
X82365349Y-77119859D01*
X82339880Y-77113480D01*
X82315159Y-77104634D01*
X82291425Y-77093409D01*
X82268905Y-77079911D01*
X82247816Y-77064270D01*
X82228362Y-77046638D01*
X82210730Y-77027184D01*
X82195089Y-77006095D01*
X82181591Y-76983575D01*
X82170366Y-76959841D01*
X82161520Y-76935120D01*
X82155141Y-76909651D01*
X82151288Y-76883680D01*
X82150000Y-76857456D01*
X82150000Y-75542544D01*
X82151288Y-75516320D01*
X82155141Y-75490349D01*
X82161520Y-75464880D01*
X82170366Y-75440159D01*
X82181591Y-75416425D01*
X82195089Y-75393905D01*
X82210730Y-75372816D01*
X82228362Y-75353362D01*
X82247816Y-75335730D01*
X82268905Y-75320089D01*
X82291425Y-75306591D01*
X82315159Y-75295366D01*
X82339880Y-75286520D01*
X82365349Y-75280141D01*
X82391320Y-75276288D01*
X82417544Y-75275000D01*
X83407456Y-75275000D01*
X83433680Y-75276288D01*
X83433680Y-75276288D01*
G37*
D20*
X82912500Y-76200000D03*
G04 #@! TD*
D10*
G04 #@! TO.C,F12*
G36*
X68033680Y-74276288D02*
X68059651Y-74280141D01*
X68085120Y-74286520D01*
X68109841Y-74295366D01*
X68133575Y-74306591D01*
X68156095Y-74320089D01*
X68177184Y-74335730D01*
X68196638Y-74353362D01*
X68214270Y-74372816D01*
X68229911Y-74393905D01*
X68243409Y-74416425D01*
X68254634Y-74440159D01*
X68263480Y-74464880D01*
X68269859Y-74490349D01*
X68273712Y-74516320D01*
X68275000Y-74542544D01*
X68275000Y-75857456D01*
X68273712Y-75883680D01*
X68269859Y-75909651D01*
X68263480Y-75935120D01*
X68254634Y-75959841D01*
X68243409Y-75983575D01*
X68229911Y-76006095D01*
X68214270Y-76027184D01*
X68196638Y-76046638D01*
X68177184Y-76064270D01*
X68156095Y-76079911D01*
X68133575Y-76093409D01*
X68109841Y-76104634D01*
X68085120Y-76113480D01*
X68059651Y-76119859D01*
X68033680Y-76123712D01*
X68007456Y-76125000D01*
X67017544Y-76125000D01*
X66991320Y-76123712D01*
X66965349Y-76119859D01*
X66939880Y-76113480D01*
X66915159Y-76104634D01*
X66891425Y-76093409D01*
X66868905Y-76079911D01*
X66847816Y-76064270D01*
X66828362Y-76046638D01*
X66810730Y-76027184D01*
X66795089Y-76006095D01*
X66781591Y-75983575D01*
X66770366Y-75959841D01*
X66761520Y-75935120D01*
X66755141Y-75909651D01*
X66751288Y-75883680D01*
X66750000Y-75857456D01*
X66750000Y-74542544D01*
X66751288Y-74516320D01*
X66755141Y-74490349D01*
X66761520Y-74464880D01*
X66770366Y-74440159D01*
X66781591Y-74416425D01*
X66795089Y-74393905D01*
X66810730Y-74372816D01*
X66828362Y-74353362D01*
X66847816Y-74335730D01*
X66868905Y-74320089D01*
X66891425Y-74306591D01*
X66915159Y-74295366D01*
X66939880Y-74286520D01*
X66965349Y-74280141D01*
X66991320Y-74276288D01*
X67017544Y-74275000D01*
X68007456Y-74275000D01*
X68033680Y-74276288D01*
X68033680Y-74276288D01*
G37*
D20*
X67512500Y-75200000D03*
D10*
G36*
X71008680Y-74276288D02*
X71034651Y-74280141D01*
X71060120Y-74286520D01*
X71084841Y-74295366D01*
X71108575Y-74306591D01*
X71131095Y-74320089D01*
X71152184Y-74335730D01*
X71171638Y-74353362D01*
X71189270Y-74372816D01*
X71204911Y-74393905D01*
X71218409Y-74416425D01*
X71229634Y-74440159D01*
X71238480Y-74464880D01*
X71244859Y-74490349D01*
X71248712Y-74516320D01*
X71250000Y-74542544D01*
X71250000Y-75857456D01*
X71248712Y-75883680D01*
X71244859Y-75909651D01*
X71238480Y-75935120D01*
X71229634Y-75959841D01*
X71218409Y-75983575D01*
X71204911Y-76006095D01*
X71189270Y-76027184D01*
X71171638Y-76046638D01*
X71152184Y-76064270D01*
X71131095Y-76079911D01*
X71108575Y-76093409D01*
X71084841Y-76104634D01*
X71060120Y-76113480D01*
X71034651Y-76119859D01*
X71008680Y-76123712D01*
X70982456Y-76125000D01*
X69992544Y-76125000D01*
X69966320Y-76123712D01*
X69940349Y-76119859D01*
X69914880Y-76113480D01*
X69890159Y-76104634D01*
X69866425Y-76093409D01*
X69843905Y-76079911D01*
X69822816Y-76064270D01*
X69803362Y-76046638D01*
X69785730Y-76027184D01*
X69770089Y-76006095D01*
X69756591Y-75983575D01*
X69745366Y-75959841D01*
X69736520Y-75935120D01*
X69730141Y-75909651D01*
X69726288Y-75883680D01*
X69725000Y-75857456D01*
X69725000Y-74542544D01*
X69726288Y-74516320D01*
X69730141Y-74490349D01*
X69736520Y-74464880D01*
X69745366Y-74440159D01*
X69756591Y-74416425D01*
X69770089Y-74393905D01*
X69785730Y-74372816D01*
X69803362Y-74353362D01*
X69822816Y-74335730D01*
X69843905Y-74320089D01*
X69866425Y-74306591D01*
X69890159Y-74295366D01*
X69914880Y-74286520D01*
X69940349Y-74280141D01*
X69966320Y-74276288D01*
X69992544Y-74275000D01*
X70982456Y-74275000D01*
X71008680Y-74276288D01*
X71008680Y-74276288D01*
G37*
D20*
X70487500Y-75200000D03*
G04 #@! TD*
D10*
G04 #@! TO.C,L41*
G36*
X92633680Y-75476288D02*
X92659651Y-75480141D01*
X92685120Y-75486520D01*
X92709841Y-75495366D01*
X92733575Y-75506591D01*
X92756095Y-75520089D01*
X92777184Y-75535730D01*
X92796638Y-75553362D01*
X92814270Y-75572816D01*
X92829911Y-75593905D01*
X92843409Y-75616425D01*
X92854634Y-75640159D01*
X92863480Y-75664880D01*
X92869859Y-75690349D01*
X92873712Y-75716320D01*
X92875000Y-75742544D01*
X92875000Y-76732456D01*
X92873712Y-76758680D01*
X92869859Y-76784651D01*
X92863480Y-76810120D01*
X92854634Y-76834841D01*
X92843409Y-76858575D01*
X92829911Y-76881095D01*
X92814270Y-76902184D01*
X92796638Y-76921638D01*
X92777184Y-76939270D01*
X92756095Y-76954911D01*
X92733575Y-76968409D01*
X92709841Y-76979634D01*
X92685120Y-76988480D01*
X92659651Y-76994859D01*
X92633680Y-76998712D01*
X92607456Y-77000000D01*
X90392544Y-77000000D01*
X90366320Y-76998712D01*
X90340349Y-76994859D01*
X90314880Y-76988480D01*
X90290159Y-76979634D01*
X90266425Y-76968409D01*
X90243905Y-76954911D01*
X90222816Y-76939270D01*
X90203362Y-76921638D01*
X90185730Y-76902184D01*
X90170089Y-76881095D01*
X90156591Y-76858575D01*
X90145366Y-76834841D01*
X90136520Y-76810120D01*
X90130141Y-76784651D01*
X90126288Y-76758680D01*
X90125000Y-76732456D01*
X90125000Y-75742544D01*
X90126288Y-75716320D01*
X90130141Y-75690349D01*
X90136520Y-75664880D01*
X90145366Y-75640159D01*
X90156591Y-75616425D01*
X90170089Y-75593905D01*
X90185730Y-75572816D01*
X90203362Y-75553362D01*
X90222816Y-75535730D01*
X90243905Y-75520089D01*
X90266425Y-75506591D01*
X90290159Y-75495366D01*
X90314880Y-75486520D01*
X90340349Y-75480141D01*
X90366320Y-75476288D01*
X90392544Y-75475000D01*
X92607456Y-75475000D01*
X92633680Y-75476288D01*
X92633680Y-75476288D01*
G37*
D20*
X91500000Y-76237500D03*
D10*
G36*
X92633680Y-72501288D02*
X92659651Y-72505141D01*
X92685120Y-72511520D01*
X92709841Y-72520366D01*
X92733575Y-72531591D01*
X92756095Y-72545089D01*
X92777184Y-72560730D01*
X92796638Y-72578362D01*
X92814270Y-72597816D01*
X92829911Y-72618905D01*
X92843409Y-72641425D01*
X92854634Y-72665159D01*
X92863480Y-72689880D01*
X92869859Y-72715349D01*
X92873712Y-72741320D01*
X92875000Y-72767544D01*
X92875000Y-73757456D01*
X92873712Y-73783680D01*
X92869859Y-73809651D01*
X92863480Y-73835120D01*
X92854634Y-73859841D01*
X92843409Y-73883575D01*
X92829911Y-73906095D01*
X92814270Y-73927184D01*
X92796638Y-73946638D01*
X92777184Y-73964270D01*
X92756095Y-73979911D01*
X92733575Y-73993409D01*
X92709841Y-74004634D01*
X92685120Y-74013480D01*
X92659651Y-74019859D01*
X92633680Y-74023712D01*
X92607456Y-74025000D01*
X90392544Y-74025000D01*
X90366320Y-74023712D01*
X90340349Y-74019859D01*
X90314880Y-74013480D01*
X90290159Y-74004634D01*
X90266425Y-73993409D01*
X90243905Y-73979911D01*
X90222816Y-73964270D01*
X90203362Y-73946638D01*
X90185730Y-73927184D01*
X90170089Y-73906095D01*
X90156591Y-73883575D01*
X90145366Y-73859841D01*
X90136520Y-73835120D01*
X90130141Y-73809651D01*
X90126288Y-73783680D01*
X90125000Y-73757456D01*
X90125000Y-72767544D01*
X90126288Y-72741320D01*
X90130141Y-72715349D01*
X90136520Y-72689880D01*
X90145366Y-72665159D01*
X90156591Y-72641425D01*
X90170089Y-72618905D01*
X90185730Y-72597816D01*
X90203362Y-72578362D01*
X90222816Y-72560730D01*
X90243905Y-72545089D01*
X90266425Y-72531591D01*
X90290159Y-72520366D01*
X90314880Y-72511520D01*
X90340349Y-72505141D01*
X90366320Y-72501288D01*
X90392544Y-72500000D01*
X92607456Y-72500000D01*
X92633680Y-72501288D01*
X92633680Y-72501288D01*
G37*
D20*
X91500000Y-73262500D03*
G04 #@! TD*
D21*
G04 #@! TO.C,Q51*
X64075000Y-47450000D03*
X65975000Y-47450000D03*
X65025000Y-44450000D03*
G04 #@! TD*
D10*
G04 #@! TO.C,R12*
G36*
X110504897Y-68501308D02*
X110531275Y-68505221D01*
X110557143Y-68511701D01*
X110582252Y-68520685D01*
X110606358Y-68532086D01*
X110629232Y-68545796D01*
X110650651Y-68561682D01*
X110670410Y-68579590D01*
X110688318Y-68599349D01*
X110704204Y-68620768D01*
X110717914Y-68643642D01*
X110729315Y-68667748D01*
X110738299Y-68692857D01*
X110744779Y-68718725D01*
X110748692Y-68745103D01*
X110750000Y-68771738D01*
X110750000Y-69478262D01*
X110748692Y-69504897D01*
X110744779Y-69531275D01*
X110738299Y-69557143D01*
X110729315Y-69582252D01*
X110717914Y-69606358D01*
X110704204Y-69629232D01*
X110688318Y-69650651D01*
X110670410Y-69670410D01*
X110650651Y-69688318D01*
X110629232Y-69704204D01*
X110606358Y-69717914D01*
X110582252Y-69729315D01*
X110557143Y-69738299D01*
X110531275Y-69744779D01*
X110504897Y-69748692D01*
X110478262Y-69750000D01*
X109521738Y-69750000D01*
X109495103Y-69748692D01*
X109468725Y-69744779D01*
X109442857Y-69738299D01*
X109417748Y-69729315D01*
X109393642Y-69717914D01*
X109370768Y-69704204D01*
X109349349Y-69688318D01*
X109329590Y-69670410D01*
X109311682Y-69650651D01*
X109295796Y-69629232D01*
X109282086Y-69606358D01*
X109270685Y-69582252D01*
X109261701Y-69557143D01*
X109255221Y-69531275D01*
X109251308Y-69504897D01*
X109250000Y-69478262D01*
X109250000Y-68771738D01*
X109251308Y-68745103D01*
X109255221Y-68718725D01*
X109261701Y-68692857D01*
X109270685Y-68667748D01*
X109282086Y-68643642D01*
X109295796Y-68620768D01*
X109311682Y-68599349D01*
X109329590Y-68579590D01*
X109349349Y-68561682D01*
X109370768Y-68545796D01*
X109393642Y-68532086D01*
X109417748Y-68520685D01*
X109442857Y-68511701D01*
X109468725Y-68505221D01*
X109495103Y-68501308D01*
X109521738Y-68500000D01*
X110478262Y-68500000D01*
X110504897Y-68501308D01*
X110504897Y-68501308D01*
G37*
D17*
X110000000Y-69125000D03*
D10*
G36*
X110504897Y-70551308D02*
X110531275Y-70555221D01*
X110557143Y-70561701D01*
X110582252Y-70570685D01*
X110606358Y-70582086D01*
X110629232Y-70595796D01*
X110650651Y-70611682D01*
X110670410Y-70629590D01*
X110688318Y-70649349D01*
X110704204Y-70670768D01*
X110717914Y-70693642D01*
X110729315Y-70717748D01*
X110738299Y-70742857D01*
X110744779Y-70768725D01*
X110748692Y-70795103D01*
X110750000Y-70821738D01*
X110750000Y-71528262D01*
X110748692Y-71554897D01*
X110744779Y-71581275D01*
X110738299Y-71607143D01*
X110729315Y-71632252D01*
X110717914Y-71656358D01*
X110704204Y-71679232D01*
X110688318Y-71700651D01*
X110670410Y-71720410D01*
X110650651Y-71738318D01*
X110629232Y-71754204D01*
X110606358Y-71767914D01*
X110582252Y-71779315D01*
X110557143Y-71788299D01*
X110531275Y-71794779D01*
X110504897Y-71798692D01*
X110478262Y-71800000D01*
X109521738Y-71800000D01*
X109495103Y-71798692D01*
X109468725Y-71794779D01*
X109442857Y-71788299D01*
X109417748Y-71779315D01*
X109393642Y-71767914D01*
X109370768Y-71754204D01*
X109349349Y-71738318D01*
X109329590Y-71720410D01*
X109311682Y-71700651D01*
X109295796Y-71679232D01*
X109282086Y-71656358D01*
X109270685Y-71632252D01*
X109261701Y-71607143D01*
X109255221Y-71581275D01*
X109251308Y-71554897D01*
X109250000Y-71528262D01*
X109250000Y-70821738D01*
X109251308Y-70795103D01*
X109255221Y-70768725D01*
X109261701Y-70742857D01*
X109270685Y-70717748D01*
X109282086Y-70693642D01*
X109295796Y-70670768D01*
X109311682Y-70649349D01*
X109329590Y-70629590D01*
X109349349Y-70611682D01*
X109370768Y-70595796D01*
X109393642Y-70582086D01*
X109417748Y-70570685D01*
X109442857Y-70561701D01*
X109468725Y-70555221D01*
X109495103Y-70551308D01*
X109521738Y-70550000D01*
X110478262Y-70550000D01*
X110504897Y-70551308D01*
X110504897Y-70551308D01*
G37*
D17*
X110000000Y-71175000D03*
G04 #@! TD*
D10*
G04 #@! TO.C,R41*
G36*
X86904897Y-79851308D02*
X86931275Y-79855221D01*
X86957143Y-79861701D01*
X86982252Y-79870685D01*
X87006358Y-79882086D01*
X87029232Y-79895796D01*
X87050651Y-79911682D01*
X87070410Y-79929590D01*
X87088318Y-79949349D01*
X87104204Y-79970768D01*
X87117914Y-79993642D01*
X87129315Y-80017748D01*
X87138299Y-80042857D01*
X87144779Y-80068725D01*
X87148692Y-80095103D01*
X87150000Y-80121738D01*
X87150000Y-80828262D01*
X87148692Y-80854897D01*
X87144779Y-80881275D01*
X87138299Y-80907143D01*
X87129315Y-80932252D01*
X87117914Y-80956358D01*
X87104204Y-80979232D01*
X87088318Y-81000651D01*
X87070410Y-81020410D01*
X87050651Y-81038318D01*
X87029232Y-81054204D01*
X87006358Y-81067914D01*
X86982252Y-81079315D01*
X86957143Y-81088299D01*
X86931275Y-81094779D01*
X86904897Y-81098692D01*
X86878262Y-81100000D01*
X85921738Y-81100000D01*
X85895103Y-81098692D01*
X85868725Y-81094779D01*
X85842857Y-81088299D01*
X85817748Y-81079315D01*
X85793642Y-81067914D01*
X85770768Y-81054204D01*
X85749349Y-81038318D01*
X85729590Y-81020410D01*
X85711682Y-81000651D01*
X85695796Y-80979232D01*
X85682086Y-80956358D01*
X85670685Y-80932252D01*
X85661701Y-80907143D01*
X85655221Y-80881275D01*
X85651308Y-80854897D01*
X85650000Y-80828262D01*
X85650000Y-80121738D01*
X85651308Y-80095103D01*
X85655221Y-80068725D01*
X85661701Y-80042857D01*
X85670685Y-80017748D01*
X85682086Y-79993642D01*
X85695796Y-79970768D01*
X85711682Y-79949349D01*
X85729590Y-79929590D01*
X85749349Y-79911682D01*
X85770768Y-79895796D01*
X85793642Y-79882086D01*
X85817748Y-79870685D01*
X85842857Y-79861701D01*
X85868725Y-79855221D01*
X85895103Y-79851308D01*
X85921738Y-79850000D01*
X86878262Y-79850000D01*
X86904897Y-79851308D01*
X86904897Y-79851308D01*
G37*
D17*
X86400000Y-80475000D03*
D10*
G36*
X86904897Y-77801308D02*
X86931275Y-77805221D01*
X86957143Y-77811701D01*
X86982252Y-77820685D01*
X87006358Y-77832086D01*
X87029232Y-77845796D01*
X87050651Y-77861682D01*
X87070410Y-77879590D01*
X87088318Y-77899349D01*
X87104204Y-77920768D01*
X87117914Y-77943642D01*
X87129315Y-77967748D01*
X87138299Y-77992857D01*
X87144779Y-78018725D01*
X87148692Y-78045103D01*
X87150000Y-78071738D01*
X87150000Y-78778262D01*
X87148692Y-78804897D01*
X87144779Y-78831275D01*
X87138299Y-78857143D01*
X87129315Y-78882252D01*
X87117914Y-78906358D01*
X87104204Y-78929232D01*
X87088318Y-78950651D01*
X87070410Y-78970410D01*
X87050651Y-78988318D01*
X87029232Y-79004204D01*
X87006358Y-79017914D01*
X86982252Y-79029315D01*
X86957143Y-79038299D01*
X86931275Y-79044779D01*
X86904897Y-79048692D01*
X86878262Y-79050000D01*
X85921738Y-79050000D01*
X85895103Y-79048692D01*
X85868725Y-79044779D01*
X85842857Y-79038299D01*
X85817748Y-79029315D01*
X85793642Y-79017914D01*
X85770768Y-79004204D01*
X85749349Y-78988318D01*
X85729590Y-78970410D01*
X85711682Y-78950651D01*
X85695796Y-78929232D01*
X85682086Y-78906358D01*
X85670685Y-78882252D01*
X85661701Y-78857143D01*
X85655221Y-78831275D01*
X85651308Y-78804897D01*
X85650000Y-78778262D01*
X85650000Y-78071738D01*
X85651308Y-78045103D01*
X85655221Y-78018725D01*
X85661701Y-77992857D01*
X85670685Y-77967748D01*
X85682086Y-77943642D01*
X85695796Y-77920768D01*
X85711682Y-77899349D01*
X85729590Y-77879590D01*
X85749349Y-77861682D01*
X85770768Y-77845796D01*
X85793642Y-77832086D01*
X85817748Y-77820685D01*
X85842857Y-77811701D01*
X85868725Y-77805221D01*
X85895103Y-77801308D01*
X85921738Y-77800000D01*
X86878262Y-77800000D01*
X86904897Y-77801308D01*
X86904897Y-77801308D01*
G37*
D17*
X86400000Y-78425000D03*
G04 #@! TD*
D10*
G04 #@! TO.C,R51*
G36*
X77054897Y-46251308D02*
X77081275Y-46255221D01*
X77107143Y-46261701D01*
X77132252Y-46270685D01*
X77156358Y-46282086D01*
X77179232Y-46295796D01*
X77200651Y-46311682D01*
X77220410Y-46329590D01*
X77238318Y-46349349D01*
X77254204Y-46370768D01*
X77267914Y-46393642D01*
X77279315Y-46417748D01*
X77288299Y-46442857D01*
X77294779Y-46468725D01*
X77298692Y-46495103D01*
X77300000Y-46521738D01*
X77300000Y-47478262D01*
X77298692Y-47504897D01*
X77294779Y-47531275D01*
X77288299Y-47557143D01*
X77279315Y-47582252D01*
X77267914Y-47606358D01*
X77254204Y-47629232D01*
X77238318Y-47650651D01*
X77220410Y-47670410D01*
X77200651Y-47688318D01*
X77179232Y-47704204D01*
X77156358Y-47717914D01*
X77132252Y-47729315D01*
X77107143Y-47738299D01*
X77081275Y-47744779D01*
X77054897Y-47748692D01*
X77028262Y-47750000D01*
X76321738Y-47750000D01*
X76295103Y-47748692D01*
X76268725Y-47744779D01*
X76242857Y-47738299D01*
X76217748Y-47729315D01*
X76193642Y-47717914D01*
X76170768Y-47704204D01*
X76149349Y-47688318D01*
X76129590Y-47670410D01*
X76111682Y-47650651D01*
X76095796Y-47629232D01*
X76082086Y-47606358D01*
X76070685Y-47582252D01*
X76061701Y-47557143D01*
X76055221Y-47531275D01*
X76051308Y-47504897D01*
X76050000Y-47478262D01*
X76050000Y-46521738D01*
X76051308Y-46495103D01*
X76055221Y-46468725D01*
X76061701Y-46442857D01*
X76070685Y-46417748D01*
X76082086Y-46393642D01*
X76095796Y-46370768D01*
X76111682Y-46349349D01*
X76129590Y-46329590D01*
X76149349Y-46311682D01*
X76170768Y-46295796D01*
X76193642Y-46282086D01*
X76217748Y-46270685D01*
X76242857Y-46261701D01*
X76268725Y-46255221D01*
X76295103Y-46251308D01*
X76321738Y-46250000D01*
X77028262Y-46250000D01*
X77054897Y-46251308D01*
X77054897Y-46251308D01*
G37*
D17*
X76675000Y-47000000D03*
D10*
G36*
X75004897Y-46251308D02*
X75031275Y-46255221D01*
X75057143Y-46261701D01*
X75082252Y-46270685D01*
X75106358Y-46282086D01*
X75129232Y-46295796D01*
X75150651Y-46311682D01*
X75170410Y-46329590D01*
X75188318Y-46349349D01*
X75204204Y-46370768D01*
X75217914Y-46393642D01*
X75229315Y-46417748D01*
X75238299Y-46442857D01*
X75244779Y-46468725D01*
X75248692Y-46495103D01*
X75250000Y-46521738D01*
X75250000Y-47478262D01*
X75248692Y-47504897D01*
X75244779Y-47531275D01*
X75238299Y-47557143D01*
X75229315Y-47582252D01*
X75217914Y-47606358D01*
X75204204Y-47629232D01*
X75188318Y-47650651D01*
X75170410Y-47670410D01*
X75150651Y-47688318D01*
X75129232Y-47704204D01*
X75106358Y-47717914D01*
X75082252Y-47729315D01*
X75057143Y-47738299D01*
X75031275Y-47744779D01*
X75004897Y-47748692D01*
X74978262Y-47750000D01*
X74271738Y-47750000D01*
X74245103Y-47748692D01*
X74218725Y-47744779D01*
X74192857Y-47738299D01*
X74167748Y-47729315D01*
X74143642Y-47717914D01*
X74120768Y-47704204D01*
X74099349Y-47688318D01*
X74079590Y-47670410D01*
X74061682Y-47650651D01*
X74045796Y-47629232D01*
X74032086Y-47606358D01*
X74020685Y-47582252D01*
X74011701Y-47557143D01*
X74005221Y-47531275D01*
X74001308Y-47504897D01*
X74000000Y-47478262D01*
X74000000Y-46521738D01*
X74001308Y-46495103D01*
X74005221Y-46468725D01*
X74011701Y-46442857D01*
X74020685Y-46417748D01*
X74032086Y-46393642D01*
X74045796Y-46370768D01*
X74061682Y-46349349D01*
X74079590Y-46329590D01*
X74099349Y-46311682D01*
X74120768Y-46295796D01*
X74143642Y-46282086D01*
X74167748Y-46270685D01*
X74192857Y-46261701D01*
X74218725Y-46255221D01*
X74245103Y-46251308D01*
X74271738Y-46250000D01*
X74978262Y-46250000D01*
X75004897Y-46251308D01*
X75004897Y-46251308D01*
G37*
D17*
X74625000Y-47000000D03*
G04 #@! TD*
D10*
G04 #@! TO.C,R61*
G36*
X65404897Y-54576308D02*
X65431275Y-54580221D01*
X65457143Y-54586701D01*
X65482252Y-54595685D01*
X65506358Y-54607086D01*
X65529232Y-54620796D01*
X65550651Y-54636682D01*
X65570410Y-54654590D01*
X65588318Y-54674349D01*
X65604204Y-54695768D01*
X65617914Y-54718642D01*
X65629315Y-54742748D01*
X65638299Y-54767857D01*
X65644779Y-54793725D01*
X65648692Y-54820103D01*
X65650000Y-54846738D01*
X65650000Y-55803262D01*
X65648692Y-55829897D01*
X65644779Y-55856275D01*
X65638299Y-55882143D01*
X65629315Y-55907252D01*
X65617914Y-55931358D01*
X65604204Y-55954232D01*
X65588318Y-55975651D01*
X65570410Y-55995410D01*
X65550651Y-56013318D01*
X65529232Y-56029204D01*
X65506358Y-56042914D01*
X65482252Y-56054315D01*
X65457143Y-56063299D01*
X65431275Y-56069779D01*
X65404897Y-56073692D01*
X65378262Y-56075000D01*
X64671738Y-56075000D01*
X64645103Y-56073692D01*
X64618725Y-56069779D01*
X64592857Y-56063299D01*
X64567748Y-56054315D01*
X64543642Y-56042914D01*
X64520768Y-56029204D01*
X64499349Y-56013318D01*
X64479590Y-55995410D01*
X64461682Y-55975651D01*
X64445796Y-55954232D01*
X64432086Y-55931358D01*
X64420685Y-55907252D01*
X64411701Y-55882143D01*
X64405221Y-55856275D01*
X64401308Y-55829897D01*
X64400000Y-55803262D01*
X64400000Y-54846738D01*
X64401308Y-54820103D01*
X64405221Y-54793725D01*
X64411701Y-54767857D01*
X64420685Y-54742748D01*
X64432086Y-54718642D01*
X64445796Y-54695768D01*
X64461682Y-54674349D01*
X64479590Y-54654590D01*
X64499349Y-54636682D01*
X64520768Y-54620796D01*
X64543642Y-54607086D01*
X64567748Y-54595685D01*
X64592857Y-54586701D01*
X64618725Y-54580221D01*
X64645103Y-54576308D01*
X64671738Y-54575000D01*
X65378262Y-54575000D01*
X65404897Y-54576308D01*
X65404897Y-54576308D01*
G37*
D17*
X65025000Y-55325000D03*
D10*
G36*
X63354897Y-54576308D02*
X63381275Y-54580221D01*
X63407143Y-54586701D01*
X63432252Y-54595685D01*
X63456358Y-54607086D01*
X63479232Y-54620796D01*
X63500651Y-54636682D01*
X63520410Y-54654590D01*
X63538318Y-54674349D01*
X63554204Y-54695768D01*
X63567914Y-54718642D01*
X63579315Y-54742748D01*
X63588299Y-54767857D01*
X63594779Y-54793725D01*
X63598692Y-54820103D01*
X63600000Y-54846738D01*
X63600000Y-55803262D01*
X63598692Y-55829897D01*
X63594779Y-55856275D01*
X63588299Y-55882143D01*
X63579315Y-55907252D01*
X63567914Y-55931358D01*
X63554204Y-55954232D01*
X63538318Y-55975651D01*
X63520410Y-55995410D01*
X63500651Y-56013318D01*
X63479232Y-56029204D01*
X63456358Y-56042914D01*
X63432252Y-56054315D01*
X63407143Y-56063299D01*
X63381275Y-56069779D01*
X63354897Y-56073692D01*
X63328262Y-56075000D01*
X62621738Y-56075000D01*
X62595103Y-56073692D01*
X62568725Y-56069779D01*
X62542857Y-56063299D01*
X62517748Y-56054315D01*
X62493642Y-56042914D01*
X62470768Y-56029204D01*
X62449349Y-56013318D01*
X62429590Y-55995410D01*
X62411682Y-55975651D01*
X62395796Y-55954232D01*
X62382086Y-55931358D01*
X62370685Y-55907252D01*
X62361701Y-55882143D01*
X62355221Y-55856275D01*
X62351308Y-55829897D01*
X62350000Y-55803262D01*
X62350000Y-54846738D01*
X62351308Y-54820103D01*
X62355221Y-54793725D01*
X62361701Y-54767857D01*
X62370685Y-54742748D01*
X62382086Y-54718642D01*
X62395796Y-54695768D01*
X62411682Y-54674349D01*
X62429590Y-54654590D01*
X62449349Y-54636682D01*
X62470768Y-54620796D01*
X62493642Y-54607086D01*
X62517748Y-54595685D01*
X62542857Y-54586701D01*
X62568725Y-54580221D01*
X62595103Y-54576308D01*
X62621738Y-54575000D01*
X63328262Y-54575000D01*
X63354897Y-54576308D01*
X63354897Y-54576308D01*
G37*
D17*
X62975000Y-55325000D03*
G04 #@! TD*
D10*
G04 #@! TO.C,R62*
G36*
X63354897Y-52576308D02*
X63381275Y-52580221D01*
X63407143Y-52586701D01*
X63432252Y-52595685D01*
X63456358Y-52607086D01*
X63479232Y-52620796D01*
X63500651Y-52636682D01*
X63520410Y-52654590D01*
X63538318Y-52674349D01*
X63554204Y-52695768D01*
X63567914Y-52718642D01*
X63579315Y-52742748D01*
X63588299Y-52767857D01*
X63594779Y-52793725D01*
X63598692Y-52820103D01*
X63600000Y-52846738D01*
X63600000Y-53803262D01*
X63598692Y-53829897D01*
X63594779Y-53856275D01*
X63588299Y-53882143D01*
X63579315Y-53907252D01*
X63567914Y-53931358D01*
X63554204Y-53954232D01*
X63538318Y-53975651D01*
X63520410Y-53995410D01*
X63500651Y-54013318D01*
X63479232Y-54029204D01*
X63456358Y-54042914D01*
X63432252Y-54054315D01*
X63407143Y-54063299D01*
X63381275Y-54069779D01*
X63354897Y-54073692D01*
X63328262Y-54075000D01*
X62621738Y-54075000D01*
X62595103Y-54073692D01*
X62568725Y-54069779D01*
X62542857Y-54063299D01*
X62517748Y-54054315D01*
X62493642Y-54042914D01*
X62470768Y-54029204D01*
X62449349Y-54013318D01*
X62429590Y-53995410D01*
X62411682Y-53975651D01*
X62395796Y-53954232D01*
X62382086Y-53931358D01*
X62370685Y-53907252D01*
X62361701Y-53882143D01*
X62355221Y-53856275D01*
X62351308Y-53829897D01*
X62350000Y-53803262D01*
X62350000Y-52846738D01*
X62351308Y-52820103D01*
X62355221Y-52793725D01*
X62361701Y-52767857D01*
X62370685Y-52742748D01*
X62382086Y-52718642D01*
X62395796Y-52695768D01*
X62411682Y-52674349D01*
X62429590Y-52654590D01*
X62449349Y-52636682D01*
X62470768Y-52620796D01*
X62493642Y-52607086D01*
X62517748Y-52595685D01*
X62542857Y-52586701D01*
X62568725Y-52580221D01*
X62595103Y-52576308D01*
X62621738Y-52575000D01*
X63328262Y-52575000D01*
X63354897Y-52576308D01*
X63354897Y-52576308D01*
G37*
D17*
X62975000Y-53325000D03*
D10*
G36*
X65404897Y-52576308D02*
X65431275Y-52580221D01*
X65457143Y-52586701D01*
X65482252Y-52595685D01*
X65506358Y-52607086D01*
X65529232Y-52620796D01*
X65550651Y-52636682D01*
X65570410Y-52654590D01*
X65588318Y-52674349D01*
X65604204Y-52695768D01*
X65617914Y-52718642D01*
X65629315Y-52742748D01*
X65638299Y-52767857D01*
X65644779Y-52793725D01*
X65648692Y-52820103D01*
X65650000Y-52846738D01*
X65650000Y-53803262D01*
X65648692Y-53829897D01*
X65644779Y-53856275D01*
X65638299Y-53882143D01*
X65629315Y-53907252D01*
X65617914Y-53931358D01*
X65604204Y-53954232D01*
X65588318Y-53975651D01*
X65570410Y-53995410D01*
X65550651Y-54013318D01*
X65529232Y-54029204D01*
X65506358Y-54042914D01*
X65482252Y-54054315D01*
X65457143Y-54063299D01*
X65431275Y-54069779D01*
X65404897Y-54073692D01*
X65378262Y-54075000D01*
X64671738Y-54075000D01*
X64645103Y-54073692D01*
X64618725Y-54069779D01*
X64592857Y-54063299D01*
X64567748Y-54054315D01*
X64543642Y-54042914D01*
X64520768Y-54029204D01*
X64499349Y-54013318D01*
X64479590Y-53995410D01*
X64461682Y-53975651D01*
X64445796Y-53954232D01*
X64432086Y-53931358D01*
X64420685Y-53907252D01*
X64411701Y-53882143D01*
X64405221Y-53856275D01*
X64401308Y-53829897D01*
X64400000Y-53803262D01*
X64400000Y-52846738D01*
X64401308Y-52820103D01*
X64405221Y-52793725D01*
X64411701Y-52767857D01*
X64420685Y-52742748D01*
X64432086Y-52718642D01*
X64445796Y-52695768D01*
X64461682Y-52674349D01*
X64479590Y-52654590D01*
X64499349Y-52636682D01*
X64520768Y-52620796D01*
X64543642Y-52607086D01*
X64567748Y-52595685D01*
X64592857Y-52586701D01*
X64618725Y-52580221D01*
X64645103Y-52576308D01*
X64671738Y-52575000D01*
X65378262Y-52575000D01*
X65404897Y-52576308D01*
X65404897Y-52576308D01*
G37*
D17*
X65025000Y-53325000D03*
G04 #@! TD*
D10*
G04 #@! TO.C,R63*
G36*
X68204897Y-55751308D02*
X68231275Y-55755221D01*
X68257143Y-55761701D01*
X68282252Y-55770685D01*
X68306358Y-55782086D01*
X68329232Y-55795796D01*
X68350651Y-55811682D01*
X68370410Y-55829590D01*
X68388318Y-55849349D01*
X68404204Y-55870768D01*
X68417914Y-55893642D01*
X68429315Y-55917748D01*
X68438299Y-55942857D01*
X68444779Y-55968725D01*
X68448692Y-55995103D01*
X68450000Y-56021738D01*
X68450000Y-56978262D01*
X68448692Y-57004897D01*
X68444779Y-57031275D01*
X68438299Y-57057143D01*
X68429315Y-57082252D01*
X68417914Y-57106358D01*
X68404204Y-57129232D01*
X68388318Y-57150651D01*
X68370410Y-57170410D01*
X68350651Y-57188318D01*
X68329232Y-57204204D01*
X68306358Y-57217914D01*
X68282252Y-57229315D01*
X68257143Y-57238299D01*
X68231275Y-57244779D01*
X68204897Y-57248692D01*
X68178262Y-57250000D01*
X67471738Y-57250000D01*
X67445103Y-57248692D01*
X67418725Y-57244779D01*
X67392857Y-57238299D01*
X67367748Y-57229315D01*
X67343642Y-57217914D01*
X67320768Y-57204204D01*
X67299349Y-57188318D01*
X67279590Y-57170410D01*
X67261682Y-57150651D01*
X67245796Y-57129232D01*
X67232086Y-57106358D01*
X67220685Y-57082252D01*
X67211701Y-57057143D01*
X67205221Y-57031275D01*
X67201308Y-57004897D01*
X67200000Y-56978262D01*
X67200000Y-56021738D01*
X67201308Y-55995103D01*
X67205221Y-55968725D01*
X67211701Y-55942857D01*
X67220685Y-55917748D01*
X67232086Y-55893642D01*
X67245796Y-55870768D01*
X67261682Y-55849349D01*
X67279590Y-55829590D01*
X67299349Y-55811682D01*
X67320768Y-55795796D01*
X67343642Y-55782086D01*
X67367748Y-55770685D01*
X67392857Y-55761701D01*
X67418725Y-55755221D01*
X67445103Y-55751308D01*
X67471738Y-55750000D01*
X68178262Y-55750000D01*
X68204897Y-55751308D01*
X68204897Y-55751308D01*
G37*
D17*
X67825000Y-56500000D03*
D10*
G36*
X70254897Y-55751308D02*
X70281275Y-55755221D01*
X70307143Y-55761701D01*
X70332252Y-55770685D01*
X70356358Y-55782086D01*
X70379232Y-55795796D01*
X70400651Y-55811682D01*
X70420410Y-55829590D01*
X70438318Y-55849349D01*
X70454204Y-55870768D01*
X70467914Y-55893642D01*
X70479315Y-55917748D01*
X70488299Y-55942857D01*
X70494779Y-55968725D01*
X70498692Y-55995103D01*
X70500000Y-56021738D01*
X70500000Y-56978262D01*
X70498692Y-57004897D01*
X70494779Y-57031275D01*
X70488299Y-57057143D01*
X70479315Y-57082252D01*
X70467914Y-57106358D01*
X70454204Y-57129232D01*
X70438318Y-57150651D01*
X70420410Y-57170410D01*
X70400651Y-57188318D01*
X70379232Y-57204204D01*
X70356358Y-57217914D01*
X70332252Y-57229315D01*
X70307143Y-57238299D01*
X70281275Y-57244779D01*
X70254897Y-57248692D01*
X70228262Y-57250000D01*
X69521738Y-57250000D01*
X69495103Y-57248692D01*
X69468725Y-57244779D01*
X69442857Y-57238299D01*
X69417748Y-57229315D01*
X69393642Y-57217914D01*
X69370768Y-57204204D01*
X69349349Y-57188318D01*
X69329590Y-57170410D01*
X69311682Y-57150651D01*
X69295796Y-57129232D01*
X69282086Y-57106358D01*
X69270685Y-57082252D01*
X69261701Y-57057143D01*
X69255221Y-57031275D01*
X69251308Y-57004897D01*
X69250000Y-56978262D01*
X69250000Y-56021738D01*
X69251308Y-55995103D01*
X69255221Y-55968725D01*
X69261701Y-55942857D01*
X69270685Y-55917748D01*
X69282086Y-55893642D01*
X69295796Y-55870768D01*
X69311682Y-55849349D01*
X69329590Y-55829590D01*
X69349349Y-55811682D01*
X69370768Y-55795796D01*
X69393642Y-55782086D01*
X69417748Y-55770685D01*
X69442857Y-55761701D01*
X69468725Y-55755221D01*
X69495103Y-55751308D01*
X69521738Y-55750000D01*
X70228262Y-55750000D01*
X70254897Y-55751308D01*
X70254897Y-55751308D01*
G37*
D17*
X69875000Y-56500000D03*
G04 #@! TD*
D10*
G04 #@! TO.C,R64*
G36*
X68104897Y-51501308D02*
X68131275Y-51505221D01*
X68157143Y-51511701D01*
X68182252Y-51520685D01*
X68206358Y-51532086D01*
X68229232Y-51545796D01*
X68250651Y-51561682D01*
X68270410Y-51579590D01*
X68288318Y-51599349D01*
X68304204Y-51620768D01*
X68317914Y-51643642D01*
X68329315Y-51667748D01*
X68338299Y-51692857D01*
X68344779Y-51718725D01*
X68348692Y-51745103D01*
X68350000Y-51771738D01*
X68350000Y-52728262D01*
X68348692Y-52754897D01*
X68344779Y-52781275D01*
X68338299Y-52807143D01*
X68329315Y-52832252D01*
X68317914Y-52856358D01*
X68304204Y-52879232D01*
X68288318Y-52900651D01*
X68270410Y-52920410D01*
X68250651Y-52938318D01*
X68229232Y-52954204D01*
X68206358Y-52967914D01*
X68182252Y-52979315D01*
X68157143Y-52988299D01*
X68131275Y-52994779D01*
X68104897Y-52998692D01*
X68078262Y-53000000D01*
X67371738Y-53000000D01*
X67345103Y-52998692D01*
X67318725Y-52994779D01*
X67292857Y-52988299D01*
X67267748Y-52979315D01*
X67243642Y-52967914D01*
X67220768Y-52954204D01*
X67199349Y-52938318D01*
X67179590Y-52920410D01*
X67161682Y-52900651D01*
X67145796Y-52879232D01*
X67132086Y-52856358D01*
X67120685Y-52832252D01*
X67111701Y-52807143D01*
X67105221Y-52781275D01*
X67101308Y-52754897D01*
X67100000Y-52728262D01*
X67100000Y-51771738D01*
X67101308Y-51745103D01*
X67105221Y-51718725D01*
X67111701Y-51692857D01*
X67120685Y-51667748D01*
X67132086Y-51643642D01*
X67145796Y-51620768D01*
X67161682Y-51599349D01*
X67179590Y-51579590D01*
X67199349Y-51561682D01*
X67220768Y-51545796D01*
X67243642Y-51532086D01*
X67267748Y-51520685D01*
X67292857Y-51511701D01*
X67318725Y-51505221D01*
X67345103Y-51501308D01*
X67371738Y-51500000D01*
X68078262Y-51500000D01*
X68104897Y-51501308D01*
X68104897Y-51501308D01*
G37*
D17*
X67725000Y-52250000D03*
D10*
G36*
X70154897Y-51501308D02*
X70181275Y-51505221D01*
X70207143Y-51511701D01*
X70232252Y-51520685D01*
X70256358Y-51532086D01*
X70279232Y-51545796D01*
X70300651Y-51561682D01*
X70320410Y-51579590D01*
X70338318Y-51599349D01*
X70354204Y-51620768D01*
X70367914Y-51643642D01*
X70379315Y-51667748D01*
X70388299Y-51692857D01*
X70394779Y-51718725D01*
X70398692Y-51745103D01*
X70400000Y-51771738D01*
X70400000Y-52728262D01*
X70398692Y-52754897D01*
X70394779Y-52781275D01*
X70388299Y-52807143D01*
X70379315Y-52832252D01*
X70367914Y-52856358D01*
X70354204Y-52879232D01*
X70338318Y-52900651D01*
X70320410Y-52920410D01*
X70300651Y-52938318D01*
X70279232Y-52954204D01*
X70256358Y-52967914D01*
X70232252Y-52979315D01*
X70207143Y-52988299D01*
X70181275Y-52994779D01*
X70154897Y-52998692D01*
X70128262Y-53000000D01*
X69421738Y-53000000D01*
X69395103Y-52998692D01*
X69368725Y-52994779D01*
X69342857Y-52988299D01*
X69317748Y-52979315D01*
X69293642Y-52967914D01*
X69270768Y-52954204D01*
X69249349Y-52938318D01*
X69229590Y-52920410D01*
X69211682Y-52900651D01*
X69195796Y-52879232D01*
X69182086Y-52856358D01*
X69170685Y-52832252D01*
X69161701Y-52807143D01*
X69155221Y-52781275D01*
X69151308Y-52754897D01*
X69150000Y-52728262D01*
X69150000Y-51771738D01*
X69151308Y-51745103D01*
X69155221Y-51718725D01*
X69161701Y-51692857D01*
X69170685Y-51667748D01*
X69182086Y-51643642D01*
X69195796Y-51620768D01*
X69211682Y-51599349D01*
X69229590Y-51579590D01*
X69249349Y-51561682D01*
X69270768Y-51545796D01*
X69293642Y-51532086D01*
X69317748Y-51520685D01*
X69342857Y-51511701D01*
X69368725Y-51505221D01*
X69395103Y-51501308D01*
X69421738Y-51500000D01*
X70128262Y-51500000D01*
X70154897Y-51501308D01*
X70154897Y-51501308D01*
G37*
D17*
X69775000Y-52250000D03*
G04 #@! TD*
D22*
G04 #@! TO.C,RN1*
X98500000Y-70200000D03*
D23*
X96900000Y-70200000D03*
X97700000Y-70200000D03*
D22*
X96100000Y-70200000D03*
D23*
X97700000Y-72000000D03*
D22*
X98500000Y-72000000D03*
D23*
X96900000Y-72000000D03*
D22*
X96100000Y-72000000D03*
G04 #@! TD*
G04 #@! TO.C,RN11*
X78000000Y-66000000D03*
D23*
X76400000Y-66000000D03*
X77200000Y-66000000D03*
D22*
X75600000Y-66000000D03*
D23*
X77200000Y-67800000D03*
D22*
X78000000Y-67800000D03*
D23*
X76400000Y-67800000D03*
D22*
X75600000Y-67800000D03*
G04 #@! TD*
G04 #@! TO.C,RN12*
X82200000Y-66000000D03*
D23*
X81400000Y-66000000D03*
D22*
X79800000Y-66000000D03*
D23*
X80600000Y-66000000D03*
D22*
X82200000Y-67800000D03*
D23*
X80600000Y-67800000D03*
X81400000Y-67800000D03*
D22*
X79800000Y-67800000D03*
G04 #@! TD*
D24*
G04 #@! TO.C,SW11*
X107500000Y-48000000D03*
X107500000Y-52500000D03*
X101000000Y-48000000D03*
X101000000Y-52500000D03*
G04 #@! TD*
G04 #@! TO.C,SW12*
X101000000Y-72500000D03*
X101000000Y-68000000D03*
X107500000Y-72500000D03*
X107500000Y-68000000D03*
G04 #@! TD*
D25*
G04 #@! TO.C,U1*
X84000000Y-57500000D03*
X84000000Y-57000000D03*
X84000000Y-56500000D03*
X84000000Y-56000000D03*
X84000000Y-55500000D03*
X84000000Y-55000000D03*
X84000000Y-54500000D03*
X84000000Y-54000000D03*
X84000000Y-53500000D03*
X84000000Y-53000000D03*
X84000000Y-52500000D03*
X84000000Y-52000000D03*
D26*
X82400000Y-50400000D03*
X81900000Y-50400000D03*
X81400000Y-50400000D03*
X80900000Y-50400000D03*
X80400000Y-50400000D03*
X79900000Y-50400000D03*
X79400000Y-50400000D03*
X78900000Y-50400000D03*
X78400000Y-50400000D03*
X77900000Y-50400000D03*
X77400000Y-50400000D03*
X76900000Y-50400000D03*
D25*
X75300000Y-52000000D03*
X75300000Y-52500000D03*
X75300000Y-53000000D03*
X75300000Y-53500000D03*
X75300000Y-54000000D03*
X75300000Y-54500000D03*
X75300000Y-55000000D03*
X75300000Y-55500000D03*
X75300000Y-56000000D03*
X75300000Y-56500000D03*
X75300000Y-57000000D03*
X75300000Y-57500000D03*
D26*
X76900000Y-59100000D03*
X77400000Y-59100000D03*
X77900000Y-59100000D03*
X78400000Y-59100000D03*
X78900000Y-59100000D03*
X79400000Y-59100000D03*
X79900000Y-59100000D03*
X80400000Y-59100000D03*
X80900000Y-59100000D03*
X81400000Y-59100000D03*
X81900000Y-59100000D03*
X82400000Y-59100000D03*
G04 #@! TD*
D27*
G04 #@! TO.C,U2*
X55500000Y-44800000D03*
X54550000Y-44800000D03*
X53600000Y-44800000D03*
X53600000Y-47500000D03*
X55500000Y-47500000D03*
G04 #@! TD*
D28*
G04 #@! TO.C,U3*
X67650000Y-69050000D03*
X67650000Y-70000000D03*
X67650000Y-70950000D03*
X70350000Y-70950000D03*
X70350000Y-69050000D03*
G04 #@! TD*
G04 #@! TO.C,U4*
X91000000Y-79100000D03*
X91000000Y-81000000D03*
X88300000Y-81000000D03*
X88300000Y-80050000D03*
X88300000Y-79100000D03*
G04 #@! TD*
D29*
G04 #@! TO.C,U5*
X62380000Y-42000000D03*
D30*
X64920000Y-42000000D03*
X67460000Y-42000000D03*
X70000000Y-42000000D03*
X72540000Y-42000000D03*
X75080000Y-42000000D03*
X77620000Y-42000000D03*
G04 #@! TD*
D15*
G04 #@! TO.C,Y11*
X93000000Y-47520000D03*
X93000000Y-52400000D03*
G04 #@! TD*
D29*
G04 #@! TO.C,J13*
X61000000Y-70540000D03*
D30*
X61000000Y-68000000D03*
X61000000Y-65460000D03*
X61000000Y-62920000D03*
G04 #@! TD*
D29*
G04 #@! TO.C,J21*
X53960000Y-42000000D03*
D30*
X56500000Y-42000000D03*
G04 #@! TD*
D31*
G04 #@! TO.C,J11*
X60000000Y-75000000D03*
D32*
X60000000Y-76270000D03*
X58730000Y-75000000D03*
X58730000Y-76270000D03*
X57460000Y-75000000D03*
X57460000Y-76270000D03*
X56190000Y-75000000D03*
X56190000Y-76270000D03*
X54920000Y-75000000D03*
X54920000Y-76270000D03*
G04 #@! TD*
G04 #@! TO.C,J12*
X72920000Y-76270000D03*
X72920000Y-75000000D03*
X74190000Y-76270000D03*
X74190000Y-75000000D03*
X75460000Y-76270000D03*
X75460000Y-75000000D03*
X76730000Y-76270000D03*
X76730000Y-75000000D03*
X78000000Y-76270000D03*
D31*
X78000000Y-75000000D03*
G04 #@! TD*
M02*
