G04 #@! TF.GenerationSoftware,KiCad,Pcbnew,(5.0.0)*
G04 #@! TF.CreationDate,2019-01-23T14:37:11-05:00*
G04 #@! TF.ProjectId,Project 23,50726F6A6563742032332E6B69636164,V 0.7*
G04 #@! TF.SameCoordinates,Original*
G04 #@! TF.FileFunction,Soldermask,Top*
G04 #@! TF.FilePolarity,Negative*
%FSLAX46Y46*%
G04 Gerber Fmt 4.6, Leading zero omitted, Abs format (unit mm)*
G04 Created by KiCad (PCBNEW (5.0.0)) date 01/23/19 14:37:11*
%MOMM*%
%LPD*%
G01*
G04 APERTURE LIST*
%ADD10C,0.100000*%
G04 APERTURE END LIST*
D10*
X55500000Y-51050000D02*
X50000000Y-51050000D01*
X55500000Y-58950000D02*
X55500000Y-51050000D01*
X50000000Y-58950000D02*
X55500000Y-58950000D01*
X50000000Y-58950000D02*
X50000000Y-82000000D01*
X112000000Y-40000000D02*
X50000000Y-40000000D01*
X112000000Y-82000000D02*
X112000000Y-40000000D01*
X50000000Y-82000000D02*
X112000000Y-82000000D01*
X50000000Y-40000000D02*
X50000000Y-51050000D01*
G36*
X97616024Y-79915457D02*
X97653635Y-79926866D01*
X97688299Y-79945394D01*
X97718676Y-79970324D01*
X97743606Y-80000701D01*
X97762134Y-80035365D01*
X97773543Y-80072976D01*
X97778000Y-80118227D01*
X97778000Y-80953773D01*
X97773543Y-80999024D01*
X97762134Y-81036635D01*
X97743606Y-81071299D01*
X97718676Y-81101676D01*
X97688299Y-81126606D01*
X97653635Y-81145134D01*
X97616024Y-81156543D01*
X97570773Y-81161000D01*
X96485227Y-81161000D01*
X96439976Y-81156543D01*
X96402365Y-81145134D01*
X96367701Y-81126606D01*
X96337324Y-81101676D01*
X96312394Y-81071299D01*
X96293866Y-81036635D01*
X96282457Y-80999024D01*
X96278000Y-80953773D01*
X96278000Y-80118227D01*
X96282457Y-80072976D01*
X96293866Y-80035365D01*
X96312394Y-80000701D01*
X96337324Y-79970324D01*
X96367701Y-79945394D01*
X96402365Y-79926866D01*
X96439976Y-79915457D01*
X96485227Y-79911000D01*
X97570773Y-79911000D01*
X97616024Y-79915457D01*
X97616024Y-79915457D01*
G37*
G36*
X103204024Y-79906457D02*
X103241635Y-79917866D01*
X103276299Y-79936394D01*
X103306676Y-79961324D01*
X103331606Y-79991701D01*
X103350134Y-80026365D01*
X103361543Y-80063976D01*
X103366000Y-80109227D01*
X103366000Y-80944773D01*
X103361543Y-80990024D01*
X103350134Y-81027635D01*
X103331606Y-81062299D01*
X103306676Y-81092676D01*
X103276299Y-81117606D01*
X103241635Y-81136134D01*
X103204024Y-81147543D01*
X103158773Y-81152000D01*
X102073227Y-81152000D01*
X102027976Y-81147543D01*
X101990365Y-81136134D01*
X101955701Y-81117606D01*
X101925324Y-81092676D01*
X101900394Y-81062299D01*
X101881866Y-81027635D01*
X101870457Y-80990024D01*
X101866000Y-80944773D01*
X101866000Y-80109227D01*
X101870457Y-80063976D01*
X101881866Y-80026365D01*
X101900394Y-79991701D01*
X101925324Y-79961324D01*
X101955701Y-79936394D01*
X101990365Y-79917866D01*
X102027976Y-79906457D01*
X102073227Y-79902000D01*
X103158773Y-79902000D01*
X103204024Y-79906457D01*
X103204024Y-79906457D01*
G37*
G36*
X67335443Y-78894194D02*
X67544728Y-78980883D01*
X67733085Y-79106739D01*
X67893261Y-79266915D01*
X68019117Y-79455272D01*
X68105806Y-79664557D01*
X68150000Y-79886734D01*
X68150000Y-80113266D01*
X68105806Y-80335443D01*
X68019117Y-80544728D01*
X67893261Y-80733085D01*
X67733085Y-80893261D01*
X67544728Y-81019117D01*
X67335443Y-81105806D01*
X67113266Y-81150000D01*
X66886734Y-81150000D01*
X66664557Y-81105806D01*
X66455272Y-81019117D01*
X66266915Y-80893261D01*
X66106739Y-80733085D01*
X65980883Y-80544728D01*
X65894194Y-80335443D01*
X65850000Y-80113266D01*
X65850000Y-79886734D01*
X65894194Y-79664557D01*
X65980883Y-79455272D01*
X66106739Y-79266915D01*
X66266915Y-79106739D01*
X66455272Y-78980883D01*
X66664557Y-78894194D01*
X66886734Y-78850000D01*
X67113266Y-78850000D01*
X67335443Y-78894194D01*
X67335443Y-78894194D01*
G37*
G36*
X100410024Y-79897457D02*
X100447635Y-79908866D01*
X100482299Y-79927394D01*
X100512676Y-79952324D01*
X100537606Y-79982701D01*
X100556134Y-80017365D01*
X100567543Y-80054976D01*
X100572000Y-80100227D01*
X100572000Y-80935773D01*
X100567543Y-80981024D01*
X100556134Y-81018635D01*
X100537606Y-81053299D01*
X100512676Y-81083676D01*
X100482299Y-81108606D01*
X100447635Y-81127134D01*
X100410024Y-81138543D01*
X100364773Y-81143000D01*
X99279227Y-81143000D01*
X99233976Y-81138543D01*
X99196365Y-81127134D01*
X99161701Y-81108606D01*
X99131324Y-81083676D01*
X99106394Y-81053299D01*
X99087866Y-81018635D01*
X99076457Y-80981024D01*
X99072000Y-80935773D01*
X99072000Y-80100227D01*
X99076457Y-80054976D01*
X99087866Y-80017365D01*
X99106394Y-79982701D01*
X99131324Y-79952324D01*
X99161701Y-79927394D01*
X99196365Y-79908866D01*
X99233976Y-79897457D01*
X99279227Y-79893000D01*
X100364773Y-79893000D01*
X100410024Y-79897457D01*
X100410024Y-79897457D01*
G37*
G36*
X110335443Y-78144194D02*
X110544728Y-78230883D01*
X110733085Y-78356739D01*
X110893261Y-78516915D01*
X111019117Y-78705272D01*
X111105806Y-78914557D01*
X111150000Y-79136734D01*
X111150000Y-79363266D01*
X111105806Y-79585443D01*
X111019117Y-79794728D01*
X110893261Y-79983085D01*
X110733085Y-80143261D01*
X110544728Y-80269117D01*
X110335443Y-80355806D01*
X110113266Y-80400000D01*
X109886734Y-80400000D01*
X109664557Y-80355806D01*
X109455272Y-80269117D01*
X109266915Y-80143261D01*
X109106739Y-79983085D01*
X108980883Y-79794728D01*
X108894194Y-79585443D01*
X108850000Y-79363266D01*
X108850000Y-79136734D01*
X108894194Y-78914557D01*
X108980883Y-78705272D01*
X109106739Y-78516915D01*
X109266915Y-78356739D01*
X109455272Y-78230883D01*
X109664557Y-78144194D01*
X109886734Y-78100000D01*
X110113266Y-78100000D01*
X110335443Y-78144194D01*
X110335443Y-78144194D01*
G37*
G36*
X93637344Y-77779175D02*
X93672198Y-77789748D01*
X93704322Y-77806919D01*
X93732476Y-77830024D01*
X93755581Y-77858178D01*
X93772752Y-77890302D01*
X93783325Y-77925156D01*
X93787500Y-77967545D01*
X93787500Y-79432455D01*
X93783325Y-79474844D01*
X93772752Y-79509698D01*
X93755581Y-79541822D01*
X93732476Y-79569976D01*
X93704322Y-79593081D01*
X93672198Y-79610252D01*
X93637344Y-79620825D01*
X93594955Y-79625000D01*
X92455045Y-79625000D01*
X92412656Y-79620825D01*
X92377802Y-79610252D01*
X92345678Y-79593081D01*
X92317524Y-79569976D01*
X92294419Y-79541822D01*
X92277248Y-79509698D01*
X92266675Y-79474844D01*
X92262500Y-79432455D01*
X92262500Y-77967545D01*
X92266675Y-77925156D01*
X92277248Y-77890302D01*
X92294419Y-77858178D01*
X92317524Y-77830024D01*
X92345678Y-77806919D01*
X92377802Y-77789748D01*
X92412656Y-77779175D01*
X92455045Y-77775000D01*
X93594955Y-77775000D01*
X93637344Y-77779175D01*
X93637344Y-77779175D01*
G37*
G36*
X90662344Y-77779175D02*
X90697198Y-77789748D01*
X90729322Y-77806919D01*
X90757476Y-77830024D01*
X90780581Y-77858178D01*
X90797752Y-77890302D01*
X90808325Y-77925156D01*
X90812500Y-77967545D01*
X90812500Y-79432455D01*
X90808325Y-79474844D01*
X90797752Y-79509698D01*
X90780581Y-79541822D01*
X90757476Y-79569976D01*
X90729322Y-79593081D01*
X90697198Y-79610252D01*
X90662344Y-79620825D01*
X90619955Y-79625000D01*
X89480045Y-79625000D01*
X89437656Y-79620825D01*
X89402802Y-79610252D01*
X89370678Y-79593081D01*
X89342524Y-79569976D01*
X89319419Y-79541822D01*
X89302248Y-79509698D01*
X89291675Y-79474844D01*
X89287500Y-79432455D01*
X89287500Y-77967545D01*
X89291675Y-77925156D01*
X89302248Y-77890302D01*
X89319419Y-77858178D01*
X89342524Y-77830024D01*
X89370678Y-77806919D01*
X89402802Y-77789748D01*
X89437656Y-77779175D01*
X89480045Y-77775000D01*
X90619955Y-77775000D01*
X90662344Y-77779175D01*
X90662344Y-77779175D01*
G37*
G36*
X97616024Y-77865457D02*
X97653635Y-77876866D01*
X97688299Y-77895394D01*
X97718676Y-77920324D01*
X97743606Y-77950701D01*
X97762134Y-77985365D01*
X97773543Y-78022976D01*
X97778000Y-78068227D01*
X97778000Y-78903773D01*
X97773543Y-78949024D01*
X97762134Y-78986635D01*
X97743606Y-79021299D01*
X97718676Y-79051676D01*
X97688299Y-79076606D01*
X97653635Y-79095134D01*
X97616024Y-79106543D01*
X97570773Y-79111000D01*
X96485227Y-79111000D01*
X96439976Y-79106543D01*
X96402365Y-79095134D01*
X96367701Y-79076606D01*
X96337324Y-79051676D01*
X96312394Y-79021299D01*
X96293866Y-78986635D01*
X96282457Y-78949024D01*
X96278000Y-78903773D01*
X96278000Y-78068227D01*
X96282457Y-78022976D01*
X96293866Y-77985365D01*
X96312394Y-77950701D01*
X96337324Y-77920324D01*
X96367701Y-77895394D01*
X96402365Y-77876866D01*
X96439976Y-77865457D01*
X96485227Y-77861000D01*
X97570773Y-77861000D01*
X97616024Y-77865457D01*
X97616024Y-77865457D01*
G37*
G36*
X103204024Y-77856457D02*
X103241635Y-77867866D01*
X103276299Y-77886394D01*
X103306676Y-77911324D01*
X103331606Y-77941701D01*
X103350134Y-77976365D01*
X103361543Y-78013976D01*
X103366000Y-78059227D01*
X103366000Y-78894773D01*
X103361543Y-78940024D01*
X103350134Y-78977635D01*
X103331606Y-79012299D01*
X103306676Y-79042676D01*
X103276299Y-79067606D01*
X103241635Y-79086134D01*
X103204024Y-79097543D01*
X103158773Y-79102000D01*
X102073227Y-79102000D01*
X102027976Y-79097543D01*
X101990365Y-79086134D01*
X101955701Y-79067606D01*
X101925324Y-79042676D01*
X101900394Y-79012299D01*
X101881866Y-78977635D01*
X101870457Y-78940024D01*
X101866000Y-78894773D01*
X101866000Y-78059227D01*
X101870457Y-78013976D01*
X101881866Y-77976365D01*
X101900394Y-77941701D01*
X101925324Y-77911324D01*
X101955701Y-77886394D01*
X101990365Y-77867866D01*
X102027976Y-77856457D01*
X102073227Y-77852000D01*
X103158773Y-77852000D01*
X103204024Y-77856457D01*
X103204024Y-77856457D01*
G37*
G36*
X100410024Y-77847457D02*
X100447635Y-77858866D01*
X100482299Y-77877394D01*
X100512676Y-77902324D01*
X100537606Y-77932701D01*
X100556134Y-77967365D01*
X100567543Y-78004976D01*
X100572000Y-78050227D01*
X100572000Y-78885773D01*
X100567543Y-78931024D01*
X100556134Y-78968635D01*
X100537606Y-79003299D01*
X100512676Y-79033676D01*
X100482299Y-79058606D01*
X100447635Y-79077134D01*
X100410024Y-79088543D01*
X100364773Y-79093000D01*
X99279227Y-79093000D01*
X99233976Y-79088543D01*
X99196365Y-79077134D01*
X99161701Y-79058606D01*
X99131324Y-79033676D01*
X99106394Y-79003299D01*
X99087866Y-78968635D01*
X99076457Y-78931024D01*
X99072000Y-78885773D01*
X99072000Y-78050227D01*
X99076457Y-78004976D01*
X99087866Y-77967365D01*
X99106394Y-77932701D01*
X99131324Y-77902324D01*
X99161701Y-77877394D01*
X99196365Y-77858866D01*
X99233976Y-77847457D01*
X99279227Y-77843000D01*
X100364773Y-77843000D01*
X100410024Y-77847457D01*
X100410024Y-77847457D01*
G37*
G36*
X90687344Y-75579175D02*
X90722198Y-75589748D01*
X90754322Y-75606919D01*
X90782476Y-75630024D01*
X90805581Y-75658178D01*
X90822752Y-75690302D01*
X90833325Y-75725156D01*
X90837500Y-75767545D01*
X90837500Y-77232455D01*
X90833325Y-77274844D01*
X90822752Y-77309698D01*
X90805581Y-77341822D01*
X90782476Y-77369976D01*
X90754322Y-77393081D01*
X90722198Y-77410252D01*
X90687344Y-77420825D01*
X90644955Y-77425000D01*
X89505045Y-77425000D01*
X89462656Y-77420825D01*
X89427802Y-77410252D01*
X89395678Y-77393081D01*
X89367524Y-77369976D01*
X89344419Y-77341822D01*
X89327248Y-77309698D01*
X89316675Y-77274844D01*
X89312500Y-77232455D01*
X89312500Y-75767545D01*
X89316675Y-75725156D01*
X89327248Y-75690302D01*
X89344419Y-75658178D01*
X89367524Y-75630024D01*
X89395678Y-75606919D01*
X89427802Y-75589748D01*
X89462656Y-75579175D01*
X89505045Y-75575000D01*
X90644955Y-75575000D01*
X90687344Y-75579175D01*
X90687344Y-75579175D01*
G37*
G36*
X93838024Y-74179457D02*
X93875635Y-74190866D01*
X93910299Y-74209394D01*
X93940676Y-74234324D01*
X93965606Y-74264701D01*
X93984134Y-74299365D01*
X93995543Y-74336976D01*
X94000000Y-74382227D01*
X94000000Y-75217773D01*
X93995543Y-75263024D01*
X93984134Y-75300635D01*
X93965606Y-75335299D01*
X93940676Y-75365676D01*
X93910299Y-75390606D01*
X93875635Y-75409134D01*
X93838024Y-75420543D01*
X93837170Y-75420627D01*
X93813137Y-75425408D01*
X93790498Y-75434786D01*
X93770124Y-75448400D01*
X93752797Y-75465727D01*
X93739183Y-75486102D01*
X93729806Y-75508741D01*
X93725026Y-75532774D01*
X93725026Y-75557279D01*
X93729807Y-75581312D01*
X93739185Y-75603951D01*
X93752798Y-75624325D01*
X93780583Y-75658181D01*
X93797752Y-75690302D01*
X93808325Y-75725156D01*
X93812500Y-75767545D01*
X93812500Y-77232455D01*
X93808325Y-77274844D01*
X93797752Y-77309698D01*
X93780581Y-77341822D01*
X93757476Y-77369976D01*
X93729322Y-77393081D01*
X93697198Y-77410252D01*
X93662344Y-77420825D01*
X93619955Y-77425000D01*
X92480045Y-77425000D01*
X92437656Y-77420825D01*
X92402802Y-77410252D01*
X92370678Y-77393081D01*
X92342524Y-77369976D01*
X92319419Y-77341822D01*
X92302248Y-77309698D01*
X92291675Y-77274844D01*
X92287500Y-77232455D01*
X92287500Y-75767545D01*
X92291675Y-75725156D01*
X92302248Y-75690302D01*
X92319419Y-75658178D01*
X92342524Y-75630024D01*
X92370678Y-75606919D01*
X92402802Y-75589748D01*
X92437656Y-75579175D01*
X92479605Y-75575043D01*
X92503638Y-75570262D01*
X92526277Y-75560884D01*
X92546652Y-75547270D01*
X92563979Y-75529943D01*
X92577592Y-75509568D01*
X92586969Y-75486929D01*
X92591749Y-75462895D01*
X92591749Y-75438391D01*
X92586968Y-75414358D01*
X92577590Y-75391719D01*
X92563977Y-75371346D01*
X92534394Y-75335299D01*
X92515866Y-75300635D01*
X92504457Y-75263024D01*
X92500000Y-75217773D01*
X92500000Y-74382227D01*
X92504457Y-74336976D01*
X92515866Y-74299365D01*
X92534394Y-74264701D01*
X92559324Y-74234324D01*
X92589701Y-74209394D01*
X92624365Y-74190866D01*
X92661976Y-74179457D01*
X92707227Y-74175000D01*
X93792773Y-74175000D01*
X93838024Y-74179457D01*
X93838024Y-74179457D01*
G37*
G36*
X96636930Y-75152688D02*
X96826274Y-75190350D01*
X97017362Y-75269502D01*
X97189336Y-75384411D01*
X97335589Y-75530664D01*
X97450498Y-75702638D01*
X97529650Y-75893726D01*
X97570000Y-76096584D01*
X97570000Y-76303416D01*
X97529650Y-76506274D01*
X97450498Y-76697362D01*
X97335589Y-76869336D01*
X97189336Y-77015589D01*
X97017362Y-77130498D01*
X96826274Y-77209650D01*
X96645888Y-77245530D01*
X96623417Y-77250000D01*
X96416583Y-77250000D01*
X96394112Y-77245530D01*
X96213726Y-77209650D01*
X96022638Y-77130498D01*
X95850664Y-77015589D01*
X95704411Y-76869336D01*
X95589502Y-76697362D01*
X95510350Y-76506274D01*
X95470000Y-76303416D01*
X95470000Y-76096584D01*
X95510350Y-75893726D01*
X95589502Y-75702638D01*
X95704411Y-75530664D01*
X95850664Y-75384411D01*
X96022638Y-75269502D01*
X96213726Y-75190350D01*
X96403070Y-75152688D01*
X96416583Y-75150000D01*
X96623417Y-75150000D01*
X96636930Y-75152688D01*
X96636930Y-75152688D01*
G37*
G36*
X103136930Y-75152688D02*
X103326274Y-75190350D01*
X103517362Y-75269502D01*
X103689336Y-75384411D01*
X103835589Y-75530664D01*
X103950498Y-75702638D01*
X104029650Y-75893726D01*
X104070000Y-76096584D01*
X104070000Y-76303416D01*
X104029650Y-76506274D01*
X103950498Y-76697362D01*
X103835589Y-76869336D01*
X103689336Y-77015589D01*
X103517362Y-77130498D01*
X103326274Y-77209650D01*
X103145888Y-77245530D01*
X103123417Y-77250000D01*
X102916583Y-77250000D01*
X102894112Y-77245530D01*
X102713726Y-77209650D01*
X102522638Y-77130498D01*
X102350664Y-77015589D01*
X102204411Y-76869336D01*
X102089502Y-76697362D01*
X102010350Y-76506274D01*
X101970000Y-76303416D01*
X101970000Y-76096584D01*
X102010350Y-75893726D01*
X102089502Y-75702638D01*
X102204411Y-75530664D01*
X102350664Y-75384411D01*
X102522638Y-75269502D01*
X102713726Y-75190350D01*
X102903070Y-75152688D01*
X102916583Y-75150000D01*
X103123417Y-75150000D01*
X103136930Y-75152688D01*
X103136930Y-75152688D01*
G37*
G36*
X75973952Y-74452653D02*
X76027819Y-74457958D01*
X76070139Y-74470796D01*
X76131498Y-74489409D01*
X76227039Y-74540476D01*
X76310790Y-74609210D01*
X76379524Y-74692961D01*
X76430591Y-74788502D01*
X76435382Y-74804297D01*
X76444759Y-74826936D01*
X76458373Y-74847311D01*
X76475700Y-74864638D01*
X76496075Y-74878252D01*
X76518714Y-74887629D01*
X76542747Y-74892410D01*
X76567251Y-74892410D01*
X76591285Y-74887630D01*
X76613924Y-74878253D01*
X76634299Y-74864639D01*
X76651626Y-74847312D01*
X76665240Y-74826937D01*
X76674618Y-74804297D01*
X76679409Y-74788502D01*
X76730476Y-74692961D01*
X76799210Y-74609210D01*
X76882961Y-74540476D01*
X76978502Y-74489409D01*
X77039861Y-74470796D01*
X77082181Y-74457958D01*
X77136048Y-74452653D01*
X77162981Y-74450000D01*
X77217019Y-74450000D01*
X77243952Y-74452653D01*
X77297819Y-74457958D01*
X77340139Y-74470796D01*
X77401498Y-74489409D01*
X77497039Y-74540476D01*
X77580790Y-74609210D01*
X77649524Y-74692961D01*
X77700591Y-74788502D01*
X77705382Y-74804297D01*
X77714759Y-74826936D01*
X77728373Y-74847311D01*
X77745700Y-74864638D01*
X77766075Y-74878252D01*
X77788714Y-74887629D01*
X77812747Y-74892410D01*
X77837251Y-74892410D01*
X77861285Y-74887630D01*
X77883924Y-74878253D01*
X77904299Y-74864639D01*
X77921626Y-74847312D01*
X77935240Y-74826937D01*
X77944618Y-74804297D01*
X77949409Y-74788502D01*
X78000476Y-74692961D01*
X78069210Y-74609210D01*
X78152961Y-74540476D01*
X78248502Y-74489409D01*
X78309861Y-74470796D01*
X78352181Y-74457958D01*
X78406048Y-74452653D01*
X78432981Y-74450000D01*
X78487019Y-74450000D01*
X78513952Y-74452653D01*
X78567819Y-74457958D01*
X78610139Y-74470796D01*
X78671498Y-74489409D01*
X78767039Y-74540476D01*
X78850790Y-74609210D01*
X78919524Y-74692961D01*
X78970591Y-74788502D01*
X78975382Y-74804297D01*
X78984759Y-74826936D01*
X78998373Y-74847311D01*
X79015700Y-74864638D01*
X79036075Y-74878252D01*
X79058714Y-74887629D01*
X79082747Y-74892410D01*
X79107251Y-74892410D01*
X79131285Y-74887630D01*
X79153924Y-74878253D01*
X79174299Y-74864639D01*
X79191626Y-74847312D01*
X79205240Y-74826937D01*
X79214618Y-74804297D01*
X79219409Y-74788502D01*
X79270476Y-74692961D01*
X79339210Y-74609210D01*
X79422961Y-74540476D01*
X79518502Y-74489409D01*
X79579861Y-74470796D01*
X79622181Y-74457958D01*
X79676048Y-74452653D01*
X79702981Y-74450000D01*
X79757019Y-74450000D01*
X79783952Y-74452653D01*
X79837819Y-74457958D01*
X79880139Y-74470796D01*
X79941498Y-74489409D01*
X80037039Y-74540476D01*
X80120790Y-74609210D01*
X80189524Y-74692961D01*
X80214760Y-74740176D01*
X80228373Y-74760551D01*
X80245700Y-74777878D01*
X80266075Y-74791492D01*
X80288714Y-74800869D01*
X80312747Y-74805650D01*
X80337252Y-74805650D01*
X80361285Y-74800870D01*
X80383924Y-74791492D01*
X80404299Y-74777879D01*
X80421626Y-74760552D01*
X80435240Y-74740177D01*
X80444617Y-74717538D01*
X80449398Y-74693505D01*
X80450000Y-74681252D01*
X80450000Y-74450000D01*
X81550000Y-74450000D01*
X81550000Y-75550000D01*
X81318748Y-75550000D01*
X81294362Y-75552402D01*
X81270913Y-75559515D01*
X81249302Y-75571066D01*
X81230360Y-75586612D01*
X81214814Y-75605554D01*
X81203263Y-75627165D01*
X81196150Y-75650614D01*
X81193748Y-75675000D01*
X81196150Y-75699386D01*
X81203263Y-75722835D01*
X81214814Y-75744446D01*
X81230360Y-75763388D01*
X81249302Y-75778934D01*
X81259824Y-75785240D01*
X81307039Y-75810476D01*
X81390790Y-75879210D01*
X81459524Y-75962961D01*
X81510591Y-76058502D01*
X81510592Y-76058506D01*
X81542042Y-76162181D01*
X81552661Y-76270000D01*
X81542042Y-76377819D01*
X81522250Y-76443063D01*
X81510591Y-76481498D01*
X81459524Y-76577039D01*
X81390790Y-76660790D01*
X81307039Y-76729524D01*
X81211498Y-76780591D01*
X81184518Y-76788775D01*
X81107819Y-76812042D01*
X81053952Y-76817347D01*
X81027019Y-76820000D01*
X80972981Y-76820000D01*
X80946048Y-76817347D01*
X80892181Y-76812042D01*
X80815482Y-76788775D01*
X80788502Y-76780591D01*
X80692961Y-76729524D01*
X80609210Y-76660790D01*
X80540476Y-76577039D01*
X80489409Y-76481498D01*
X80484618Y-76465703D01*
X80475241Y-76443064D01*
X80461627Y-76422689D01*
X80444300Y-76405362D01*
X80423925Y-76391748D01*
X80401286Y-76382371D01*
X80377253Y-76377590D01*
X80352749Y-76377590D01*
X80328715Y-76382370D01*
X80306076Y-76391747D01*
X80285701Y-76405361D01*
X80268374Y-76422688D01*
X80254760Y-76443063D01*
X80245382Y-76465703D01*
X80240591Y-76481498D01*
X80189524Y-76577039D01*
X80120790Y-76660790D01*
X80037039Y-76729524D01*
X79941498Y-76780591D01*
X79914518Y-76788775D01*
X79837819Y-76812042D01*
X79783952Y-76817347D01*
X79757019Y-76820000D01*
X79702981Y-76820000D01*
X79676048Y-76817347D01*
X79622181Y-76812042D01*
X79545482Y-76788775D01*
X79518502Y-76780591D01*
X79422961Y-76729524D01*
X79339210Y-76660790D01*
X79270476Y-76577039D01*
X79219409Y-76481498D01*
X79214618Y-76465703D01*
X79205241Y-76443064D01*
X79191627Y-76422689D01*
X79174300Y-76405362D01*
X79153925Y-76391748D01*
X79131286Y-76382371D01*
X79107253Y-76377590D01*
X79082749Y-76377590D01*
X79058715Y-76382370D01*
X79036076Y-76391747D01*
X79015701Y-76405361D01*
X78998374Y-76422688D01*
X78984760Y-76443063D01*
X78975382Y-76465703D01*
X78970591Y-76481498D01*
X78919524Y-76577039D01*
X78850790Y-76660790D01*
X78767039Y-76729524D01*
X78671498Y-76780591D01*
X78644518Y-76788775D01*
X78567819Y-76812042D01*
X78513952Y-76817347D01*
X78487019Y-76820000D01*
X78432981Y-76820000D01*
X78406048Y-76817347D01*
X78352181Y-76812042D01*
X78275482Y-76788775D01*
X78248502Y-76780591D01*
X78152961Y-76729524D01*
X78069210Y-76660790D01*
X78000476Y-76577039D01*
X77949409Y-76481498D01*
X77944618Y-76465703D01*
X77935241Y-76443064D01*
X77921627Y-76422689D01*
X77904300Y-76405362D01*
X77883925Y-76391748D01*
X77861286Y-76382371D01*
X77837253Y-76377590D01*
X77812749Y-76377590D01*
X77788715Y-76382370D01*
X77766076Y-76391747D01*
X77745701Y-76405361D01*
X77728374Y-76422688D01*
X77714760Y-76443063D01*
X77705382Y-76465703D01*
X77700591Y-76481498D01*
X77649524Y-76577039D01*
X77580790Y-76660790D01*
X77497039Y-76729524D01*
X77401498Y-76780591D01*
X77374518Y-76788775D01*
X77297819Y-76812042D01*
X77243952Y-76817347D01*
X77217019Y-76820000D01*
X77162981Y-76820000D01*
X77136048Y-76817347D01*
X77082181Y-76812042D01*
X77005482Y-76788775D01*
X76978502Y-76780591D01*
X76882961Y-76729524D01*
X76799210Y-76660790D01*
X76730476Y-76577039D01*
X76679409Y-76481498D01*
X76674618Y-76465703D01*
X76665241Y-76443064D01*
X76651627Y-76422689D01*
X76634300Y-76405362D01*
X76613925Y-76391748D01*
X76591286Y-76382371D01*
X76567253Y-76377590D01*
X76542749Y-76377590D01*
X76518715Y-76382370D01*
X76496076Y-76391747D01*
X76475701Y-76405361D01*
X76458374Y-76422688D01*
X76444760Y-76443063D01*
X76435382Y-76465703D01*
X76430591Y-76481498D01*
X76379524Y-76577039D01*
X76310790Y-76660790D01*
X76227039Y-76729524D01*
X76131498Y-76780591D01*
X76104518Y-76788775D01*
X76027819Y-76812042D01*
X75973952Y-76817347D01*
X75947019Y-76820000D01*
X75892981Y-76820000D01*
X75866048Y-76817347D01*
X75812181Y-76812042D01*
X75735482Y-76788775D01*
X75708502Y-76780591D01*
X75612961Y-76729524D01*
X75529210Y-76660790D01*
X75460476Y-76577039D01*
X75409409Y-76481498D01*
X75397750Y-76443063D01*
X75377958Y-76377819D01*
X75367339Y-76270000D01*
X75377958Y-76162181D01*
X75409408Y-76058506D01*
X75409409Y-76058502D01*
X75460476Y-75962961D01*
X75529210Y-75879210D01*
X75612961Y-75810476D01*
X75708502Y-75759409D01*
X75716128Y-75757096D01*
X75724299Y-75754617D01*
X75746936Y-75745241D01*
X75767311Y-75731627D01*
X75784638Y-75714300D01*
X75798252Y-75693925D01*
X75807629Y-75671286D01*
X75812410Y-75647253D01*
X75812410Y-75622749D01*
X75812410Y-75622747D01*
X76027590Y-75622747D01*
X76027590Y-75647251D01*
X76032370Y-75671285D01*
X76041747Y-75693924D01*
X76055361Y-75714299D01*
X76072688Y-75731626D01*
X76093063Y-75745240D01*
X76115701Y-75754617D01*
X76123872Y-75757096D01*
X76131498Y-75759409D01*
X76227039Y-75810476D01*
X76310790Y-75879210D01*
X76379524Y-75962961D01*
X76430591Y-76058502D01*
X76435382Y-76074297D01*
X76444759Y-76096936D01*
X76458373Y-76117311D01*
X76475700Y-76134638D01*
X76496075Y-76148252D01*
X76518714Y-76157629D01*
X76542747Y-76162410D01*
X76567251Y-76162410D01*
X76591285Y-76157630D01*
X76613924Y-76148253D01*
X76634299Y-76134639D01*
X76651626Y-76117312D01*
X76665240Y-76096937D01*
X76674618Y-76074297D01*
X76679409Y-76058502D01*
X76730476Y-75962961D01*
X76799210Y-75879210D01*
X76882961Y-75810476D01*
X76978502Y-75759409D01*
X76986128Y-75757096D01*
X76994299Y-75754617D01*
X77016936Y-75745241D01*
X77037311Y-75731627D01*
X77054638Y-75714300D01*
X77068252Y-75693925D01*
X77077629Y-75671286D01*
X77082410Y-75647253D01*
X77082410Y-75622749D01*
X77082410Y-75622747D01*
X77297590Y-75622747D01*
X77297590Y-75647251D01*
X77302370Y-75671285D01*
X77311747Y-75693924D01*
X77325361Y-75714299D01*
X77342688Y-75731626D01*
X77363063Y-75745240D01*
X77385701Y-75754617D01*
X77393872Y-75757096D01*
X77401498Y-75759409D01*
X77497039Y-75810476D01*
X77580790Y-75879210D01*
X77649524Y-75962961D01*
X77700591Y-76058502D01*
X77705382Y-76074297D01*
X77714759Y-76096936D01*
X77728373Y-76117311D01*
X77745700Y-76134638D01*
X77766075Y-76148252D01*
X77788714Y-76157629D01*
X77812747Y-76162410D01*
X77837251Y-76162410D01*
X77861285Y-76157630D01*
X77883924Y-76148253D01*
X77904299Y-76134639D01*
X77921626Y-76117312D01*
X77935240Y-76096937D01*
X77944618Y-76074297D01*
X77949409Y-76058502D01*
X78000476Y-75962961D01*
X78069210Y-75879210D01*
X78152961Y-75810476D01*
X78248502Y-75759409D01*
X78256128Y-75757096D01*
X78264299Y-75754617D01*
X78286936Y-75745241D01*
X78307311Y-75731627D01*
X78324638Y-75714300D01*
X78338252Y-75693925D01*
X78347629Y-75671286D01*
X78352410Y-75647253D01*
X78352410Y-75622749D01*
X78352410Y-75622747D01*
X78567590Y-75622747D01*
X78567590Y-75647251D01*
X78572370Y-75671285D01*
X78581747Y-75693924D01*
X78595361Y-75714299D01*
X78612688Y-75731626D01*
X78633063Y-75745240D01*
X78655701Y-75754617D01*
X78663872Y-75757096D01*
X78671498Y-75759409D01*
X78767039Y-75810476D01*
X78850790Y-75879210D01*
X78919524Y-75962961D01*
X78970591Y-76058502D01*
X78975382Y-76074297D01*
X78984759Y-76096936D01*
X78998373Y-76117311D01*
X79015700Y-76134638D01*
X79036075Y-76148252D01*
X79058714Y-76157629D01*
X79082747Y-76162410D01*
X79107251Y-76162410D01*
X79131285Y-76157630D01*
X79153924Y-76148253D01*
X79174299Y-76134639D01*
X79191626Y-76117312D01*
X79205240Y-76096937D01*
X79214618Y-76074297D01*
X79219409Y-76058502D01*
X79270476Y-75962961D01*
X79339210Y-75879210D01*
X79422961Y-75810476D01*
X79518502Y-75759409D01*
X79526128Y-75757096D01*
X79534299Y-75754617D01*
X79556936Y-75745241D01*
X79577311Y-75731627D01*
X79594638Y-75714300D01*
X79608252Y-75693925D01*
X79617629Y-75671286D01*
X79622410Y-75647253D01*
X79622410Y-75622749D01*
X79622410Y-75622747D01*
X79837590Y-75622747D01*
X79837590Y-75647251D01*
X79842370Y-75671285D01*
X79851747Y-75693924D01*
X79865361Y-75714299D01*
X79882688Y-75731626D01*
X79903063Y-75745240D01*
X79925701Y-75754617D01*
X79933872Y-75757096D01*
X79941498Y-75759409D01*
X80037039Y-75810476D01*
X80120790Y-75879210D01*
X80189524Y-75962961D01*
X80240591Y-76058502D01*
X80245382Y-76074297D01*
X80254759Y-76096936D01*
X80268373Y-76117311D01*
X80285700Y-76134638D01*
X80306075Y-76148252D01*
X80328714Y-76157629D01*
X80352747Y-76162410D01*
X80377251Y-76162410D01*
X80401285Y-76157630D01*
X80423924Y-76148253D01*
X80444299Y-76134639D01*
X80461626Y-76117312D01*
X80475240Y-76096937D01*
X80484618Y-76074297D01*
X80489409Y-76058502D01*
X80540476Y-75962961D01*
X80609210Y-75879210D01*
X80692961Y-75810476D01*
X80740176Y-75785240D01*
X80760551Y-75771627D01*
X80777878Y-75754300D01*
X80791492Y-75733925D01*
X80800869Y-75711286D01*
X80805650Y-75687253D01*
X80805650Y-75662748D01*
X80800870Y-75638715D01*
X80791492Y-75616076D01*
X80777879Y-75595701D01*
X80760552Y-75578374D01*
X80740177Y-75564760D01*
X80717538Y-75555383D01*
X80693505Y-75550602D01*
X80681252Y-75550000D01*
X80450000Y-75550000D01*
X80450000Y-75318748D01*
X80447598Y-75294362D01*
X80440485Y-75270913D01*
X80428934Y-75249302D01*
X80413388Y-75230360D01*
X80394446Y-75214814D01*
X80372835Y-75203263D01*
X80349386Y-75196150D01*
X80325000Y-75193748D01*
X80300614Y-75196150D01*
X80277165Y-75203263D01*
X80255554Y-75214814D01*
X80236612Y-75230360D01*
X80221066Y-75249302D01*
X80214760Y-75259824D01*
X80189524Y-75307039D01*
X80120790Y-75390790D01*
X80037039Y-75459524D01*
X79941498Y-75510591D01*
X79933872Y-75512904D01*
X79925701Y-75515383D01*
X79903064Y-75524759D01*
X79882689Y-75538373D01*
X79865362Y-75555700D01*
X79851748Y-75576075D01*
X79842371Y-75598714D01*
X79837590Y-75622747D01*
X79622410Y-75622747D01*
X79617630Y-75598715D01*
X79608253Y-75576076D01*
X79594639Y-75555701D01*
X79577312Y-75538374D01*
X79556937Y-75524760D01*
X79534299Y-75515383D01*
X79526128Y-75512904D01*
X79518502Y-75510591D01*
X79422961Y-75459524D01*
X79339210Y-75390790D01*
X79270476Y-75307039D01*
X79219409Y-75211498D01*
X79216911Y-75203263D01*
X79214617Y-75195701D01*
X79205241Y-75173064D01*
X79191627Y-75152689D01*
X79174300Y-75135362D01*
X79153925Y-75121748D01*
X79131286Y-75112371D01*
X79107253Y-75107590D01*
X79082749Y-75107590D01*
X79058715Y-75112370D01*
X79036076Y-75121747D01*
X79015701Y-75135361D01*
X78998374Y-75152688D01*
X78984760Y-75173063D01*
X78975383Y-75195701D01*
X78973089Y-75203263D01*
X78970591Y-75211498D01*
X78919524Y-75307039D01*
X78850790Y-75390790D01*
X78767039Y-75459524D01*
X78671498Y-75510591D01*
X78663872Y-75512904D01*
X78655701Y-75515383D01*
X78633064Y-75524759D01*
X78612689Y-75538373D01*
X78595362Y-75555700D01*
X78581748Y-75576075D01*
X78572371Y-75598714D01*
X78567590Y-75622747D01*
X78352410Y-75622747D01*
X78347630Y-75598715D01*
X78338253Y-75576076D01*
X78324639Y-75555701D01*
X78307312Y-75538374D01*
X78286937Y-75524760D01*
X78264299Y-75515383D01*
X78256128Y-75512904D01*
X78248502Y-75510591D01*
X78152961Y-75459524D01*
X78069210Y-75390790D01*
X78000476Y-75307039D01*
X77949409Y-75211498D01*
X77946911Y-75203263D01*
X77944617Y-75195701D01*
X77935241Y-75173064D01*
X77921627Y-75152689D01*
X77904300Y-75135362D01*
X77883925Y-75121748D01*
X77861286Y-75112371D01*
X77837253Y-75107590D01*
X77812749Y-75107590D01*
X77788715Y-75112370D01*
X77766076Y-75121747D01*
X77745701Y-75135361D01*
X77728374Y-75152688D01*
X77714760Y-75173063D01*
X77705383Y-75195701D01*
X77703089Y-75203263D01*
X77700591Y-75211498D01*
X77649524Y-75307039D01*
X77580790Y-75390790D01*
X77497039Y-75459524D01*
X77401498Y-75510591D01*
X77393872Y-75512904D01*
X77385701Y-75515383D01*
X77363064Y-75524759D01*
X77342689Y-75538373D01*
X77325362Y-75555700D01*
X77311748Y-75576075D01*
X77302371Y-75598714D01*
X77297590Y-75622747D01*
X77082410Y-75622747D01*
X77077630Y-75598715D01*
X77068253Y-75576076D01*
X77054639Y-75555701D01*
X77037312Y-75538374D01*
X77016937Y-75524760D01*
X76994299Y-75515383D01*
X76986128Y-75512904D01*
X76978502Y-75510591D01*
X76882961Y-75459524D01*
X76799210Y-75390790D01*
X76730476Y-75307039D01*
X76679409Y-75211498D01*
X76676911Y-75203263D01*
X76674617Y-75195701D01*
X76665241Y-75173064D01*
X76651627Y-75152689D01*
X76634300Y-75135362D01*
X76613925Y-75121748D01*
X76591286Y-75112371D01*
X76567253Y-75107590D01*
X76542749Y-75107590D01*
X76518715Y-75112370D01*
X76496076Y-75121747D01*
X76475701Y-75135361D01*
X76458374Y-75152688D01*
X76444760Y-75173063D01*
X76435383Y-75195701D01*
X76433089Y-75203263D01*
X76430591Y-75211498D01*
X76379524Y-75307039D01*
X76310790Y-75390790D01*
X76227039Y-75459524D01*
X76131498Y-75510591D01*
X76123872Y-75512904D01*
X76115701Y-75515383D01*
X76093064Y-75524759D01*
X76072689Y-75538373D01*
X76055362Y-75555700D01*
X76041748Y-75576075D01*
X76032371Y-75598714D01*
X76027590Y-75622747D01*
X75812410Y-75622747D01*
X75807630Y-75598715D01*
X75798253Y-75576076D01*
X75784639Y-75555701D01*
X75767312Y-75538374D01*
X75746937Y-75524760D01*
X75724299Y-75515383D01*
X75716128Y-75512904D01*
X75708502Y-75510591D01*
X75612961Y-75459524D01*
X75529210Y-75390790D01*
X75460476Y-75307039D01*
X75409409Y-75211498D01*
X75391743Y-75153262D01*
X75377958Y-75107819D01*
X75367339Y-75000000D01*
X75377958Y-74892181D01*
X75409408Y-74788506D01*
X75409409Y-74788502D01*
X75460476Y-74692961D01*
X75529210Y-74609210D01*
X75612961Y-74540476D01*
X75708502Y-74489409D01*
X75769861Y-74470796D01*
X75812181Y-74457958D01*
X75866048Y-74452653D01*
X75892981Y-74450000D01*
X75947019Y-74450000D01*
X75973952Y-74452653D01*
X75973952Y-74452653D01*
G37*
G36*
X53973952Y-74452653D02*
X54027819Y-74457958D01*
X54070139Y-74470796D01*
X54131498Y-74489409D01*
X54227039Y-74540476D01*
X54310790Y-74609210D01*
X54379524Y-74692961D01*
X54430591Y-74788502D01*
X54435382Y-74804297D01*
X54444759Y-74826936D01*
X54458373Y-74847311D01*
X54475700Y-74864638D01*
X54496075Y-74878252D01*
X54518714Y-74887629D01*
X54542747Y-74892410D01*
X54567251Y-74892410D01*
X54591285Y-74887630D01*
X54613924Y-74878253D01*
X54634299Y-74864639D01*
X54651626Y-74847312D01*
X54665240Y-74826937D01*
X54674618Y-74804297D01*
X54679409Y-74788502D01*
X54730476Y-74692961D01*
X54799210Y-74609210D01*
X54882961Y-74540476D01*
X54978502Y-74489409D01*
X55039861Y-74470796D01*
X55082181Y-74457958D01*
X55136048Y-74452653D01*
X55162981Y-74450000D01*
X55217019Y-74450000D01*
X55243952Y-74452653D01*
X55297819Y-74457958D01*
X55340139Y-74470796D01*
X55401498Y-74489409D01*
X55497039Y-74540476D01*
X55580790Y-74609210D01*
X55649524Y-74692961D01*
X55700591Y-74788502D01*
X55705382Y-74804297D01*
X55714759Y-74826936D01*
X55728373Y-74847311D01*
X55745700Y-74864638D01*
X55766075Y-74878252D01*
X55788714Y-74887629D01*
X55812747Y-74892410D01*
X55837251Y-74892410D01*
X55861285Y-74887630D01*
X55883924Y-74878253D01*
X55904299Y-74864639D01*
X55921626Y-74847312D01*
X55935240Y-74826937D01*
X55944618Y-74804297D01*
X55949409Y-74788502D01*
X56000476Y-74692961D01*
X56069210Y-74609210D01*
X56152961Y-74540476D01*
X56248502Y-74489409D01*
X56309861Y-74470796D01*
X56352181Y-74457958D01*
X56406048Y-74452653D01*
X56432981Y-74450000D01*
X56487019Y-74450000D01*
X56513952Y-74452653D01*
X56567819Y-74457958D01*
X56610139Y-74470796D01*
X56671498Y-74489409D01*
X56767039Y-74540476D01*
X56850790Y-74609210D01*
X56919524Y-74692961D01*
X56970591Y-74788502D01*
X56975382Y-74804297D01*
X56984759Y-74826936D01*
X56998373Y-74847311D01*
X57015700Y-74864638D01*
X57036075Y-74878252D01*
X57058714Y-74887629D01*
X57082747Y-74892410D01*
X57107251Y-74892410D01*
X57131285Y-74887630D01*
X57153924Y-74878253D01*
X57174299Y-74864639D01*
X57191626Y-74847312D01*
X57205240Y-74826937D01*
X57214618Y-74804297D01*
X57219409Y-74788502D01*
X57270476Y-74692961D01*
X57339210Y-74609210D01*
X57422961Y-74540476D01*
X57518502Y-74489409D01*
X57579861Y-74470796D01*
X57622181Y-74457958D01*
X57676048Y-74452653D01*
X57702981Y-74450000D01*
X57757019Y-74450000D01*
X57783952Y-74452653D01*
X57837819Y-74457958D01*
X57880139Y-74470796D01*
X57941498Y-74489409D01*
X58037039Y-74540476D01*
X58120790Y-74609210D01*
X58189524Y-74692961D01*
X58214760Y-74740176D01*
X58228373Y-74760551D01*
X58245700Y-74777878D01*
X58266075Y-74791492D01*
X58288714Y-74800869D01*
X58312747Y-74805650D01*
X58337252Y-74805650D01*
X58361285Y-74800870D01*
X58383924Y-74791492D01*
X58404299Y-74777879D01*
X58421626Y-74760552D01*
X58435240Y-74740177D01*
X58444617Y-74717538D01*
X58449398Y-74693505D01*
X58450000Y-74681252D01*
X58450000Y-74450000D01*
X59550000Y-74450000D01*
X59550000Y-75550000D01*
X59318748Y-75550000D01*
X59294362Y-75552402D01*
X59270913Y-75559515D01*
X59249302Y-75571066D01*
X59230360Y-75586612D01*
X59214814Y-75605554D01*
X59203263Y-75627165D01*
X59196150Y-75650614D01*
X59193748Y-75675000D01*
X59196150Y-75699386D01*
X59203263Y-75722835D01*
X59214814Y-75744446D01*
X59230360Y-75763388D01*
X59249302Y-75778934D01*
X59259824Y-75785240D01*
X59307039Y-75810476D01*
X59390790Y-75879210D01*
X59459524Y-75962961D01*
X59510591Y-76058502D01*
X59510592Y-76058506D01*
X59542042Y-76162181D01*
X59552661Y-76270000D01*
X59542042Y-76377819D01*
X59522250Y-76443063D01*
X59510591Y-76481498D01*
X59459524Y-76577039D01*
X59390790Y-76660790D01*
X59307039Y-76729524D01*
X59211498Y-76780591D01*
X59184518Y-76788775D01*
X59107819Y-76812042D01*
X59053952Y-76817347D01*
X59027019Y-76820000D01*
X58972981Y-76820000D01*
X58946048Y-76817347D01*
X58892181Y-76812042D01*
X58815482Y-76788775D01*
X58788502Y-76780591D01*
X58692961Y-76729524D01*
X58609210Y-76660790D01*
X58540476Y-76577039D01*
X58489409Y-76481498D01*
X58484618Y-76465703D01*
X58475241Y-76443064D01*
X58461627Y-76422689D01*
X58444300Y-76405362D01*
X58423925Y-76391748D01*
X58401286Y-76382371D01*
X58377253Y-76377590D01*
X58352749Y-76377590D01*
X58328715Y-76382370D01*
X58306076Y-76391747D01*
X58285701Y-76405361D01*
X58268374Y-76422688D01*
X58254760Y-76443063D01*
X58245382Y-76465703D01*
X58240591Y-76481498D01*
X58189524Y-76577039D01*
X58120790Y-76660790D01*
X58037039Y-76729524D01*
X57941498Y-76780591D01*
X57914518Y-76788775D01*
X57837819Y-76812042D01*
X57783952Y-76817347D01*
X57757019Y-76820000D01*
X57702981Y-76820000D01*
X57676048Y-76817347D01*
X57622181Y-76812042D01*
X57545482Y-76788775D01*
X57518502Y-76780591D01*
X57422961Y-76729524D01*
X57339210Y-76660790D01*
X57270476Y-76577039D01*
X57219409Y-76481498D01*
X57214618Y-76465703D01*
X57205241Y-76443064D01*
X57191627Y-76422689D01*
X57174300Y-76405362D01*
X57153925Y-76391748D01*
X57131286Y-76382371D01*
X57107253Y-76377590D01*
X57082749Y-76377590D01*
X57058715Y-76382370D01*
X57036076Y-76391747D01*
X57015701Y-76405361D01*
X56998374Y-76422688D01*
X56984760Y-76443063D01*
X56975382Y-76465703D01*
X56970591Y-76481498D01*
X56919524Y-76577039D01*
X56850790Y-76660790D01*
X56767039Y-76729524D01*
X56671498Y-76780591D01*
X56644518Y-76788775D01*
X56567819Y-76812042D01*
X56513952Y-76817347D01*
X56487019Y-76820000D01*
X56432981Y-76820000D01*
X56406048Y-76817347D01*
X56352181Y-76812042D01*
X56275482Y-76788775D01*
X56248502Y-76780591D01*
X56152961Y-76729524D01*
X56069210Y-76660790D01*
X56000476Y-76577039D01*
X55949409Y-76481498D01*
X55944618Y-76465703D01*
X55935241Y-76443064D01*
X55921627Y-76422689D01*
X55904300Y-76405362D01*
X55883925Y-76391748D01*
X55861286Y-76382371D01*
X55837253Y-76377590D01*
X55812749Y-76377590D01*
X55788715Y-76382370D01*
X55766076Y-76391747D01*
X55745701Y-76405361D01*
X55728374Y-76422688D01*
X55714760Y-76443063D01*
X55705382Y-76465703D01*
X55700591Y-76481498D01*
X55649524Y-76577039D01*
X55580790Y-76660790D01*
X55497039Y-76729524D01*
X55401498Y-76780591D01*
X55374518Y-76788775D01*
X55297819Y-76812042D01*
X55243952Y-76817347D01*
X55217019Y-76820000D01*
X55162981Y-76820000D01*
X55136048Y-76817347D01*
X55082181Y-76812042D01*
X55005482Y-76788775D01*
X54978502Y-76780591D01*
X54882961Y-76729524D01*
X54799210Y-76660790D01*
X54730476Y-76577039D01*
X54679409Y-76481498D01*
X54674618Y-76465703D01*
X54665241Y-76443064D01*
X54651627Y-76422689D01*
X54634300Y-76405362D01*
X54613925Y-76391748D01*
X54591286Y-76382371D01*
X54567253Y-76377590D01*
X54542749Y-76377590D01*
X54518715Y-76382370D01*
X54496076Y-76391747D01*
X54475701Y-76405361D01*
X54458374Y-76422688D01*
X54444760Y-76443063D01*
X54435382Y-76465703D01*
X54430591Y-76481498D01*
X54379524Y-76577039D01*
X54310790Y-76660790D01*
X54227039Y-76729524D01*
X54131498Y-76780591D01*
X54104518Y-76788775D01*
X54027819Y-76812042D01*
X53973952Y-76817347D01*
X53947019Y-76820000D01*
X53892981Y-76820000D01*
X53866048Y-76817347D01*
X53812181Y-76812042D01*
X53735482Y-76788775D01*
X53708502Y-76780591D01*
X53612961Y-76729524D01*
X53529210Y-76660790D01*
X53460476Y-76577039D01*
X53409409Y-76481498D01*
X53397750Y-76443063D01*
X53377958Y-76377819D01*
X53367339Y-76270000D01*
X53377958Y-76162181D01*
X53409408Y-76058506D01*
X53409409Y-76058502D01*
X53460476Y-75962961D01*
X53529210Y-75879210D01*
X53612961Y-75810476D01*
X53708502Y-75759409D01*
X53716128Y-75757096D01*
X53724299Y-75754617D01*
X53746936Y-75745241D01*
X53767311Y-75731627D01*
X53784638Y-75714300D01*
X53798252Y-75693925D01*
X53807629Y-75671286D01*
X53812410Y-75647253D01*
X53812410Y-75622749D01*
X53812410Y-75622747D01*
X54027590Y-75622747D01*
X54027590Y-75647251D01*
X54032370Y-75671285D01*
X54041747Y-75693924D01*
X54055361Y-75714299D01*
X54072688Y-75731626D01*
X54093063Y-75745240D01*
X54115701Y-75754617D01*
X54123872Y-75757096D01*
X54131498Y-75759409D01*
X54227039Y-75810476D01*
X54310790Y-75879210D01*
X54379524Y-75962961D01*
X54430591Y-76058502D01*
X54435382Y-76074297D01*
X54444759Y-76096936D01*
X54458373Y-76117311D01*
X54475700Y-76134638D01*
X54496075Y-76148252D01*
X54518714Y-76157629D01*
X54542747Y-76162410D01*
X54567251Y-76162410D01*
X54591285Y-76157630D01*
X54613924Y-76148253D01*
X54634299Y-76134639D01*
X54651626Y-76117312D01*
X54665240Y-76096937D01*
X54674618Y-76074297D01*
X54679409Y-76058502D01*
X54730476Y-75962961D01*
X54799210Y-75879210D01*
X54882961Y-75810476D01*
X54978502Y-75759409D01*
X54986128Y-75757096D01*
X54994299Y-75754617D01*
X55016936Y-75745241D01*
X55037311Y-75731627D01*
X55054638Y-75714300D01*
X55068252Y-75693925D01*
X55077629Y-75671286D01*
X55082410Y-75647253D01*
X55082410Y-75622749D01*
X55082410Y-75622747D01*
X55297590Y-75622747D01*
X55297590Y-75647251D01*
X55302370Y-75671285D01*
X55311747Y-75693924D01*
X55325361Y-75714299D01*
X55342688Y-75731626D01*
X55363063Y-75745240D01*
X55385701Y-75754617D01*
X55393872Y-75757096D01*
X55401498Y-75759409D01*
X55497039Y-75810476D01*
X55580790Y-75879210D01*
X55649524Y-75962961D01*
X55700591Y-76058502D01*
X55705382Y-76074297D01*
X55714759Y-76096936D01*
X55728373Y-76117311D01*
X55745700Y-76134638D01*
X55766075Y-76148252D01*
X55788714Y-76157629D01*
X55812747Y-76162410D01*
X55837251Y-76162410D01*
X55861285Y-76157630D01*
X55883924Y-76148253D01*
X55904299Y-76134639D01*
X55921626Y-76117312D01*
X55935240Y-76096937D01*
X55944618Y-76074297D01*
X55949409Y-76058502D01*
X56000476Y-75962961D01*
X56069210Y-75879210D01*
X56152961Y-75810476D01*
X56248502Y-75759409D01*
X56256128Y-75757096D01*
X56264299Y-75754617D01*
X56286936Y-75745241D01*
X56307311Y-75731627D01*
X56324638Y-75714300D01*
X56338252Y-75693925D01*
X56347629Y-75671286D01*
X56352410Y-75647253D01*
X56352410Y-75622749D01*
X56352410Y-75622747D01*
X56567590Y-75622747D01*
X56567590Y-75647251D01*
X56572370Y-75671285D01*
X56581747Y-75693924D01*
X56595361Y-75714299D01*
X56612688Y-75731626D01*
X56633063Y-75745240D01*
X56655701Y-75754617D01*
X56663872Y-75757096D01*
X56671498Y-75759409D01*
X56767039Y-75810476D01*
X56850790Y-75879210D01*
X56919524Y-75962961D01*
X56970591Y-76058502D01*
X56975382Y-76074297D01*
X56984759Y-76096936D01*
X56998373Y-76117311D01*
X57015700Y-76134638D01*
X57036075Y-76148252D01*
X57058714Y-76157629D01*
X57082747Y-76162410D01*
X57107251Y-76162410D01*
X57131285Y-76157630D01*
X57153924Y-76148253D01*
X57174299Y-76134639D01*
X57191626Y-76117312D01*
X57205240Y-76096937D01*
X57214618Y-76074297D01*
X57219409Y-76058502D01*
X57270476Y-75962961D01*
X57339210Y-75879210D01*
X57422961Y-75810476D01*
X57518502Y-75759409D01*
X57526128Y-75757096D01*
X57534299Y-75754617D01*
X57556936Y-75745241D01*
X57577311Y-75731627D01*
X57594638Y-75714300D01*
X57608252Y-75693925D01*
X57617629Y-75671286D01*
X57622410Y-75647253D01*
X57622410Y-75622749D01*
X57622410Y-75622747D01*
X57837590Y-75622747D01*
X57837590Y-75647251D01*
X57842370Y-75671285D01*
X57851747Y-75693924D01*
X57865361Y-75714299D01*
X57882688Y-75731626D01*
X57903063Y-75745240D01*
X57925701Y-75754617D01*
X57933872Y-75757096D01*
X57941498Y-75759409D01*
X58037039Y-75810476D01*
X58120790Y-75879210D01*
X58189524Y-75962961D01*
X58240591Y-76058502D01*
X58245382Y-76074297D01*
X58254759Y-76096936D01*
X58268373Y-76117311D01*
X58285700Y-76134638D01*
X58306075Y-76148252D01*
X58328714Y-76157629D01*
X58352747Y-76162410D01*
X58377251Y-76162410D01*
X58401285Y-76157630D01*
X58423924Y-76148253D01*
X58444299Y-76134639D01*
X58461626Y-76117312D01*
X58475240Y-76096937D01*
X58484618Y-76074297D01*
X58489409Y-76058502D01*
X58540476Y-75962961D01*
X58609210Y-75879210D01*
X58692961Y-75810476D01*
X58740176Y-75785240D01*
X58760551Y-75771627D01*
X58777878Y-75754300D01*
X58791492Y-75733925D01*
X58800869Y-75711286D01*
X58805650Y-75687253D01*
X58805650Y-75662748D01*
X58800870Y-75638715D01*
X58791492Y-75616076D01*
X58777879Y-75595701D01*
X58760552Y-75578374D01*
X58740177Y-75564760D01*
X58717538Y-75555383D01*
X58693505Y-75550602D01*
X58681252Y-75550000D01*
X58450000Y-75550000D01*
X58450000Y-75318748D01*
X58447598Y-75294362D01*
X58440485Y-75270913D01*
X58428934Y-75249302D01*
X58413388Y-75230360D01*
X58394446Y-75214814D01*
X58372835Y-75203263D01*
X58349386Y-75196150D01*
X58325000Y-75193748D01*
X58300614Y-75196150D01*
X58277165Y-75203263D01*
X58255554Y-75214814D01*
X58236612Y-75230360D01*
X58221066Y-75249302D01*
X58214760Y-75259824D01*
X58189524Y-75307039D01*
X58120790Y-75390790D01*
X58037039Y-75459524D01*
X57941498Y-75510591D01*
X57933872Y-75512904D01*
X57925701Y-75515383D01*
X57903064Y-75524759D01*
X57882689Y-75538373D01*
X57865362Y-75555700D01*
X57851748Y-75576075D01*
X57842371Y-75598714D01*
X57837590Y-75622747D01*
X57622410Y-75622747D01*
X57617630Y-75598715D01*
X57608253Y-75576076D01*
X57594639Y-75555701D01*
X57577312Y-75538374D01*
X57556937Y-75524760D01*
X57534299Y-75515383D01*
X57526128Y-75512904D01*
X57518502Y-75510591D01*
X57422961Y-75459524D01*
X57339210Y-75390790D01*
X57270476Y-75307039D01*
X57219409Y-75211498D01*
X57216911Y-75203263D01*
X57214617Y-75195701D01*
X57205241Y-75173064D01*
X57191627Y-75152689D01*
X57174300Y-75135362D01*
X57153925Y-75121748D01*
X57131286Y-75112371D01*
X57107253Y-75107590D01*
X57082749Y-75107590D01*
X57058715Y-75112370D01*
X57036076Y-75121747D01*
X57015701Y-75135361D01*
X56998374Y-75152688D01*
X56984760Y-75173063D01*
X56975383Y-75195701D01*
X56973089Y-75203263D01*
X56970591Y-75211498D01*
X56919524Y-75307039D01*
X56850790Y-75390790D01*
X56767039Y-75459524D01*
X56671498Y-75510591D01*
X56663872Y-75512904D01*
X56655701Y-75515383D01*
X56633064Y-75524759D01*
X56612689Y-75538373D01*
X56595362Y-75555700D01*
X56581748Y-75576075D01*
X56572371Y-75598714D01*
X56567590Y-75622747D01*
X56352410Y-75622747D01*
X56347630Y-75598715D01*
X56338253Y-75576076D01*
X56324639Y-75555701D01*
X56307312Y-75538374D01*
X56286937Y-75524760D01*
X56264299Y-75515383D01*
X56256128Y-75512904D01*
X56248502Y-75510591D01*
X56152961Y-75459524D01*
X56069210Y-75390790D01*
X56000476Y-75307039D01*
X55949409Y-75211498D01*
X55946911Y-75203263D01*
X55944617Y-75195701D01*
X55935241Y-75173064D01*
X55921627Y-75152689D01*
X55904300Y-75135362D01*
X55883925Y-75121748D01*
X55861286Y-75112371D01*
X55837253Y-75107590D01*
X55812749Y-75107590D01*
X55788715Y-75112370D01*
X55766076Y-75121747D01*
X55745701Y-75135361D01*
X55728374Y-75152688D01*
X55714760Y-75173063D01*
X55705383Y-75195701D01*
X55703089Y-75203263D01*
X55700591Y-75211498D01*
X55649524Y-75307039D01*
X55580790Y-75390790D01*
X55497039Y-75459524D01*
X55401498Y-75510591D01*
X55393872Y-75512904D01*
X55385701Y-75515383D01*
X55363064Y-75524759D01*
X55342689Y-75538373D01*
X55325362Y-75555700D01*
X55311748Y-75576075D01*
X55302371Y-75598714D01*
X55297590Y-75622747D01*
X55082410Y-75622747D01*
X55077630Y-75598715D01*
X55068253Y-75576076D01*
X55054639Y-75555701D01*
X55037312Y-75538374D01*
X55016937Y-75524760D01*
X54994299Y-75515383D01*
X54986128Y-75512904D01*
X54978502Y-75510591D01*
X54882961Y-75459524D01*
X54799210Y-75390790D01*
X54730476Y-75307039D01*
X54679409Y-75211498D01*
X54676911Y-75203263D01*
X54674617Y-75195701D01*
X54665241Y-75173064D01*
X54651627Y-75152689D01*
X54634300Y-75135362D01*
X54613925Y-75121748D01*
X54591286Y-75112371D01*
X54567253Y-75107590D01*
X54542749Y-75107590D01*
X54518715Y-75112370D01*
X54496076Y-75121747D01*
X54475701Y-75135361D01*
X54458374Y-75152688D01*
X54444760Y-75173063D01*
X54435383Y-75195701D01*
X54433089Y-75203263D01*
X54430591Y-75211498D01*
X54379524Y-75307039D01*
X54310790Y-75390790D01*
X54227039Y-75459524D01*
X54131498Y-75510591D01*
X54123872Y-75512904D01*
X54115701Y-75515383D01*
X54093064Y-75524759D01*
X54072689Y-75538373D01*
X54055362Y-75555700D01*
X54041748Y-75576075D01*
X54032371Y-75598714D01*
X54027590Y-75622747D01*
X53812410Y-75622747D01*
X53807630Y-75598715D01*
X53798253Y-75576076D01*
X53784639Y-75555701D01*
X53767312Y-75538374D01*
X53746937Y-75524760D01*
X53724299Y-75515383D01*
X53716128Y-75512904D01*
X53708502Y-75510591D01*
X53612961Y-75459524D01*
X53529210Y-75390790D01*
X53460476Y-75307039D01*
X53409409Y-75211498D01*
X53391743Y-75153262D01*
X53377958Y-75107819D01*
X53367339Y-75000000D01*
X53377958Y-74892181D01*
X53409408Y-74788506D01*
X53409409Y-74788502D01*
X53460476Y-74692961D01*
X53529210Y-74609210D01*
X53612961Y-74540476D01*
X53708502Y-74489409D01*
X53769861Y-74470796D01*
X53812181Y-74457958D01*
X53866048Y-74452653D01*
X53892981Y-74450000D01*
X53947019Y-74450000D01*
X53973952Y-74452653D01*
X53973952Y-74452653D01*
G37*
G36*
X86338024Y-74429457D02*
X86375635Y-74440866D01*
X86410299Y-74459394D01*
X86440676Y-74484324D01*
X86465606Y-74514701D01*
X86484134Y-74549365D01*
X86495543Y-74586976D01*
X86500000Y-74632227D01*
X86500000Y-75467773D01*
X86495543Y-75513024D01*
X86484134Y-75550635D01*
X86465606Y-75585299D01*
X86440676Y-75615676D01*
X86410299Y-75640606D01*
X86375635Y-75659134D01*
X86338024Y-75670543D01*
X86292773Y-75675000D01*
X85207227Y-75675000D01*
X85161976Y-75670543D01*
X85124365Y-75659134D01*
X85089701Y-75640606D01*
X85059324Y-75615676D01*
X85034394Y-75585299D01*
X85015866Y-75550635D01*
X85004457Y-75513024D01*
X85000000Y-75467773D01*
X85000000Y-74632227D01*
X85004457Y-74586976D01*
X85015866Y-74549365D01*
X85034394Y-74514701D01*
X85059324Y-74484324D01*
X85089701Y-74459394D01*
X85124365Y-74440866D01*
X85161976Y-74429457D01*
X85207227Y-74425000D01*
X86292773Y-74425000D01*
X86338024Y-74429457D01*
X86338024Y-74429457D01*
G37*
G36*
X83338024Y-74379457D02*
X83375635Y-74390866D01*
X83410299Y-74409394D01*
X83440676Y-74434324D01*
X83465606Y-74464701D01*
X83484134Y-74499365D01*
X83495543Y-74536976D01*
X83500000Y-74582227D01*
X83500000Y-75417773D01*
X83495543Y-75463024D01*
X83484134Y-75500635D01*
X83465606Y-75535299D01*
X83440676Y-75565676D01*
X83410299Y-75590606D01*
X83375635Y-75609134D01*
X83338024Y-75620543D01*
X83292773Y-75625000D01*
X82207227Y-75625000D01*
X82161976Y-75620543D01*
X82124365Y-75609134D01*
X82089701Y-75590606D01*
X82059324Y-75565676D01*
X82034394Y-75535299D01*
X82015866Y-75500635D01*
X82004457Y-75463024D01*
X82000000Y-75417773D01*
X82000000Y-74582227D01*
X82004457Y-74536976D01*
X82015866Y-74499365D01*
X82034394Y-74464701D01*
X82059324Y-74434324D01*
X82089701Y-74409394D01*
X82124365Y-74390866D01*
X82161976Y-74379457D01*
X82207227Y-74375000D01*
X83292773Y-74375000D01*
X83338024Y-74379457D01*
X83338024Y-74379457D01*
G37*
G36*
X106506024Y-74318457D02*
X106543635Y-74329866D01*
X106578299Y-74348394D01*
X106608676Y-74373324D01*
X106633606Y-74403701D01*
X106652134Y-74438365D01*
X106663543Y-74475976D01*
X106668000Y-74521227D01*
X106668000Y-75356773D01*
X106663543Y-75402024D01*
X106652134Y-75439635D01*
X106633606Y-75474299D01*
X106608676Y-75504676D01*
X106578299Y-75529606D01*
X106543635Y-75548134D01*
X106506024Y-75559543D01*
X106460773Y-75564000D01*
X105375227Y-75564000D01*
X105329976Y-75559543D01*
X105292365Y-75548134D01*
X105257701Y-75529606D01*
X105227324Y-75504676D01*
X105202394Y-75474299D01*
X105183866Y-75439635D01*
X105172457Y-75402024D01*
X105168000Y-75356773D01*
X105168000Y-74521227D01*
X105172457Y-74475976D01*
X105183866Y-74438365D01*
X105202394Y-74403701D01*
X105227324Y-74373324D01*
X105257701Y-74348394D01*
X105292365Y-74329866D01*
X105329976Y-74318457D01*
X105375227Y-74314000D01*
X106460773Y-74314000D01*
X106506024Y-74318457D01*
X106506024Y-74318457D01*
G37*
G36*
X88720000Y-75150000D02*
X87120000Y-75150000D01*
X87120000Y-73350000D01*
X88720000Y-73350000D01*
X88720000Y-75150000D01*
X88720000Y-75150000D01*
G37*
G36*
X91380000Y-75150000D02*
X89780000Y-75150000D01*
X89780000Y-73350000D01*
X91380000Y-73350000D01*
X91380000Y-75150000D01*
X91380000Y-75150000D01*
G37*
G36*
X86338024Y-72379457D02*
X86375635Y-72390866D01*
X86410299Y-72409394D01*
X86440676Y-72434324D01*
X86465606Y-72464701D01*
X86484134Y-72499365D01*
X86495543Y-72536976D01*
X86500000Y-72582227D01*
X86500000Y-73417773D01*
X86495543Y-73463024D01*
X86484134Y-73500635D01*
X86465606Y-73535299D01*
X86440676Y-73565676D01*
X86410299Y-73590606D01*
X86375635Y-73609134D01*
X86338024Y-73620543D01*
X86292773Y-73625000D01*
X85207227Y-73625000D01*
X85161976Y-73620543D01*
X85124365Y-73609134D01*
X85089701Y-73590606D01*
X85059324Y-73565676D01*
X85034394Y-73535299D01*
X85015866Y-73500635D01*
X85004457Y-73463024D01*
X85000000Y-73417773D01*
X85000000Y-72582227D01*
X85004457Y-72536976D01*
X85015866Y-72499365D01*
X85034394Y-72464701D01*
X85059324Y-72434324D01*
X85089701Y-72409394D01*
X85124365Y-72390866D01*
X85161976Y-72379457D01*
X85207227Y-72375000D01*
X86292773Y-72375000D01*
X86338024Y-72379457D01*
X86338024Y-72379457D01*
G37*
G36*
X82480000Y-72200000D02*
X82482402Y-72224386D01*
X82489515Y-72247835D01*
X82501066Y-72269446D01*
X82516612Y-72288388D01*
X82535554Y-72303934D01*
X82557165Y-72315485D01*
X82580614Y-72322598D01*
X82605000Y-72325000D01*
X83292773Y-72325000D01*
X83338024Y-72329457D01*
X83375635Y-72340866D01*
X83410299Y-72359394D01*
X83440676Y-72384324D01*
X83465606Y-72414701D01*
X83484134Y-72449365D01*
X83495543Y-72486976D01*
X83500000Y-72532227D01*
X83500000Y-73367773D01*
X83495543Y-73413024D01*
X83484134Y-73450635D01*
X83465606Y-73485299D01*
X83440676Y-73515676D01*
X83410299Y-73540606D01*
X83375635Y-73559134D01*
X83338024Y-73570543D01*
X83292773Y-73575000D01*
X82207227Y-73575000D01*
X82161976Y-73570543D01*
X82124365Y-73559134D01*
X82089701Y-73540606D01*
X82059324Y-73515676D01*
X82034394Y-73485299D01*
X82015866Y-73450635D01*
X82004457Y-73413024D01*
X82000000Y-73367773D01*
X82000000Y-72532227D01*
X82004457Y-72486976D01*
X82015866Y-72449365D01*
X82034394Y-72414701D01*
X82059324Y-72384324D01*
X82089701Y-72359394D01*
X82124365Y-72340866D01*
X82161976Y-72329457D01*
X82213339Y-72324398D01*
X82237372Y-72319617D01*
X82260011Y-72310240D01*
X82280386Y-72296626D01*
X82297713Y-72279299D01*
X82311326Y-72258924D01*
X82320704Y-72236285D01*
X82325484Y-72212251D01*
X82325484Y-72187747D01*
X82320703Y-72163714D01*
X82311326Y-72141075D01*
X82297712Y-72120700D01*
X82280385Y-72103373D01*
X82260010Y-72089760D01*
X82237371Y-72080382D01*
X82201086Y-72075000D01*
X80820000Y-72075000D01*
X80820000Y-69425000D01*
X82480000Y-69425000D01*
X82480000Y-72200000D01*
X82480000Y-72200000D01*
G37*
G36*
X106506024Y-72268457D02*
X106543635Y-72279866D01*
X106578299Y-72298394D01*
X106608676Y-72323324D01*
X106633606Y-72353701D01*
X106652134Y-72388365D01*
X106663543Y-72425976D01*
X106668000Y-72471227D01*
X106668000Y-73306773D01*
X106663543Y-73352024D01*
X106652134Y-73389635D01*
X106633606Y-73424299D01*
X106608676Y-73454676D01*
X106578299Y-73479606D01*
X106543635Y-73498134D01*
X106506024Y-73509543D01*
X106460773Y-73514000D01*
X105375227Y-73514000D01*
X105329976Y-73509543D01*
X105292365Y-73498134D01*
X105257701Y-73479606D01*
X105227324Y-73454676D01*
X105202394Y-73424299D01*
X105183866Y-73389635D01*
X105172457Y-73352024D01*
X105168000Y-73306773D01*
X105168000Y-72471227D01*
X105172457Y-72425976D01*
X105183866Y-72388365D01*
X105202394Y-72353701D01*
X105227324Y-72323324D01*
X105257701Y-72298394D01*
X105292365Y-72279866D01*
X105329976Y-72268457D01*
X105375227Y-72264000D01*
X106460773Y-72264000D01*
X106506024Y-72268457D01*
X106506024Y-72268457D01*
G37*
G36*
X93838024Y-72129457D02*
X93875635Y-72140866D01*
X93910299Y-72159394D01*
X93940676Y-72184324D01*
X93965606Y-72214701D01*
X93984134Y-72249365D01*
X93995543Y-72286976D01*
X94000000Y-72332227D01*
X94000000Y-73167773D01*
X93995543Y-73213024D01*
X93984134Y-73250635D01*
X93965606Y-73285299D01*
X93940676Y-73315676D01*
X93910299Y-73340606D01*
X93875635Y-73359134D01*
X93838024Y-73370543D01*
X93792773Y-73375000D01*
X92707227Y-73375000D01*
X92661976Y-73370543D01*
X92624365Y-73359134D01*
X92589701Y-73340606D01*
X92559324Y-73315676D01*
X92534394Y-73285299D01*
X92515866Y-73250635D01*
X92504457Y-73213024D01*
X92500000Y-73167773D01*
X92500000Y-72332227D01*
X92504457Y-72286976D01*
X92515866Y-72249365D01*
X92534394Y-72214701D01*
X92559324Y-72184324D01*
X92589701Y-72159394D01*
X92624365Y-72140866D01*
X92661976Y-72129457D01*
X92707227Y-72125000D01*
X93792773Y-72125000D01*
X93838024Y-72129457D01*
X93838024Y-72129457D01*
G37*
G36*
X61225000Y-73290000D02*
X59425000Y-73290000D01*
X59425000Y-71490000D01*
X61225000Y-71490000D01*
X61225000Y-73290000D01*
X61225000Y-73290000D01*
G37*
G36*
X103145888Y-70654470D02*
X103326274Y-70690350D01*
X103517362Y-70769502D01*
X103689336Y-70884411D01*
X103835589Y-71030664D01*
X103950498Y-71202638D01*
X104029650Y-71393726D01*
X104065530Y-71574112D01*
X104070000Y-71596583D01*
X104070000Y-71803417D01*
X104065906Y-71824000D01*
X104029650Y-72006274D01*
X103950498Y-72197362D01*
X103835589Y-72369336D01*
X103689336Y-72515589D01*
X103517362Y-72630498D01*
X103326274Y-72709650D01*
X103145888Y-72745530D01*
X103123417Y-72750000D01*
X102916583Y-72750000D01*
X102894112Y-72745530D01*
X102713726Y-72709650D01*
X102522638Y-72630498D01*
X102350664Y-72515589D01*
X102204411Y-72369336D01*
X102089502Y-72197362D01*
X102010350Y-72006274D01*
X101974094Y-71824000D01*
X101970000Y-71803417D01*
X101970000Y-71596583D01*
X101974470Y-71574112D01*
X102010350Y-71393726D01*
X102089502Y-71202638D01*
X102204411Y-71030664D01*
X102350664Y-70884411D01*
X102522638Y-70769502D01*
X102713726Y-70690350D01*
X102894112Y-70654470D01*
X102916583Y-70650000D01*
X103123417Y-70650000D01*
X103145888Y-70654470D01*
X103145888Y-70654470D01*
G37*
G36*
X96645888Y-70654470D02*
X96826274Y-70690350D01*
X97017362Y-70769502D01*
X97189336Y-70884411D01*
X97335589Y-71030664D01*
X97450498Y-71202638D01*
X97529650Y-71393726D01*
X97565530Y-71574112D01*
X97570000Y-71596583D01*
X97570000Y-71803417D01*
X97565906Y-71824000D01*
X97529650Y-72006274D01*
X97450498Y-72197362D01*
X97335589Y-72369336D01*
X97189336Y-72515589D01*
X97017362Y-72630498D01*
X96826274Y-72709650D01*
X96645888Y-72745530D01*
X96623417Y-72750000D01*
X96416583Y-72750000D01*
X96394112Y-72745530D01*
X96213726Y-72709650D01*
X96022638Y-72630498D01*
X95850664Y-72515589D01*
X95704411Y-72369336D01*
X95589502Y-72197362D01*
X95510350Y-72006274D01*
X95474094Y-71824000D01*
X95470000Y-71803417D01*
X95470000Y-71596583D01*
X95474470Y-71574112D01*
X95510350Y-71393726D01*
X95589502Y-71202638D01*
X95704411Y-71030664D01*
X95850664Y-70884411D01*
X96022638Y-70769502D01*
X96213726Y-70690350D01*
X96394112Y-70654470D01*
X96416583Y-70650000D01*
X96623417Y-70650000D01*
X96645888Y-70654470D01*
X96645888Y-70654470D01*
G37*
G36*
X85180000Y-72075000D02*
X83520000Y-72075000D01*
X83520000Y-71325000D01*
X85180000Y-71325000D01*
X85180000Y-72075000D01*
X85180000Y-72075000D01*
G37*
G36*
X88362344Y-70079175D02*
X88397198Y-70089748D01*
X88429322Y-70106919D01*
X88457476Y-70130024D01*
X88480581Y-70158178D01*
X88497752Y-70190302D01*
X88508325Y-70225156D01*
X88512500Y-70267545D01*
X88512500Y-71732455D01*
X88508325Y-71774844D01*
X88497752Y-71809698D01*
X88480581Y-71841822D01*
X88457476Y-71869976D01*
X88429322Y-71893081D01*
X88397198Y-71910252D01*
X88362344Y-71920825D01*
X88319955Y-71925000D01*
X87180045Y-71925000D01*
X87137656Y-71920825D01*
X87102802Y-71910252D01*
X87070678Y-71893081D01*
X87042524Y-71869976D01*
X87019419Y-71841822D01*
X87002248Y-71809698D01*
X86991675Y-71774844D01*
X86987500Y-71732455D01*
X86987500Y-70267545D01*
X86991675Y-70225156D01*
X87002248Y-70190302D01*
X87019419Y-70158178D01*
X87042524Y-70130024D01*
X87070678Y-70106919D01*
X87102802Y-70089748D01*
X87137656Y-70079175D01*
X87180045Y-70075000D01*
X88319955Y-70075000D01*
X88362344Y-70079175D01*
X88362344Y-70079175D01*
G37*
G36*
X91337344Y-70079175D02*
X91372198Y-70089748D01*
X91404322Y-70106919D01*
X91432476Y-70130024D01*
X91455581Y-70158178D01*
X91472752Y-70190302D01*
X91483325Y-70225156D01*
X91487500Y-70267545D01*
X91487500Y-71732455D01*
X91483325Y-71774844D01*
X91472752Y-71809698D01*
X91455581Y-71841822D01*
X91432476Y-71869976D01*
X91404322Y-71893081D01*
X91372198Y-71910252D01*
X91337344Y-71920825D01*
X91294955Y-71925000D01*
X90155045Y-71925000D01*
X90112656Y-71920825D01*
X90077802Y-71910252D01*
X90045678Y-71893081D01*
X90017524Y-71869976D01*
X89994419Y-71841822D01*
X89977248Y-71809698D01*
X89966675Y-71774844D01*
X89962500Y-71732455D01*
X89962500Y-70267545D01*
X89966675Y-70225156D01*
X89977248Y-70190302D01*
X89994419Y-70158178D01*
X90017524Y-70130024D01*
X90045678Y-70106919D01*
X90077802Y-70089748D01*
X90112656Y-70079175D01*
X90155045Y-70075000D01*
X91294955Y-70075000D01*
X91337344Y-70079175D01*
X91337344Y-70079175D01*
G37*
G36*
X75358000Y-71846000D02*
X74008000Y-71846000D01*
X74008000Y-70946000D01*
X75358000Y-70946000D01*
X75358000Y-71846000D01*
X75358000Y-71846000D01*
G37*
G36*
X77008000Y-71846000D02*
X75658000Y-71846000D01*
X75658000Y-70946000D01*
X77008000Y-70946000D01*
X77008000Y-71846000D01*
X77008000Y-71846000D01*
G37*
G36*
X73566000Y-71824000D02*
X72216000Y-71824000D01*
X72216000Y-70924000D01*
X73566000Y-70924000D01*
X73566000Y-71824000D01*
X73566000Y-71824000D01*
G37*
G36*
X71916000Y-71824000D02*
X70566000Y-71824000D01*
X70566000Y-70924000D01*
X71916000Y-70924000D01*
X71916000Y-71824000D01*
X71916000Y-71824000D01*
G37*
G36*
X69145000Y-71650000D02*
X66745000Y-71650000D01*
X66745000Y-68050000D01*
X69145000Y-68050000D01*
X69145000Y-71650000D01*
X69145000Y-71650000D01*
G37*
G36*
X65335000Y-71650000D02*
X62935000Y-71650000D01*
X62935000Y-68050000D01*
X65335000Y-68050000D01*
X65335000Y-71650000D01*
X65335000Y-71650000D01*
G37*
G36*
X60501432Y-68963022D02*
X60671081Y-69014485D01*
X60827433Y-69098056D01*
X60964475Y-69210525D01*
X61076944Y-69347567D01*
X61160515Y-69503919D01*
X61211978Y-69673568D01*
X61229354Y-69850000D01*
X61211978Y-70026432D01*
X61160515Y-70196081D01*
X61076944Y-70352433D01*
X60964475Y-70489475D01*
X60827433Y-70601944D01*
X60671081Y-70685515D01*
X60501432Y-70736978D01*
X60369211Y-70750000D01*
X60280789Y-70750000D01*
X60148568Y-70736978D01*
X59978919Y-70685515D01*
X59822567Y-70601944D01*
X59685525Y-70489475D01*
X59573056Y-70352433D01*
X59489485Y-70196081D01*
X59438022Y-70026432D01*
X59420646Y-69850000D01*
X59438022Y-69673568D01*
X59489485Y-69503919D01*
X59573056Y-69347567D01*
X59685525Y-69210525D01*
X59822567Y-69098056D01*
X59978919Y-69014485D01*
X60148568Y-68963022D01*
X60280789Y-68950000D01*
X60369211Y-68950000D01*
X60501432Y-68963022D01*
X60501432Y-68963022D01*
G37*
G36*
X85180000Y-70175000D02*
X83520000Y-70175000D01*
X83520000Y-69425000D01*
X85180000Y-69425000D01*
X85180000Y-70175000D01*
X85180000Y-70175000D01*
G37*
G36*
X77008000Y-70046000D02*
X75658000Y-70046000D01*
X75658000Y-69146000D01*
X77008000Y-69146000D01*
X77008000Y-70046000D01*
X77008000Y-70046000D01*
G37*
G36*
X75358000Y-70046000D02*
X74008000Y-70046000D01*
X74008000Y-69146000D01*
X75358000Y-69146000D01*
X75358000Y-70046000D01*
X75358000Y-70046000D01*
G37*
G36*
X73566000Y-70024000D02*
X72216000Y-70024000D01*
X72216000Y-69124000D01*
X73566000Y-69124000D01*
X73566000Y-70024000D01*
X73566000Y-70024000D01*
G37*
G36*
X71916000Y-70024000D02*
X70566000Y-70024000D01*
X70566000Y-69124000D01*
X71916000Y-69124000D01*
X71916000Y-70024000D01*
X71916000Y-70024000D01*
G37*
G36*
X108700000Y-69410000D02*
X106400000Y-69410000D01*
X106400000Y-67110000D01*
X108700000Y-67110000D01*
X108700000Y-69410000D01*
X108700000Y-69410000D01*
G37*
G36*
X98300000Y-66985000D02*
X98302402Y-67009386D01*
X98309515Y-67032835D01*
X98321066Y-67054446D01*
X98336612Y-67073388D01*
X98355554Y-67088934D01*
X98377165Y-67100485D01*
X98400614Y-67107598D01*
X98425000Y-67110000D01*
X98700000Y-67110000D01*
X98700000Y-69410000D01*
X97200000Y-69410000D01*
X97200000Y-67085000D01*
X97197598Y-67060614D01*
X97190485Y-67037165D01*
X97178934Y-67015554D01*
X97163388Y-66996612D01*
X97144446Y-66981066D01*
X97122835Y-66969515D01*
X97099386Y-66962402D01*
X97075000Y-66960000D01*
X96200000Y-66960000D01*
X96200000Y-66160000D01*
X98300000Y-66160000D01*
X98300000Y-66985000D01*
X98300000Y-66985000D01*
G37*
G36*
X60501432Y-66423022D02*
X60671081Y-66474485D01*
X60827433Y-66558056D01*
X60964475Y-66670525D01*
X61076944Y-66807567D01*
X61160515Y-66963919D01*
X61211978Y-67133568D01*
X61229354Y-67310000D01*
X61211978Y-67486432D01*
X61160515Y-67656081D01*
X61076944Y-67812433D01*
X60964475Y-67949475D01*
X60827433Y-68061944D01*
X60671081Y-68145515D01*
X60501432Y-68196978D01*
X60369211Y-68210000D01*
X60280789Y-68210000D01*
X60148568Y-68196978D01*
X59978919Y-68145515D01*
X59822567Y-68061944D01*
X59685525Y-67949475D01*
X59573056Y-67812433D01*
X59489485Y-67656081D01*
X59438022Y-67486432D01*
X59420646Y-67310000D01*
X59438022Y-67133568D01*
X59489485Y-66963919D01*
X59573056Y-66807567D01*
X59685525Y-66670525D01*
X59822567Y-66558056D01*
X59978919Y-66474485D01*
X60148568Y-66423022D01*
X60280789Y-66410000D01*
X60369211Y-66410000D01*
X60501432Y-66423022D01*
X60501432Y-66423022D01*
G37*
G36*
X80852024Y-66698457D02*
X80889635Y-66709866D01*
X80924299Y-66728394D01*
X80954676Y-66753324D01*
X80979606Y-66783701D01*
X80998134Y-66818365D01*
X81009543Y-66855976D01*
X81014000Y-66901227D01*
X81014000Y-67736773D01*
X81009543Y-67782024D01*
X80998134Y-67819635D01*
X80979606Y-67854299D01*
X80954676Y-67884676D01*
X80924299Y-67909606D01*
X80889635Y-67928134D01*
X80852024Y-67939543D01*
X80806773Y-67944000D01*
X79721227Y-67944000D01*
X79675976Y-67939543D01*
X79638365Y-67928134D01*
X79603701Y-67909606D01*
X79573324Y-67884676D01*
X79548394Y-67854299D01*
X79529866Y-67819635D01*
X79518457Y-67782024D01*
X79514000Y-67736773D01*
X79514000Y-66901227D01*
X79518457Y-66855976D01*
X79529866Y-66818365D01*
X79548394Y-66783701D01*
X79573324Y-66753324D01*
X79603701Y-66728394D01*
X79638365Y-66709866D01*
X79675976Y-66698457D01*
X79721227Y-66694000D01*
X80806773Y-66694000D01*
X80852024Y-66698457D01*
X80852024Y-66698457D01*
G37*
G36*
X78820024Y-66689457D02*
X78857635Y-66700866D01*
X78892299Y-66719394D01*
X78922676Y-66744324D01*
X78947606Y-66774701D01*
X78966134Y-66809365D01*
X78977543Y-66846976D01*
X78982000Y-66892227D01*
X78982000Y-67727773D01*
X78977543Y-67773024D01*
X78966134Y-67810635D01*
X78947606Y-67845299D01*
X78922676Y-67875676D01*
X78892299Y-67900606D01*
X78857635Y-67919134D01*
X78820024Y-67930543D01*
X78774773Y-67935000D01*
X77689227Y-67935000D01*
X77643976Y-67930543D01*
X77606365Y-67919134D01*
X77571701Y-67900606D01*
X77541324Y-67875676D01*
X77516394Y-67845299D01*
X77497866Y-67810635D01*
X77486457Y-67773024D01*
X77482000Y-67727773D01*
X77482000Y-66892227D01*
X77486457Y-66846976D01*
X77497866Y-66809365D01*
X77516394Y-66774701D01*
X77541324Y-66744324D01*
X77571701Y-66719394D01*
X77606365Y-66700866D01*
X77643976Y-66689457D01*
X77689227Y-66685000D01*
X78774773Y-66685000D01*
X78820024Y-66689457D01*
X78820024Y-66689457D01*
G37*
G36*
X65335000Y-66250000D02*
X62935000Y-66250000D01*
X62935000Y-62650000D01*
X65335000Y-62650000D01*
X65335000Y-66250000D01*
X65335000Y-66250000D01*
G37*
G36*
X69145000Y-66250000D02*
X66745000Y-66250000D01*
X66745000Y-62650000D01*
X69145000Y-62650000D01*
X69145000Y-66250000D01*
X69145000Y-66250000D01*
G37*
G36*
X80852024Y-64648457D02*
X80889635Y-64659866D01*
X80924299Y-64678394D01*
X80954676Y-64703324D01*
X80979606Y-64733701D01*
X80998134Y-64768365D01*
X81009543Y-64805976D01*
X81014000Y-64851227D01*
X81014000Y-65686773D01*
X81009543Y-65732024D01*
X80998134Y-65769635D01*
X80979606Y-65804299D01*
X80954676Y-65834676D01*
X80924299Y-65859606D01*
X80889635Y-65878134D01*
X80852024Y-65889543D01*
X80806773Y-65894000D01*
X79721227Y-65894000D01*
X79675976Y-65889543D01*
X79638365Y-65878134D01*
X79603701Y-65859606D01*
X79573324Y-65834676D01*
X79548394Y-65804299D01*
X79529866Y-65769635D01*
X79518457Y-65732024D01*
X79514000Y-65686773D01*
X79514000Y-64851227D01*
X79518457Y-64805976D01*
X79529866Y-64768365D01*
X79548394Y-64733701D01*
X79573324Y-64703324D01*
X79603701Y-64678394D01*
X79638365Y-64659866D01*
X79675976Y-64648457D01*
X79721227Y-64644000D01*
X80806773Y-64644000D01*
X80852024Y-64648457D01*
X80852024Y-64648457D01*
G37*
G36*
X78820024Y-64639457D02*
X78857635Y-64650866D01*
X78892299Y-64669394D01*
X78922676Y-64694324D01*
X78947606Y-64724701D01*
X78966134Y-64759365D01*
X78977543Y-64796976D01*
X78982000Y-64842227D01*
X78982000Y-65677773D01*
X78977543Y-65723024D01*
X78966134Y-65760635D01*
X78947606Y-65795299D01*
X78922676Y-65825676D01*
X78892299Y-65850606D01*
X78857635Y-65869134D01*
X78820024Y-65880543D01*
X78774773Y-65885000D01*
X77689227Y-65885000D01*
X77643976Y-65880543D01*
X77606365Y-65869134D01*
X77571701Y-65850606D01*
X77541324Y-65825676D01*
X77516394Y-65795299D01*
X77497866Y-65760635D01*
X77486457Y-65723024D01*
X77482000Y-65677773D01*
X77482000Y-64842227D01*
X77486457Y-64796976D01*
X77497866Y-64759365D01*
X77516394Y-64724701D01*
X77541324Y-64694324D01*
X77571701Y-64669394D01*
X77606365Y-64650866D01*
X77643976Y-64639457D01*
X77689227Y-64635000D01*
X78774773Y-64635000D01*
X78820024Y-64639457D01*
X78820024Y-64639457D01*
G37*
G36*
X98300000Y-65860000D02*
X96200000Y-65860000D01*
X96200000Y-65060000D01*
X98300000Y-65060000D01*
X98300000Y-65860000D01*
X98300000Y-65860000D01*
G37*
G36*
X60501432Y-63883022D02*
X60671081Y-63934485D01*
X60827433Y-64018056D01*
X60964475Y-64130525D01*
X61076944Y-64267567D01*
X61160515Y-64423919D01*
X61211978Y-64593568D01*
X61229354Y-64770000D01*
X61211978Y-64946432D01*
X61160515Y-65116081D01*
X61076944Y-65272433D01*
X60964475Y-65409475D01*
X60827433Y-65521944D01*
X60671081Y-65605515D01*
X60501432Y-65656978D01*
X60369211Y-65670000D01*
X60280789Y-65670000D01*
X60148568Y-65656978D01*
X59978919Y-65605515D01*
X59822567Y-65521944D01*
X59685525Y-65409475D01*
X59573056Y-65272433D01*
X59489485Y-65116081D01*
X59438022Y-64946432D01*
X59420646Y-64770000D01*
X59438022Y-64593568D01*
X59489485Y-64423919D01*
X59573056Y-64267567D01*
X59685525Y-64130525D01*
X59822567Y-64018056D01*
X59978919Y-63934485D01*
X60148568Y-63883022D01*
X60280789Y-63870000D01*
X60369211Y-63870000D01*
X60501432Y-63883022D01*
X60501432Y-63883022D01*
G37*
G36*
X108039590Y-64417045D02*
X108110429Y-64431136D01*
X108210523Y-64472597D01*
X108300607Y-64532789D01*
X108377211Y-64609393D01*
X108377213Y-64609396D01*
X108437403Y-64699477D01*
X108478864Y-64799571D01*
X108500000Y-64905830D01*
X108500000Y-65014170D01*
X108478864Y-65120429D01*
X108437403Y-65220523D01*
X108377211Y-65310607D01*
X108300607Y-65387211D01*
X108300604Y-65387213D01*
X108210523Y-65447403D01*
X108110429Y-65488864D01*
X108039590Y-65502955D01*
X108004171Y-65510000D01*
X107895829Y-65510000D01*
X107860410Y-65502955D01*
X107789571Y-65488864D01*
X107689477Y-65447403D01*
X107599396Y-65387213D01*
X107599393Y-65387211D01*
X107522789Y-65310607D01*
X107462597Y-65220523D01*
X107421136Y-65120429D01*
X107400000Y-65014170D01*
X107400000Y-64905830D01*
X107421136Y-64799571D01*
X107462597Y-64699477D01*
X107522787Y-64609396D01*
X107522789Y-64609393D01*
X107599393Y-64532789D01*
X107689477Y-64472597D01*
X107789571Y-64431136D01*
X107860410Y-64417045D01*
X107895829Y-64410000D01*
X108004171Y-64410000D01*
X108039590Y-64417045D01*
X108039590Y-64417045D01*
G37*
G36*
X98300000Y-64760000D02*
X96200000Y-64760000D01*
X96200000Y-63960000D01*
X98300000Y-63960000D01*
X98300000Y-64760000D01*
X98300000Y-64760000D01*
G37*
G36*
X85170000Y-64746000D02*
X84270000Y-64746000D01*
X84270000Y-63396000D01*
X85170000Y-63396000D01*
X85170000Y-64746000D01*
X85170000Y-64746000D01*
G37*
G36*
X83370000Y-64746000D02*
X82470000Y-64746000D01*
X82470000Y-63396000D01*
X83370000Y-63396000D01*
X83370000Y-64746000D01*
X83370000Y-64746000D01*
G37*
G36*
X98300000Y-63660000D02*
X96200000Y-63660000D01*
X96200000Y-62860000D01*
X98300000Y-62860000D01*
X98300000Y-63660000D01*
X98300000Y-63660000D01*
G37*
G36*
X80648000Y-63476000D02*
X79748000Y-63476000D01*
X79748000Y-62476000D01*
X80648000Y-62476000D01*
X80648000Y-63476000D01*
X80648000Y-63476000D01*
G37*
G36*
X78748000Y-63476000D02*
X77848000Y-63476000D01*
X77848000Y-62476000D01*
X78748000Y-62476000D01*
X78748000Y-63476000D01*
X78748000Y-63476000D01*
G37*
G36*
X83370000Y-63096000D02*
X82470000Y-63096000D01*
X82470000Y-61746000D01*
X83370000Y-61746000D01*
X83370000Y-63096000D01*
X83370000Y-63096000D01*
G37*
G36*
X85170000Y-63096000D02*
X84270000Y-63096000D01*
X84270000Y-61746000D01*
X85170000Y-61746000D01*
X85170000Y-63096000D01*
X85170000Y-63096000D01*
G37*
G36*
X90887024Y-61230457D02*
X90924635Y-61241866D01*
X90959299Y-61260394D01*
X90989676Y-61285324D01*
X91014606Y-61315701D01*
X91033134Y-61350365D01*
X91044543Y-61387976D01*
X91049000Y-61433227D01*
X91049000Y-62518773D01*
X91044543Y-62564024D01*
X91033134Y-62601635D01*
X91014606Y-62636299D01*
X90989676Y-62666676D01*
X90959299Y-62691606D01*
X90924635Y-62710134D01*
X90887024Y-62721543D01*
X90841773Y-62726000D01*
X90006227Y-62726000D01*
X89960976Y-62721543D01*
X89923365Y-62710134D01*
X89888701Y-62691606D01*
X89858324Y-62666676D01*
X89833394Y-62636299D01*
X89814866Y-62601635D01*
X89803457Y-62564024D01*
X89799000Y-62518773D01*
X89799000Y-61433227D01*
X89803457Y-61387976D01*
X89814866Y-61350365D01*
X89833394Y-61315701D01*
X89858324Y-61285324D01*
X89888701Y-61260394D01*
X89923365Y-61241866D01*
X89960976Y-61230457D01*
X90006227Y-61226000D01*
X90841773Y-61226000D01*
X90887024Y-61230457D01*
X90887024Y-61230457D01*
G37*
G36*
X92937024Y-61230457D02*
X92974635Y-61241866D01*
X93009299Y-61260394D01*
X93039676Y-61285324D01*
X93064606Y-61315701D01*
X93083134Y-61350365D01*
X93094543Y-61387976D01*
X93099000Y-61433227D01*
X93099000Y-62518773D01*
X93094543Y-62564024D01*
X93083134Y-62601635D01*
X93064606Y-62636299D01*
X93039676Y-62666676D01*
X93009299Y-62691606D01*
X92974635Y-62710134D01*
X92937024Y-62721543D01*
X92891773Y-62726000D01*
X92056227Y-62726000D01*
X92010976Y-62721543D01*
X91973365Y-62710134D01*
X91938701Y-62691606D01*
X91908324Y-62666676D01*
X91883394Y-62636299D01*
X91864866Y-62601635D01*
X91853457Y-62564024D01*
X91849000Y-62518773D01*
X91849000Y-61433227D01*
X91853457Y-61387976D01*
X91864866Y-61350365D01*
X91883394Y-61315701D01*
X91908324Y-61285324D01*
X91938701Y-61260394D01*
X91973365Y-61241866D01*
X92010976Y-61230457D01*
X92056227Y-61226000D01*
X92891773Y-61226000D01*
X92937024Y-61230457D01*
X92937024Y-61230457D01*
G37*
G36*
X98300000Y-62560000D02*
X96200000Y-62560000D01*
X96200000Y-61760000D01*
X98300000Y-61760000D01*
X98300000Y-62560000D01*
X98300000Y-62560000D01*
G37*
G36*
X79698000Y-61476000D02*
X78798000Y-61476000D01*
X78798000Y-60476000D01*
X79698000Y-60476000D01*
X79698000Y-61476000D01*
X79698000Y-61476000D01*
G37*
G36*
X98300000Y-61460000D02*
X96200000Y-61460000D01*
X96200000Y-60660000D01*
X98300000Y-60660000D01*
X98300000Y-61460000D01*
X98300000Y-61460000D01*
G37*
G36*
X52898348Y-59206597D02*
X52956858Y-59224347D01*
X53010777Y-59253167D01*
X53058043Y-59291957D01*
X53096833Y-59339223D01*
X53125653Y-59393142D01*
X53143403Y-59451652D01*
X53150000Y-59518639D01*
X53150000Y-60381361D01*
X53143403Y-60448348D01*
X53125653Y-60506858D01*
X53096833Y-60560777D01*
X53058043Y-60608043D01*
X53010777Y-60646833D01*
X52956858Y-60675653D01*
X52898348Y-60693403D01*
X52831361Y-60700000D01*
X51068639Y-60700000D01*
X51001652Y-60693403D01*
X50943142Y-60675653D01*
X50889223Y-60646833D01*
X50841957Y-60608043D01*
X50803167Y-60560777D01*
X50774347Y-60506858D01*
X50756597Y-60448348D01*
X50750000Y-60381361D01*
X50750000Y-59518639D01*
X50756597Y-59451652D01*
X50774347Y-59393142D01*
X50803167Y-59339223D01*
X50841957Y-59291957D01*
X50889223Y-59253167D01*
X50943142Y-59224347D01*
X51001652Y-59206597D01*
X51068639Y-59200000D01*
X52831361Y-59200000D01*
X52898348Y-59206597D01*
X52898348Y-59206597D01*
G37*
G36*
X56898348Y-59206597D02*
X56956858Y-59224347D01*
X57010777Y-59253167D01*
X57058043Y-59291957D01*
X57096833Y-59339223D01*
X57125653Y-59393142D01*
X57143403Y-59451652D01*
X57150000Y-59518639D01*
X57150000Y-60381361D01*
X57143403Y-60448348D01*
X57125653Y-60506858D01*
X57096833Y-60560777D01*
X57058043Y-60608043D01*
X57010777Y-60646833D01*
X56956858Y-60675653D01*
X56898348Y-60693403D01*
X56831361Y-60700000D01*
X55068639Y-60700000D01*
X55001652Y-60693403D01*
X54943142Y-60675653D01*
X54889223Y-60646833D01*
X54841957Y-60608043D01*
X54803167Y-60560777D01*
X54774347Y-60506858D01*
X54756597Y-60448348D01*
X54750000Y-60381361D01*
X54750000Y-59518639D01*
X54756597Y-59451652D01*
X54774347Y-59393142D01*
X54803167Y-59339223D01*
X54841957Y-59291957D01*
X54889223Y-59253167D01*
X54943142Y-59224347D01*
X55001652Y-59206597D01*
X55068639Y-59200000D01*
X56831361Y-59200000D01*
X56898348Y-59206597D01*
X56898348Y-59206597D01*
G37*
G36*
X76534024Y-59341457D02*
X76571635Y-59352866D01*
X76606299Y-59371394D01*
X76636676Y-59396324D01*
X76661606Y-59426701D01*
X76680134Y-59461365D01*
X76691543Y-59498976D01*
X76696000Y-59544227D01*
X76696000Y-60379773D01*
X76691543Y-60425024D01*
X76680134Y-60462635D01*
X76661606Y-60497299D01*
X76636676Y-60527676D01*
X76606299Y-60552606D01*
X76571635Y-60571134D01*
X76534024Y-60582543D01*
X76488773Y-60587000D01*
X75403227Y-60587000D01*
X75357976Y-60582543D01*
X75320365Y-60571134D01*
X75285701Y-60552606D01*
X75255324Y-60527676D01*
X75230394Y-60497299D01*
X75211866Y-60462635D01*
X75200457Y-60425024D01*
X75196000Y-60379773D01*
X75196000Y-59544227D01*
X75200457Y-59498976D01*
X75211866Y-59461365D01*
X75230394Y-59426701D01*
X75255324Y-59396324D01*
X75285701Y-59371394D01*
X75320365Y-59352866D01*
X75357976Y-59341457D01*
X75403227Y-59337000D01*
X76488773Y-59337000D01*
X76534024Y-59341457D01*
X76534024Y-59341457D01*
G37*
G36*
X98300000Y-60360000D02*
X96200000Y-60360000D01*
X96200000Y-59560000D01*
X98300000Y-59560000D01*
X98300000Y-60360000D01*
X98300000Y-60360000D01*
G37*
G36*
X98300000Y-59260000D02*
X96200000Y-59260000D01*
X96200000Y-58460000D01*
X98300000Y-58460000D01*
X98300000Y-59260000D01*
X98300000Y-59260000D01*
G37*
G36*
X74725000Y-58700000D02*
X68875000Y-58700000D01*
X68875000Y-57300000D01*
X74725000Y-57300000D01*
X74725000Y-58700000D01*
X74725000Y-58700000D01*
G37*
G36*
X65741024Y-57166457D02*
X65778635Y-57177866D01*
X65813299Y-57196394D01*
X65843676Y-57221324D01*
X65868606Y-57251701D01*
X65887134Y-57286365D01*
X65898543Y-57323976D01*
X65903000Y-57369227D01*
X65903000Y-58454773D01*
X65898543Y-58500024D01*
X65887134Y-58537635D01*
X65868606Y-58572299D01*
X65843676Y-58602676D01*
X65813299Y-58627606D01*
X65778635Y-58646134D01*
X65741024Y-58657543D01*
X65695773Y-58662000D01*
X64860227Y-58662000D01*
X64814976Y-58657543D01*
X64777365Y-58646134D01*
X64742701Y-58627606D01*
X64712324Y-58602676D01*
X64687394Y-58572299D01*
X64668866Y-58537635D01*
X64657457Y-58500024D01*
X64653000Y-58454773D01*
X64653000Y-57369227D01*
X64657457Y-57323976D01*
X64668866Y-57286365D01*
X64687394Y-57251701D01*
X64712324Y-57221324D01*
X64742701Y-57196394D01*
X64777365Y-57177866D01*
X64814976Y-57166457D01*
X64860227Y-57162000D01*
X65695773Y-57162000D01*
X65741024Y-57166457D01*
X65741024Y-57166457D01*
G37*
G36*
X67791024Y-57166457D02*
X67828635Y-57177866D01*
X67863299Y-57196394D01*
X67893676Y-57221324D01*
X67918606Y-57251701D01*
X67937134Y-57286365D01*
X67948543Y-57323976D01*
X67953000Y-57369227D01*
X67953000Y-58454773D01*
X67948543Y-58500024D01*
X67937134Y-58537635D01*
X67918606Y-58572299D01*
X67893676Y-58602676D01*
X67863299Y-58627606D01*
X67828635Y-58646134D01*
X67791024Y-58657543D01*
X67745773Y-58662000D01*
X66910227Y-58662000D01*
X66864976Y-58657543D01*
X66827365Y-58646134D01*
X66792701Y-58627606D01*
X66762324Y-58602676D01*
X66737394Y-58572299D01*
X66718866Y-58537635D01*
X66707457Y-58500024D01*
X66703000Y-58454773D01*
X66703000Y-57369227D01*
X66707457Y-57323976D01*
X66718866Y-57286365D01*
X66737394Y-57251701D01*
X66762324Y-57221324D01*
X66792701Y-57196394D01*
X66827365Y-57177866D01*
X66864976Y-57166457D01*
X66910227Y-57162000D01*
X67745773Y-57162000D01*
X67791024Y-57166457D01*
X67791024Y-57166457D01*
G37*
G36*
X76534024Y-57291457D02*
X76571635Y-57302866D01*
X76606299Y-57321394D01*
X76636676Y-57346324D01*
X76661606Y-57376701D01*
X76680134Y-57411365D01*
X76691543Y-57448976D01*
X76696000Y-57494227D01*
X76696000Y-58329773D01*
X76691543Y-58375024D01*
X76680134Y-58412635D01*
X76661606Y-58447299D01*
X76636676Y-58477676D01*
X76606299Y-58502606D01*
X76571635Y-58521134D01*
X76534024Y-58532543D01*
X76488773Y-58537000D01*
X75403227Y-58537000D01*
X75357976Y-58532543D01*
X75320365Y-58521134D01*
X75285701Y-58502606D01*
X75255324Y-58477676D01*
X75230394Y-58447299D01*
X75211866Y-58412635D01*
X75200457Y-58375024D01*
X75196000Y-58329773D01*
X75196000Y-57494227D01*
X75200457Y-57448976D01*
X75211866Y-57411365D01*
X75230394Y-57376701D01*
X75255324Y-57346324D01*
X75285701Y-57321394D01*
X75320365Y-57302866D01*
X75357976Y-57291457D01*
X75403227Y-57287000D01*
X76488773Y-57287000D01*
X76534024Y-57291457D01*
X76534024Y-57291457D01*
G37*
G36*
X91673352Y-56942743D02*
X91818941Y-57003048D01*
X91949973Y-57090601D01*
X92061399Y-57202027D01*
X92148952Y-57333059D01*
X92209257Y-57478648D01*
X92240000Y-57633205D01*
X92240000Y-57790795D01*
X92209257Y-57945352D01*
X92148952Y-58090941D01*
X92061399Y-58221973D01*
X91949973Y-58333399D01*
X91818941Y-58420952D01*
X91673352Y-58481257D01*
X91518795Y-58512000D01*
X91361205Y-58512000D01*
X91206648Y-58481257D01*
X91061059Y-58420952D01*
X90930027Y-58333399D01*
X90818601Y-58221973D01*
X90731048Y-58090941D01*
X90670743Y-57945352D01*
X90640000Y-57790795D01*
X90640000Y-57633205D01*
X90670743Y-57478648D01*
X90731048Y-57333059D01*
X90818601Y-57202027D01*
X90930027Y-57090601D01*
X91061059Y-57003048D01*
X91206648Y-56942743D01*
X91361205Y-56912000D01*
X91518795Y-56912000D01*
X91673352Y-56942743D01*
X91673352Y-56942743D01*
G37*
G36*
X60163024Y-56754457D02*
X60200635Y-56765866D01*
X60235299Y-56784394D01*
X60265676Y-56809324D01*
X60290606Y-56839701D01*
X60309134Y-56874365D01*
X60320543Y-56911976D01*
X60325000Y-56957227D01*
X60325000Y-58042773D01*
X60320543Y-58088024D01*
X60309134Y-58125635D01*
X60290606Y-58160299D01*
X60265676Y-58190676D01*
X60235299Y-58215606D01*
X60200635Y-58234134D01*
X60163024Y-58245543D01*
X60117773Y-58250000D01*
X59282227Y-58250000D01*
X59236976Y-58245543D01*
X59199365Y-58234134D01*
X59164701Y-58215606D01*
X59134324Y-58190676D01*
X59109394Y-58160299D01*
X59090866Y-58125635D01*
X59079457Y-58088024D01*
X59075000Y-58042773D01*
X59075000Y-56957227D01*
X59079457Y-56911976D01*
X59090866Y-56874365D01*
X59109394Y-56839701D01*
X59134324Y-56809324D01*
X59164701Y-56784394D01*
X59199365Y-56765866D01*
X59236976Y-56754457D01*
X59282227Y-56750000D01*
X60117773Y-56750000D01*
X60163024Y-56754457D01*
X60163024Y-56754457D01*
G37*
G36*
X62213024Y-56754457D02*
X62250635Y-56765866D01*
X62285299Y-56784394D01*
X62315676Y-56809324D01*
X62340606Y-56839701D01*
X62359134Y-56874365D01*
X62370543Y-56911976D01*
X62375000Y-56957227D01*
X62375000Y-58042773D01*
X62370543Y-58088024D01*
X62359134Y-58125635D01*
X62340606Y-58160299D01*
X62315676Y-58190676D01*
X62285299Y-58215606D01*
X62250635Y-58234134D01*
X62213024Y-58245543D01*
X62167773Y-58250000D01*
X61332227Y-58250000D01*
X61286976Y-58245543D01*
X61249365Y-58234134D01*
X61214701Y-58215606D01*
X61184324Y-58190676D01*
X61159394Y-58160299D01*
X61140866Y-58125635D01*
X61129457Y-58088024D01*
X61125000Y-58042773D01*
X61125000Y-56957227D01*
X61129457Y-56911976D01*
X61140866Y-56874365D01*
X61159394Y-56839701D01*
X61184324Y-56809324D01*
X61214701Y-56784394D01*
X61249365Y-56765866D01*
X61286976Y-56754457D01*
X61332227Y-56750000D01*
X62167773Y-56750000D01*
X62213024Y-56754457D01*
X62213024Y-56754457D01*
G37*
G36*
X98300000Y-58160000D02*
X96200000Y-58160000D01*
X96200000Y-57360000D01*
X98300000Y-57360000D01*
X98300000Y-58160000D01*
X98300000Y-58160000D01*
G37*
G36*
X108039590Y-56417045D02*
X108110429Y-56431136D01*
X108210523Y-56472597D01*
X108300607Y-56532789D01*
X108377211Y-56609393D01*
X108377213Y-56609396D01*
X108437403Y-56699477D01*
X108478864Y-56799571D01*
X108500000Y-56905830D01*
X108500000Y-57014170D01*
X108478864Y-57120429D01*
X108455072Y-57177866D01*
X108437403Y-57220523D01*
X108377211Y-57310607D01*
X108300607Y-57387211D01*
X108300604Y-57387213D01*
X108210523Y-57447403D01*
X108110429Y-57488864D01*
X108039590Y-57502955D01*
X108004171Y-57510000D01*
X107895829Y-57510000D01*
X107860410Y-57502955D01*
X107789571Y-57488864D01*
X107689477Y-57447403D01*
X107599396Y-57387213D01*
X107599393Y-57387211D01*
X107522789Y-57310607D01*
X107462597Y-57220523D01*
X107444928Y-57177866D01*
X107421136Y-57120429D01*
X107400000Y-57014170D01*
X107400000Y-56905830D01*
X107421136Y-56799571D01*
X107462597Y-56699477D01*
X107522787Y-56609396D01*
X107522789Y-56609393D01*
X107599393Y-56532789D01*
X107689477Y-56472597D01*
X107789571Y-56431136D01*
X107860410Y-56417045D01*
X107895829Y-56410000D01*
X108004171Y-56410000D01*
X108039590Y-56417045D01*
X108039590Y-56417045D01*
G37*
G36*
X76850000Y-56575000D02*
X75450000Y-56575000D01*
X75450000Y-50725000D01*
X76850000Y-50725000D01*
X76850000Y-56575000D01*
X76850000Y-56575000D01*
G37*
G36*
X68150000Y-56575000D02*
X66750000Y-56575000D01*
X66750000Y-50725000D01*
X68150000Y-50725000D01*
X68150000Y-56575000D01*
X68150000Y-56575000D01*
G37*
G36*
X57700000Y-56575000D02*
X55900000Y-56575000D01*
X55900000Y-53425000D01*
X57700000Y-53425000D01*
X57700000Y-56575000D01*
X57700000Y-56575000D01*
G37*
G36*
X87964024Y-55268457D02*
X88001635Y-55279866D01*
X88036299Y-55298394D01*
X88066676Y-55323324D01*
X88091606Y-55353701D01*
X88110134Y-55388365D01*
X88121543Y-55425976D01*
X88126000Y-55471227D01*
X88126000Y-56306773D01*
X88121543Y-56352024D01*
X88110134Y-56389635D01*
X88091606Y-56424299D01*
X88066676Y-56454676D01*
X88036299Y-56479606D01*
X88001635Y-56498134D01*
X87964024Y-56509543D01*
X87918773Y-56514000D01*
X86833227Y-56514000D01*
X86787976Y-56509543D01*
X86750365Y-56498134D01*
X86715701Y-56479606D01*
X86685324Y-56454676D01*
X86660394Y-56424299D01*
X86641866Y-56389635D01*
X86630457Y-56352024D01*
X86626000Y-56306773D01*
X86626000Y-55471227D01*
X86630457Y-55425976D01*
X86641866Y-55388365D01*
X86660394Y-55353701D01*
X86685324Y-55323324D01*
X86715701Y-55298394D01*
X86750365Y-55279866D01*
X86787976Y-55268457D01*
X86833227Y-55264000D01*
X87918773Y-55264000D01*
X87964024Y-55268457D01*
X87964024Y-55268457D01*
G37*
G36*
X84662024Y-55268457D02*
X84699635Y-55279866D01*
X84734299Y-55298394D01*
X84764676Y-55323324D01*
X84789606Y-55353701D01*
X84808134Y-55388365D01*
X84819543Y-55425976D01*
X84824000Y-55471227D01*
X84824000Y-56306773D01*
X84819543Y-56352024D01*
X84808134Y-56389635D01*
X84789606Y-56424299D01*
X84764676Y-56454676D01*
X84734299Y-56479606D01*
X84699635Y-56498134D01*
X84662024Y-56509543D01*
X84616773Y-56514000D01*
X83531227Y-56514000D01*
X83485976Y-56509543D01*
X83448365Y-56498134D01*
X83413701Y-56479606D01*
X83383324Y-56454676D01*
X83358394Y-56424299D01*
X83339866Y-56389635D01*
X83328457Y-56352024D01*
X83324000Y-56306773D01*
X83324000Y-55471227D01*
X83328457Y-55425976D01*
X83339866Y-55388365D01*
X83358394Y-55353701D01*
X83383324Y-55323324D01*
X83413701Y-55298394D01*
X83448365Y-55279866D01*
X83485976Y-55268457D01*
X83531227Y-55264000D01*
X84616773Y-55264000D01*
X84662024Y-55268457D01*
X84662024Y-55268457D01*
G37*
G36*
X60163024Y-54854457D02*
X60200635Y-54865866D01*
X60235299Y-54884394D01*
X60265676Y-54909324D01*
X60290606Y-54939701D01*
X60309134Y-54974365D01*
X60320543Y-55011976D01*
X60325000Y-55057227D01*
X60325000Y-56142773D01*
X60320543Y-56188024D01*
X60309134Y-56225635D01*
X60290606Y-56260299D01*
X60265676Y-56290676D01*
X60235299Y-56315606D01*
X60200635Y-56334134D01*
X60163024Y-56345543D01*
X60117773Y-56350000D01*
X59282227Y-56350000D01*
X59236976Y-56345543D01*
X59199365Y-56334134D01*
X59164701Y-56315606D01*
X59134324Y-56290676D01*
X59109394Y-56260299D01*
X59090866Y-56225635D01*
X59079457Y-56188024D01*
X59075000Y-56142773D01*
X59075000Y-55057227D01*
X59079457Y-55011976D01*
X59090866Y-54974365D01*
X59109394Y-54939701D01*
X59134324Y-54909324D01*
X59164701Y-54884394D01*
X59199365Y-54865866D01*
X59236976Y-54854457D01*
X59282227Y-54850000D01*
X60117773Y-54850000D01*
X60163024Y-54854457D01*
X60163024Y-54854457D01*
G37*
G36*
X62213024Y-54854457D02*
X62250635Y-54865866D01*
X62285299Y-54884394D01*
X62315676Y-54909324D01*
X62340606Y-54939701D01*
X62359134Y-54974365D01*
X62370543Y-55011976D01*
X62375000Y-55057227D01*
X62375000Y-56142773D01*
X62370543Y-56188024D01*
X62359134Y-56225635D01*
X62340606Y-56260299D01*
X62315676Y-56290676D01*
X62285299Y-56315606D01*
X62250635Y-56334134D01*
X62213024Y-56345543D01*
X62167773Y-56350000D01*
X61332227Y-56350000D01*
X61286976Y-56345543D01*
X61249365Y-56334134D01*
X61214701Y-56315606D01*
X61184324Y-56290676D01*
X61159394Y-56260299D01*
X61140866Y-56225635D01*
X61129457Y-56188024D01*
X61125000Y-56142773D01*
X61125000Y-55057227D01*
X61129457Y-55011976D01*
X61140866Y-54974365D01*
X61159394Y-54939701D01*
X61184324Y-54909324D01*
X61214701Y-54884394D01*
X61249365Y-54865866D01*
X61286976Y-54854457D01*
X61332227Y-54850000D01*
X62167773Y-54850000D01*
X62213024Y-54854457D01*
X62213024Y-54854457D01*
G37*
G36*
X62213024Y-53004457D02*
X62250635Y-53015866D01*
X62285299Y-53034394D01*
X62315676Y-53059324D01*
X62340606Y-53089701D01*
X62359134Y-53124365D01*
X62370543Y-53161976D01*
X62375000Y-53207227D01*
X62375000Y-54292773D01*
X62370543Y-54338024D01*
X62359134Y-54375635D01*
X62340606Y-54410299D01*
X62315676Y-54440676D01*
X62285299Y-54465606D01*
X62250635Y-54484134D01*
X62213024Y-54495543D01*
X62167773Y-54500000D01*
X61332227Y-54500000D01*
X61286976Y-54495543D01*
X61249365Y-54484134D01*
X61214701Y-54465606D01*
X61184324Y-54440676D01*
X61159394Y-54410299D01*
X61140866Y-54375635D01*
X61129457Y-54338024D01*
X61125000Y-54292773D01*
X61125000Y-53207227D01*
X61129457Y-53161976D01*
X61140866Y-53124365D01*
X61159394Y-53089701D01*
X61184324Y-53059324D01*
X61214701Y-53034394D01*
X61249365Y-53015866D01*
X61286976Y-53004457D01*
X61332227Y-53000000D01*
X62167773Y-53000000D01*
X62213024Y-53004457D01*
X62213024Y-53004457D01*
G37*
G36*
X60163024Y-53004457D02*
X60200635Y-53015866D01*
X60235299Y-53034394D01*
X60265676Y-53059324D01*
X60290606Y-53089701D01*
X60309134Y-53124365D01*
X60320543Y-53161976D01*
X60325000Y-53207227D01*
X60325000Y-54292773D01*
X60320543Y-54338024D01*
X60309134Y-54375635D01*
X60290606Y-54410299D01*
X60265676Y-54440676D01*
X60235299Y-54465606D01*
X60200635Y-54484134D01*
X60163024Y-54495543D01*
X60117773Y-54500000D01*
X59282227Y-54500000D01*
X59236976Y-54495543D01*
X59199365Y-54484134D01*
X59164701Y-54465606D01*
X59134324Y-54440676D01*
X59109394Y-54410299D01*
X59090866Y-54375635D01*
X59079457Y-54338024D01*
X59075000Y-54292773D01*
X59075000Y-53207227D01*
X59079457Y-53161976D01*
X59090866Y-53124365D01*
X59109394Y-53089701D01*
X59134324Y-53059324D01*
X59164701Y-53034394D01*
X59199365Y-53015866D01*
X59236976Y-53004457D01*
X59282227Y-53000000D01*
X60117773Y-53000000D01*
X60163024Y-53004457D01*
X60163024Y-53004457D01*
G37*
G36*
X84662024Y-53218457D02*
X84699635Y-53229866D01*
X84734299Y-53248394D01*
X84764676Y-53273324D01*
X84789606Y-53303701D01*
X84808134Y-53338365D01*
X84819543Y-53375976D01*
X84824000Y-53421227D01*
X84824000Y-54256773D01*
X84819543Y-54302024D01*
X84808134Y-54339635D01*
X84789606Y-54374299D01*
X84764676Y-54404676D01*
X84734299Y-54429606D01*
X84699635Y-54448134D01*
X84662024Y-54459543D01*
X84616773Y-54464000D01*
X83531227Y-54464000D01*
X83485976Y-54459543D01*
X83448365Y-54448134D01*
X83413701Y-54429606D01*
X83383324Y-54404676D01*
X83358394Y-54374299D01*
X83339866Y-54339635D01*
X83328457Y-54302024D01*
X83324000Y-54256773D01*
X83324000Y-53421227D01*
X83328457Y-53375976D01*
X83339866Y-53338365D01*
X83358394Y-53303701D01*
X83383324Y-53273324D01*
X83413701Y-53248394D01*
X83448365Y-53229866D01*
X83485976Y-53218457D01*
X83531227Y-53214000D01*
X84616773Y-53214000D01*
X84662024Y-53218457D01*
X84662024Y-53218457D01*
G37*
G36*
X87964024Y-53218457D02*
X88001635Y-53229866D01*
X88036299Y-53248394D01*
X88066676Y-53273324D01*
X88091606Y-53303701D01*
X88110134Y-53338365D01*
X88121543Y-53375976D01*
X88126000Y-53421227D01*
X88126000Y-54256773D01*
X88121543Y-54302024D01*
X88110134Y-54339635D01*
X88091606Y-54374299D01*
X88066676Y-54404676D01*
X88036299Y-54429606D01*
X88001635Y-54448134D01*
X87964024Y-54459543D01*
X87918773Y-54464000D01*
X86833227Y-54464000D01*
X86787976Y-54459543D01*
X86750365Y-54448134D01*
X86715701Y-54429606D01*
X86685324Y-54404676D01*
X86660394Y-54374299D01*
X86641866Y-54339635D01*
X86630457Y-54302024D01*
X86626000Y-54256773D01*
X86626000Y-53421227D01*
X86630457Y-53375976D01*
X86641866Y-53338365D01*
X86660394Y-53303701D01*
X86685324Y-53273324D01*
X86715701Y-53248394D01*
X86750365Y-53229866D01*
X86787976Y-53218457D01*
X86833227Y-53214000D01*
X87918773Y-53214000D01*
X87964024Y-53218457D01*
X87964024Y-53218457D01*
G37*
G36*
X98700000Y-54010000D02*
X97200000Y-54010000D01*
X97200000Y-51710000D01*
X98700000Y-51710000D01*
X98700000Y-54010000D01*
X98700000Y-54010000D01*
G37*
G36*
X91673352Y-52062743D02*
X91818941Y-52123048D01*
X91949973Y-52210601D01*
X92061399Y-52322027D01*
X92148952Y-52453059D01*
X92209257Y-52598648D01*
X92240000Y-52753205D01*
X92240000Y-52910795D01*
X92209257Y-53065352D01*
X92148952Y-53210941D01*
X92061399Y-53341973D01*
X91949973Y-53453399D01*
X91818941Y-53540952D01*
X91673352Y-53601257D01*
X91518795Y-53632000D01*
X91361205Y-53632000D01*
X91206648Y-53601257D01*
X91061059Y-53540952D01*
X90930027Y-53453399D01*
X90818601Y-53341973D01*
X90731048Y-53210941D01*
X90670743Y-53065352D01*
X90640000Y-52910795D01*
X90640000Y-52753205D01*
X90670743Y-52598648D01*
X90731048Y-52453059D01*
X90818601Y-52322027D01*
X90930027Y-52210601D01*
X91061059Y-52123048D01*
X91206648Y-52062743D01*
X91361205Y-52032000D01*
X91518795Y-52032000D01*
X91673352Y-52062743D01*
X91673352Y-52062743D01*
G37*
G36*
X79582024Y-51703457D02*
X79619635Y-51714866D01*
X79654299Y-51733394D01*
X79684676Y-51758324D01*
X79709606Y-51788701D01*
X79728134Y-51823365D01*
X79739543Y-51860976D01*
X79744000Y-51906227D01*
X79744000Y-52741773D01*
X79739543Y-52787024D01*
X79728134Y-52824635D01*
X79709606Y-52859299D01*
X79684676Y-52889676D01*
X79654299Y-52914606D01*
X79619635Y-52933134D01*
X79582024Y-52944543D01*
X79536773Y-52949000D01*
X78451227Y-52949000D01*
X78405976Y-52944543D01*
X78368365Y-52933134D01*
X78333701Y-52914606D01*
X78303324Y-52889676D01*
X78278394Y-52859299D01*
X78259866Y-52824635D01*
X78248457Y-52787024D01*
X78244000Y-52741773D01*
X78244000Y-51906227D01*
X78248457Y-51860976D01*
X78259866Y-51823365D01*
X78278394Y-51788701D01*
X78303324Y-51758324D01*
X78333701Y-51733394D01*
X78368365Y-51714866D01*
X78405976Y-51703457D01*
X78451227Y-51699000D01*
X79536773Y-51699000D01*
X79582024Y-51703457D01*
X79582024Y-51703457D01*
G37*
G36*
X108700000Y-52810000D02*
X106400000Y-52810000D01*
X106400000Y-50510000D01*
X108700000Y-50510000D01*
X108700000Y-52810000D01*
X108700000Y-52810000D01*
G37*
G36*
X79582024Y-49653457D02*
X79619635Y-49664866D01*
X79654299Y-49683394D01*
X79684676Y-49708324D01*
X79709606Y-49738701D01*
X79728134Y-49773365D01*
X79739543Y-49810976D01*
X79744000Y-49856227D01*
X79744000Y-50691773D01*
X79739543Y-50737024D01*
X79728134Y-50774635D01*
X79709606Y-50809299D01*
X79684676Y-50839676D01*
X79654299Y-50864606D01*
X79619635Y-50883134D01*
X79582024Y-50894543D01*
X79536773Y-50899000D01*
X78451227Y-50899000D01*
X78405976Y-50894543D01*
X78368365Y-50883134D01*
X78333701Y-50864606D01*
X78303324Y-50839676D01*
X78278394Y-50809299D01*
X78259866Y-50774635D01*
X78248457Y-50737024D01*
X78244000Y-50691773D01*
X78244000Y-49856227D01*
X78248457Y-49810976D01*
X78259866Y-49773365D01*
X78278394Y-49738701D01*
X78303324Y-49708324D01*
X78333701Y-49683394D01*
X78368365Y-49664866D01*
X78405976Y-49653457D01*
X78451227Y-49649000D01*
X79536773Y-49649000D01*
X79582024Y-49653457D01*
X79582024Y-49653457D01*
G37*
G36*
X52898348Y-49306597D02*
X52956858Y-49324347D01*
X53010777Y-49353167D01*
X53058043Y-49391957D01*
X53096833Y-49439223D01*
X53125653Y-49493142D01*
X53143403Y-49551652D01*
X53150000Y-49618639D01*
X53150000Y-50481361D01*
X53143403Y-50548348D01*
X53125653Y-50606858D01*
X53096833Y-50660777D01*
X53058043Y-50708043D01*
X53010777Y-50746833D01*
X52956858Y-50775653D01*
X52898348Y-50793403D01*
X52831361Y-50800000D01*
X51068639Y-50800000D01*
X51001652Y-50793403D01*
X50943142Y-50775653D01*
X50889223Y-50746833D01*
X50841957Y-50708043D01*
X50803167Y-50660777D01*
X50774347Y-50606858D01*
X50756597Y-50548348D01*
X50750000Y-50481361D01*
X50750000Y-49618639D01*
X50756597Y-49551652D01*
X50774347Y-49493142D01*
X50803167Y-49439223D01*
X50841957Y-49391957D01*
X50889223Y-49353167D01*
X50943142Y-49324347D01*
X51001652Y-49306597D01*
X51068639Y-49300000D01*
X52831361Y-49300000D01*
X52898348Y-49306597D01*
X52898348Y-49306597D01*
G37*
G36*
X56898348Y-49306597D02*
X56956858Y-49324347D01*
X57010777Y-49353167D01*
X57058043Y-49391957D01*
X57096833Y-49439223D01*
X57125653Y-49493142D01*
X57143403Y-49551652D01*
X57150000Y-49618639D01*
X57150000Y-50481361D01*
X57143403Y-50548348D01*
X57125653Y-50606858D01*
X57096833Y-50660777D01*
X57058043Y-50708043D01*
X57010777Y-50746833D01*
X56956858Y-50775653D01*
X56898348Y-50793403D01*
X56831361Y-50800000D01*
X55068639Y-50800000D01*
X55001652Y-50793403D01*
X54943142Y-50775653D01*
X54889223Y-50746833D01*
X54841957Y-50708043D01*
X54803167Y-50660777D01*
X54774347Y-50606858D01*
X54756597Y-50548348D01*
X54750000Y-50481361D01*
X54750000Y-49618639D01*
X54756597Y-49551652D01*
X54774347Y-49493142D01*
X54803167Y-49439223D01*
X54841957Y-49391957D01*
X54889223Y-49353167D01*
X54943142Y-49324347D01*
X55001652Y-49306597D01*
X55068639Y-49300000D01*
X56831361Y-49300000D01*
X56898348Y-49306597D01*
X56898348Y-49306597D01*
G37*
G36*
X65866024Y-49435457D02*
X65903635Y-49446866D01*
X65938299Y-49465394D01*
X65968676Y-49490324D01*
X65993606Y-49520701D01*
X66012134Y-49555365D01*
X66023543Y-49592976D01*
X66028000Y-49638227D01*
X66028000Y-50473773D01*
X66023543Y-50519024D01*
X66012134Y-50556635D01*
X65993606Y-50591299D01*
X65968676Y-50621676D01*
X65938299Y-50646606D01*
X65903635Y-50665134D01*
X65866024Y-50676543D01*
X65820773Y-50681000D01*
X64735227Y-50681000D01*
X64689976Y-50676543D01*
X64652365Y-50665134D01*
X64617701Y-50646606D01*
X64587324Y-50621676D01*
X64562394Y-50591299D01*
X64543866Y-50556635D01*
X64532457Y-50519024D01*
X64528000Y-50473773D01*
X64528000Y-49638227D01*
X64532457Y-49592976D01*
X64543866Y-49555365D01*
X64562394Y-49520701D01*
X64587324Y-49490324D01*
X64617701Y-49465394D01*
X64652365Y-49446866D01*
X64689976Y-49435457D01*
X64735227Y-49431000D01*
X65820773Y-49431000D01*
X65866024Y-49435457D01*
X65866024Y-49435457D01*
G37*
G36*
X59770024Y-49435457D02*
X59807635Y-49446866D01*
X59842299Y-49465394D01*
X59872676Y-49490324D01*
X59897606Y-49520701D01*
X59916134Y-49555365D01*
X59927543Y-49592976D01*
X59932000Y-49638227D01*
X59932000Y-50473773D01*
X59927543Y-50519024D01*
X59916134Y-50556635D01*
X59897606Y-50591299D01*
X59872676Y-50621676D01*
X59842299Y-50646606D01*
X59807635Y-50665134D01*
X59770024Y-50676543D01*
X59724773Y-50681000D01*
X58639227Y-50681000D01*
X58593976Y-50676543D01*
X58556365Y-50665134D01*
X58521701Y-50646606D01*
X58491324Y-50621676D01*
X58466394Y-50591299D01*
X58447866Y-50556635D01*
X58436457Y-50519024D01*
X58432000Y-50473773D01*
X58432000Y-49638227D01*
X58436457Y-49592976D01*
X58447866Y-49555365D01*
X58466394Y-49520701D01*
X58491324Y-49490324D01*
X58521701Y-49465394D01*
X58556365Y-49446866D01*
X58593976Y-49435457D01*
X58639227Y-49431000D01*
X59724773Y-49431000D01*
X59770024Y-49435457D01*
X59770024Y-49435457D01*
G37*
G36*
X63834024Y-49426457D02*
X63871635Y-49437866D01*
X63906299Y-49456394D01*
X63936676Y-49481324D01*
X63961606Y-49511701D01*
X63980134Y-49546365D01*
X63991543Y-49583976D01*
X63996000Y-49629227D01*
X63996000Y-50464773D01*
X63991543Y-50510024D01*
X63980134Y-50547635D01*
X63961606Y-50582299D01*
X63936676Y-50612676D01*
X63906299Y-50637606D01*
X63871635Y-50656134D01*
X63834024Y-50667543D01*
X63788773Y-50672000D01*
X62703227Y-50672000D01*
X62657976Y-50667543D01*
X62620365Y-50656134D01*
X62585701Y-50637606D01*
X62555324Y-50612676D01*
X62530394Y-50582299D01*
X62511866Y-50547635D01*
X62500457Y-50510024D01*
X62496000Y-50464773D01*
X62496000Y-49629227D01*
X62500457Y-49583976D01*
X62511866Y-49546365D01*
X62530394Y-49511701D01*
X62555324Y-49481324D01*
X62585701Y-49456394D01*
X62620365Y-49437866D01*
X62657976Y-49426457D01*
X62703227Y-49422000D01*
X63788773Y-49422000D01*
X63834024Y-49426457D01*
X63834024Y-49426457D01*
G37*
G36*
X61802024Y-49417457D02*
X61839635Y-49428866D01*
X61874299Y-49447394D01*
X61904676Y-49472324D01*
X61929606Y-49502701D01*
X61948134Y-49537365D01*
X61959543Y-49574976D01*
X61964000Y-49620227D01*
X61964000Y-50455773D01*
X61959543Y-50501024D01*
X61948134Y-50538635D01*
X61929606Y-50573299D01*
X61904676Y-50603676D01*
X61874299Y-50628606D01*
X61839635Y-50647134D01*
X61802024Y-50658543D01*
X61756773Y-50663000D01*
X60671227Y-50663000D01*
X60625976Y-50658543D01*
X60588365Y-50647134D01*
X60553701Y-50628606D01*
X60523324Y-50603676D01*
X60498394Y-50573299D01*
X60479866Y-50538635D01*
X60468457Y-50501024D01*
X60464000Y-50455773D01*
X60464000Y-49620227D01*
X60468457Y-49574976D01*
X60479866Y-49537365D01*
X60498394Y-49502701D01*
X60523324Y-49472324D01*
X60553701Y-49447394D01*
X60588365Y-49428866D01*
X60625976Y-49417457D01*
X60671227Y-49413000D01*
X61756773Y-49413000D01*
X61802024Y-49417457D01*
X61802024Y-49417457D01*
G37*
G36*
X74725000Y-50000000D02*
X68875000Y-50000000D01*
X68875000Y-48600000D01*
X74725000Y-48600000D01*
X74725000Y-50000000D01*
X74725000Y-50000000D01*
G37*
G36*
X96644908Y-46634275D02*
X96826274Y-46670350D01*
X97017362Y-46749502D01*
X97189336Y-46864411D01*
X97335589Y-47010664D01*
X97450498Y-47182638D01*
X97529650Y-47373726D01*
X97570000Y-47576584D01*
X97570000Y-47783416D01*
X97529650Y-47986274D01*
X97450498Y-48177362D01*
X97335589Y-48349336D01*
X97189336Y-48495589D01*
X97017362Y-48610498D01*
X96826274Y-48689650D01*
X96645888Y-48725530D01*
X96623417Y-48730000D01*
X96416583Y-48730000D01*
X96394112Y-48725530D01*
X96213726Y-48689650D01*
X96022638Y-48610498D01*
X95850664Y-48495589D01*
X95704411Y-48349336D01*
X95589502Y-48177362D01*
X95510350Y-47986274D01*
X95470000Y-47783416D01*
X95470000Y-47576584D01*
X95510350Y-47373726D01*
X95589502Y-47182638D01*
X95704411Y-47010664D01*
X95850664Y-46864411D01*
X96022638Y-46749502D01*
X96213726Y-46670350D01*
X96395092Y-46634275D01*
X96416583Y-46630000D01*
X96623417Y-46630000D01*
X96644908Y-46634275D01*
X96644908Y-46634275D01*
G37*
G36*
X103144908Y-46634275D02*
X103326274Y-46670350D01*
X103517362Y-46749502D01*
X103689336Y-46864411D01*
X103835589Y-47010664D01*
X103950498Y-47182638D01*
X104029650Y-47373726D01*
X104070000Y-47576584D01*
X104070000Y-47783416D01*
X104029650Y-47986274D01*
X103950498Y-48177362D01*
X103835589Y-48349336D01*
X103689336Y-48495589D01*
X103517362Y-48610498D01*
X103326274Y-48689650D01*
X103145888Y-48725530D01*
X103123417Y-48730000D01*
X102916583Y-48730000D01*
X102894112Y-48725530D01*
X102713726Y-48689650D01*
X102522638Y-48610498D01*
X102350664Y-48495589D01*
X102204411Y-48349336D01*
X102089502Y-48177362D01*
X102010350Y-47986274D01*
X101970000Y-47783416D01*
X101970000Y-47576584D01*
X102010350Y-47373726D01*
X102089502Y-47182638D01*
X102204411Y-47010664D01*
X102350664Y-46864411D01*
X102522638Y-46749502D01*
X102713726Y-46670350D01*
X102895092Y-46634275D01*
X102916583Y-46630000D01*
X103123417Y-46630000D01*
X103144908Y-46634275D01*
X103144908Y-46634275D01*
G37*
G36*
X59770024Y-47385457D02*
X59807635Y-47396866D01*
X59842299Y-47415394D01*
X59872676Y-47440324D01*
X59897606Y-47470701D01*
X59916134Y-47505365D01*
X59927543Y-47542976D01*
X59932000Y-47588227D01*
X59932000Y-48423773D01*
X59927543Y-48469024D01*
X59916134Y-48506635D01*
X59897606Y-48541299D01*
X59872676Y-48571676D01*
X59842299Y-48596606D01*
X59807635Y-48615134D01*
X59770024Y-48626543D01*
X59724773Y-48631000D01*
X58639227Y-48631000D01*
X58593976Y-48626543D01*
X58556365Y-48615134D01*
X58521701Y-48596606D01*
X58491324Y-48571676D01*
X58466394Y-48541299D01*
X58447866Y-48506635D01*
X58436457Y-48469024D01*
X58432000Y-48423773D01*
X58432000Y-47588227D01*
X58436457Y-47542976D01*
X58447866Y-47505365D01*
X58466394Y-47470701D01*
X58491324Y-47440324D01*
X58521701Y-47415394D01*
X58556365Y-47396866D01*
X58593976Y-47385457D01*
X58639227Y-47381000D01*
X59724773Y-47381000D01*
X59770024Y-47385457D01*
X59770024Y-47385457D01*
G37*
G36*
X65866024Y-47385457D02*
X65903635Y-47396866D01*
X65938299Y-47415394D01*
X65968676Y-47440324D01*
X65993606Y-47470701D01*
X66012134Y-47505365D01*
X66023543Y-47542976D01*
X66028000Y-47588227D01*
X66028000Y-48423773D01*
X66023543Y-48469024D01*
X66012134Y-48506635D01*
X65993606Y-48541299D01*
X65968676Y-48571676D01*
X65938299Y-48596606D01*
X65903635Y-48615134D01*
X65866024Y-48626543D01*
X65820773Y-48631000D01*
X64735227Y-48631000D01*
X64689976Y-48626543D01*
X64652365Y-48615134D01*
X64617701Y-48596606D01*
X64587324Y-48571676D01*
X64562394Y-48541299D01*
X64543866Y-48506635D01*
X64532457Y-48469024D01*
X64528000Y-48423773D01*
X64528000Y-47588227D01*
X64532457Y-47542976D01*
X64543866Y-47505365D01*
X64562394Y-47470701D01*
X64587324Y-47440324D01*
X64617701Y-47415394D01*
X64652365Y-47396866D01*
X64689976Y-47385457D01*
X64735227Y-47381000D01*
X65820773Y-47381000D01*
X65866024Y-47385457D01*
X65866024Y-47385457D01*
G37*
G36*
X63834024Y-47376457D02*
X63871635Y-47387866D01*
X63906299Y-47406394D01*
X63936676Y-47431324D01*
X63961606Y-47461701D01*
X63980134Y-47496365D01*
X63991543Y-47533976D01*
X63996000Y-47579227D01*
X63996000Y-48414773D01*
X63991543Y-48460024D01*
X63980134Y-48497635D01*
X63961606Y-48532299D01*
X63936676Y-48562676D01*
X63906299Y-48587606D01*
X63871635Y-48606134D01*
X63834024Y-48617543D01*
X63788773Y-48622000D01*
X62703227Y-48622000D01*
X62657976Y-48617543D01*
X62620365Y-48606134D01*
X62585701Y-48587606D01*
X62555324Y-48562676D01*
X62530394Y-48532299D01*
X62511866Y-48497635D01*
X62500457Y-48460024D01*
X62496000Y-48414773D01*
X62496000Y-47579227D01*
X62500457Y-47533976D01*
X62511866Y-47496365D01*
X62530394Y-47461701D01*
X62555324Y-47431324D01*
X62585701Y-47406394D01*
X62620365Y-47387866D01*
X62657976Y-47376457D01*
X62703227Y-47372000D01*
X63788773Y-47372000D01*
X63834024Y-47376457D01*
X63834024Y-47376457D01*
G37*
G36*
X61802024Y-47367457D02*
X61839635Y-47378866D01*
X61874299Y-47397394D01*
X61904676Y-47422324D01*
X61929606Y-47452701D01*
X61948134Y-47487365D01*
X61959543Y-47524976D01*
X61964000Y-47570227D01*
X61964000Y-48405773D01*
X61959543Y-48451024D01*
X61948134Y-48488635D01*
X61929606Y-48523299D01*
X61904676Y-48553676D01*
X61874299Y-48578606D01*
X61839635Y-48597134D01*
X61802024Y-48608543D01*
X61756773Y-48613000D01*
X60671227Y-48613000D01*
X60625976Y-48608543D01*
X60588365Y-48597134D01*
X60553701Y-48578606D01*
X60523324Y-48553676D01*
X60498394Y-48523299D01*
X60479866Y-48488635D01*
X60468457Y-48451024D01*
X60464000Y-48405773D01*
X60464000Y-47570227D01*
X60468457Y-47524976D01*
X60479866Y-47487365D01*
X60498394Y-47452701D01*
X60523324Y-47422324D01*
X60553701Y-47397394D01*
X60588365Y-47378866D01*
X60625976Y-47367457D01*
X60671227Y-47363000D01*
X61756773Y-47363000D01*
X61802024Y-47367457D01*
X61802024Y-47367457D01*
G37*
G36*
X56851024Y-47006457D02*
X56888635Y-47017866D01*
X56923299Y-47036394D01*
X56953676Y-47061324D01*
X56978606Y-47091701D01*
X56997134Y-47126365D01*
X57008543Y-47163976D01*
X57013000Y-47209227D01*
X57013000Y-48294773D01*
X57008543Y-48340024D01*
X56997134Y-48377635D01*
X56978606Y-48412299D01*
X56953676Y-48442676D01*
X56923299Y-48467606D01*
X56888635Y-48486134D01*
X56851024Y-48497543D01*
X56805773Y-48502000D01*
X55970227Y-48502000D01*
X55924976Y-48497543D01*
X55887365Y-48486134D01*
X55852701Y-48467606D01*
X55822324Y-48442676D01*
X55797394Y-48412299D01*
X55778866Y-48377635D01*
X55767457Y-48340024D01*
X55763000Y-48294773D01*
X55763000Y-47209227D01*
X55767457Y-47163976D01*
X55778866Y-47126365D01*
X55797394Y-47091701D01*
X55822324Y-47061324D01*
X55852701Y-47036394D01*
X55887365Y-47017866D01*
X55924976Y-47006457D01*
X55970227Y-47002000D01*
X56805773Y-47002000D01*
X56851024Y-47006457D01*
X56851024Y-47006457D01*
G37*
G36*
X54801024Y-47006457D02*
X54838635Y-47017866D01*
X54873299Y-47036394D01*
X54903676Y-47061324D01*
X54928606Y-47091701D01*
X54947134Y-47126365D01*
X54958543Y-47163976D01*
X54963000Y-47209227D01*
X54963000Y-48294773D01*
X54958543Y-48340024D01*
X54947134Y-48377635D01*
X54928606Y-48412299D01*
X54903676Y-48442676D01*
X54873299Y-48467606D01*
X54838635Y-48486134D01*
X54801024Y-48497543D01*
X54755773Y-48502000D01*
X53920227Y-48502000D01*
X53874976Y-48497543D01*
X53837365Y-48486134D01*
X53802701Y-48467606D01*
X53772324Y-48442676D01*
X53747394Y-48412299D01*
X53728866Y-48377635D01*
X53717457Y-48340024D01*
X53713000Y-48294773D01*
X53713000Y-47209227D01*
X53717457Y-47163976D01*
X53728866Y-47126365D01*
X53747394Y-47091701D01*
X53772324Y-47061324D01*
X53802701Y-47036394D01*
X53837365Y-47017866D01*
X53874976Y-47006457D01*
X53920227Y-47002000D01*
X54755773Y-47002000D01*
X54801024Y-47006457D01*
X54801024Y-47006457D01*
G37*
G36*
X87964024Y-47149457D02*
X88001635Y-47160866D01*
X88036299Y-47179394D01*
X88066676Y-47204324D01*
X88091606Y-47234701D01*
X88110134Y-47269365D01*
X88121543Y-47306976D01*
X88126000Y-47352227D01*
X88126000Y-48187773D01*
X88121543Y-48233024D01*
X88110134Y-48270635D01*
X88091606Y-48305299D01*
X88066676Y-48335676D01*
X88036299Y-48360606D01*
X88001635Y-48379134D01*
X87964024Y-48390543D01*
X87918773Y-48395000D01*
X86833227Y-48395000D01*
X86787976Y-48390543D01*
X86750365Y-48379134D01*
X86715701Y-48360606D01*
X86685324Y-48335676D01*
X86660394Y-48305299D01*
X86641866Y-48270635D01*
X86630457Y-48233024D01*
X86626000Y-48187773D01*
X86626000Y-47352227D01*
X86630457Y-47306976D01*
X86641866Y-47269365D01*
X86660394Y-47234701D01*
X86685324Y-47204324D01*
X86715701Y-47179394D01*
X86750365Y-47160866D01*
X86787976Y-47149457D01*
X86833227Y-47145000D01*
X87918773Y-47145000D01*
X87964024Y-47149457D01*
X87964024Y-47149457D01*
G37*
G36*
X80852024Y-47131457D02*
X80889635Y-47142866D01*
X80924299Y-47161394D01*
X80954676Y-47186324D01*
X80979606Y-47216701D01*
X80998134Y-47251365D01*
X81009543Y-47288976D01*
X81014000Y-47334227D01*
X81014000Y-48169773D01*
X81009543Y-48215024D01*
X80998134Y-48252635D01*
X80979606Y-48287299D01*
X80954676Y-48317676D01*
X80924299Y-48342606D01*
X80889635Y-48361134D01*
X80852024Y-48372543D01*
X80806773Y-48377000D01*
X79721227Y-48377000D01*
X79675976Y-48372543D01*
X79638365Y-48361134D01*
X79603701Y-48342606D01*
X79573324Y-48317676D01*
X79548394Y-48287299D01*
X79529866Y-48252635D01*
X79518457Y-48215024D01*
X79514000Y-48169773D01*
X79514000Y-47334227D01*
X79518457Y-47288976D01*
X79529866Y-47251365D01*
X79548394Y-47216701D01*
X79573324Y-47186324D01*
X79603701Y-47161394D01*
X79638365Y-47142866D01*
X79675976Y-47131457D01*
X79721227Y-47127000D01*
X80806773Y-47127000D01*
X80852024Y-47131457D01*
X80852024Y-47131457D01*
G37*
G36*
X83300000Y-48061000D02*
X81640000Y-48061000D01*
X81640000Y-47311000D01*
X83300000Y-47311000D01*
X83300000Y-48061000D01*
X83300000Y-48061000D01*
G37*
G36*
X86000000Y-48061000D02*
X84340000Y-48061000D01*
X84340000Y-45411000D01*
X86000000Y-45411000D01*
X86000000Y-48061000D01*
X86000000Y-48061000D01*
G37*
G36*
X69533024Y-46498457D02*
X69570635Y-46509866D01*
X69605299Y-46528394D01*
X69635676Y-46553324D01*
X69660606Y-46583701D01*
X69679134Y-46618365D01*
X69690543Y-46655976D01*
X69695000Y-46701227D01*
X69695000Y-47786773D01*
X69690543Y-47832024D01*
X69679134Y-47869635D01*
X69660606Y-47904299D01*
X69635676Y-47934676D01*
X69605299Y-47959606D01*
X69570635Y-47978134D01*
X69533024Y-47989543D01*
X69487773Y-47994000D01*
X68652227Y-47994000D01*
X68606976Y-47989543D01*
X68569365Y-47978134D01*
X68534701Y-47959606D01*
X68504324Y-47934676D01*
X68479394Y-47904299D01*
X68460866Y-47869635D01*
X68449457Y-47832024D01*
X68445000Y-47786773D01*
X68445000Y-46701227D01*
X68449457Y-46655976D01*
X68460866Y-46618365D01*
X68479394Y-46583701D01*
X68504324Y-46553324D01*
X68534701Y-46528394D01*
X68569365Y-46509866D01*
X68606976Y-46498457D01*
X68652227Y-46494000D01*
X69487773Y-46494000D01*
X69533024Y-46498457D01*
X69533024Y-46498457D01*
G37*
G36*
X71583024Y-46498457D02*
X71620635Y-46509866D01*
X71655299Y-46528394D01*
X71685676Y-46553324D01*
X71710606Y-46583701D01*
X71729134Y-46618365D01*
X71740543Y-46655976D01*
X71745000Y-46701227D01*
X71745000Y-47786773D01*
X71740543Y-47832024D01*
X71729134Y-47869635D01*
X71710606Y-47904299D01*
X71685676Y-47934676D01*
X71655299Y-47959606D01*
X71620635Y-47978134D01*
X71583024Y-47989543D01*
X71537773Y-47994000D01*
X70702227Y-47994000D01*
X70656976Y-47989543D01*
X70619365Y-47978134D01*
X70584701Y-47959606D01*
X70554324Y-47934676D01*
X70529394Y-47904299D01*
X70510866Y-47869635D01*
X70499457Y-47832024D01*
X70495000Y-47786773D01*
X70495000Y-46701227D01*
X70499457Y-46655976D01*
X70510866Y-46618365D01*
X70529394Y-46583701D01*
X70554324Y-46553324D01*
X70584701Y-46528394D01*
X70619365Y-46509866D01*
X70656976Y-46498457D01*
X70702227Y-46494000D01*
X71537773Y-46494000D01*
X71583024Y-46498457D01*
X71583024Y-46498457D01*
G37*
G36*
X59516024Y-45625457D02*
X59553635Y-45636866D01*
X59588299Y-45655394D01*
X59618676Y-45680324D01*
X59643606Y-45710701D01*
X59662134Y-45745365D01*
X59673543Y-45782976D01*
X59678000Y-45828227D01*
X59678000Y-46663773D01*
X59673543Y-46709024D01*
X59662134Y-46746635D01*
X59643606Y-46781299D01*
X59618676Y-46811676D01*
X59588299Y-46836606D01*
X59553635Y-46855134D01*
X59516024Y-46866543D01*
X59470773Y-46871000D01*
X58385227Y-46871000D01*
X58339976Y-46866543D01*
X58302365Y-46855134D01*
X58267701Y-46836606D01*
X58237324Y-46811676D01*
X58212394Y-46781299D01*
X58193866Y-46746635D01*
X58182457Y-46709024D01*
X58178000Y-46663773D01*
X58178000Y-45828227D01*
X58182457Y-45782976D01*
X58193866Y-45745365D01*
X58212394Y-45710701D01*
X58237324Y-45680324D01*
X58267701Y-45655394D01*
X58302365Y-45636866D01*
X58339976Y-45625457D01*
X58385227Y-45621000D01*
X59470773Y-45621000D01*
X59516024Y-45625457D01*
X59516024Y-45625457D01*
G37*
G36*
X52404024Y-45625457D02*
X52441635Y-45636866D01*
X52476299Y-45655394D01*
X52506676Y-45680324D01*
X52531606Y-45710701D01*
X52550134Y-45745365D01*
X52561543Y-45782976D01*
X52566000Y-45828227D01*
X52566000Y-46663773D01*
X52561543Y-46709024D01*
X52550134Y-46746635D01*
X52531606Y-46781299D01*
X52506676Y-46811676D01*
X52476299Y-46836606D01*
X52441635Y-46855134D01*
X52404024Y-46866543D01*
X52358773Y-46871000D01*
X51273227Y-46871000D01*
X51227976Y-46866543D01*
X51190365Y-46855134D01*
X51155701Y-46836606D01*
X51125324Y-46811676D01*
X51100394Y-46781299D01*
X51081866Y-46746635D01*
X51070457Y-46709024D01*
X51066000Y-46663773D01*
X51066000Y-45828227D01*
X51070457Y-45782976D01*
X51081866Y-45745365D01*
X51100394Y-45710701D01*
X51125324Y-45680324D01*
X51155701Y-45655394D01*
X51190365Y-45636866D01*
X51227976Y-45625457D01*
X51273227Y-45621000D01*
X52358773Y-45621000D01*
X52404024Y-45625457D01*
X52404024Y-45625457D01*
G37*
G36*
X63072024Y-45607457D02*
X63109635Y-45618866D01*
X63144299Y-45637394D01*
X63174676Y-45662324D01*
X63199606Y-45692701D01*
X63218134Y-45727365D01*
X63229543Y-45764976D01*
X63234000Y-45810227D01*
X63234000Y-46645773D01*
X63229543Y-46691024D01*
X63218134Y-46728635D01*
X63199606Y-46763299D01*
X63174676Y-46793676D01*
X63144299Y-46818606D01*
X63109635Y-46837134D01*
X63072024Y-46848543D01*
X63026773Y-46853000D01*
X61941227Y-46853000D01*
X61895976Y-46848543D01*
X61858365Y-46837134D01*
X61823701Y-46818606D01*
X61793324Y-46793676D01*
X61768394Y-46763299D01*
X61749866Y-46728635D01*
X61738457Y-46691024D01*
X61734000Y-46645773D01*
X61734000Y-45810227D01*
X61738457Y-45764976D01*
X61749866Y-45727365D01*
X61768394Y-45692701D01*
X61793324Y-45662324D01*
X61823701Y-45637394D01*
X61858365Y-45618866D01*
X61895976Y-45607457D01*
X61941227Y-45603000D01*
X63026773Y-45603000D01*
X63072024Y-45607457D01*
X63072024Y-45607457D01*
G37*
G36*
X110335443Y-44394194D02*
X110544728Y-44480883D01*
X110733085Y-44606739D01*
X110893261Y-44766915D01*
X111019117Y-44955272D01*
X111105806Y-45164557D01*
X111150000Y-45386734D01*
X111150000Y-45613266D01*
X111105806Y-45835443D01*
X111019117Y-46044728D01*
X110893261Y-46233085D01*
X110733085Y-46393261D01*
X110544728Y-46519117D01*
X110335443Y-46605806D01*
X110113266Y-46650000D01*
X109886734Y-46650000D01*
X109664557Y-46605806D01*
X109455272Y-46519117D01*
X109266915Y-46393261D01*
X109106739Y-46233085D01*
X108980883Y-46044728D01*
X108894194Y-45835443D01*
X108850000Y-45613266D01*
X108850000Y-45386734D01*
X108894194Y-45164557D01*
X108980883Y-44955272D01*
X109106739Y-44766915D01*
X109266915Y-44606739D01*
X109455272Y-44480883D01*
X109664557Y-44394194D01*
X109886734Y-44350000D01*
X110113266Y-44350000D01*
X110335443Y-44394194D01*
X110335443Y-44394194D01*
G37*
G36*
X57552000Y-46537000D02*
X55892000Y-46537000D01*
X55892000Y-45787000D01*
X57552000Y-45787000D01*
X57552000Y-46537000D01*
X57552000Y-46537000D01*
G37*
G36*
X54852000Y-46537000D02*
X53192000Y-46537000D01*
X53192000Y-43887000D01*
X54852000Y-43887000D01*
X54852000Y-46537000D01*
X54852000Y-46537000D01*
G37*
G36*
X87964024Y-45099457D02*
X88001635Y-45110866D01*
X88036299Y-45129394D01*
X88066676Y-45154324D01*
X88091606Y-45184701D01*
X88110134Y-45219365D01*
X88121543Y-45256976D01*
X88126000Y-45302227D01*
X88126000Y-46137773D01*
X88121543Y-46183024D01*
X88110134Y-46220635D01*
X88091606Y-46255299D01*
X88066676Y-46285676D01*
X88036299Y-46310606D01*
X88001635Y-46329134D01*
X87964024Y-46340543D01*
X87918773Y-46345000D01*
X86833227Y-46345000D01*
X86787976Y-46340543D01*
X86750365Y-46329134D01*
X86715701Y-46310606D01*
X86685324Y-46285676D01*
X86660394Y-46255299D01*
X86641866Y-46220635D01*
X86630457Y-46183024D01*
X86626000Y-46137773D01*
X86626000Y-45302227D01*
X86630457Y-45256976D01*
X86641866Y-45219365D01*
X86660394Y-45184701D01*
X86685324Y-45154324D01*
X86715701Y-45129394D01*
X86750365Y-45110866D01*
X86787976Y-45099457D01*
X86833227Y-45095000D01*
X87918773Y-45095000D01*
X87964024Y-45099457D01*
X87964024Y-45099457D01*
G37*
G36*
X80852024Y-45081457D02*
X80889635Y-45092866D01*
X80924299Y-45111394D01*
X80954676Y-45136324D01*
X80979606Y-45166701D01*
X80998134Y-45201365D01*
X81009543Y-45238976D01*
X81014000Y-45284227D01*
X81014000Y-46119773D01*
X81009543Y-46165024D01*
X80998134Y-46202635D01*
X80979606Y-46237299D01*
X80954676Y-46267676D01*
X80924299Y-46292606D01*
X80889635Y-46311134D01*
X80852024Y-46322543D01*
X80806773Y-46327000D01*
X79721227Y-46327000D01*
X79675976Y-46322543D01*
X79638365Y-46311134D01*
X79603701Y-46292606D01*
X79573324Y-46267676D01*
X79548394Y-46237299D01*
X79529866Y-46202635D01*
X79518457Y-46165024D01*
X79514000Y-46119773D01*
X79514000Y-45284227D01*
X79518457Y-45238976D01*
X79529866Y-45201365D01*
X79548394Y-45166701D01*
X79573324Y-45136324D01*
X79603701Y-45111394D01*
X79638365Y-45092866D01*
X79675976Y-45081457D01*
X79721227Y-45077000D01*
X80806773Y-45077000D01*
X80852024Y-45081457D01*
X80852024Y-45081457D01*
G37*
G36*
X83300000Y-46161000D02*
X81640000Y-46161000D01*
X81640000Y-45411000D01*
X83300000Y-45411000D01*
X83300000Y-46161000D01*
X83300000Y-46161000D01*
G37*
G36*
X52404024Y-43575457D02*
X52441635Y-43586866D01*
X52476299Y-43605394D01*
X52506676Y-43630324D01*
X52531606Y-43660701D01*
X52550134Y-43695365D01*
X52561543Y-43732976D01*
X52566000Y-43778227D01*
X52566000Y-44613773D01*
X52561543Y-44659024D01*
X52550134Y-44696635D01*
X52531606Y-44731299D01*
X52506676Y-44761676D01*
X52476299Y-44786606D01*
X52441635Y-44805134D01*
X52404024Y-44816543D01*
X52358773Y-44821000D01*
X51273227Y-44821000D01*
X51227976Y-44816543D01*
X51190365Y-44805134D01*
X51155701Y-44786606D01*
X51125324Y-44761676D01*
X51100394Y-44731299D01*
X51081866Y-44696635D01*
X51070457Y-44659024D01*
X51066000Y-44613773D01*
X51066000Y-43778227D01*
X51070457Y-43732976D01*
X51081866Y-43695365D01*
X51100394Y-43660701D01*
X51125324Y-43630324D01*
X51155701Y-43605394D01*
X51190365Y-43586866D01*
X51227976Y-43575457D01*
X51273227Y-43571000D01*
X52358773Y-43571000D01*
X52404024Y-43575457D01*
X52404024Y-43575457D01*
G37*
G36*
X59516024Y-43575457D02*
X59553635Y-43586866D01*
X59588299Y-43605394D01*
X59618676Y-43630324D01*
X59643606Y-43660701D01*
X59662134Y-43695365D01*
X59673543Y-43732976D01*
X59678000Y-43778227D01*
X59678000Y-44613773D01*
X59673543Y-44659024D01*
X59662134Y-44696635D01*
X59643606Y-44731299D01*
X59618676Y-44761676D01*
X59588299Y-44786606D01*
X59553635Y-44805134D01*
X59516024Y-44816543D01*
X59470773Y-44821000D01*
X58385227Y-44821000D01*
X58339976Y-44816543D01*
X58302365Y-44805134D01*
X58267701Y-44786606D01*
X58237324Y-44761676D01*
X58212394Y-44731299D01*
X58193866Y-44696635D01*
X58182457Y-44659024D01*
X58178000Y-44613773D01*
X58178000Y-43778227D01*
X58182457Y-43732976D01*
X58193866Y-43695365D01*
X58212394Y-43660701D01*
X58237324Y-43630324D01*
X58267701Y-43605394D01*
X58302365Y-43586866D01*
X58339976Y-43575457D01*
X58385227Y-43571000D01*
X59470773Y-43571000D01*
X59516024Y-43575457D01*
X59516024Y-43575457D01*
G37*
G36*
X63072024Y-43557457D02*
X63109635Y-43568866D01*
X63144299Y-43587394D01*
X63174676Y-43612324D01*
X63199606Y-43642701D01*
X63218134Y-43677365D01*
X63229543Y-43714976D01*
X63234000Y-43760227D01*
X63234000Y-44595773D01*
X63229543Y-44641024D01*
X63218134Y-44678635D01*
X63199606Y-44713299D01*
X63174676Y-44743676D01*
X63144299Y-44768606D01*
X63109635Y-44787134D01*
X63072024Y-44798543D01*
X63026773Y-44803000D01*
X61941227Y-44803000D01*
X61895976Y-44798543D01*
X61858365Y-44787134D01*
X61823701Y-44768606D01*
X61793324Y-44743676D01*
X61768394Y-44713299D01*
X61749866Y-44678635D01*
X61738457Y-44641024D01*
X61734000Y-44595773D01*
X61734000Y-43760227D01*
X61738457Y-43714976D01*
X61749866Y-43677365D01*
X61768394Y-43642701D01*
X61793324Y-43612324D01*
X61823701Y-43587394D01*
X61858365Y-43568866D01*
X61895976Y-43557457D01*
X61941227Y-43553000D01*
X63026773Y-43553000D01*
X63072024Y-43557457D01*
X63072024Y-43557457D01*
G37*
G36*
X57552000Y-44637000D02*
X55892000Y-44637000D01*
X55892000Y-43887000D01*
X57552000Y-43887000D01*
X57552000Y-44637000D01*
X57552000Y-44637000D01*
G37*
G36*
X87964024Y-43085457D02*
X88001635Y-43096866D01*
X88036299Y-43115394D01*
X88066676Y-43140324D01*
X88091606Y-43170701D01*
X88110134Y-43205365D01*
X88121543Y-43242976D01*
X88126000Y-43288227D01*
X88126000Y-44123773D01*
X88121543Y-44169024D01*
X88110134Y-44206635D01*
X88091606Y-44241299D01*
X88066676Y-44271676D01*
X88036299Y-44296606D01*
X88001635Y-44315134D01*
X87964024Y-44326543D01*
X87918773Y-44331000D01*
X86833227Y-44331000D01*
X86787976Y-44326543D01*
X86750365Y-44315134D01*
X86715701Y-44296606D01*
X86685324Y-44271676D01*
X86660394Y-44241299D01*
X86641866Y-44206635D01*
X86630457Y-44169024D01*
X86626000Y-44123773D01*
X86626000Y-43288227D01*
X86630457Y-43242976D01*
X86641866Y-43205365D01*
X86660394Y-43170701D01*
X86685324Y-43140324D01*
X86715701Y-43115394D01*
X86750365Y-43096866D01*
X86787976Y-43085457D01*
X86833227Y-43081000D01*
X87918773Y-43081000D01*
X87964024Y-43085457D01*
X87964024Y-43085457D01*
G37*
G36*
X80852024Y-43076457D02*
X80889635Y-43087866D01*
X80924299Y-43106394D01*
X80954676Y-43131324D01*
X80979606Y-43161701D01*
X80998134Y-43196365D01*
X81009543Y-43233976D01*
X81014000Y-43279227D01*
X81014000Y-44114773D01*
X81009543Y-44160024D01*
X80998134Y-44197635D01*
X80979606Y-44232299D01*
X80954676Y-44262676D01*
X80924299Y-44287606D01*
X80889635Y-44306134D01*
X80852024Y-44317543D01*
X80806773Y-44322000D01*
X79721227Y-44322000D01*
X79675976Y-44317543D01*
X79638365Y-44306134D01*
X79603701Y-44287606D01*
X79573324Y-44262676D01*
X79548394Y-44232299D01*
X79529866Y-44197635D01*
X79518457Y-44160024D01*
X79514000Y-44114773D01*
X79514000Y-43279227D01*
X79518457Y-43233976D01*
X79529866Y-43196365D01*
X79548394Y-43161701D01*
X79573324Y-43131324D01*
X79603701Y-43106394D01*
X79638365Y-43087866D01*
X79675976Y-43076457D01*
X79721227Y-43072000D01*
X80806773Y-43072000D01*
X80852024Y-43076457D01*
X80852024Y-43076457D01*
G37*
G36*
X96645888Y-42134470D02*
X96826274Y-42170350D01*
X97017362Y-42249502D01*
X97189336Y-42364411D01*
X97335589Y-42510664D01*
X97450498Y-42682638D01*
X97529650Y-42873726D01*
X97570000Y-43076584D01*
X97570000Y-43283416D01*
X97529650Y-43486274D01*
X97450498Y-43677362D01*
X97335589Y-43849336D01*
X97189336Y-43995589D01*
X97017362Y-44110498D01*
X96826274Y-44189650D01*
X96645888Y-44225530D01*
X96623417Y-44230000D01*
X96416583Y-44230000D01*
X96394112Y-44225530D01*
X96213726Y-44189650D01*
X96022638Y-44110498D01*
X95850664Y-43995589D01*
X95704411Y-43849336D01*
X95589502Y-43677362D01*
X95510350Y-43486274D01*
X95470000Y-43283416D01*
X95470000Y-43076584D01*
X95510350Y-42873726D01*
X95589502Y-42682638D01*
X95704411Y-42510664D01*
X95850664Y-42364411D01*
X96022638Y-42249502D01*
X96213726Y-42170350D01*
X96394112Y-42134470D01*
X96416583Y-42130000D01*
X96623417Y-42130000D01*
X96645888Y-42134470D01*
X96645888Y-42134470D01*
G37*
G36*
X103145888Y-42134470D02*
X103326274Y-42170350D01*
X103517362Y-42249502D01*
X103689336Y-42364411D01*
X103835589Y-42510664D01*
X103950498Y-42682638D01*
X104029650Y-42873726D01*
X104070000Y-43076584D01*
X104070000Y-43283416D01*
X104029650Y-43486274D01*
X103950498Y-43677362D01*
X103835589Y-43849336D01*
X103689336Y-43995589D01*
X103517362Y-44110498D01*
X103326274Y-44189650D01*
X103145888Y-44225530D01*
X103123417Y-44230000D01*
X102916583Y-44230000D01*
X102894112Y-44225530D01*
X102713726Y-44189650D01*
X102522638Y-44110498D01*
X102350664Y-43995589D01*
X102204411Y-43849336D01*
X102089502Y-43677362D01*
X102010350Y-43486274D01*
X101970000Y-43283416D01*
X101970000Y-43076584D01*
X102010350Y-42873726D01*
X102089502Y-42682638D01*
X102204411Y-42510664D01*
X102350664Y-42364411D01*
X102522638Y-42249502D01*
X102713726Y-42170350D01*
X102894112Y-42134470D01*
X102916583Y-42130000D01*
X103123417Y-42130000D01*
X103145888Y-42134470D01*
X103145888Y-42134470D01*
G37*
G36*
X86000000Y-43997000D02*
X84340000Y-43997000D01*
X84340000Y-41347000D01*
X86000000Y-41347000D01*
X86000000Y-43997000D01*
X86000000Y-43997000D01*
G37*
G36*
X83300000Y-43997000D02*
X81640000Y-43997000D01*
X81640000Y-43247000D01*
X83300000Y-43247000D01*
X83300000Y-43997000D01*
X83300000Y-43997000D01*
G37*
G36*
X77796432Y-41113022D02*
X77966081Y-41164485D01*
X78122433Y-41248056D01*
X78259475Y-41360525D01*
X78371944Y-41497567D01*
X78455515Y-41653919D01*
X78506978Y-41823568D01*
X78524354Y-42000000D01*
X78506978Y-42176432D01*
X78455515Y-42346081D01*
X78371944Y-42502433D01*
X78259475Y-42639475D01*
X78122433Y-42751944D01*
X77966081Y-42835515D01*
X77796432Y-42886978D01*
X77664211Y-42900000D01*
X77575789Y-42900000D01*
X77443568Y-42886978D01*
X77273919Y-42835515D01*
X77117567Y-42751944D01*
X76980525Y-42639475D01*
X76868056Y-42502433D01*
X76784485Y-42346081D01*
X76733022Y-42176432D01*
X76715646Y-42000000D01*
X76733022Y-41823568D01*
X76784485Y-41653919D01*
X76868056Y-41497567D01*
X76980525Y-41360525D01*
X77117567Y-41248056D01*
X77273919Y-41164485D01*
X77443568Y-41113022D01*
X77575789Y-41100000D01*
X77664211Y-41100000D01*
X77796432Y-41113022D01*
X77796432Y-41113022D01*
G37*
G36*
X52970000Y-42900000D02*
X51170000Y-42900000D01*
X51170000Y-41100000D01*
X52970000Y-41100000D01*
X52970000Y-42900000D01*
X52970000Y-42900000D01*
G37*
G36*
X60590000Y-42900000D02*
X58790000Y-42900000D01*
X58790000Y-41100000D01*
X60590000Y-41100000D01*
X60590000Y-42900000D01*
X60590000Y-42900000D01*
G37*
G36*
X65096432Y-41113022D02*
X65266081Y-41164485D01*
X65422433Y-41248056D01*
X65559475Y-41360525D01*
X65671944Y-41497567D01*
X65755515Y-41653919D01*
X65806978Y-41823568D01*
X65824354Y-42000000D01*
X65806978Y-42176432D01*
X65755515Y-42346081D01*
X65671944Y-42502433D01*
X65559475Y-42639475D01*
X65422433Y-42751944D01*
X65266081Y-42835515D01*
X65096432Y-42886978D01*
X64964211Y-42900000D01*
X64875789Y-42900000D01*
X64743568Y-42886978D01*
X64573919Y-42835515D01*
X64417567Y-42751944D01*
X64280525Y-42639475D01*
X64168056Y-42502433D01*
X64084485Y-42346081D01*
X64033022Y-42176432D01*
X64015646Y-42000000D01*
X64033022Y-41823568D01*
X64084485Y-41653919D01*
X64168056Y-41497567D01*
X64280525Y-41360525D01*
X64417567Y-41248056D01*
X64573919Y-41164485D01*
X64743568Y-41113022D01*
X64875789Y-41100000D01*
X64964211Y-41100000D01*
X65096432Y-41113022D01*
X65096432Y-41113022D01*
G37*
G36*
X67636432Y-41113022D02*
X67806081Y-41164485D01*
X67962433Y-41248056D01*
X68099475Y-41360525D01*
X68211944Y-41497567D01*
X68295515Y-41653919D01*
X68346978Y-41823568D01*
X68364354Y-42000000D01*
X68346978Y-42176432D01*
X68295515Y-42346081D01*
X68211944Y-42502433D01*
X68099475Y-42639475D01*
X67962433Y-42751944D01*
X67806081Y-42835515D01*
X67636432Y-42886978D01*
X67504211Y-42900000D01*
X67415789Y-42900000D01*
X67283568Y-42886978D01*
X67113919Y-42835515D01*
X66957567Y-42751944D01*
X66820525Y-42639475D01*
X66708056Y-42502433D01*
X66624485Y-42346081D01*
X66573022Y-42176432D01*
X66555646Y-42000000D01*
X66573022Y-41823568D01*
X66624485Y-41653919D01*
X66708056Y-41497567D01*
X66820525Y-41360525D01*
X66957567Y-41248056D01*
X67113919Y-41164485D01*
X67283568Y-41113022D01*
X67415789Y-41100000D01*
X67504211Y-41100000D01*
X67636432Y-41113022D01*
X67636432Y-41113022D01*
G37*
G36*
X70176432Y-41113022D02*
X70346081Y-41164485D01*
X70502433Y-41248056D01*
X70639475Y-41360525D01*
X70751944Y-41497567D01*
X70835515Y-41653919D01*
X70886978Y-41823568D01*
X70904354Y-42000000D01*
X70886978Y-42176432D01*
X70835515Y-42346081D01*
X70751944Y-42502433D01*
X70639475Y-42639475D01*
X70502433Y-42751944D01*
X70346081Y-42835515D01*
X70176432Y-42886978D01*
X70044211Y-42900000D01*
X69955789Y-42900000D01*
X69823568Y-42886978D01*
X69653919Y-42835515D01*
X69497567Y-42751944D01*
X69360525Y-42639475D01*
X69248056Y-42502433D01*
X69164485Y-42346081D01*
X69113022Y-42176432D01*
X69095646Y-42000000D01*
X69113022Y-41823568D01*
X69164485Y-41653919D01*
X69248056Y-41497567D01*
X69360525Y-41360525D01*
X69497567Y-41248056D01*
X69653919Y-41164485D01*
X69823568Y-41113022D01*
X69955789Y-41100000D01*
X70044211Y-41100000D01*
X70176432Y-41113022D01*
X70176432Y-41113022D01*
G37*
G36*
X72716432Y-41113022D02*
X72886081Y-41164485D01*
X73042433Y-41248056D01*
X73179475Y-41360525D01*
X73291944Y-41497567D01*
X73375515Y-41653919D01*
X73426978Y-41823568D01*
X73444354Y-42000000D01*
X73426978Y-42176432D01*
X73375515Y-42346081D01*
X73291944Y-42502433D01*
X73179475Y-42639475D01*
X73042433Y-42751944D01*
X72886081Y-42835515D01*
X72716432Y-42886978D01*
X72584211Y-42900000D01*
X72495789Y-42900000D01*
X72363568Y-42886978D01*
X72193919Y-42835515D01*
X72037567Y-42751944D01*
X71900525Y-42639475D01*
X71788056Y-42502433D01*
X71704485Y-42346081D01*
X71653022Y-42176432D01*
X71635646Y-42000000D01*
X71653022Y-41823568D01*
X71704485Y-41653919D01*
X71788056Y-41497567D01*
X71900525Y-41360525D01*
X72037567Y-41248056D01*
X72193919Y-41164485D01*
X72363568Y-41113022D01*
X72495789Y-41100000D01*
X72584211Y-41100000D01*
X72716432Y-41113022D01*
X72716432Y-41113022D01*
G37*
G36*
X75256432Y-41113022D02*
X75426081Y-41164485D01*
X75582433Y-41248056D01*
X75719475Y-41360525D01*
X75831944Y-41497567D01*
X75915515Y-41653919D01*
X75966978Y-41823568D01*
X75984354Y-42000000D01*
X75966978Y-42176432D01*
X75915515Y-42346081D01*
X75831944Y-42502433D01*
X75719475Y-42639475D01*
X75582433Y-42751944D01*
X75426081Y-42835515D01*
X75256432Y-42886978D01*
X75124211Y-42900000D01*
X75035789Y-42900000D01*
X74903568Y-42886978D01*
X74733919Y-42835515D01*
X74577567Y-42751944D01*
X74440525Y-42639475D01*
X74328056Y-42502433D01*
X74244485Y-42346081D01*
X74193022Y-42176432D01*
X74175646Y-42000000D01*
X74193022Y-41823568D01*
X74244485Y-41653919D01*
X74328056Y-41497567D01*
X74440525Y-41360525D01*
X74577567Y-41248056D01*
X74733919Y-41164485D01*
X74903568Y-41113022D01*
X75035789Y-41100000D01*
X75124211Y-41100000D01*
X75256432Y-41113022D01*
X75256432Y-41113022D01*
G37*
G36*
X63280000Y-42900000D02*
X61480000Y-42900000D01*
X61480000Y-41100000D01*
X63280000Y-41100000D01*
X63280000Y-42900000D01*
X63280000Y-42900000D01*
G37*
G36*
X87964024Y-41035457D02*
X88001635Y-41046866D01*
X88036299Y-41065394D01*
X88066676Y-41090324D01*
X88091606Y-41120701D01*
X88110134Y-41155365D01*
X88121543Y-41192976D01*
X88126000Y-41238227D01*
X88126000Y-42073773D01*
X88121543Y-42119024D01*
X88110134Y-42156635D01*
X88091606Y-42191299D01*
X88066676Y-42221676D01*
X88036299Y-42246606D01*
X88001635Y-42265134D01*
X87964024Y-42276543D01*
X87918773Y-42281000D01*
X86833227Y-42281000D01*
X86787976Y-42276543D01*
X86750365Y-42265134D01*
X86715701Y-42246606D01*
X86685324Y-42221676D01*
X86660394Y-42191299D01*
X86641866Y-42156635D01*
X86630457Y-42119024D01*
X86626000Y-42073773D01*
X86626000Y-41238227D01*
X86630457Y-41192976D01*
X86641866Y-41155365D01*
X86660394Y-41120701D01*
X86685324Y-41090324D01*
X86715701Y-41065394D01*
X86750365Y-41046866D01*
X86787976Y-41035457D01*
X86833227Y-41031000D01*
X87918773Y-41031000D01*
X87964024Y-41035457D01*
X87964024Y-41035457D01*
G37*
G36*
X80852024Y-41026457D02*
X80889635Y-41037866D01*
X80924299Y-41056394D01*
X80954676Y-41081324D01*
X80979606Y-41111701D01*
X80998134Y-41146365D01*
X81009543Y-41183976D01*
X81014000Y-41229227D01*
X81014000Y-42064773D01*
X81009543Y-42110024D01*
X80998134Y-42147635D01*
X80979606Y-42182299D01*
X80954676Y-42212676D01*
X80924299Y-42237606D01*
X80889635Y-42256134D01*
X80852024Y-42267543D01*
X80806773Y-42272000D01*
X79721227Y-42272000D01*
X79675976Y-42267543D01*
X79638365Y-42256134D01*
X79603701Y-42237606D01*
X79573324Y-42212676D01*
X79548394Y-42182299D01*
X79529866Y-42147635D01*
X79518457Y-42110024D01*
X79514000Y-42064773D01*
X79514000Y-41229227D01*
X79518457Y-41183976D01*
X79529866Y-41146365D01*
X79548394Y-41111701D01*
X79573324Y-41081324D01*
X79603701Y-41056394D01*
X79638365Y-41037866D01*
X79675976Y-41026457D01*
X79721227Y-41022000D01*
X80806773Y-41022000D01*
X80852024Y-41026457D01*
X80852024Y-41026457D01*
G37*
G36*
X83300000Y-42097000D02*
X81640000Y-42097000D01*
X81640000Y-41347000D01*
X83300000Y-41347000D01*
X83300000Y-42097000D01*
X83300000Y-42097000D01*
G37*
M02*
