M48
;DRILL file {KiCad (5.0.0)} date 10/09/18 10:44:56
;FORMAT={-:-/ absolute / inch / decimal}
FMAT,2
INCH,TZ
T1C0.0157
T2C0.0256
T3C0.0315
T4C0.0394
T5C0.0433
%
G90
G05
M72
T1
X2.011Y-2.376
X2.027Y-1.802
X2.0768Y-1.8701
X2.1457Y-1.8209
X2.1457Y-1.939
X2.2343Y-2.2736
X2.2638Y-2.185
X2.2638Y-2.2441
X2.2638Y-2.313
X2.3327Y-1.6929
X2.3327Y-1.7618
X2.3327Y-1.8209
X2.4961Y-2.3937
X2.5Y-2.7165
X2.6132Y-2.7559
X2.6181Y-2.6772
X2.6457Y-2.3937
X2.685Y-2.9606
X2.7008Y-2.8268
X2.7937Y-2.7559
X2.829Y-1.8
X2.8445Y-2.4705
X2.8543Y-1.9193
X2.8543Y-2.5197
X2.8543Y-2.6378
X2.8688Y-2.2216
X2.8839Y-2.5886
X2.8937Y-2.4606
X2.9035Y-1.998
X2.9134Y-2.2441
X2.9134Y-2.8346
X2.9134Y-3.0906
X2.9287Y-2.3455
X2.943Y-2.858
X2.9528Y-1.998
X2.9528Y-2.2835
X2.9528Y-3.0745
X2.9718Y-2.881
X2.9823Y-2.3031
X3.0118Y-2.2539
X3.0141Y-3.0587
X3.0209Y-2.4525
X3.0219Y-2.8968
X3.0282Y-2.372
X3.0289Y-2.4221
X3.0307Y-1.7833
X3.047Y-2.0571
X3.0551Y-2.4869
X3.0551Y-2.5276
X3.0632Y-2.2201
X3.0807Y-2.4213
X3.0941Y-2.911
X3.1004Y-2.8543
X3.1102Y-2.0571
X3.1102Y-2.4409
X3.1201Y-2.185
X3.1201Y-2.2441
X3.129Y-2.473
X3.1618Y-2.4373
X3.184Y-1.847
X3.184Y-2.38
X3.189Y-2.1358
X3.1896Y-2.4993
X3.2028Y-2.204
X3.2185Y-2.0669
X3.2194Y-2.2601
X3.2283Y-2.1063
X3.2283Y-2.1555
X3.2563Y-2.2284
X3.2677Y-2.3228
X3.269Y-1.847
X3.2854Y-2.362
X3.2992Y-2.7244
X3.2995Y-2.3994
X3.3228Y-2.9134
X3.3228Y-2.9921
X3.3307Y-3.1811
X3.3386Y-3.1339
X3.3563Y-1.811
X3.3563Y-1.8701
X3.3563Y-1.9291
X3.3661Y-2.1457
X3.3661Y-2.3031
X3.384Y-2.708
X3.4252Y-1.811
X3.4252Y-1.9291
X3.4252Y-2.3819
X3.484Y-2.718
X3.484Y-2.795
X3.4941Y-2.1654
X3.5827Y-3.1496
X3.5925Y-1.9193
X3.6122Y-1.998
X3.6319Y-2.2441
X3.6516Y-2.3031
X3.6516Y-3.1496
X3.6516Y-3.189
X3.8091Y-3.1299
X3.8091Y-3.189
X3.9862Y-2.9921
X4.1634Y-2.6476
X4.3012Y-2.9232
X4.3307Y-2.8937
X4.3602Y-2.9232
T2
X2.1622Y-2.9528
X2.1622Y-3.0028
X2.2122Y-2.9528
X2.2122Y-3.0028
X2.2622Y-2.9528
X2.2622Y-3.0028
X2.3122Y-2.9528
X2.3122Y-3.0028
X2.3622Y-2.9528
X2.3622Y-3.0028
X2.8709Y-2.9528
X2.8709Y-3.0028
X2.9209Y-2.9528
X2.9209Y-3.0028
X2.9709Y-2.9528
X2.9709Y-3.0028
X3.0209Y-2.9528
X3.0209Y-3.0028
X3.0709Y-2.9528
X3.0709Y-3.0028
T3
X3.6614Y-1.8709
X3.6614Y-2.063
T4
X2.4016Y-2.4772
X2.4016Y-2.5772
X2.4016Y-2.6772
X2.4016Y-2.7772
X2.1244Y-1.6535
X2.2244Y-1.6535
X2.4559Y-1.6535
X2.5559Y-1.6535
X2.6559Y-1.6535
X2.7559Y-1.6535
X2.8559Y-1.6535
X2.9559Y-1.6535
X3.0559Y-1.6535
T5
X3.9764Y-2.6772
X3.9764Y-2.8543
X4.2323Y-2.6772
X4.2323Y-2.8543
X3.9764Y-1.8898
X3.9764Y-2.0669
X4.2323Y-1.8898
X4.2323Y-2.0669
T0
M30
