G04 #@! TF.FileFunction,Soldermask,Top*
%FSLAX46Y46*%
G04 Gerber Fmt 4.6, Leading zero omitted, Abs format (unit mm)*
G04 Created by KiCad (PCBNEW 4.0.7) date 07/09/18 21:34:00*
%MOMM*%
%LPD*%
G01*
G04 APERTURE LIST*
%ADD10C,0.100000*%
%ADD11R,3.300000X1.600000*%
%ADD12R,1.100000X1.100000*%
%ADD13O,1.100000X1.100000*%
%ADD14R,1.350000X1.600000*%
%ADD15R,1.800000X1.800000*%
%ADD16O,1.800000X1.800000*%
%ADD17R,1.600000X1.350000*%
%ADD18R,1.600000X3.300000*%
%ADD19R,1.600000X1.400000*%
%ADD20R,2.100000X0.500000*%
%ADD21R,1.700000X2.200000*%
%ADD22R,2.000000X2.000000*%
%ADD23R,2.600000X2.100000*%
%ADD24R,0.900000X2.000000*%
%ADD25R,1.400000X1.600000*%
%ADD26R,0.600000X0.900000*%
%ADD27R,0.500000X0.900000*%
%ADD28C,2.100000*%
%ADD29R,1.400000X0.350000*%
%ADD30R,0.350000X1.400000*%
%ADD31R,0.750000X1.660000*%
%ADD32R,1.660000X0.750000*%
%ADD33C,1.600000*%
%ADD34R,1.500000X2.300000*%
%ADD35R,2.100000X1.800000*%
%ADD36R,3.600000X1.900000*%
%ADD37R,2.400000X3.600000*%
G04 APERTURE END LIST*
D10*
X112000000Y-40000000D02*
X50000000Y-40000000D01*
X112000000Y-82000000D02*
X112000000Y-40000000D01*
X50000000Y-82000000D02*
X112000000Y-82000000D01*
X50000000Y-40000000D02*
X50000000Y-82000000D01*
D11*
X81800000Y-70800000D03*
X85800000Y-70800000D03*
D12*
X60000000Y-75000000D03*
D13*
X60000000Y-76270000D03*
X58730000Y-75000000D03*
X58730000Y-76270000D03*
X57460000Y-75000000D03*
X57460000Y-76270000D03*
X56190000Y-75000000D03*
X56190000Y-76270000D03*
X54920000Y-75000000D03*
X54920000Y-76270000D03*
D14*
X73500000Y-58250000D03*
X73500000Y-60750000D03*
D15*
X61000000Y-70540000D03*
D16*
X61000000Y-68000000D03*
X61000000Y-65460000D03*
X61000000Y-62920000D03*
D17*
X89250000Y-47500000D03*
X86750000Y-47500000D03*
X89250000Y-52500000D03*
X86750000Y-52500000D03*
X88500000Y-60500000D03*
X86000000Y-60500000D03*
X88500000Y-57250000D03*
X86000000Y-57250000D03*
D14*
X82250000Y-61000000D03*
X82250000Y-63500000D03*
X51500000Y-44750000D03*
X51500000Y-47250000D03*
X57500000Y-47250000D03*
X57500000Y-44750000D03*
X65000000Y-71000000D03*
X65000000Y-68500000D03*
X72500000Y-68500000D03*
X72500000Y-71000000D03*
D18*
X95000000Y-75500000D03*
X95000000Y-79500000D03*
D19*
X98650000Y-80000000D03*
X101350000Y-80000000D03*
X103400000Y-80000000D03*
X106100000Y-80000000D03*
X108150000Y-80000000D03*
X110850000Y-80000000D03*
D12*
X78000000Y-75000000D03*
D13*
X78000000Y-76270000D03*
X76730000Y-75000000D03*
X76730000Y-76270000D03*
X75460000Y-75000000D03*
X75460000Y-76270000D03*
X74190000Y-75000000D03*
X74190000Y-76270000D03*
X72920000Y-75000000D03*
X72920000Y-76270000D03*
D15*
X53960000Y-42000000D03*
D16*
X56500000Y-42000000D03*
D20*
X55500000Y-55950000D03*
X55500000Y-55300000D03*
X55500000Y-54650000D03*
X55500000Y-54000000D03*
D21*
X55050000Y-57750000D03*
X55050000Y-51550000D03*
D22*
X52500000Y-58500000D03*
X52500000Y-50800000D03*
X52500000Y-53450000D03*
X52500000Y-55850000D03*
D20*
X55500000Y-53350000D03*
D23*
X91500000Y-76750000D03*
X91500000Y-72750000D03*
D24*
X64075000Y-47450000D03*
X65975000Y-47450000D03*
X65025000Y-44450000D03*
D25*
X110000000Y-68800000D03*
X110000000Y-71500000D03*
X86400000Y-78100000D03*
X86400000Y-80800000D03*
D19*
X74300000Y-47000000D03*
X77000000Y-47000000D03*
X62650000Y-55325000D03*
X65350000Y-55325000D03*
X62650000Y-53325000D03*
X65350000Y-53325000D03*
X67500000Y-56500000D03*
X70200000Y-56500000D03*
X67400000Y-52250000D03*
X70100000Y-52250000D03*
D26*
X98500000Y-70200000D03*
D27*
X96900000Y-70200000D03*
X97700000Y-70200000D03*
D26*
X96100000Y-70200000D03*
D27*
X97700000Y-72000000D03*
D26*
X98500000Y-72000000D03*
D27*
X96900000Y-72000000D03*
D26*
X96100000Y-72000000D03*
D28*
X101000000Y-52500000D03*
X101000000Y-48000000D03*
X107500000Y-52500000D03*
X107500000Y-48000000D03*
X101000000Y-72500000D03*
X101000000Y-68000000D03*
X107500000Y-72500000D03*
X107500000Y-68000000D03*
D29*
X84000000Y-57500000D03*
X84000000Y-57000000D03*
X84000000Y-56500000D03*
X84000000Y-56000000D03*
X84000000Y-55500000D03*
X84000000Y-55000000D03*
X84000000Y-54500000D03*
X84000000Y-54000000D03*
X84000000Y-53500000D03*
X84000000Y-53000000D03*
X84000000Y-52500000D03*
X84000000Y-52000000D03*
D30*
X82400000Y-50400000D03*
X81900000Y-50400000D03*
X81400000Y-50400000D03*
X80900000Y-50400000D03*
X80400000Y-50400000D03*
X79900000Y-50400000D03*
X79400000Y-50400000D03*
X78900000Y-50400000D03*
X78400000Y-50400000D03*
X77900000Y-50400000D03*
X77400000Y-50400000D03*
X76900000Y-50400000D03*
D29*
X75300000Y-52000000D03*
X75300000Y-52500000D03*
X75300000Y-53000000D03*
X75300000Y-53500000D03*
X75300000Y-54000000D03*
X75300000Y-54500000D03*
X75300000Y-55000000D03*
X75300000Y-55500000D03*
X75300000Y-56000000D03*
X75300000Y-56500000D03*
X75300000Y-57000000D03*
X75300000Y-57500000D03*
D30*
X76900000Y-59100000D03*
X77400000Y-59100000D03*
X77900000Y-59100000D03*
X78400000Y-59100000D03*
X78900000Y-59100000D03*
X79400000Y-59100000D03*
X79900000Y-59100000D03*
X80400000Y-59100000D03*
X80900000Y-59100000D03*
X81400000Y-59100000D03*
X81900000Y-59100000D03*
X82400000Y-59100000D03*
D31*
X55500000Y-44800000D03*
X54550000Y-44800000D03*
X53600000Y-44800000D03*
X53600000Y-47500000D03*
X55500000Y-47500000D03*
D32*
X67650000Y-69050000D03*
X67650000Y-70000000D03*
X67650000Y-70950000D03*
X70350000Y-70950000D03*
X70350000Y-69050000D03*
X88300000Y-79100000D03*
X88300000Y-80050000D03*
X88300000Y-81000000D03*
X91000000Y-81000000D03*
X91000000Y-79100000D03*
D15*
X62380000Y-42000000D03*
D16*
X64920000Y-42000000D03*
X67460000Y-42000000D03*
X70000000Y-42000000D03*
X72540000Y-42000000D03*
X75080000Y-42000000D03*
X77620000Y-42000000D03*
D33*
X93000000Y-47520000D03*
X93000000Y-52400000D03*
D34*
X96250000Y-60450000D03*
X96250000Y-57250000D03*
X90750000Y-57250000D03*
X90750000Y-60450000D03*
D17*
X77000000Y-48750000D03*
X74500000Y-48750000D03*
X86750000Y-50750000D03*
X89250000Y-50750000D03*
D26*
X78000000Y-66000000D03*
D27*
X76400000Y-66000000D03*
X77200000Y-66000000D03*
D26*
X75600000Y-66000000D03*
D27*
X77200000Y-67800000D03*
D26*
X78000000Y-67800000D03*
D27*
X76400000Y-67800000D03*
D26*
X75600000Y-67800000D03*
X79800000Y-67800000D03*
D27*
X81400000Y-67800000D03*
X80600000Y-67800000D03*
D26*
X82200000Y-67800000D03*
D27*
X80600000Y-66000000D03*
D26*
X79800000Y-66000000D03*
D27*
X81400000Y-66000000D03*
D26*
X82200000Y-66000000D03*
D35*
X86400000Y-76200000D03*
X82400000Y-76200000D03*
X71000000Y-75200000D03*
X67000000Y-75200000D03*
D36*
X81800000Y-73800000D03*
X86800000Y-73800000D03*
D37*
X65500000Y-65200000D03*
X65500000Y-59800000D03*
X70000000Y-65100000D03*
X70000000Y-59700000D03*
M02*
