G04 #@! TF.GenerationSoftware,KiCad,Pcbnew,(5.0.0)*
G04 #@! TF.CreationDate,2018-10-09T10:58:44+11:00*
G04 #@! TF.ProjectId,Project 23,50726F6A6563742032332E6B69636164,V 0.6*
G04 #@! TF.SameCoordinates,Original*
G04 #@! TF.FileFunction,Copper,L2,Bot,Signal*
G04 #@! TF.FilePolarity,Positive*
%FSLAX46Y46*%
G04 Gerber Fmt 4.6, Leading zero omitted, Abs format (unit mm)*
G04 Created by KiCad (PCBNEW (5.0.0)) date 10/09/18 10:58:44*
%MOMM*%
%LPD*%
G01*
G04 APERTURE LIST*
G04 #@! TA.AperFunction,NonConductor*
%ADD10C,0.100000*%
G04 #@! TD*
G04 #@! TA.AperFunction,ComponentPad*
%ADD11C,2.000000*%
G04 #@! TD*
G04 #@! TA.AperFunction,ComponentPad*
%ADD12R,1.700000X1.700000*%
G04 #@! TD*
G04 #@! TA.AperFunction,ComponentPad*
%ADD13O,1.700000X1.700000*%
G04 #@! TD*
G04 #@! TA.AperFunction,ComponentPad*
%ADD14C,1.500000*%
G04 #@! TD*
G04 #@! TA.AperFunction,ComponentPad*
%ADD15R,1.000000X1.000000*%
G04 #@! TD*
G04 #@! TA.AperFunction,ComponentPad*
%ADD16O,1.000000X1.000000*%
G04 #@! TD*
G04 #@! TA.AperFunction,ViaPad*
%ADD17C,0.600000*%
G04 #@! TD*
G04 #@! TA.AperFunction,Conductor*
%ADD18C,0.220000*%
G04 #@! TD*
G04 #@! TA.AperFunction,Conductor*
%ADD19C,0.203000*%
G04 #@! TD*
G04 #@! TA.AperFunction,Conductor*
%ADD20C,0.254000*%
G04 #@! TD*
G04 APERTURE END LIST*
D10*
X112000000Y-40000000D02*
X50000000Y-40000000D01*
X112000000Y-82000000D02*
X112000000Y-40000000D01*
X50000000Y-82000000D02*
X112000000Y-82000000D01*
X50000000Y-40000000D02*
X50000000Y-82000000D01*
D11*
G04 #@! TO.P,SW11,1*
G04 #@! TO.N,/UI_Btn*
X107500000Y-48000000D03*
G04 #@! TO.P,SW11,2*
G04 #@! TO.N,+3V3*
X107500000Y-52500000D03*
G04 #@! TO.P,SW11,1*
G04 #@! TO.N,/UI_Btn*
X101000000Y-48000000D03*
G04 #@! TO.P,SW11,2*
G04 #@! TO.N,+3V3*
X101000000Y-52500000D03*
G04 #@! TD*
G04 #@! TO.P,SW12,2*
G04 #@! TO.N,+3V3*
X101000000Y-72500000D03*
G04 #@! TO.P,SW12,1*
G04 #@! TO.N,/Power_Btn*
X101000000Y-68000000D03*
G04 #@! TO.P,SW12,2*
G04 #@! TO.N,+3V3*
X107500000Y-72500000D03*
G04 #@! TO.P,SW12,1*
G04 #@! TO.N,/Power_Btn*
X107500000Y-68000000D03*
G04 #@! TD*
D12*
G04 #@! TO.P,U5,1*
G04 #@! TO.N,GND*
X62380000Y-42000000D03*
D13*
G04 #@! TO.P,U5,2*
G04 #@! TO.N,Net-(Q51-Pad3)*
X64920000Y-42000000D03*
G04 #@! TO.P,U5,3*
G04 #@! TO.N,/SCK*
X67460000Y-42000000D03*
G04 #@! TO.P,U5,4*
G04 #@! TO.N,/MOSI*
X70000000Y-42000000D03*
G04 #@! TO.P,U5,5*
G04 #@! TO.N,/OLED_RES*
X72540000Y-42000000D03*
G04 #@! TO.P,U5,6*
G04 #@! TO.N,/OLED_DC*
X75080000Y-42000000D03*
G04 #@! TO.P,U5,7*
G04 #@! TO.N,/OLED_CS*
X77620000Y-42000000D03*
G04 #@! TD*
D14*
G04 #@! TO.P,Y11,1*
G04 #@! TO.N,Net-(C11-Pad1)*
X93000000Y-47520000D03*
G04 #@! TO.P,Y11,2*
G04 #@! TO.N,Net-(C12-Pad1)*
X93000000Y-52400000D03*
G04 #@! TD*
D12*
G04 #@! TO.P,J13,1*
G04 #@! TO.N,N/C*
X61000000Y-70540000D03*
D13*
G04 #@! TO.P,J13,2*
G04 #@! TO.N,/SWDIO*
X61000000Y-68000000D03*
G04 #@! TO.P,J13,3*
G04 #@! TO.N,/SWCLK*
X61000000Y-65460000D03*
G04 #@! TO.P,J13,4*
G04 #@! TO.N,GND*
X61000000Y-62920000D03*
G04 #@! TD*
D12*
G04 #@! TO.P,J21,1*
G04 #@! TO.N,+BATT*
X53960000Y-42000000D03*
D13*
G04 #@! TO.P,J21,2*
G04 #@! TO.N,GND*
X56500000Y-42000000D03*
G04 #@! TD*
D15*
G04 #@! TO.P,J11,1*
G04 #@! TO.N,N/C*
X60000000Y-75000000D03*
D16*
G04 #@! TO.P,J11,2*
X60000000Y-76270000D03*
G04 #@! TO.P,J11,3*
G04 #@! TO.N,Net-(J11-Pad3)*
X58730000Y-75000000D03*
G04 #@! TO.P,J11,4*
G04 #@! TO.N,Net-(J11-Pad4)*
X58730000Y-76270000D03*
G04 #@! TO.P,J11,5*
G04 #@! TO.N,Net-(J11-Pad5)*
X57460000Y-75000000D03*
G04 #@! TO.P,J11,6*
G04 #@! TO.N,Net-(J11-Pad6)*
X57460000Y-76270000D03*
G04 #@! TO.P,J11,7*
G04 #@! TO.N,Net-(J11-Pad7)*
X56190000Y-75000000D03*
G04 #@! TO.P,J11,8*
G04 #@! TO.N,Net-(J11-Pad8)*
X56190000Y-76270000D03*
G04 #@! TO.P,J11,9*
G04 #@! TO.N,Net-(J11-Pad9)*
X54920000Y-75000000D03*
G04 #@! TO.P,J11,10*
G04 #@! TO.N,GND*
X54920000Y-76270000D03*
G04 #@! TD*
G04 #@! TO.P,J12,10*
G04 #@! TO.N,GND*
X72920000Y-76270000D03*
G04 #@! TO.P,J12,9*
G04 #@! TO.N,Net-(J11-Pad9)*
X72920000Y-75000000D03*
G04 #@! TO.P,J12,8*
G04 #@! TO.N,Net-(J11-Pad8)*
X74190000Y-76270000D03*
G04 #@! TO.P,J12,7*
G04 #@! TO.N,Net-(J11-Pad7)*
X74190000Y-75000000D03*
G04 #@! TO.P,J12,6*
G04 #@! TO.N,Net-(J11-Pad6)*
X75460000Y-76270000D03*
G04 #@! TO.P,J12,5*
G04 #@! TO.N,Net-(J11-Pad5)*
X75460000Y-75000000D03*
G04 #@! TO.P,J12,4*
G04 #@! TO.N,Net-(J11-Pad4)*
X76730000Y-76270000D03*
G04 #@! TO.P,J12,3*
G04 #@! TO.N,Net-(J11-Pad3)*
X76730000Y-75000000D03*
G04 #@! TO.P,J12,2*
G04 #@! TO.N,Net-(F11-Pad2)*
X78000000Y-76270000D03*
D15*
G04 #@! TO.P,J12,1*
G04 #@! TO.N,Net-(F12-Pad1)*
X78000000Y-75000000D03*
G04 #@! TD*
D17*
G04 #@! TO.N,GND*
X84800000Y-79600000D03*
X84600000Y-80800000D03*
X83800000Y-69200000D03*
X70960010Y-70000000D03*
X81015906Y-63483377D03*
X87000000Y-60500000D03*
X73750000Y-50750000D03*
X75000000Y-50750000D03*
X59250000Y-46250000D03*
X59250000Y-43000000D03*
X59250000Y-44750000D03*
X77393977Y-52250342D03*
X79000000Y-52250000D03*
X57500000Y-55500000D03*
X52750000Y-47500000D03*
X85500000Y-58500000D03*
X66375000Y-70000000D03*
X63500000Y-69000000D03*
X66500000Y-68000000D03*
X57500000Y-58750000D03*
X57500000Y-57000000D03*
X56750000Y-57750000D03*
X54500000Y-49250000D03*
X54500000Y-46250000D03*
X87000000Y-46000000D03*
X85250000Y-46000000D03*
X85250000Y-47500000D03*
X85250000Y-49000000D03*
X87000000Y-49000000D03*
X85500000Y-54500000D03*
X72250000Y-62750000D03*
X72500000Y-64000000D03*
X73500000Y-62500000D03*
X74000000Y-56999998D03*
X72500000Y-48750000D03*
X91250000Y-48750000D03*
X91750000Y-50750000D03*
X109250000Y-74250000D03*
X110750000Y-74250000D03*
X110000000Y-73500000D03*
X96750000Y-81000000D03*
X96750000Y-79500000D03*
X92750000Y-81000000D03*
X92750000Y-80000000D03*
X91000000Y-80000000D03*
X85953600Y-68783200D03*
X80310579Y-61908313D03*
G04 #@! TO.N,+3V3*
X68200000Y-75200000D03*
X68600000Y-71800000D03*
X81771920Y-57406018D03*
X73250000Y-65750000D03*
X72500000Y-67000000D03*
X105750000Y-67250000D03*
X101250000Y-76000000D03*
X79250000Y-55500000D03*
X79250000Y-57000000D03*
X75000000Y-58000000D03*
X83000000Y-59000000D03*
X82000000Y-54750000D03*
G04 #@! TO.N,+BATT*
X63400000Y-60800000D03*
X67200000Y-60800000D03*
X51079400Y-60350400D03*
X51485800Y-45770800D03*
G04 #@! TO.N,/Ana_In*
X79000000Y-62000000D03*
X81750000Y-52500000D03*
G04 #@! TO.N,/Fwd_Limit*
X78250000Y-61500000D03*
X79476736Y-62815358D03*
G04 #@! TO.N,/Quad_B*
X76730376Y-62294159D03*
X77600000Y-64200000D03*
X76500000Y-57250000D03*
X75750000Y-58500000D03*
G04 #@! TO.N,Net-(J11-Pad6)*
X75000000Y-78093042D03*
G04 #@! TO.N,/Quad_A*
X77598490Y-63166932D03*
X76933714Y-61520420D03*
G04 #@! TO.N,/SWCLK*
X74389996Y-59575984D03*
X76916032Y-60250000D03*
G04 #@! TO.N,/Power_Btn*
X88750000Y-55000000D03*
X82000000Y-53500000D03*
X92250000Y-57000000D03*
X92750000Y-58500000D03*
G04 #@! TO.N,/Boost_En*
X84400000Y-76000000D03*
X84400000Y-74000000D03*
X81000000Y-54250000D03*
X88493600Y-70993000D03*
X88493600Y-69037200D03*
X80873600Y-60452000D03*
G04 #@! TO.N,/USB_PU*
X72867059Y-56429518D03*
X77806343Y-56389990D03*
G04 #@! TO.N,/Rev_LED*
X81351510Y-55980337D03*
X83448489Y-59994438D03*
G04 #@! TO.N,/Fwd_LED*
X82708754Y-56601963D03*
X83806343Y-60943657D03*
G04 #@! TO.N,/OLED_RES*
X80873600Y-46913800D03*
X83032600Y-46913800D03*
G04 #@! TO.N,/SCK*
X71856600Y-45720000D03*
X76980932Y-45294668D03*
G04 #@! TO.N,Net-(J11-Pad3)*
X76756407Y-73579983D03*
G04 #@! TO.N,Net-(J11-Pad4)*
X78589171Y-73939835D03*
X76556937Y-77690012D03*
G04 #@! TO.N,Net-(J11-Pad5)*
X75484430Y-73176978D03*
G04 #@! TO.N,Net-(J11-Pad7)*
X74752607Y-72592470D03*
G04 #@! TO.N,Net-(J11-Pad8)*
X78750000Y-72500000D03*
X74000000Y-78500000D03*
G04 #@! TO.N,Net-(J11-Pad9)*
X74000000Y-72000000D03*
G04 #@! TD*
D18*
G04 #@! TO.N,GND*
X84600000Y-80800000D02*
X84600000Y-79800000D01*
X84600000Y-79800000D02*
X84800000Y-79600000D01*
X85800000Y-69400000D02*
X84000000Y-69400000D01*
X84000000Y-69400000D02*
X83800000Y-69200000D01*
X75000000Y-50750000D02*
X73750000Y-50750000D01*
X59250000Y-44750000D02*
X59250000Y-43000000D01*
X56750000Y-57750000D02*
X57500000Y-57000000D01*
X85250000Y-47500000D02*
X85250000Y-46000000D01*
X87000000Y-49000000D02*
X85250000Y-49000000D01*
X73500000Y-62500000D02*
X73500000Y-63000000D01*
X73500000Y-63000000D02*
X72500000Y-64000000D01*
X72500000Y-48750000D02*
X72500000Y-49500000D01*
X72500000Y-49500000D02*
X73750000Y-50750000D01*
X91750000Y-50750000D02*
X91750000Y-49250000D01*
X91750000Y-49250000D02*
X91250000Y-48750000D01*
X110750000Y-74250000D02*
X109250000Y-74250000D01*
X96750000Y-79500000D02*
X96750000Y-81000000D01*
X91000000Y-80000000D02*
X92750000Y-80000000D01*
G04 #@! TO.N,+3V3*
X68600000Y-71800000D02*
X68200000Y-72200000D01*
X68200000Y-72200000D02*
X68200000Y-75200000D01*
X81771920Y-57771920D02*
X81771920Y-57406018D01*
X82000000Y-57177938D02*
X81771920Y-57406018D01*
X82000000Y-54750000D02*
X82000000Y-57177938D01*
X83000000Y-59000000D02*
X81771920Y-57771920D01*
X72500000Y-67000000D02*
X72500000Y-66500000D01*
X72500000Y-66500000D02*
X73250000Y-65750000D01*
X107500000Y-72500000D02*
X105750000Y-70750000D01*
X105750000Y-70750000D02*
X105750000Y-67250000D01*
X101250000Y-76000000D02*
X101250000Y-72750000D01*
X101250000Y-72750000D02*
X101000000Y-72500000D01*
X79250000Y-55500000D02*
X79250000Y-57000000D01*
X77500000Y-57000000D02*
X79250000Y-57000000D01*
X77000000Y-56500000D02*
X77500000Y-57000000D01*
X76000000Y-56500000D02*
X77000000Y-56500000D01*
X75299999Y-57200001D02*
X76000000Y-56500000D01*
X75299999Y-57700001D02*
X75299999Y-57200001D01*
X75000000Y-58000000D02*
X75299999Y-57700001D01*
G04 #@! TO.N,+BATT*
X67200000Y-60800000D02*
X63400000Y-60800000D01*
X51485800Y-45770800D02*
X51003200Y-46253400D01*
X51079400Y-46329600D02*
X51079400Y-60350400D01*
X51003200Y-46253400D02*
X51079400Y-46329600D01*
D19*
G04 #@! TO.N,/Ana_In*
X79596987Y-61414789D02*
X79585211Y-61414789D01*
X79585211Y-61414789D02*
X79000000Y-62000000D01*
X81750000Y-52500000D02*
X79851502Y-54398498D01*
X79851502Y-61160274D02*
X79596987Y-61414789D01*
X79851502Y-54398498D02*
X79851502Y-61160274D01*
G04 #@! TO.N,/Fwd_Limit*
X78925134Y-62815358D02*
X79052472Y-62815358D01*
X78250000Y-61500000D02*
X78250000Y-62140224D01*
X79052472Y-62815358D02*
X79476736Y-62815358D01*
X78250000Y-62140224D02*
X78925134Y-62815358D01*
G04 #@! TO.N,/Quad_B*
X77600000Y-64200000D02*
X76730376Y-63330376D01*
X76730376Y-63330376D02*
X76730376Y-62718423D01*
X76730376Y-62718423D02*
X76730376Y-62294159D01*
X75750000Y-58500000D02*
X75750000Y-58000000D01*
X75750000Y-58000000D02*
X76500000Y-57250000D01*
G04 #@! TO.N,Net-(J11-Pad6)*
X75460000Y-77633042D02*
X75000000Y-78093042D01*
X75460000Y-76270000D02*
X75460000Y-77633042D01*
G04 #@! TO.N,/Quad_A*
X77598490Y-62185196D02*
X77233713Y-61820419D01*
X77233713Y-61820419D02*
X76933714Y-61520420D01*
X77598490Y-63166932D02*
X77598490Y-62185196D01*
G04 #@! TO.N,/SWCLK*
X74689995Y-59875983D02*
X74389996Y-59575984D01*
X76916032Y-60250000D02*
X75064012Y-60250000D01*
X75064012Y-60250000D02*
X74689995Y-59875983D01*
G04 #@! TO.N,/Power_Btn*
X87250000Y-53500000D02*
X88750000Y-55000000D01*
X86500000Y-53500000D02*
X87250000Y-53500000D01*
X82000000Y-53500000D02*
X86500000Y-53500000D01*
X92750000Y-58500000D02*
X92750000Y-57500000D01*
X92750000Y-57500000D02*
X92250000Y-57000000D01*
G04 #@! TO.N,/Boost_En*
X84400000Y-74000000D02*
X84400000Y-76000000D01*
X81000000Y-54250000D02*
X80700001Y-54549999D01*
X80700001Y-54549999D02*
X80700001Y-60279405D01*
X88493600Y-70993000D02*
X88493600Y-69037200D01*
X80701005Y-60279405D02*
X80873600Y-60452000D01*
X80700001Y-60279405D02*
X80701005Y-60279405D01*
G04 #@! TO.N,/USB_PU*
X73167058Y-56129519D02*
X72867059Y-56429518D01*
X73208087Y-56088490D02*
X73167058Y-56129519D01*
X77504843Y-56088490D02*
X73208087Y-56088490D01*
X77806343Y-56389990D02*
X77504843Y-56088490D01*
G04 #@! TO.N,/Rev_LED*
X81153011Y-58123224D02*
X81153011Y-56603100D01*
X83448489Y-59994438D02*
X83024225Y-59994438D01*
X81153011Y-56603100D02*
X81351510Y-56404601D01*
X83024225Y-59994438D02*
X81153011Y-58123224D01*
X81351510Y-56404601D02*
X81351510Y-55980337D01*
G04 #@! TO.N,/Fwd_LED*
X82708754Y-56641244D02*
X82708754Y-56601963D01*
X82549999Y-56799999D02*
X82708754Y-56641244D01*
X83008753Y-56901962D02*
X82708754Y-56601963D01*
X84106342Y-57999551D02*
X83008753Y-56901962D01*
X83806343Y-60943657D02*
X84106342Y-60643658D01*
X84106342Y-60643658D02*
X84106342Y-57999551D01*
G04 #@! TO.N,/OLED_RES*
X80873600Y-46913800D02*
X83032600Y-46913800D01*
G04 #@! TO.N,/SCK*
X76555600Y-45720000D02*
X76680933Y-45594667D01*
X76680933Y-45594667D02*
X76980932Y-45294668D01*
X71856600Y-45720000D02*
X76555600Y-45720000D01*
G04 #@! TO.N,Net-(J11-Pad3)*
X76730000Y-75000000D02*
X76730000Y-73606390D01*
X76730000Y-73606390D02*
X76756407Y-73579983D01*
G04 #@! TO.N,Net-(J11-Pad4)*
X78889170Y-74239834D02*
X78589171Y-73939835D01*
X78889170Y-76567052D02*
X78889170Y-74239834D01*
X76556937Y-77690012D02*
X77766210Y-77690012D01*
X77766210Y-77690012D02*
X78889170Y-76567052D01*
X76730000Y-77516949D02*
X76556937Y-77690012D01*
X76730000Y-76270000D02*
X76730000Y-77516949D01*
G04 #@! TO.N,Net-(J11-Pad5)*
X75460000Y-73201408D02*
X75484430Y-73176978D01*
X75460000Y-75000000D02*
X75460000Y-73201408D01*
G04 #@! TO.N,Net-(J11-Pad7)*
X74752607Y-73016734D02*
X74752607Y-72592470D01*
X74752607Y-74437393D02*
X74752607Y-73016734D01*
X74190000Y-75000000D02*
X74752607Y-74437393D01*
G04 #@! TO.N,Net-(J11-Pad8)*
X79292178Y-73402188D02*
X79292178Y-73042178D01*
X79292178Y-73042178D02*
X78750000Y-72500000D01*
X79292178Y-77207822D02*
X79292178Y-73402188D01*
X77700001Y-78799999D02*
X79292178Y-77207822D01*
X74299999Y-78799999D02*
X77700001Y-78799999D01*
X74000000Y-78500000D02*
X74299999Y-78799999D01*
X74000000Y-78500000D02*
X74000000Y-76460000D01*
X74000000Y-76460000D02*
X74190000Y-76270000D01*
G04 #@! TO.N,Net-(J11-Pad9)*
X74000000Y-72000000D02*
X72920000Y-73080000D01*
X72920000Y-73080000D02*
X72920000Y-75000000D01*
G04 #@! TD*
D20*
G04 #@! TO.N,GND*
G36*
X52652191Y-40692191D02*
X52511843Y-40902235D01*
X52462560Y-41150000D01*
X52462560Y-42850000D01*
X52511843Y-43097765D01*
X52652191Y-43307809D01*
X52862235Y-43448157D01*
X53110000Y-43497440D01*
X54810000Y-43497440D01*
X55057765Y-43448157D01*
X55267809Y-43307809D01*
X55408157Y-43097765D01*
X55428739Y-42994292D01*
X55733076Y-43271645D01*
X56143110Y-43441476D01*
X56373000Y-43320155D01*
X56373000Y-42127000D01*
X56627000Y-42127000D01*
X56627000Y-43320155D01*
X56856890Y-43441476D01*
X57266924Y-43271645D01*
X57695183Y-42881358D01*
X57941486Y-42356892D01*
X57904145Y-42285750D01*
X60895000Y-42285750D01*
X60895000Y-42976309D01*
X60991673Y-43209698D01*
X61170301Y-43388327D01*
X61403690Y-43485000D01*
X62094250Y-43485000D01*
X62253000Y-43326250D01*
X62253000Y-42127000D01*
X61053750Y-42127000D01*
X60895000Y-42285750D01*
X57904145Y-42285750D01*
X57820819Y-42127000D01*
X56627000Y-42127000D01*
X56373000Y-42127000D01*
X56353000Y-42127000D01*
X56353000Y-41873000D01*
X56373000Y-41873000D01*
X56373000Y-41853000D01*
X56627000Y-41853000D01*
X56627000Y-41873000D01*
X57820819Y-41873000D01*
X57941486Y-41643108D01*
X57695183Y-41118642D01*
X57266924Y-40728355D01*
X57162249Y-40685000D01*
X61096974Y-40685000D01*
X60991673Y-40790302D01*
X60895000Y-41023691D01*
X60895000Y-41714250D01*
X61053750Y-41873000D01*
X62253000Y-41873000D01*
X62253000Y-41853000D01*
X62507000Y-41853000D01*
X62507000Y-41873000D01*
X62527000Y-41873000D01*
X62527000Y-42127000D01*
X62507000Y-42127000D01*
X62507000Y-43326250D01*
X62665750Y-43485000D01*
X63356310Y-43485000D01*
X63589699Y-43388327D01*
X63768327Y-43209698D01*
X63834904Y-43048967D01*
X63849375Y-43070625D01*
X64340582Y-43398839D01*
X64773744Y-43485000D01*
X65066256Y-43485000D01*
X65499418Y-43398839D01*
X65990625Y-43070625D01*
X66190000Y-42772239D01*
X66389375Y-43070625D01*
X66880582Y-43398839D01*
X67313744Y-43485000D01*
X67606256Y-43485000D01*
X68039418Y-43398839D01*
X68530625Y-43070625D01*
X68730000Y-42772239D01*
X68929375Y-43070625D01*
X69420582Y-43398839D01*
X69853744Y-43485000D01*
X70146256Y-43485000D01*
X70579418Y-43398839D01*
X71070625Y-43070625D01*
X71270000Y-42772239D01*
X71469375Y-43070625D01*
X71960582Y-43398839D01*
X72393744Y-43485000D01*
X72686256Y-43485000D01*
X73119418Y-43398839D01*
X73610625Y-43070625D01*
X73810000Y-42772239D01*
X74009375Y-43070625D01*
X74500582Y-43398839D01*
X74933744Y-43485000D01*
X75226256Y-43485000D01*
X75659418Y-43398839D01*
X76150625Y-43070625D01*
X76350000Y-42772239D01*
X76549375Y-43070625D01*
X77040582Y-43398839D01*
X77473744Y-43485000D01*
X77766256Y-43485000D01*
X78199418Y-43398839D01*
X78690625Y-43070625D01*
X79018839Y-42579418D01*
X79134092Y-42000000D01*
X79018839Y-41420582D01*
X78690625Y-40929375D01*
X78324892Y-40685000D01*
X111315001Y-40685000D01*
X111315000Y-81315000D01*
X50685000Y-81315000D01*
X50685000Y-76571877D01*
X53825868Y-76571877D01*
X54024677Y-76967604D01*
X54359791Y-77257127D01*
X54618126Y-77364119D01*
X54793000Y-77237954D01*
X54793000Y-76397000D01*
X53950865Y-76397000D01*
X53825868Y-76571877D01*
X50685000Y-76571877D01*
X50685000Y-75000000D01*
X53762765Y-75000000D01*
X53850854Y-75442855D01*
X53987224Y-75646947D01*
X53825868Y-75968123D01*
X53950865Y-76143000D01*
X54793000Y-76143000D01*
X54793000Y-76131973D01*
X54808217Y-76135000D01*
X55031783Y-76135000D01*
X55047000Y-76131973D01*
X55047000Y-76143000D01*
X55058027Y-76143000D01*
X55032765Y-76270000D01*
X55058027Y-76397000D01*
X55047000Y-76397000D01*
X55047000Y-77237954D01*
X55221874Y-77364119D01*
X55480209Y-77257127D01*
X55543090Y-77202801D01*
X55747145Y-77339146D01*
X56078217Y-77405000D01*
X56301783Y-77405000D01*
X56632855Y-77339146D01*
X56825000Y-77210759D01*
X57017145Y-77339146D01*
X57348217Y-77405000D01*
X57571783Y-77405000D01*
X57902855Y-77339146D01*
X58095000Y-77210759D01*
X58287145Y-77339146D01*
X58618217Y-77405000D01*
X58841783Y-77405000D01*
X59172855Y-77339146D01*
X59365000Y-77210759D01*
X59557145Y-77339146D01*
X59888217Y-77405000D01*
X60111783Y-77405000D01*
X60442855Y-77339146D01*
X60818289Y-77088289D01*
X61069146Y-76712855D01*
X61097188Y-76571877D01*
X71825868Y-76571877D01*
X72024677Y-76967604D01*
X72359791Y-77257127D01*
X72618126Y-77364119D01*
X72793000Y-77237954D01*
X72793000Y-76397000D01*
X71950865Y-76397000D01*
X71825868Y-76571877D01*
X61097188Y-76571877D01*
X61157235Y-76270000D01*
X61069146Y-75827145D01*
X61057131Y-75809164D01*
X61098157Y-75747765D01*
X61147440Y-75500000D01*
X61147440Y-75014017D01*
X67265000Y-75014017D01*
X67265000Y-75385983D01*
X67407345Y-75729635D01*
X67670365Y-75992655D01*
X68014017Y-76135000D01*
X68385983Y-76135000D01*
X68729635Y-75992655D01*
X68992655Y-75729635D01*
X69135000Y-75385983D01*
X69135000Y-75014017D01*
X69129194Y-75000000D01*
X71762765Y-75000000D01*
X71850854Y-75442855D01*
X71987224Y-75646947D01*
X71825868Y-75968123D01*
X71950865Y-76143000D01*
X72793000Y-76143000D01*
X72793000Y-76131973D01*
X72808217Y-76135000D01*
X73031783Y-76135000D01*
X73047000Y-76131973D01*
X73047000Y-76143000D01*
X73058027Y-76143000D01*
X73032765Y-76270000D01*
X73058027Y-76397000D01*
X73047000Y-76397000D01*
X73047000Y-77237954D01*
X73221874Y-77364119D01*
X73263501Y-77346879D01*
X73263500Y-77914210D01*
X73207345Y-77970365D01*
X73065000Y-78314017D01*
X73065000Y-78685983D01*
X73207345Y-79029635D01*
X73470365Y-79292655D01*
X73814017Y-79435000D01*
X73924682Y-79435000D01*
X74012631Y-79493766D01*
X74227464Y-79536499D01*
X74227468Y-79536499D01*
X74299999Y-79550926D01*
X74372530Y-79536499D01*
X77627470Y-79536499D01*
X77700001Y-79550926D01*
X77772532Y-79536499D01*
X77772536Y-79536499D01*
X77987369Y-79493766D01*
X78230987Y-79330985D01*
X78272074Y-79269494D01*
X79761673Y-77779895D01*
X79823164Y-77738808D01*
X79985945Y-77495190D01*
X80028678Y-77280357D01*
X80028678Y-77280352D01*
X80043105Y-77207823D01*
X80028678Y-77135294D01*
X80028678Y-73814017D01*
X83465000Y-73814017D01*
X83465000Y-74185983D01*
X83607345Y-74529635D01*
X83663500Y-74585790D01*
X83663501Y-75414209D01*
X83607345Y-75470365D01*
X83465000Y-75814017D01*
X83465000Y-76185983D01*
X83607345Y-76529635D01*
X83870365Y-76792655D01*
X84214017Y-76935000D01*
X84585983Y-76935000D01*
X84929635Y-76792655D01*
X85192655Y-76529635D01*
X85335000Y-76185983D01*
X85335000Y-75814017D01*
X85192655Y-75470365D01*
X85136500Y-75414210D01*
X85136500Y-74585790D01*
X85192655Y-74529635D01*
X85335000Y-74185983D01*
X85335000Y-73814017D01*
X85192655Y-73470365D01*
X84929635Y-73207345D01*
X84585983Y-73065000D01*
X84214017Y-73065000D01*
X83870365Y-73207345D01*
X83607345Y-73470365D01*
X83465000Y-73814017D01*
X80028678Y-73814017D01*
X80028678Y-73114706D01*
X80043105Y-73042177D01*
X80028678Y-72969648D01*
X80028678Y-72969644D01*
X79985945Y-72754810D01*
X79823164Y-72511192D01*
X79761673Y-72470105D01*
X79685000Y-72393432D01*
X79685000Y-72314017D01*
X79627326Y-72174778D01*
X99365000Y-72174778D01*
X99365000Y-72825222D01*
X99613914Y-73426153D01*
X100073847Y-73886086D01*
X100505001Y-74064676D01*
X100505000Y-75422710D01*
X100457345Y-75470365D01*
X100315000Y-75814017D01*
X100315000Y-76185983D01*
X100457345Y-76529635D01*
X100720365Y-76792655D01*
X101064017Y-76935000D01*
X101435983Y-76935000D01*
X101779635Y-76792655D01*
X102042655Y-76529635D01*
X102185000Y-76185983D01*
X102185000Y-75814017D01*
X102042655Y-75470365D01*
X101995000Y-75422710D01*
X101995000Y-73817239D01*
X102386086Y-73426153D01*
X102635000Y-72825222D01*
X102635000Y-72174778D01*
X102386086Y-71573847D01*
X101926153Y-71113914D01*
X101325222Y-70865000D01*
X100674778Y-70865000D01*
X100073847Y-71113914D01*
X99613914Y-71573847D01*
X99365000Y-72174778D01*
X79627326Y-72174778D01*
X79542655Y-71970365D01*
X79279635Y-71707345D01*
X78935983Y-71565000D01*
X78564017Y-71565000D01*
X78220365Y-71707345D01*
X77957345Y-71970365D01*
X77815000Y-72314017D01*
X77815000Y-72685983D01*
X77957345Y-73029635D01*
X78070393Y-73142683D01*
X78059536Y-73147180D01*
X77796516Y-73410200D01*
X77691407Y-73663956D01*
X77691407Y-73394000D01*
X77549062Y-73050348D01*
X77286042Y-72787328D01*
X76942390Y-72644983D01*
X76570424Y-72644983D01*
X76319209Y-72749039D01*
X76277085Y-72647343D01*
X76014065Y-72384323D01*
X75670413Y-72241978D01*
X75619465Y-72241978D01*
X75545262Y-72062835D01*
X75282242Y-71799815D01*
X74938590Y-71657470D01*
X74870156Y-71657470D01*
X74792655Y-71470365D01*
X74529635Y-71207345D01*
X74185983Y-71065000D01*
X73814017Y-71065000D01*
X73470365Y-71207345D01*
X73207345Y-71470365D01*
X73065000Y-71814017D01*
X73065000Y-71893432D01*
X72450505Y-72507927D01*
X72389014Y-72549014D01*
X72347927Y-72610505D01*
X72347926Y-72610506D01*
X72235708Y-72778453D01*
X72226233Y-72792633D01*
X72183500Y-73007466D01*
X72183500Y-73007469D01*
X72169073Y-73080000D01*
X72183500Y-73152531D01*
X72183501Y-74127061D01*
X72101711Y-74181711D01*
X71850854Y-74557145D01*
X71762765Y-75000000D01*
X69129194Y-75000000D01*
X68992655Y-74670365D01*
X68945000Y-74622710D01*
X68945000Y-72669133D01*
X69129635Y-72592655D01*
X69392655Y-72329635D01*
X69535000Y-71985983D01*
X69535000Y-71614017D01*
X69392655Y-71270365D01*
X69129635Y-71007345D01*
X68785983Y-70865000D01*
X68414017Y-70865000D01*
X68070365Y-71007345D01*
X67807345Y-71270365D01*
X67665000Y-71614017D01*
X67665000Y-71661472D01*
X67662885Y-71662885D01*
X67498226Y-71909317D01*
X67455000Y-72126626D01*
X67440405Y-72200000D01*
X67455000Y-72273373D01*
X67455001Y-74622709D01*
X67407345Y-74670365D01*
X67265000Y-75014017D01*
X61147440Y-75014017D01*
X61147440Y-74500000D01*
X61098157Y-74252235D01*
X60957809Y-74042191D01*
X60747765Y-73901843D01*
X60500000Y-73852560D01*
X59500000Y-73852560D01*
X59252235Y-73901843D01*
X59190836Y-73942869D01*
X59172855Y-73930854D01*
X58841783Y-73865000D01*
X58618217Y-73865000D01*
X58287145Y-73930854D01*
X58095000Y-74059241D01*
X57902855Y-73930854D01*
X57571783Y-73865000D01*
X57348217Y-73865000D01*
X57017145Y-73930854D01*
X56825000Y-74059241D01*
X56632855Y-73930854D01*
X56301783Y-73865000D01*
X56078217Y-73865000D01*
X55747145Y-73930854D01*
X55555000Y-74059241D01*
X55362855Y-73930854D01*
X55031783Y-73865000D01*
X54808217Y-73865000D01*
X54477145Y-73930854D01*
X54101711Y-74181711D01*
X53850854Y-74557145D01*
X53762765Y-75000000D01*
X50685000Y-75000000D01*
X50685000Y-65460000D01*
X59485908Y-65460000D01*
X59601161Y-66039418D01*
X59929375Y-66530625D01*
X60227761Y-66730000D01*
X59929375Y-66929375D01*
X59601161Y-67420582D01*
X59485908Y-68000000D01*
X59601161Y-68579418D01*
X59929375Y-69070625D01*
X59947619Y-69082816D01*
X59902235Y-69091843D01*
X59692191Y-69232191D01*
X59551843Y-69442235D01*
X59502560Y-69690000D01*
X59502560Y-71390000D01*
X59551843Y-71637765D01*
X59692191Y-71847809D01*
X59902235Y-71988157D01*
X60150000Y-72037440D01*
X61850000Y-72037440D01*
X62097765Y-71988157D01*
X62307809Y-71847809D01*
X62448157Y-71637765D01*
X62497440Y-71390000D01*
X62497440Y-69690000D01*
X62448157Y-69442235D01*
X62307809Y-69232191D01*
X62097765Y-69091843D01*
X62052381Y-69082816D01*
X62070625Y-69070625D01*
X62217228Y-68851217D01*
X87558600Y-68851217D01*
X87558600Y-69223183D01*
X87700945Y-69566835D01*
X87757101Y-69622991D01*
X87757100Y-70407210D01*
X87700945Y-70463365D01*
X87558600Y-70807017D01*
X87558600Y-71178983D01*
X87700945Y-71522635D01*
X87963965Y-71785655D01*
X88307617Y-71928000D01*
X88679583Y-71928000D01*
X89023235Y-71785655D01*
X89286255Y-71522635D01*
X89428600Y-71178983D01*
X89428600Y-70807017D01*
X89286255Y-70463365D01*
X89230100Y-70407210D01*
X89230100Y-69622990D01*
X89286255Y-69566835D01*
X89428600Y-69223183D01*
X89428600Y-68851217D01*
X89286255Y-68507565D01*
X89023235Y-68244545D01*
X88679583Y-68102200D01*
X88307617Y-68102200D01*
X87963965Y-68244545D01*
X87700945Y-68507565D01*
X87558600Y-68851217D01*
X62217228Y-68851217D01*
X62398839Y-68579418D01*
X62514092Y-68000000D01*
X62398839Y-67420582D01*
X62070625Y-66929375D01*
X61897980Y-66814017D01*
X71565000Y-66814017D01*
X71565000Y-67185983D01*
X71707345Y-67529635D01*
X71970365Y-67792655D01*
X72314017Y-67935000D01*
X72685983Y-67935000D01*
X73029635Y-67792655D01*
X73147512Y-67674778D01*
X99365000Y-67674778D01*
X99365000Y-68325222D01*
X99613914Y-68926153D01*
X100073847Y-69386086D01*
X100674778Y-69635000D01*
X101325222Y-69635000D01*
X101926153Y-69386086D01*
X102386086Y-68926153D01*
X102635000Y-68325222D01*
X102635000Y-67674778D01*
X102386086Y-67073847D01*
X102376256Y-67064017D01*
X104815000Y-67064017D01*
X104815000Y-67435983D01*
X104957345Y-67779635D01*
X105005001Y-67827291D01*
X105005000Y-70676628D01*
X104990405Y-70750000D01*
X105005000Y-70823372D01*
X105005000Y-70823373D01*
X105048226Y-71040683D01*
X105212885Y-71287115D01*
X105275092Y-71328680D01*
X105940036Y-71993625D01*
X105865000Y-72174778D01*
X105865000Y-72825222D01*
X106113914Y-73426153D01*
X106573847Y-73886086D01*
X107174778Y-74135000D01*
X107825222Y-74135000D01*
X108426153Y-73886086D01*
X108886086Y-73426153D01*
X109135000Y-72825222D01*
X109135000Y-72174778D01*
X108886086Y-71573847D01*
X108426153Y-71113914D01*
X107825222Y-70865000D01*
X107174778Y-70865000D01*
X106993625Y-70940036D01*
X106495000Y-70441412D01*
X106495000Y-69307239D01*
X106573847Y-69386086D01*
X107174778Y-69635000D01*
X107825222Y-69635000D01*
X108426153Y-69386086D01*
X108886086Y-68926153D01*
X109135000Y-68325222D01*
X109135000Y-67674778D01*
X108886086Y-67073847D01*
X108426153Y-66613914D01*
X107825222Y-66365000D01*
X107174778Y-66365000D01*
X106573847Y-66613914D01*
X106505026Y-66682736D01*
X106279635Y-66457345D01*
X105935983Y-66315000D01*
X105564017Y-66315000D01*
X105220365Y-66457345D01*
X104957345Y-66720365D01*
X104815000Y-67064017D01*
X102376256Y-67064017D01*
X101926153Y-66613914D01*
X101325222Y-66365000D01*
X100674778Y-66365000D01*
X100073847Y-66613914D01*
X99613914Y-67073847D01*
X99365000Y-67674778D01*
X73147512Y-67674778D01*
X73292655Y-67529635D01*
X73435000Y-67185983D01*
X73435000Y-66814017D01*
X73381560Y-66685000D01*
X73435983Y-66685000D01*
X73779635Y-66542655D01*
X74042655Y-66279635D01*
X74185000Y-65935983D01*
X74185000Y-65564017D01*
X74042655Y-65220365D01*
X73779635Y-64957345D01*
X73435983Y-64815000D01*
X73064017Y-64815000D01*
X72720365Y-64957345D01*
X72457345Y-65220365D01*
X72315000Y-65564017D01*
X72315000Y-65631412D01*
X72025090Y-65921322D01*
X71962886Y-65962885D01*
X71798226Y-66209316D01*
X71755972Y-66421738D01*
X71707345Y-66470365D01*
X71565000Y-66814017D01*
X61897980Y-66814017D01*
X61772239Y-66730000D01*
X62070625Y-66530625D01*
X62398839Y-66039418D01*
X62514092Y-65460000D01*
X62398839Y-64880582D01*
X62070625Y-64389375D01*
X61751522Y-64176157D01*
X61881358Y-64115183D01*
X62271645Y-63686924D01*
X62441476Y-63276890D01*
X62320155Y-63047000D01*
X61127000Y-63047000D01*
X61127000Y-63067000D01*
X60873000Y-63067000D01*
X60873000Y-63047000D01*
X59679845Y-63047000D01*
X59558524Y-63276890D01*
X59728355Y-63686924D01*
X60118642Y-64115183D01*
X60248478Y-64176157D01*
X59929375Y-64389375D01*
X59601161Y-64880582D01*
X59485908Y-65460000D01*
X50685000Y-65460000D01*
X50685000Y-62563110D01*
X59558524Y-62563110D01*
X59679845Y-62793000D01*
X60873000Y-62793000D01*
X60873000Y-61599181D01*
X61127000Y-61599181D01*
X61127000Y-62793000D01*
X62320155Y-62793000D01*
X62441476Y-62563110D01*
X62271645Y-62153076D01*
X61881358Y-61724817D01*
X61356892Y-61478514D01*
X61127000Y-61599181D01*
X60873000Y-61599181D01*
X60643108Y-61478514D01*
X60118642Y-61724817D01*
X59728355Y-62153076D01*
X59558524Y-62563110D01*
X50685000Y-62563110D01*
X50685000Y-61199071D01*
X50893417Y-61285400D01*
X51265383Y-61285400D01*
X51609035Y-61143055D01*
X51872055Y-60880035D01*
X51982243Y-60614017D01*
X62465000Y-60614017D01*
X62465000Y-60985983D01*
X62607345Y-61329635D01*
X62870365Y-61592655D01*
X63214017Y-61735000D01*
X63585983Y-61735000D01*
X63929635Y-61592655D01*
X63977290Y-61545000D01*
X66622710Y-61545000D01*
X66670365Y-61592655D01*
X67014017Y-61735000D01*
X67385983Y-61735000D01*
X67729635Y-61592655D01*
X67992655Y-61329635D01*
X68135000Y-60985983D01*
X68135000Y-60614017D01*
X67992655Y-60270365D01*
X67729635Y-60007345D01*
X67385983Y-59865000D01*
X67014017Y-59865000D01*
X66670365Y-60007345D01*
X66622710Y-60055000D01*
X63977290Y-60055000D01*
X63929635Y-60007345D01*
X63585983Y-59865000D01*
X63214017Y-59865000D01*
X62870365Y-60007345D01*
X62607345Y-60270365D01*
X62465000Y-60614017D01*
X51982243Y-60614017D01*
X52014400Y-60536383D01*
X52014400Y-60164417D01*
X51872055Y-59820765D01*
X51824400Y-59773110D01*
X51824400Y-56243535D01*
X71932059Y-56243535D01*
X71932059Y-56615501D01*
X72074404Y-56959153D01*
X72337424Y-57222173D01*
X72681076Y-57364518D01*
X73053042Y-57364518D01*
X73396694Y-57222173D01*
X73659714Y-56959153D01*
X73715286Y-56824990D01*
X74654571Y-56824990D01*
X74598225Y-56909317D01*
X74556054Y-57121323D01*
X74545101Y-57176388D01*
X74470365Y-57207345D01*
X74207345Y-57470365D01*
X74065000Y-57814017D01*
X74065000Y-58185983D01*
X74207345Y-58529635D01*
X74318694Y-58640984D01*
X74204013Y-58640984D01*
X73860361Y-58783329D01*
X73597341Y-59046349D01*
X73454996Y-59390001D01*
X73454996Y-59761967D01*
X73597341Y-60105619D01*
X73860361Y-60368639D01*
X74204013Y-60510984D01*
X74283428Y-60510984D01*
X74491939Y-60719495D01*
X74533026Y-60780986D01*
X74776644Y-60943767D01*
X74991477Y-60986500D01*
X74991481Y-60986500D01*
X75064012Y-61000927D01*
X75136543Y-60986500D01*
X76145344Y-60986500D01*
X76141059Y-60990785D01*
X75998714Y-61334437D01*
X75998714Y-61703531D01*
X75937721Y-61764524D01*
X75795376Y-62108176D01*
X75795376Y-62480142D01*
X75937721Y-62823794D01*
X75993876Y-62879949D01*
X75993876Y-63257845D01*
X75979449Y-63330376D01*
X75993876Y-63402907D01*
X75993876Y-63402910D01*
X76034674Y-63608013D01*
X76036609Y-63617743D01*
X76125220Y-63750358D01*
X76199390Y-63861362D01*
X76260881Y-63902449D01*
X76665000Y-64306569D01*
X76665000Y-64385983D01*
X76807345Y-64729635D01*
X77070365Y-64992655D01*
X77414017Y-65135000D01*
X77785983Y-65135000D01*
X78129635Y-64992655D01*
X78392655Y-64729635D01*
X78535000Y-64385983D01*
X78535000Y-64014017D01*
X78397327Y-63681643D01*
X78505416Y-63420691D01*
X78637766Y-63509125D01*
X78852599Y-63551858D01*
X78852603Y-63551858D01*
X78900466Y-63561378D01*
X78947101Y-63608013D01*
X79290753Y-63750358D01*
X79662719Y-63750358D01*
X80006371Y-63608013D01*
X80269391Y-63344993D01*
X80411736Y-63001341D01*
X80411736Y-62629375D01*
X80269391Y-62285723D01*
X80012618Y-62028950D01*
X80030992Y-62010576D01*
X80066481Y-61986863D01*
X80066482Y-61986862D01*
X80127973Y-61945775D01*
X80169061Y-61884283D01*
X80320994Y-61732349D01*
X80382488Y-61691260D01*
X80545269Y-61447642D01*
X80567249Y-61337142D01*
X80687617Y-61387000D01*
X81059583Y-61387000D01*
X81403235Y-61244655D01*
X81666255Y-60981635D01*
X81808600Y-60637983D01*
X81808600Y-60266017D01*
X81666255Y-59922365D01*
X81436501Y-59692611D01*
X81436501Y-59448282D01*
X82452152Y-60463933D01*
X82493239Y-60525424D01*
X82736857Y-60688205D01*
X82840602Y-60708841D01*
X82876642Y-60744881D01*
X82871343Y-60757674D01*
X82871343Y-61129640D01*
X83013688Y-61473292D01*
X83276708Y-61736312D01*
X83620360Y-61878657D01*
X83992326Y-61878657D01*
X84335978Y-61736312D01*
X84598998Y-61473292D01*
X84741343Y-61129640D01*
X84741343Y-61018975D01*
X84800109Y-60931026D01*
X84842842Y-60716193D01*
X84842842Y-60716189D01*
X84857269Y-60643658D01*
X84842842Y-60571127D01*
X84842842Y-59654887D01*
X100265000Y-59654887D01*
X100265000Y-60345113D01*
X100529138Y-60982799D01*
X101017201Y-61470862D01*
X101654887Y-61735000D01*
X102345113Y-61735000D01*
X102982799Y-61470862D01*
X103470862Y-60982799D01*
X103735000Y-60345113D01*
X103735000Y-59654887D01*
X103470862Y-59017201D01*
X102982799Y-58529138D01*
X102345113Y-58265000D01*
X101654887Y-58265000D01*
X101017201Y-58529138D01*
X100529138Y-59017201D01*
X100265000Y-59654887D01*
X84842842Y-59654887D01*
X84842842Y-58072081D01*
X84857269Y-57999550D01*
X84842842Y-57927019D01*
X84842842Y-57927016D01*
X84800109Y-57712183D01*
X84637328Y-57468565D01*
X84575837Y-57427478D01*
X83962376Y-56814017D01*
X91315000Y-56814017D01*
X91315000Y-57185983D01*
X91457345Y-57529635D01*
X91720365Y-57792655D01*
X92013501Y-57914075D01*
X92013501Y-57914209D01*
X91957345Y-57970365D01*
X91815000Y-58314017D01*
X91815000Y-58685983D01*
X91957345Y-59029635D01*
X92220365Y-59292655D01*
X92564017Y-59435000D01*
X92935983Y-59435000D01*
X93279635Y-59292655D01*
X93542655Y-59029635D01*
X93685000Y-58685983D01*
X93685000Y-58314017D01*
X93542655Y-57970365D01*
X93486500Y-57914210D01*
X93486500Y-57572531D01*
X93500927Y-57500000D01*
X93486500Y-57427469D01*
X93486500Y-57427465D01*
X93443767Y-57212632D01*
X93360067Y-57087366D01*
X93322074Y-57030506D01*
X93322073Y-57030505D01*
X93280986Y-56969014D01*
X93219495Y-56927927D01*
X93185000Y-56893432D01*
X93185000Y-56814017D01*
X93042655Y-56470365D01*
X92779635Y-56207345D01*
X92435983Y-56065000D01*
X92064017Y-56065000D01*
X91720365Y-56207345D01*
X91457345Y-56470365D01*
X91315000Y-56814017D01*
X83962376Y-56814017D01*
X83643754Y-56495395D01*
X83643754Y-56415980D01*
X83501409Y-56072328D01*
X83238389Y-55809308D01*
X82894737Y-55666963D01*
X82745000Y-55666963D01*
X82745000Y-55327290D01*
X82792655Y-55279635D01*
X82935000Y-54935983D01*
X82935000Y-54564017D01*
X82799338Y-54236500D01*
X86944932Y-54236500D01*
X87815000Y-55106568D01*
X87815000Y-55185983D01*
X87957345Y-55529635D01*
X88220365Y-55792655D01*
X88564017Y-55935000D01*
X88935983Y-55935000D01*
X89279635Y-55792655D01*
X89542655Y-55529635D01*
X89685000Y-55185983D01*
X89685000Y-54814017D01*
X89542655Y-54470365D01*
X89279635Y-54207345D01*
X88935983Y-54065000D01*
X88856568Y-54065000D01*
X87822073Y-53030505D01*
X87780986Y-52969014D01*
X87537368Y-52806233D01*
X87322535Y-52763500D01*
X87322531Y-52763500D01*
X87250000Y-52749073D01*
X87177469Y-52763500D01*
X82652891Y-52763500D01*
X82685000Y-52685983D01*
X82685000Y-52314017D01*
X82606503Y-52124506D01*
X91615000Y-52124506D01*
X91615000Y-52675494D01*
X91825853Y-53184540D01*
X92215460Y-53574147D01*
X92724506Y-53785000D01*
X93275494Y-53785000D01*
X93784540Y-53574147D01*
X94174147Y-53184540D01*
X94385000Y-52675494D01*
X94385000Y-52174778D01*
X99365000Y-52174778D01*
X99365000Y-52825222D01*
X99613914Y-53426153D01*
X100073847Y-53886086D01*
X100674778Y-54135000D01*
X101325222Y-54135000D01*
X101926153Y-53886086D01*
X102386086Y-53426153D01*
X102635000Y-52825222D01*
X102635000Y-52174778D01*
X105865000Y-52174778D01*
X105865000Y-52825222D01*
X106113914Y-53426153D01*
X106573847Y-53886086D01*
X107174778Y-54135000D01*
X107825222Y-54135000D01*
X108426153Y-53886086D01*
X108886086Y-53426153D01*
X109135000Y-52825222D01*
X109135000Y-52174778D01*
X108886086Y-51573847D01*
X108426153Y-51113914D01*
X107825222Y-50865000D01*
X107174778Y-50865000D01*
X106573847Y-51113914D01*
X106113914Y-51573847D01*
X105865000Y-52174778D01*
X102635000Y-52174778D01*
X102386086Y-51573847D01*
X101926153Y-51113914D01*
X101325222Y-50865000D01*
X100674778Y-50865000D01*
X100073847Y-51113914D01*
X99613914Y-51573847D01*
X99365000Y-52174778D01*
X94385000Y-52174778D01*
X94385000Y-52124506D01*
X94174147Y-51615460D01*
X93784540Y-51225853D01*
X93275494Y-51015000D01*
X92724506Y-51015000D01*
X92215460Y-51225853D01*
X91825853Y-51615460D01*
X91615000Y-52124506D01*
X82606503Y-52124506D01*
X82542655Y-51970365D01*
X82279635Y-51707345D01*
X81935983Y-51565000D01*
X81564017Y-51565000D01*
X81220365Y-51707345D01*
X80957345Y-51970365D01*
X80815000Y-52314017D01*
X80815000Y-52393432D01*
X79382007Y-53826425D01*
X79320516Y-53867512D01*
X79279429Y-53929003D01*
X79279428Y-53929004D01*
X79188559Y-54065000D01*
X79157735Y-54111131D01*
X79115002Y-54325964D01*
X79115002Y-54325967D01*
X79100575Y-54398498D01*
X79115002Y-54471029D01*
X79115002Y-54565000D01*
X79064017Y-54565000D01*
X78720365Y-54707345D01*
X78457345Y-54970365D01*
X78315000Y-55314017D01*
X78315000Y-55588646D01*
X77992326Y-55454990D01*
X77882407Y-55454990D01*
X77792211Y-55394723D01*
X77577378Y-55351990D01*
X77577374Y-55351990D01*
X77504843Y-55337563D01*
X77432312Y-55351990D01*
X73280618Y-55351990D01*
X73208087Y-55337563D01*
X73135556Y-55351990D01*
X73135552Y-55351990D01*
X72920719Y-55394723D01*
X72771366Y-55494518D01*
X72681076Y-55494518D01*
X72337424Y-55636863D01*
X72074404Y-55899883D01*
X71932059Y-56243535D01*
X51824400Y-56243535D01*
X51824400Y-54680000D01*
X61773000Y-54680000D01*
X61773000Y-56000000D01*
X61782900Y-56049159D01*
X61810626Y-56090229D01*
X61851958Y-56117563D01*
X61900605Y-56126999D01*
X66100605Y-56106999D01*
X66148601Y-56097333D01*
X66189803Y-56069803D01*
X66217333Y-56028601D01*
X66227000Y-55980000D01*
X66227000Y-54680000D01*
X66217333Y-54631399D01*
X66189803Y-54590197D01*
X66148601Y-54562667D01*
X66100000Y-54553000D01*
X61900000Y-54553000D01*
X61851399Y-54562667D01*
X61810197Y-54590197D01*
X61782667Y-54631399D01*
X61773000Y-54680000D01*
X51824400Y-54680000D01*
X51824400Y-52680000D01*
X61773000Y-52680000D01*
X61773000Y-53980000D01*
X61782667Y-54028601D01*
X61810197Y-54069803D01*
X61851399Y-54097333D01*
X61900000Y-54107000D01*
X66100000Y-54107000D01*
X66148601Y-54097333D01*
X66189803Y-54069803D01*
X66217333Y-54028601D01*
X66227000Y-53980000D01*
X66227000Y-52680000D01*
X66217333Y-52631399D01*
X66189803Y-52590197D01*
X66148601Y-52562667D01*
X66100000Y-52553000D01*
X61900000Y-52553000D01*
X61851399Y-52562667D01*
X61810197Y-52590197D01*
X61782667Y-52631399D01*
X61773000Y-52680000D01*
X51824400Y-52680000D01*
X51824400Y-48654887D01*
X59265000Y-48654887D01*
X59265000Y-49345113D01*
X59529138Y-49982799D01*
X60017201Y-50470862D01*
X60654887Y-50735000D01*
X61345113Y-50735000D01*
X61982799Y-50470862D01*
X62470862Y-49982799D01*
X62735000Y-49345113D01*
X62735000Y-48654887D01*
X62470862Y-48017201D01*
X61982799Y-47529138D01*
X61345113Y-47265000D01*
X60654887Y-47265000D01*
X60017201Y-47529138D01*
X59529138Y-48017201D01*
X59265000Y-48654887D01*
X51824400Y-48654887D01*
X51824400Y-46727817D01*
X79938600Y-46727817D01*
X79938600Y-47099783D01*
X80080945Y-47443435D01*
X80343965Y-47706455D01*
X80687617Y-47848800D01*
X81059583Y-47848800D01*
X81403235Y-47706455D01*
X81459390Y-47650300D01*
X82446810Y-47650300D01*
X82502965Y-47706455D01*
X82846617Y-47848800D01*
X83218583Y-47848800D01*
X83562235Y-47706455D01*
X83825255Y-47443435D01*
X83907653Y-47244506D01*
X91615000Y-47244506D01*
X91615000Y-47795494D01*
X91825853Y-48304540D01*
X92215460Y-48694147D01*
X92724506Y-48905000D01*
X93275494Y-48905000D01*
X93784540Y-48694147D01*
X94174147Y-48304540D01*
X94385000Y-47795494D01*
X94385000Y-47674778D01*
X99365000Y-47674778D01*
X99365000Y-48325222D01*
X99613914Y-48926153D01*
X100073847Y-49386086D01*
X100674778Y-49635000D01*
X101325222Y-49635000D01*
X101926153Y-49386086D01*
X102386086Y-48926153D01*
X102635000Y-48325222D01*
X102635000Y-47674778D01*
X105865000Y-47674778D01*
X105865000Y-48325222D01*
X106113914Y-48926153D01*
X106573847Y-49386086D01*
X107174778Y-49635000D01*
X107825222Y-49635000D01*
X108426153Y-49386086D01*
X108886086Y-48926153D01*
X109135000Y-48325222D01*
X109135000Y-47674778D01*
X108886086Y-47073847D01*
X108426153Y-46613914D01*
X107825222Y-46365000D01*
X107174778Y-46365000D01*
X106573847Y-46613914D01*
X106113914Y-47073847D01*
X105865000Y-47674778D01*
X102635000Y-47674778D01*
X102386086Y-47073847D01*
X101926153Y-46613914D01*
X101325222Y-46365000D01*
X100674778Y-46365000D01*
X100073847Y-46613914D01*
X99613914Y-47073847D01*
X99365000Y-47674778D01*
X94385000Y-47674778D01*
X94385000Y-47244506D01*
X94174147Y-46735460D01*
X93784540Y-46345853D01*
X93275494Y-46135000D01*
X92724506Y-46135000D01*
X92215460Y-46345853D01*
X91825853Y-46735460D01*
X91615000Y-47244506D01*
X83907653Y-47244506D01*
X83967600Y-47099783D01*
X83967600Y-46727817D01*
X83825255Y-46384165D01*
X83562235Y-46121145D01*
X83218583Y-45978800D01*
X82846617Y-45978800D01*
X82502965Y-46121145D01*
X82446810Y-46177300D01*
X81459390Y-46177300D01*
X81403235Y-46121145D01*
X81059583Y-45978800D01*
X80687617Y-45978800D01*
X80343965Y-46121145D01*
X80080945Y-46384165D01*
X79938600Y-46727817D01*
X51824400Y-46727817D01*
X51824400Y-46642584D01*
X52015435Y-46563455D01*
X52278455Y-46300435D01*
X52420800Y-45956783D01*
X52420800Y-45584817D01*
X52399758Y-45534017D01*
X70921600Y-45534017D01*
X70921600Y-45905983D01*
X71063945Y-46249635D01*
X71326965Y-46512655D01*
X71670617Y-46655000D01*
X72042583Y-46655000D01*
X72386235Y-46512655D01*
X72442390Y-46456500D01*
X76483069Y-46456500D01*
X76555600Y-46470927D01*
X76628131Y-46456500D01*
X76628135Y-46456500D01*
X76842968Y-46413767D01*
X77086586Y-46250986D01*
X77100830Y-46229668D01*
X77166915Y-46229668D01*
X77510567Y-46087323D01*
X77773587Y-45824303D01*
X77915932Y-45480651D01*
X77915932Y-45108685D01*
X77773587Y-44765033D01*
X77510567Y-44502013D01*
X77166915Y-44359668D01*
X76794949Y-44359668D01*
X76451297Y-44502013D01*
X76188277Y-44765033D01*
X76097785Y-44983500D01*
X72442390Y-44983500D01*
X72386235Y-44927345D01*
X72042583Y-44785000D01*
X71670617Y-44785000D01*
X71326965Y-44927345D01*
X71063945Y-45190365D01*
X70921600Y-45534017D01*
X52399758Y-45534017D01*
X52278455Y-45241165D01*
X52015435Y-44978145D01*
X51671783Y-44835800D01*
X51299817Y-44835800D01*
X50956165Y-44978145D01*
X50693145Y-45241165D01*
X50685000Y-45260829D01*
X50685000Y-40685000D01*
X52662953Y-40685000D01*
X52652191Y-40692191D01*
X52652191Y-40692191D01*
G37*
X52652191Y-40692191D02*
X52511843Y-40902235D01*
X52462560Y-41150000D01*
X52462560Y-42850000D01*
X52511843Y-43097765D01*
X52652191Y-43307809D01*
X52862235Y-43448157D01*
X53110000Y-43497440D01*
X54810000Y-43497440D01*
X55057765Y-43448157D01*
X55267809Y-43307809D01*
X55408157Y-43097765D01*
X55428739Y-42994292D01*
X55733076Y-43271645D01*
X56143110Y-43441476D01*
X56373000Y-43320155D01*
X56373000Y-42127000D01*
X56627000Y-42127000D01*
X56627000Y-43320155D01*
X56856890Y-43441476D01*
X57266924Y-43271645D01*
X57695183Y-42881358D01*
X57941486Y-42356892D01*
X57904145Y-42285750D01*
X60895000Y-42285750D01*
X60895000Y-42976309D01*
X60991673Y-43209698D01*
X61170301Y-43388327D01*
X61403690Y-43485000D01*
X62094250Y-43485000D01*
X62253000Y-43326250D01*
X62253000Y-42127000D01*
X61053750Y-42127000D01*
X60895000Y-42285750D01*
X57904145Y-42285750D01*
X57820819Y-42127000D01*
X56627000Y-42127000D01*
X56373000Y-42127000D01*
X56353000Y-42127000D01*
X56353000Y-41873000D01*
X56373000Y-41873000D01*
X56373000Y-41853000D01*
X56627000Y-41853000D01*
X56627000Y-41873000D01*
X57820819Y-41873000D01*
X57941486Y-41643108D01*
X57695183Y-41118642D01*
X57266924Y-40728355D01*
X57162249Y-40685000D01*
X61096974Y-40685000D01*
X60991673Y-40790302D01*
X60895000Y-41023691D01*
X60895000Y-41714250D01*
X61053750Y-41873000D01*
X62253000Y-41873000D01*
X62253000Y-41853000D01*
X62507000Y-41853000D01*
X62507000Y-41873000D01*
X62527000Y-41873000D01*
X62527000Y-42127000D01*
X62507000Y-42127000D01*
X62507000Y-43326250D01*
X62665750Y-43485000D01*
X63356310Y-43485000D01*
X63589699Y-43388327D01*
X63768327Y-43209698D01*
X63834904Y-43048967D01*
X63849375Y-43070625D01*
X64340582Y-43398839D01*
X64773744Y-43485000D01*
X65066256Y-43485000D01*
X65499418Y-43398839D01*
X65990625Y-43070625D01*
X66190000Y-42772239D01*
X66389375Y-43070625D01*
X66880582Y-43398839D01*
X67313744Y-43485000D01*
X67606256Y-43485000D01*
X68039418Y-43398839D01*
X68530625Y-43070625D01*
X68730000Y-42772239D01*
X68929375Y-43070625D01*
X69420582Y-43398839D01*
X69853744Y-43485000D01*
X70146256Y-43485000D01*
X70579418Y-43398839D01*
X71070625Y-43070625D01*
X71270000Y-42772239D01*
X71469375Y-43070625D01*
X71960582Y-43398839D01*
X72393744Y-43485000D01*
X72686256Y-43485000D01*
X73119418Y-43398839D01*
X73610625Y-43070625D01*
X73810000Y-42772239D01*
X74009375Y-43070625D01*
X74500582Y-43398839D01*
X74933744Y-43485000D01*
X75226256Y-43485000D01*
X75659418Y-43398839D01*
X76150625Y-43070625D01*
X76350000Y-42772239D01*
X76549375Y-43070625D01*
X77040582Y-43398839D01*
X77473744Y-43485000D01*
X77766256Y-43485000D01*
X78199418Y-43398839D01*
X78690625Y-43070625D01*
X79018839Y-42579418D01*
X79134092Y-42000000D01*
X79018839Y-41420582D01*
X78690625Y-40929375D01*
X78324892Y-40685000D01*
X111315001Y-40685000D01*
X111315000Y-81315000D01*
X50685000Y-81315000D01*
X50685000Y-76571877D01*
X53825868Y-76571877D01*
X54024677Y-76967604D01*
X54359791Y-77257127D01*
X54618126Y-77364119D01*
X54793000Y-77237954D01*
X54793000Y-76397000D01*
X53950865Y-76397000D01*
X53825868Y-76571877D01*
X50685000Y-76571877D01*
X50685000Y-75000000D01*
X53762765Y-75000000D01*
X53850854Y-75442855D01*
X53987224Y-75646947D01*
X53825868Y-75968123D01*
X53950865Y-76143000D01*
X54793000Y-76143000D01*
X54793000Y-76131973D01*
X54808217Y-76135000D01*
X55031783Y-76135000D01*
X55047000Y-76131973D01*
X55047000Y-76143000D01*
X55058027Y-76143000D01*
X55032765Y-76270000D01*
X55058027Y-76397000D01*
X55047000Y-76397000D01*
X55047000Y-77237954D01*
X55221874Y-77364119D01*
X55480209Y-77257127D01*
X55543090Y-77202801D01*
X55747145Y-77339146D01*
X56078217Y-77405000D01*
X56301783Y-77405000D01*
X56632855Y-77339146D01*
X56825000Y-77210759D01*
X57017145Y-77339146D01*
X57348217Y-77405000D01*
X57571783Y-77405000D01*
X57902855Y-77339146D01*
X58095000Y-77210759D01*
X58287145Y-77339146D01*
X58618217Y-77405000D01*
X58841783Y-77405000D01*
X59172855Y-77339146D01*
X59365000Y-77210759D01*
X59557145Y-77339146D01*
X59888217Y-77405000D01*
X60111783Y-77405000D01*
X60442855Y-77339146D01*
X60818289Y-77088289D01*
X61069146Y-76712855D01*
X61097188Y-76571877D01*
X71825868Y-76571877D01*
X72024677Y-76967604D01*
X72359791Y-77257127D01*
X72618126Y-77364119D01*
X72793000Y-77237954D01*
X72793000Y-76397000D01*
X71950865Y-76397000D01*
X71825868Y-76571877D01*
X61097188Y-76571877D01*
X61157235Y-76270000D01*
X61069146Y-75827145D01*
X61057131Y-75809164D01*
X61098157Y-75747765D01*
X61147440Y-75500000D01*
X61147440Y-75014017D01*
X67265000Y-75014017D01*
X67265000Y-75385983D01*
X67407345Y-75729635D01*
X67670365Y-75992655D01*
X68014017Y-76135000D01*
X68385983Y-76135000D01*
X68729635Y-75992655D01*
X68992655Y-75729635D01*
X69135000Y-75385983D01*
X69135000Y-75014017D01*
X69129194Y-75000000D01*
X71762765Y-75000000D01*
X71850854Y-75442855D01*
X71987224Y-75646947D01*
X71825868Y-75968123D01*
X71950865Y-76143000D01*
X72793000Y-76143000D01*
X72793000Y-76131973D01*
X72808217Y-76135000D01*
X73031783Y-76135000D01*
X73047000Y-76131973D01*
X73047000Y-76143000D01*
X73058027Y-76143000D01*
X73032765Y-76270000D01*
X73058027Y-76397000D01*
X73047000Y-76397000D01*
X73047000Y-77237954D01*
X73221874Y-77364119D01*
X73263501Y-77346879D01*
X73263500Y-77914210D01*
X73207345Y-77970365D01*
X73065000Y-78314017D01*
X73065000Y-78685983D01*
X73207345Y-79029635D01*
X73470365Y-79292655D01*
X73814017Y-79435000D01*
X73924682Y-79435000D01*
X74012631Y-79493766D01*
X74227464Y-79536499D01*
X74227468Y-79536499D01*
X74299999Y-79550926D01*
X74372530Y-79536499D01*
X77627470Y-79536499D01*
X77700001Y-79550926D01*
X77772532Y-79536499D01*
X77772536Y-79536499D01*
X77987369Y-79493766D01*
X78230987Y-79330985D01*
X78272074Y-79269494D01*
X79761673Y-77779895D01*
X79823164Y-77738808D01*
X79985945Y-77495190D01*
X80028678Y-77280357D01*
X80028678Y-77280352D01*
X80043105Y-77207823D01*
X80028678Y-77135294D01*
X80028678Y-73814017D01*
X83465000Y-73814017D01*
X83465000Y-74185983D01*
X83607345Y-74529635D01*
X83663500Y-74585790D01*
X83663501Y-75414209D01*
X83607345Y-75470365D01*
X83465000Y-75814017D01*
X83465000Y-76185983D01*
X83607345Y-76529635D01*
X83870365Y-76792655D01*
X84214017Y-76935000D01*
X84585983Y-76935000D01*
X84929635Y-76792655D01*
X85192655Y-76529635D01*
X85335000Y-76185983D01*
X85335000Y-75814017D01*
X85192655Y-75470365D01*
X85136500Y-75414210D01*
X85136500Y-74585790D01*
X85192655Y-74529635D01*
X85335000Y-74185983D01*
X85335000Y-73814017D01*
X85192655Y-73470365D01*
X84929635Y-73207345D01*
X84585983Y-73065000D01*
X84214017Y-73065000D01*
X83870365Y-73207345D01*
X83607345Y-73470365D01*
X83465000Y-73814017D01*
X80028678Y-73814017D01*
X80028678Y-73114706D01*
X80043105Y-73042177D01*
X80028678Y-72969648D01*
X80028678Y-72969644D01*
X79985945Y-72754810D01*
X79823164Y-72511192D01*
X79761673Y-72470105D01*
X79685000Y-72393432D01*
X79685000Y-72314017D01*
X79627326Y-72174778D01*
X99365000Y-72174778D01*
X99365000Y-72825222D01*
X99613914Y-73426153D01*
X100073847Y-73886086D01*
X100505001Y-74064676D01*
X100505000Y-75422710D01*
X100457345Y-75470365D01*
X100315000Y-75814017D01*
X100315000Y-76185983D01*
X100457345Y-76529635D01*
X100720365Y-76792655D01*
X101064017Y-76935000D01*
X101435983Y-76935000D01*
X101779635Y-76792655D01*
X102042655Y-76529635D01*
X102185000Y-76185983D01*
X102185000Y-75814017D01*
X102042655Y-75470365D01*
X101995000Y-75422710D01*
X101995000Y-73817239D01*
X102386086Y-73426153D01*
X102635000Y-72825222D01*
X102635000Y-72174778D01*
X102386086Y-71573847D01*
X101926153Y-71113914D01*
X101325222Y-70865000D01*
X100674778Y-70865000D01*
X100073847Y-71113914D01*
X99613914Y-71573847D01*
X99365000Y-72174778D01*
X79627326Y-72174778D01*
X79542655Y-71970365D01*
X79279635Y-71707345D01*
X78935983Y-71565000D01*
X78564017Y-71565000D01*
X78220365Y-71707345D01*
X77957345Y-71970365D01*
X77815000Y-72314017D01*
X77815000Y-72685983D01*
X77957345Y-73029635D01*
X78070393Y-73142683D01*
X78059536Y-73147180D01*
X77796516Y-73410200D01*
X77691407Y-73663956D01*
X77691407Y-73394000D01*
X77549062Y-73050348D01*
X77286042Y-72787328D01*
X76942390Y-72644983D01*
X76570424Y-72644983D01*
X76319209Y-72749039D01*
X76277085Y-72647343D01*
X76014065Y-72384323D01*
X75670413Y-72241978D01*
X75619465Y-72241978D01*
X75545262Y-72062835D01*
X75282242Y-71799815D01*
X74938590Y-71657470D01*
X74870156Y-71657470D01*
X74792655Y-71470365D01*
X74529635Y-71207345D01*
X74185983Y-71065000D01*
X73814017Y-71065000D01*
X73470365Y-71207345D01*
X73207345Y-71470365D01*
X73065000Y-71814017D01*
X73065000Y-71893432D01*
X72450505Y-72507927D01*
X72389014Y-72549014D01*
X72347927Y-72610505D01*
X72347926Y-72610506D01*
X72235708Y-72778453D01*
X72226233Y-72792633D01*
X72183500Y-73007466D01*
X72183500Y-73007469D01*
X72169073Y-73080000D01*
X72183500Y-73152531D01*
X72183501Y-74127061D01*
X72101711Y-74181711D01*
X71850854Y-74557145D01*
X71762765Y-75000000D01*
X69129194Y-75000000D01*
X68992655Y-74670365D01*
X68945000Y-74622710D01*
X68945000Y-72669133D01*
X69129635Y-72592655D01*
X69392655Y-72329635D01*
X69535000Y-71985983D01*
X69535000Y-71614017D01*
X69392655Y-71270365D01*
X69129635Y-71007345D01*
X68785983Y-70865000D01*
X68414017Y-70865000D01*
X68070365Y-71007345D01*
X67807345Y-71270365D01*
X67665000Y-71614017D01*
X67665000Y-71661472D01*
X67662885Y-71662885D01*
X67498226Y-71909317D01*
X67455000Y-72126626D01*
X67440405Y-72200000D01*
X67455000Y-72273373D01*
X67455001Y-74622709D01*
X67407345Y-74670365D01*
X67265000Y-75014017D01*
X61147440Y-75014017D01*
X61147440Y-74500000D01*
X61098157Y-74252235D01*
X60957809Y-74042191D01*
X60747765Y-73901843D01*
X60500000Y-73852560D01*
X59500000Y-73852560D01*
X59252235Y-73901843D01*
X59190836Y-73942869D01*
X59172855Y-73930854D01*
X58841783Y-73865000D01*
X58618217Y-73865000D01*
X58287145Y-73930854D01*
X58095000Y-74059241D01*
X57902855Y-73930854D01*
X57571783Y-73865000D01*
X57348217Y-73865000D01*
X57017145Y-73930854D01*
X56825000Y-74059241D01*
X56632855Y-73930854D01*
X56301783Y-73865000D01*
X56078217Y-73865000D01*
X55747145Y-73930854D01*
X55555000Y-74059241D01*
X55362855Y-73930854D01*
X55031783Y-73865000D01*
X54808217Y-73865000D01*
X54477145Y-73930854D01*
X54101711Y-74181711D01*
X53850854Y-74557145D01*
X53762765Y-75000000D01*
X50685000Y-75000000D01*
X50685000Y-65460000D01*
X59485908Y-65460000D01*
X59601161Y-66039418D01*
X59929375Y-66530625D01*
X60227761Y-66730000D01*
X59929375Y-66929375D01*
X59601161Y-67420582D01*
X59485908Y-68000000D01*
X59601161Y-68579418D01*
X59929375Y-69070625D01*
X59947619Y-69082816D01*
X59902235Y-69091843D01*
X59692191Y-69232191D01*
X59551843Y-69442235D01*
X59502560Y-69690000D01*
X59502560Y-71390000D01*
X59551843Y-71637765D01*
X59692191Y-71847809D01*
X59902235Y-71988157D01*
X60150000Y-72037440D01*
X61850000Y-72037440D01*
X62097765Y-71988157D01*
X62307809Y-71847809D01*
X62448157Y-71637765D01*
X62497440Y-71390000D01*
X62497440Y-69690000D01*
X62448157Y-69442235D01*
X62307809Y-69232191D01*
X62097765Y-69091843D01*
X62052381Y-69082816D01*
X62070625Y-69070625D01*
X62217228Y-68851217D01*
X87558600Y-68851217D01*
X87558600Y-69223183D01*
X87700945Y-69566835D01*
X87757101Y-69622991D01*
X87757100Y-70407210D01*
X87700945Y-70463365D01*
X87558600Y-70807017D01*
X87558600Y-71178983D01*
X87700945Y-71522635D01*
X87963965Y-71785655D01*
X88307617Y-71928000D01*
X88679583Y-71928000D01*
X89023235Y-71785655D01*
X89286255Y-71522635D01*
X89428600Y-71178983D01*
X89428600Y-70807017D01*
X89286255Y-70463365D01*
X89230100Y-70407210D01*
X89230100Y-69622990D01*
X89286255Y-69566835D01*
X89428600Y-69223183D01*
X89428600Y-68851217D01*
X89286255Y-68507565D01*
X89023235Y-68244545D01*
X88679583Y-68102200D01*
X88307617Y-68102200D01*
X87963965Y-68244545D01*
X87700945Y-68507565D01*
X87558600Y-68851217D01*
X62217228Y-68851217D01*
X62398839Y-68579418D01*
X62514092Y-68000000D01*
X62398839Y-67420582D01*
X62070625Y-66929375D01*
X61897980Y-66814017D01*
X71565000Y-66814017D01*
X71565000Y-67185983D01*
X71707345Y-67529635D01*
X71970365Y-67792655D01*
X72314017Y-67935000D01*
X72685983Y-67935000D01*
X73029635Y-67792655D01*
X73147512Y-67674778D01*
X99365000Y-67674778D01*
X99365000Y-68325222D01*
X99613914Y-68926153D01*
X100073847Y-69386086D01*
X100674778Y-69635000D01*
X101325222Y-69635000D01*
X101926153Y-69386086D01*
X102386086Y-68926153D01*
X102635000Y-68325222D01*
X102635000Y-67674778D01*
X102386086Y-67073847D01*
X102376256Y-67064017D01*
X104815000Y-67064017D01*
X104815000Y-67435983D01*
X104957345Y-67779635D01*
X105005001Y-67827291D01*
X105005000Y-70676628D01*
X104990405Y-70750000D01*
X105005000Y-70823372D01*
X105005000Y-70823373D01*
X105048226Y-71040683D01*
X105212885Y-71287115D01*
X105275092Y-71328680D01*
X105940036Y-71993625D01*
X105865000Y-72174778D01*
X105865000Y-72825222D01*
X106113914Y-73426153D01*
X106573847Y-73886086D01*
X107174778Y-74135000D01*
X107825222Y-74135000D01*
X108426153Y-73886086D01*
X108886086Y-73426153D01*
X109135000Y-72825222D01*
X109135000Y-72174778D01*
X108886086Y-71573847D01*
X108426153Y-71113914D01*
X107825222Y-70865000D01*
X107174778Y-70865000D01*
X106993625Y-70940036D01*
X106495000Y-70441412D01*
X106495000Y-69307239D01*
X106573847Y-69386086D01*
X107174778Y-69635000D01*
X107825222Y-69635000D01*
X108426153Y-69386086D01*
X108886086Y-68926153D01*
X109135000Y-68325222D01*
X109135000Y-67674778D01*
X108886086Y-67073847D01*
X108426153Y-66613914D01*
X107825222Y-66365000D01*
X107174778Y-66365000D01*
X106573847Y-66613914D01*
X106505026Y-66682736D01*
X106279635Y-66457345D01*
X105935983Y-66315000D01*
X105564017Y-66315000D01*
X105220365Y-66457345D01*
X104957345Y-66720365D01*
X104815000Y-67064017D01*
X102376256Y-67064017D01*
X101926153Y-66613914D01*
X101325222Y-66365000D01*
X100674778Y-66365000D01*
X100073847Y-66613914D01*
X99613914Y-67073847D01*
X99365000Y-67674778D01*
X73147512Y-67674778D01*
X73292655Y-67529635D01*
X73435000Y-67185983D01*
X73435000Y-66814017D01*
X73381560Y-66685000D01*
X73435983Y-66685000D01*
X73779635Y-66542655D01*
X74042655Y-66279635D01*
X74185000Y-65935983D01*
X74185000Y-65564017D01*
X74042655Y-65220365D01*
X73779635Y-64957345D01*
X73435983Y-64815000D01*
X73064017Y-64815000D01*
X72720365Y-64957345D01*
X72457345Y-65220365D01*
X72315000Y-65564017D01*
X72315000Y-65631412D01*
X72025090Y-65921322D01*
X71962886Y-65962885D01*
X71798226Y-66209316D01*
X71755972Y-66421738D01*
X71707345Y-66470365D01*
X71565000Y-66814017D01*
X61897980Y-66814017D01*
X61772239Y-66730000D01*
X62070625Y-66530625D01*
X62398839Y-66039418D01*
X62514092Y-65460000D01*
X62398839Y-64880582D01*
X62070625Y-64389375D01*
X61751522Y-64176157D01*
X61881358Y-64115183D01*
X62271645Y-63686924D01*
X62441476Y-63276890D01*
X62320155Y-63047000D01*
X61127000Y-63047000D01*
X61127000Y-63067000D01*
X60873000Y-63067000D01*
X60873000Y-63047000D01*
X59679845Y-63047000D01*
X59558524Y-63276890D01*
X59728355Y-63686924D01*
X60118642Y-64115183D01*
X60248478Y-64176157D01*
X59929375Y-64389375D01*
X59601161Y-64880582D01*
X59485908Y-65460000D01*
X50685000Y-65460000D01*
X50685000Y-62563110D01*
X59558524Y-62563110D01*
X59679845Y-62793000D01*
X60873000Y-62793000D01*
X60873000Y-61599181D01*
X61127000Y-61599181D01*
X61127000Y-62793000D01*
X62320155Y-62793000D01*
X62441476Y-62563110D01*
X62271645Y-62153076D01*
X61881358Y-61724817D01*
X61356892Y-61478514D01*
X61127000Y-61599181D01*
X60873000Y-61599181D01*
X60643108Y-61478514D01*
X60118642Y-61724817D01*
X59728355Y-62153076D01*
X59558524Y-62563110D01*
X50685000Y-62563110D01*
X50685000Y-61199071D01*
X50893417Y-61285400D01*
X51265383Y-61285400D01*
X51609035Y-61143055D01*
X51872055Y-60880035D01*
X51982243Y-60614017D01*
X62465000Y-60614017D01*
X62465000Y-60985983D01*
X62607345Y-61329635D01*
X62870365Y-61592655D01*
X63214017Y-61735000D01*
X63585983Y-61735000D01*
X63929635Y-61592655D01*
X63977290Y-61545000D01*
X66622710Y-61545000D01*
X66670365Y-61592655D01*
X67014017Y-61735000D01*
X67385983Y-61735000D01*
X67729635Y-61592655D01*
X67992655Y-61329635D01*
X68135000Y-60985983D01*
X68135000Y-60614017D01*
X67992655Y-60270365D01*
X67729635Y-60007345D01*
X67385983Y-59865000D01*
X67014017Y-59865000D01*
X66670365Y-60007345D01*
X66622710Y-60055000D01*
X63977290Y-60055000D01*
X63929635Y-60007345D01*
X63585983Y-59865000D01*
X63214017Y-59865000D01*
X62870365Y-60007345D01*
X62607345Y-60270365D01*
X62465000Y-60614017D01*
X51982243Y-60614017D01*
X52014400Y-60536383D01*
X52014400Y-60164417D01*
X51872055Y-59820765D01*
X51824400Y-59773110D01*
X51824400Y-56243535D01*
X71932059Y-56243535D01*
X71932059Y-56615501D01*
X72074404Y-56959153D01*
X72337424Y-57222173D01*
X72681076Y-57364518D01*
X73053042Y-57364518D01*
X73396694Y-57222173D01*
X73659714Y-56959153D01*
X73715286Y-56824990D01*
X74654571Y-56824990D01*
X74598225Y-56909317D01*
X74556054Y-57121323D01*
X74545101Y-57176388D01*
X74470365Y-57207345D01*
X74207345Y-57470365D01*
X74065000Y-57814017D01*
X74065000Y-58185983D01*
X74207345Y-58529635D01*
X74318694Y-58640984D01*
X74204013Y-58640984D01*
X73860361Y-58783329D01*
X73597341Y-59046349D01*
X73454996Y-59390001D01*
X73454996Y-59761967D01*
X73597341Y-60105619D01*
X73860361Y-60368639D01*
X74204013Y-60510984D01*
X74283428Y-60510984D01*
X74491939Y-60719495D01*
X74533026Y-60780986D01*
X74776644Y-60943767D01*
X74991477Y-60986500D01*
X74991481Y-60986500D01*
X75064012Y-61000927D01*
X75136543Y-60986500D01*
X76145344Y-60986500D01*
X76141059Y-60990785D01*
X75998714Y-61334437D01*
X75998714Y-61703531D01*
X75937721Y-61764524D01*
X75795376Y-62108176D01*
X75795376Y-62480142D01*
X75937721Y-62823794D01*
X75993876Y-62879949D01*
X75993876Y-63257845D01*
X75979449Y-63330376D01*
X75993876Y-63402907D01*
X75993876Y-63402910D01*
X76034674Y-63608013D01*
X76036609Y-63617743D01*
X76125220Y-63750358D01*
X76199390Y-63861362D01*
X76260881Y-63902449D01*
X76665000Y-64306569D01*
X76665000Y-64385983D01*
X76807345Y-64729635D01*
X77070365Y-64992655D01*
X77414017Y-65135000D01*
X77785983Y-65135000D01*
X78129635Y-64992655D01*
X78392655Y-64729635D01*
X78535000Y-64385983D01*
X78535000Y-64014017D01*
X78397327Y-63681643D01*
X78505416Y-63420691D01*
X78637766Y-63509125D01*
X78852599Y-63551858D01*
X78852603Y-63551858D01*
X78900466Y-63561378D01*
X78947101Y-63608013D01*
X79290753Y-63750358D01*
X79662719Y-63750358D01*
X80006371Y-63608013D01*
X80269391Y-63344993D01*
X80411736Y-63001341D01*
X80411736Y-62629375D01*
X80269391Y-62285723D01*
X80012618Y-62028950D01*
X80030992Y-62010576D01*
X80066481Y-61986863D01*
X80066482Y-61986862D01*
X80127973Y-61945775D01*
X80169061Y-61884283D01*
X80320994Y-61732349D01*
X80382488Y-61691260D01*
X80545269Y-61447642D01*
X80567249Y-61337142D01*
X80687617Y-61387000D01*
X81059583Y-61387000D01*
X81403235Y-61244655D01*
X81666255Y-60981635D01*
X81808600Y-60637983D01*
X81808600Y-60266017D01*
X81666255Y-59922365D01*
X81436501Y-59692611D01*
X81436501Y-59448282D01*
X82452152Y-60463933D01*
X82493239Y-60525424D01*
X82736857Y-60688205D01*
X82840602Y-60708841D01*
X82876642Y-60744881D01*
X82871343Y-60757674D01*
X82871343Y-61129640D01*
X83013688Y-61473292D01*
X83276708Y-61736312D01*
X83620360Y-61878657D01*
X83992326Y-61878657D01*
X84335978Y-61736312D01*
X84598998Y-61473292D01*
X84741343Y-61129640D01*
X84741343Y-61018975D01*
X84800109Y-60931026D01*
X84842842Y-60716193D01*
X84842842Y-60716189D01*
X84857269Y-60643658D01*
X84842842Y-60571127D01*
X84842842Y-59654887D01*
X100265000Y-59654887D01*
X100265000Y-60345113D01*
X100529138Y-60982799D01*
X101017201Y-61470862D01*
X101654887Y-61735000D01*
X102345113Y-61735000D01*
X102982799Y-61470862D01*
X103470862Y-60982799D01*
X103735000Y-60345113D01*
X103735000Y-59654887D01*
X103470862Y-59017201D01*
X102982799Y-58529138D01*
X102345113Y-58265000D01*
X101654887Y-58265000D01*
X101017201Y-58529138D01*
X100529138Y-59017201D01*
X100265000Y-59654887D01*
X84842842Y-59654887D01*
X84842842Y-58072081D01*
X84857269Y-57999550D01*
X84842842Y-57927019D01*
X84842842Y-57927016D01*
X84800109Y-57712183D01*
X84637328Y-57468565D01*
X84575837Y-57427478D01*
X83962376Y-56814017D01*
X91315000Y-56814017D01*
X91315000Y-57185983D01*
X91457345Y-57529635D01*
X91720365Y-57792655D01*
X92013501Y-57914075D01*
X92013501Y-57914209D01*
X91957345Y-57970365D01*
X91815000Y-58314017D01*
X91815000Y-58685983D01*
X91957345Y-59029635D01*
X92220365Y-59292655D01*
X92564017Y-59435000D01*
X92935983Y-59435000D01*
X93279635Y-59292655D01*
X93542655Y-59029635D01*
X93685000Y-58685983D01*
X93685000Y-58314017D01*
X93542655Y-57970365D01*
X93486500Y-57914210D01*
X93486500Y-57572531D01*
X93500927Y-57500000D01*
X93486500Y-57427469D01*
X93486500Y-57427465D01*
X93443767Y-57212632D01*
X93360067Y-57087366D01*
X93322074Y-57030506D01*
X93322073Y-57030505D01*
X93280986Y-56969014D01*
X93219495Y-56927927D01*
X93185000Y-56893432D01*
X93185000Y-56814017D01*
X93042655Y-56470365D01*
X92779635Y-56207345D01*
X92435983Y-56065000D01*
X92064017Y-56065000D01*
X91720365Y-56207345D01*
X91457345Y-56470365D01*
X91315000Y-56814017D01*
X83962376Y-56814017D01*
X83643754Y-56495395D01*
X83643754Y-56415980D01*
X83501409Y-56072328D01*
X83238389Y-55809308D01*
X82894737Y-55666963D01*
X82745000Y-55666963D01*
X82745000Y-55327290D01*
X82792655Y-55279635D01*
X82935000Y-54935983D01*
X82935000Y-54564017D01*
X82799338Y-54236500D01*
X86944932Y-54236500D01*
X87815000Y-55106568D01*
X87815000Y-55185983D01*
X87957345Y-55529635D01*
X88220365Y-55792655D01*
X88564017Y-55935000D01*
X88935983Y-55935000D01*
X89279635Y-55792655D01*
X89542655Y-55529635D01*
X89685000Y-55185983D01*
X89685000Y-54814017D01*
X89542655Y-54470365D01*
X89279635Y-54207345D01*
X88935983Y-54065000D01*
X88856568Y-54065000D01*
X87822073Y-53030505D01*
X87780986Y-52969014D01*
X87537368Y-52806233D01*
X87322535Y-52763500D01*
X87322531Y-52763500D01*
X87250000Y-52749073D01*
X87177469Y-52763500D01*
X82652891Y-52763500D01*
X82685000Y-52685983D01*
X82685000Y-52314017D01*
X82606503Y-52124506D01*
X91615000Y-52124506D01*
X91615000Y-52675494D01*
X91825853Y-53184540D01*
X92215460Y-53574147D01*
X92724506Y-53785000D01*
X93275494Y-53785000D01*
X93784540Y-53574147D01*
X94174147Y-53184540D01*
X94385000Y-52675494D01*
X94385000Y-52174778D01*
X99365000Y-52174778D01*
X99365000Y-52825222D01*
X99613914Y-53426153D01*
X100073847Y-53886086D01*
X100674778Y-54135000D01*
X101325222Y-54135000D01*
X101926153Y-53886086D01*
X102386086Y-53426153D01*
X102635000Y-52825222D01*
X102635000Y-52174778D01*
X105865000Y-52174778D01*
X105865000Y-52825222D01*
X106113914Y-53426153D01*
X106573847Y-53886086D01*
X107174778Y-54135000D01*
X107825222Y-54135000D01*
X108426153Y-53886086D01*
X108886086Y-53426153D01*
X109135000Y-52825222D01*
X109135000Y-52174778D01*
X108886086Y-51573847D01*
X108426153Y-51113914D01*
X107825222Y-50865000D01*
X107174778Y-50865000D01*
X106573847Y-51113914D01*
X106113914Y-51573847D01*
X105865000Y-52174778D01*
X102635000Y-52174778D01*
X102386086Y-51573847D01*
X101926153Y-51113914D01*
X101325222Y-50865000D01*
X100674778Y-50865000D01*
X100073847Y-51113914D01*
X99613914Y-51573847D01*
X99365000Y-52174778D01*
X94385000Y-52174778D01*
X94385000Y-52124506D01*
X94174147Y-51615460D01*
X93784540Y-51225853D01*
X93275494Y-51015000D01*
X92724506Y-51015000D01*
X92215460Y-51225853D01*
X91825853Y-51615460D01*
X91615000Y-52124506D01*
X82606503Y-52124506D01*
X82542655Y-51970365D01*
X82279635Y-51707345D01*
X81935983Y-51565000D01*
X81564017Y-51565000D01*
X81220365Y-51707345D01*
X80957345Y-51970365D01*
X80815000Y-52314017D01*
X80815000Y-52393432D01*
X79382007Y-53826425D01*
X79320516Y-53867512D01*
X79279429Y-53929003D01*
X79279428Y-53929004D01*
X79188559Y-54065000D01*
X79157735Y-54111131D01*
X79115002Y-54325964D01*
X79115002Y-54325967D01*
X79100575Y-54398498D01*
X79115002Y-54471029D01*
X79115002Y-54565000D01*
X79064017Y-54565000D01*
X78720365Y-54707345D01*
X78457345Y-54970365D01*
X78315000Y-55314017D01*
X78315000Y-55588646D01*
X77992326Y-55454990D01*
X77882407Y-55454990D01*
X77792211Y-55394723D01*
X77577378Y-55351990D01*
X77577374Y-55351990D01*
X77504843Y-55337563D01*
X77432312Y-55351990D01*
X73280618Y-55351990D01*
X73208087Y-55337563D01*
X73135556Y-55351990D01*
X73135552Y-55351990D01*
X72920719Y-55394723D01*
X72771366Y-55494518D01*
X72681076Y-55494518D01*
X72337424Y-55636863D01*
X72074404Y-55899883D01*
X71932059Y-56243535D01*
X51824400Y-56243535D01*
X51824400Y-54680000D01*
X61773000Y-54680000D01*
X61773000Y-56000000D01*
X61782900Y-56049159D01*
X61810626Y-56090229D01*
X61851958Y-56117563D01*
X61900605Y-56126999D01*
X66100605Y-56106999D01*
X66148601Y-56097333D01*
X66189803Y-56069803D01*
X66217333Y-56028601D01*
X66227000Y-55980000D01*
X66227000Y-54680000D01*
X66217333Y-54631399D01*
X66189803Y-54590197D01*
X66148601Y-54562667D01*
X66100000Y-54553000D01*
X61900000Y-54553000D01*
X61851399Y-54562667D01*
X61810197Y-54590197D01*
X61782667Y-54631399D01*
X61773000Y-54680000D01*
X51824400Y-54680000D01*
X51824400Y-52680000D01*
X61773000Y-52680000D01*
X61773000Y-53980000D01*
X61782667Y-54028601D01*
X61810197Y-54069803D01*
X61851399Y-54097333D01*
X61900000Y-54107000D01*
X66100000Y-54107000D01*
X66148601Y-54097333D01*
X66189803Y-54069803D01*
X66217333Y-54028601D01*
X66227000Y-53980000D01*
X66227000Y-52680000D01*
X66217333Y-52631399D01*
X66189803Y-52590197D01*
X66148601Y-52562667D01*
X66100000Y-52553000D01*
X61900000Y-52553000D01*
X61851399Y-52562667D01*
X61810197Y-52590197D01*
X61782667Y-52631399D01*
X61773000Y-52680000D01*
X51824400Y-52680000D01*
X51824400Y-48654887D01*
X59265000Y-48654887D01*
X59265000Y-49345113D01*
X59529138Y-49982799D01*
X60017201Y-50470862D01*
X60654887Y-50735000D01*
X61345113Y-50735000D01*
X61982799Y-50470862D01*
X62470862Y-49982799D01*
X62735000Y-49345113D01*
X62735000Y-48654887D01*
X62470862Y-48017201D01*
X61982799Y-47529138D01*
X61345113Y-47265000D01*
X60654887Y-47265000D01*
X60017201Y-47529138D01*
X59529138Y-48017201D01*
X59265000Y-48654887D01*
X51824400Y-48654887D01*
X51824400Y-46727817D01*
X79938600Y-46727817D01*
X79938600Y-47099783D01*
X80080945Y-47443435D01*
X80343965Y-47706455D01*
X80687617Y-47848800D01*
X81059583Y-47848800D01*
X81403235Y-47706455D01*
X81459390Y-47650300D01*
X82446810Y-47650300D01*
X82502965Y-47706455D01*
X82846617Y-47848800D01*
X83218583Y-47848800D01*
X83562235Y-47706455D01*
X83825255Y-47443435D01*
X83907653Y-47244506D01*
X91615000Y-47244506D01*
X91615000Y-47795494D01*
X91825853Y-48304540D01*
X92215460Y-48694147D01*
X92724506Y-48905000D01*
X93275494Y-48905000D01*
X93784540Y-48694147D01*
X94174147Y-48304540D01*
X94385000Y-47795494D01*
X94385000Y-47674778D01*
X99365000Y-47674778D01*
X99365000Y-48325222D01*
X99613914Y-48926153D01*
X100073847Y-49386086D01*
X100674778Y-49635000D01*
X101325222Y-49635000D01*
X101926153Y-49386086D01*
X102386086Y-48926153D01*
X102635000Y-48325222D01*
X102635000Y-47674778D01*
X105865000Y-47674778D01*
X105865000Y-48325222D01*
X106113914Y-48926153D01*
X106573847Y-49386086D01*
X107174778Y-49635000D01*
X107825222Y-49635000D01*
X108426153Y-49386086D01*
X108886086Y-48926153D01*
X109135000Y-48325222D01*
X109135000Y-47674778D01*
X108886086Y-47073847D01*
X108426153Y-46613914D01*
X107825222Y-46365000D01*
X107174778Y-46365000D01*
X106573847Y-46613914D01*
X106113914Y-47073847D01*
X105865000Y-47674778D01*
X102635000Y-47674778D01*
X102386086Y-47073847D01*
X101926153Y-46613914D01*
X101325222Y-46365000D01*
X100674778Y-46365000D01*
X100073847Y-46613914D01*
X99613914Y-47073847D01*
X99365000Y-47674778D01*
X94385000Y-47674778D01*
X94385000Y-47244506D01*
X94174147Y-46735460D01*
X93784540Y-46345853D01*
X93275494Y-46135000D01*
X92724506Y-46135000D01*
X92215460Y-46345853D01*
X91825853Y-46735460D01*
X91615000Y-47244506D01*
X83907653Y-47244506D01*
X83967600Y-47099783D01*
X83967600Y-46727817D01*
X83825255Y-46384165D01*
X83562235Y-46121145D01*
X83218583Y-45978800D01*
X82846617Y-45978800D01*
X82502965Y-46121145D01*
X82446810Y-46177300D01*
X81459390Y-46177300D01*
X81403235Y-46121145D01*
X81059583Y-45978800D01*
X80687617Y-45978800D01*
X80343965Y-46121145D01*
X80080945Y-46384165D01*
X79938600Y-46727817D01*
X51824400Y-46727817D01*
X51824400Y-46642584D01*
X52015435Y-46563455D01*
X52278455Y-46300435D01*
X52420800Y-45956783D01*
X52420800Y-45584817D01*
X52399758Y-45534017D01*
X70921600Y-45534017D01*
X70921600Y-45905983D01*
X71063945Y-46249635D01*
X71326965Y-46512655D01*
X71670617Y-46655000D01*
X72042583Y-46655000D01*
X72386235Y-46512655D01*
X72442390Y-46456500D01*
X76483069Y-46456500D01*
X76555600Y-46470927D01*
X76628131Y-46456500D01*
X76628135Y-46456500D01*
X76842968Y-46413767D01*
X77086586Y-46250986D01*
X77100830Y-46229668D01*
X77166915Y-46229668D01*
X77510567Y-46087323D01*
X77773587Y-45824303D01*
X77915932Y-45480651D01*
X77915932Y-45108685D01*
X77773587Y-44765033D01*
X77510567Y-44502013D01*
X77166915Y-44359668D01*
X76794949Y-44359668D01*
X76451297Y-44502013D01*
X76188277Y-44765033D01*
X76097785Y-44983500D01*
X72442390Y-44983500D01*
X72386235Y-44927345D01*
X72042583Y-44785000D01*
X71670617Y-44785000D01*
X71326965Y-44927345D01*
X71063945Y-45190365D01*
X70921600Y-45534017D01*
X52399758Y-45534017D01*
X52278455Y-45241165D01*
X52015435Y-44978145D01*
X51671783Y-44835800D01*
X51299817Y-44835800D01*
X50956165Y-44978145D01*
X50693145Y-45241165D01*
X50685000Y-45260829D01*
X50685000Y-40685000D01*
X52662953Y-40685000D01*
X52652191Y-40692191D01*
G04 #@! TD*
M02*
