G04 #@! TF.GenerationSoftware,KiCad,Pcbnew,(5.0.0)*
G04 #@! TF.CreationDate,2018-10-05T22:53:34+10:00*
G04 #@! TF.ProjectId,Project 23,50726F6A6563742032332E6B69636164,rev?*
G04 #@! TF.SameCoordinates,Original*
G04 #@! TF.FileFunction,Legend,Top*
G04 #@! TF.FilePolarity,Positive*
%FSLAX46Y46*%
G04 Gerber Fmt 4.6, Leading zero omitted, Abs format (unit mm)*
G04 Created by KiCad (PCBNEW (5.0.0)) date 10/05/18 22:53:34*
%MOMM*%
%LPD*%
G01*
G04 APERTURE LIST*
%ADD10C,0.300000*%
%ADD11C,0.100000*%
%ADD12C,0.120000*%
%ADD13C,0.150000*%
G04 APERTURE END LIST*
D10*
X90115714Y-64020000D02*
X89972857Y-63948571D01*
X89758571Y-63948571D01*
X89544285Y-64020000D01*
X89401428Y-64162857D01*
X89329999Y-64305714D01*
X89258571Y-64591428D01*
X89258571Y-64805714D01*
X89329999Y-65091428D01*
X89401428Y-65234285D01*
X89544285Y-65377142D01*
X89758571Y-65448571D01*
X89901428Y-65448571D01*
X90115714Y-65377142D01*
X90187142Y-65305714D01*
X90187142Y-64805714D01*
X89901428Y-64805714D01*
X91044285Y-65448571D02*
X90901428Y-65377142D01*
X90829999Y-65305714D01*
X90758571Y-65162857D01*
X90758571Y-64734285D01*
X90829999Y-64591428D01*
X90901428Y-64520000D01*
X91044285Y-64448571D01*
X91258571Y-64448571D01*
X91401428Y-64520000D01*
X91472857Y-64591428D01*
X91544285Y-64734285D01*
X91544285Y-65162857D01*
X91472857Y-65305714D01*
X91401428Y-65377142D01*
X91258571Y-65448571D01*
X91044285Y-65448571D01*
X92401428Y-65448571D02*
X92258571Y-65377142D01*
X92187142Y-65234285D01*
X92187142Y-63948571D01*
X93615714Y-65448571D02*
X93615714Y-63948571D01*
X93615714Y-65377142D02*
X93472857Y-65448571D01*
X93187142Y-65448571D01*
X93044285Y-65377142D01*
X92972857Y-65305714D01*
X92901428Y-65162857D01*
X92901428Y-64734285D01*
X92972857Y-64591428D01*
X93044285Y-64520000D01*
X93187142Y-64448571D01*
X93472857Y-64448571D01*
X93615714Y-64520000D01*
X94115714Y-64448571D02*
X94687142Y-64448571D01*
X94329999Y-65448571D02*
X94329999Y-64162857D01*
X94401428Y-64020000D01*
X94544285Y-63948571D01*
X94687142Y-63948571D01*
X95187142Y-65448571D02*
X95187142Y-64448571D01*
X95187142Y-63948571D02*
X95115714Y-64020000D01*
X95187142Y-64091428D01*
X95258571Y-64020000D01*
X95187142Y-63948571D01*
X95187142Y-64091428D01*
X95829999Y-65377142D02*
X95972857Y-65448571D01*
X96258571Y-65448571D01*
X96401428Y-65377142D01*
X96472857Y-65234285D01*
X96472857Y-65162857D01*
X96401428Y-65020000D01*
X96258571Y-64948571D01*
X96044285Y-64948571D01*
X95901428Y-64877142D01*
X95829999Y-64734285D01*
X95829999Y-64662857D01*
X95901428Y-64520000D01*
X96044285Y-64448571D01*
X96258571Y-64448571D01*
X96401428Y-64520000D01*
X97115714Y-65448571D02*
X97115714Y-63948571D01*
X97758571Y-65448571D02*
X97758571Y-64662857D01*
X97687142Y-64520000D01*
X97544285Y-64448571D01*
X97330000Y-64448571D01*
X97187142Y-64520000D01*
X97115714Y-64591428D01*
X99615714Y-64662857D02*
X100115714Y-64662857D01*
X100330000Y-65448571D02*
X99615714Y-65448571D01*
X99615714Y-63948571D01*
X100330000Y-63948571D01*
X101187142Y-65448571D02*
X101044285Y-65377142D01*
X100972857Y-65234285D01*
X100972857Y-63948571D01*
X102330000Y-65377142D02*
X102187142Y-65448571D01*
X101901428Y-65448571D01*
X101758571Y-65377142D01*
X101687142Y-65234285D01*
X101687142Y-64662857D01*
X101758571Y-64520000D01*
X101901428Y-64448571D01*
X102187142Y-64448571D01*
X102330000Y-64520000D01*
X102401428Y-64662857D01*
X102401428Y-64805714D01*
X101687142Y-64948571D01*
X103687142Y-65377142D02*
X103544285Y-65448571D01*
X103258571Y-65448571D01*
X103115714Y-65377142D01*
X103044285Y-65305714D01*
X102972857Y-65162857D01*
X102972857Y-64734285D01*
X103044285Y-64591428D01*
X103115714Y-64520000D01*
X103258571Y-64448571D01*
X103544285Y-64448571D01*
X103687142Y-64520000D01*
X104115714Y-64448571D02*
X104687142Y-64448571D01*
X104329999Y-63948571D02*
X104329999Y-65234285D01*
X104401428Y-65377142D01*
X104544285Y-65448571D01*
X104687142Y-65448571D01*
X105187142Y-65448571D02*
X105187142Y-64448571D01*
X105187142Y-64734285D02*
X105258571Y-64591428D01*
X105329999Y-64520000D01*
X105472857Y-64448571D01*
X105615714Y-64448571D01*
X106329999Y-65448571D02*
X106187142Y-65377142D01*
X106115714Y-65305714D01*
X106044285Y-65162857D01*
X106044285Y-64734285D01*
X106115714Y-64591428D01*
X106187142Y-64520000D01*
X106329999Y-64448571D01*
X106544285Y-64448571D01*
X106687142Y-64520000D01*
X106758571Y-64591428D01*
X106829999Y-64734285D01*
X106829999Y-65162857D01*
X106758571Y-65305714D01*
X106687142Y-65377142D01*
X106544285Y-65448571D01*
X106329999Y-65448571D01*
X107472857Y-64448571D02*
X107472857Y-65448571D01*
X107472857Y-64591428D02*
X107544285Y-64520000D01*
X107687142Y-64448571D01*
X107901428Y-64448571D01*
X108044285Y-64520000D01*
X108115714Y-64662857D01*
X108115714Y-65448571D01*
X108830000Y-65448571D02*
X108830000Y-64448571D01*
X108830000Y-63948571D02*
X108758571Y-64020000D01*
X108830000Y-64091428D01*
X108901428Y-64020000D01*
X108830000Y-63948571D01*
X108830000Y-64091428D01*
X110187142Y-65377142D02*
X110044285Y-65448571D01*
X109758571Y-65448571D01*
X109615714Y-65377142D01*
X109544285Y-65305714D01*
X109472857Y-65162857D01*
X109472857Y-64734285D01*
X109544285Y-64591428D01*
X109615714Y-64520000D01*
X109758571Y-64448571D01*
X110044285Y-64448571D01*
X110187142Y-64520000D01*
X110758571Y-65377142D02*
X110901428Y-65448571D01*
X111187142Y-65448571D01*
X111330000Y-65377142D01*
X111401428Y-65234285D01*
X111401428Y-65162857D01*
X111330000Y-65020000D01*
X111187142Y-64948571D01*
X110972857Y-64948571D01*
X110830000Y-64877142D01*
X110758571Y-64734285D01*
X110758571Y-64662857D01*
X110830000Y-64520000D01*
X110972857Y-64448571D01*
X111187142Y-64448571D01*
X111330000Y-64520000D01*
X89829999Y-42588571D02*
X89829999Y-41088571D01*
X90401428Y-41088571D01*
X90544285Y-41160000D01*
X90615714Y-41231428D01*
X90687142Y-41374285D01*
X90687142Y-41588571D01*
X90615714Y-41731428D01*
X90544285Y-41802857D01*
X90401428Y-41874285D01*
X89829999Y-41874285D01*
X91329999Y-42588571D02*
X91329999Y-41588571D01*
X91329999Y-41874285D02*
X91401428Y-41731428D01*
X91472857Y-41660000D01*
X91615714Y-41588571D01*
X91758571Y-41588571D01*
X92472857Y-42588571D02*
X92329999Y-42517142D01*
X92258571Y-42445714D01*
X92187142Y-42302857D01*
X92187142Y-41874285D01*
X92258571Y-41731428D01*
X92329999Y-41660000D01*
X92472857Y-41588571D01*
X92687142Y-41588571D01*
X92829999Y-41660000D01*
X92901428Y-41731428D01*
X92972857Y-41874285D01*
X92972857Y-42302857D01*
X92901428Y-42445714D01*
X92829999Y-42517142D01*
X92687142Y-42588571D01*
X92472857Y-42588571D01*
X93615714Y-41588571D02*
X93615714Y-42874285D01*
X93544285Y-43017142D01*
X93401428Y-43088571D01*
X93329999Y-43088571D01*
X93615714Y-41088571D02*
X93544285Y-41160000D01*
X93615714Y-41231428D01*
X93687142Y-41160000D01*
X93615714Y-41088571D01*
X93615714Y-41231428D01*
X94901428Y-42517142D02*
X94758571Y-42588571D01*
X94472857Y-42588571D01*
X94329999Y-42517142D01*
X94258571Y-42374285D01*
X94258571Y-41802857D01*
X94329999Y-41660000D01*
X94472857Y-41588571D01*
X94758571Y-41588571D01*
X94901428Y-41660000D01*
X94972857Y-41802857D01*
X94972857Y-41945714D01*
X94258571Y-42088571D01*
X96258571Y-42517142D02*
X96115714Y-42588571D01*
X95829999Y-42588571D01*
X95687142Y-42517142D01*
X95615714Y-42445714D01*
X95544285Y-42302857D01*
X95544285Y-41874285D01*
X95615714Y-41731428D01*
X95687142Y-41660000D01*
X95829999Y-41588571D01*
X96115714Y-41588571D01*
X96258571Y-41660000D01*
X96687142Y-41588571D02*
X97258571Y-41588571D01*
X96901428Y-41088571D02*
X96901428Y-42374285D01*
X96972857Y-42517142D01*
X97115714Y-42588571D01*
X97258571Y-42588571D01*
X98829999Y-41231428D02*
X98901428Y-41160000D01*
X99044285Y-41088571D01*
X99401428Y-41088571D01*
X99544285Y-41160000D01*
X99615714Y-41231428D01*
X99687142Y-41374285D01*
X99687142Y-41517142D01*
X99615714Y-41731428D01*
X98758571Y-42588571D01*
X99687142Y-42588571D01*
X100187142Y-41088571D02*
X101115714Y-41088571D01*
X100615714Y-41660000D01*
X100829999Y-41660000D01*
X100972857Y-41731428D01*
X101044285Y-41802857D01*
X101115714Y-41945714D01*
X101115714Y-42302857D01*
X101044285Y-42445714D01*
X100972857Y-42517142D01*
X100829999Y-42588571D01*
X100401428Y-42588571D01*
X100258571Y-42517142D01*
X100187142Y-42445714D01*
X103758571Y-42588571D02*
X103258571Y-41874285D01*
X102901428Y-42588571D02*
X102901428Y-41088571D01*
X103472857Y-41088571D01*
X103615714Y-41160000D01*
X103687142Y-41231428D01*
X103758571Y-41374285D01*
X103758571Y-41588571D01*
X103687142Y-41731428D01*
X103615714Y-41802857D01*
X103472857Y-41874285D01*
X102901428Y-41874285D01*
X104972857Y-42517142D02*
X104829999Y-42588571D01*
X104544285Y-42588571D01*
X104401428Y-42517142D01*
X104329999Y-42374285D01*
X104329999Y-41802857D01*
X104401428Y-41660000D01*
X104544285Y-41588571D01*
X104829999Y-41588571D01*
X104972857Y-41660000D01*
X105044285Y-41802857D01*
X105044285Y-41945714D01*
X104329999Y-42088571D01*
X105544285Y-41588571D02*
X105901428Y-42588571D01*
X106258571Y-41588571D01*
X108258571Y-41088571D02*
X108401428Y-41088571D01*
X108544285Y-41160000D01*
X108615714Y-41231428D01*
X108687142Y-41374285D01*
X108758571Y-41660000D01*
X108758571Y-42017142D01*
X108687142Y-42302857D01*
X108615714Y-42445714D01*
X108544285Y-42517142D01*
X108401428Y-42588571D01*
X108258571Y-42588571D01*
X108115714Y-42517142D01*
X108044285Y-42445714D01*
X107972857Y-42302857D01*
X107901428Y-42017142D01*
X107901428Y-41660000D01*
X107972857Y-41374285D01*
X108044285Y-41231428D01*
X108115714Y-41160000D01*
X108258571Y-41088571D01*
X109401428Y-42445714D02*
X109472857Y-42517142D01*
X109401428Y-42588571D01*
X109330000Y-42517142D01*
X109401428Y-42445714D01*
X109401428Y-42588571D01*
X110829999Y-41088571D02*
X110115714Y-41088571D01*
X110044285Y-41802857D01*
X110115714Y-41731428D01*
X110258571Y-41660000D01*
X110615714Y-41660000D01*
X110758571Y-41731428D01*
X110829999Y-41802857D01*
X110901428Y-41945714D01*
X110901428Y-42302857D01*
X110829999Y-42445714D01*
X110758571Y-42517142D01*
X110615714Y-42588571D01*
X110258571Y-42588571D01*
X110115714Y-42517142D01*
X110044285Y-42445714D01*
D11*
X112000000Y-40000000D02*
X50000000Y-40000000D01*
X112000000Y-82000000D02*
X112000000Y-40000000D01*
X50000000Y-82000000D02*
X112000000Y-82000000D01*
X50000000Y-40000000D02*
X50000000Y-82000000D01*
D12*
G04 #@! TO.C,C42*
X79900000Y-69750000D02*
X85400000Y-69750000D01*
X79900000Y-71850000D02*
X85400000Y-71850000D01*
X79900000Y-69750000D02*
X79900000Y-71850000D01*
G04 #@! TO.C,J11*
X60619677Y-76710000D02*
X60695000Y-76710000D01*
X60695000Y-76710000D02*
X60695000Y-77830000D01*
X60695000Y-77830000D02*
X54225000Y-77830000D01*
X54225000Y-77830000D02*
X54225000Y-76710000D01*
X54225000Y-76710000D02*
X54300323Y-76710000D01*
X60260000Y-77830000D02*
X60260000Y-81830000D01*
X60260000Y-81830000D02*
X59740000Y-81830000D01*
X59740000Y-81830000D02*
X59740000Y-77830000D01*
X60200000Y-77830000D02*
X60200000Y-81830000D01*
X60080000Y-77830000D02*
X60080000Y-81830000D01*
X59960000Y-77830000D02*
X59960000Y-81830000D01*
X59840000Y-77830000D02*
X59840000Y-81830000D01*
X59365000Y-76710000D02*
X59365000Y-77830000D01*
X59380323Y-76710000D02*
X59349677Y-76710000D01*
X58990000Y-77830000D02*
X58990000Y-81830000D01*
X58990000Y-81830000D02*
X58470000Y-81830000D01*
X58470000Y-81830000D02*
X58470000Y-77830000D01*
X58095000Y-76710000D02*
X58095000Y-77830000D01*
X58110323Y-76710000D02*
X58079677Y-76710000D01*
X57720000Y-77830000D02*
X57720000Y-81830000D01*
X57720000Y-81830000D02*
X57200000Y-81830000D01*
X57200000Y-81830000D02*
X57200000Y-77830000D01*
X56825000Y-76710000D02*
X56825000Y-77830000D01*
X56840323Y-76710000D02*
X56809677Y-76710000D01*
X56450000Y-77830000D02*
X56450000Y-81830000D01*
X56450000Y-81830000D02*
X55930000Y-81830000D01*
X55930000Y-81830000D02*
X55930000Y-77830000D01*
X55555000Y-76710000D02*
X55555000Y-77830000D01*
X55570323Y-76710000D02*
X55539677Y-76710000D01*
X55180000Y-77830000D02*
X55180000Y-81830000D01*
X55180000Y-81830000D02*
X54660000Y-81830000D01*
X54660000Y-81830000D02*
X54660000Y-77830000D01*
X60000000Y-74240000D02*
X60760000Y-74240000D01*
X60760000Y-74240000D02*
X60760000Y-75000000D01*
G04 #@! TO.C,C18*
X74350000Y-60000000D02*
X74350000Y-59000000D01*
X72650000Y-59000000D02*
X72650000Y-60000000D01*
G04 #@! TO.C,J13*
X59560000Y-71870000D02*
X59560000Y-61590000D01*
X59560000Y-61590000D02*
X56900000Y-61590000D01*
X56900000Y-61590000D02*
X56900000Y-71870000D01*
X56900000Y-71870000D02*
X59560000Y-71870000D01*
X56900000Y-70920000D02*
X50900000Y-70920000D01*
X50900000Y-70920000D02*
X50900000Y-70160000D01*
X50900000Y-70160000D02*
X56900000Y-70160000D01*
X56900000Y-70860000D02*
X50900000Y-70860000D01*
X56900000Y-70740000D02*
X50900000Y-70740000D01*
X56900000Y-70620000D02*
X50900000Y-70620000D01*
X56900000Y-70500000D02*
X50900000Y-70500000D01*
X56900000Y-70380000D02*
X50900000Y-70380000D01*
X56900000Y-70260000D02*
X50900000Y-70260000D01*
X59890000Y-70920000D02*
X59560000Y-70920000D01*
X59890000Y-70160000D02*
X59560000Y-70160000D01*
X59560000Y-69270000D02*
X56900000Y-69270000D01*
X56900000Y-68380000D02*
X50900000Y-68380000D01*
X50900000Y-68380000D02*
X50900000Y-67620000D01*
X50900000Y-67620000D02*
X56900000Y-67620000D01*
X59957071Y-68380000D02*
X59560000Y-68380000D01*
X59957071Y-67620000D02*
X59560000Y-67620000D01*
X59560000Y-66730000D02*
X56900000Y-66730000D01*
X56900000Y-65840000D02*
X50900000Y-65840000D01*
X50900000Y-65840000D02*
X50900000Y-65080000D01*
X50900000Y-65080000D02*
X56900000Y-65080000D01*
X59957071Y-65840000D02*
X59560000Y-65840000D01*
X59957071Y-65080000D02*
X59560000Y-65080000D01*
X59560000Y-64190000D02*
X56900000Y-64190000D01*
X56900000Y-63300000D02*
X50900000Y-63300000D01*
X50900000Y-63300000D02*
X50900000Y-62540000D01*
X50900000Y-62540000D02*
X56900000Y-62540000D01*
X59957071Y-63300000D02*
X59560000Y-63300000D01*
X59957071Y-62540000D02*
X59560000Y-62540000D01*
X62270000Y-70540000D02*
X62270000Y-71810000D01*
X62270000Y-71810000D02*
X61000000Y-71810000D01*
G04 #@! TO.C,C11*
X87500000Y-48350000D02*
X88500000Y-48350000D01*
X88500000Y-46650000D02*
X87500000Y-46650000D01*
G04 #@! TO.C,C12*
X87500000Y-53350000D02*
X88500000Y-53350000D01*
X88500000Y-51650000D02*
X87500000Y-51650000D01*
G04 #@! TO.C,C16*
X83100000Y-62750000D02*
X83100000Y-61750000D01*
X81400000Y-61750000D02*
X81400000Y-62750000D01*
G04 #@! TO.C,C21*
X52350000Y-46500000D02*
X52350000Y-45500000D01*
X50650000Y-45500000D02*
X50650000Y-46500000D01*
G04 #@! TO.C,C22*
X56650000Y-45500000D02*
X56650000Y-46500000D01*
X58350000Y-46500000D02*
X58350000Y-45500000D01*
G04 #@! TO.C,C31*
X64150000Y-69250000D02*
X64150000Y-70250000D01*
X65850000Y-70250000D02*
X65850000Y-69250000D01*
G04 #@! TO.C,C32*
X73350000Y-70250000D02*
X73350000Y-69250000D01*
X71650000Y-69250000D02*
X71650000Y-70250000D01*
G04 #@! TO.C,C41*
X96050000Y-73600000D02*
X96050000Y-79100000D01*
X93950000Y-73600000D02*
X93950000Y-79100000D01*
X96050000Y-73600000D02*
X93950000Y-73600000D01*
G04 #@! TO.C,D3*
X101000000Y-80750000D02*
X97800000Y-80750000D01*
X97800000Y-79250000D02*
X101000000Y-79250000D01*
X97800000Y-79250000D02*
X97800000Y-80750000D01*
G04 #@! TO.C,D4*
X105750000Y-80750000D02*
X102550000Y-80750000D01*
X102550000Y-79250000D02*
X105750000Y-79250000D01*
X102550000Y-79250000D02*
X102550000Y-80750000D01*
G04 #@! TO.C,D5*
X110500000Y-80750000D02*
X107300000Y-80750000D01*
X107300000Y-79250000D02*
X110500000Y-79250000D01*
X107300000Y-79250000D02*
X107300000Y-80750000D01*
G04 #@! TO.C,J12*
X78619677Y-76710000D02*
X78695000Y-76710000D01*
X78695000Y-76710000D02*
X78695000Y-77830000D01*
X78695000Y-77830000D02*
X72225000Y-77830000D01*
X72225000Y-77830000D02*
X72225000Y-76710000D01*
X72225000Y-76710000D02*
X72300323Y-76710000D01*
X78260000Y-77830000D02*
X78260000Y-81830000D01*
X78260000Y-81830000D02*
X77740000Y-81830000D01*
X77740000Y-81830000D02*
X77740000Y-77830000D01*
X78200000Y-77830000D02*
X78200000Y-81830000D01*
X78080000Y-77830000D02*
X78080000Y-81830000D01*
X77960000Y-77830000D02*
X77960000Y-81830000D01*
X77840000Y-77830000D02*
X77840000Y-81830000D01*
X77365000Y-76710000D02*
X77365000Y-77830000D01*
X77380323Y-76710000D02*
X77349677Y-76710000D01*
X76990000Y-77830000D02*
X76990000Y-81830000D01*
X76990000Y-81830000D02*
X76470000Y-81830000D01*
X76470000Y-81830000D02*
X76470000Y-77830000D01*
X76095000Y-76710000D02*
X76095000Y-77830000D01*
X76110323Y-76710000D02*
X76079677Y-76710000D01*
X75720000Y-77830000D02*
X75720000Y-81830000D01*
X75720000Y-81830000D02*
X75200000Y-81830000D01*
X75200000Y-81830000D02*
X75200000Y-77830000D01*
X74825000Y-76710000D02*
X74825000Y-77830000D01*
X74840323Y-76710000D02*
X74809677Y-76710000D01*
X74450000Y-77830000D02*
X74450000Y-81830000D01*
X74450000Y-81830000D02*
X73930000Y-81830000D01*
X73930000Y-81830000D02*
X73930000Y-77830000D01*
X73555000Y-76710000D02*
X73555000Y-77830000D01*
X73570323Y-76710000D02*
X73539677Y-76710000D01*
X73180000Y-77830000D02*
X73180000Y-81830000D01*
X73180000Y-81830000D02*
X72660000Y-81830000D01*
X72660000Y-81830000D02*
X72660000Y-77830000D01*
X78000000Y-74240000D02*
X78760000Y-74240000D01*
X78760000Y-74240000D02*
X78760000Y-75000000D01*
G04 #@! TO.C,J21*
X57830000Y-43330000D02*
X57830000Y-40670000D01*
X55230000Y-43330000D02*
X57830000Y-43330000D01*
X55230000Y-40670000D02*
X57830000Y-40670000D01*
X55230000Y-43330000D02*
X55230000Y-40670000D01*
X53960000Y-43330000D02*
X52630000Y-43330000D01*
X52630000Y-43330000D02*
X52630000Y-42000000D01*
G04 #@! TO.C,L41*
X92980000Y-73750000D02*
X92980000Y-75750000D01*
X90020000Y-75750000D02*
X90020000Y-73750000D01*
G04 #@! TO.C,Q51*
X66605000Y-45190000D02*
X65675000Y-45190000D01*
X63445000Y-45190000D02*
X64375000Y-45190000D01*
X63445000Y-45190000D02*
X63445000Y-48350000D01*
X66605000Y-45190000D02*
X66605000Y-46650000D01*
G04 #@! TO.C,R12*
X109120000Y-70750000D02*
X109120000Y-69550000D01*
X110880000Y-69550000D02*
X110880000Y-70750000D01*
G04 #@! TO.C,R41*
X85520000Y-80050000D02*
X85520000Y-78850000D01*
X87280000Y-78850000D02*
X87280000Y-80050000D01*
G04 #@! TO.C,R51*
X76250000Y-47880000D02*
X75050000Y-47880000D01*
X75050000Y-46120000D02*
X76250000Y-46120000D01*
G04 #@! TO.C,R61*
X64600000Y-56205000D02*
X63400000Y-56205000D01*
X63400000Y-54445000D02*
X64600000Y-54445000D01*
G04 #@! TO.C,R62*
X64600000Y-54205000D02*
X63400000Y-54205000D01*
X63400000Y-52445000D02*
X64600000Y-52445000D01*
G04 #@! TO.C,R63*
X69450000Y-57380000D02*
X68250000Y-57380000D01*
X68250000Y-55620000D02*
X69450000Y-55620000D01*
G04 #@! TO.C,R64*
X69350000Y-53130000D02*
X68150000Y-53130000D01*
X68150000Y-51370000D02*
X69350000Y-51370000D01*
G04 #@! TO.C,RN1*
X95620000Y-71600000D02*
X95620000Y-70600000D01*
X98980000Y-71600000D02*
X98980000Y-70600000D01*
G04 #@! TO.C,SW11*
X102000000Y-53500000D02*
X106500000Y-53500000D01*
X100750000Y-49500000D02*
X100750000Y-51000000D01*
X106500000Y-47000000D02*
X102000000Y-47000000D01*
X107750000Y-51000000D02*
X107750000Y-49500000D01*
G04 #@! TO.C,SW12*
X102000000Y-73500000D02*
X106500000Y-73500000D01*
X100750000Y-69500000D02*
X100750000Y-71000000D01*
X106500000Y-67000000D02*
X102000000Y-67000000D01*
X107750000Y-71000000D02*
X107750000Y-69500000D01*
D13*
G04 #@! TO.C,U1*
X83275000Y-58375000D02*
X83275000Y-57925000D01*
X76025000Y-58375000D02*
X76025000Y-57850000D01*
X76025000Y-51125000D02*
X76025000Y-51650000D01*
X83275000Y-51125000D02*
X83275000Y-51650000D01*
X83275000Y-58375000D02*
X82750000Y-58375000D01*
X83275000Y-51125000D02*
X82750000Y-51125000D01*
X76025000Y-51125000D02*
X76550000Y-51125000D01*
X76025000Y-58375000D02*
X76550000Y-58375000D01*
X83275000Y-57925000D02*
X84650000Y-57925000D01*
D12*
G04 #@! TO.C,U2*
X52940000Y-45250000D02*
X52940000Y-47050000D01*
X56160000Y-47050000D02*
X56160000Y-44600000D01*
G04 #@! TO.C,U3*
X68100000Y-71610000D02*
X69900000Y-71610000D01*
X69900000Y-68390000D02*
X67450000Y-68390000D01*
G04 #@! TO.C,U4*
X88750000Y-81660000D02*
X90550000Y-81660000D01*
X90550000Y-78440000D02*
X88100000Y-78440000D01*
G04 #@! TO.C,U5*
X78950000Y-43330000D02*
X78950000Y-40670000D01*
X63650000Y-43330000D02*
X78950000Y-43330000D01*
X63650000Y-40670000D02*
X78950000Y-40670000D01*
X63650000Y-43330000D02*
X63650000Y-40670000D01*
X62380000Y-43330000D02*
X61050000Y-43330000D01*
X61050000Y-43330000D02*
X61050000Y-42000000D01*
G04 #@! TO.C,Y11*
X95525000Y-46835000D02*
X95525000Y-53085000D01*
X90475000Y-46835000D02*
X90475000Y-53085000D01*
X90475000Y-46835000D02*
G75*
G02X95525000Y-46835000I2525000J0D01*
G01*
X90475000Y-53085000D02*
G75*
G03X95525000Y-53085000I2525000J0D01*
G01*
G04 #@! TO.C,C17*
X75250000Y-49600000D02*
X76250000Y-49600000D01*
X76250000Y-47900000D02*
X75250000Y-47900000D01*
G04 #@! TO.C,C19*
X88500000Y-49900000D02*
X87500000Y-49900000D01*
X87500000Y-51600000D02*
X88500000Y-51600000D01*
G04 #@! TO.C,RN11*
X75120000Y-67400000D02*
X75120000Y-66400000D01*
X78480000Y-67400000D02*
X78480000Y-66400000D01*
G04 #@! TO.C,RN12*
X82680000Y-66400000D02*
X82680000Y-67400000D01*
X79320000Y-66400000D02*
X79320000Y-67400000D01*
G04 #@! TO.C,F11*
X83400000Y-75130000D02*
X85400000Y-75130000D01*
X85400000Y-77270000D02*
X83400000Y-77270000D01*
G04 #@! TO.C,F12*
X68000000Y-74130000D02*
X70000000Y-74130000D01*
X70000000Y-76270000D02*
X68000000Y-76270000D01*
G04 #@! TO.C,D41*
X79900000Y-72150000D02*
X79900000Y-75450000D01*
X79900000Y-75450000D02*
X86800000Y-75450000D01*
X79900000Y-72150000D02*
X86800000Y-72150000D01*
G04 #@! TO.C,D1*
X63350000Y-67100000D02*
X67650000Y-67100000D01*
X67650000Y-67100000D02*
X67650000Y-59800000D01*
X63350000Y-67100000D02*
X63350000Y-59800000D01*
G04 #@! TO.C,D2*
X67850000Y-67000000D02*
X72150000Y-67000000D01*
X72150000Y-67000000D02*
X72150000Y-59700000D01*
X67850000Y-67000000D02*
X67850000Y-59700000D01*
G04 #@! TD*
G04 #@! TO.C,C42*
D13*
X83157142Y-69707142D02*
X83109523Y-69754761D01*
X82966666Y-69802380D01*
X82871428Y-69802380D01*
X82728571Y-69754761D01*
X82633333Y-69659523D01*
X82585714Y-69564285D01*
X82538095Y-69373809D01*
X82538095Y-69230952D01*
X82585714Y-69040476D01*
X82633333Y-68945238D01*
X82728571Y-68850000D01*
X82871428Y-68802380D01*
X82966666Y-68802380D01*
X83109523Y-68850000D01*
X83157142Y-68897619D01*
X84014285Y-69135714D02*
X84014285Y-69802380D01*
X83776190Y-68754761D02*
X83538095Y-69469047D01*
X84157142Y-69469047D01*
X84490476Y-68897619D02*
X84538095Y-68850000D01*
X84633333Y-68802380D01*
X84871428Y-68802380D01*
X84966666Y-68850000D01*
X85014285Y-68897619D01*
X85061904Y-68992857D01*
X85061904Y-69088095D01*
X85014285Y-69230952D01*
X84442857Y-69802380D01*
X85061904Y-69802380D01*
G04 #@! TO.C,J11*
X61087380Y-78877023D02*
X61801666Y-78877023D01*
X61944523Y-78924642D01*
X62039761Y-79019880D01*
X62087380Y-79162738D01*
X62087380Y-79257976D01*
X62087380Y-77877023D02*
X62087380Y-78448452D01*
X62087380Y-78162738D02*
X61087380Y-78162738D01*
X61230238Y-78257976D01*
X61325476Y-78353214D01*
X61373095Y-78448452D01*
X62087380Y-76924642D02*
X62087380Y-77496071D01*
X62087380Y-77210357D02*
X61087380Y-77210357D01*
X61230238Y-77305595D01*
X61325476Y-77400833D01*
X61373095Y-77496071D01*
G04 #@! TO.C,C18*
X75607142Y-60142857D02*
X75654761Y-60190476D01*
X75702380Y-60333333D01*
X75702380Y-60428571D01*
X75654761Y-60571428D01*
X75559523Y-60666666D01*
X75464285Y-60714285D01*
X75273809Y-60761904D01*
X75130952Y-60761904D01*
X74940476Y-60714285D01*
X74845238Y-60666666D01*
X74750000Y-60571428D01*
X74702380Y-60428571D01*
X74702380Y-60333333D01*
X74750000Y-60190476D01*
X74797619Y-60142857D01*
X75702380Y-59190476D02*
X75702380Y-59761904D01*
X75702380Y-59476190D02*
X74702380Y-59476190D01*
X74845238Y-59571428D01*
X74940476Y-59666666D01*
X74988095Y-59761904D01*
X75130952Y-58619047D02*
X75083333Y-58714285D01*
X75035714Y-58761904D01*
X74940476Y-58809523D01*
X74892857Y-58809523D01*
X74797619Y-58761904D01*
X74750000Y-58714285D01*
X74702380Y-58619047D01*
X74702380Y-58428571D01*
X74750000Y-58333333D01*
X74797619Y-58285714D01*
X74892857Y-58238095D01*
X74940476Y-58238095D01*
X75035714Y-58285714D01*
X75083333Y-58333333D01*
X75130952Y-58428571D01*
X75130952Y-58619047D01*
X75178571Y-58714285D01*
X75226190Y-58761904D01*
X75321428Y-58809523D01*
X75511904Y-58809523D01*
X75607142Y-58761904D01*
X75654761Y-58714285D01*
X75702380Y-58619047D01*
X75702380Y-58428571D01*
X75654761Y-58333333D01*
X75607142Y-58285714D01*
X75511904Y-58238095D01*
X75321428Y-58238095D01*
X75226190Y-58285714D01*
X75178571Y-58333333D01*
X75130952Y-58428571D01*
G04 #@! TO.C,J13*
X55805476Y-72262380D02*
X55805476Y-72976666D01*
X55757857Y-73119523D01*
X55662619Y-73214761D01*
X55519761Y-73262380D01*
X55424523Y-73262380D01*
X56805476Y-73262380D02*
X56234047Y-73262380D01*
X56519761Y-73262380D02*
X56519761Y-72262380D01*
X56424523Y-72405238D01*
X56329285Y-72500476D01*
X56234047Y-72548095D01*
X57138809Y-72262380D02*
X57757857Y-72262380D01*
X57424523Y-72643333D01*
X57567380Y-72643333D01*
X57662619Y-72690952D01*
X57710238Y-72738571D01*
X57757857Y-72833809D01*
X57757857Y-73071904D01*
X57710238Y-73167142D01*
X57662619Y-73214761D01*
X57567380Y-73262380D01*
X57281666Y-73262380D01*
X57186428Y-73214761D01*
X57138809Y-73167142D01*
G04 #@! TO.C,C11*
X87357142Y-46357142D02*
X87309523Y-46404761D01*
X87166666Y-46452380D01*
X87071428Y-46452380D01*
X86928571Y-46404761D01*
X86833333Y-46309523D01*
X86785714Y-46214285D01*
X86738095Y-46023809D01*
X86738095Y-45880952D01*
X86785714Y-45690476D01*
X86833333Y-45595238D01*
X86928571Y-45500000D01*
X87071428Y-45452380D01*
X87166666Y-45452380D01*
X87309523Y-45500000D01*
X87357142Y-45547619D01*
X88309523Y-46452380D02*
X87738095Y-46452380D01*
X88023809Y-46452380D02*
X88023809Y-45452380D01*
X87928571Y-45595238D01*
X87833333Y-45690476D01*
X87738095Y-45738095D01*
X89261904Y-46452380D02*
X88690476Y-46452380D01*
X88976190Y-46452380D02*
X88976190Y-45452380D01*
X88880952Y-45595238D01*
X88785714Y-45690476D01*
X88690476Y-45738095D01*
G04 #@! TO.C,C12*
X87357142Y-54607142D02*
X87309523Y-54654761D01*
X87166666Y-54702380D01*
X87071428Y-54702380D01*
X86928571Y-54654761D01*
X86833333Y-54559523D01*
X86785714Y-54464285D01*
X86738095Y-54273809D01*
X86738095Y-54130952D01*
X86785714Y-53940476D01*
X86833333Y-53845238D01*
X86928571Y-53750000D01*
X87071428Y-53702380D01*
X87166666Y-53702380D01*
X87309523Y-53750000D01*
X87357142Y-53797619D01*
X88309523Y-54702380D02*
X87738095Y-54702380D01*
X88023809Y-54702380D02*
X88023809Y-53702380D01*
X87928571Y-53845238D01*
X87833333Y-53940476D01*
X87738095Y-53988095D01*
X88690476Y-53797619D02*
X88738095Y-53750000D01*
X88833333Y-53702380D01*
X89071428Y-53702380D01*
X89166666Y-53750000D01*
X89214285Y-53797619D01*
X89261904Y-53892857D01*
X89261904Y-53988095D01*
X89214285Y-54130952D01*
X88642857Y-54702380D01*
X89261904Y-54702380D01*
G04 #@! TO.C,C16*
X84357142Y-62892857D02*
X84404761Y-62940476D01*
X84452380Y-63083333D01*
X84452380Y-63178571D01*
X84404761Y-63321428D01*
X84309523Y-63416666D01*
X84214285Y-63464285D01*
X84023809Y-63511904D01*
X83880952Y-63511904D01*
X83690476Y-63464285D01*
X83595238Y-63416666D01*
X83500000Y-63321428D01*
X83452380Y-63178571D01*
X83452380Y-63083333D01*
X83500000Y-62940476D01*
X83547619Y-62892857D01*
X84452380Y-61940476D02*
X84452380Y-62511904D01*
X84452380Y-62226190D02*
X83452380Y-62226190D01*
X83595238Y-62321428D01*
X83690476Y-62416666D01*
X83738095Y-62511904D01*
X83452380Y-61083333D02*
X83452380Y-61273809D01*
X83500000Y-61369047D01*
X83547619Y-61416666D01*
X83690476Y-61511904D01*
X83880952Y-61559523D01*
X84261904Y-61559523D01*
X84357142Y-61511904D01*
X84404761Y-61464285D01*
X84452380Y-61369047D01*
X84452380Y-61178571D01*
X84404761Y-61083333D01*
X84357142Y-61035714D01*
X84261904Y-60988095D01*
X84023809Y-60988095D01*
X83928571Y-61035714D01*
X83880952Y-61083333D01*
X83833333Y-61178571D01*
X83833333Y-61369047D01*
X83880952Y-61464285D01*
X83928571Y-61511904D01*
X84023809Y-61559523D01*
G04 #@! TO.C,C21*
X51357142Y-50142857D02*
X51404761Y-50190476D01*
X51452380Y-50333333D01*
X51452380Y-50428571D01*
X51404761Y-50571428D01*
X51309523Y-50666666D01*
X51214285Y-50714285D01*
X51023809Y-50761904D01*
X50880952Y-50761904D01*
X50690476Y-50714285D01*
X50595238Y-50666666D01*
X50500000Y-50571428D01*
X50452380Y-50428571D01*
X50452380Y-50333333D01*
X50500000Y-50190476D01*
X50547619Y-50142857D01*
X50547619Y-49761904D02*
X50500000Y-49714285D01*
X50452380Y-49619047D01*
X50452380Y-49380952D01*
X50500000Y-49285714D01*
X50547619Y-49238095D01*
X50642857Y-49190476D01*
X50738095Y-49190476D01*
X50880952Y-49238095D01*
X51452380Y-49809523D01*
X51452380Y-49190476D01*
X51452380Y-48238095D02*
X51452380Y-48809523D01*
X51452380Y-48523809D02*
X50452380Y-48523809D01*
X50595238Y-48619047D01*
X50690476Y-48714285D01*
X50738095Y-48809523D01*
G04 #@! TO.C,C22*
X60453542Y-45778657D02*
X60501161Y-45826276D01*
X60548780Y-45969133D01*
X60548780Y-46064371D01*
X60501161Y-46207228D01*
X60405923Y-46302466D01*
X60310685Y-46350085D01*
X60120209Y-46397704D01*
X59977352Y-46397704D01*
X59786876Y-46350085D01*
X59691638Y-46302466D01*
X59596400Y-46207228D01*
X59548780Y-46064371D01*
X59548780Y-45969133D01*
X59596400Y-45826276D01*
X59644019Y-45778657D01*
X59644019Y-45397704D02*
X59596400Y-45350085D01*
X59548780Y-45254847D01*
X59548780Y-45016752D01*
X59596400Y-44921514D01*
X59644019Y-44873895D01*
X59739257Y-44826276D01*
X59834495Y-44826276D01*
X59977352Y-44873895D01*
X60548780Y-45445323D01*
X60548780Y-44826276D01*
X59644019Y-44445323D02*
X59596400Y-44397704D01*
X59548780Y-44302466D01*
X59548780Y-44064371D01*
X59596400Y-43969133D01*
X59644019Y-43921514D01*
X59739257Y-43873895D01*
X59834495Y-43873895D01*
X59977352Y-43921514D01*
X60548780Y-44492942D01*
X60548780Y-43873895D01*
G04 #@! TO.C,C31*
X63607142Y-70392857D02*
X63654761Y-70440476D01*
X63702380Y-70583333D01*
X63702380Y-70678571D01*
X63654761Y-70821428D01*
X63559523Y-70916666D01*
X63464285Y-70964285D01*
X63273809Y-71011904D01*
X63130952Y-71011904D01*
X62940476Y-70964285D01*
X62845238Y-70916666D01*
X62750000Y-70821428D01*
X62702380Y-70678571D01*
X62702380Y-70583333D01*
X62750000Y-70440476D01*
X62797619Y-70392857D01*
X62702380Y-70059523D02*
X62702380Y-69440476D01*
X63083333Y-69773809D01*
X63083333Y-69630952D01*
X63130952Y-69535714D01*
X63178571Y-69488095D01*
X63273809Y-69440476D01*
X63511904Y-69440476D01*
X63607142Y-69488095D01*
X63654761Y-69535714D01*
X63702380Y-69630952D01*
X63702380Y-69916666D01*
X63654761Y-70011904D01*
X63607142Y-70059523D01*
X63702380Y-68488095D02*
X63702380Y-69059523D01*
X63702380Y-68773809D02*
X62702380Y-68773809D01*
X62845238Y-68869047D01*
X62940476Y-68964285D01*
X62988095Y-69059523D01*
G04 #@! TO.C,C32*
X74607142Y-70392857D02*
X74654761Y-70440476D01*
X74702380Y-70583333D01*
X74702380Y-70678571D01*
X74654761Y-70821428D01*
X74559523Y-70916666D01*
X74464285Y-70964285D01*
X74273809Y-71011904D01*
X74130952Y-71011904D01*
X73940476Y-70964285D01*
X73845238Y-70916666D01*
X73750000Y-70821428D01*
X73702380Y-70678571D01*
X73702380Y-70583333D01*
X73750000Y-70440476D01*
X73797619Y-70392857D01*
X73702380Y-70059523D02*
X73702380Y-69440476D01*
X74083333Y-69773809D01*
X74083333Y-69630952D01*
X74130952Y-69535714D01*
X74178571Y-69488095D01*
X74273809Y-69440476D01*
X74511904Y-69440476D01*
X74607142Y-69488095D01*
X74654761Y-69535714D01*
X74702380Y-69630952D01*
X74702380Y-69916666D01*
X74654761Y-70011904D01*
X74607142Y-70059523D01*
X73797619Y-69059523D02*
X73750000Y-69011904D01*
X73702380Y-68916666D01*
X73702380Y-68678571D01*
X73750000Y-68583333D01*
X73797619Y-68535714D01*
X73892857Y-68488095D01*
X73988095Y-68488095D01*
X74130952Y-68535714D01*
X74702380Y-69107142D01*
X74702380Y-68488095D01*
G04 #@! TO.C,C41*
X97357142Y-78142857D02*
X97404761Y-78190476D01*
X97452380Y-78333333D01*
X97452380Y-78428571D01*
X97404761Y-78571428D01*
X97309523Y-78666666D01*
X97214285Y-78714285D01*
X97023809Y-78761904D01*
X96880952Y-78761904D01*
X96690476Y-78714285D01*
X96595238Y-78666666D01*
X96500000Y-78571428D01*
X96452380Y-78428571D01*
X96452380Y-78333333D01*
X96500000Y-78190476D01*
X96547619Y-78142857D01*
X96785714Y-77285714D02*
X97452380Y-77285714D01*
X96404761Y-77523809D02*
X97119047Y-77761904D01*
X97119047Y-77142857D01*
X97452380Y-76238095D02*
X97452380Y-76809523D01*
X97452380Y-76523809D02*
X96452380Y-76523809D01*
X96595238Y-76619047D01*
X96690476Y-76714285D01*
X96738095Y-76809523D01*
G04 #@! TO.C,D3*
X99261904Y-78752380D02*
X99261904Y-77752380D01*
X99500000Y-77752380D01*
X99642857Y-77800000D01*
X99738095Y-77895238D01*
X99785714Y-77990476D01*
X99833333Y-78180952D01*
X99833333Y-78323809D01*
X99785714Y-78514285D01*
X99738095Y-78609523D01*
X99642857Y-78704761D01*
X99500000Y-78752380D01*
X99261904Y-78752380D01*
X100166666Y-77752380D02*
X100785714Y-77752380D01*
X100452380Y-78133333D01*
X100595238Y-78133333D01*
X100690476Y-78180952D01*
X100738095Y-78228571D01*
X100785714Y-78323809D01*
X100785714Y-78561904D01*
X100738095Y-78657142D01*
X100690476Y-78704761D01*
X100595238Y-78752380D01*
X100309523Y-78752380D01*
X100214285Y-78704761D01*
X100166666Y-78657142D01*
G04 #@! TO.C,D4*
X104011904Y-78752380D02*
X104011904Y-77752380D01*
X104250000Y-77752380D01*
X104392857Y-77800000D01*
X104488095Y-77895238D01*
X104535714Y-77990476D01*
X104583333Y-78180952D01*
X104583333Y-78323809D01*
X104535714Y-78514285D01*
X104488095Y-78609523D01*
X104392857Y-78704761D01*
X104250000Y-78752380D01*
X104011904Y-78752380D01*
X105440476Y-78085714D02*
X105440476Y-78752380D01*
X105202380Y-77704761D02*
X104964285Y-78419047D01*
X105583333Y-78419047D01*
G04 #@! TO.C,D5*
X108761904Y-78752380D02*
X108761904Y-77752380D01*
X109000000Y-77752380D01*
X109142857Y-77800000D01*
X109238095Y-77895238D01*
X109285714Y-77990476D01*
X109333333Y-78180952D01*
X109333333Y-78323809D01*
X109285714Y-78514285D01*
X109238095Y-78609523D01*
X109142857Y-78704761D01*
X109000000Y-78752380D01*
X108761904Y-78752380D01*
X110238095Y-77752380D02*
X109761904Y-77752380D01*
X109714285Y-78228571D01*
X109761904Y-78180952D01*
X109857142Y-78133333D01*
X110095238Y-78133333D01*
X110190476Y-78180952D01*
X110238095Y-78228571D01*
X110285714Y-78323809D01*
X110285714Y-78561904D01*
X110238095Y-78657142D01*
X110190476Y-78704761D01*
X110095238Y-78752380D01*
X109857142Y-78752380D01*
X109761904Y-78704761D01*
X109714285Y-78657142D01*
G04 #@! TO.C,J12*
X74990476Y-73052380D02*
X74990476Y-73766666D01*
X74942857Y-73909523D01*
X74847619Y-74004761D01*
X74704761Y-74052380D01*
X74609523Y-74052380D01*
X75990476Y-74052380D02*
X75419047Y-74052380D01*
X75704761Y-74052380D02*
X75704761Y-73052380D01*
X75609523Y-73195238D01*
X75514285Y-73290476D01*
X75419047Y-73338095D01*
X76371428Y-73147619D02*
X76419047Y-73100000D01*
X76514285Y-73052380D01*
X76752380Y-73052380D01*
X76847619Y-73100000D01*
X76895238Y-73147619D01*
X76942857Y-73242857D01*
X76942857Y-73338095D01*
X76895238Y-73480952D01*
X76323809Y-74052380D01*
X76942857Y-74052380D01*
G04 #@! TO.C,J21*
X51082380Y-42809523D02*
X51796666Y-42809523D01*
X51939523Y-42857142D01*
X52034761Y-42952380D01*
X52082380Y-43095238D01*
X52082380Y-43190476D01*
X51177619Y-42380952D02*
X51130000Y-42333333D01*
X51082380Y-42238095D01*
X51082380Y-42000000D01*
X51130000Y-41904761D01*
X51177619Y-41857142D01*
X51272857Y-41809523D01*
X51368095Y-41809523D01*
X51510952Y-41857142D01*
X52082380Y-42428571D01*
X52082380Y-41809523D01*
X52082380Y-40857142D02*
X52082380Y-41428571D01*
X52082380Y-41142857D02*
X51082380Y-41142857D01*
X51225238Y-41238095D01*
X51320476Y-41333333D01*
X51368095Y-41428571D01*
G04 #@! TO.C,J61*
X56952380Y-56809523D02*
X57666666Y-56809523D01*
X57809523Y-56857142D01*
X57904761Y-56952380D01*
X57952380Y-57095238D01*
X57952380Y-57190476D01*
X56952380Y-55904761D02*
X56952380Y-56095238D01*
X57000000Y-56190476D01*
X57047619Y-56238095D01*
X57190476Y-56333333D01*
X57380952Y-56380952D01*
X57761904Y-56380952D01*
X57857142Y-56333333D01*
X57904761Y-56285714D01*
X57952380Y-56190476D01*
X57952380Y-56000000D01*
X57904761Y-55904761D01*
X57857142Y-55857142D01*
X57761904Y-55809523D01*
X57523809Y-55809523D01*
X57428571Y-55857142D01*
X57380952Y-55904761D01*
X57333333Y-56000000D01*
X57333333Y-56190476D01*
X57380952Y-56285714D01*
X57428571Y-56333333D01*
X57523809Y-56380952D01*
X57952380Y-54857142D02*
X57952380Y-55428571D01*
X57952380Y-55142857D02*
X56952380Y-55142857D01*
X57095238Y-55238095D01*
X57190476Y-55333333D01*
X57238095Y-55428571D01*
G04 #@! TO.C,L41*
X89452380Y-72642857D02*
X89452380Y-73119047D01*
X88452380Y-73119047D01*
X88785714Y-71880952D02*
X89452380Y-71880952D01*
X88404761Y-72119047D02*
X89119047Y-72357142D01*
X89119047Y-71738095D01*
X89452380Y-70833333D02*
X89452380Y-71404761D01*
X89452380Y-71119047D02*
X88452380Y-71119047D01*
X88595238Y-71214285D01*
X88690476Y-71309523D01*
X88738095Y-71404761D01*
G04 #@! TO.C,Q51*
X62428571Y-44547619D02*
X62333333Y-44500000D01*
X62238095Y-44404761D01*
X62095238Y-44261904D01*
X62000000Y-44214285D01*
X61904761Y-44214285D01*
X61952380Y-44452380D02*
X61857142Y-44404761D01*
X61761904Y-44309523D01*
X61714285Y-44119047D01*
X61714285Y-43785714D01*
X61761904Y-43595238D01*
X61857142Y-43500000D01*
X61952380Y-43452380D01*
X62142857Y-43452380D01*
X62238095Y-43500000D01*
X62333333Y-43595238D01*
X62380952Y-43785714D01*
X62380952Y-44119047D01*
X62333333Y-44309523D01*
X62238095Y-44404761D01*
X62142857Y-44452380D01*
X61952380Y-44452380D01*
X63285714Y-43452380D02*
X62809523Y-43452380D01*
X62761904Y-43928571D01*
X62809523Y-43880952D01*
X62904761Y-43833333D01*
X63142857Y-43833333D01*
X63238095Y-43880952D01*
X63285714Y-43928571D01*
X63333333Y-44023809D01*
X63333333Y-44261904D01*
X63285714Y-44357142D01*
X63238095Y-44404761D01*
X63142857Y-44452380D01*
X62904761Y-44452380D01*
X62809523Y-44404761D01*
X62761904Y-44357142D01*
X64285714Y-44452380D02*
X63714285Y-44452380D01*
X64000000Y-44452380D02*
X64000000Y-43452380D01*
X63904761Y-43595238D01*
X63809523Y-43690476D01*
X63714285Y-43738095D01*
G04 #@! TO.C,R12*
X112152380Y-70792857D02*
X111676190Y-71126190D01*
X112152380Y-71364285D02*
X111152380Y-71364285D01*
X111152380Y-70983333D01*
X111200000Y-70888095D01*
X111247619Y-70840476D01*
X111342857Y-70792857D01*
X111485714Y-70792857D01*
X111580952Y-70840476D01*
X111628571Y-70888095D01*
X111676190Y-70983333D01*
X111676190Y-71364285D01*
X112152380Y-69840476D02*
X112152380Y-70411904D01*
X112152380Y-70126190D02*
X111152380Y-70126190D01*
X111295238Y-70221428D01*
X111390476Y-70316666D01*
X111438095Y-70411904D01*
X111247619Y-69459523D02*
X111200000Y-69411904D01*
X111152380Y-69316666D01*
X111152380Y-69078571D01*
X111200000Y-68983333D01*
X111247619Y-68935714D01*
X111342857Y-68888095D01*
X111438095Y-68888095D01*
X111580952Y-68935714D01*
X112152380Y-69507142D01*
X112152380Y-68888095D01*
G04 #@! TO.C,R41*
X85052380Y-80042857D02*
X84576190Y-80376190D01*
X85052380Y-80614285D02*
X84052380Y-80614285D01*
X84052380Y-80233333D01*
X84100000Y-80138095D01*
X84147619Y-80090476D01*
X84242857Y-80042857D01*
X84385714Y-80042857D01*
X84480952Y-80090476D01*
X84528571Y-80138095D01*
X84576190Y-80233333D01*
X84576190Y-80614285D01*
X84385714Y-79185714D02*
X85052380Y-79185714D01*
X84004761Y-79423809D02*
X84719047Y-79661904D01*
X84719047Y-79042857D01*
X85052380Y-78138095D02*
X85052380Y-78709523D01*
X85052380Y-78423809D02*
X84052380Y-78423809D01*
X84195238Y-78519047D01*
X84290476Y-78614285D01*
X84338095Y-78709523D01*
G04 #@! TO.C,R51*
X75007142Y-45752380D02*
X74673809Y-45276190D01*
X74435714Y-45752380D02*
X74435714Y-44752380D01*
X74816666Y-44752380D01*
X74911904Y-44800000D01*
X74959523Y-44847619D01*
X75007142Y-44942857D01*
X75007142Y-45085714D01*
X74959523Y-45180952D01*
X74911904Y-45228571D01*
X74816666Y-45276190D01*
X74435714Y-45276190D01*
X75911904Y-44752380D02*
X75435714Y-44752380D01*
X75388095Y-45228571D01*
X75435714Y-45180952D01*
X75530952Y-45133333D01*
X75769047Y-45133333D01*
X75864285Y-45180952D01*
X75911904Y-45228571D01*
X75959523Y-45323809D01*
X75959523Y-45561904D01*
X75911904Y-45657142D01*
X75864285Y-45704761D01*
X75769047Y-45752380D01*
X75530952Y-45752380D01*
X75435714Y-45704761D01*
X75388095Y-45657142D01*
X76911904Y-45752380D02*
X76340476Y-45752380D01*
X76626190Y-45752380D02*
X76626190Y-44752380D01*
X76530952Y-44895238D01*
X76435714Y-44990476D01*
X76340476Y-45038095D01*
G04 #@! TO.C,R61*
X63357142Y-57427380D02*
X63023809Y-56951190D01*
X62785714Y-57427380D02*
X62785714Y-56427380D01*
X63166666Y-56427380D01*
X63261904Y-56475000D01*
X63309523Y-56522619D01*
X63357142Y-56617857D01*
X63357142Y-56760714D01*
X63309523Y-56855952D01*
X63261904Y-56903571D01*
X63166666Y-56951190D01*
X62785714Y-56951190D01*
X64214285Y-56427380D02*
X64023809Y-56427380D01*
X63928571Y-56475000D01*
X63880952Y-56522619D01*
X63785714Y-56665476D01*
X63738095Y-56855952D01*
X63738095Y-57236904D01*
X63785714Y-57332142D01*
X63833333Y-57379761D01*
X63928571Y-57427380D01*
X64119047Y-57427380D01*
X64214285Y-57379761D01*
X64261904Y-57332142D01*
X64309523Y-57236904D01*
X64309523Y-56998809D01*
X64261904Y-56903571D01*
X64214285Y-56855952D01*
X64119047Y-56808333D01*
X63928571Y-56808333D01*
X63833333Y-56855952D01*
X63785714Y-56903571D01*
X63738095Y-56998809D01*
X65261904Y-57427380D02*
X64690476Y-57427380D01*
X64976190Y-57427380D02*
X64976190Y-56427380D01*
X64880952Y-56570238D01*
X64785714Y-56665476D01*
X64690476Y-56713095D01*
G04 #@! TO.C,R62*
X63357142Y-52077380D02*
X63023809Y-51601190D01*
X62785714Y-52077380D02*
X62785714Y-51077380D01*
X63166666Y-51077380D01*
X63261904Y-51125000D01*
X63309523Y-51172619D01*
X63357142Y-51267857D01*
X63357142Y-51410714D01*
X63309523Y-51505952D01*
X63261904Y-51553571D01*
X63166666Y-51601190D01*
X62785714Y-51601190D01*
X64214285Y-51077380D02*
X64023809Y-51077380D01*
X63928571Y-51125000D01*
X63880952Y-51172619D01*
X63785714Y-51315476D01*
X63738095Y-51505952D01*
X63738095Y-51886904D01*
X63785714Y-51982142D01*
X63833333Y-52029761D01*
X63928571Y-52077380D01*
X64119047Y-52077380D01*
X64214285Y-52029761D01*
X64261904Y-51982142D01*
X64309523Y-51886904D01*
X64309523Y-51648809D01*
X64261904Y-51553571D01*
X64214285Y-51505952D01*
X64119047Y-51458333D01*
X63928571Y-51458333D01*
X63833333Y-51505952D01*
X63785714Y-51553571D01*
X63738095Y-51648809D01*
X64690476Y-51172619D02*
X64738095Y-51125000D01*
X64833333Y-51077380D01*
X65071428Y-51077380D01*
X65166666Y-51125000D01*
X65214285Y-51172619D01*
X65261904Y-51267857D01*
X65261904Y-51363095D01*
X65214285Y-51505952D01*
X64642857Y-52077380D01*
X65261904Y-52077380D01*
G04 #@! TO.C,R63*
X68207142Y-55252380D02*
X67873809Y-54776190D01*
X67635714Y-55252380D02*
X67635714Y-54252380D01*
X68016666Y-54252380D01*
X68111904Y-54300000D01*
X68159523Y-54347619D01*
X68207142Y-54442857D01*
X68207142Y-54585714D01*
X68159523Y-54680952D01*
X68111904Y-54728571D01*
X68016666Y-54776190D01*
X67635714Y-54776190D01*
X69064285Y-54252380D02*
X68873809Y-54252380D01*
X68778571Y-54300000D01*
X68730952Y-54347619D01*
X68635714Y-54490476D01*
X68588095Y-54680952D01*
X68588095Y-55061904D01*
X68635714Y-55157142D01*
X68683333Y-55204761D01*
X68778571Y-55252380D01*
X68969047Y-55252380D01*
X69064285Y-55204761D01*
X69111904Y-55157142D01*
X69159523Y-55061904D01*
X69159523Y-54823809D01*
X69111904Y-54728571D01*
X69064285Y-54680952D01*
X68969047Y-54633333D01*
X68778571Y-54633333D01*
X68683333Y-54680952D01*
X68635714Y-54728571D01*
X68588095Y-54823809D01*
X69492857Y-54252380D02*
X70111904Y-54252380D01*
X69778571Y-54633333D01*
X69921428Y-54633333D01*
X70016666Y-54680952D01*
X70064285Y-54728571D01*
X70111904Y-54823809D01*
X70111904Y-55061904D01*
X70064285Y-55157142D01*
X70016666Y-55204761D01*
X69921428Y-55252380D01*
X69635714Y-55252380D01*
X69540476Y-55204761D01*
X69492857Y-55157142D01*
G04 #@! TO.C,R64*
X68107142Y-51002380D02*
X67773809Y-50526190D01*
X67535714Y-51002380D02*
X67535714Y-50002380D01*
X67916666Y-50002380D01*
X68011904Y-50050000D01*
X68059523Y-50097619D01*
X68107142Y-50192857D01*
X68107142Y-50335714D01*
X68059523Y-50430952D01*
X68011904Y-50478571D01*
X67916666Y-50526190D01*
X67535714Y-50526190D01*
X68964285Y-50002380D02*
X68773809Y-50002380D01*
X68678571Y-50050000D01*
X68630952Y-50097619D01*
X68535714Y-50240476D01*
X68488095Y-50430952D01*
X68488095Y-50811904D01*
X68535714Y-50907142D01*
X68583333Y-50954761D01*
X68678571Y-51002380D01*
X68869047Y-51002380D01*
X68964285Y-50954761D01*
X69011904Y-50907142D01*
X69059523Y-50811904D01*
X69059523Y-50573809D01*
X69011904Y-50478571D01*
X68964285Y-50430952D01*
X68869047Y-50383333D01*
X68678571Y-50383333D01*
X68583333Y-50430952D01*
X68535714Y-50478571D01*
X68488095Y-50573809D01*
X69916666Y-50335714D02*
X69916666Y-51002380D01*
X69678571Y-49954761D02*
X69440476Y-50669047D01*
X70059523Y-50669047D01*
G04 #@! TO.C,RN1*
X95452380Y-71690476D02*
X94976190Y-72023809D01*
X95452380Y-72261904D02*
X94452380Y-72261904D01*
X94452380Y-71880952D01*
X94500000Y-71785714D01*
X94547619Y-71738095D01*
X94642857Y-71690476D01*
X94785714Y-71690476D01*
X94880952Y-71738095D01*
X94928571Y-71785714D01*
X94976190Y-71880952D01*
X94976190Y-72261904D01*
X95452380Y-71261904D02*
X94452380Y-71261904D01*
X95452380Y-70690476D01*
X94452380Y-70690476D01*
X95452380Y-69690476D02*
X95452380Y-70261904D01*
X95452380Y-69976190D02*
X94452380Y-69976190D01*
X94595238Y-70071428D01*
X94690476Y-70166666D01*
X94738095Y-70261904D01*
G04 #@! TO.C,SW11*
X102440476Y-46404761D02*
X102583333Y-46452380D01*
X102821428Y-46452380D01*
X102916666Y-46404761D01*
X102964285Y-46357142D01*
X103011904Y-46261904D01*
X103011904Y-46166666D01*
X102964285Y-46071428D01*
X102916666Y-46023809D01*
X102821428Y-45976190D01*
X102630952Y-45928571D01*
X102535714Y-45880952D01*
X102488095Y-45833333D01*
X102440476Y-45738095D01*
X102440476Y-45642857D01*
X102488095Y-45547619D01*
X102535714Y-45500000D01*
X102630952Y-45452380D01*
X102869047Y-45452380D01*
X103011904Y-45500000D01*
X103345238Y-45452380D02*
X103583333Y-46452380D01*
X103773809Y-45738095D01*
X103964285Y-46452380D01*
X104202380Y-45452380D01*
X105107142Y-46452380D02*
X104535714Y-46452380D01*
X104821428Y-46452380D02*
X104821428Y-45452380D01*
X104726190Y-45595238D01*
X104630952Y-45690476D01*
X104535714Y-45738095D01*
X106059523Y-46452380D02*
X105488095Y-46452380D01*
X105773809Y-46452380D02*
X105773809Y-45452380D01*
X105678571Y-45595238D01*
X105583333Y-45690476D01*
X105488095Y-45738095D01*
G04 #@! TO.C,SW12*
X102440476Y-66404761D02*
X102583333Y-66452380D01*
X102821428Y-66452380D01*
X102916666Y-66404761D01*
X102964285Y-66357142D01*
X103011904Y-66261904D01*
X103011904Y-66166666D01*
X102964285Y-66071428D01*
X102916666Y-66023809D01*
X102821428Y-65976190D01*
X102630952Y-65928571D01*
X102535714Y-65880952D01*
X102488095Y-65833333D01*
X102440476Y-65738095D01*
X102440476Y-65642857D01*
X102488095Y-65547619D01*
X102535714Y-65500000D01*
X102630952Y-65452380D01*
X102869047Y-65452380D01*
X103011904Y-65500000D01*
X103345238Y-65452380D02*
X103583333Y-66452380D01*
X103773809Y-65738095D01*
X103964285Y-66452380D01*
X104202380Y-65452380D01*
X105107142Y-66452380D02*
X104535714Y-66452380D01*
X104821428Y-66452380D02*
X104821428Y-65452380D01*
X104726190Y-65595238D01*
X104630952Y-65690476D01*
X104535714Y-65738095D01*
X105488095Y-65547619D02*
X105535714Y-65500000D01*
X105630952Y-65452380D01*
X105869047Y-65452380D01*
X105964285Y-65500000D01*
X106011904Y-65547619D01*
X106059523Y-65642857D01*
X106059523Y-65738095D01*
X106011904Y-65880952D01*
X105440476Y-66452380D01*
X106059523Y-66452380D01*
G04 #@! TO.C,U1*
X78888095Y-60202380D02*
X78888095Y-61011904D01*
X78935714Y-61107142D01*
X78983333Y-61154761D01*
X79078571Y-61202380D01*
X79269047Y-61202380D01*
X79364285Y-61154761D01*
X79411904Y-61107142D01*
X79459523Y-61011904D01*
X79459523Y-60202380D01*
X80459523Y-61202380D02*
X79888095Y-61202380D01*
X80173809Y-61202380D02*
X80173809Y-60202380D01*
X80078571Y-60345238D01*
X79983333Y-60440476D01*
X79888095Y-60488095D01*
G04 #@! TO.C,U2*
X53238095Y-48452380D02*
X53238095Y-49261904D01*
X53285714Y-49357142D01*
X53333333Y-49404761D01*
X53428571Y-49452380D01*
X53619047Y-49452380D01*
X53714285Y-49404761D01*
X53761904Y-49357142D01*
X53809523Y-49261904D01*
X53809523Y-48452380D01*
X54238095Y-48547619D02*
X54285714Y-48500000D01*
X54380952Y-48452380D01*
X54619047Y-48452380D01*
X54714285Y-48500000D01*
X54761904Y-48547619D01*
X54809523Y-48642857D01*
X54809523Y-48738095D01*
X54761904Y-48880952D01*
X54190476Y-49452380D01*
X54809523Y-49452380D01*
G04 #@! TO.C,U3*
X68238095Y-67452380D02*
X68238095Y-68261904D01*
X68285714Y-68357142D01*
X68333333Y-68404761D01*
X68428571Y-68452380D01*
X68619047Y-68452380D01*
X68714285Y-68404761D01*
X68761904Y-68357142D01*
X68809523Y-68261904D01*
X68809523Y-67452380D01*
X69190476Y-67452380D02*
X69809523Y-67452380D01*
X69476190Y-67833333D01*
X69619047Y-67833333D01*
X69714285Y-67880952D01*
X69761904Y-67928571D01*
X69809523Y-68023809D01*
X69809523Y-68261904D01*
X69761904Y-68357142D01*
X69714285Y-68404761D01*
X69619047Y-68452380D01*
X69333333Y-68452380D01*
X69238095Y-68404761D01*
X69190476Y-68357142D01*
G04 #@! TO.C,U4*
X85238095Y-80452380D02*
X85238095Y-81261904D01*
X85285714Y-81357142D01*
X85333333Y-81404761D01*
X85428571Y-81452380D01*
X85619047Y-81452380D01*
X85714285Y-81404761D01*
X85761904Y-81357142D01*
X85809523Y-81261904D01*
X85809523Y-80452380D01*
X86714285Y-80785714D02*
X86714285Y-81452380D01*
X86476190Y-80404761D02*
X86238095Y-81119047D01*
X86857142Y-81119047D01*
G04 #@! TO.C,U5*
X59288095Y-41452380D02*
X59288095Y-42261904D01*
X59335714Y-42357142D01*
X59383333Y-42404761D01*
X59478571Y-42452380D01*
X59669047Y-42452380D01*
X59764285Y-42404761D01*
X59811904Y-42357142D01*
X59859523Y-42261904D01*
X59859523Y-41452380D01*
X60811904Y-41452380D02*
X60335714Y-41452380D01*
X60288095Y-41928571D01*
X60335714Y-41880952D01*
X60430952Y-41833333D01*
X60669047Y-41833333D01*
X60764285Y-41880952D01*
X60811904Y-41928571D01*
X60859523Y-42023809D01*
X60859523Y-42261904D01*
X60811904Y-42357142D01*
X60764285Y-42404761D01*
X60669047Y-42452380D01*
X60430952Y-42452380D01*
X60335714Y-42404761D01*
X60288095Y-42357142D01*
G04 #@! TO.C,Y11*
X96501190Y-50912380D02*
X96977380Y-50912380D01*
X95977380Y-51245714D02*
X96501190Y-50912380D01*
X95977380Y-50579047D01*
X96977380Y-49721904D02*
X96977380Y-50293333D01*
X96977380Y-50007619D02*
X95977380Y-50007619D01*
X96120238Y-50102857D01*
X96215476Y-50198095D01*
X96263095Y-50293333D01*
X96977380Y-48769523D02*
X96977380Y-49340952D01*
X96977380Y-49055238D02*
X95977380Y-49055238D01*
X96120238Y-49150476D01*
X96215476Y-49245714D01*
X96263095Y-49340952D01*
G04 #@! TO.C,C17*
X74607142Y-50857142D02*
X74559523Y-50904761D01*
X74416666Y-50952380D01*
X74321428Y-50952380D01*
X74178571Y-50904761D01*
X74083333Y-50809523D01*
X74035714Y-50714285D01*
X73988095Y-50523809D01*
X73988095Y-50380952D01*
X74035714Y-50190476D01*
X74083333Y-50095238D01*
X74178571Y-50000000D01*
X74321428Y-49952380D01*
X74416666Y-49952380D01*
X74559523Y-50000000D01*
X74607142Y-50047619D01*
X75559523Y-50952380D02*
X74988095Y-50952380D01*
X75273809Y-50952380D02*
X75273809Y-49952380D01*
X75178571Y-50095238D01*
X75083333Y-50190476D01*
X74988095Y-50238095D01*
X75892857Y-49952380D02*
X76559523Y-49952380D01*
X76130952Y-50952380D01*
G04 #@! TO.C,C19*
X87357142Y-49357142D02*
X87309523Y-49404761D01*
X87166666Y-49452380D01*
X87071428Y-49452380D01*
X86928571Y-49404761D01*
X86833333Y-49309523D01*
X86785714Y-49214285D01*
X86738095Y-49023809D01*
X86738095Y-48880952D01*
X86785714Y-48690476D01*
X86833333Y-48595238D01*
X86928571Y-48500000D01*
X87071428Y-48452380D01*
X87166666Y-48452380D01*
X87309523Y-48500000D01*
X87357142Y-48547619D01*
X88309523Y-49452380D02*
X87738095Y-49452380D01*
X88023809Y-49452380D02*
X88023809Y-48452380D01*
X87928571Y-48595238D01*
X87833333Y-48690476D01*
X87738095Y-48738095D01*
X88785714Y-49452380D02*
X88976190Y-49452380D01*
X89071428Y-49404761D01*
X89119047Y-49357142D01*
X89214285Y-49214285D01*
X89261904Y-49023809D01*
X89261904Y-48642857D01*
X89214285Y-48547619D01*
X89166666Y-48500000D01*
X89071428Y-48452380D01*
X88880952Y-48452380D01*
X88785714Y-48500000D01*
X88738095Y-48547619D01*
X88690476Y-48642857D01*
X88690476Y-48880952D01*
X88738095Y-48976190D01*
X88785714Y-49023809D01*
X88880952Y-49071428D01*
X89071428Y-49071428D01*
X89166666Y-49023809D01*
X89214285Y-48976190D01*
X89261904Y-48880952D01*
G04 #@! TO.C,RN11*
X74852380Y-68066666D02*
X74376190Y-68400000D01*
X74852380Y-68638095D02*
X73852380Y-68638095D01*
X73852380Y-68257142D01*
X73900000Y-68161904D01*
X73947619Y-68114285D01*
X74042857Y-68066666D01*
X74185714Y-68066666D01*
X74280952Y-68114285D01*
X74328571Y-68161904D01*
X74376190Y-68257142D01*
X74376190Y-68638095D01*
X74852380Y-67638095D02*
X73852380Y-67638095D01*
X74852380Y-67066666D01*
X73852380Y-67066666D01*
X74852380Y-66066666D02*
X74852380Y-66638095D01*
X74852380Y-66352380D02*
X73852380Y-66352380D01*
X73995238Y-66447619D01*
X74090476Y-66542857D01*
X74138095Y-66638095D01*
X74852380Y-65114285D02*
X74852380Y-65685714D01*
X74852380Y-65400000D02*
X73852380Y-65400000D01*
X73995238Y-65495238D01*
X74090476Y-65590476D01*
X74138095Y-65685714D01*
G04 #@! TO.C,RN12*
X84252380Y-68066666D02*
X83776190Y-68400000D01*
X84252380Y-68638095D02*
X83252380Y-68638095D01*
X83252380Y-68257142D01*
X83300000Y-68161904D01*
X83347619Y-68114285D01*
X83442857Y-68066666D01*
X83585714Y-68066666D01*
X83680952Y-68114285D01*
X83728571Y-68161904D01*
X83776190Y-68257142D01*
X83776190Y-68638095D01*
X84252380Y-67638095D02*
X83252380Y-67638095D01*
X84252380Y-67066666D01*
X83252380Y-67066666D01*
X84252380Y-66066666D02*
X84252380Y-66638095D01*
X84252380Y-66352380D02*
X83252380Y-66352380D01*
X83395238Y-66447619D01*
X83490476Y-66542857D01*
X83538095Y-66638095D01*
X83347619Y-65685714D02*
X83300000Y-65638095D01*
X83252380Y-65542857D01*
X83252380Y-65304761D01*
X83300000Y-65209523D01*
X83347619Y-65161904D01*
X83442857Y-65114285D01*
X83538095Y-65114285D01*
X83680952Y-65161904D01*
X84252380Y-65733333D01*
X84252380Y-65114285D01*
G04 #@! TO.C,F11*
X81190476Y-77928571D02*
X80857142Y-77928571D01*
X80857142Y-78452380D02*
X80857142Y-77452380D01*
X81333333Y-77452380D01*
X82238095Y-78452380D02*
X81666666Y-78452380D01*
X81952380Y-78452380D02*
X81952380Y-77452380D01*
X81857142Y-77595238D01*
X81761904Y-77690476D01*
X81666666Y-77738095D01*
X83190476Y-78452380D02*
X82619047Y-78452380D01*
X82904761Y-78452380D02*
X82904761Y-77452380D01*
X82809523Y-77595238D01*
X82714285Y-77690476D01*
X82619047Y-77738095D01*
G04 #@! TO.C,F12*
X68190476Y-76978571D02*
X67857142Y-76978571D01*
X67857142Y-77502380D02*
X67857142Y-76502380D01*
X68333333Y-76502380D01*
X69238095Y-77502380D02*
X68666666Y-77502380D01*
X68952380Y-77502380D02*
X68952380Y-76502380D01*
X68857142Y-76645238D01*
X68761904Y-76740476D01*
X68666666Y-76788095D01*
X69619047Y-76597619D02*
X69666666Y-76550000D01*
X69761904Y-76502380D01*
X70000000Y-76502380D01*
X70095238Y-76550000D01*
X70142857Y-76597619D01*
X70190476Y-76692857D01*
X70190476Y-76788095D01*
X70142857Y-76930952D01*
X69571428Y-77502380D01*
X70190476Y-77502380D01*
G04 #@! TO.C,D41*
X83085714Y-71752380D02*
X83085714Y-70752380D01*
X83323809Y-70752380D01*
X83466666Y-70800000D01*
X83561904Y-70895238D01*
X83609523Y-70990476D01*
X83657142Y-71180952D01*
X83657142Y-71323809D01*
X83609523Y-71514285D01*
X83561904Y-71609523D01*
X83466666Y-71704761D01*
X83323809Y-71752380D01*
X83085714Y-71752380D01*
X84514285Y-71085714D02*
X84514285Y-71752380D01*
X84276190Y-70704761D02*
X84038095Y-71419047D01*
X84657142Y-71419047D01*
X85561904Y-71752380D02*
X84990476Y-71752380D01*
X85276190Y-71752380D02*
X85276190Y-70752380D01*
X85180952Y-70895238D01*
X85085714Y-70990476D01*
X84990476Y-71038095D01*
G04 #@! TO.C,D1*
X62952380Y-63238095D02*
X61952380Y-63238095D01*
X61952380Y-63000000D01*
X62000000Y-62857142D01*
X62095238Y-62761904D01*
X62190476Y-62714285D01*
X62380952Y-62666666D01*
X62523809Y-62666666D01*
X62714285Y-62714285D01*
X62809523Y-62761904D01*
X62904761Y-62857142D01*
X62952380Y-63000000D01*
X62952380Y-63238095D01*
X62952380Y-61714285D02*
X62952380Y-62285714D01*
X62952380Y-62000000D02*
X61952380Y-62000000D01*
X62095238Y-62095238D01*
X62190476Y-62190476D01*
X62238095Y-62285714D01*
G04 #@! TO.C,D2*
X67452380Y-63138095D02*
X66452380Y-63138095D01*
X66452380Y-62900000D01*
X66500000Y-62757142D01*
X66595238Y-62661904D01*
X66690476Y-62614285D01*
X66880952Y-62566666D01*
X67023809Y-62566666D01*
X67214285Y-62614285D01*
X67309523Y-62661904D01*
X67404761Y-62757142D01*
X67452380Y-62900000D01*
X67452380Y-63138095D01*
X66547619Y-62185714D02*
X66500000Y-62138095D01*
X66452380Y-62042857D01*
X66452380Y-61804761D01*
X66500000Y-61709523D01*
X66547619Y-61661904D01*
X66642857Y-61614285D01*
X66738095Y-61614285D01*
X66880952Y-61661904D01*
X67452380Y-62233333D01*
X67452380Y-61614285D01*
G04 #@! TO.C,M1*
X60190476Y-46252380D02*
X60190476Y-45252380D01*
X60523809Y-45966666D01*
X60857142Y-45252380D01*
X60857142Y-46252380D01*
X61857142Y-46252380D02*
X61285714Y-46252380D01*
X61571428Y-46252380D02*
X61571428Y-45252380D01*
X61476190Y-45395238D01*
X61380952Y-45490476D01*
X61285714Y-45538095D01*
G04 #@! TO.C,M2*
X101190476Y-57252380D02*
X101190476Y-56252380D01*
X101523809Y-56966666D01*
X101857142Y-56252380D01*
X101857142Y-57252380D01*
X102285714Y-56347619D02*
X102333333Y-56300000D01*
X102428571Y-56252380D01*
X102666666Y-56252380D01*
X102761904Y-56300000D01*
X102809523Y-56347619D01*
X102857142Y-56442857D01*
X102857142Y-56538095D01*
X102809523Y-56680952D01*
X102238095Y-57252380D01*
X102857142Y-57252380D01*
G04 #@! TD*
M02*
