G04 #@! TF.GenerationSoftware,KiCad,Pcbnew,(5.0.0)*
G04 #@! TF.CreationDate,2019-01-23T14:37:11-05:00*
G04 #@! TF.ProjectId,Project 23,50726F6A6563742032332E6B69636164,V 0.7*
G04 #@! TF.SameCoordinates,Original*
G04 #@! TF.FileFunction,Legend,Bot*
G04 #@! TF.FilePolarity,Positive*
%FSLAX46Y46*%
G04 Gerber Fmt 4.6, Leading zero omitted, Abs format (unit mm)*
G04 Created by KiCad (PCBNEW (5.0.0)) date 01/23/19 14:37:11*
%MOMM*%
%LPD*%
G01*
G04 APERTURE LIST*
%ADD10C,0.100000*%
%ADD11C,0.300000*%
%ADD12C,0.120000*%
%ADD13C,0.010000*%
G04 APERTURE END LIST*
D10*
X55500000Y-51050000D02*
X50000000Y-51050000D01*
X55500000Y-58950000D02*
X55500000Y-51050000D01*
X50000000Y-58950000D02*
X55500000Y-58950000D01*
D11*
X109610000Y-69978571D02*
X109610000Y-68478571D01*
X109038571Y-68478571D01*
X108895714Y-68550000D01*
X108824285Y-68621428D01*
X108752857Y-68764285D01*
X108752857Y-68978571D01*
X108824285Y-69121428D01*
X108895714Y-69192857D01*
X109038571Y-69264285D01*
X109610000Y-69264285D01*
X108110000Y-69978571D02*
X108110000Y-68978571D01*
X108110000Y-69264285D02*
X108038571Y-69121428D01*
X107967142Y-69050000D01*
X107824285Y-68978571D01*
X107681428Y-68978571D01*
X106967142Y-69978571D02*
X107110000Y-69907142D01*
X107181428Y-69835714D01*
X107252857Y-69692857D01*
X107252857Y-69264285D01*
X107181428Y-69121428D01*
X107110000Y-69050000D01*
X106967142Y-68978571D01*
X106752857Y-68978571D01*
X106610000Y-69050000D01*
X106538571Y-69121428D01*
X106467142Y-69264285D01*
X106467142Y-69692857D01*
X106538571Y-69835714D01*
X106610000Y-69907142D01*
X106752857Y-69978571D01*
X106967142Y-69978571D01*
X105824285Y-68978571D02*
X105824285Y-70264285D01*
X105895714Y-70407142D01*
X106038571Y-70478571D01*
X106110000Y-70478571D01*
X105824285Y-68478571D02*
X105895714Y-68550000D01*
X105824285Y-68621428D01*
X105752857Y-68550000D01*
X105824285Y-68478571D01*
X105824285Y-68621428D01*
X104538571Y-69907142D02*
X104681428Y-69978571D01*
X104967142Y-69978571D01*
X105110000Y-69907142D01*
X105181428Y-69764285D01*
X105181428Y-69192857D01*
X105110000Y-69050000D01*
X104967142Y-68978571D01*
X104681428Y-68978571D01*
X104538571Y-69050000D01*
X104467142Y-69192857D01*
X104467142Y-69335714D01*
X105181428Y-69478571D01*
X103181428Y-69907142D02*
X103324285Y-69978571D01*
X103610000Y-69978571D01*
X103752857Y-69907142D01*
X103824285Y-69835714D01*
X103895714Y-69692857D01*
X103895714Y-69264285D01*
X103824285Y-69121428D01*
X103752857Y-69050000D01*
X103610000Y-68978571D01*
X103324285Y-68978571D01*
X103181428Y-69050000D01*
X102752857Y-68978571D02*
X102181428Y-68978571D01*
X102538571Y-68478571D02*
X102538571Y-69764285D01*
X102467142Y-69907142D01*
X102324285Y-69978571D01*
X102181428Y-69978571D01*
X100610000Y-68621428D02*
X100538571Y-68550000D01*
X100395714Y-68478571D01*
X100038571Y-68478571D01*
X99895714Y-68550000D01*
X99824285Y-68621428D01*
X99752857Y-68764285D01*
X99752857Y-68907142D01*
X99824285Y-69121428D01*
X100681428Y-69978571D01*
X99752857Y-69978571D01*
X99252857Y-68478571D02*
X98324285Y-68478571D01*
X98824285Y-69050000D01*
X98610000Y-69050000D01*
X98467142Y-69121428D01*
X98395714Y-69192857D01*
X98324285Y-69335714D01*
X98324285Y-69692857D01*
X98395714Y-69835714D01*
X98467142Y-69907142D01*
X98610000Y-69978571D01*
X99038571Y-69978571D01*
X99181428Y-69907142D01*
X99252857Y-69835714D01*
X96538571Y-69978571D02*
X96538571Y-68478571D01*
X96538571Y-69192857D02*
X95681428Y-69192857D01*
X95681428Y-69978571D02*
X95681428Y-68478571D01*
X95110000Y-68478571D02*
X94752857Y-69978571D01*
X94467142Y-68907142D01*
X94181428Y-69978571D01*
X93824285Y-68478571D01*
X92252857Y-68978571D02*
X91895714Y-69978571D01*
X91538571Y-68978571D01*
X90681428Y-68478571D02*
X90538571Y-68478571D01*
X90395714Y-68550000D01*
X90324285Y-68621428D01*
X90252857Y-68764285D01*
X90181428Y-69050000D01*
X90181428Y-69407142D01*
X90252857Y-69692857D01*
X90324285Y-69835714D01*
X90395714Y-69907142D01*
X90538571Y-69978571D01*
X90681428Y-69978571D01*
X90824285Y-69907142D01*
X90895714Y-69835714D01*
X90967142Y-69692857D01*
X91038571Y-69407142D01*
X91038571Y-69050000D01*
X90967142Y-68764285D01*
X90895714Y-68621428D01*
X90824285Y-68550000D01*
X90681428Y-68478571D01*
X89538571Y-69835714D02*
X89467142Y-69907142D01*
X89538571Y-69978571D01*
X89610000Y-69907142D01*
X89538571Y-69835714D01*
X89538571Y-69978571D01*
X88967142Y-68478571D02*
X87967142Y-68478571D01*
X88610000Y-69978571D01*
X108844285Y-49550000D02*
X108987142Y-49478571D01*
X109201428Y-49478571D01*
X109415714Y-49550000D01*
X109558571Y-49692857D01*
X109630000Y-49835714D01*
X109701428Y-50121428D01*
X109701428Y-50335714D01*
X109630000Y-50621428D01*
X109558571Y-50764285D01*
X109415714Y-50907142D01*
X109201428Y-50978571D01*
X109058571Y-50978571D01*
X108844285Y-50907142D01*
X108772857Y-50835714D01*
X108772857Y-50335714D01*
X109058571Y-50335714D01*
X107915714Y-50978571D02*
X108058571Y-50907142D01*
X108130000Y-50835714D01*
X108201428Y-50692857D01*
X108201428Y-50264285D01*
X108130000Y-50121428D01*
X108058571Y-50050000D01*
X107915714Y-49978571D01*
X107701428Y-49978571D01*
X107558571Y-50050000D01*
X107487142Y-50121428D01*
X107415714Y-50264285D01*
X107415714Y-50692857D01*
X107487142Y-50835714D01*
X107558571Y-50907142D01*
X107701428Y-50978571D01*
X107915714Y-50978571D01*
X106558571Y-50978571D02*
X106701428Y-50907142D01*
X106772857Y-50764285D01*
X106772857Y-49478571D01*
X105344285Y-50978571D02*
X105344285Y-49478571D01*
X105344285Y-50907142D02*
X105487142Y-50978571D01*
X105772857Y-50978571D01*
X105915714Y-50907142D01*
X105987142Y-50835714D01*
X106058571Y-50692857D01*
X106058571Y-50264285D01*
X105987142Y-50121428D01*
X105915714Y-50050000D01*
X105772857Y-49978571D01*
X105487142Y-49978571D01*
X105344285Y-50050000D01*
X104844285Y-49978571D02*
X104272857Y-49978571D01*
X104629999Y-50978571D02*
X104629999Y-49692857D01*
X104558571Y-49550000D01*
X104415714Y-49478571D01*
X104272857Y-49478571D01*
X103772857Y-50978571D02*
X103772857Y-49978571D01*
X103772857Y-49478571D02*
X103844285Y-49550000D01*
X103772857Y-49621428D01*
X103701428Y-49550000D01*
X103772857Y-49478571D01*
X103772857Y-49621428D01*
X103129999Y-50907142D02*
X102987142Y-50978571D01*
X102701428Y-50978571D01*
X102558571Y-50907142D01*
X102487142Y-50764285D01*
X102487142Y-50692857D01*
X102558571Y-50550000D01*
X102701428Y-50478571D01*
X102915714Y-50478571D01*
X103058571Y-50407142D01*
X103129999Y-50264285D01*
X103129999Y-50192857D01*
X103058571Y-50050000D01*
X102915714Y-49978571D01*
X102701428Y-49978571D01*
X102558571Y-50050000D01*
X101844285Y-50978571D02*
X101844285Y-49478571D01*
X101201428Y-50978571D02*
X101201428Y-50192857D01*
X101272857Y-50050000D01*
X101415714Y-49978571D01*
X101629999Y-49978571D01*
X101772857Y-50050000D01*
X101844285Y-50121428D01*
X99344285Y-50192857D02*
X98844285Y-50192857D01*
X98629999Y-50978571D02*
X99344285Y-50978571D01*
X99344285Y-49478571D01*
X98629999Y-49478571D01*
X97772857Y-50978571D02*
X97915714Y-50907142D01*
X97987142Y-50764285D01*
X97987142Y-49478571D01*
X96629999Y-50907142D02*
X96772857Y-50978571D01*
X97058571Y-50978571D01*
X97201428Y-50907142D01*
X97272857Y-50764285D01*
X97272857Y-50192857D01*
X97201428Y-50050000D01*
X97058571Y-49978571D01*
X96772857Y-49978571D01*
X96629999Y-50050000D01*
X96558571Y-50192857D01*
X96558571Y-50335714D01*
X97272857Y-50478571D01*
X95272857Y-50907142D02*
X95415714Y-50978571D01*
X95701428Y-50978571D01*
X95844285Y-50907142D01*
X95915714Y-50835714D01*
X95987142Y-50692857D01*
X95987142Y-50264285D01*
X95915714Y-50121428D01*
X95844285Y-50050000D01*
X95701428Y-49978571D01*
X95415714Y-49978571D01*
X95272857Y-50050000D01*
X94844285Y-49978571D02*
X94272857Y-49978571D01*
X94629999Y-49478571D02*
X94629999Y-50764285D01*
X94558571Y-50907142D01*
X94415714Y-50978571D01*
X94272857Y-50978571D01*
X93772857Y-50978571D02*
X93772857Y-49978571D01*
X93772857Y-50264285D02*
X93701428Y-50121428D01*
X93629999Y-50050000D01*
X93487142Y-49978571D01*
X93344285Y-49978571D01*
X92629999Y-50978571D02*
X92772857Y-50907142D01*
X92844285Y-50835714D01*
X92915714Y-50692857D01*
X92915714Y-50264285D01*
X92844285Y-50121428D01*
X92772857Y-50050000D01*
X92629999Y-49978571D01*
X92415714Y-49978571D01*
X92272857Y-50050000D01*
X92201428Y-50121428D01*
X92129999Y-50264285D01*
X92129999Y-50692857D01*
X92201428Y-50835714D01*
X92272857Y-50907142D01*
X92415714Y-50978571D01*
X92629999Y-50978571D01*
X91487142Y-49978571D02*
X91487142Y-50978571D01*
X91487142Y-50121428D02*
X91415714Y-50050000D01*
X91272857Y-49978571D01*
X91058571Y-49978571D01*
X90915714Y-50050000D01*
X90844285Y-50192857D01*
X90844285Y-50978571D01*
X90129999Y-50978571D02*
X90129999Y-49978571D01*
X90129999Y-49478571D02*
X90201428Y-49550000D01*
X90129999Y-49621428D01*
X90058571Y-49550000D01*
X90129999Y-49478571D01*
X90129999Y-49621428D01*
X88772857Y-50907142D02*
X88915714Y-50978571D01*
X89201428Y-50978571D01*
X89344285Y-50907142D01*
X89415714Y-50835714D01*
X89487142Y-50692857D01*
X89487142Y-50264285D01*
X89415714Y-50121428D01*
X89344285Y-50050000D01*
X89201428Y-49978571D01*
X88915714Y-49978571D01*
X88772857Y-50050000D01*
X88201428Y-50907142D02*
X88058571Y-50978571D01*
X87772857Y-50978571D01*
X87629999Y-50907142D01*
X87558571Y-50764285D01*
X87558571Y-50692857D01*
X87629999Y-50550000D01*
X87772857Y-50478571D01*
X87987142Y-50478571D01*
X88129999Y-50407142D01*
X88201428Y-50264285D01*
X88201428Y-50192857D01*
X88129999Y-50050000D01*
X87987142Y-49978571D01*
X87772857Y-49978571D01*
X87629999Y-50050000D01*
D10*
X50000000Y-58950000D02*
X50000000Y-82000000D01*
X112000000Y-40000000D02*
X50000000Y-40000000D01*
X112000000Y-82000000D02*
X112000000Y-40000000D01*
X50000000Y-82000000D02*
X112000000Y-82000000D01*
X50000000Y-40000000D02*
X50000000Y-51050000D01*
D12*
G04 #@! TO.C,TP75*
X75400000Y-80250000D02*
G75*
G03X75400000Y-80250000I-1200000J0D01*
G01*
G04 #@! TO.C,TP31*
X80950000Y-80250000D02*
G75*
G03X80950000Y-80250000I-1200000J0D01*
G01*
G04 #@! TO.C,TP32*
X78200000Y-80250000D02*
G75*
G03X78200000Y-80250000I-1200000J0D01*
G01*
G04 #@! TO.C,TP41*
X83700000Y-80250000D02*
G75*
G03X83700000Y-80250000I-1200000J0D01*
G01*
D13*
G04 #@! TO.C,G\002A\002A\002A*
G36*
X100086251Y-55317542D02*
X99873601Y-55318326D01*
X99662696Y-55319625D01*
X99455512Y-55321434D01*
X99254026Y-55323747D01*
X99060217Y-55326558D01*
X98876060Y-55329862D01*
X98703534Y-55333651D01*
X98544614Y-55337922D01*
X98401279Y-55342667D01*
X98275505Y-55347882D01*
X98231360Y-55350056D01*
X97909402Y-55367790D01*
X97607160Y-55386567D01*
X97324679Y-55406383D01*
X97062001Y-55427231D01*
X96819170Y-55449106D01*
X96596230Y-55472001D01*
X96393223Y-55495913D01*
X96210194Y-55520834D01*
X96047185Y-55546759D01*
X95904240Y-55573682D01*
X95781402Y-55601599D01*
X95678716Y-55630503D01*
X95596223Y-55660388D01*
X95533968Y-55691250D01*
X95516100Y-55702894D01*
X95494108Y-55730049D01*
X95487880Y-55766843D01*
X95497728Y-55809719D01*
X95505294Y-55826004D01*
X95513086Y-55845843D01*
X95518069Y-55872079D01*
X95520230Y-55907118D01*
X95519555Y-55953366D01*
X95516032Y-56013229D01*
X95509646Y-56089113D01*
X95503455Y-56153160D01*
X95496365Y-56224220D01*
X95490699Y-56277804D01*
X95485598Y-56316627D01*
X95480206Y-56343403D01*
X95473665Y-56360848D01*
X95465117Y-56371677D01*
X95453705Y-56378605D01*
X95438572Y-56384346D01*
X95429414Y-56387594D01*
X95125155Y-56506925D01*
X94836562Y-56638151D01*
X94562350Y-56781965D01*
X94301233Y-56939061D01*
X94051925Y-57110129D01*
X93959080Y-57179662D01*
X93696059Y-57393392D01*
X93449864Y-57618359D01*
X93220098Y-57855025D01*
X93006361Y-58103848D01*
X92808255Y-58365290D01*
X92625380Y-58639809D01*
X92482336Y-58882478D01*
X92392262Y-59052005D01*
X92311572Y-59220881D01*
X92238642Y-59393226D01*
X92171847Y-59573159D01*
X92109561Y-59764800D01*
X92050159Y-59972270D01*
X92045325Y-59990268D01*
X92013747Y-60115201D01*
X91988016Y-60233459D01*
X91967742Y-60348758D01*
X91952538Y-60464814D01*
X91942015Y-60585345D01*
X91935787Y-60714066D01*
X91933465Y-60854695D01*
X91934662Y-61010948D01*
X91935295Y-61044645D01*
X91939560Y-61187695D01*
X91946573Y-61315696D01*
X91956968Y-61433809D01*
X91971383Y-61547195D01*
X91990452Y-61661015D01*
X92014811Y-61780430D01*
X92038669Y-61884021D01*
X92113190Y-62151646D01*
X92207475Y-62415966D01*
X92321163Y-62676512D01*
X92453896Y-62932814D01*
X92605315Y-63184403D01*
X92775062Y-63430810D01*
X92962778Y-63671565D01*
X93168104Y-63906201D01*
X93390682Y-64134247D01*
X93630153Y-64355234D01*
X93886158Y-64568694D01*
X94158339Y-64774156D01*
X94350240Y-64907560D01*
X94647926Y-65098045D01*
X94957678Y-65277036D01*
X95281155Y-65445397D01*
X95620014Y-65603992D01*
X95965680Y-65749599D01*
X96027719Y-65774846D01*
X96082911Y-65798141D01*
X96128616Y-65818300D01*
X96162196Y-65834141D01*
X96181012Y-65844482D01*
X96184120Y-65847495D01*
X96176690Y-65857303D01*
X96156186Y-65877478D01*
X96125288Y-65905553D01*
X96086679Y-65939062D01*
X96062200Y-65959686D01*
X95975090Y-66035348D01*
X95895248Y-66110677D01*
X95824278Y-66183842D01*
X95763781Y-66253011D01*
X95715361Y-66316352D01*
X95680620Y-66372032D01*
X95661206Y-66418054D01*
X95655194Y-66450325D01*
X95651422Y-66490978D01*
X95650777Y-66512815D01*
X95651636Y-66544569D01*
X95656524Y-66566603D01*
X95668791Y-66586219D01*
X95691787Y-66610714D01*
X95698980Y-66617840D01*
X95769178Y-66677343D01*
X95858553Y-66736729D01*
X95965966Y-66795565D01*
X96090277Y-66853419D01*
X96230347Y-66909858D01*
X96385036Y-66964449D01*
X96553203Y-67016761D01*
X96733710Y-67066360D01*
X96925417Y-67112814D01*
X97103600Y-67150974D01*
X97350322Y-67196602D01*
X97614836Y-67237790D01*
X97895075Y-67274394D01*
X98188969Y-67306271D01*
X98494452Y-67333275D01*
X98809453Y-67355264D01*
X99131905Y-67372091D01*
X99459740Y-67383614D01*
X99790890Y-67389687D01*
X100123285Y-67390166D01*
X100454858Y-67384908D01*
X100456400Y-67384870D01*
X100805259Y-67373249D01*
X101147629Y-67355958D01*
X101482408Y-67333162D01*
X101808494Y-67305026D01*
X102124786Y-67271717D01*
X102430182Y-67233398D01*
X102723580Y-67190235D01*
X103003879Y-67142394D01*
X103269977Y-67090040D01*
X103520772Y-67033338D01*
X103755162Y-66972452D01*
X103972046Y-66907550D01*
X104170322Y-66838795D01*
X104217730Y-66820682D01*
X104290670Y-66790839D01*
X104366373Y-66757370D01*
X104441519Y-66721962D01*
X104512791Y-66686304D01*
X104576867Y-66652085D01*
X104630429Y-66620992D01*
X104670157Y-66594715D01*
X104684541Y-66583253D01*
X104710038Y-66558077D01*
X104723574Y-66535130D01*
X104729973Y-66505194D01*
X104731150Y-66494236D01*
X104729473Y-66446558D01*
X104714949Y-66395569D01*
X104686726Y-66339946D01*
X104643956Y-66278364D01*
X104585789Y-66209498D01*
X104511376Y-66132025D01*
X104477743Y-66099166D01*
X104428307Y-66053083D01*
X104369811Y-66000868D01*
X104309340Y-65948727D01*
X104253979Y-65902869D01*
X104250556Y-65900117D01*
X104194738Y-65854928D01*
X104153654Y-65820597D01*
X104125813Y-65795746D01*
X104109728Y-65778997D01*
X104103907Y-65768973D01*
X104104933Y-65765401D01*
X104115300Y-65760334D01*
X104140817Y-65749117D01*
X104177834Y-65733320D01*
X104222705Y-65714516D01*
X104230840Y-65711138D01*
X104328467Y-65669430D01*
X104437953Y-65620524D01*
X104555899Y-65566088D01*
X104678906Y-65507791D01*
X104803572Y-65447301D01*
X104926499Y-65386287D01*
X105044285Y-65326417D01*
X105153532Y-65269361D01*
X105250840Y-65216786D01*
X105332807Y-65170361D01*
X105333089Y-65170197D01*
X105621685Y-64992658D01*
X105899210Y-64804451D01*
X106164535Y-64606595D01*
X106416526Y-64400114D01*
X106654054Y-64186030D01*
X106875985Y-63965364D01*
X107081189Y-63739139D01*
X107268533Y-63508376D01*
X107436888Y-63274098D01*
X107443861Y-63263695D01*
X107603598Y-63007969D01*
X107743488Y-62748353D01*
X107863726Y-62484320D01*
X107964504Y-62215341D01*
X108046016Y-61940888D01*
X108108456Y-61660434D01*
X108152017Y-61373452D01*
X108158562Y-61314440D01*
X108163376Y-61252649D01*
X108166891Y-61175324D01*
X108169111Y-61087209D01*
X108169346Y-61063153D01*
X105364559Y-61063153D01*
X105359046Y-61113450D01*
X105337519Y-61160263D01*
X105320844Y-61190373D01*
X105319831Y-61208916D01*
X105321106Y-61210881D01*
X105333554Y-61238072D01*
X105339868Y-61276329D01*
X105338805Y-61316996D01*
X105337509Y-61325140D01*
X105321227Y-61364682D01*
X105291169Y-61402191D01*
X105267230Y-61424484D01*
X105247129Y-61436216D01*
X105222367Y-61440746D01*
X105191777Y-61441440D01*
X105131634Y-61441440D01*
X105114852Y-61494780D01*
X105103743Y-61528802D01*
X105093702Y-61557436D01*
X105089424Y-61568440D01*
X105081094Y-61589699D01*
X105069526Y-61621171D01*
X105063000Y-61639560D01*
X105051724Y-61670265D01*
X105042302Y-61693311D01*
X105038699Y-61700520D01*
X105031844Y-61714351D01*
X105019762Y-61741495D01*
X105004895Y-61776446D01*
X105002744Y-61781616D01*
X104944402Y-61908452D01*
X104870690Y-62045362D01*
X104782716Y-62190533D01*
X104681591Y-62342152D01*
X104568424Y-62498406D01*
X104544688Y-62529732D01*
X104496252Y-62589464D01*
X104435112Y-62659000D01*
X104364303Y-62735296D01*
X104286862Y-62815307D01*
X104205825Y-62895987D01*
X104124229Y-62974293D01*
X104045110Y-63047178D01*
X103971504Y-63111599D01*
X103931120Y-63145026D01*
X103859163Y-63201456D01*
X103781609Y-63259557D01*
X103702666Y-63316360D01*
X103626543Y-63368900D01*
X103557446Y-63414209D01*
X103499585Y-63449319D01*
X103499320Y-63449470D01*
X103358915Y-63526958D01*
X103222672Y-63597050D01*
X103092987Y-63658654D01*
X102972253Y-63710677D01*
X102862862Y-63752028D01*
X102777960Y-63778699D01*
X102754899Y-63785096D01*
X102718385Y-63795240D01*
X102674544Y-63807430D01*
X102650960Y-63813991D01*
X102476489Y-63853231D01*
X102290188Y-63877501D01*
X102093974Y-63886800D01*
X101889761Y-63881126D01*
X101679465Y-63860477D01*
X101465000Y-63824851D01*
X101418705Y-63815272D01*
X101365242Y-63803451D01*
X101312917Y-63791235D01*
X101268402Y-63780216D01*
X101242570Y-63773239D01*
X101186170Y-63756843D01*
X101150340Y-63785321D01*
X101059315Y-63850457D01*
X100970283Y-63898865D01*
X100893280Y-63928586D01*
X100857770Y-63939802D01*
X100829584Y-63947835D01*
X100804127Y-63953249D01*
X100776801Y-63956604D01*
X100743012Y-63958462D01*
X100698163Y-63959384D01*
X100637659Y-63959933D01*
X100636633Y-63959941D01*
X100563347Y-63959610D01*
X100504465Y-63957017D01*
X100454153Y-63951708D01*
X100406575Y-63943229D01*
X100397873Y-63941336D01*
X100312890Y-63920477D01*
X100229505Y-63895727D01*
X100143227Y-63865488D01*
X100049566Y-63828161D01*
X99944030Y-63782147D01*
X99919607Y-63771080D01*
X99810208Y-63715416D01*
X99700808Y-63648902D01*
X99594749Y-63574216D01*
X99495369Y-63494033D01*
X99406008Y-63411031D01*
X99330005Y-63327884D01*
X99275690Y-63255000D01*
X99227790Y-63173478D01*
X99185320Y-63084790D01*
X99150879Y-62995244D01*
X99127063Y-62911149D01*
X99120837Y-62878872D01*
X99116470Y-62854534D01*
X99110433Y-62836433D01*
X99099508Y-62820867D01*
X99080480Y-62804138D01*
X99050132Y-62782543D01*
X99018760Y-62761433D01*
X98908682Y-62685708D01*
X98794008Y-62602673D01*
X98671196Y-62509719D01*
X98573414Y-62433345D01*
X98513203Y-62383813D01*
X98443725Y-62323423D01*
X98369448Y-62256293D01*
X98294835Y-62186544D01*
X98224353Y-62118296D01*
X98162467Y-62055667D01*
X98151165Y-62043808D01*
X98043400Y-61929897D01*
X97992726Y-62028568D01*
X97913456Y-62173054D01*
X97827772Y-62309200D01*
X97732972Y-62440622D01*
X97626354Y-62570936D01*
X97505219Y-62703760D01*
X97433892Y-62776726D01*
X97229982Y-62968474D01*
X97013126Y-63148777D01*
X96785698Y-63316057D01*
X96550073Y-63468737D01*
X96308626Y-63605242D01*
X96063731Y-63723994D01*
X95909800Y-63788568D01*
X95821992Y-63820536D01*
X95729830Y-63849419D01*
X95638434Y-63873896D01*
X95552922Y-63892644D01*
X95478414Y-63904343D01*
X95451817Y-63906823D01*
X95380862Y-63909799D01*
X95326198Y-63907314D01*
X95284385Y-63898770D01*
X95251985Y-63883572D01*
X95233353Y-63868925D01*
X95217169Y-63852924D01*
X95207876Y-63838617D01*
X95203979Y-63820141D01*
X95203984Y-63791632D01*
X95205642Y-63760255D01*
X95208147Y-63727893D01*
X95212486Y-63700017D01*
X95220166Y-63672092D01*
X95232697Y-63639584D01*
X95251589Y-63597961D01*
X95277431Y-63544560D01*
X95304121Y-63490789D01*
X95330696Y-63438428D01*
X95354510Y-63392613D01*
X95372917Y-63358483D01*
X95376856Y-63351520D01*
X95421571Y-63273802D01*
X95456826Y-63212322D01*
X95483373Y-63165751D01*
X95501965Y-63132759D01*
X95513355Y-63112017D01*
X95518296Y-63102195D01*
X95518640Y-63101087D01*
X95509161Y-63099659D01*
X95483445Y-63098504D01*
X95445575Y-63097749D01*
X95405876Y-63097520D01*
X95334850Y-63095327D01*
X95281642Y-63087650D01*
X95244119Y-63072836D01*
X95220143Y-63049235D01*
X95207580Y-63015197D01*
X95204294Y-62969070D01*
X95205360Y-62942521D01*
X95208206Y-62915146D01*
X95214021Y-62887998D01*
X95224225Y-62857164D01*
X95240237Y-62818735D01*
X95263474Y-62768800D01*
X95282897Y-62728784D01*
X95313760Y-62667079D01*
X95347679Y-62601384D01*
X95381098Y-62538459D01*
X95410464Y-62485065D01*
X95418112Y-62471637D01*
X95441541Y-62430260D01*
X95460300Y-62395772D01*
X95472548Y-62371660D01*
X95476443Y-62361409D01*
X95476385Y-62361322D01*
X95465471Y-62361379D01*
X95439465Y-62364281D01*
X95403302Y-62369446D01*
X95390415Y-62371477D01*
X95319174Y-62378664D01*
X95263700Y-62374829D01*
X95224621Y-62360032D01*
X95218632Y-62355600D01*
X95208156Y-62335490D01*
X95203756Y-62299742D01*
X95203680Y-62293466D01*
X95205562Y-62267098D01*
X95212276Y-62239099D01*
X95225431Y-62204882D01*
X95246633Y-62159861D01*
X95259312Y-62134690D01*
X95284400Y-62086046D01*
X95309382Y-62038523D01*
X95331050Y-61998175D01*
X95344010Y-61974840D01*
X95386524Y-61900246D01*
X95421086Y-61838805D01*
X95450046Y-61786154D01*
X95475754Y-61737931D01*
X95500563Y-61689775D01*
X95526822Y-61637322D01*
X95536804Y-61617113D01*
X95596587Y-61490013D01*
X95644865Y-61373503D01*
X95683184Y-61262602D01*
X95713090Y-61152323D01*
X95736127Y-61037683D01*
X95753178Y-60919206D01*
X95758638Y-60811009D01*
X95750844Y-60690559D01*
X95730344Y-60560520D01*
X95697684Y-60423554D01*
X95653413Y-60282323D01*
X95598078Y-60139490D01*
X95588112Y-60116385D01*
X95569673Y-60075244D01*
X95549971Y-60033545D01*
X95527704Y-59988824D01*
X95501567Y-59938623D01*
X95470260Y-59880479D01*
X95432479Y-59811933D01*
X95386922Y-59730523D01*
X95338095Y-59644044D01*
X95295085Y-59566996D01*
X95261836Y-59504592D01*
X95237257Y-59454295D01*
X95220256Y-59413569D01*
X95209745Y-59379877D01*
X95204632Y-59350682D01*
X95203680Y-59331344D01*
X95205214Y-59297990D01*
X95211152Y-59278734D01*
X95223505Y-59267491D01*
X95225050Y-59266638D01*
X95244623Y-59262161D01*
X95278791Y-59259780D01*
X95321952Y-59259354D01*
X95368503Y-59260745D01*
X95412844Y-59263815D01*
X95449372Y-59268422D01*
X95467840Y-59272664D01*
X95484801Y-59276883D01*
X95485866Y-59271967D01*
X95481900Y-59266421D01*
X95470513Y-59249325D01*
X95454303Y-59222103D01*
X95445375Y-59206240D01*
X95429337Y-59177346D01*
X95406890Y-59137194D01*
X95381632Y-59092211D01*
X95367322Y-59066812D01*
X95339555Y-59015971D01*
X95308120Y-58955884D01*
X95277797Y-58895786D01*
X95262506Y-58864357D01*
X95238601Y-58812545D01*
X95222722Y-58772637D01*
X95213039Y-58738766D01*
X95207722Y-58705066D01*
X95205888Y-58682837D01*
X95204665Y-58633873D01*
X95210005Y-58599794D01*
X95224244Y-58575611D01*
X95249716Y-58556334D01*
X95270074Y-58545669D01*
X95294546Y-58535114D01*
X95318405Y-58528842D01*
X95347500Y-58526123D01*
X95387683Y-58526226D01*
X95417566Y-58527258D01*
X95460077Y-58528737D01*
X95493771Y-58529473D01*
X95514343Y-58529399D01*
X95518640Y-58528866D01*
X95513919Y-58519551D01*
X95501672Y-58497890D01*
X95488160Y-58474719D01*
X95471885Y-58446527D01*
X95460826Y-58426241D01*
X95457681Y-58419232D01*
X95452851Y-58409406D01*
X95439912Y-58386257D01*
X95421189Y-58353896D01*
X95410569Y-58335859D01*
X95343684Y-58219083D01*
X95290005Y-58116780D01*
X95249296Y-58028187D01*
X95221318Y-57952540D01*
X95205834Y-57889077D01*
X95202607Y-57837033D01*
X95211399Y-57795645D01*
X95231972Y-57764150D01*
X95232509Y-57763608D01*
X95268035Y-57741357D01*
X95319508Y-57728071D01*
X95384807Y-57723410D01*
X95461815Y-57727034D01*
X95548415Y-57738601D01*
X95642487Y-57757771D01*
X95741914Y-57784204D01*
X95844577Y-57817558D01*
X95948358Y-57857493D01*
X96024378Y-57890965D01*
X96054110Y-57904410D01*
X96075757Y-57913470D01*
X96083310Y-57915919D01*
X96094424Y-57920277D01*
X96119974Y-57932142D01*
X96156339Y-57949709D01*
X96199896Y-57971167D01*
X96247025Y-57994709D01*
X96294103Y-58018526D01*
X96337508Y-58040810D01*
X96373619Y-58059752D01*
X96397480Y-58072785D01*
X96630385Y-58212804D01*
X96851534Y-58361349D01*
X97059533Y-58517245D01*
X97252991Y-58679318D01*
X97430514Y-58846393D01*
X97590710Y-59017296D01*
X97732187Y-59190852D01*
X97747484Y-59211320D01*
X97800586Y-59283790D01*
X97843718Y-59344681D01*
X97879593Y-59398290D01*
X97910923Y-59448915D01*
X97940420Y-59500852D01*
X97970795Y-59558401D01*
X97988407Y-59593103D01*
X98009138Y-59633482D01*
X98026548Y-59665754D01*
X98038699Y-59686438D01*
X98043557Y-59692256D01*
X98051493Y-59684484D01*
X98071923Y-59664418D01*
X98102854Y-59634017D01*
X98142297Y-59595237D01*
X98188258Y-59550037D01*
X98228160Y-59510789D01*
X98290351Y-59449812D01*
X98341646Y-59400132D01*
X98385478Y-59358638D01*
X98425279Y-59322220D01*
X98464483Y-59287767D01*
X98506521Y-59252167D01*
X98554827Y-59212310D01*
X98581880Y-59190239D01*
X98624062Y-59156724D01*
X98677292Y-59115652D01*
X98737151Y-59070317D01*
X98799218Y-59024014D01*
X98859072Y-58980040D01*
X98912292Y-58941688D01*
X98954459Y-58912255D01*
X98958233Y-58909702D01*
X99023322Y-58865880D01*
X99070792Y-58743960D01*
X99121383Y-58624377D01*
X99176026Y-58517291D01*
X99238277Y-58416890D01*
X99311689Y-58317362D01*
X99385806Y-58228782D01*
X99419259Y-58193171D01*
X99463162Y-58150109D01*
X99513257Y-58103419D01*
X99565287Y-58056922D01*
X99614996Y-58014441D01*
X99658128Y-57979798D01*
X99684240Y-57960826D01*
X99714259Y-57940364D01*
X99749689Y-57915768D01*
X99765520Y-57904632D01*
X99872442Y-57833968D01*
X99993534Y-57762582D01*
X100124955Y-57692213D01*
X100262866Y-57624603D01*
X100403429Y-57561490D01*
X100542803Y-57504615D01*
X100677150Y-57455718D01*
X100802629Y-57416538D01*
X100893280Y-57393532D01*
X100939092Y-57383186D01*
X100987158Y-57372080D01*
X101015200Y-57365452D01*
X101052375Y-57359558D01*
X101105436Y-57355212D01*
X101170225Y-57352382D01*
X101242585Y-57351034D01*
X101318360Y-57351135D01*
X101393392Y-57352653D01*
X101463524Y-57355556D01*
X101524599Y-57359809D01*
X101572460Y-57365380D01*
X101595872Y-57370046D01*
X101716081Y-57406319D01*
X101821061Y-57447959D01*
X101915727Y-57497667D01*
X102004994Y-57558139D01*
X102093776Y-57632077D01*
X102123958Y-57660036D01*
X102211636Y-57743097D01*
X102311918Y-57753309D01*
X102494696Y-57780481D01*
X102684123Y-57825039D01*
X102877895Y-57886129D01*
X103073707Y-57962895D01*
X103269252Y-58054484D01*
X103462226Y-58160041D01*
X103545040Y-58210263D01*
X103589525Y-58239179D01*
X103645495Y-58277224D01*
X103708337Y-58321134D01*
X103773435Y-58367639D01*
X103836177Y-58413474D01*
X103891948Y-58455370D01*
X103900947Y-58462285D01*
X104014113Y-58554847D01*
X104132222Y-58661022D01*
X104251382Y-58776774D01*
X104367701Y-58898070D01*
X104477285Y-59020875D01*
X104576243Y-59141154D01*
X104647400Y-59236010D01*
X104664264Y-59260152D01*
X104687542Y-59294091D01*
X104714336Y-59333529D01*
X104741750Y-59374168D01*
X104766887Y-59411712D01*
X104786849Y-59441863D01*
X104798741Y-59460325D01*
X104799800Y-59462074D01*
X104871372Y-59586480D01*
X104930466Y-59696554D01*
X104977707Y-59793494D01*
X105002919Y-59851400D01*
X105017974Y-59887078D01*
X105030744Y-59915699D01*
X105038759Y-59931749D01*
X105039361Y-59932680D01*
X105046566Y-59948168D01*
X105058254Y-59979158D01*
X105073133Y-60021670D01*
X105089908Y-60071724D01*
X105107289Y-60125340D01*
X105123982Y-60178538D01*
X105138695Y-60227337D01*
X105150135Y-60267759D01*
X105156495Y-60293360D01*
X105166502Y-60340002D01*
X105177880Y-60393288D01*
X105186075Y-60431829D01*
X105194630Y-60481565D01*
X105202773Y-60545901D01*
X105210003Y-60619114D01*
X105215820Y-60695485D01*
X105219723Y-60769292D01*
X105221210Y-60833572D01*
X105221440Y-60911505D01*
X105251443Y-60918095D01*
X105297016Y-60937551D01*
X105332053Y-60971009D01*
X105355064Y-61014275D01*
X105364559Y-61063153D01*
X108169346Y-61063153D01*
X108170034Y-60993045D01*
X108169664Y-60897578D01*
X108168000Y-60805551D01*
X108165045Y-60721707D01*
X108160799Y-60650791D01*
X108158387Y-60623560D01*
X108120373Y-60348650D01*
X108062451Y-60075311D01*
X107985014Y-59804168D01*
X107888451Y-59535848D01*
X107773154Y-59270980D01*
X107639514Y-59010190D01*
X107487922Y-58754106D01*
X107318769Y-58503354D01*
X107132445Y-58258561D01*
X106929343Y-58020356D01*
X106709852Y-57789364D01*
X106474364Y-57566214D01*
X106223270Y-57351532D01*
X106019000Y-57191988D01*
X105729030Y-56986271D01*
X105432409Y-56799559D01*
X105129398Y-56632005D01*
X104884104Y-56512567D01*
X104832691Y-56488919D01*
X104788177Y-56468291D01*
X104787193Y-56467830D01*
X104632160Y-56467830D01*
X104622713Y-56470070D01*
X104597182Y-56471489D01*
X104559785Y-56472147D01*
X104514739Y-56472103D01*
X104466261Y-56471418D01*
X104418570Y-56470151D01*
X104375882Y-56468362D01*
X104342415Y-56466112D01*
X104322386Y-56463459D01*
X104322280Y-56463433D01*
X104304590Y-56456691D01*
X104307113Y-56449863D01*
X104329889Y-56442915D01*
X104352760Y-56438760D01*
X104353638Y-56437411D01*
X104336804Y-56436731D01*
X104304854Y-56436729D01*
X104260384Y-56437411D01*
X104220680Y-56438368D01*
X104129072Y-56440499D01*
X104018454Y-56442429D01*
X103890137Y-56444153D01*
X103745429Y-56445672D01*
X103585640Y-56446981D01*
X103412080Y-56448080D01*
X103226059Y-56448965D01*
X103028886Y-56449636D01*
X102821870Y-56450089D01*
X102606322Y-56450322D01*
X102383551Y-56450333D01*
X102154865Y-56450120D01*
X101921576Y-56449682D01*
X101684993Y-56449014D01*
X101446425Y-56448117D01*
X101207181Y-56446986D01*
X100968572Y-56445620D01*
X100751040Y-56444157D01*
X100538548Y-56442633D01*
X100308812Y-56441008D01*
X100064910Y-56439302D01*
X99809918Y-56437536D01*
X99546912Y-56435731D01*
X99278969Y-56433908D01*
X99009166Y-56432087D01*
X98740579Y-56430289D01*
X98476284Y-56428535D01*
X98219359Y-56426846D01*
X97972880Y-56425243D01*
X97739923Y-56423745D01*
X97523564Y-56422375D01*
X97520160Y-56422353D01*
X97336935Y-56421171D01*
X97157565Y-56419952D01*
X96983262Y-56418706D01*
X96815242Y-56417445D01*
X96654718Y-56416179D01*
X96502904Y-56414921D01*
X96361015Y-56413680D01*
X96230263Y-56412469D01*
X96111863Y-56411298D01*
X96007028Y-56410179D01*
X95916974Y-56409121D01*
X95842913Y-56408138D01*
X95786059Y-56407238D01*
X95747627Y-56406435D01*
X95734538Y-56406029D01*
X95579595Y-56399940D01*
X95605366Y-56369312D01*
X95630260Y-56337019D01*
X95647379Y-56306293D01*
X95658363Y-56271806D01*
X95664853Y-56228227D01*
X95668490Y-56170227D01*
X95668764Y-56163320D01*
X95669557Y-56090154D01*
X95665382Y-56030554D01*
X95656801Y-55982349D01*
X95646875Y-55938712D01*
X95641905Y-55911917D01*
X95641789Y-55899124D01*
X95646426Y-55897495D01*
X95653951Y-55902704D01*
X95673221Y-55911944D01*
X95710085Y-55923375D01*
X95761991Y-55936523D01*
X95826389Y-55950916D01*
X95900726Y-55966080D01*
X95982452Y-55981542D01*
X96069015Y-55996830D01*
X96157865Y-56011469D01*
X96246450Y-56024988D01*
X96332219Y-56036912D01*
X96412621Y-56046768D01*
X96455084Y-56051281D01*
X96546799Y-56059712D01*
X96657385Y-56068712D01*
X96785404Y-56078192D01*
X96929416Y-56088067D01*
X97087984Y-56098251D01*
X97259669Y-56108656D01*
X97443033Y-56119196D01*
X97636637Y-56129784D01*
X97839043Y-56140335D01*
X98048811Y-56150760D01*
X98264505Y-56160974D01*
X98317720Y-56163417D01*
X98465665Y-56169454D01*
X98630769Y-56174903D01*
X98810923Y-56179760D01*
X99004014Y-56184019D01*
X99207932Y-56187673D01*
X99420566Y-56190717D01*
X99639804Y-56193145D01*
X99863536Y-56194951D01*
X100089650Y-56196130D01*
X100316034Y-56196676D01*
X100540579Y-56196582D01*
X100761172Y-56195843D01*
X100975702Y-56194453D01*
X101182059Y-56192406D01*
X101378131Y-56189697D01*
X101561807Y-56186319D01*
X101730975Y-56182267D01*
X101883526Y-56177535D01*
X101985480Y-56173549D01*
X102279639Y-56160174D01*
X102554156Y-56146374D01*
X102809708Y-56132084D01*
X103046971Y-56117237D01*
X103266621Y-56101766D01*
X103469333Y-56085606D01*
X103655784Y-56068689D01*
X103826649Y-56050950D01*
X103982604Y-56032322D01*
X104124326Y-56012739D01*
X104252489Y-55992134D01*
X104367770Y-55970441D01*
X104470845Y-55947594D01*
X104562390Y-55923526D01*
X104577632Y-55919078D01*
X104599303Y-55912651D01*
X104580264Y-55992265D01*
X104559894Y-56099113D01*
X104553354Y-56193757D01*
X104560802Y-56279019D01*
X104582391Y-56357724D01*
X104602877Y-56404330D01*
X104617997Y-56435121D01*
X104628573Y-56458142D01*
X104632160Y-56467830D01*
X104787193Y-56467830D01*
X104753655Y-56452127D01*
X104732217Y-56441873D01*
X104726588Y-56438933D01*
X104725484Y-56428498D01*
X104723720Y-56400430D01*
X104721431Y-56357402D01*
X104718752Y-56302088D01*
X104715819Y-56237158D01*
X104712826Y-56166748D01*
X104701707Y-55897206D01*
X104727894Y-55834989D01*
X104741439Y-55800140D01*
X104750650Y-55771484D01*
X104642320Y-55771484D01*
X104628647Y-55776473D01*
X104598196Y-55785871D01*
X104553833Y-55798887D01*
X104498422Y-55814726D01*
X104434829Y-55832595D01*
X104365918Y-55851701D01*
X104294554Y-55871250D01*
X104223602Y-55890449D01*
X104155928Y-55908505D01*
X104094396Y-55924623D01*
X104041871Y-55938012D01*
X104033098Y-55940194D01*
X103929792Y-55963201D01*
X103822803Y-55981644D01*
X103706325Y-55996405D01*
X103595840Y-56006692D01*
X103535551Y-56010586D01*
X103454951Y-56014172D01*
X103354051Y-56017449D01*
X103232858Y-56020418D01*
X103091381Y-56023079D01*
X102929628Y-56025431D01*
X102747608Y-56027475D01*
X102545328Y-56029210D01*
X102322797Y-56030637D01*
X102080024Y-56031755D01*
X101817017Y-56032565D01*
X101533783Y-56033066D01*
X101230333Y-56033258D01*
X100906673Y-56033142D01*
X100562813Y-56032717D01*
X100198760Y-56031983D01*
X99814523Y-56030940D01*
X99410110Y-56029589D01*
X98985530Y-56027929D01*
X98612360Y-56026291D01*
X98370442Y-56025190D01*
X98147807Y-56024162D01*
X97943422Y-56023149D01*
X97756251Y-56022089D01*
X97585258Y-56020925D01*
X97429410Y-56019597D01*
X97287669Y-56018045D01*
X97159002Y-56016210D01*
X97042374Y-56014032D01*
X96936748Y-56011453D01*
X96841090Y-56008413D01*
X96754365Y-56004853D01*
X96675537Y-56000712D01*
X96603571Y-55995932D01*
X96537433Y-55990454D01*
X96476086Y-55984218D01*
X96418496Y-55977165D01*
X96363628Y-55969235D01*
X96310446Y-55960368D01*
X96257916Y-55950507D01*
X96205001Y-55939591D01*
X96150667Y-55927560D01*
X96093879Y-55914356D01*
X96033602Y-55899919D01*
X95968799Y-55884190D01*
X95917565Y-55871743D01*
X95836866Y-55852013D01*
X95762782Y-55833590D01*
X95697546Y-55817051D01*
X95643387Y-55802977D01*
X95602539Y-55791946D01*
X95577231Y-55784537D01*
X95569585Y-55781454D01*
X95579678Y-55779914D01*
X95609912Y-55778434D01*
X95660110Y-55777015D01*
X95730094Y-55775656D01*
X95819687Y-55774360D01*
X95928711Y-55773126D01*
X96056987Y-55771955D01*
X96204338Y-55770848D01*
X96370586Y-55769806D01*
X96555553Y-55768828D01*
X96759061Y-55767916D01*
X96980933Y-55767070D01*
X97220990Y-55766291D01*
X97479054Y-55765580D01*
X97754948Y-55764936D01*
X98048494Y-55764362D01*
X98359514Y-55763857D01*
X98687830Y-55763421D01*
X99033265Y-55763057D01*
X99395639Y-55762763D01*
X99774777Y-55762541D01*
X100170498Y-55762392D01*
X100582627Y-55762316D01*
X101010984Y-55762314D01*
X101020280Y-55762315D01*
X101306692Y-55762363D01*
X101585692Y-55762459D01*
X101856652Y-55762600D01*
X102118941Y-55762785D01*
X102371928Y-55763013D01*
X102614985Y-55763282D01*
X102847480Y-55763591D01*
X103068783Y-55763937D01*
X103278264Y-55764319D01*
X103475293Y-55764736D01*
X103659240Y-55765185D01*
X103829474Y-55765666D01*
X103985365Y-55766177D01*
X104126284Y-55766716D01*
X104251599Y-55767281D01*
X104360681Y-55767872D01*
X104452900Y-55768486D01*
X104527625Y-55769121D01*
X104584225Y-55769777D01*
X104622072Y-55770452D01*
X104640534Y-55771143D01*
X104642320Y-55771484D01*
X104750650Y-55771484D01*
X104750900Y-55770707D01*
X104754080Y-55754406D01*
X104743934Y-55722155D01*
X104713509Y-55690801D01*
X104662827Y-55660350D01*
X104591911Y-55630810D01*
X104500783Y-55602189D01*
X104389464Y-55574493D01*
X104257977Y-55547729D01*
X104106343Y-55521905D01*
X103987000Y-55504220D01*
X103844461Y-55485043D01*
X103699191Y-55467195D01*
X103549509Y-55450544D01*
X103393732Y-55434958D01*
X103230176Y-55420307D01*
X103057159Y-55406460D01*
X102872998Y-55393284D01*
X102676010Y-55380648D01*
X102464513Y-55368422D01*
X102236824Y-55356474D01*
X101991260Y-55344673D01*
X101873720Y-55339342D01*
X101752369Y-55334650D01*
X101612991Y-55330532D01*
X101457563Y-55326981D01*
X101288063Y-55323993D01*
X101106466Y-55321561D01*
X100914752Y-55319680D01*
X100714896Y-55318343D01*
X100508875Y-55317545D01*
X100298668Y-55317280D01*
X100086251Y-55317542D01*
X100086251Y-55317542D01*
G37*
X100086251Y-55317542D02*
X99873601Y-55318326D01*
X99662696Y-55319625D01*
X99455512Y-55321434D01*
X99254026Y-55323747D01*
X99060217Y-55326558D01*
X98876060Y-55329862D01*
X98703534Y-55333651D01*
X98544614Y-55337922D01*
X98401279Y-55342667D01*
X98275505Y-55347882D01*
X98231360Y-55350056D01*
X97909402Y-55367790D01*
X97607160Y-55386567D01*
X97324679Y-55406383D01*
X97062001Y-55427231D01*
X96819170Y-55449106D01*
X96596230Y-55472001D01*
X96393223Y-55495913D01*
X96210194Y-55520834D01*
X96047185Y-55546759D01*
X95904240Y-55573682D01*
X95781402Y-55601599D01*
X95678716Y-55630503D01*
X95596223Y-55660388D01*
X95533968Y-55691250D01*
X95516100Y-55702894D01*
X95494108Y-55730049D01*
X95487880Y-55766843D01*
X95497728Y-55809719D01*
X95505294Y-55826004D01*
X95513086Y-55845843D01*
X95518069Y-55872079D01*
X95520230Y-55907118D01*
X95519555Y-55953366D01*
X95516032Y-56013229D01*
X95509646Y-56089113D01*
X95503455Y-56153160D01*
X95496365Y-56224220D01*
X95490699Y-56277804D01*
X95485598Y-56316627D01*
X95480206Y-56343403D01*
X95473665Y-56360848D01*
X95465117Y-56371677D01*
X95453705Y-56378605D01*
X95438572Y-56384346D01*
X95429414Y-56387594D01*
X95125155Y-56506925D01*
X94836562Y-56638151D01*
X94562350Y-56781965D01*
X94301233Y-56939061D01*
X94051925Y-57110129D01*
X93959080Y-57179662D01*
X93696059Y-57393392D01*
X93449864Y-57618359D01*
X93220098Y-57855025D01*
X93006361Y-58103848D01*
X92808255Y-58365290D01*
X92625380Y-58639809D01*
X92482336Y-58882478D01*
X92392262Y-59052005D01*
X92311572Y-59220881D01*
X92238642Y-59393226D01*
X92171847Y-59573159D01*
X92109561Y-59764800D01*
X92050159Y-59972270D01*
X92045325Y-59990268D01*
X92013747Y-60115201D01*
X91988016Y-60233459D01*
X91967742Y-60348758D01*
X91952538Y-60464814D01*
X91942015Y-60585345D01*
X91935787Y-60714066D01*
X91933465Y-60854695D01*
X91934662Y-61010948D01*
X91935295Y-61044645D01*
X91939560Y-61187695D01*
X91946573Y-61315696D01*
X91956968Y-61433809D01*
X91971383Y-61547195D01*
X91990452Y-61661015D01*
X92014811Y-61780430D01*
X92038669Y-61884021D01*
X92113190Y-62151646D01*
X92207475Y-62415966D01*
X92321163Y-62676512D01*
X92453896Y-62932814D01*
X92605315Y-63184403D01*
X92775062Y-63430810D01*
X92962778Y-63671565D01*
X93168104Y-63906201D01*
X93390682Y-64134247D01*
X93630153Y-64355234D01*
X93886158Y-64568694D01*
X94158339Y-64774156D01*
X94350240Y-64907560D01*
X94647926Y-65098045D01*
X94957678Y-65277036D01*
X95281155Y-65445397D01*
X95620014Y-65603992D01*
X95965680Y-65749599D01*
X96027719Y-65774846D01*
X96082911Y-65798141D01*
X96128616Y-65818300D01*
X96162196Y-65834141D01*
X96181012Y-65844482D01*
X96184120Y-65847495D01*
X96176690Y-65857303D01*
X96156186Y-65877478D01*
X96125288Y-65905553D01*
X96086679Y-65939062D01*
X96062200Y-65959686D01*
X95975090Y-66035348D01*
X95895248Y-66110677D01*
X95824278Y-66183842D01*
X95763781Y-66253011D01*
X95715361Y-66316352D01*
X95680620Y-66372032D01*
X95661206Y-66418054D01*
X95655194Y-66450325D01*
X95651422Y-66490978D01*
X95650777Y-66512815D01*
X95651636Y-66544569D01*
X95656524Y-66566603D01*
X95668791Y-66586219D01*
X95691787Y-66610714D01*
X95698980Y-66617840D01*
X95769178Y-66677343D01*
X95858553Y-66736729D01*
X95965966Y-66795565D01*
X96090277Y-66853419D01*
X96230347Y-66909858D01*
X96385036Y-66964449D01*
X96553203Y-67016761D01*
X96733710Y-67066360D01*
X96925417Y-67112814D01*
X97103600Y-67150974D01*
X97350322Y-67196602D01*
X97614836Y-67237790D01*
X97895075Y-67274394D01*
X98188969Y-67306271D01*
X98494452Y-67333275D01*
X98809453Y-67355264D01*
X99131905Y-67372091D01*
X99459740Y-67383614D01*
X99790890Y-67389687D01*
X100123285Y-67390166D01*
X100454858Y-67384908D01*
X100456400Y-67384870D01*
X100805259Y-67373249D01*
X101147629Y-67355958D01*
X101482408Y-67333162D01*
X101808494Y-67305026D01*
X102124786Y-67271717D01*
X102430182Y-67233398D01*
X102723580Y-67190235D01*
X103003879Y-67142394D01*
X103269977Y-67090040D01*
X103520772Y-67033338D01*
X103755162Y-66972452D01*
X103972046Y-66907550D01*
X104170322Y-66838795D01*
X104217730Y-66820682D01*
X104290670Y-66790839D01*
X104366373Y-66757370D01*
X104441519Y-66721962D01*
X104512791Y-66686304D01*
X104576867Y-66652085D01*
X104630429Y-66620992D01*
X104670157Y-66594715D01*
X104684541Y-66583253D01*
X104710038Y-66558077D01*
X104723574Y-66535130D01*
X104729973Y-66505194D01*
X104731150Y-66494236D01*
X104729473Y-66446558D01*
X104714949Y-66395569D01*
X104686726Y-66339946D01*
X104643956Y-66278364D01*
X104585789Y-66209498D01*
X104511376Y-66132025D01*
X104477743Y-66099166D01*
X104428307Y-66053083D01*
X104369811Y-66000868D01*
X104309340Y-65948727D01*
X104253979Y-65902869D01*
X104250556Y-65900117D01*
X104194738Y-65854928D01*
X104153654Y-65820597D01*
X104125813Y-65795746D01*
X104109728Y-65778997D01*
X104103907Y-65768973D01*
X104104933Y-65765401D01*
X104115300Y-65760334D01*
X104140817Y-65749117D01*
X104177834Y-65733320D01*
X104222705Y-65714516D01*
X104230840Y-65711138D01*
X104328467Y-65669430D01*
X104437953Y-65620524D01*
X104555899Y-65566088D01*
X104678906Y-65507791D01*
X104803572Y-65447301D01*
X104926499Y-65386287D01*
X105044285Y-65326417D01*
X105153532Y-65269361D01*
X105250840Y-65216786D01*
X105332807Y-65170361D01*
X105333089Y-65170197D01*
X105621685Y-64992658D01*
X105899210Y-64804451D01*
X106164535Y-64606595D01*
X106416526Y-64400114D01*
X106654054Y-64186030D01*
X106875985Y-63965364D01*
X107081189Y-63739139D01*
X107268533Y-63508376D01*
X107436888Y-63274098D01*
X107443861Y-63263695D01*
X107603598Y-63007969D01*
X107743488Y-62748353D01*
X107863726Y-62484320D01*
X107964504Y-62215341D01*
X108046016Y-61940888D01*
X108108456Y-61660434D01*
X108152017Y-61373452D01*
X108158562Y-61314440D01*
X108163376Y-61252649D01*
X108166891Y-61175324D01*
X108169111Y-61087209D01*
X108169346Y-61063153D01*
X105364559Y-61063153D01*
X105359046Y-61113450D01*
X105337519Y-61160263D01*
X105320844Y-61190373D01*
X105319831Y-61208916D01*
X105321106Y-61210881D01*
X105333554Y-61238072D01*
X105339868Y-61276329D01*
X105338805Y-61316996D01*
X105337509Y-61325140D01*
X105321227Y-61364682D01*
X105291169Y-61402191D01*
X105267230Y-61424484D01*
X105247129Y-61436216D01*
X105222367Y-61440746D01*
X105191777Y-61441440D01*
X105131634Y-61441440D01*
X105114852Y-61494780D01*
X105103743Y-61528802D01*
X105093702Y-61557436D01*
X105089424Y-61568440D01*
X105081094Y-61589699D01*
X105069526Y-61621171D01*
X105063000Y-61639560D01*
X105051724Y-61670265D01*
X105042302Y-61693311D01*
X105038699Y-61700520D01*
X105031844Y-61714351D01*
X105019762Y-61741495D01*
X105004895Y-61776446D01*
X105002744Y-61781616D01*
X104944402Y-61908452D01*
X104870690Y-62045362D01*
X104782716Y-62190533D01*
X104681591Y-62342152D01*
X104568424Y-62498406D01*
X104544688Y-62529732D01*
X104496252Y-62589464D01*
X104435112Y-62659000D01*
X104364303Y-62735296D01*
X104286862Y-62815307D01*
X104205825Y-62895987D01*
X104124229Y-62974293D01*
X104045110Y-63047178D01*
X103971504Y-63111599D01*
X103931120Y-63145026D01*
X103859163Y-63201456D01*
X103781609Y-63259557D01*
X103702666Y-63316360D01*
X103626543Y-63368900D01*
X103557446Y-63414209D01*
X103499585Y-63449319D01*
X103499320Y-63449470D01*
X103358915Y-63526958D01*
X103222672Y-63597050D01*
X103092987Y-63658654D01*
X102972253Y-63710677D01*
X102862862Y-63752028D01*
X102777960Y-63778699D01*
X102754899Y-63785096D01*
X102718385Y-63795240D01*
X102674544Y-63807430D01*
X102650960Y-63813991D01*
X102476489Y-63853231D01*
X102290188Y-63877501D01*
X102093974Y-63886800D01*
X101889761Y-63881126D01*
X101679465Y-63860477D01*
X101465000Y-63824851D01*
X101418705Y-63815272D01*
X101365242Y-63803451D01*
X101312917Y-63791235D01*
X101268402Y-63780216D01*
X101242570Y-63773239D01*
X101186170Y-63756843D01*
X101150340Y-63785321D01*
X101059315Y-63850457D01*
X100970283Y-63898865D01*
X100893280Y-63928586D01*
X100857770Y-63939802D01*
X100829584Y-63947835D01*
X100804127Y-63953249D01*
X100776801Y-63956604D01*
X100743012Y-63958462D01*
X100698163Y-63959384D01*
X100637659Y-63959933D01*
X100636633Y-63959941D01*
X100563347Y-63959610D01*
X100504465Y-63957017D01*
X100454153Y-63951708D01*
X100406575Y-63943229D01*
X100397873Y-63941336D01*
X100312890Y-63920477D01*
X100229505Y-63895727D01*
X100143227Y-63865488D01*
X100049566Y-63828161D01*
X99944030Y-63782147D01*
X99919607Y-63771080D01*
X99810208Y-63715416D01*
X99700808Y-63648902D01*
X99594749Y-63574216D01*
X99495369Y-63494033D01*
X99406008Y-63411031D01*
X99330005Y-63327884D01*
X99275690Y-63255000D01*
X99227790Y-63173478D01*
X99185320Y-63084790D01*
X99150879Y-62995244D01*
X99127063Y-62911149D01*
X99120837Y-62878872D01*
X99116470Y-62854534D01*
X99110433Y-62836433D01*
X99099508Y-62820867D01*
X99080480Y-62804138D01*
X99050132Y-62782543D01*
X99018760Y-62761433D01*
X98908682Y-62685708D01*
X98794008Y-62602673D01*
X98671196Y-62509719D01*
X98573414Y-62433345D01*
X98513203Y-62383813D01*
X98443725Y-62323423D01*
X98369448Y-62256293D01*
X98294835Y-62186544D01*
X98224353Y-62118296D01*
X98162467Y-62055667D01*
X98151165Y-62043808D01*
X98043400Y-61929897D01*
X97992726Y-62028568D01*
X97913456Y-62173054D01*
X97827772Y-62309200D01*
X97732972Y-62440622D01*
X97626354Y-62570936D01*
X97505219Y-62703760D01*
X97433892Y-62776726D01*
X97229982Y-62968474D01*
X97013126Y-63148777D01*
X96785698Y-63316057D01*
X96550073Y-63468737D01*
X96308626Y-63605242D01*
X96063731Y-63723994D01*
X95909800Y-63788568D01*
X95821992Y-63820536D01*
X95729830Y-63849419D01*
X95638434Y-63873896D01*
X95552922Y-63892644D01*
X95478414Y-63904343D01*
X95451817Y-63906823D01*
X95380862Y-63909799D01*
X95326198Y-63907314D01*
X95284385Y-63898770D01*
X95251985Y-63883572D01*
X95233353Y-63868925D01*
X95217169Y-63852924D01*
X95207876Y-63838617D01*
X95203979Y-63820141D01*
X95203984Y-63791632D01*
X95205642Y-63760255D01*
X95208147Y-63727893D01*
X95212486Y-63700017D01*
X95220166Y-63672092D01*
X95232697Y-63639584D01*
X95251589Y-63597961D01*
X95277431Y-63544560D01*
X95304121Y-63490789D01*
X95330696Y-63438428D01*
X95354510Y-63392613D01*
X95372917Y-63358483D01*
X95376856Y-63351520D01*
X95421571Y-63273802D01*
X95456826Y-63212322D01*
X95483373Y-63165751D01*
X95501965Y-63132759D01*
X95513355Y-63112017D01*
X95518296Y-63102195D01*
X95518640Y-63101087D01*
X95509161Y-63099659D01*
X95483445Y-63098504D01*
X95445575Y-63097749D01*
X95405876Y-63097520D01*
X95334850Y-63095327D01*
X95281642Y-63087650D01*
X95244119Y-63072836D01*
X95220143Y-63049235D01*
X95207580Y-63015197D01*
X95204294Y-62969070D01*
X95205360Y-62942521D01*
X95208206Y-62915146D01*
X95214021Y-62887998D01*
X95224225Y-62857164D01*
X95240237Y-62818735D01*
X95263474Y-62768800D01*
X95282897Y-62728784D01*
X95313760Y-62667079D01*
X95347679Y-62601384D01*
X95381098Y-62538459D01*
X95410464Y-62485065D01*
X95418112Y-62471637D01*
X95441541Y-62430260D01*
X95460300Y-62395772D01*
X95472548Y-62371660D01*
X95476443Y-62361409D01*
X95476385Y-62361322D01*
X95465471Y-62361379D01*
X95439465Y-62364281D01*
X95403302Y-62369446D01*
X95390415Y-62371477D01*
X95319174Y-62378664D01*
X95263700Y-62374829D01*
X95224621Y-62360032D01*
X95218632Y-62355600D01*
X95208156Y-62335490D01*
X95203756Y-62299742D01*
X95203680Y-62293466D01*
X95205562Y-62267098D01*
X95212276Y-62239099D01*
X95225431Y-62204882D01*
X95246633Y-62159861D01*
X95259312Y-62134690D01*
X95284400Y-62086046D01*
X95309382Y-62038523D01*
X95331050Y-61998175D01*
X95344010Y-61974840D01*
X95386524Y-61900246D01*
X95421086Y-61838805D01*
X95450046Y-61786154D01*
X95475754Y-61737931D01*
X95500563Y-61689775D01*
X95526822Y-61637322D01*
X95536804Y-61617113D01*
X95596587Y-61490013D01*
X95644865Y-61373503D01*
X95683184Y-61262602D01*
X95713090Y-61152323D01*
X95736127Y-61037683D01*
X95753178Y-60919206D01*
X95758638Y-60811009D01*
X95750844Y-60690559D01*
X95730344Y-60560520D01*
X95697684Y-60423554D01*
X95653413Y-60282323D01*
X95598078Y-60139490D01*
X95588112Y-60116385D01*
X95569673Y-60075244D01*
X95549971Y-60033545D01*
X95527704Y-59988824D01*
X95501567Y-59938623D01*
X95470260Y-59880479D01*
X95432479Y-59811933D01*
X95386922Y-59730523D01*
X95338095Y-59644044D01*
X95295085Y-59566996D01*
X95261836Y-59504592D01*
X95237257Y-59454295D01*
X95220256Y-59413569D01*
X95209745Y-59379877D01*
X95204632Y-59350682D01*
X95203680Y-59331344D01*
X95205214Y-59297990D01*
X95211152Y-59278734D01*
X95223505Y-59267491D01*
X95225050Y-59266638D01*
X95244623Y-59262161D01*
X95278791Y-59259780D01*
X95321952Y-59259354D01*
X95368503Y-59260745D01*
X95412844Y-59263815D01*
X95449372Y-59268422D01*
X95467840Y-59272664D01*
X95484801Y-59276883D01*
X95485866Y-59271967D01*
X95481900Y-59266421D01*
X95470513Y-59249325D01*
X95454303Y-59222103D01*
X95445375Y-59206240D01*
X95429337Y-59177346D01*
X95406890Y-59137194D01*
X95381632Y-59092211D01*
X95367322Y-59066812D01*
X95339555Y-59015971D01*
X95308120Y-58955884D01*
X95277797Y-58895786D01*
X95262506Y-58864357D01*
X95238601Y-58812545D01*
X95222722Y-58772637D01*
X95213039Y-58738766D01*
X95207722Y-58705066D01*
X95205888Y-58682837D01*
X95204665Y-58633873D01*
X95210005Y-58599794D01*
X95224244Y-58575611D01*
X95249716Y-58556334D01*
X95270074Y-58545669D01*
X95294546Y-58535114D01*
X95318405Y-58528842D01*
X95347500Y-58526123D01*
X95387683Y-58526226D01*
X95417566Y-58527258D01*
X95460077Y-58528737D01*
X95493771Y-58529473D01*
X95514343Y-58529399D01*
X95518640Y-58528866D01*
X95513919Y-58519551D01*
X95501672Y-58497890D01*
X95488160Y-58474719D01*
X95471885Y-58446527D01*
X95460826Y-58426241D01*
X95457681Y-58419232D01*
X95452851Y-58409406D01*
X95439912Y-58386257D01*
X95421189Y-58353896D01*
X95410569Y-58335859D01*
X95343684Y-58219083D01*
X95290005Y-58116780D01*
X95249296Y-58028187D01*
X95221318Y-57952540D01*
X95205834Y-57889077D01*
X95202607Y-57837033D01*
X95211399Y-57795645D01*
X95231972Y-57764150D01*
X95232509Y-57763608D01*
X95268035Y-57741357D01*
X95319508Y-57728071D01*
X95384807Y-57723410D01*
X95461815Y-57727034D01*
X95548415Y-57738601D01*
X95642487Y-57757771D01*
X95741914Y-57784204D01*
X95844577Y-57817558D01*
X95948358Y-57857493D01*
X96024378Y-57890965D01*
X96054110Y-57904410D01*
X96075757Y-57913470D01*
X96083310Y-57915919D01*
X96094424Y-57920277D01*
X96119974Y-57932142D01*
X96156339Y-57949709D01*
X96199896Y-57971167D01*
X96247025Y-57994709D01*
X96294103Y-58018526D01*
X96337508Y-58040810D01*
X96373619Y-58059752D01*
X96397480Y-58072785D01*
X96630385Y-58212804D01*
X96851534Y-58361349D01*
X97059533Y-58517245D01*
X97252991Y-58679318D01*
X97430514Y-58846393D01*
X97590710Y-59017296D01*
X97732187Y-59190852D01*
X97747484Y-59211320D01*
X97800586Y-59283790D01*
X97843718Y-59344681D01*
X97879593Y-59398290D01*
X97910923Y-59448915D01*
X97940420Y-59500852D01*
X97970795Y-59558401D01*
X97988407Y-59593103D01*
X98009138Y-59633482D01*
X98026548Y-59665754D01*
X98038699Y-59686438D01*
X98043557Y-59692256D01*
X98051493Y-59684484D01*
X98071923Y-59664418D01*
X98102854Y-59634017D01*
X98142297Y-59595237D01*
X98188258Y-59550037D01*
X98228160Y-59510789D01*
X98290351Y-59449812D01*
X98341646Y-59400132D01*
X98385478Y-59358638D01*
X98425279Y-59322220D01*
X98464483Y-59287767D01*
X98506521Y-59252167D01*
X98554827Y-59212310D01*
X98581880Y-59190239D01*
X98624062Y-59156724D01*
X98677292Y-59115652D01*
X98737151Y-59070317D01*
X98799218Y-59024014D01*
X98859072Y-58980040D01*
X98912292Y-58941688D01*
X98954459Y-58912255D01*
X98958233Y-58909702D01*
X99023322Y-58865880D01*
X99070792Y-58743960D01*
X99121383Y-58624377D01*
X99176026Y-58517291D01*
X99238277Y-58416890D01*
X99311689Y-58317362D01*
X99385806Y-58228782D01*
X99419259Y-58193171D01*
X99463162Y-58150109D01*
X99513257Y-58103419D01*
X99565287Y-58056922D01*
X99614996Y-58014441D01*
X99658128Y-57979798D01*
X99684240Y-57960826D01*
X99714259Y-57940364D01*
X99749689Y-57915768D01*
X99765520Y-57904632D01*
X99872442Y-57833968D01*
X99993534Y-57762582D01*
X100124955Y-57692213D01*
X100262866Y-57624603D01*
X100403429Y-57561490D01*
X100542803Y-57504615D01*
X100677150Y-57455718D01*
X100802629Y-57416538D01*
X100893280Y-57393532D01*
X100939092Y-57383186D01*
X100987158Y-57372080D01*
X101015200Y-57365452D01*
X101052375Y-57359558D01*
X101105436Y-57355212D01*
X101170225Y-57352382D01*
X101242585Y-57351034D01*
X101318360Y-57351135D01*
X101393392Y-57352653D01*
X101463524Y-57355556D01*
X101524599Y-57359809D01*
X101572460Y-57365380D01*
X101595872Y-57370046D01*
X101716081Y-57406319D01*
X101821061Y-57447959D01*
X101915727Y-57497667D01*
X102004994Y-57558139D01*
X102093776Y-57632077D01*
X102123958Y-57660036D01*
X102211636Y-57743097D01*
X102311918Y-57753309D01*
X102494696Y-57780481D01*
X102684123Y-57825039D01*
X102877895Y-57886129D01*
X103073707Y-57962895D01*
X103269252Y-58054484D01*
X103462226Y-58160041D01*
X103545040Y-58210263D01*
X103589525Y-58239179D01*
X103645495Y-58277224D01*
X103708337Y-58321134D01*
X103773435Y-58367639D01*
X103836177Y-58413474D01*
X103891948Y-58455370D01*
X103900947Y-58462285D01*
X104014113Y-58554847D01*
X104132222Y-58661022D01*
X104251382Y-58776774D01*
X104367701Y-58898070D01*
X104477285Y-59020875D01*
X104576243Y-59141154D01*
X104647400Y-59236010D01*
X104664264Y-59260152D01*
X104687542Y-59294091D01*
X104714336Y-59333529D01*
X104741750Y-59374168D01*
X104766887Y-59411712D01*
X104786849Y-59441863D01*
X104798741Y-59460325D01*
X104799800Y-59462074D01*
X104871372Y-59586480D01*
X104930466Y-59696554D01*
X104977707Y-59793494D01*
X105002919Y-59851400D01*
X105017974Y-59887078D01*
X105030744Y-59915699D01*
X105038759Y-59931749D01*
X105039361Y-59932680D01*
X105046566Y-59948168D01*
X105058254Y-59979158D01*
X105073133Y-60021670D01*
X105089908Y-60071724D01*
X105107289Y-60125340D01*
X105123982Y-60178538D01*
X105138695Y-60227337D01*
X105150135Y-60267759D01*
X105156495Y-60293360D01*
X105166502Y-60340002D01*
X105177880Y-60393288D01*
X105186075Y-60431829D01*
X105194630Y-60481565D01*
X105202773Y-60545901D01*
X105210003Y-60619114D01*
X105215820Y-60695485D01*
X105219723Y-60769292D01*
X105221210Y-60833572D01*
X105221440Y-60911505D01*
X105251443Y-60918095D01*
X105297016Y-60937551D01*
X105332053Y-60971009D01*
X105355064Y-61014275D01*
X105364559Y-61063153D01*
X108169346Y-61063153D01*
X108170034Y-60993045D01*
X108169664Y-60897578D01*
X108168000Y-60805551D01*
X108165045Y-60721707D01*
X108160799Y-60650791D01*
X108158387Y-60623560D01*
X108120373Y-60348650D01*
X108062451Y-60075311D01*
X107985014Y-59804168D01*
X107888451Y-59535848D01*
X107773154Y-59270980D01*
X107639514Y-59010190D01*
X107487922Y-58754106D01*
X107318769Y-58503354D01*
X107132445Y-58258561D01*
X106929343Y-58020356D01*
X106709852Y-57789364D01*
X106474364Y-57566214D01*
X106223270Y-57351532D01*
X106019000Y-57191988D01*
X105729030Y-56986271D01*
X105432409Y-56799559D01*
X105129398Y-56632005D01*
X104884104Y-56512567D01*
X104832691Y-56488919D01*
X104788177Y-56468291D01*
X104787193Y-56467830D01*
X104632160Y-56467830D01*
X104622713Y-56470070D01*
X104597182Y-56471489D01*
X104559785Y-56472147D01*
X104514739Y-56472103D01*
X104466261Y-56471418D01*
X104418570Y-56470151D01*
X104375882Y-56468362D01*
X104342415Y-56466112D01*
X104322386Y-56463459D01*
X104322280Y-56463433D01*
X104304590Y-56456691D01*
X104307113Y-56449863D01*
X104329889Y-56442915D01*
X104352760Y-56438760D01*
X104353638Y-56437411D01*
X104336804Y-56436731D01*
X104304854Y-56436729D01*
X104260384Y-56437411D01*
X104220680Y-56438368D01*
X104129072Y-56440499D01*
X104018454Y-56442429D01*
X103890137Y-56444153D01*
X103745429Y-56445672D01*
X103585640Y-56446981D01*
X103412080Y-56448080D01*
X103226059Y-56448965D01*
X103028886Y-56449636D01*
X102821870Y-56450089D01*
X102606322Y-56450322D01*
X102383551Y-56450333D01*
X102154865Y-56450120D01*
X101921576Y-56449682D01*
X101684993Y-56449014D01*
X101446425Y-56448117D01*
X101207181Y-56446986D01*
X100968572Y-56445620D01*
X100751040Y-56444157D01*
X100538548Y-56442633D01*
X100308812Y-56441008D01*
X100064910Y-56439302D01*
X99809918Y-56437536D01*
X99546912Y-56435731D01*
X99278969Y-56433908D01*
X99009166Y-56432087D01*
X98740579Y-56430289D01*
X98476284Y-56428535D01*
X98219359Y-56426846D01*
X97972880Y-56425243D01*
X97739923Y-56423745D01*
X97523564Y-56422375D01*
X97520160Y-56422353D01*
X97336935Y-56421171D01*
X97157565Y-56419952D01*
X96983262Y-56418706D01*
X96815242Y-56417445D01*
X96654718Y-56416179D01*
X96502904Y-56414921D01*
X96361015Y-56413680D01*
X96230263Y-56412469D01*
X96111863Y-56411298D01*
X96007028Y-56410179D01*
X95916974Y-56409121D01*
X95842913Y-56408138D01*
X95786059Y-56407238D01*
X95747627Y-56406435D01*
X95734538Y-56406029D01*
X95579595Y-56399940D01*
X95605366Y-56369312D01*
X95630260Y-56337019D01*
X95647379Y-56306293D01*
X95658363Y-56271806D01*
X95664853Y-56228227D01*
X95668490Y-56170227D01*
X95668764Y-56163320D01*
X95669557Y-56090154D01*
X95665382Y-56030554D01*
X95656801Y-55982349D01*
X95646875Y-55938712D01*
X95641905Y-55911917D01*
X95641789Y-55899124D01*
X95646426Y-55897495D01*
X95653951Y-55902704D01*
X95673221Y-55911944D01*
X95710085Y-55923375D01*
X95761991Y-55936523D01*
X95826389Y-55950916D01*
X95900726Y-55966080D01*
X95982452Y-55981542D01*
X96069015Y-55996830D01*
X96157865Y-56011469D01*
X96246450Y-56024988D01*
X96332219Y-56036912D01*
X96412621Y-56046768D01*
X96455084Y-56051281D01*
X96546799Y-56059712D01*
X96657385Y-56068712D01*
X96785404Y-56078192D01*
X96929416Y-56088067D01*
X97087984Y-56098251D01*
X97259669Y-56108656D01*
X97443033Y-56119196D01*
X97636637Y-56129784D01*
X97839043Y-56140335D01*
X98048811Y-56150760D01*
X98264505Y-56160974D01*
X98317720Y-56163417D01*
X98465665Y-56169454D01*
X98630769Y-56174903D01*
X98810923Y-56179760D01*
X99004014Y-56184019D01*
X99207932Y-56187673D01*
X99420566Y-56190717D01*
X99639804Y-56193145D01*
X99863536Y-56194951D01*
X100089650Y-56196130D01*
X100316034Y-56196676D01*
X100540579Y-56196582D01*
X100761172Y-56195843D01*
X100975702Y-56194453D01*
X101182059Y-56192406D01*
X101378131Y-56189697D01*
X101561807Y-56186319D01*
X101730975Y-56182267D01*
X101883526Y-56177535D01*
X101985480Y-56173549D01*
X102279639Y-56160174D01*
X102554156Y-56146374D01*
X102809708Y-56132084D01*
X103046971Y-56117237D01*
X103266621Y-56101766D01*
X103469333Y-56085606D01*
X103655784Y-56068689D01*
X103826649Y-56050950D01*
X103982604Y-56032322D01*
X104124326Y-56012739D01*
X104252489Y-55992134D01*
X104367770Y-55970441D01*
X104470845Y-55947594D01*
X104562390Y-55923526D01*
X104577632Y-55919078D01*
X104599303Y-55912651D01*
X104580264Y-55992265D01*
X104559894Y-56099113D01*
X104553354Y-56193757D01*
X104560802Y-56279019D01*
X104582391Y-56357724D01*
X104602877Y-56404330D01*
X104617997Y-56435121D01*
X104628573Y-56458142D01*
X104632160Y-56467830D01*
X104787193Y-56467830D01*
X104753655Y-56452127D01*
X104732217Y-56441873D01*
X104726588Y-56438933D01*
X104725484Y-56428498D01*
X104723720Y-56400430D01*
X104721431Y-56357402D01*
X104718752Y-56302088D01*
X104715819Y-56237158D01*
X104712826Y-56166748D01*
X104701707Y-55897206D01*
X104727894Y-55834989D01*
X104741439Y-55800140D01*
X104750650Y-55771484D01*
X104642320Y-55771484D01*
X104628647Y-55776473D01*
X104598196Y-55785871D01*
X104553833Y-55798887D01*
X104498422Y-55814726D01*
X104434829Y-55832595D01*
X104365918Y-55851701D01*
X104294554Y-55871250D01*
X104223602Y-55890449D01*
X104155928Y-55908505D01*
X104094396Y-55924623D01*
X104041871Y-55938012D01*
X104033098Y-55940194D01*
X103929792Y-55963201D01*
X103822803Y-55981644D01*
X103706325Y-55996405D01*
X103595840Y-56006692D01*
X103535551Y-56010586D01*
X103454951Y-56014172D01*
X103354051Y-56017449D01*
X103232858Y-56020418D01*
X103091381Y-56023079D01*
X102929628Y-56025431D01*
X102747608Y-56027475D01*
X102545328Y-56029210D01*
X102322797Y-56030637D01*
X102080024Y-56031755D01*
X101817017Y-56032565D01*
X101533783Y-56033066D01*
X101230333Y-56033258D01*
X100906673Y-56033142D01*
X100562813Y-56032717D01*
X100198760Y-56031983D01*
X99814523Y-56030940D01*
X99410110Y-56029589D01*
X98985530Y-56027929D01*
X98612360Y-56026291D01*
X98370442Y-56025190D01*
X98147807Y-56024162D01*
X97943422Y-56023149D01*
X97756251Y-56022089D01*
X97585258Y-56020925D01*
X97429410Y-56019597D01*
X97287669Y-56018045D01*
X97159002Y-56016210D01*
X97042374Y-56014032D01*
X96936748Y-56011453D01*
X96841090Y-56008413D01*
X96754365Y-56004853D01*
X96675537Y-56000712D01*
X96603571Y-55995932D01*
X96537433Y-55990454D01*
X96476086Y-55984218D01*
X96418496Y-55977165D01*
X96363628Y-55969235D01*
X96310446Y-55960368D01*
X96257916Y-55950507D01*
X96205001Y-55939591D01*
X96150667Y-55927560D01*
X96093879Y-55914356D01*
X96033602Y-55899919D01*
X95968799Y-55884190D01*
X95917565Y-55871743D01*
X95836866Y-55852013D01*
X95762782Y-55833590D01*
X95697546Y-55817051D01*
X95643387Y-55802977D01*
X95602539Y-55791946D01*
X95577231Y-55784537D01*
X95569585Y-55781454D01*
X95579678Y-55779914D01*
X95609912Y-55778434D01*
X95660110Y-55777015D01*
X95730094Y-55775656D01*
X95819687Y-55774360D01*
X95928711Y-55773126D01*
X96056987Y-55771955D01*
X96204338Y-55770848D01*
X96370586Y-55769806D01*
X96555553Y-55768828D01*
X96759061Y-55767916D01*
X96980933Y-55767070D01*
X97220990Y-55766291D01*
X97479054Y-55765580D01*
X97754948Y-55764936D01*
X98048494Y-55764362D01*
X98359514Y-55763857D01*
X98687830Y-55763421D01*
X99033265Y-55763057D01*
X99395639Y-55762763D01*
X99774777Y-55762541D01*
X100170498Y-55762392D01*
X100582627Y-55762316D01*
X101010984Y-55762314D01*
X101020280Y-55762315D01*
X101306692Y-55762363D01*
X101585692Y-55762459D01*
X101856652Y-55762600D01*
X102118941Y-55762785D01*
X102371928Y-55763013D01*
X102614985Y-55763282D01*
X102847480Y-55763591D01*
X103068783Y-55763937D01*
X103278264Y-55764319D01*
X103475293Y-55764736D01*
X103659240Y-55765185D01*
X103829474Y-55765666D01*
X103985365Y-55766177D01*
X104126284Y-55766716D01*
X104251599Y-55767281D01*
X104360681Y-55767872D01*
X104452900Y-55768486D01*
X104527625Y-55769121D01*
X104584225Y-55769777D01*
X104622072Y-55770452D01*
X104640534Y-55771143D01*
X104642320Y-55771484D01*
X104750650Y-55771484D01*
X104750900Y-55770707D01*
X104754080Y-55754406D01*
X104743934Y-55722155D01*
X104713509Y-55690801D01*
X104662827Y-55660350D01*
X104591911Y-55630810D01*
X104500783Y-55602189D01*
X104389464Y-55574493D01*
X104257977Y-55547729D01*
X104106343Y-55521905D01*
X103987000Y-55504220D01*
X103844461Y-55485043D01*
X103699191Y-55467195D01*
X103549509Y-55450544D01*
X103393732Y-55434958D01*
X103230176Y-55420307D01*
X103057159Y-55406460D01*
X102872998Y-55393284D01*
X102676010Y-55380648D01*
X102464513Y-55368422D01*
X102236824Y-55356474D01*
X101991260Y-55344673D01*
X101873720Y-55339342D01*
X101752369Y-55334650D01*
X101612991Y-55330532D01*
X101457563Y-55326981D01*
X101288063Y-55323993D01*
X101106466Y-55321561D01*
X100914752Y-55319680D01*
X100714896Y-55318343D01*
X100508875Y-55317545D01*
X100298668Y-55317280D01*
X100086251Y-55317542D01*
G04 #@! TD*
M02*
