G04 #@! TF.FileFunction,Soldermask,Bot*
%FSLAX46Y46*%
G04 Gerber Fmt 4.6, Leading zero omitted, Abs format (unit mm)*
G04 Created by KiCad (PCBNEW 4.0.7) date 06/22/18 13:57:38*
%MOMM*%
%LPD*%
G01*
G04 APERTURE LIST*
%ADD10C,0.100000*%
%ADD11R,1.000000X1.000000*%
%ADD12O,1.000000X1.000000*%
%ADD13R,1.700000X1.700000*%
%ADD14O,1.700000X1.700000*%
%ADD15C,2.000000*%
%ADD16C,1.500000*%
G04 APERTURE END LIST*
D10*
X112000000Y-40000000D02*
X50000000Y-40000000D01*
X112000000Y-82000000D02*
X112000000Y-40000000D01*
X50000000Y-82000000D02*
X112000000Y-82000000D01*
X50000000Y-40000000D02*
X50000000Y-82000000D01*
D11*
X60000000Y-75000000D03*
D12*
X60000000Y-76270000D03*
X58730000Y-75000000D03*
X58730000Y-76270000D03*
X57460000Y-75000000D03*
X57460000Y-76270000D03*
X56190000Y-75000000D03*
X56190000Y-76270000D03*
X54920000Y-75000000D03*
X54920000Y-76270000D03*
D13*
X61000000Y-70540000D03*
D14*
X61000000Y-68000000D03*
X61000000Y-65460000D03*
X61000000Y-62920000D03*
D11*
X78000000Y-75000000D03*
D12*
X78000000Y-76270000D03*
X76730000Y-75000000D03*
X76730000Y-76270000D03*
X75460000Y-75000000D03*
X75460000Y-76270000D03*
X74190000Y-75000000D03*
X74190000Y-76270000D03*
X72920000Y-75000000D03*
X72920000Y-76270000D03*
D13*
X53960000Y-42000000D03*
D14*
X56500000Y-42000000D03*
D15*
X101000000Y-52500000D03*
X101000000Y-48000000D03*
X107500000Y-52500000D03*
X107500000Y-48000000D03*
X101000000Y-72500000D03*
X101000000Y-68000000D03*
X107500000Y-72500000D03*
X107500000Y-68000000D03*
D13*
X62380000Y-42000000D03*
D14*
X64920000Y-42000000D03*
X67460000Y-42000000D03*
X70000000Y-42000000D03*
X72540000Y-42000000D03*
X75080000Y-42000000D03*
X77620000Y-42000000D03*
D16*
X93000000Y-47520000D03*
X93000000Y-52400000D03*
M02*
