G04 #@! TF.GenerationSoftware,KiCad,Pcbnew,(5.0.0)*
G04 #@! TF.CreationDate,2019-01-23T14:37:11-05:00*
G04 #@! TF.ProjectId,Project 23,50726F6A6563742032332E6B69636164,V 0.7*
G04 #@! TF.SameCoordinates,Original*
G04 #@! TF.FileFunction,Soldermask,Bot*
G04 #@! TF.FilePolarity,Negative*
%FSLAX46Y46*%
G04 Gerber Fmt 4.6, Leading zero omitted, Abs format (unit mm)*
G04 Created by KiCad (PCBNEW (5.0.0)) date 01/23/19 14:37:11*
%MOMM*%
%LPD*%
G01*
G04 APERTURE LIST*
%ADD10C,0.100000*%
G04 APERTURE END LIST*
D10*
X55500000Y-51050000D02*
X50000000Y-51050000D01*
X55500000Y-58950000D02*
X55500000Y-51050000D01*
X50000000Y-58950000D02*
X55500000Y-58950000D01*
X50000000Y-58950000D02*
X50000000Y-82000000D01*
X112000000Y-40000000D02*
X50000000Y-40000000D01*
X112000000Y-82000000D02*
X112000000Y-40000000D01*
X50000000Y-82000000D02*
X112000000Y-82000000D01*
X50000000Y-40000000D02*
X50000000Y-51050000D01*
G36*
X74325888Y-79204470D02*
X74506274Y-79240350D01*
X74697362Y-79319502D01*
X74869336Y-79434411D01*
X75015589Y-79580664D01*
X75130498Y-79752638D01*
X75209650Y-79943726D01*
X75243373Y-80113265D01*
X75249340Y-80143263D01*
X75250000Y-80146584D01*
X75250000Y-80353416D01*
X75209650Y-80556274D01*
X75130498Y-80747362D01*
X75015589Y-80919336D01*
X74869336Y-81065589D01*
X74697362Y-81180498D01*
X74506274Y-81259650D01*
X74325888Y-81295530D01*
X74303417Y-81300000D01*
X74096583Y-81300000D01*
X74074112Y-81295530D01*
X73893726Y-81259650D01*
X73702638Y-81180498D01*
X73530664Y-81065589D01*
X73384411Y-80919336D01*
X73269502Y-80747362D01*
X73190350Y-80556274D01*
X73150000Y-80353416D01*
X73150000Y-80146584D01*
X73150661Y-80143263D01*
X73156627Y-80113265D01*
X73190350Y-79943726D01*
X73269502Y-79752638D01*
X73384411Y-79580664D01*
X73530664Y-79434411D01*
X73702638Y-79319502D01*
X73893726Y-79240350D01*
X74074112Y-79204470D01*
X74096583Y-79200000D01*
X74303417Y-79200000D01*
X74325888Y-79204470D01*
X74325888Y-79204470D01*
G37*
G36*
X77125888Y-79204470D02*
X77306274Y-79240350D01*
X77497362Y-79319502D01*
X77669336Y-79434411D01*
X77815589Y-79580664D01*
X77930498Y-79752638D01*
X78009650Y-79943726D01*
X78043373Y-80113265D01*
X78049340Y-80143263D01*
X78050000Y-80146584D01*
X78050000Y-80353416D01*
X78009650Y-80556274D01*
X77930498Y-80747362D01*
X77815589Y-80919336D01*
X77669336Y-81065589D01*
X77497362Y-81180498D01*
X77306274Y-81259650D01*
X77125888Y-81295530D01*
X77103417Y-81300000D01*
X76896583Y-81300000D01*
X76874112Y-81295530D01*
X76693726Y-81259650D01*
X76502638Y-81180498D01*
X76330664Y-81065589D01*
X76184411Y-80919336D01*
X76069502Y-80747362D01*
X75990350Y-80556274D01*
X75950000Y-80353416D01*
X75950000Y-80146584D01*
X75950661Y-80143263D01*
X75956627Y-80113265D01*
X75990350Y-79943726D01*
X76069502Y-79752638D01*
X76184411Y-79580664D01*
X76330664Y-79434411D01*
X76502638Y-79319502D01*
X76693726Y-79240350D01*
X76874112Y-79204470D01*
X76896583Y-79200000D01*
X77103417Y-79200000D01*
X77125888Y-79204470D01*
X77125888Y-79204470D01*
G37*
G36*
X82625888Y-79204470D02*
X82806274Y-79240350D01*
X82997362Y-79319502D01*
X83169336Y-79434411D01*
X83315589Y-79580664D01*
X83430498Y-79752638D01*
X83509650Y-79943726D01*
X83543373Y-80113265D01*
X83549340Y-80143263D01*
X83550000Y-80146584D01*
X83550000Y-80353416D01*
X83509650Y-80556274D01*
X83430498Y-80747362D01*
X83315589Y-80919336D01*
X83169336Y-81065589D01*
X82997362Y-81180498D01*
X82806274Y-81259650D01*
X82625888Y-81295530D01*
X82603417Y-81300000D01*
X82396583Y-81300000D01*
X82374112Y-81295530D01*
X82193726Y-81259650D01*
X82002638Y-81180498D01*
X81830664Y-81065589D01*
X81684411Y-80919336D01*
X81569502Y-80747362D01*
X81490350Y-80556274D01*
X81450000Y-80353416D01*
X81450000Y-80146584D01*
X81450661Y-80143263D01*
X81456627Y-80113265D01*
X81490350Y-79943726D01*
X81569502Y-79752638D01*
X81684411Y-79580664D01*
X81830664Y-79434411D01*
X82002638Y-79319502D01*
X82193726Y-79240350D01*
X82374112Y-79204470D01*
X82396583Y-79200000D01*
X82603417Y-79200000D01*
X82625888Y-79204470D01*
X82625888Y-79204470D01*
G37*
G36*
X79875888Y-79204470D02*
X80056274Y-79240350D01*
X80247362Y-79319502D01*
X80419336Y-79434411D01*
X80565589Y-79580664D01*
X80680498Y-79752638D01*
X80759650Y-79943726D01*
X80793373Y-80113265D01*
X80799340Y-80143263D01*
X80800000Y-80146584D01*
X80800000Y-80353416D01*
X80759650Y-80556274D01*
X80680498Y-80747362D01*
X80565589Y-80919336D01*
X80419336Y-81065589D01*
X80247362Y-81180498D01*
X80056274Y-81259650D01*
X79875888Y-81295530D01*
X79853417Y-81300000D01*
X79646583Y-81300000D01*
X79624112Y-81295530D01*
X79443726Y-81259650D01*
X79252638Y-81180498D01*
X79080664Y-81065589D01*
X78934411Y-80919336D01*
X78819502Y-80747362D01*
X78740350Y-80556274D01*
X78700000Y-80353416D01*
X78700000Y-80146584D01*
X78700661Y-80143263D01*
X78706627Y-80113265D01*
X78740350Y-79943726D01*
X78819502Y-79752638D01*
X78934411Y-79580664D01*
X79080664Y-79434411D01*
X79252638Y-79319502D01*
X79443726Y-79240350D01*
X79624112Y-79204470D01*
X79646583Y-79200000D01*
X79853417Y-79200000D01*
X79875888Y-79204470D01*
X79875888Y-79204470D01*
G37*
G36*
X67335443Y-78894194D02*
X67544728Y-78980883D01*
X67733085Y-79106739D01*
X67893261Y-79266915D01*
X68019117Y-79455272D01*
X68105806Y-79664557D01*
X68150000Y-79886734D01*
X68150000Y-80113266D01*
X68105806Y-80335443D01*
X68019117Y-80544728D01*
X67893261Y-80733085D01*
X67733085Y-80893261D01*
X67544728Y-81019117D01*
X67335443Y-81105806D01*
X67113266Y-81150000D01*
X66886734Y-81150000D01*
X66664557Y-81105806D01*
X66455272Y-81019117D01*
X66266915Y-80893261D01*
X66106739Y-80733085D01*
X65980883Y-80544728D01*
X65894194Y-80335443D01*
X65850000Y-80113266D01*
X65850000Y-79886734D01*
X65894194Y-79664557D01*
X65980883Y-79455272D01*
X66106739Y-79266915D01*
X66266915Y-79106739D01*
X66455272Y-78980883D01*
X66664557Y-78894194D01*
X66886734Y-78850000D01*
X67113266Y-78850000D01*
X67335443Y-78894194D01*
X67335443Y-78894194D01*
G37*
G36*
X110335443Y-78144194D02*
X110544728Y-78230883D01*
X110733085Y-78356739D01*
X110893261Y-78516915D01*
X111019117Y-78705272D01*
X111105806Y-78914557D01*
X111150000Y-79136734D01*
X111150000Y-79363266D01*
X111105806Y-79585443D01*
X111019117Y-79794728D01*
X110893261Y-79983085D01*
X110733085Y-80143261D01*
X110544728Y-80269117D01*
X110335443Y-80355806D01*
X110113266Y-80400000D01*
X109886734Y-80400000D01*
X109664557Y-80355806D01*
X109455272Y-80269117D01*
X109266915Y-80143261D01*
X109106739Y-79983085D01*
X108980883Y-79794728D01*
X108894194Y-79585443D01*
X108850000Y-79363266D01*
X108850000Y-79136734D01*
X108894194Y-78914557D01*
X108980883Y-78705272D01*
X109106739Y-78516915D01*
X109266915Y-78356739D01*
X109455272Y-78230883D01*
X109664557Y-78144194D01*
X109886734Y-78100000D01*
X110113266Y-78100000D01*
X110335443Y-78144194D01*
X110335443Y-78144194D01*
G37*
G36*
X96636930Y-75152688D02*
X96826274Y-75190350D01*
X97017362Y-75269502D01*
X97189336Y-75384411D01*
X97335589Y-75530664D01*
X97450498Y-75702638D01*
X97529650Y-75893726D01*
X97570000Y-76096584D01*
X97570000Y-76303416D01*
X97529650Y-76506274D01*
X97450498Y-76697362D01*
X97335589Y-76869336D01*
X97189336Y-77015589D01*
X97017362Y-77130498D01*
X96826274Y-77209650D01*
X96645888Y-77245530D01*
X96623417Y-77250000D01*
X96416583Y-77250000D01*
X96394112Y-77245530D01*
X96213726Y-77209650D01*
X96022638Y-77130498D01*
X95850664Y-77015589D01*
X95704411Y-76869336D01*
X95589502Y-76697362D01*
X95510350Y-76506274D01*
X95470000Y-76303416D01*
X95470000Y-76096584D01*
X95510350Y-75893726D01*
X95589502Y-75702638D01*
X95704411Y-75530664D01*
X95850664Y-75384411D01*
X96022638Y-75269502D01*
X96213726Y-75190350D01*
X96403070Y-75152688D01*
X96416583Y-75150000D01*
X96623417Y-75150000D01*
X96636930Y-75152688D01*
X96636930Y-75152688D01*
G37*
G36*
X103136930Y-75152688D02*
X103326274Y-75190350D01*
X103517362Y-75269502D01*
X103689336Y-75384411D01*
X103835589Y-75530664D01*
X103950498Y-75702638D01*
X104029650Y-75893726D01*
X104070000Y-76096584D01*
X104070000Y-76303416D01*
X104029650Y-76506274D01*
X103950498Y-76697362D01*
X103835589Y-76869336D01*
X103689336Y-77015589D01*
X103517362Y-77130498D01*
X103326274Y-77209650D01*
X103145888Y-77245530D01*
X103123417Y-77250000D01*
X102916583Y-77250000D01*
X102894112Y-77245530D01*
X102713726Y-77209650D01*
X102522638Y-77130498D01*
X102350664Y-77015589D01*
X102204411Y-76869336D01*
X102089502Y-76697362D01*
X102010350Y-76506274D01*
X101970000Y-76303416D01*
X101970000Y-76096584D01*
X102010350Y-75893726D01*
X102089502Y-75702638D01*
X102204411Y-75530664D01*
X102350664Y-75384411D01*
X102522638Y-75269502D01*
X102713726Y-75190350D01*
X102903070Y-75152688D01*
X102916583Y-75150000D01*
X103123417Y-75150000D01*
X103136930Y-75152688D01*
X103136930Y-75152688D01*
G37*
G36*
X53973952Y-74452653D02*
X54027819Y-74457958D01*
X54104518Y-74481225D01*
X54131498Y-74489409D01*
X54227039Y-74540476D01*
X54310790Y-74609210D01*
X54379524Y-74692961D01*
X54430591Y-74788502D01*
X54435382Y-74804297D01*
X54444759Y-74826936D01*
X54458373Y-74847311D01*
X54475700Y-74864638D01*
X54496075Y-74878252D01*
X54518714Y-74887629D01*
X54542747Y-74892410D01*
X54567251Y-74892410D01*
X54591285Y-74887630D01*
X54613924Y-74878253D01*
X54634299Y-74864639D01*
X54651626Y-74847312D01*
X54665240Y-74826937D01*
X54674618Y-74804297D01*
X54679409Y-74788502D01*
X54730476Y-74692961D01*
X54799210Y-74609210D01*
X54882961Y-74540476D01*
X54978502Y-74489409D01*
X55005482Y-74481225D01*
X55082181Y-74457958D01*
X55136048Y-74452653D01*
X55162981Y-74450000D01*
X55217019Y-74450000D01*
X55243952Y-74452653D01*
X55297819Y-74457958D01*
X55374518Y-74481225D01*
X55401498Y-74489409D01*
X55497039Y-74540476D01*
X55580790Y-74609210D01*
X55649524Y-74692961D01*
X55700591Y-74788502D01*
X55705382Y-74804297D01*
X55714759Y-74826936D01*
X55728373Y-74847311D01*
X55745700Y-74864638D01*
X55766075Y-74878252D01*
X55788714Y-74887629D01*
X55812747Y-74892410D01*
X55837251Y-74892410D01*
X55861285Y-74887630D01*
X55883924Y-74878253D01*
X55904299Y-74864639D01*
X55921626Y-74847312D01*
X55935240Y-74826937D01*
X55944618Y-74804297D01*
X55949409Y-74788502D01*
X56000476Y-74692961D01*
X56069210Y-74609210D01*
X56152961Y-74540476D01*
X56248502Y-74489409D01*
X56275482Y-74481225D01*
X56352181Y-74457958D01*
X56406048Y-74452653D01*
X56432981Y-74450000D01*
X56487019Y-74450000D01*
X56513952Y-74452653D01*
X56567819Y-74457958D01*
X56644518Y-74481225D01*
X56671498Y-74489409D01*
X56767039Y-74540476D01*
X56850790Y-74609210D01*
X56919524Y-74692961D01*
X56970591Y-74788502D01*
X56975382Y-74804297D01*
X56984759Y-74826936D01*
X56998373Y-74847311D01*
X57015700Y-74864638D01*
X57036075Y-74878252D01*
X57058714Y-74887629D01*
X57082747Y-74892410D01*
X57107251Y-74892410D01*
X57131285Y-74887630D01*
X57153924Y-74878253D01*
X57174299Y-74864639D01*
X57191626Y-74847312D01*
X57205240Y-74826937D01*
X57214618Y-74804297D01*
X57219409Y-74788502D01*
X57270476Y-74692961D01*
X57339210Y-74609210D01*
X57422961Y-74540476D01*
X57518502Y-74489409D01*
X57545482Y-74481225D01*
X57622181Y-74457958D01*
X57676048Y-74452653D01*
X57702981Y-74450000D01*
X57757019Y-74450000D01*
X57783952Y-74452653D01*
X57837819Y-74457958D01*
X57914518Y-74481225D01*
X57941498Y-74489409D01*
X58037039Y-74540476D01*
X58120790Y-74609210D01*
X58189524Y-74692961D01*
X58214760Y-74740176D01*
X58228373Y-74760551D01*
X58245700Y-74777878D01*
X58266075Y-74791492D01*
X58288714Y-74800869D01*
X58312747Y-74805650D01*
X58337252Y-74805650D01*
X58361285Y-74800870D01*
X58383924Y-74791492D01*
X58404299Y-74777879D01*
X58421626Y-74760552D01*
X58435240Y-74740177D01*
X58444617Y-74717538D01*
X58449398Y-74693505D01*
X58450000Y-74681252D01*
X58450000Y-74450000D01*
X59550000Y-74450000D01*
X59550000Y-75550000D01*
X59318748Y-75550000D01*
X59294362Y-75552402D01*
X59270913Y-75559515D01*
X59249302Y-75571066D01*
X59230360Y-75586612D01*
X59214814Y-75605554D01*
X59203263Y-75627165D01*
X59196150Y-75650614D01*
X59193748Y-75675000D01*
X59196150Y-75699386D01*
X59203263Y-75722835D01*
X59214814Y-75744446D01*
X59230360Y-75763388D01*
X59249302Y-75778934D01*
X59259824Y-75785240D01*
X59307039Y-75810476D01*
X59390790Y-75879210D01*
X59459524Y-75962961D01*
X59510591Y-76058502D01*
X59510592Y-76058506D01*
X59542042Y-76162181D01*
X59552661Y-76270000D01*
X59542042Y-76377819D01*
X59522250Y-76443063D01*
X59510591Y-76481498D01*
X59459524Y-76577039D01*
X59390790Y-76660790D01*
X59307039Y-76729524D01*
X59211498Y-76780591D01*
X59184518Y-76788775D01*
X59107819Y-76812042D01*
X59053952Y-76817347D01*
X59027019Y-76820000D01*
X58972981Y-76820000D01*
X58946048Y-76817347D01*
X58892181Y-76812042D01*
X58815482Y-76788775D01*
X58788502Y-76780591D01*
X58692961Y-76729524D01*
X58609210Y-76660790D01*
X58540476Y-76577039D01*
X58489409Y-76481498D01*
X58484618Y-76465703D01*
X58475241Y-76443064D01*
X58461627Y-76422689D01*
X58444300Y-76405362D01*
X58423925Y-76391748D01*
X58401286Y-76382371D01*
X58377253Y-76377590D01*
X58352749Y-76377590D01*
X58328715Y-76382370D01*
X58306076Y-76391747D01*
X58285701Y-76405361D01*
X58268374Y-76422688D01*
X58254760Y-76443063D01*
X58245382Y-76465703D01*
X58240591Y-76481498D01*
X58189524Y-76577039D01*
X58120790Y-76660790D01*
X58037039Y-76729524D01*
X57941498Y-76780591D01*
X57914518Y-76788775D01*
X57837819Y-76812042D01*
X57783952Y-76817347D01*
X57757019Y-76820000D01*
X57702981Y-76820000D01*
X57676048Y-76817347D01*
X57622181Y-76812042D01*
X57545482Y-76788775D01*
X57518502Y-76780591D01*
X57422961Y-76729524D01*
X57339210Y-76660790D01*
X57270476Y-76577039D01*
X57219409Y-76481498D01*
X57214618Y-76465703D01*
X57205241Y-76443064D01*
X57191627Y-76422689D01*
X57174300Y-76405362D01*
X57153925Y-76391748D01*
X57131286Y-76382371D01*
X57107253Y-76377590D01*
X57082749Y-76377590D01*
X57058715Y-76382370D01*
X57036076Y-76391747D01*
X57015701Y-76405361D01*
X56998374Y-76422688D01*
X56984760Y-76443063D01*
X56975382Y-76465703D01*
X56970591Y-76481498D01*
X56919524Y-76577039D01*
X56850790Y-76660790D01*
X56767039Y-76729524D01*
X56671498Y-76780591D01*
X56644518Y-76788775D01*
X56567819Y-76812042D01*
X56513952Y-76817347D01*
X56487019Y-76820000D01*
X56432981Y-76820000D01*
X56406048Y-76817347D01*
X56352181Y-76812042D01*
X56275482Y-76788775D01*
X56248502Y-76780591D01*
X56152961Y-76729524D01*
X56069210Y-76660790D01*
X56000476Y-76577039D01*
X55949409Y-76481498D01*
X55944618Y-76465703D01*
X55935241Y-76443064D01*
X55921627Y-76422689D01*
X55904300Y-76405362D01*
X55883925Y-76391748D01*
X55861286Y-76382371D01*
X55837253Y-76377590D01*
X55812749Y-76377590D01*
X55788715Y-76382370D01*
X55766076Y-76391747D01*
X55745701Y-76405361D01*
X55728374Y-76422688D01*
X55714760Y-76443063D01*
X55705382Y-76465703D01*
X55700591Y-76481498D01*
X55649524Y-76577039D01*
X55580790Y-76660790D01*
X55497039Y-76729524D01*
X55401498Y-76780591D01*
X55374518Y-76788775D01*
X55297819Y-76812042D01*
X55243952Y-76817347D01*
X55217019Y-76820000D01*
X55162981Y-76820000D01*
X55136048Y-76817347D01*
X55082181Y-76812042D01*
X55005482Y-76788775D01*
X54978502Y-76780591D01*
X54882961Y-76729524D01*
X54799210Y-76660790D01*
X54730476Y-76577039D01*
X54679409Y-76481498D01*
X54674618Y-76465703D01*
X54665241Y-76443064D01*
X54651627Y-76422689D01*
X54634300Y-76405362D01*
X54613925Y-76391748D01*
X54591286Y-76382371D01*
X54567253Y-76377590D01*
X54542749Y-76377590D01*
X54518715Y-76382370D01*
X54496076Y-76391747D01*
X54475701Y-76405361D01*
X54458374Y-76422688D01*
X54444760Y-76443063D01*
X54435382Y-76465703D01*
X54430591Y-76481498D01*
X54379524Y-76577039D01*
X54310790Y-76660790D01*
X54227039Y-76729524D01*
X54131498Y-76780591D01*
X54104518Y-76788775D01*
X54027819Y-76812042D01*
X53973952Y-76817347D01*
X53947019Y-76820000D01*
X53892981Y-76820000D01*
X53866048Y-76817347D01*
X53812181Y-76812042D01*
X53735482Y-76788775D01*
X53708502Y-76780591D01*
X53612961Y-76729524D01*
X53529210Y-76660790D01*
X53460476Y-76577039D01*
X53409409Y-76481498D01*
X53397750Y-76443063D01*
X53377958Y-76377819D01*
X53367339Y-76270000D01*
X53377958Y-76162181D01*
X53409408Y-76058506D01*
X53409409Y-76058502D01*
X53460476Y-75962961D01*
X53529210Y-75879210D01*
X53612961Y-75810476D01*
X53708502Y-75759409D01*
X53716128Y-75757096D01*
X53724299Y-75754617D01*
X53746936Y-75745241D01*
X53767311Y-75731627D01*
X53784638Y-75714300D01*
X53798252Y-75693925D01*
X53807629Y-75671286D01*
X53812410Y-75647253D01*
X53812410Y-75622749D01*
X53812410Y-75622747D01*
X54027590Y-75622747D01*
X54027590Y-75647251D01*
X54032370Y-75671285D01*
X54041747Y-75693924D01*
X54055361Y-75714299D01*
X54072688Y-75731626D01*
X54093063Y-75745240D01*
X54115701Y-75754617D01*
X54123872Y-75757096D01*
X54131498Y-75759409D01*
X54227039Y-75810476D01*
X54310790Y-75879210D01*
X54379524Y-75962961D01*
X54430591Y-76058502D01*
X54435382Y-76074297D01*
X54444759Y-76096936D01*
X54458373Y-76117311D01*
X54475700Y-76134638D01*
X54496075Y-76148252D01*
X54518714Y-76157629D01*
X54542747Y-76162410D01*
X54567251Y-76162410D01*
X54591285Y-76157630D01*
X54613924Y-76148253D01*
X54634299Y-76134639D01*
X54651626Y-76117312D01*
X54665240Y-76096937D01*
X54674618Y-76074297D01*
X54679409Y-76058502D01*
X54730476Y-75962961D01*
X54799210Y-75879210D01*
X54882961Y-75810476D01*
X54978502Y-75759409D01*
X54986128Y-75757096D01*
X54994299Y-75754617D01*
X55016936Y-75745241D01*
X55037311Y-75731627D01*
X55054638Y-75714300D01*
X55068252Y-75693925D01*
X55077629Y-75671286D01*
X55082410Y-75647253D01*
X55082410Y-75622749D01*
X55082410Y-75622747D01*
X55297590Y-75622747D01*
X55297590Y-75647251D01*
X55302370Y-75671285D01*
X55311747Y-75693924D01*
X55325361Y-75714299D01*
X55342688Y-75731626D01*
X55363063Y-75745240D01*
X55385701Y-75754617D01*
X55393872Y-75757096D01*
X55401498Y-75759409D01*
X55497039Y-75810476D01*
X55580790Y-75879210D01*
X55649524Y-75962961D01*
X55700591Y-76058502D01*
X55705382Y-76074297D01*
X55714759Y-76096936D01*
X55728373Y-76117311D01*
X55745700Y-76134638D01*
X55766075Y-76148252D01*
X55788714Y-76157629D01*
X55812747Y-76162410D01*
X55837251Y-76162410D01*
X55861285Y-76157630D01*
X55883924Y-76148253D01*
X55904299Y-76134639D01*
X55921626Y-76117312D01*
X55935240Y-76096937D01*
X55944618Y-76074297D01*
X55949409Y-76058502D01*
X56000476Y-75962961D01*
X56069210Y-75879210D01*
X56152961Y-75810476D01*
X56248502Y-75759409D01*
X56256128Y-75757096D01*
X56264299Y-75754617D01*
X56286936Y-75745241D01*
X56307311Y-75731627D01*
X56324638Y-75714300D01*
X56338252Y-75693925D01*
X56347629Y-75671286D01*
X56352410Y-75647253D01*
X56352410Y-75622749D01*
X56352410Y-75622747D01*
X56567590Y-75622747D01*
X56567590Y-75647251D01*
X56572370Y-75671285D01*
X56581747Y-75693924D01*
X56595361Y-75714299D01*
X56612688Y-75731626D01*
X56633063Y-75745240D01*
X56655701Y-75754617D01*
X56663872Y-75757096D01*
X56671498Y-75759409D01*
X56767039Y-75810476D01*
X56850790Y-75879210D01*
X56919524Y-75962961D01*
X56970591Y-76058502D01*
X56975382Y-76074297D01*
X56984759Y-76096936D01*
X56998373Y-76117311D01*
X57015700Y-76134638D01*
X57036075Y-76148252D01*
X57058714Y-76157629D01*
X57082747Y-76162410D01*
X57107251Y-76162410D01*
X57131285Y-76157630D01*
X57153924Y-76148253D01*
X57174299Y-76134639D01*
X57191626Y-76117312D01*
X57205240Y-76096937D01*
X57214618Y-76074297D01*
X57219409Y-76058502D01*
X57270476Y-75962961D01*
X57339210Y-75879210D01*
X57422961Y-75810476D01*
X57518502Y-75759409D01*
X57526128Y-75757096D01*
X57534299Y-75754617D01*
X57556936Y-75745241D01*
X57577311Y-75731627D01*
X57594638Y-75714300D01*
X57608252Y-75693925D01*
X57617629Y-75671286D01*
X57622410Y-75647253D01*
X57622410Y-75622749D01*
X57622410Y-75622747D01*
X57837590Y-75622747D01*
X57837590Y-75647251D01*
X57842370Y-75671285D01*
X57851747Y-75693924D01*
X57865361Y-75714299D01*
X57882688Y-75731626D01*
X57903063Y-75745240D01*
X57925701Y-75754617D01*
X57933872Y-75757096D01*
X57941498Y-75759409D01*
X58037039Y-75810476D01*
X58120790Y-75879210D01*
X58189524Y-75962961D01*
X58240591Y-76058502D01*
X58245382Y-76074297D01*
X58254759Y-76096936D01*
X58268373Y-76117311D01*
X58285700Y-76134638D01*
X58306075Y-76148252D01*
X58328714Y-76157629D01*
X58352747Y-76162410D01*
X58377251Y-76162410D01*
X58401285Y-76157630D01*
X58423924Y-76148253D01*
X58444299Y-76134639D01*
X58461626Y-76117312D01*
X58475240Y-76096937D01*
X58484618Y-76074297D01*
X58489409Y-76058502D01*
X58540476Y-75962961D01*
X58609210Y-75879210D01*
X58692961Y-75810476D01*
X58740176Y-75785240D01*
X58760551Y-75771627D01*
X58777878Y-75754300D01*
X58791492Y-75733925D01*
X58800869Y-75711286D01*
X58805650Y-75687253D01*
X58805650Y-75662748D01*
X58800870Y-75638715D01*
X58791492Y-75616076D01*
X58777879Y-75595701D01*
X58760552Y-75578374D01*
X58740177Y-75564760D01*
X58717538Y-75555383D01*
X58693505Y-75550602D01*
X58681252Y-75550000D01*
X58450000Y-75550000D01*
X58450000Y-75318748D01*
X58447598Y-75294362D01*
X58440485Y-75270913D01*
X58428934Y-75249302D01*
X58413388Y-75230360D01*
X58394446Y-75214814D01*
X58372835Y-75203263D01*
X58349386Y-75196150D01*
X58325000Y-75193748D01*
X58300614Y-75196150D01*
X58277165Y-75203263D01*
X58255554Y-75214814D01*
X58236612Y-75230360D01*
X58221066Y-75249302D01*
X58214760Y-75259824D01*
X58189524Y-75307039D01*
X58120790Y-75390790D01*
X58037039Y-75459524D01*
X57941498Y-75510591D01*
X57933872Y-75512904D01*
X57925701Y-75515383D01*
X57903064Y-75524759D01*
X57882689Y-75538373D01*
X57865362Y-75555700D01*
X57851748Y-75576075D01*
X57842371Y-75598714D01*
X57837590Y-75622747D01*
X57622410Y-75622747D01*
X57617630Y-75598715D01*
X57608253Y-75576076D01*
X57594639Y-75555701D01*
X57577312Y-75538374D01*
X57556937Y-75524760D01*
X57534299Y-75515383D01*
X57526128Y-75512904D01*
X57518502Y-75510591D01*
X57422961Y-75459524D01*
X57339210Y-75390790D01*
X57270476Y-75307039D01*
X57219409Y-75211498D01*
X57216911Y-75203263D01*
X57214617Y-75195701D01*
X57205241Y-75173064D01*
X57191627Y-75152689D01*
X57174300Y-75135362D01*
X57153925Y-75121748D01*
X57131286Y-75112371D01*
X57107253Y-75107590D01*
X57082749Y-75107590D01*
X57058715Y-75112370D01*
X57036076Y-75121747D01*
X57015701Y-75135361D01*
X56998374Y-75152688D01*
X56984760Y-75173063D01*
X56975383Y-75195701D01*
X56973089Y-75203263D01*
X56970591Y-75211498D01*
X56919524Y-75307039D01*
X56850790Y-75390790D01*
X56767039Y-75459524D01*
X56671498Y-75510591D01*
X56663872Y-75512904D01*
X56655701Y-75515383D01*
X56633064Y-75524759D01*
X56612689Y-75538373D01*
X56595362Y-75555700D01*
X56581748Y-75576075D01*
X56572371Y-75598714D01*
X56567590Y-75622747D01*
X56352410Y-75622747D01*
X56347630Y-75598715D01*
X56338253Y-75576076D01*
X56324639Y-75555701D01*
X56307312Y-75538374D01*
X56286937Y-75524760D01*
X56264299Y-75515383D01*
X56256128Y-75512904D01*
X56248502Y-75510591D01*
X56152961Y-75459524D01*
X56069210Y-75390790D01*
X56000476Y-75307039D01*
X55949409Y-75211498D01*
X55946911Y-75203263D01*
X55944617Y-75195701D01*
X55935241Y-75173064D01*
X55921627Y-75152689D01*
X55904300Y-75135362D01*
X55883925Y-75121748D01*
X55861286Y-75112371D01*
X55837253Y-75107590D01*
X55812749Y-75107590D01*
X55788715Y-75112370D01*
X55766076Y-75121747D01*
X55745701Y-75135361D01*
X55728374Y-75152688D01*
X55714760Y-75173063D01*
X55705383Y-75195701D01*
X55703089Y-75203263D01*
X55700591Y-75211498D01*
X55649524Y-75307039D01*
X55580790Y-75390790D01*
X55497039Y-75459524D01*
X55401498Y-75510591D01*
X55393872Y-75512904D01*
X55385701Y-75515383D01*
X55363064Y-75524759D01*
X55342689Y-75538373D01*
X55325362Y-75555700D01*
X55311748Y-75576075D01*
X55302371Y-75598714D01*
X55297590Y-75622747D01*
X55082410Y-75622747D01*
X55077630Y-75598715D01*
X55068253Y-75576076D01*
X55054639Y-75555701D01*
X55037312Y-75538374D01*
X55016937Y-75524760D01*
X54994299Y-75515383D01*
X54986128Y-75512904D01*
X54978502Y-75510591D01*
X54882961Y-75459524D01*
X54799210Y-75390790D01*
X54730476Y-75307039D01*
X54679409Y-75211498D01*
X54676911Y-75203263D01*
X54674617Y-75195701D01*
X54665241Y-75173064D01*
X54651627Y-75152689D01*
X54634300Y-75135362D01*
X54613925Y-75121748D01*
X54591286Y-75112371D01*
X54567253Y-75107590D01*
X54542749Y-75107590D01*
X54518715Y-75112370D01*
X54496076Y-75121747D01*
X54475701Y-75135361D01*
X54458374Y-75152688D01*
X54444760Y-75173063D01*
X54435383Y-75195701D01*
X54433089Y-75203263D01*
X54430591Y-75211498D01*
X54379524Y-75307039D01*
X54310790Y-75390790D01*
X54227039Y-75459524D01*
X54131498Y-75510591D01*
X54123872Y-75512904D01*
X54115701Y-75515383D01*
X54093064Y-75524759D01*
X54072689Y-75538373D01*
X54055362Y-75555700D01*
X54041748Y-75576075D01*
X54032371Y-75598714D01*
X54027590Y-75622747D01*
X53812410Y-75622747D01*
X53807630Y-75598715D01*
X53798253Y-75576076D01*
X53784639Y-75555701D01*
X53767312Y-75538374D01*
X53746937Y-75524760D01*
X53724299Y-75515383D01*
X53716128Y-75512904D01*
X53708502Y-75510591D01*
X53612961Y-75459524D01*
X53529210Y-75390790D01*
X53460476Y-75307039D01*
X53409409Y-75211498D01*
X53397750Y-75173063D01*
X53377958Y-75107819D01*
X53367339Y-75000000D01*
X53377958Y-74892181D01*
X53409408Y-74788506D01*
X53409409Y-74788502D01*
X53460476Y-74692961D01*
X53529210Y-74609210D01*
X53612961Y-74540476D01*
X53708502Y-74489409D01*
X53735482Y-74481225D01*
X53812181Y-74457958D01*
X53866048Y-74452653D01*
X53892981Y-74450000D01*
X53947019Y-74450000D01*
X53973952Y-74452653D01*
X53973952Y-74452653D01*
G37*
G36*
X75973952Y-74452653D02*
X76027819Y-74457958D01*
X76104518Y-74481225D01*
X76131498Y-74489409D01*
X76227039Y-74540476D01*
X76310790Y-74609210D01*
X76379524Y-74692961D01*
X76430591Y-74788502D01*
X76435382Y-74804297D01*
X76444759Y-74826936D01*
X76458373Y-74847311D01*
X76475700Y-74864638D01*
X76496075Y-74878252D01*
X76518714Y-74887629D01*
X76542747Y-74892410D01*
X76567251Y-74892410D01*
X76591285Y-74887630D01*
X76613924Y-74878253D01*
X76634299Y-74864639D01*
X76651626Y-74847312D01*
X76665240Y-74826937D01*
X76674618Y-74804297D01*
X76679409Y-74788502D01*
X76730476Y-74692961D01*
X76799210Y-74609210D01*
X76882961Y-74540476D01*
X76978502Y-74489409D01*
X77005482Y-74481225D01*
X77082181Y-74457958D01*
X77136048Y-74452653D01*
X77162981Y-74450000D01*
X77217019Y-74450000D01*
X77243952Y-74452653D01*
X77297819Y-74457958D01*
X77374518Y-74481225D01*
X77401498Y-74489409D01*
X77497039Y-74540476D01*
X77580790Y-74609210D01*
X77649524Y-74692961D01*
X77700591Y-74788502D01*
X77705382Y-74804297D01*
X77714759Y-74826936D01*
X77728373Y-74847311D01*
X77745700Y-74864638D01*
X77766075Y-74878252D01*
X77788714Y-74887629D01*
X77812747Y-74892410D01*
X77837251Y-74892410D01*
X77861285Y-74887630D01*
X77883924Y-74878253D01*
X77904299Y-74864639D01*
X77921626Y-74847312D01*
X77935240Y-74826937D01*
X77944618Y-74804297D01*
X77949409Y-74788502D01*
X78000476Y-74692961D01*
X78069210Y-74609210D01*
X78152961Y-74540476D01*
X78248502Y-74489409D01*
X78275482Y-74481225D01*
X78352181Y-74457958D01*
X78406048Y-74452653D01*
X78432981Y-74450000D01*
X78487019Y-74450000D01*
X78513952Y-74452653D01*
X78567819Y-74457958D01*
X78644518Y-74481225D01*
X78671498Y-74489409D01*
X78767039Y-74540476D01*
X78850790Y-74609210D01*
X78919524Y-74692961D01*
X78970591Y-74788502D01*
X78975382Y-74804297D01*
X78984759Y-74826936D01*
X78998373Y-74847311D01*
X79015700Y-74864638D01*
X79036075Y-74878252D01*
X79058714Y-74887629D01*
X79082747Y-74892410D01*
X79107251Y-74892410D01*
X79131285Y-74887630D01*
X79153924Y-74878253D01*
X79174299Y-74864639D01*
X79191626Y-74847312D01*
X79205240Y-74826937D01*
X79214618Y-74804297D01*
X79219409Y-74788502D01*
X79270476Y-74692961D01*
X79339210Y-74609210D01*
X79422961Y-74540476D01*
X79518502Y-74489409D01*
X79545482Y-74481225D01*
X79622181Y-74457958D01*
X79676048Y-74452653D01*
X79702981Y-74450000D01*
X79757019Y-74450000D01*
X79783952Y-74452653D01*
X79837819Y-74457958D01*
X79914518Y-74481225D01*
X79941498Y-74489409D01*
X80037039Y-74540476D01*
X80120790Y-74609210D01*
X80189524Y-74692961D01*
X80214760Y-74740176D01*
X80228373Y-74760551D01*
X80245700Y-74777878D01*
X80266075Y-74791492D01*
X80288714Y-74800869D01*
X80312747Y-74805650D01*
X80337252Y-74805650D01*
X80361285Y-74800870D01*
X80383924Y-74791492D01*
X80404299Y-74777879D01*
X80421626Y-74760552D01*
X80435240Y-74740177D01*
X80444617Y-74717538D01*
X80449398Y-74693505D01*
X80450000Y-74681252D01*
X80450000Y-74450000D01*
X81550000Y-74450000D01*
X81550000Y-75550000D01*
X81318748Y-75550000D01*
X81294362Y-75552402D01*
X81270913Y-75559515D01*
X81249302Y-75571066D01*
X81230360Y-75586612D01*
X81214814Y-75605554D01*
X81203263Y-75627165D01*
X81196150Y-75650614D01*
X81193748Y-75675000D01*
X81196150Y-75699386D01*
X81203263Y-75722835D01*
X81214814Y-75744446D01*
X81230360Y-75763388D01*
X81249302Y-75778934D01*
X81259824Y-75785240D01*
X81307039Y-75810476D01*
X81390790Y-75879210D01*
X81459524Y-75962961D01*
X81510591Y-76058502D01*
X81510592Y-76058506D01*
X81542042Y-76162181D01*
X81552661Y-76270000D01*
X81542042Y-76377819D01*
X81522250Y-76443063D01*
X81510591Y-76481498D01*
X81459524Y-76577039D01*
X81390790Y-76660790D01*
X81307039Y-76729524D01*
X81211498Y-76780591D01*
X81184518Y-76788775D01*
X81107819Y-76812042D01*
X81053952Y-76817347D01*
X81027019Y-76820000D01*
X80972981Y-76820000D01*
X80946048Y-76817347D01*
X80892181Y-76812042D01*
X80815482Y-76788775D01*
X80788502Y-76780591D01*
X80692961Y-76729524D01*
X80609210Y-76660790D01*
X80540476Y-76577039D01*
X80489409Y-76481498D01*
X80484618Y-76465703D01*
X80475241Y-76443064D01*
X80461627Y-76422689D01*
X80444300Y-76405362D01*
X80423925Y-76391748D01*
X80401286Y-76382371D01*
X80377253Y-76377590D01*
X80352749Y-76377590D01*
X80328715Y-76382370D01*
X80306076Y-76391747D01*
X80285701Y-76405361D01*
X80268374Y-76422688D01*
X80254760Y-76443063D01*
X80245382Y-76465703D01*
X80240591Y-76481498D01*
X80189524Y-76577039D01*
X80120790Y-76660790D01*
X80037039Y-76729524D01*
X79941498Y-76780591D01*
X79914518Y-76788775D01*
X79837819Y-76812042D01*
X79783952Y-76817347D01*
X79757019Y-76820000D01*
X79702981Y-76820000D01*
X79676048Y-76817347D01*
X79622181Y-76812042D01*
X79545482Y-76788775D01*
X79518502Y-76780591D01*
X79422961Y-76729524D01*
X79339210Y-76660790D01*
X79270476Y-76577039D01*
X79219409Y-76481498D01*
X79214618Y-76465703D01*
X79205241Y-76443064D01*
X79191627Y-76422689D01*
X79174300Y-76405362D01*
X79153925Y-76391748D01*
X79131286Y-76382371D01*
X79107253Y-76377590D01*
X79082749Y-76377590D01*
X79058715Y-76382370D01*
X79036076Y-76391747D01*
X79015701Y-76405361D01*
X78998374Y-76422688D01*
X78984760Y-76443063D01*
X78975382Y-76465703D01*
X78970591Y-76481498D01*
X78919524Y-76577039D01*
X78850790Y-76660790D01*
X78767039Y-76729524D01*
X78671498Y-76780591D01*
X78644518Y-76788775D01*
X78567819Y-76812042D01*
X78513952Y-76817347D01*
X78487019Y-76820000D01*
X78432981Y-76820000D01*
X78406048Y-76817347D01*
X78352181Y-76812042D01*
X78275482Y-76788775D01*
X78248502Y-76780591D01*
X78152961Y-76729524D01*
X78069210Y-76660790D01*
X78000476Y-76577039D01*
X77949409Y-76481498D01*
X77944618Y-76465703D01*
X77935241Y-76443064D01*
X77921627Y-76422689D01*
X77904300Y-76405362D01*
X77883925Y-76391748D01*
X77861286Y-76382371D01*
X77837253Y-76377590D01*
X77812749Y-76377590D01*
X77788715Y-76382370D01*
X77766076Y-76391747D01*
X77745701Y-76405361D01*
X77728374Y-76422688D01*
X77714760Y-76443063D01*
X77705382Y-76465703D01*
X77700591Y-76481498D01*
X77649524Y-76577039D01*
X77580790Y-76660790D01*
X77497039Y-76729524D01*
X77401498Y-76780591D01*
X77374518Y-76788775D01*
X77297819Y-76812042D01*
X77243952Y-76817347D01*
X77217019Y-76820000D01*
X77162981Y-76820000D01*
X77136048Y-76817347D01*
X77082181Y-76812042D01*
X77005482Y-76788775D01*
X76978502Y-76780591D01*
X76882961Y-76729524D01*
X76799210Y-76660790D01*
X76730476Y-76577039D01*
X76679409Y-76481498D01*
X76674618Y-76465703D01*
X76665241Y-76443064D01*
X76651627Y-76422689D01*
X76634300Y-76405362D01*
X76613925Y-76391748D01*
X76591286Y-76382371D01*
X76567253Y-76377590D01*
X76542749Y-76377590D01*
X76518715Y-76382370D01*
X76496076Y-76391747D01*
X76475701Y-76405361D01*
X76458374Y-76422688D01*
X76444760Y-76443063D01*
X76435382Y-76465703D01*
X76430591Y-76481498D01*
X76379524Y-76577039D01*
X76310790Y-76660790D01*
X76227039Y-76729524D01*
X76131498Y-76780591D01*
X76104518Y-76788775D01*
X76027819Y-76812042D01*
X75973952Y-76817347D01*
X75947019Y-76820000D01*
X75892981Y-76820000D01*
X75866048Y-76817347D01*
X75812181Y-76812042D01*
X75735482Y-76788775D01*
X75708502Y-76780591D01*
X75612961Y-76729524D01*
X75529210Y-76660790D01*
X75460476Y-76577039D01*
X75409409Y-76481498D01*
X75397750Y-76443063D01*
X75377958Y-76377819D01*
X75367339Y-76270000D01*
X75377958Y-76162181D01*
X75409408Y-76058506D01*
X75409409Y-76058502D01*
X75460476Y-75962961D01*
X75529210Y-75879210D01*
X75612961Y-75810476D01*
X75708502Y-75759409D01*
X75716128Y-75757096D01*
X75724299Y-75754617D01*
X75746936Y-75745241D01*
X75767311Y-75731627D01*
X75784638Y-75714300D01*
X75798252Y-75693925D01*
X75807629Y-75671286D01*
X75812410Y-75647253D01*
X75812410Y-75622749D01*
X75812410Y-75622747D01*
X76027590Y-75622747D01*
X76027590Y-75647251D01*
X76032370Y-75671285D01*
X76041747Y-75693924D01*
X76055361Y-75714299D01*
X76072688Y-75731626D01*
X76093063Y-75745240D01*
X76115701Y-75754617D01*
X76123872Y-75757096D01*
X76131498Y-75759409D01*
X76227039Y-75810476D01*
X76310790Y-75879210D01*
X76379524Y-75962961D01*
X76430591Y-76058502D01*
X76435382Y-76074297D01*
X76444759Y-76096936D01*
X76458373Y-76117311D01*
X76475700Y-76134638D01*
X76496075Y-76148252D01*
X76518714Y-76157629D01*
X76542747Y-76162410D01*
X76567251Y-76162410D01*
X76591285Y-76157630D01*
X76613924Y-76148253D01*
X76634299Y-76134639D01*
X76651626Y-76117312D01*
X76665240Y-76096937D01*
X76674618Y-76074297D01*
X76679409Y-76058502D01*
X76730476Y-75962961D01*
X76799210Y-75879210D01*
X76882961Y-75810476D01*
X76978502Y-75759409D01*
X76986128Y-75757096D01*
X76994299Y-75754617D01*
X77016936Y-75745241D01*
X77037311Y-75731627D01*
X77054638Y-75714300D01*
X77068252Y-75693925D01*
X77077629Y-75671286D01*
X77082410Y-75647253D01*
X77082410Y-75622749D01*
X77082410Y-75622747D01*
X77297590Y-75622747D01*
X77297590Y-75647251D01*
X77302370Y-75671285D01*
X77311747Y-75693924D01*
X77325361Y-75714299D01*
X77342688Y-75731626D01*
X77363063Y-75745240D01*
X77385701Y-75754617D01*
X77393872Y-75757096D01*
X77401498Y-75759409D01*
X77497039Y-75810476D01*
X77580790Y-75879210D01*
X77649524Y-75962961D01*
X77700591Y-76058502D01*
X77705382Y-76074297D01*
X77714759Y-76096936D01*
X77728373Y-76117311D01*
X77745700Y-76134638D01*
X77766075Y-76148252D01*
X77788714Y-76157629D01*
X77812747Y-76162410D01*
X77837251Y-76162410D01*
X77861285Y-76157630D01*
X77883924Y-76148253D01*
X77904299Y-76134639D01*
X77921626Y-76117312D01*
X77935240Y-76096937D01*
X77944618Y-76074297D01*
X77949409Y-76058502D01*
X78000476Y-75962961D01*
X78069210Y-75879210D01*
X78152961Y-75810476D01*
X78248502Y-75759409D01*
X78256128Y-75757096D01*
X78264299Y-75754617D01*
X78286936Y-75745241D01*
X78307311Y-75731627D01*
X78324638Y-75714300D01*
X78338252Y-75693925D01*
X78347629Y-75671286D01*
X78352410Y-75647253D01*
X78352410Y-75622749D01*
X78352410Y-75622747D01*
X78567590Y-75622747D01*
X78567590Y-75647251D01*
X78572370Y-75671285D01*
X78581747Y-75693924D01*
X78595361Y-75714299D01*
X78612688Y-75731626D01*
X78633063Y-75745240D01*
X78655701Y-75754617D01*
X78663872Y-75757096D01*
X78671498Y-75759409D01*
X78767039Y-75810476D01*
X78850790Y-75879210D01*
X78919524Y-75962961D01*
X78970591Y-76058502D01*
X78975382Y-76074297D01*
X78984759Y-76096936D01*
X78998373Y-76117311D01*
X79015700Y-76134638D01*
X79036075Y-76148252D01*
X79058714Y-76157629D01*
X79082747Y-76162410D01*
X79107251Y-76162410D01*
X79131285Y-76157630D01*
X79153924Y-76148253D01*
X79174299Y-76134639D01*
X79191626Y-76117312D01*
X79205240Y-76096937D01*
X79214618Y-76074297D01*
X79219409Y-76058502D01*
X79270476Y-75962961D01*
X79339210Y-75879210D01*
X79422961Y-75810476D01*
X79518502Y-75759409D01*
X79526128Y-75757096D01*
X79534299Y-75754617D01*
X79556936Y-75745241D01*
X79577311Y-75731627D01*
X79594638Y-75714300D01*
X79608252Y-75693925D01*
X79617629Y-75671286D01*
X79622410Y-75647253D01*
X79622410Y-75622749D01*
X79622410Y-75622747D01*
X79837590Y-75622747D01*
X79837590Y-75647251D01*
X79842370Y-75671285D01*
X79851747Y-75693924D01*
X79865361Y-75714299D01*
X79882688Y-75731626D01*
X79903063Y-75745240D01*
X79925701Y-75754617D01*
X79933872Y-75757096D01*
X79941498Y-75759409D01*
X80037039Y-75810476D01*
X80120790Y-75879210D01*
X80189524Y-75962961D01*
X80240591Y-76058502D01*
X80245382Y-76074297D01*
X80254759Y-76096936D01*
X80268373Y-76117311D01*
X80285700Y-76134638D01*
X80306075Y-76148252D01*
X80328714Y-76157629D01*
X80352747Y-76162410D01*
X80377251Y-76162410D01*
X80401285Y-76157630D01*
X80423924Y-76148253D01*
X80444299Y-76134639D01*
X80461626Y-76117312D01*
X80475240Y-76096937D01*
X80484618Y-76074297D01*
X80489409Y-76058502D01*
X80540476Y-75962961D01*
X80609210Y-75879210D01*
X80692961Y-75810476D01*
X80740176Y-75785240D01*
X80760551Y-75771627D01*
X80777878Y-75754300D01*
X80791492Y-75733925D01*
X80800869Y-75711286D01*
X80805650Y-75687253D01*
X80805650Y-75662748D01*
X80800870Y-75638715D01*
X80791492Y-75616076D01*
X80777879Y-75595701D01*
X80760552Y-75578374D01*
X80740177Y-75564760D01*
X80717538Y-75555383D01*
X80693505Y-75550602D01*
X80681252Y-75550000D01*
X80450000Y-75550000D01*
X80450000Y-75318748D01*
X80447598Y-75294362D01*
X80440485Y-75270913D01*
X80428934Y-75249302D01*
X80413388Y-75230360D01*
X80394446Y-75214814D01*
X80372835Y-75203263D01*
X80349386Y-75196150D01*
X80325000Y-75193748D01*
X80300614Y-75196150D01*
X80277165Y-75203263D01*
X80255554Y-75214814D01*
X80236612Y-75230360D01*
X80221066Y-75249302D01*
X80214760Y-75259824D01*
X80189524Y-75307039D01*
X80120790Y-75390790D01*
X80037039Y-75459524D01*
X79941498Y-75510591D01*
X79933872Y-75512904D01*
X79925701Y-75515383D01*
X79903064Y-75524759D01*
X79882689Y-75538373D01*
X79865362Y-75555700D01*
X79851748Y-75576075D01*
X79842371Y-75598714D01*
X79837590Y-75622747D01*
X79622410Y-75622747D01*
X79617630Y-75598715D01*
X79608253Y-75576076D01*
X79594639Y-75555701D01*
X79577312Y-75538374D01*
X79556937Y-75524760D01*
X79534299Y-75515383D01*
X79526128Y-75512904D01*
X79518502Y-75510591D01*
X79422961Y-75459524D01*
X79339210Y-75390790D01*
X79270476Y-75307039D01*
X79219409Y-75211498D01*
X79216911Y-75203263D01*
X79214617Y-75195701D01*
X79205241Y-75173064D01*
X79191627Y-75152689D01*
X79174300Y-75135362D01*
X79153925Y-75121748D01*
X79131286Y-75112371D01*
X79107253Y-75107590D01*
X79082749Y-75107590D01*
X79058715Y-75112370D01*
X79036076Y-75121747D01*
X79015701Y-75135361D01*
X78998374Y-75152688D01*
X78984760Y-75173063D01*
X78975383Y-75195701D01*
X78973089Y-75203263D01*
X78970591Y-75211498D01*
X78919524Y-75307039D01*
X78850790Y-75390790D01*
X78767039Y-75459524D01*
X78671498Y-75510591D01*
X78663872Y-75512904D01*
X78655701Y-75515383D01*
X78633064Y-75524759D01*
X78612689Y-75538373D01*
X78595362Y-75555700D01*
X78581748Y-75576075D01*
X78572371Y-75598714D01*
X78567590Y-75622747D01*
X78352410Y-75622747D01*
X78347630Y-75598715D01*
X78338253Y-75576076D01*
X78324639Y-75555701D01*
X78307312Y-75538374D01*
X78286937Y-75524760D01*
X78264299Y-75515383D01*
X78256128Y-75512904D01*
X78248502Y-75510591D01*
X78152961Y-75459524D01*
X78069210Y-75390790D01*
X78000476Y-75307039D01*
X77949409Y-75211498D01*
X77946911Y-75203263D01*
X77944617Y-75195701D01*
X77935241Y-75173064D01*
X77921627Y-75152689D01*
X77904300Y-75135362D01*
X77883925Y-75121748D01*
X77861286Y-75112371D01*
X77837253Y-75107590D01*
X77812749Y-75107590D01*
X77788715Y-75112370D01*
X77766076Y-75121747D01*
X77745701Y-75135361D01*
X77728374Y-75152688D01*
X77714760Y-75173063D01*
X77705383Y-75195701D01*
X77703089Y-75203263D01*
X77700591Y-75211498D01*
X77649524Y-75307039D01*
X77580790Y-75390790D01*
X77497039Y-75459524D01*
X77401498Y-75510591D01*
X77393872Y-75512904D01*
X77385701Y-75515383D01*
X77363064Y-75524759D01*
X77342689Y-75538373D01*
X77325362Y-75555700D01*
X77311748Y-75576075D01*
X77302371Y-75598714D01*
X77297590Y-75622747D01*
X77082410Y-75622747D01*
X77077630Y-75598715D01*
X77068253Y-75576076D01*
X77054639Y-75555701D01*
X77037312Y-75538374D01*
X77016937Y-75524760D01*
X76994299Y-75515383D01*
X76986128Y-75512904D01*
X76978502Y-75510591D01*
X76882961Y-75459524D01*
X76799210Y-75390790D01*
X76730476Y-75307039D01*
X76679409Y-75211498D01*
X76676911Y-75203263D01*
X76674617Y-75195701D01*
X76665241Y-75173064D01*
X76651627Y-75152689D01*
X76634300Y-75135362D01*
X76613925Y-75121748D01*
X76591286Y-75112371D01*
X76567253Y-75107590D01*
X76542749Y-75107590D01*
X76518715Y-75112370D01*
X76496076Y-75121747D01*
X76475701Y-75135361D01*
X76458374Y-75152688D01*
X76444760Y-75173063D01*
X76435383Y-75195701D01*
X76433089Y-75203263D01*
X76430591Y-75211498D01*
X76379524Y-75307039D01*
X76310790Y-75390790D01*
X76227039Y-75459524D01*
X76131498Y-75510591D01*
X76123872Y-75512904D01*
X76115701Y-75515383D01*
X76093064Y-75524759D01*
X76072689Y-75538373D01*
X76055362Y-75555700D01*
X76041748Y-75576075D01*
X76032371Y-75598714D01*
X76027590Y-75622747D01*
X75812410Y-75622747D01*
X75807630Y-75598715D01*
X75798253Y-75576076D01*
X75784639Y-75555701D01*
X75767312Y-75538374D01*
X75746937Y-75524760D01*
X75724299Y-75515383D01*
X75716128Y-75512904D01*
X75708502Y-75510591D01*
X75612961Y-75459524D01*
X75529210Y-75390790D01*
X75460476Y-75307039D01*
X75409409Y-75211498D01*
X75397750Y-75173063D01*
X75377958Y-75107819D01*
X75367339Y-75000000D01*
X75377958Y-74892181D01*
X75409408Y-74788506D01*
X75409409Y-74788502D01*
X75460476Y-74692961D01*
X75529210Y-74609210D01*
X75612961Y-74540476D01*
X75708502Y-74489409D01*
X75735482Y-74481225D01*
X75812181Y-74457958D01*
X75866048Y-74452653D01*
X75892981Y-74450000D01*
X75947019Y-74450000D01*
X75973952Y-74452653D01*
X75973952Y-74452653D01*
G37*
G36*
X61225000Y-73290000D02*
X59425000Y-73290000D01*
X59425000Y-71490000D01*
X61225000Y-71490000D01*
X61225000Y-73290000D01*
X61225000Y-73290000D01*
G37*
G36*
X96645888Y-70654470D02*
X96826274Y-70690350D01*
X97017362Y-70769502D01*
X97189336Y-70884411D01*
X97335589Y-71030664D01*
X97450498Y-71202638D01*
X97529650Y-71393726D01*
X97570000Y-71596584D01*
X97570000Y-71803416D01*
X97529650Y-72006274D01*
X97450498Y-72197362D01*
X97335589Y-72369336D01*
X97189336Y-72515589D01*
X97017362Y-72630498D01*
X96826274Y-72709650D01*
X96645888Y-72745530D01*
X96623417Y-72750000D01*
X96416583Y-72750000D01*
X96394112Y-72745530D01*
X96213726Y-72709650D01*
X96022638Y-72630498D01*
X95850664Y-72515589D01*
X95704411Y-72369336D01*
X95589502Y-72197362D01*
X95510350Y-72006274D01*
X95470000Y-71803416D01*
X95470000Y-71596584D01*
X95510350Y-71393726D01*
X95589502Y-71202638D01*
X95704411Y-71030664D01*
X95850664Y-70884411D01*
X96022638Y-70769502D01*
X96213726Y-70690350D01*
X96394112Y-70654470D01*
X96416583Y-70650000D01*
X96623417Y-70650000D01*
X96645888Y-70654470D01*
X96645888Y-70654470D01*
G37*
G36*
X103145888Y-70654470D02*
X103326274Y-70690350D01*
X103517362Y-70769502D01*
X103689336Y-70884411D01*
X103835589Y-71030664D01*
X103950498Y-71202638D01*
X104029650Y-71393726D01*
X104070000Y-71596584D01*
X104070000Y-71803416D01*
X104029650Y-72006274D01*
X103950498Y-72197362D01*
X103835589Y-72369336D01*
X103689336Y-72515589D01*
X103517362Y-72630498D01*
X103326274Y-72709650D01*
X103145888Y-72745530D01*
X103123417Y-72750000D01*
X102916583Y-72750000D01*
X102894112Y-72745530D01*
X102713726Y-72709650D01*
X102522638Y-72630498D01*
X102350664Y-72515589D01*
X102204411Y-72369336D01*
X102089502Y-72197362D01*
X102010350Y-72006274D01*
X101970000Y-71803416D01*
X101970000Y-71596584D01*
X102010350Y-71393726D01*
X102089502Y-71202638D01*
X102204411Y-71030664D01*
X102350664Y-70884411D01*
X102522638Y-70769502D01*
X102713726Y-70690350D01*
X102894112Y-70654470D01*
X102916583Y-70650000D01*
X103123417Y-70650000D01*
X103145888Y-70654470D01*
X103145888Y-70654470D01*
G37*
G36*
X60501432Y-68963022D02*
X60671081Y-69014485D01*
X60827433Y-69098056D01*
X60964475Y-69210525D01*
X61076944Y-69347567D01*
X61160515Y-69503919D01*
X61211978Y-69673568D01*
X61229354Y-69850000D01*
X61211978Y-70026432D01*
X61160515Y-70196081D01*
X61076944Y-70352433D01*
X60964475Y-70489475D01*
X60827433Y-70601944D01*
X60671081Y-70685515D01*
X60501432Y-70736978D01*
X60369211Y-70750000D01*
X60280789Y-70750000D01*
X60148568Y-70736978D01*
X59978919Y-70685515D01*
X59822567Y-70601944D01*
X59685525Y-70489475D01*
X59573056Y-70352433D01*
X59489485Y-70196081D01*
X59438022Y-70026432D01*
X59420646Y-69850000D01*
X59438022Y-69673568D01*
X59489485Y-69503919D01*
X59573056Y-69347567D01*
X59685525Y-69210525D01*
X59822567Y-69098056D01*
X59978919Y-69014485D01*
X60148568Y-68963022D01*
X60280789Y-68950000D01*
X60369211Y-68950000D01*
X60501432Y-68963022D01*
X60501432Y-68963022D01*
G37*
G36*
X60501432Y-66423022D02*
X60671081Y-66474485D01*
X60827433Y-66558056D01*
X60964475Y-66670525D01*
X61076944Y-66807567D01*
X61160515Y-66963919D01*
X61211978Y-67133568D01*
X61229354Y-67310000D01*
X61211978Y-67486432D01*
X61160515Y-67656081D01*
X61076944Y-67812433D01*
X60964475Y-67949475D01*
X60827433Y-68061944D01*
X60671081Y-68145515D01*
X60501432Y-68196978D01*
X60369211Y-68210000D01*
X60280789Y-68210000D01*
X60148568Y-68196978D01*
X59978919Y-68145515D01*
X59822567Y-68061944D01*
X59685525Y-67949475D01*
X59573056Y-67812433D01*
X59489485Y-67656081D01*
X59438022Y-67486432D01*
X59420646Y-67310000D01*
X59438022Y-67133568D01*
X59489485Y-66963919D01*
X59573056Y-66807567D01*
X59685525Y-66670525D01*
X59822567Y-66558056D01*
X59978919Y-66474485D01*
X60148568Y-66423022D01*
X60280789Y-66410000D01*
X60369211Y-66410000D01*
X60501432Y-66423022D01*
X60501432Y-66423022D01*
G37*
G36*
X60501432Y-63883022D02*
X60671081Y-63934485D01*
X60827433Y-64018056D01*
X60964475Y-64130525D01*
X61076944Y-64267567D01*
X61160515Y-64423919D01*
X61211978Y-64593568D01*
X61229354Y-64770000D01*
X61211978Y-64946432D01*
X61160515Y-65116081D01*
X61076944Y-65272433D01*
X60964475Y-65409475D01*
X60827433Y-65521944D01*
X60671081Y-65605515D01*
X60501432Y-65656978D01*
X60369211Y-65670000D01*
X60280789Y-65670000D01*
X60148568Y-65656978D01*
X59978919Y-65605515D01*
X59822567Y-65521944D01*
X59685525Y-65409475D01*
X59573056Y-65272433D01*
X59489485Y-65116081D01*
X59438022Y-64946432D01*
X59420646Y-64770000D01*
X59438022Y-64593568D01*
X59489485Y-64423919D01*
X59573056Y-64267567D01*
X59685525Y-64130525D01*
X59822567Y-64018056D01*
X59978919Y-63934485D01*
X60148568Y-63883022D01*
X60280789Y-63870000D01*
X60369211Y-63870000D01*
X60501432Y-63883022D01*
X60501432Y-63883022D01*
G37*
G36*
X108039590Y-64417045D02*
X108110429Y-64431136D01*
X108210523Y-64472597D01*
X108300607Y-64532789D01*
X108377211Y-64609393D01*
X108377213Y-64609396D01*
X108437403Y-64699477D01*
X108478864Y-64799571D01*
X108500000Y-64905830D01*
X108500000Y-65014170D01*
X108478864Y-65120429D01*
X108437403Y-65220523D01*
X108377211Y-65310607D01*
X108300607Y-65387211D01*
X108300604Y-65387213D01*
X108210523Y-65447403D01*
X108110429Y-65488864D01*
X108039590Y-65502955D01*
X108004171Y-65510000D01*
X107895829Y-65510000D01*
X107860410Y-65502955D01*
X107789571Y-65488864D01*
X107689477Y-65447403D01*
X107599396Y-65387213D01*
X107599393Y-65387211D01*
X107522789Y-65310607D01*
X107462597Y-65220523D01*
X107421136Y-65120429D01*
X107400000Y-65014170D01*
X107400000Y-64905830D01*
X107421136Y-64799571D01*
X107462597Y-64699477D01*
X107522787Y-64609396D01*
X107522789Y-64609393D01*
X107599393Y-64532789D01*
X107689477Y-64472597D01*
X107789571Y-64431136D01*
X107860410Y-64417045D01*
X107895829Y-64410000D01*
X108004171Y-64410000D01*
X108039590Y-64417045D01*
X108039590Y-64417045D01*
G37*
G36*
X52898348Y-59206597D02*
X52956858Y-59224347D01*
X53010777Y-59253167D01*
X53058043Y-59291957D01*
X53096833Y-59339223D01*
X53125653Y-59393142D01*
X53143403Y-59451652D01*
X53150000Y-59518639D01*
X53150000Y-60381361D01*
X53143403Y-60448348D01*
X53125653Y-60506858D01*
X53096833Y-60560777D01*
X53058043Y-60608043D01*
X53010777Y-60646833D01*
X52956858Y-60675653D01*
X52898348Y-60693403D01*
X52831361Y-60700000D01*
X51068639Y-60700000D01*
X51001652Y-60693403D01*
X50943142Y-60675653D01*
X50889223Y-60646833D01*
X50841957Y-60608043D01*
X50803167Y-60560777D01*
X50774347Y-60506858D01*
X50756597Y-60448348D01*
X50750000Y-60381361D01*
X50750000Y-59518639D01*
X50756597Y-59451652D01*
X50774347Y-59393142D01*
X50803167Y-59339223D01*
X50841957Y-59291957D01*
X50889223Y-59253167D01*
X50943142Y-59224347D01*
X51001652Y-59206597D01*
X51068639Y-59200000D01*
X52831361Y-59200000D01*
X52898348Y-59206597D01*
X52898348Y-59206597D01*
G37*
G36*
X56898348Y-59206597D02*
X56956858Y-59224347D01*
X57010777Y-59253167D01*
X57058043Y-59291957D01*
X57096833Y-59339223D01*
X57125653Y-59393142D01*
X57143403Y-59451652D01*
X57150000Y-59518639D01*
X57150000Y-60381361D01*
X57143403Y-60448348D01*
X57125653Y-60506858D01*
X57096833Y-60560777D01*
X57058043Y-60608043D01*
X57010777Y-60646833D01*
X56956858Y-60675653D01*
X56898348Y-60693403D01*
X56831361Y-60700000D01*
X55068639Y-60700000D01*
X55001652Y-60693403D01*
X54943142Y-60675653D01*
X54889223Y-60646833D01*
X54841957Y-60608043D01*
X54803167Y-60560777D01*
X54774347Y-60506858D01*
X54756597Y-60448348D01*
X54750000Y-60381361D01*
X54750000Y-59518639D01*
X54756597Y-59451652D01*
X54774347Y-59393142D01*
X54803167Y-59339223D01*
X54841957Y-59291957D01*
X54889223Y-59253167D01*
X54943142Y-59224347D01*
X55001652Y-59206597D01*
X55068639Y-59200000D01*
X56831361Y-59200000D01*
X56898348Y-59206597D01*
X56898348Y-59206597D01*
G37*
G36*
X91673352Y-56942743D02*
X91818941Y-57003048D01*
X91949973Y-57090601D01*
X92061399Y-57202027D01*
X92148952Y-57333059D01*
X92209257Y-57478648D01*
X92240000Y-57633205D01*
X92240000Y-57790795D01*
X92209257Y-57945352D01*
X92148952Y-58090941D01*
X92061399Y-58221973D01*
X91949973Y-58333399D01*
X91818941Y-58420952D01*
X91673352Y-58481257D01*
X91518795Y-58512000D01*
X91361205Y-58512000D01*
X91206648Y-58481257D01*
X91061059Y-58420952D01*
X90930027Y-58333399D01*
X90818601Y-58221973D01*
X90731048Y-58090941D01*
X90670743Y-57945352D01*
X90640000Y-57790795D01*
X90640000Y-57633205D01*
X90670743Y-57478648D01*
X90731048Y-57333059D01*
X90818601Y-57202027D01*
X90930027Y-57090601D01*
X91061059Y-57003048D01*
X91206648Y-56942743D01*
X91361205Y-56912000D01*
X91518795Y-56912000D01*
X91673352Y-56942743D01*
X91673352Y-56942743D01*
G37*
G36*
X108039590Y-56417045D02*
X108110429Y-56431136D01*
X108210523Y-56472597D01*
X108300607Y-56532789D01*
X108377211Y-56609393D01*
X108377213Y-56609396D01*
X108437403Y-56699477D01*
X108478864Y-56799571D01*
X108500000Y-56905830D01*
X108500000Y-57014170D01*
X108478864Y-57120429D01*
X108445064Y-57202027D01*
X108437403Y-57220523D01*
X108377211Y-57310607D01*
X108300607Y-57387211D01*
X108300604Y-57387213D01*
X108210523Y-57447403D01*
X108110429Y-57488864D01*
X108039590Y-57502955D01*
X108004171Y-57510000D01*
X107895829Y-57510000D01*
X107860410Y-57502955D01*
X107789571Y-57488864D01*
X107689477Y-57447403D01*
X107599396Y-57387213D01*
X107599393Y-57387211D01*
X107522789Y-57310607D01*
X107462597Y-57220523D01*
X107454936Y-57202027D01*
X107421136Y-57120429D01*
X107400000Y-57014170D01*
X107400000Y-56905830D01*
X107421136Y-56799571D01*
X107462597Y-56699477D01*
X107522787Y-56609396D01*
X107522789Y-56609393D01*
X107599393Y-56532789D01*
X107689477Y-56472597D01*
X107789571Y-56431136D01*
X107860410Y-56417045D01*
X107895829Y-56410000D01*
X108004171Y-56410000D01*
X108039590Y-56417045D01*
X108039590Y-56417045D01*
G37*
G36*
X91673352Y-52062743D02*
X91818941Y-52123048D01*
X91949973Y-52210601D01*
X92061399Y-52322027D01*
X92148952Y-52453059D01*
X92209257Y-52598648D01*
X92240000Y-52753205D01*
X92240000Y-52910795D01*
X92209257Y-53065352D01*
X92148952Y-53210941D01*
X92061399Y-53341973D01*
X91949973Y-53453399D01*
X91818941Y-53540952D01*
X91673352Y-53601257D01*
X91518795Y-53632000D01*
X91361205Y-53632000D01*
X91206648Y-53601257D01*
X91061059Y-53540952D01*
X90930027Y-53453399D01*
X90818601Y-53341973D01*
X90731048Y-53210941D01*
X90670743Y-53065352D01*
X90640000Y-52910795D01*
X90640000Y-52753205D01*
X90670743Y-52598648D01*
X90731048Y-52453059D01*
X90818601Y-52322027D01*
X90930027Y-52210601D01*
X91061059Y-52123048D01*
X91206648Y-52062743D01*
X91361205Y-52032000D01*
X91518795Y-52032000D01*
X91673352Y-52062743D01*
X91673352Y-52062743D01*
G37*
G36*
X52898348Y-49306597D02*
X52956858Y-49324347D01*
X53010777Y-49353167D01*
X53058043Y-49391957D01*
X53096833Y-49439223D01*
X53125653Y-49493142D01*
X53143403Y-49551652D01*
X53150000Y-49618639D01*
X53150000Y-50481361D01*
X53143403Y-50548348D01*
X53125653Y-50606858D01*
X53096833Y-50660777D01*
X53058043Y-50708043D01*
X53010777Y-50746833D01*
X52956858Y-50775653D01*
X52898348Y-50793403D01*
X52831361Y-50800000D01*
X51068639Y-50800000D01*
X51001652Y-50793403D01*
X50943142Y-50775653D01*
X50889223Y-50746833D01*
X50841957Y-50708043D01*
X50803167Y-50660777D01*
X50774347Y-50606858D01*
X50756597Y-50548348D01*
X50750000Y-50481361D01*
X50750000Y-49618639D01*
X50756597Y-49551652D01*
X50774347Y-49493142D01*
X50803167Y-49439223D01*
X50841957Y-49391957D01*
X50889223Y-49353167D01*
X50943142Y-49324347D01*
X51001652Y-49306597D01*
X51068639Y-49300000D01*
X52831361Y-49300000D01*
X52898348Y-49306597D01*
X52898348Y-49306597D01*
G37*
G36*
X56898348Y-49306597D02*
X56956858Y-49324347D01*
X57010777Y-49353167D01*
X57058043Y-49391957D01*
X57096833Y-49439223D01*
X57125653Y-49493142D01*
X57143403Y-49551652D01*
X57150000Y-49618639D01*
X57150000Y-50481361D01*
X57143403Y-50548348D01*
X57125653Y-50606858D01*
X57096833Y-50660777D01*
X57058043Y-50708043D01*
X57010777Y-50746833D01*
X56956858Y-50775653D01*
X56898348Y-50793403D01*
X56831361Y-50800000D01*
X55068639Y-50800000D01*
X55001652Y-50793403D01*
X54943142Y-50775653D01*
X54889223Y-50746833D01*
X54841957Y-50708043D01*
X54803167Y-50660777D01*
X54774347Y-50606858D01*
X54756597Y-50548348D01*
X54750000Y-50481361D01*
X54750000Y-49618639D01*
X54756597Y-49551652D01*
X54774347Y-49493142D01*
X54803167Y-49439223D01*
X54841957Y-49391957D01*
X54889223Y-49353167D01*
X54943142Y-49324347D01*
X55001652Y-49306597D01*
X55068639Y-49300000D01*
X56831361Y-49300000D01*
X56898348Y-49306597D01*
X56898348Y-49306597D01*
G37*
G36*
X103145888Y-46634470D02*
X103326274Y-46670350D01*
X103517362Y-46749502D01*
X103689336Y-46864411D01*
X103835589Y-47010664D01*
X103950498Y-47182638D01*
X104029650Y-47373726D01*
X104070000Y-47576584D01*
X104070000Y-47783416D01*
X104029650Y-47986274D01*
X103950498Y-48177362D01*
X103835589Y-48349336D01*
X103689336Y-48495589D01*
X103517362Y-48610498D01*
X103326274Y-48689650D01*
X103145888Y-48725530D01*
X103123417Y-48730000D01*
X102916583Y-48730000D01*
X102894112Y-48725530D01*
X102713726Y-48689650D01*
X102522638Y-48610498D01*
X102350664Y-48495589D01*
X102204411Y-48349336D01*
X102089502Y-48177362D01*
X102010350Y-47986274D01*
X101970000Y-47783416D01*
X101970000Y-47576584D01*
X102010350Y-47373726D01*
X102089502Y-47182638D01*
X102204411Y-47010664D01*
X102350664Y-46864411D01*
X102522638Y-46749502D01*
X102713726Y-46670350D01*
X102894112Y-46634470D01*
X102916583Y-46630000D01*
X103123417Y-46630000D01*
X103145888Y-46634470D01*
X103145888Y-46634470D01*
G37*
G36*
X96645888Y-46634470D02*
X96826274Y-46670350D01*
X97017362Y-46749502D01*
X97189336Y-46864411D01*
X97335589Y-47010664D01*
X97450498Y-47182638D01*
X97529650Y-47373726D01*
X97570000Y-47576584D01*
X97570000Y-47783416D01*
X97529650Y-47986274D01*
X97450498Y-48177362D01*
X97335589Y-48349336D01*
X97189336Y-48495589D01*
X97017362Y-48610498D01*
X96826274Y-48689650D01*
X96645888Y-48725530D01*
X96623417Y-48730000D01*
X96416583Y-48730000D01*
X96394112Y-48725530D01*
X96213726Y-48689650D01*
X96022638Y-48610498D01*
X95850664Y-48495589D01*
X95704411Y-48349336D01*
X95589502Y-48177362D01*
X95510350Y-47986274D01*
X95470000Y-47783416D01*
X95470000Y-47576584D01*
X95510350Y-47373726D01*
X95589502Y-47182638D01*
X95704411Y-47010664D01*
X95850664Y-46864411D01*
X96022638Y-46749502D01*
X96213726Y-46670350D01*
X96394112Y-46634470D01*
X96416583Y-46630000D01*
X96623417Y-46630000D01*
X96645888Y-46634470D01*
X96645888Y-46634470D01*
G37*
G36*
X110335443Y-44394194D02*
X110544728Y-44480883D01*
X110733085Y-44606739D01*
X110893261Y-44766915D01*
X111019117Y-44955272D01*
X111105806Y-45164557D01*
X111150000Y-45386734D01*
X111150000Y-45613266D01*
X111105806Y-45835443D01*
X111019117Y-46044728D01*
X110893261Y-46233085D01*
X110733085Y-46393261D01*
X110544728Y-46519117D01*
X110335443Y-46605806D01*
X110113266Y-46650000D01*
X109886734Y-46650000D01*
X109664557Y-46605806D01*
X109455272Y-46519117D01*
X109266915Y-46393261D01*
X109106739Y-46233085D01*
X108980883Y-46044728D01*
X108894194Y-45835443D01*
X108850000Y-45613266D01*
X108850000Y-45386734D01*
X108894194Y-45164557D01*
X108980883Y-44955272D01*
X109106739Y-44766915D01*
X109266915Y-44606739D01*
X109455272Y-44480883D01*
X109664557Y-44394194D01*
X109886734Y-44350000D01*
X110113266Y-44350000D01*
X110335443Y-44394194D01*
X110335443Y-44394194D01*
G37*
G36*
X96645888Y-42134470D02*
X96826274Y-42170350D01*
X97017362Y-42249502D01*
X97189336Y-42364411D01*
X97335589Y-42510664D01*
X97450498Y-42682638D01*
X97529650Y-42873726D01*
X97570000Y-43076584D01*
X97570000Y-43283416D01*
X97529650Y-43486274D01*
X97450498Y-43677362D01*
X97335589Y-43849336D01*
X97189336Y-43995589D01*
X97017362Y-44110498D01*
X96826274Y-44189650D01*
X96645888Y-44225530D01*
X96623417Y-44230000D01*
X96416583Y-44230000D01*
X96394112Y-44225530D01*
X96213726Y-44189650D01*
X96022638Y-44110498D01*
X95850664Y-43995589D01*
X95704411Y-43849336D01*
X95589502Y-43677362D01*
X95510350Y-43486274D01*
X95470000Y-43283416D01*
X95470000Y-43076584D01*
X95510350Y-42873726D01*
X95589502Y-42682638D01*
X95704411Y-42510664D01*
X95850664Y-42364411D01*
X96022638Y-42249502D01*
X96213726Y-42170350D01*
X96394112Y-42134470D01*
X96416583Y-42130000D01*
X96623417Y-42130000D01*
X96645888Y-42134470D01*
X96645888Y-42134470D01*
G37*
G36*
X103145888Y-42134470D02*
X103326274Y-42170350D01*
X103517362Y-42249502D01*
X103689336Y-42364411D01*
X103835589Y-42510664D01*
X103950498Y-42682638D01*
X104029650Y-42873726D01*
X104070000Y-43076584D01*
X104070000Y-43283416D01*
X104029650Y-43486274D01*
X103950498Y-43677362D01*
X103835589Y-43849336D01*
X103689336Y-43995589D01*
X103517362Y-44110498D01*
X103326274Y-44189650D01*
X103145888Y-44225530D01*
X103123417Y-44230000D01*
X102916583Y-44230000D01*
X102894112Y-44225530D01*
X102713726Y-44189650D01*
X102522638Y-44110498D01*
X102350664Y-43995589D01*
X102204411Y-43849336D01*
X102089502Y-43677362D01*
X102010350Y-43486274D01*
X101970000Y-43283416D01*
X101970000Y-43076584D01*
X102010350Y-42873726D01*
X102089502Y-42682638D01*
X102204411Y-42510664D01*
X102350664Y-42364411D01*
X102522638Y-42249502D01*
X102713726Y-42170350D01*
X102894112Y-42134470D01*
X102916583Y-42130000D01*
X103123417Y-42130000D01*
X103145888Y-42134470D01*
X103145888Y-42134470D01*
G37*
G36*
X72716432Y-41113022D02*
X72886081Y-41164485D01*
X73042433Y-41248056D01*
X73179475Y-41360525D01*
X73291944Y-41497567D01*
X73375515Y-41653919D01*
X73426978Y-41823568D01*
X73444354Y-42000000D01*
X73426978Y-42176432D01*
X73375515Y-42346081D01*
X73291944Y-42502433D01*
X73179475Y-42639475D01*
X73042433Y-42751944D01*
X72886081Y-42835515D01*
X72716432Y-42886978D01*
X72584211Y-42900000D01*
X72495789Y-42900000D01*
X72363568Y-42886978D01*
X72193919Y-42835515D01*
X72037567Y-42751944D01*
X71900525Y-42639475D01*
X71788056Y-42502433D01*
X71704485Y-42346081D01*
X71653022Y-42176432D01*
X71635646Y-42000000D01*
X71653022Y-41823568D01*
X71704485Y-41653919D01*
X71788056Y-41497567D01*
X71900525Y-41360525D01*
X72037567Y-41248056D01*
X72193919Y-41164485D01*
X72363568Y-41113022D01*
X72495789Y-41100000D01*
X72584211Y-41100000D01*
X72716432Y-41113022D01*
X72716432Y-41113022D01*
G37*
G36*
X77796432Y-41113022D02*
X77966081Y-41164485D01*
X78122433Y-41248056D01*
X78259475Y-41360525D01*
X78371944Y-41497567D01*
X78455515Y-41653919D01*
X78506978Y-41823568D01*
X78524354Y-42000000D01*
X78506978Y-42176432D01*
X78455515Y-42346081D01*
X78371944Y-42502433D01*
X78259475Y-42639475D01*
X78122433Y-42751944D01*
X77966081Y-42835515D01*
X77796432Y-42886978D01*
X77664211Y-42900000D01*
X77575789Y-42900000D01*
X77443568Y-42886978D01*
X77273919Y-42835515D01*
X77117567Y-42751944D01*
X76980525Y-42639475D01*
X76868056Y-42502433D01*
X76784485Y-42346081D01*
X76733022Y-42176432D01*
X76715646Y-42000000D01*
X76733022Y-41823568D01*
X76784485Y-41653919D01*
X76868056Y-41497567D01*
X76980525Y-41360525D01*
X77117567Y-41248056D01*
X77273919Y-41164485D01*
X77443568Y-41113022D01*
X77575789Y-41100000D01*
X77664211Y-41100000D01*
X77796432Y-41113022D01*
X77796432Y-41113022D01*
G37*
G36*
X70176432Y-41113022D02*
X70346081Y-41164485D01*
X70502433Y-41248056D01*
X70639475Y-41360525D01*
X70751944Y-41497567D01*
X70835515Y-41653919D01*
X70886978Y-41823568D01*
X70904354Y-42000000D01*
X70886978Y-42176432D01*
X70835515Y-42346081D01*
X70751944Y-42502433D01*
X70639475Y-42639475D01*
X70502433Y-42751944D01*
X70346081Y-42835515D01*
X70176432Y-42886978D01*
X70044211Y-42900000D01*
X69955789Y-42900000D01*
X69823568Y-42886978D01*
X69653919Y-42835515D01*
X69497567Y-42751944D01*
X69360525Y-42639475D01*
X69248056Y-42502433D01*
X69164485Y-42346081D01*
X69113022Y-42176432D01*
X69095646Y-42000000D01*
X69113022Y-41823568D01*
X69164485Y-41653919D01*
X69248056Y-41497567D01*
X69360525Y-41360525D01*
X69497567Y-41248056D01*
X69653919Y-41164485D01*
X69823568Y-41113022D01*
X69955789Y-41100000D01*
X70044211Y-41100000D01*
X70176432Y-41113022D01*
X70176432Y-41113022D01*
G37*
G36*
X67636432Y-41113022D02*
X67806081Y-41164485D01*
X67962433Y-41248056D01*
X68099475Y-41360525D01*
X68211944Y-41497567D01*
X68295515Y-41653919D01*
X68346978Y-41823568D01*
X68364354Y-42000000D01*
X68346978Y-42176432D01*
X68295515Y-42346081D01*
X68211944Y-42502433D01*
X68099475Y-42639475D01*
X67962433Y-42751944D01*
X67806081Y-42835515D01*
X67636432Y-42886978D01*
X67504211Y-42900000D01*
X67415789Y-42900000D01*
X67283568Y-42886978D01*
X67113919Y-42835515D01*
X66957567Y-42751944D01*
X66820525Y-42639475D01*
X66708056Y-42502433D01*
X66624485Y-42346081D01*
X66573022Y-42176432D01*
X66555646Y-42000000D01*
X66573022Y-41823568D01*
X66624485Y-41653919D01*
X66708056Y-41497567D01*
X66820525Y-41360525D01*
X66957567Y-41248056D01*
X67113919Y-41164485D01*
X67283568Y-41113022D01*
X67415789Y-41100000D01*
X67504211Y-41100000D01*
X67636432Y-41113022D01*
X67636432Y-41113022D01*
G37*
G36*
X65096432Y-41113022D02*
X65266081Y-41164485D01*
X65422433Y-41248056D01*
X65559475Y-41360525D01*
X65671944Y-41497567D01*
X65755515Y-41653919D01*
X65806978Y-41823568D01*
X65824354Y-42000000D01*
X65806978Y-42176432D01*
X65755515Y-42346081D01*
X65671944Y-42502433D01*
X65559475Y-42639475D01*
X65422433Y-42751944D01*
X65266081Y-42835515D01*
X65096432Y-42886978D01*
X64964211Y-42900000D01*
X64875789Y-42900000D01*
X64743568Y-42886978D01*
X64573919Y-42835515D01*
X64417567Y-42751944D01*
X64280525Y-42639475D01*
X64168056Y-42502433D01*
X64084485Y-42346081D01*
X64033022Y-42176432D01*
X64015646Y-42000000D01*
X64033022Y-41823568D01*
X64084485Y-41653919D01*
X64168056Y-41497567D01*
X64280525Y-41360525D01*
X64417567Y-41248056D01*
X64573919Y-41164485D01*
X64743568Y-41113022D01*
X64875789Y-41100000D01*
X64964211Y-41100000D01*
X65096432Y-41113022D01*
X65096432Y-41113022D01*
G37*
G36*
X63280000Y-42900000D02*
X61480000Y-42900000D01*
X61480000Y-41100000D01*
X63280000Y-41100000D01*
X63280000Y-42900000D01*
X63280000Y-42900000D01*
G37*
G36*
X60590000Y-42900000D02*
X58790000Y-42900000D01*
X58790000Y-41100000D01*
X60590000Y-41100000D01*
X60590000Y-42900000D01*
X60590000Y-42900000D01*
G37*
G36*
X52970000Y-42900000D02*
X51170000Y-42900000D01*
X51170000Y-41100000D01*
X52970000Y-41100000D01*
X52970000Y-42900000D01*
X52970000Y-42900000D01*
G37*
G36*
X75256432Y-41113022D02*
X75426081Y-41164485D01*
X75582433Y-41248056D01*
X75719475Y-41360525D01*
X75831944Y-41497567D01*
X75915515Y-41653919D01*
X75966978Y-41823568D01*
X75984354Y-42000000D01*
X75966978Y-42176432D01*
X75915515Y-42346081D01*
X75831944Y-42502433D01*
X75719475Y-42639475D01*
X75582433Y-42751944D01*
X75426081Y-42835515D01*
X75256432Y-42886978D01*
X75124211Y-42900000D01*
X75035789Y-42900000D01*
X74903568Y-42886978D01*
X74733919Y-42835515D01*
X74577567Y-42751944D01*
X74440525Y-42639475D01*
X74328056Y-42502433D01*
X74244485Y-42346081D01*
X74193022Y-42176432D01*
X74175646Y-42000000D01*
X74193022Y-41823568D01*
X74244485Y-41653919D01*
X74328056Y-41497567D01*
X74440525Y-41360525D01*
X74577567Y-41248056D01*
X74733919Y-41164485D01*
X74903568Y-41113022D01*
X75035789Y-41100000D01*
X75124211Y-41100000D01*
X75256432Y-41113022D01*
X75256432Y-41113022D01*
G37*
M02*
