M48
;DRILL file {KiCad (5.0.0)} date 01/23/19 14:37:15
;FORMAT={-:-/ absolute / inch / decimal}
FMAT,2
INCH,TZ
T1C0.0157
T2C0.0256
T3C0.0315
T4C0.0394
T5C0.0433
%
G90
G05
M72
T1
X2.0374Y-1.8799
X2.0768Y-1.8799
X2.1828Y-1.8278
X2.185Y-1.7933
X2.2331Y-1.7426
X2.2362Y-2.2736
X2.2559Y-2.0472
X2.2638Y-1.9272
X2.28Y-2.44
X2.2913Y-2.2402
X2.3012Y-2.1914
X2.31Y-2.47
X2.3524Y-2.0571
X2.358Y-1.932
X2.376Y-2.998
X2.3815Y-2.0168
X2.3819Y-1.7421
X2.4508Y-2.0177
X2.47Y-2.39
X2.48Y-2.42
X2.5006Y-2.018
X2.5293Y-1.7732
X2.5787Y-2.2244
X2.58Y-2.02
X2.64Y-1.9793
X2.67Y-1.94
X2.695Y-1.9088
X2.7012Y-1.7969
X2.7096Y-2.2208
X2.7215Y-2.1752
X2.7221Y-2.0554
X2.7457Y-2.3792
X2.7464Y-2.0353
X2.748Y-2.8583
X2.748Y-3.0197
X2.7578Y-1.8957
X2.7689Y-2.1858
X2.7756Y-1.811
X2.7778Y-2.0337
X2.7789Y-2.146
X2.784Y-2.3446
X2.7905Y-2.063
X2.7946Y-2.3841
X2.7992Y-2.9567
X2.8003Y-2.1835
X2.8158Y-2.8729
X2.8188Y-1.9814
X2.8189Y-2.9904
X2.8228Y-3.1496
X2.8258Y-2.3967
X2.84Y-2.5
X2.8436Y-2.0008
X2.8445Y-2.0768
X2.8488Y-2.4471
X2.8552Y-2.867
X2.8568Y-2.3271
X2.8603Y-1.8833
X2.8659Y-2.146
X2.8695Y-2.4881
X2.8796Y-2.4407
X2.8839Y-3.0591
X2.8894Y-2.167
X2.8905Y-1.7919
X2.8957Y-2.874
X2.9035Y-2.0374
X2.9095Y-2.2188
X2.9252Y-3.0827
X2.9399Y-2.1951
X2.9438Y-2.253
X2.9528Y-2.4508
X2.9547Y-2.8621
X2.9563Y-1.82
X2.9692Y-3.0953
X2.9724Y-1.9587
X2.9784Y-1.9016
X2.9797Y-1.8542
X2.98Y-2.59
X2.99Y-2.64
X2.9921Y-2.3228
X2.9981Y-2.8621
X3.0098Y-1.9038
X3.02Y-2.59
X3.02Y-2.65
X3.0217Y-2.5492
X3.0295Y-2.8661
X3.0439Y-2.5269
X3.0495Y-2.2546
X3.05Y-2.29
X3.0572Y-3.0969
X3.061Y-1.9685
X3.061Y-2.0866
X3.07Y-2.1498
X3.0748Y-3.0453
X3.0765Y-2.2131
X3.0819Y-2.2462
X3.0886Y-2.8898
X3.0906Y-1.9193
X3.1103Y-2.1766
X3.1123Y-2.208
X3.12Y-2.44
X3.1201Y-2.7067
X3.1517Y-2.0321
X3.1597Y-2.0659
X3.1693Y-2.8839
X3.17Y-1.97
X3.1829Y-2.0275
X3.1867Y-2.1767
X3.1988Y-1.6831
X3.1988Y-2.5295
X3.2461Y-3.0374
X3.2478Y-2.6926
X3.2657Y-1.76
X3.2831Y-2.2811
X3.3031Y-1.9336
X3.3031Y-3.0176
X3.3104Y-2.5717
X3.315Y-3.065
X3.3169Y-2.9528
X3.3366Y-2.2638
X3.3465Y-3.0472
X3.3523Y-2.2441
X3.3661Y-2.0276
X3.3661Y-2.5984
X3.3689Y-2.4203
X3.376Y-2.372
X3.38Y-1.76
X3.38Y-1.93
X3.3915Y-2.0089
X3.3957Y-2.7165
X3.3957Y-2.8248
X3.3962Y-2.4047
X3.435Y-2.4606
X3.4705Y-2.9803
X3.5039Y-1.8799
X3.5039Y-3.0354
X3.5138Y-1.6437
X3.5138Y-2.4114
X3.5236Y-2.126
X3.5236Y-2.1949
X3.563Y-2.8642
X3.5733Y-1.8633
X3.6024Y-3.122
X3.62Y-1.91
X3.63Y-1.84
X3.6713Y-2.6476
X3.6713Y-2.8051
X3.68Y-2.29
X3.68Y-2.38
X3.7598Y-2.5787
X3.7697Y-2.6311
X3.7697Y-2.1654
X3.7795Y-2.0177
X3.937Y-2.1654
X3.9567Y-2.0866
X4.2323Y-1.939
X4.2618Y-2.7854
X4.3307Y-2.0374
X4.3406Y-2.6969
T2
X2.989Y-2.9528
X2.989Y-3.0028
X3.039Y-2.9528
X3.039Y-3.0028
X3.089Y-2.9528
X3.089Y-3.0028
X3.139Y-2.9528
X3.139Y-3.0028
X3.189Y-2.9528
X3.189Y-3.0028
X2.1228Y-2.9528
X2.1228Y-3.0028
X2.1728Y-2.9528
X2.1728Y-3.0028
X2.2228Y-2.9528
X2.2228Y-3.0028
X2.2728Y-2.9528
X2.2728Y-3.0028
X2.3228Y-2.9528
X2.3228Y-3.0028
T3
X3.6Y-2.08
X3.6Y-2.2721
T4
X2.4559Y-1.6535
X2.5559Y-1.6535
X2.6559Y-1.6535
X2.7559Y-1.6535
X2.8559Y-1.6535
X2.9559Y-1.6535
X3.0559Y-1.6535
X2.35Y-1.6535
X2.375Y-2.55
X2.375Y-2.65
X2.375Y-2.75
X2.375Y-2.85
X2.05Y-1.6535
T5
X3.8Y-1.7
X3.8Y-1.8772
X4.0559Y-1.7
X4.0559Y-1.8772
X3.8Y-2.8228
X3.8Y-3.
X4.0559Y-2.8228
X4.0559Y-3.
T2
X2.0659Y-1.9705G85X2.0246Y-1.9705
G05
X2.0659Y-2.3602G85X2.0246Y-2.3602
G05
X2.2234Y-1.9705G85X2.1821Y-1.9705
G05
X2.2234Y-2.3602G85X2.1821Y-2.3602
G05
T0
M30
