G04 #@! TF.GenerationSoftware,KiCad,Pcbnew,(5.0.0)*
G04 #@! TF.CreationDate,2018-10-09T10:58:44+11:00*
G04 #@! TF.ProjectId,Project 23,50726F6A6563742032332E6B69636164,V 0.6*
G04 #@! TF.SameCoordinates,Original*
G04 #@! TF.FileFunction,Soldermask,Bot*
G04 #@! TF.FilePolarity,Negative*
%FSLAX46Y46*%
G04 Gerber Fmt 4.6, Leading zero omitted, Abs format (unit mm)*
G04 Created by KiCad (PCBNEW (5.0.0)) date 10/09/18 10:58:44*
%MOMM*%
%LPD*%
G01*
G04 APERTURE LIST*
%ADD10C,0.100000*%
%ADD11C,2.300000*%
%ADD12C,2.100000*%
%ADD13R,1.800000X1.800000*%
%ADD14O,1.800000X1.800000*%
%ADD15C,1.600000*%
%ADD16R,1.100000X1.100000*%
%ADD17O,1.100000X1.100000*%
G04 APERTURE END LIST*
D10*
X112000000Y-40000000D02*
X50000000Y-40000000D01*
X112000000Y-82000000D02*
X112000000Y-40000000D01*
X50000000Y-82000000D02*
X112000000Y-82000000D01*
X50000000Y-40000000D02*
X50000000Y-82000000D01*
D11*
G04 #@! TO.C,1*
X61000000Y-49000000D03*
G04 #@! TD*
G04 #@! TO.C,M2*
X102000000Y-60000000D03*
G04 #@! TD*
D12*
G04 #@! TO.C,SW11*
X107500000Y-48000000D03*
X107500000Y-52500000D03*
X101000000Y-48000000D03*
X101000000Y-52500000D03*
G04 #@! TD*
G04 #@! TO.C,SW12*
X101000000Y-72500000D03*
X101000000Y-68000000D03*
X107500000Y-72500000D03*
X107500000Y-68000000D03*
G04 #@! TD*
D13*
G04 #@! TO.C,U5*
X62380000Y-42000000D03*
D14*
X64920000Y-42000000D03*
X67460000Y-42000000D03*
X70000000Y-42000000D03*
X72540000Y-42000000D03*
X75080000Y-42000000D03*
X77620000Y-42000000D03*
G04 #@! TD*
D15*
G04 #@! TO.C,Y11*
X93000000Y-47520000D03*
X93000000Y-52400000D03*
G04 #@! TD*
D13*
G04 #@! TO.C,J13*
X61000000Y-70540000D03*
D14*
X61000000Y-68000000D03*
X61000000Y-65460000D03*
X61000000Y-62920000D03*
G04 #@! TD*
D13*
G04 #@! TO.C,J21*
X53960000Y-42000000D03*
D14*
X56500000Y-42000000D03*
G04 #@! TD*
D16*
G04 #@! TO.C,J11*
X60000000Y-75000000D03*
D17*
X60000000Y-76270000D03*
X58730000Y-75000000D03*
X58730000Y-76270000D03*
X57460000Y-75000000D03*
X57460000Y-76270000D03*
X56190000Y-75000000D03*
X56190000Y-76270000D03*
X54920000Y-75000000D03*
X54920000Y-76270000D03*
G04 #@! TD*
G04 #@! TO.C,J12*
X72920000Y-76270000D03*
X72920000Y-75000000D03*
X74190000Y-76270000D03*
X74190000Y-75000000D03*
X75460000Y-76270000D03*
X75460000Y-75000000D03*
X76730000Y-76270000D03*
X76730000Y-75000000D03*
X78000000Y-76270000D03*
D16*
X78000000Y-75000000D03*
G04 #@! TD*
M02*
