G04 #@! TF.GenerationSoftware,KiCad,Pcbnew,(5.0.1)-4*
G04 #@! TF.CreationDate,2018-12-14T18:15:29+08:00*
G04 #@! TF.ProjectId,Project 23,50726F6A6563742032332E6B69636164,V 0.7*
G04 #@! TF.SameCoordinates,Original*
G04 #@! TF.FileFunction,Copper,L2,Bot,Signal*
G04 #@! TF.FilePolarity,Positive*
%FSLAX46Y46*%
G04 Gerber Fmt 4.6, Leading zero omitted, Abs format (unit mm)*
G04 Created by KiCad (PCBNEW (5.0.1)-4) date 12/14/2018 6:15:29 PM*
%MOMM*%
%LPD*%
G01*
G04 APERTURE LIST*
G04 #@! TA.AperFunction,NonConductor*
%ADD10C,0.100000*%
G04 #@! TD*
G04 #@! TA.AperFunction,ComponentPad*
%ADD11C,1.500000*%
G04 #@! TD*
G04 #@! TA.AperFunction,ComponentPad*
%ADD12R,1.700000X1.700000*%
G04 #@! TD*
G04 #@! TA.AperFunction,ComponentPad*
%ADD13O,1.700000X1.700000*%
G04 #@! TD*
G04 #@! TA.AperFunction,ComponentPad*
%ADD14R,1.000000X1.000000*%
G04 #@! TD*
G04 #@! TA.AperFunction,ComponentPad*
%ADD15O,1.000000X1.000000*%
G04 #@! TD*
G04 #@! TA.AperFunction,ComponentPad*
%ADD16C,2.000000*%
G04 #@! TD*
G04 #@! TA.AperFunction,Conductor*
%ADD17C,0.100000*%
G04 #@! TD*
G04 #@! TA.AperFunction,ComponentPad*
%ADD18C,1.400000*%
G04 #@! TD*
G04 #@! TA.AperFunction,ViaPad*
%ADD19C,0.600000*%
G04 #@! TD*
G04 #@! TA.AperFunction,Conductor*
%ADD20C,0.220000*%
G04 #@! TD*
G04 #@! TA.AperFunction,Conductor*
%ADD21C,0.203000*%
G04 #@! TD*
G04 #@! TA.AperFunction,Conductor*
%ADD22C,0.254000*%
G04 #@! TD*
G04 APERTURE END LIST*
D10*
X54500000Y-58700000D02*
X50000000Y-58700000D01*
X54500000Y-51300000D02*
X54500000Y-58700000D01*
X50000000Y-51300000D02*
X54500000Y-51300000D01*
X50000000Y-58700000D02*
X50000000Y-82000000D01*
X112000000Y-40000000D02*
X50000000Y-40000000D01*
X112000000Y-82000000D02*
X112000000Y-40000000D01*
X50000000Y-82000000D02*
X112000000Y-82000000D01*
X50000000Y-40000000D02*
X50000000Y-51300000D01*
D11*
G04 #@! TO.P,Y11,1*
G04 #@! TO.N,Net-(C11-Pad1)*
X91440000Y-52832000D03*
G04 #@! TO.P,Y11,2*
G04 #@! TO.N,Net-(C12-Pad1)*
X91440000Y-57712000D03*
G04 #@! TD*
D12*
G04 #@! TO.P,J13,1*
G04 #@! TO.N,N/C*
X60325000Y-72390000D03*
D13*
G04 #@! TO.P,J13,2*
G04 #@! TO.N,/SWDIO*
X60325000Y-69850000D03*
G04 #@! TO.P,J13,3*
G04 #@! TO.N,/SWCLK*
X60325000Y-67310000D03*
G04 #@! TO.P,J13,4*
G04 #@! TO.N,GND*
X60325000Y-64770000D03*
G04 #@! TD*
D14*
G04 #@! TO.P,J11,1*
G04 #@! TO.N,N/C*
X58420000Y-75000000D03*
D15*
G04 #@! TO.P,J11,2*
X58420000Y-76270000D03*
G04 #@! TO.P,J11,3*
G04 #@! TO.N,Net-(J11-Pad3)*
X57150000Y-75000000D03*
G04 #@! TO.P,J11,4*
G04 #@! TO.N,Net-(J11-Pad4)*
X57150000Y-76270000D03*
G04 #@! TO.P,J11,5*
G04 #@! TO.N,Net-(J11-Pad5)*
X55880000Y-75000000D03*
G04 #@! TO.P,J11,6*
G04 #@! TO.N,Net-(J11-Pad6)*
X55880000Y-76270000D03*
G04 #@! TO.P,J11,7*
G04 #@! TO.N,Net-(J11-Pad7)*
X54610000Y-75000000D03*
G04 #@! TO.P,J11,8*
G04 #@! TO.N,Net-(J11-Pad8)*
X54610000Y-76270000D03*
G04 #@! TO.P,J11,9*
G04 #@! TO.N,Net-(J11-Pad9)*
X53340000Y-75000000D03*
G04 #@! TO.P,J11,10*
G04 #@! TO.N,GND*
X53340000Y-76270000D03*
G04 #@! TD*
G04 #@! TO.P,J12,10*
G04 #@! TO.N,GND*
X68580000Y-76270000D03*
G04 #@! TO.P,J12,9*
G04 #@! TO.N,Net-(J11-Pad9)*
X68580000Y-75000000D03*
G04 #@! TO.P,J12,8*
G04 #@! TO.N,Net-(J11-Pad8)*
X69850000Y-76270000D03*
G04 #@! TO.P,J12,7*
G04 #@! TO.N,Net-(J11-Pad7)*
X69850000Y-75000000D03*
G04 #@! TO.P,J12,6*
G04 #@! TO.N,Net-(J11-Pad6)*
X71120000Y-76270000D03*
G04 #@! TO.P,J12,5*
G04 #@! TO.N,Net-(J11-Pad5)*
X71120000Y-75000000D03*
G04 #@! TO.P,J12,4*
G04 #@! TO.N,Net-(J11-Pad4)*
X72390000Y-76270000D03*
G04 #@! TO.P,J12,3*
G04 #@! TO.N,Net-(J11-Pad3)*
X72390000Y-75000000D03*
G04 #@! TO.P,J12,2*
G04 #@! TO.N,Net-(F11-Pad2)*
X73660000Y-76270000D03*
D14*
G04 #@! TO.P,J12,1*
G04 #@! TO.N,Net-(F12-Pad1)*
X73660000Y-75000000D03*
G04 #@! TD*
D12*
G04 #@! TO.P,J21,1*
G04 #@! TO.N,+BATT*
X52070000Y-42000000D03*
G04 #@! TD*
G04 #@! TO.P,J22,1*
G04 #@! TO.N,GND*
X59690000Y-42000000D03*
G04 #@! TD*
D16*
G04 #@! TO.P,SW11,1*
G04 #@! TO.N,/UI_Btn*
X103020000Y-43180000D03*
G04 #@! TO.P,SW11,2*
G04 #@! TO.N,/3V3SB*
X103020000Y-47680000D03*
G04 #@! TO.P,SW11,1*
G04 #@! TO.N,/UI_Btn*
X96520000Y-43180000D03*
G04 #@! TO.P,SW11,2*
G04 #@! TO.N,/3V3SB*
X96520000Y-47680000D03*
G04 #@! TD*
G04 #@! TO.P,SW12,2*
G04 #@! TO.N,/3V3SB*
X96520000Y-76200000D03*
G04 #@! TO.P,SW12,1*
G04 #@! TO.N,/Power_Btn*
X96520000Y-71700000D03*
G04 #@! TO.P,SW12,2*
G04 #@! TO.N,/3V3SB*
X103020000Y-76200000D03*
G04 #@! TO.P,SW12,1*
G04 #@! TO.N,/Power_Btn*
X103020000Y-71700000D03*
G04 #@! TD*
D17*
G04 #@! TO.N,GND*
G04 #@! TO.C,J61*
G36*
X55884306Y-49451685D02*
X55918282Y-49456725D01*
X55951600Y-49465071D01*
X55983939Y-49476642D01*
X56014989Y-49491328D01*
X56044450Y-49508986D01*
X56072038Y-49529446D01*
X56097487Y-49552513D01*
X56120554Y-49577962D01*
X56141014Y-49605550D01*
X56158672Y-49635011D01*
X56173358Y-49666061D01*
X56184929Y-49698400D01*
X56193275Y-49731718D01*
X56198315Y-49765694D01*
X56200000Y-49800000D01*
X56200000Y-50500000D01*
X56198315Y-50534306D01*
X56193275Y-50568282D01*
X56184929Y-50601600D01*
X56173358Y-50633939D01*
X56158672Y-50664989D01*
X56141014Y-50694450D01*
X56120554Y-50722038D01*
X56097487Y-50747487D01*
X56072038Y-50770554D01*
X56044450Y-50791014D01*
X56014989Y-50808672D01*
X55983939Y-50823358D01*
X55951600Y-50834929D01*
X55918282Y-50843275D01*
X55884306Y-50848315D01*
X55850000Y-50850000D01*
X54250000Y-50850000D01*
X54215694Y-50848315D01*
X54181718Y-50843275D01*
X54148400Y-50834929D01*
X54116061Y-50823358D01*
X54085011Y-50808672D01*
X54055550Y-50791014D01*
X54027962Y-50770554D01*
X54002513Y-50747487D01*
X53979446Y-50722038D01*
X53958986Y-50694450D01*
X53941328Y-50664989D01*
X53926642Y-50633939D01*
X53915071Y-50601600D01*
X53906725Y-50568282D01*
X53901685Y-50534306D01*
X53900000Y-50500000D01*
X53900000Y-49800000D01*
X53901685Y-49765694D01*
X53906725Y-49731718D01*
X53915071Y-49698400D01*
X53926642Y-49666061D01*
X53941328Y-49635011D01*
X53958986Y-49605550D01*
X53979446Y-49577962D01*
X54002513Y-49552513D01*
X54027962Y-49529446D01*
X54055550Y-49508986D01*
X54085011Y-49491328D01*
X54116061Y-49476642D01*
X54148400Y-49465071D01*
X54181718Y-49456725D01*
X54215694Y-49451685D01*
X54250000Y-49450000D01*
X55850000Y-49450000D01*
X55884306Y-49451685D01*
X55884306Y-49451685D01*
G37*
D18*
G04 #@! TD*
G04 #@! TO.P,J61,6*
G04 #@! TO.N,GND*
X55050000Y-50150000D03*
D17*
G04 #@! TO.N,GND*
G04 #@! TO.C,J61*
G36*
X52584306Y-49451685D02*
X52618282Y-49456725D01*
X52651600Y-49465071D01*
X52683939Y-49476642D01*
X52714989Y-49491328D01*
X52744450Y-49508986D01*
X52772038Y-49529446D01*
X52797487Y-49552513D01*
X52820554Y-49577962D01*
X52841014Y-49605550D01*
X52858672Y-49635011D01*
X52873358Y-49666061D01*
X52884929Y-49698400D01*
X52893275Y-49731718D01*
X52898315Y-49765694D01*
X52900000Y-49800000D01*
X52900000Y-50500000D01*
X52898315Y-50534306D01*
X52893275Y-50568282D01*
X52884929Y-50601600D01*
X52873358Y-50633939D01*
X52858672Y-50664989D01*
X52841014Y-50694450D01*
X52820554Y-50722038D01*
X52797487Y-50747487D01*
X52772038Y-50770554D01*
X52744450Y-50791014D01*
X52714989Y-50808672D01*
X52683939Y-50823358D01*
X52651600Y-50834929D01*
X52618282Y-50843275D01*
X52584306Y-50848315D01*
X52550000Y-50850000D01*
X50950000Y-50850000D01*
X50915694Y-50848315D01*
X50881718Y-50843275D01*
X50848400Y-50834929D01*
X50816061Y-50823358D01*
X50785011Y-50808672D01*
X50755550Y-50791014D01*
X50727962Y-50770554D01*
X50702513Y-50747487D01*
X50679446Y-50722038D01*
X50658986Y-50694450D01*
X50641328Y-50664989D01*
X50626642Y-50633939D01*
X50615071Y-50601600D01*
X50606725Y-50568282D01*
X50601685Y-50534306D01*
X50600000Y-50500000D01*
X50600000Y-49800000D01*
X50601685Y-49765694D01*
X50606725Y-49731718D01*
X50615071Y-49698400D01*
X50626642Y-49666061D01*
X50641328Y-49635011D01*
X50658986Y-49605550D01*
X50679446Y-49577962D01*
X50702513Y-49552513D01*
X50727962Y-49529446D01*
X50755550Y-49508986D01*
X50785011Y-49491328D01*
X50816061Y-49476642D01*
X50848400Y-49465071D01*
X50881718Y-49456725D01*
X50915694Y-49451685D01*
X50950000Y-49450000D01*
X52550000Y-49450000D01*
X52584306Y-49451685D01*
X52584306Y-49451685D01*
G37*
D18*
G04 #@! TD*
G04 #@! TO.P,J61,6*
G04 #@! TO.N,GND*
X51750000Y-50150000D03*
D17*
G04 #@! TO.N,GND*
G04 #@! TO.C,J61*
G36*
X55884306Y-59151685D02*
X55918282Y-59156725D01*
X55951600Y-59165071D01*
X55983939Y-59176642D01*
X56014989Y-59191328D01*
X56044450Y-59208986D01*
X56072038Y-59229446D01*
X56097487Y-59252513D01*
X56120554Y-59277962D01*
X56141014Y-59305550D01*
X56158672Y-59335011D01*
X56173358Y-59366061D01*
X56184929Y-59398400D01*
X56193275Y-59431718D01*
X56198315Y-59465694D01*
X56200000Y-59500000D01*
X56200000Y-60200000D01*
X56198315Y-60234306D01*
X56193275Y-60268282D01*
X56184929Y-60301600D01*
X56173358Y-60333939D01*
X56158672Y-60364989D01*
X56141014Y-60394450D01*
X56120554Y-60422038D01*
X56097487Y-60447487D01*
X56072038Y-60470554D01*
X56044450Y-60491014D01*
X56014989Y-60508672D01*
X55983939Y-60523358D01*
X55951600Y-60534929D01*
X55918282Y-60543275D01*
X55884306Y-60548315D01*
X55850000Y-60550000D01*
X54250000Y-60550000D01*
X54215694Y-60548315D01*
X54181718Y-60543275D01*
X54148400Y-60534929D01*
X54116061Y-60523358D01*
X54085011Y-60508672D01*
X54055550Y-60491014D01*
X54027962Y-60470554D01*
X54002513Y-60447487D01*
X53979446Y-60422038D01*
X53958986Y-60394450D01*
X53941328Y-60364989D01*
X53926642Y-60333939D01*
X53915071Y-60301600D01*
X53906725Y-60268282D01*
X53901685Y-60234306D01*
X53900000Y-60200000D01*
X53900000Y-59500000D01*
X53901685Y-59465694D01*
X53906725Y-59431718D01*
X53915071Y-59398400D01*
X53926642Y-59366061D01*
X53941328Y-59335011D01*
X53958986Y-59305550D01*
X53979446Y-59277962D01*
X54002513Y-59252513D01*
X54027962Y-59229446D01*
X54055550Y-59208986D01*
X54085011Y-59191328D01*
X54116061Y-59176642D01*
X54148400Y-59165071D01*
X54181718Y-59156725D01*
X54215694Y-59151685D01*
X54250000Y-59150000D01*
X55850000Y-59150000D01*
X55884306Y-59151685D01*
X55884306Y-59151685D01*
G37*
D18*
G04 #@! TD*
G04 #@! TO.P,J61,6*
G04 #@! TO.N,GND*
X55050000Y-59850000D03*
D17*
G04 #@! TO.N,GND*
G04 #@! TO.C,J61*
G36*
X52584306Y-59151685D02*
X52618282Y-59156725D01*
X52651600Y-59165071D01*
X52683939Y-59176642D01*
X52714989Y-59191328D01*
X52744450Y-59208986D01*
X52772038Y-59229446D01*
X52797487Y-59252513D01*
X52820554Y-59277962D01*
X52841014Y-59305550D01*
X52858672Y-59335011D01*
X52873358Y-59366061D01*
X52884929Y-59398400D01*
X52893275Y-59431718D01*
X52898315Y-59465694D01*
X52900000Y-59500000D01*
X52900000Y-60200000D01*
X52898315Y-60234306D01*
X52893275Y-60268282D01*
X52884929Y-60301600D01*
X52873358Y-60333939D01*
X52858672Y-60364989D01*
X52841014Y-60394450D01*
X52820554Y-60422038D01*
X52797487Y-60447487D01*
X52772038Y-60470554D01*
X52744450Y-60491014D01*
X52714989Y-60508672D01*
X52683939Y-60523358D01*
X52651600Y-60534929D01*
X52618282Y-60543275D01*
X52584306Y-60548315D01*
X52550000Y-60550000D01*
X50950000Y-60550000D01*
X50915694Y-60548315D01*
X50881718Y-60543275D01*
X50848400Y-60534929D01*
X50816061Y-60523358D01*
X50785011Y-60508672D01*
X50755550Y-60491014D01*
X50727962Y-60470554D01*
X50702513Y-60447487D01*
X50679446Y-60422038D01*
X50658986Y-60394450D01*
X50641328Y-60364989D01*
X50626642Y-60333939D01*
X50615071Y-60301600D01*
X50606725Y-60268282D01*
X50601685Y-60234306D01*
X50600000Y-60200000D01*
X50600000Y-59500000D01*
X50601685Y-59465694D01*
X50606725Y-59431718D01*
X50615071Y-59398400D01*
X50626642Y-59366061D01*
X50641328Y-59335011D01*
X50658986Y-59305550D01*
X50679446Y-59277962D01*
X50702513Y-59252513D01*
X50727962Y-59229446D01*
X50755550Y-59208986D01*
X50785011Y-59191328D01*
X50816061Y-59176642D01*
X50848400Y-59165071D01*
X50881718Y-59156725D01*
X50915694Y-59151685D01*
X50950000Y-59150000D01*
X52550000Y-59150000D01*
X52584306Y-59151685D01*
X52584306Y-59151685D01*
G37*
D18*
G04 #@! TD*
G04 #@! TO.P,J61,6*
G04 #@! TO.N,GND*
X51750000Y-59850000D03*
D12*
G04 #@! TO.P,U5,1*
G04 #@! TO.N,GND*
X62380000Y-42000000D03*
D13*
G04 #@! TO.P,U5,2*
G04 #@! TO.N,+3V3*
X64920000Y-42000000D03*
G04 #@! TO.P,U5,3*
G04 #@! TO.N,/SCK*
X67460000Y-42000000D03*
G04 #@! TO.P,U5,4*
G04 #@! TO.N,/MOSI*
X70000000Y-42000000D03*
G04 #@! TO.P,U5,5*
G04 #@! TO.N,/OLED_RES*
X72540000Y-42000000D03*
G04 #@! TO.P,U5,6*
G04 #@! TO.N,/OLED_DC*
X75080000Y-42000000D03*
G04 #@! TO.P,U5,7*
G04 #@! TO.N,/OLED_CS*
X77620000Y-42000000D03*
G04 #@! TD*
D19*
G04 #@! TO.N,GND*
X68453503Y-48483589D03*
X77750000Y-53000000D03*
X78500000Y-48750000D03*
X77750000Y-50000000D03*
X84750000Y-57500000D03*
X89500000Y-54000000D03*
X89500000Y-55750000D03*
X89250000Y-61250000D03*
X84000000Y-78750000D03*
X76000000Y-59000000D03*
X65500000Y-56500000D03*
X62250000Y-51250000D03*
X89250000Y-41750000D03*
X89000000Y-47750000D03*
X100500000Y-53000000D03*
X100000000Y-55000000D03*
X95750000Y-55000000D03*
X96000000Y-51250000D03*
X107500000Y-49250000D03*
X110000000Y-51750000D03*
X110250000Y-68500000D03*
X108250000Y-70750000D03*
X60500000Y-44250000D03*
X55292832Y-45741683D03*
X51750000Y-47750000D03*
X52750000Y-47750000D03*
X81250000Y-42750000D03*
X72562484Y-59108173D03*
X85148490Y-57000000D03*
X81250000Y-75000000D03*
X84250000Y-75000000D03*
X79750000Y-70500000D03*
X93250000Y-71250000D03*
X70500000Y-46000000D03*
X75000000Y-62250000D03*
G04 #@! TO.N,+3V3*
X58420000Y-55626000D03*
X85852000Y-44704000D03*
X91948000Y-48514000D03*
X93472000Y-60452000D03*
X93472000Y-58166000D03*
X90760668Y-47326668D03*
X79248000Y-61976000D03*
X64244914Y-45039440D03*
X82949991Y-44704000D03*
X81250000Y-78750000D03*
X78439999Y-78810001D03*
G04 #@! TO.N,+BATT*
X57404000Y-49276000D03*
X59893190Y-49072810D03*
X59750000Y-52250000D03*
X60491288Y-51225799D03*
G04 #@! TO.N,VBUS*
X57658000Y-53848000D03*
X57619987Y-55626000D03*
G04 #@! TO.N,+5V*
X83000000Y-78250000D03*
X81776704Y-76790668D03*
G04 #@! TO.N,/Ana_In*
X73901138Y-56357969D03*
X73143099Y-61993763D03*
G04 #@! TO.N,/Fwd_Limit*
X69741767Y-60432432D03*
X72136008Y-63501208D03*
G04 #@! TO.N,/Quad_B*
X70983230Y-60555362D03*
X70329134Y-55518425D03*
G04 #@! TO.N,Net-(J11-Pad6)*
X59453369Y-78523823D03*
X57150000Y-78325510D03*
X72136000Y-77724000D03*
X75709510Y-72898000D03*
X75044823Y-77753729D03*
G04 #@! TO.N,/Quad_A*
X70714699Y-59553011D03*
X70583913Y-54509520D03*
G04 #@! TO.N,/Rev_Limit*
X76708000Y-65786000D03*
X76708000Y-67310000D03*
X72359754Y-62156215D03*
X71774674Y-60875338D03*
G04 #@! TO.N,/SWDIO*
X62738000Y-60706000D03*
X57912000Y-61976000D03*
G04 #@! TO.N,/SWCLK*
X62992000Y-61468000D03*
X58674000Y-62738000D03*
G04 #@! TO.N,/Power_Btn*
X80943332Y-55289332D03*
X83391354Y-57939234D03*
X80845483Y-51499461D03*
X95749988Y-66828750D03*
X85568864Y-61475479D03*
G04 #@! TO.N,/Rev_LED*
X77470000Y-58166000D03*
X72226973Y-50820824D03*
X70049337Y-48149988D03*
X73390862Y-55040739D03*
G04 #@! TO.N,/Pwr_LED*
X77458099Y-57265815D03*
X72793428Y-54508676D03*
G04 #@! TO.N,/UI_Btn*
X80255813Y-52474796D03*
X77978000Y-54606023D03*
G04 #@! TO.N,/OLED_RES*
X75090500Y-46228000D03*
X76449339Y-48357096D03*
G04 #@! TO.N,/OLED_DC*
X75685351Y-47097645D03*
X75651321Y-48300656D03*
G04 #@! TO.N,/MOSI*
X72651510Y-47834668D03*
X73418303Y-45513509D03*
G04 #@! TO.N,Net-(J11-Pad4)*
X74930000Y-76962000D03*
X75065187Y-74398490D03*
G04 #@! TO.N,Net-(J11-Pad5)*
X70451510Y-73596989D03*
G04 #@! TO.N,Net-(J11-Pad7)*
X58591332Y-72726668D03*
X60706000Y-74582490D03*
X69608618Y-72877022D03*
G04 #@! TO.N,Net-(J11-Pad8)*
X59182000Y-77724000D03*
X56388000Y-77724000D03*
X71882000Y-78486000D03*
G04 #@! TO.N,Net-(J11-Pad9)*
X57404000Y-72390000D03*
X59690000Y-74676000D03*
X68813175Y-72733063D03*
G04 #@! TO.N,/3V3SB*
X80053941Y-51615565D03*
X80518000Y-50038000D03*
X85852000Y-49022000D03*
X92202000Y-46736000D03*
X67818000Y-49276000D03*
X74673657Y-55756459D03*
X74773760Y-57226235D03*
X68824611Y-56409389D03*
X83898490Y-49114235D03*
X71127029Y-55460268D03*
G04 #@! TO.N,/SS2*
X79000852Y-55284501D03*
X70556394Y-51657059D03*
G04 #@! TO.N,/MOSI2*
X70877479Y-52399303D03*
X79051387Y-56082915D03*
G04 #@! TO.N,/SCK2*
X78143393Y-56212046D03*
X69757404Y-51697469D03*
G04 #@! TO.N,/MISO2*
X78280034Y-57052448D03*
X69141197Y-52207673D03*
G04 #@! TO.N,Net-(R21-Pad1)*
X57561980Y-47752000D03*
X56722000Y-44262000D03*
G04 #@! TO.N,/PWR_EN*
X86250000Y-71750000D03*
X90500000Y-72750000D03*
X85500000Y-51500000D03*
X85750000Y-60250000D03*
X87250000Y-62500000D03*
X85500000Y-66000000D03*
X86250000Y-69000000D03*
G04 #@! TO.N,/Trigger*
X75946000Y-67056000D03*
X75692000Y-65786000D03*
X72885187Y-63196775D03*
X69126122Y-55251272D03*
G04 #@! TO.N,/Batt_Mon*
X71597156Y-50327518D03*
X67056000Y-50274998D03*
X63514328Y-51256164D03*
X65532000Y-51308000D03*
G04 #@! TO.N,/Stat*
X73750000Y-51750000D03*
X75500000Y-49750000D03*
X68609542Y-45640950D03*
X72250000Y-52750000D03*
G04 #@! TO.N,VCC*
X79250000Y-68750000D03*
X82493568Y-68392904D03*
X86144322Y-51025796D03*
X86264186Y-61079819D03*
G04 #@! TO.N,/SD_CD*
X76750000Y-64750000D03*
X84085171Y-65320387D03*
X93250000Y-67250000D03*
X95500000Y-65500000D03*
G04 #@! TO.N,Net-(R41-Pad2)*
X81250000Y-64250000D03*
X77315694Y-64184306D03*
G04 #@! TD*
D20*
G04 #@! TO.N,GND*
X78500000Y-48750000D02*
X78500000Y-49250000D01*
X78500000Y-49250000D02*
X77750000Y-50000000D01*
X89500000Y-54000000D02*
X89500000Y-55750000D01*
X100500000Y-53000000D02*
X100000000Y-53500000D01*
X100000000Y-53500000D02*
X100000000Y-55000000D01*
X95750000Y-55000000D02*
X95750000Y-51500000D01*
X95750000Y-51500000D02*
X96000000Y-51250000D01*
X51750000Y-47750000D02*
X52750000Y-47750000D01*
X85148490Y-57101510D02*
X85148490Y-57000000D01*
X84750000Y-57500000D02*
X85148490Y-57101510D01*
G04 #@! TO.N,+3V3*
X93472000Y-60452000D02*
X93472000Y-58166000D01*
X91948000Y-48514000D02*
X90760668Y-47326668D01*
X64244914Y-45463704D02*
X64244914Y-45039440D01*
X58420000Y-55626000D02*
X58420000Y-51562000D01*
X64244914Y-45737086D02*
X64244914Y-45463704D01*
X58420000Y-51562000D02*
X64244914Y-45737086D01*
X85852000Y-44704000D02*
X82949991Y-44704000D01*
X93472000Y-60452000D02*
X88395198Y-60452000D01*
X88395198Y-60452000D02*
X86761717Y-62085481D01*
X86761717Y-62085481D02*
X85276062Y-62085481D01*
X85276062Y-62085481D02*
X85166581Y-61976000D01*
X79672264Y-61976000D02*
X79248000Y-61976000D01*
X85166581Y-61976000D02*
X79672264Y-61976000D01*
X81250000Y-78750000D02*
X78500000Y-78750000D01*
X78500000Y-78750000D02*
X78439999Y-78810001D01*
G04 #@! TO.N,+BATT*
X59690000Y-49276000D02*
X59893190Y-49072810D01*
X57404000Y-49276000D02*
X59690000Y-49276000D01*
X59750000Y-51967087D02*
X60491288Y-51225799D01*
X59750000Y-52250000D02*
X59750000Y-51967087D01*
G04 #@! TO.N,VBUS*
X57658000Y-55587987D02*
X57619987Y-55626000D01*
X57658000Y-53848000D02*
X57658000Y-55587987D01*
G04 #@! TO.N,+5V*
X83000000Y-78250000D02*
X81776704Y-77026704D01*
X81776704Y-77026704D02*
X81776704Y-76790668D01*
D21*
G04 #@! TO.N,/Ana_In*
X73901138Y-56357969D02*
X73901138Y-61235724D01*
X73443098Y-61693764D02*
X73143099Y-61993763D01*
X73901138Y-61235724D02*
X73443098Y-61693764D01*
G04 #@! TO.N,/Fwd_Limit*
X69741767Y-60432432D02*
X69741767Y-61106967D01*
X71836009Y-63201209D02*
X72136008Y-63501208D01*
X69741767Y-61106967D02*
X71836009Y-63201209D01*
G04 #@! TO.N,/Quad_B*
X71400962Y-56590253D02*
X70629133Y-55818424D01*
X70629133Y-55818424D02*
X70329134Y-55518425D01*
X71400962Y-60137630D02*
X71400962Y-56590253D01*
X70983230Y-60555362D02*
X71400962Y-60137630D01*
G04 #@! TO.N,Net-(J11-Pad6)*
X59453369Y-78523823D02*
X57348313Y-78523823D01*
X57348313Y-78523823D02*
X57150000Y-78325510D01*
X72136000Y-77286000D02*
X71120000Y-76270000D01*
X72136000Y-77724000D02*
X72136000Y-77286000D01*
X75709510Y-77089042D02*
X75344822Y-77453730D01*
X75344822Y-77453730D02*
X75044823Y-77753729D01*
X75709510Y-72898000D02*
X75709510Y-77089042D01*
G04 #@! TO.N,/Quad_A*
X69727624Y-55891795D02*
X69727624Y-54941545D01*
X70159649Y-54509520D02*
X70583913Y-54509520D01*
X69727624Y-54941545D02*
X70159649Y-54509520D01*
X70714699Y-56878870D02*
X69727624Y-55891795D01*
X70714699Y-59553011D02*
X70714699Y-56878870D01*
G04 #@! TO.N,/Rev_Limit*
X76708000Y-67310000D02*
X76708000Y-65786000D01*
X72359754Y-61460418D02*
X72359754Y-61731951D01*
X72359754Y-61731951D02*
X72359754Y-62156215D01*
X71774674Y-60875338D02*
X72359754Y-61460418D01*
G04 #@! TO.N,/SWDIO*
X61468000Y-61976000D02*
X57912000Y-61976000D01*
X62738000Y-60706000D02*
X61468000Y-61976000D01*
G04 #@! TO.N,/SWCLK*
X62992000Y-61468000D02*
X61722000Y-62738000D01*
X59098264Y-62738000D02*
X58674000Y-62738000D01*
X61722000Y-62738000D02*
X59098264Y-62738000D01*
G04 #@! TO.N,/Power_Btn*
X103020000Y-71700000D02*
X96520000Y-71700000D01*
X81373502Y-52027480D02*
X81145482Y-51799460D01*
X81373502Y-54859162D02*
X81373502Y-52027480D01*
X80943332Y-55289332D02*
X81373502Y-54859162D01*
X81145482Y-51799460D02*
X80845483Y-51499461D01*
X96520000Y-67598762D02*
X96049987Y-67128749D01*
X96049987Y-67128749D02*
X95749988Y-66828750D01*
X96520000Y-71700000D02*
X96520000Y-67598762D01*
X85268865Y-61175480D02*
X85568864Y-61475479D01*
X83391354Y-57939234D02*
X83391354Y-59297969D01*
X83391354Y-59297969D02*
X85268865Y-61175480D01*
G04 #@! TO.N,/Rev_LED*
X70630044Y-48449987D02*
X70349336Y-48449987D01*
X70349336Y-48449987D02*
X70049337Y-48149988D01*
X72226973Y-50046916D02*
X70630044Y-48449987D01*
X72226973Y-50820824D02*
X72226973Y-50046916D01*
X77470000Y-58166000D02*
X75277502Y-55973502D01*
X75277502Y-55973502D02*
X75277502Y-55395437D01*
X75277502Y-55395437D02*
X75037014Y-55154949D01*
X75037014Y-55154949D02*
X73505072Y-55154949D01*
X73505072Y-55154949D02*
X73390862Y-55040739D01*
G04 #@! TO.N,/Pwr_LED*
X73720302Y-54439238D02*
X74033001Y-54751938D01*
X75764454Y-55572170D02*
X77158100Y-56965816D01*
X77158100Y-56965816D02*
X77458099Y-57265815D01*
X75764454Y-55312447D02*
X75764454Y-55572170D01*
X75203945Y-54751938D02*
X75764454Y-55312447D01*
X74033001Y-54751938D02*
X75203945Y-54751938D01*
X72862866Y-54439238D02*
X73720302Y-54439238D01*
X72793428Y-54508676D02*
X72862866Y-54439238D01*
G04 #@! TO.N,/UI_Btn*
X80255813Y-52474796D02*
X79955814Y-52774795D01*
X79809228Y-52774795D02*
X77978000Y-54606023D01*
X79955814Y-52774795D02*
X79809228Y-52774795D01*
G04 #@! TO.N,/OLED_RES*
X75090500Y-46228000D02*
X75705930Y-46228000D01*
X76449339Y-47932832D02*
X76449339Y-48357096D01*
X75705930Y-46228000D02*
X76449339Y-46971409D01*
X76449339Y-46971409D02*
X76449339Y-47932832D01*
G04 #@! TO.N,/OLED_DC*
X75651321Y-48300656D02*
X75651321Y-47131675D01*
X75651321Y-47131675D02*
X75685351Y-47097645D01*
G04 #@! TO.N,/MOSI*
X72651510Y-47834668D02*
X72651510Y-46280302D01*
X73118304Y-45813508D02*
X73418303Y-45513509D01*
X72651510Y-46280302D02*
X73118304Y-45813508D01*
G04 #@! TO.N,Net-(J11-Pad4)*
X74930000Y-74533677D02*
X75065187Y-74398490D01*
X74930000Y-76962000D02*
X74930000Y-74533677D01*
G04 #@! TO.N,Net-(J11-Pad5)*
X70751509Y-73896988D02*
X70451510Y-73596989D01*
X71120000Y-74265479D02*
X70751509Y-73896988D01*
X71120000Y-75000000D02*
X71120000Y-74265479D01*
G04 #@! TO.N,Net-(J11-Pad7)*
X59680234Y-74074498D02*
X60198008Y-74074498D01*
X58591332Y-72726668D02*
X58891331Y-73026667D01*
X58891331Y-73285595D02*
X59680234Y-74074498D01*
X58891331Y-73026667D02*
X58891331Y-73285595D01*
X60198008Y-74074498D02*
X60406001Y-74282491D01*
X60406001Y-74282491D02*
X60706000Y-74582490D01*
X69850000Y-73118404D02*
X69608618Y-72877022D01*
X69850000Y-75000000D02*
X69850000Y-73118404D01*
G04 #@! TO.N,Net-(J11-Pad8)*
X59182000Y-77724000D02*
X56388000Y-77724000D01*
X71358894Y-78486000D02*
X71882000Y-78486000D01*
X69850000Y-76270000D02*
X69850000Y-76977106D01*
X69850000Y-76977106D02*
X71358894Y-78486000D01*
G04 #@! TO.N,Net-(J11-Pad9)*
X58958512Y-73944512D02*
X59690000Y-74676000D01*
X57404000Y-72390000D02*
X58958512Y-73944512D01*
X68580000Y-75000000D02*
X68580000Y-72966238D01*
X68580000Y-72966238D02*
X68813175Y-72733063D01*
G04 #@! TO.N,/3V3SB*
X80053941Y-51615565D02*
X80053941Y-50502059D01*
X80053941Y-50502059D02*
X80518000Y-50038000D01*
X93146000Y-47680000D02*
X96520000Y-47680000D01*
X92202000Y-46736000D02*
X93146000Y-47680000D01*
X97934213Y-76200000D02*
X103020000Y-76200000D01*
X96520000Y-76200000D02*
X97934213Y-76200000D01*
X74673657Y-55756459D02*
X74673657Y-57126132D01*
X74673657Y-57126132D02*
X74773760Y-57226235D01*
X68524612Y-56109390D02*
X68824611Y-56409389D01*
X67164776Y-49276000D02*
X66454499Y-49986277D01*
X67818000Y-49276000D02*
X67164776Y-49276000D01*
X83990725Y-49022000D02*
X83898490Y-49114235D01*
X85852000Y-49022000D02*
X83990725Y-49022000D01*
X71423220Y-55756459D02*
X71127029Y-55460268D01*
X74673657Y-55756459D02*
X71423220Y-55756459D01*
X68524612Y-56109390D02*
X68524612Y-52024612D01*
X68524612Y-52024612D02*
X67750000Y-51250000D01*
X67750000Y-51250000D02*
X67000000Y-51250000D01*
X66454499Y-50704499D02*
X66454499Y-49986277D01*
X67000000Y-51250000D02*
X66454499Y-50704499D01*
G04 #@! TO.N,/SS2*
X74205654Y-50745487D02*
X73294346Y-50745487D01*
X73294346Y-50745487D02*
X72382774Y-51657059D01*
X70980658Y-51657059D02*
X70556394Y-51657059D01*
X74754513Y-51294346D02*
X74205654Y-50745487D01*
X77376498Y-54644720D02*
X74754513Y-52022735D01*
X78923876Y-55207525D02*
X77689278Y-55207525D01*
X77376498Y-54894745D02*
X77376498Y-54644720D01*
X72382774Y-51657059D02*
X70980658Y-51657059D01*
X79000852Y-55284501D02*
X78923876Y-55207525D01*
X74754513Y-52022735D02*
X74754513Y-51294346D01*
X77689278Y-55207525D02*
X77376498Y-54894745D01*
G04 #@! TO.N,/MOSI2*
X72510472Y-52099304D02*
X73461278Y-51148498D01*
X70877479Y-52399303D02*
X71177478Y-52099304D01*
X71177478Y-52099304D02*
X72510472Y-52099304D01*
X73461278Y-51148498D02*
X74038722Y-51148498D01*
X74038722Y-51148498D02*
X74351502Y-51461278D01*
X76973487Y-54811652D02*
X76973487Y-55061677D01*
X76973487Y-55061677D02*
X77522346Y-55610536D01*
X78909045Y-56082915D02*
X79051387Y-56082915D01*
X77522346Y-55610536D02*
X78436666Y-55610536D01*
X74351502Y-52189667D02*
X76973487Y-54811652D01*
X78436666Y-55610536D02*
X78909045Y-56082915D01*
X74351502Y-51461278D02*
X74351502Y-52189667D01*
G04 #@! TO.N,/SCK2*
X71092116Y-53504164D02*
X69757404Y-52169452D01*
X75537808Y-53945916D02*
X74366865Y-53945916D01*
X76570476Y-55228609D02*
X76570476Y-54978584D01*
X77355414Y-56013547D02*
X76570476Y-55228609D01*
X77989013Y-56013547D02*
X77355414Y-56013547D01*
X69757404Y-52121733D02*
X69757404Y-51697469D01*
X73925113Y-53504164D02*
X71092116Y-53504164D01*
X76570476Y-54978584D02*
X75537808Y-53945916D01*
X69757404Y-52169452D02*
X69757404Y-52121733D01*
X78143393Y-56167928D02*
X77989013Y-56013547D01*
X78143393Y-56212046D02*
X78143393Y-56167928D01*
X74366865Y-53945916D02*
X73925113Y-53504164D01*
G04 #@! TO.N,/MISO2*
X77188482Y-56416558D02*
X76167465Y-55395541D01*
X77854671Y-56813548D02*
X77457681Y-56416558D01*
X78041134Y-56813548D02*
X77854671Y-56813548D01*
X77457681Y-56416558D02*
X77188482Y-56416558D01*
X78280034Y-57052448D02*
X78041134Y-56813548D01*
X74199933Y-54348927D02*
X73758181Y-53907175D01*
X76167465Y-55395541D02*
X76167465Y-55145516D01*
X76167465Y-55145516D02*
X75370876Y-54348927D01*
X75370876Y-54348927D02*
X74199933Y-54348927D01*
X73758181Y-53907175D02*
X70840699Y-53907175D01*
X70840699Y-53907175D02*
X69441196Y-52507672D01*
X69441196Y-52507672D02*
X69141197Y-52207673D01*
G04 #@! TO.N,Net-(R21-Pad1)*
X57261981Y-47452001D02*
X57561980Y-47752000D01*
X56722000Y-44262000D02*
X56722000Y-46912020D01*
X56722000Y-46912020D02*
X57261981Y-47452001D01*
G04 #@! TO.N,/PWR_EN*
X86250000Y-71750000D02*
X87250000Y-72750000D01*
X87250000Y-72750000D02*
X90500000Y-72750000D01*
X85500000Y-51924264D02*
X85750000Y-52174264D01*
X85500000Y-51500000D02*
X85500000Y-51924264D01*
X85750000Y-52174264D02*
X85750000Y-60250000D01*
X87250000Y-62500000D02*
X85500000Y-64250000D01*
X85500000Y-64250000D02*
X85500000Y-66000000D01*
X86250000Y-69424264D02*
X86250000Y-71750000D01*
X86250000Y-69000000D02*
X86250000Y-69424264D01*
G04 #@! TO.N,/Trigger*
X75946000Y-66040000D02*
X75692000Y-65786000D01*
X75946000Y-67056000D02*
X75946000Y-66040000D01*
X70381728Y-61068413D02*
X70381728Y-60221728D01*
X72885187Y-63196775D02*
X72446129Y-62757717D01*
X72446129Y-62757717D02*
X72071032Y-62757717D01*
X69126122Y-55860236D02*
X69126122Y-55675536D01*
X69454512Y-59294512D02*
X69454512Y-56188626D01*
X69126122Y-55675536D02*
X69126122Y-55251272D01*
X69454512Y-56188626D02*
X69126122Y-55860236D01*
X70381728Y-60221728D02*
X69454512Y-59294512D01*
X72071032Y-62757717D02*
X70381728Y-61068413D01*
G04 #@! TO.N,/Batt_Mon*
X71597156Y-50327518D02*
X67108520Y-50327518D01*
X67108520Y-50327518D02*
X67056000Y-50274998D01*
X63514328Y-51256164D02*
X65480164Y-51256164D01*
X65480164Y-51256164D02*
X65532000Y-51308000D01*
G04 #@! TO.N,/Stat*
X73811171Y-51811171D02*
X73750000Y-51750000D01*
X72718592Y-49750000D02*
X68609542Y-45640950D01*
X75500000Y-49750000D02*
X72718592Y-49750000D01*
X72750000Y-52750000D02*
X73750000Y-51750000D01*
X72250000Y-52750000D02*
X72750000Y-52750000D01*
G04 #@! TO.N,VCC*
X79250000Y-68750000D02*
X82136472Y-68750000D01*
X82193569Y-68692903D02*
X82493568Y-68392904D01*
X82136472Y-68750000D02*
X82193569Y-68692903D01*
D20*
X86444321Y-60899684D02*
X86264186Y-61079819D01*
X86144322Y-51025796D02*
X86444321Y-51325795D01*
X86444321Y-51325795D02*
X86444321Y-60899684D01*
D21*
G04 #@! TO.N,/SD_CD*
X77320387Y-65320387D02*
X84085171Y-65320387D01*
X76750000Y-64750000D02*
X77320387Y-65320387D01*
X93250000Y-67250000D02*
X95000000Y-65500000D01*
X95000000Y-65500000D02*
X95500000Y-65500000D01*
G04 #@! TO.N,Net-(R41-Pad2)*
X81250000Y-64250000D02*
X77381388Y-64250000D01*
X77381388Y-64250000D02*
X77315694Y-64184306D01*
G04 #@! TD*
D22*
G04 #@! TO.N,GND*
G36*
X54279138Y-41017201D02*
X54015000Y-41654887D01*
X54015000Y-42345113D01*
X54279138Y-42982799D01*
X54767201Y-43470862D01*
X55404887Y-43735000D01*
X55928254Y-43735000D01*
X55787000Y-44076017D01*
X55787000Y-44447983D01*
X55929345Y-44791635D01*
X55985500Y-44847790D01*
X55985501Y-46839485D01*
X55971073Y-46912020D01*
X56028233Y-47199387D01*
X56149926Y-47381514D01*
X56149930Y-47381518D01*
X56191015Y-47443006D01*
X56252503Y-47484091D01*
X56626980Y-47858568D01*
X56626980Y-47937983D01*
X56769325Y-48281635D01*
X56942721Y-48455031D01*
X56874365Y-48483345D01*
X56611345Y-48746365D01*
X56545337Y-48905724D01*
X56326310Y-48815000D01*
X55335750Y-48815000D01*
X55177000Y-48973750D01*
X55177000Y-50023000D01*
X56676250Y-50023000D01*
X56752480Y-49946770D01*
X56874365Y-50068655D01*
X57218017Y-50211000D01*
X57589983Y-50211000D01*
X57933635Y-50068655D01*
X57981290Y-50021000D01*
X58907412Y-50021000D01*
X57945090Y-50983322D01*
X57882886Y-51024885D01*
X57730475Y-51252986D01*
X57718227Y-51271316D01*
X57660405Y-51562000D01*
X57675001Y-51635377D01*
X57675001Y-52913000D01*
X57472017Y-52913000D01*
X57128365Y-53055345D01*
X56865345Y-53318365D01*
X56723000Y-53662017D01*
X56723000Y-54033983D01*
X56865345Y-54377635D01*
X56913000Y-54425290D01*
X56913001Y-55010696D01*
X56827332Y-55096365D01*
X56684987Y-55440017D01*
X56684987Y-55811983D01*
X56827332Y-56155635D01*
X57090352Y-56418655D01*
X57434004Y-56561000D01*
X57805970Y-56561000D01*
X58019994Y-56472349D01*
X58234017Y-56561000D01*
X58605983Y-56561000D01*
X58873000Y-56450398D01*
X58873000Y-56500000D01*
X58882667Y-56548601D01*
X58910197Y-56589803D01*
X58951399Y-56617333D01*
X59000000Y-56627000D01*
X62500000Y-56627000D01*
X62548601Y-56617333D01*
X62589803Y-56589803D01*
X62617333Y-56548601D01*
X62627000Y-56500000D01*
X62627000Y-53000000D01*
X62617333Y-52951399D01*
X62589803Y-52910197D01*
X62548601Y-52882667D01*
X62500000Y-52873000D01*
X60449290Y-52873000D01*
X60542655Y-52779635D01*
X60685000Y-52435983D01*
X60685000Y-52157598D01*
X61020923Y-52018454D01*
X61283943Y-51755434D01*
X61426288Y-51411782D01*
X61426288Y-51070181D01*
X62579328Y-51070181D01*
X62579328Y-51442147D01*
X62721673Y-51785799D01*
X62984693Y-52048819D01*
X63328345Y-52191164D01*
X63700311Y-52191164D01*
X64043963Y-52048819D01*
X64100118Y-51992664D01*
X64894374Y-51992664D01*
X65002365Y-52100655D01*
X65346017Y-52243000D01*
X65717983Y-52243000D01*
X66061635Y-52100655D01*
X66324655Y-51837635D01*
X66389505Y-51681074D01*
X66427928Y-51719497D01*
X66469014Y-51780986D01*
X66530502Y-51822071D01*
X66530505Y-51822074D01*
X66677520Y-51920306D01*
X66712632Y-51943767D01*
X66927465Y-51986500D01*
X66927469Y-51986500D01*
X67000000Y-52000927D01*
X67072531Y-51986500D01*
X67444932Y-51986500D01*
X67788113Y-52329682D01*
X67788112Y-56036859D01*
X67773685Y-56109390D01*
X67788112Y-56181921D01*
X67788112Y-56181924D01*
X67821124Y-56347884D01*
X67830845Y-56396757D01*
X67889611Y-56484707D01*
X67889611Y-56595372D01*
X68031956Y-56939024D01*
X68294976Y-57202044D01*
X68638628Y-57344389D01*
X68718013Y-57344389D01*
X68718012Y-59221981D01*
X68703585Y-59294512D01*
X68718012Y-59367043D01*
X68718012Y-59367046D01*
X68747840Y-59517000D01*
X68760745Y-59581879D01*
X68873232Y-59750227D01*
X68923526Y-59825498D01*
X68985017Y-59866585D01*
X68985171Y-59866739D01*
X68949112Y-59902797D01*
X68806767Y-60246449D01*
X68806767Y-60618415D01*
X68949112Y-60962067D01*
X69005267Y-61018222D01*
X69005267Y-61034436D01*
X68990840Y-61106967D01*
X69005267Y-61179498D01*
X69005267Y-61179502D01*
X69025659Y-61282017D01*
X69048000Y-61394334D01*
X69169693Y-61576461D01*
X69169697Y-61576465D01*
X69210782Y-61637953D01*
X69272270Y-61679038D01*
X71201008Y-63607776D01*
X71201008Y-63687191D01*
X71343353Y-64030843D01*
X71606373Y-64293863D01*
X71950025Y-64436208D01*
X72321991Y-64436208D01*
X72665643Y-64293863D01*
X72827731Y-64131775D01*
X73071170Y-64131775D01*
X73414822Y-63989430D01*
X73677842Y-63726410D01*
X73820187Y-63382758D01*
X73820187Y-63010792D01*
X73711282Y-62747870D01*
X73935754Y-62523398D01*
X74078099Y-62179746D01*
X74078099Y-62100331D01*
X74370630Y-61807799D01*
X74432124Y-61766710D01*
X74594905Y-61523092D01*
X74637638Y-61308259D01*
X74637638Y-61308254D01*
X74652065Y-61235725D01*
X74637638Y-61163196D01*
X74637638Y-58161235D01*
X74959743Y-58161235D01*
X75303395Y-58018890D01*
X75566415Y-57755870D01*
X75698769Y-57436337D01*
X76535000Y-58272568D01*
X76535000Y-58351983D01*
X76677345Y-58695635D01*
X76940365Y-58958655D01*
X77284017Y-59101000D01*
X77655983Y-59101000D01*
X77999635Y-58958655D01*
X78262655Y-58695635D01*
X78405000Y-58351983D01*
X78405000Y-57987448D01*
X78466017Y-57987448D01*
X78809669Y-57845103D01*
X79072689Y-57582083D01*
X79215034Y-57238431D01*
X79215034Y-57017915D01*
X79237370Y-57017915D01*
X79581022Y-56875570D01*
X79844042Y-56612550D01*
X79986387Y-56268898D01*
X79986387Y-55896932D01*
X79872799Y-55622707D01*
X79935852Y-55470484D01*
X79935852Y-55098518D01*
X79793507Y-54754866D01*
X79530487Y-54491846D01*
X79249948Y-54375643D01*
X80135637Y-53489954D01*
X80243182Y-53468562D01*
X80331131Y-53409796D01*
X80441796Y-53409796D01*
X80637003Y-53328939D01*
X80637002Y-54404181D01*
X80413697Y-54496677D01*
X80150677Y-54759697D01*
X80008332Y-55103349D01*
X80008332Y-55475315D01*
X80150677Y-55818967D01*
X80413697Y-56081987D01*
X80757349Y-56224332D01*
X81129315Y-56224332D01*
X81472967Y-56081987D01*
X81735987Y-55818967D01*
X81878332Y-55475315D01*
X81878332Y-55407625D01*
X81904488Y-55390148D01*
X82067269Y-55146530D01*
X82110002Y-54931697D01*
X82110002Y-54931694D01*
X82124429Y-54859163D01*
X82110002Y-54786632D01*
X82110002Y-52100011D01*
X82124429Y-52027480D01*
X82110002Y-51954949D01*
X82110002Y-51954945D01*
X82067269Y-51740112D01*
X81954774Y-51571752D01*
X81945576Y-51557986D01*
X81945575Y-51557985D01*
X81904488Y-51496494D01*
X81842997Y-51455407D01*
X81780483Y-51392893D01*
X81780483Y-51313478D01*
X81638138Y-50969826D01*
X81375118Y-50706806D01*
X81231127Y-50647163D01*
X81310655Y-50567635D01*
X81453000Y-50223983D01*
X81453000Y-49852017D01*
X81310655Y-49508365D01*
X81047635Y-49245345D01*
X80703983Y-49103000D01*
X80332017Y-49103000D01*
X79988365Y-49245345D01*
X79725345Y-49508365D01*
X79583000Y-49852017D01*
X79583000Y-49930953D01*
X79522956Y-49971073D01*
X79481871Y-50032561D01*
X79481867Y-50032565D01*
X79360174Y-50214692D01*
X79303014Y-50502059D01*
X79317442Y-50574594D01*
X79317442Y-51029774D01*
X79261286Y-51085930D01*
X79118941Y-51429582D01*
X79118941Y-51801548D01*
X79261286Y-52145200D01*
X79327189Y-52211103D01*
X79278242Y-52243809D01*
X79237155Y-52305300D01*
X77871432Y-53671023D01*
X77792017Y-53671023D01*
X77546193Y-53772847D01*
X75491013Y-51717667D01*
X75491013Y-51366877D01*
X75505440Y-51294346D01*
X75491013Y-51221815D01*
X75491013Y-51221811D01*
X75448280Y-51006978D01*
X75438183Y-50991867D01*
X75326587Y-50824851D01*
X75326584Y-50824848D01*
X75285499Y-50763360D01*
X75224010Y-50722274D01*
X75096734Y-50594999D01*
X75314017Y-50685000D01*
X75685983Y-50685000D01*
X76029635Y-50542655D01*
X76292655Y-50279635D01*
X76435000Y-49935983D01*
X76435000Y-49564017D01*
X76322367Y-49292096D01*
X76635322Y-49292096D01*
X76978974Y-49149751D01*
X77200473Y-48928252D01*
X82963490Y-48928252D01*
X82963490Y-49300218D01*
X83105835Y-49643870D01*
X83368855Y-49906890D01*
X83712507Y-50049235D01*
X84084473Y-50049235D01*
X84428125Y-49906890D01*
X84576515Y-49758500D01*
X85266210Y-49758500D01*
X85322365Y-49814655D01*
X85666017Y-49957000D01*
X86037983Y-49957000D01*
X86381635Y-49814655D01*
X86644655Y-49551635D01*
X86787000Y-49207983D01*
X86787000Y-48836017D01*
X86644655Y-48492365D01*
X86381635Y-48229345D01*
X86037983Y-48087000D01*
X85666017Y-48087000D01*
X85322365Y-48229345D01*
X85266210Y-48285500D01*
X84341020Y-48285500D01*
X84084473Y-48179235D01*
X83712507Y-48179235D01*
X83368855Y-48321580D01*
X83105835Y-48584600D01*
X82963490Y-48928252D01*
X77200473Y-48928252D01*
X77241994Y-48886731D01*
X77384339Y-48543079D01*
X77384339Y-48171113D01*
X77241994Y-47827461D01*
X77185839Y-47771306D01*
X77185839Y-47140685D01*
X89825668Y-47140685D01*
X89825668Y-47512651D01*
X89968013Y-47856303D01*
X90231033Y-48119323D01*
X90574685Y-48261668D01*
X90642080Y-48261668D01*
X91013000Y-48632589D01*
X91013000Y-48699983D01*
X91155345Y-49043635D01*
X91418365Y-49306655D01*
X91762017Y-49449000D01*
X92133983Y-49449000D01*
X92477635Y-49306655D01*
X92740655Y-49043635D01*
X92883000Y-48699983D01*
X92883000Y-48378614D01*
X93073465Y-48416500D01*
X93073469Y-48416500D01*
X93146000Y-48430927D01*
X93218531Y-48416500D01*
X95055357Y-48416500D01*
X95133914Y-48606153D01*
X95593847Y-49066086D01*
X96194778Y-49315000D01*
X96845222Y-49315000D01*
X97446153Y-49066086D01*
X97906086Y-48606153D01*
X98155000Y-48005222D01*
X98155000Y-47354778D01*
X101385000Y-47354778D01*
X101385000Y-48005222D01*
X101633914Y-48606153D01*
X102093847Y-49066086D01*
X102694778Y-49315000D01*
X103345222Y-49315000D01*
X103946153Y-49066086D01*
X104406086Y-48606153D01*
X104655000Y-48005222D01*
X104655000Y-47354778D01*
X104406086Y-46753847D01*
X103946153Y-46293914D01*
X103345222Y-46045000D01*
X102694778Y-46045000D01*
X102093847Y-46293914D01*
X101633914Y-46753847D01*
X101385000Y-47354778D01*
X98155000Y-47354778D01*
X97906086Y-46753847D01*
X97446153Y-46293914D01*
X96845222Y-46045000D01*
X96194778Y-46045000D01*
X95593847Y-46293914D01*
X95133914Y-46753847D01*
X95055357Y-46943500D01*
X93451068Y-46943500D01*
X93137000Y-46629432D01*
X93137000Y-46550017D01*
X92994655Y-46206365D01*
X92731635Y-45943345D01*
X92387983Y-45801000D01*
X92016017Y-45801000D01*
X91672365Y-45943345D01*
X91409345Y-46206365D01*
X91276071Y-46528118D01*
X90946651Y-46391668D01*
X90574685Y-46391668D01*
X90231033Y-46534013D01*
X89968013Y-46797033D01*
X89825668Y-47140685D01*
X77185839Y-47140685D01*
X77185839Y-47043939D01*
X77200266Y-46971408D01*
X77185839Y-46898875D01*
X77185839Y-46898874D01*
X77143106Y-46684041D01*
X77070882Y-46575950D01*
X77021413Y-46501914D01*
X77021410Y-46501911D01*
X76980325Y-46440423D01*
X76918837Y-46399338D01*
X76278003Y-45758505D01*
X76236916Y-45697014D01*
X75993298Y-45534233D01*
X75778465Y-45491500D01*
X75778461Y-45491500D01*
X75705930Y-45477073D01*
X75669174Y-45484384D01*
X75620135Y-45435345D01*
X75276483Y-45293000D01*
X74904517Y-45293000D01*
X74560865Y-45435345D01*
X74353303Y-45642907D01*
X74353303Y-45327526D01*
X74210958Y-44983874D01*
X73947938Y-44720854D01*
X73604286Y-44578509D01*
X73232320Y-44578509D01*
X72888668Y-44720854D01*
X72625648Y-44983874D01*
X72483303Y-45327526D01*
X72483303Y-45406942D01*
X72182014Y-45708230D01*
X72120525Y-45749316D01*
X72079440Y-45810804D01*
X72079436Y-45810808D01*
X71957743Y-45992935D01*
X71900583Y-46280302D01*
X71915011Y-46352837D01*
X71915010Y-47248878D01*
X71858855Y-47305033D01*
X71716510Y-47648685D01*
X71716510Y-47706350D01*
X69544542Y-45534382D01*
X69544542Y-45454967D01*
X69402197Y-45111315D01*
X69139177Y-44848295D01*
X68795525Y-44705950D01*
X68423559Y-44705950D01*
X68079907Y-44848295D01*
X67816887Y-45111315D01*
X67674542Y-45454967D01*
X67674542Y-45826933D01*
X67816887Y-46170585D01*
X68079907Y-46433605D01*
X68423559Y-46575950D01*
X68502974Y-46575950D01*
X69402030Y-47475006D01*
X69256682Y-47620353D01*
X69114337Y-47964005D01*
X69114337Y-48335971D01*
X69256682Y-48679623D01*
X69519702Y-48942643D01*
X69863354Y-49084988D01*
X69974019Y-49084988D01*
X70061968Y-49143754D01*
X70276801Y-49186487D01*
X70276805Y-49186487D01*
X70336937Y-49198448D01*
X70729507Y-49591018D01*
X68699552Y-49591018D01*
X68753000Y-49461983D01*
X68753000Y-49090017D01*
X68610655Y-48746365D01*
X68347635Y-48483345D01*
X68003983Y-48341000D01*
X67632017Y-48341000D01*
X67288365Y-48483345D01*
X67233055Y-48538655D01*
X67164775Y-48525073D01*
X67092246Y-48539500D01*
X67092241Y-48539500D01*
X66877408Y-48582233D01*
X66633790Y-48745014D01*
X66592703Y-48806505D01*
X65985002Y-49414206D01*
X65923514Y-49455291D01*
X65882429Y-49516779D01*
X65882425Y-49516783D01*
X65760732Y-49698910D01*
X65751761Y-49744012D01*
X65717999Y-49913742D01*
X65717999Y-49913746D01*
X65703572Y-49986277D01*
X65717999Y-50058808D01*
X65717999Y-50373007D01*
X65717983Y-50373000D01*
X65346017Y-50373000D01*
X65002365Y-50515345D01*
X64998046Y-50519664D01*
X64100118Y-50519664D01*
X64043963Y-50463509D01*
X63700311Y-50321164D01*
X63328345Y-50321164D01*
X62984693Y-50463509D01*
X62721673Y-50726529D01*
X62579328Y-51070181D01*
X61426288Y-51070181D01*
X61426288Y-51039816D01*
X61283943Y-50696164D01*
X61020923Y-50433144D01*
X60725014Y-50310575D01*
X64719825Y-46315764D01*
X64782029Y-46274201D01*
X64946688Y-46027770D01*
X64989914Y-45810460D01*
X64989914Y-45810459D01*
X65004509Y-45737087D01*
X64989914Y-45663714D01*
X64989914Y-45616730D01*
X65037569Y-45569075D01*
X65179914Y-45225423D01*
X65179914Y-44853457D01*
X65040971Y-44518017D01*
X82014991Y-44518017D01*
X82014991Y-44889983D01*
X82157336Y-45233635D01*
X82420356Y-45496655D01*
X82764008Y-45639000D01*
X83135974Y-45639000D01*
X83479626Y-45496655D01*
X83527281Y-45449000D01*
X85274710Y-45449000D01*
X85322365Y-45496655D01*
X85666017Y-45639000D01*
X86037983Y-45639000D01*
X86381635Y-45496655D01*
X86644655Y-45233635D01*
X86787000Y-44889983D01*
X86787000Y-44518017D01*
X86644655Y-44174365D01*
X86381635Y-43911345D01*
X86037983Y-43769000D01*
X85666017Y-43769000D01*
X85322365Y-43911345D01*
X85274710Y-43959000D01*
X83527281Y-43959000D01*
X83479626Y-43911345D01*
X83135974Y-43769000D01*
X82764008Y-43769000D01*
X82420356Y-43911345D01*
X82157336Y-44174365D01*
X82014991Y-44518017D01*
X65040971Y-44518017D01*
X65037569Y-44509805D01*
X64774549Y-44246785D01*
X64430897Y-44104440D01*
X64058931Y-44104440D01*
X63715279Y-44246785D01*
X63452259Y-44509805D01*
X63309914Y-44853457D01*
X63309914Y-45225423D01*
X63425043Y-45503369D01*
X60535541Y-48392871D01*
X60422825Y-48280155D01*
X60079173Y-48137810D01*
X59707207Y-48137810D01*
X59363555Y-48280155D01*
X59112710Y-48531000D01*
X58105270Y-48531000D01*
X58354635Y-48281635D01*
X58496980Y-47937983D01*
X58496980Y-47566017D01*
X58354635Y-47222365D01*
X58091615Y-46959345D01*
X57747963Y-46817000D01*
X57668548Y-46817000D01*
X57458500Y-46606952D01*
X57458500Y-44847790D01*
X57514655Y-44791635D01*
X57657000Y-44447983D01*
X57657000Y-44076017D01*
X57514655Y-43732365D01*
X57251635Y-43469345D01*
X56907983Y-43327000D01*
X56876661Y-43327000D01*
X57220862Y-42982799D01*
X57485000Y-42345113D01*
X57485000Y-42285750D01*
X58205000Y-42285750D01*
X58205000Y-42976310D01*
X58301673Y-43209699D01*
X58480302Y-43388327D01*
X58713691Y-43485000D01*
X59404250Y-43485000D01*
X59563000Y-43326250D01*
X59563000Y-42127000D01*
X59817000Y-42127000D01*
X59817000Y-43326250D01*
X59975750Y-43485000D01*
X60666309Y-43485000D01*
X60899698Y-43388327D01*
X61035000Y-43253026D01*
X61170301Y-43388327D01*
X61403690Y-43485000D01*
X62094250Y-43485000D01*
X62253000Y-43326250D01*
X62253000Y-42127000D01*
X61053750Y-42127000D01*
X61035000Y-42145750D01*
X61016250Y-42127000D01*
X59817000Y-42127000D01*
X59563000Y-42127000D01*
X58363750Y-42127000D01*
X58205000Y-42285750D01*
X57485000Y-42285750D01*
X57485000Y-41654887D01*
X57220862Y-41017201D01*
X56888661Y-40685000D01*
X58406975Y-40685000D01*
X58301673Y-40790301D01*
X58205000Y-41023690D01*
X58205000Y-41714250D01*
X58363750Y-41873000D01*
X59563000Y-41873000D01*
X59563000Y-41853000D01*
X59817000Y-41853000D01*
X59817000Y-41873000D01*
X61016250Y-41873000D01*
X61035000Y-41854250D01*
X61053750Y-41873000D01*
X62253000Y-41873000D01*
X62253000Y-41853000D01*
X62507000Y-41853000D01*
X62507000Y-41873000D01*
X62527000Y-41873000D01*
X62527000Y-42127000D01*
X62507000Y-42127000D01*
X62507000Y-43326250D01*
X62665750Y-43485000D01*
X63356310Y-43485000D01*
X63589699Y-43388327D01*
X63768327Y-43209698D01*
X63834904Y-43048967D01*
X63849375Y-43070625D01*
X64340582Y-43398839D01*
X64773744Y-43485000D01*
X65066256Y-43485000D01*
X65499418Y-43398839D01*
X65990625Y-43070625D01*
X66190000Y-42772239D01*
X66389375Y-43070625D01*
X66880582Y-43398839D01*
X67313744Y-43485000D01*
X67606256Y-43485000D01*
X68039418Y-43398839D01*
X68530625Y-43070625D01*
X68730000Y-42772239D01*
X68929375Y-43070625D01*
X69420582Y-43398839D01*
X69853744Y-43485000D01*
X70146256Y-43485000D01*
X70579418Y-43398839D01*
X71070625Y-43070625D01*
X71270000Y-42772239D01*
X71469375Y-43070625D01*
X71960582Y-43398839D01*
X72393744Y-43485000D01*
X72686256Y-43485000D01*
X73119418Y-43398839D01*
X73610625Y-43070625D01*
X73810000Y-42772239D01*
X74009375Y-43070625D01*
X74500582Y-43398839D01*
X74933744Y-43485000D01*
X75226256Y-43485000D01*
X75659418Y-43398839D01*
X76150625Y-43070625D01*
X76350000Y-42772239D01*
X76549375Y-43070625D01*
X77040582Y-43398839D01*
X77473744Y-43485000D01*
X77766256Y-43485000D01*
X78199418Y-43398839D01*
X78690625Y-43070625D01*
X78834849Y-42854778D01*
X94885000Y-42854778D01*
X94885000Y-43505222D01*
X95133914Y-44106153D01*
X95593847Y-44566086D01*
X96194778Y-44815000D01*
X96845222Y-44815000D01*
X97446153Y-44566086D01*
X97906086Y-44106153D01*
X98155000Y-43505222D01*
X98155000Y-42854778D01*
X101385000Y-42854778D01*
X101385000Y-43505222D01*
X101633914Y-44106153D01*
X102093847Y-44566086D01*
X102694778Y-44815000D01*
X103345222Y-44815000D01*
X103946153Y-44566086D01*
X104406086Y-44106153D01*
X104655000Y-43505222D01*
X104655000Y-42854778D01*
X104406086Y-42253847D01*
X103946153Y-41793914D01*
X103345222Y-41545000D01*
X102694778Y-41545000D01*
X102093847Y-41793914D01*
X101633914Y-42253847D01*
X101385000Y-42854778D01*
X98155000Y-42854778D01*
X97906086Y-42253847D01*
X97446153Y-41793914D01*
X96845222Y-41545000D01*
X96194778Y-41545000D01*
X95593847Y-41793914D01*
X95133914Y-42253847D01*
X94885000Y-42854778D01*
X78834849Y-42854778D01*
X79018839Y-42579418D01*
X79134092Y-42000000D01*
X79018839Y-41420582D01*
X78690625Y-40929375D01*
X78324892Y-40685000D01*
X111315001Y-40685000D01*
X111315001Y-44361340D01*
X110982799Y-44029138D01*
X110345113Y-43765000D01*
X109654887Y-43765000D01*
X109017201Y-44029138D01*
X108529138Y-44517201D01*
X108265000Y-45154887D01*
X108265000Y-45845113D01*
X108529138Y-46482799D01*
X109017201Y-46970862D01*
X109654887Y-47235000D01*
X110345113Y-47235000D01*
X110982799Y-46970862D01*
X111315001Y-46638660D01*
X111315000Y-78111339D01*
X110982799Y-77779138D01*
X110345113Y-77515000D01*
X109654887Y-77515000D01*
X109017201Y-77779138D01*
X108529138Y-78267201D01*
X108265000Y-78904887D01*
X108265000Y-79595113D01*
X108529138Y-80232799D01*
X109017201Y-80720862D01*
X109654887Y-80985000D01*
X110345113Y-80985000D01*
X110982799Y-80720862D01*
X111315000Y-80388661D01*
X111315000Y-81315000D01*
X50685000Y-81315000D01*
X50685000Y-76571877D01*
X52245868Y-76571877D01*
X52444677Y-76967604D01*
X52779791Y-77257127D01*
X53038126Y-77364119D01*
X53213000Y-77237954D01*
X53213000Y-76397000D01*
X52370865Y-76397000D01*
X52245868Y-76571877D01*
X50685000Y-76571877D01*
X50685000Y-75000000D01*
X52182765Y-75000000D01*
X52270854Y-75442855D01*
X52407224Y-75646947D01*
X52245868Y-75968123D01*
X52370865Y-76143000D01*
X53213000Y-76143000D01*
X53213000Y-76131973D01*
X53228217Y-76135000D01*
X53451783Y-76135000D01*
X53467000Y-76131973D01*
X53467000Y-76143000D01*
X53478027Y-76143000D01*
X53452765Y-76270000D01*
X53478027Y-76397000D01*
X53467000Y-76397000D01*
X53467000Y-77237954D01*
X53641874Y-77364119D01*
X53900209Y-77257127D01*
X53963090Y-77202801D01*
X54167145Y-77339146D01*
X54498217Y-77405000D01*
X54721783Y-77405000D01*
X55052855Y-77339146D01*
X55245000Y-77210759D01*
X55437145Y-77339146D01*
X55527898Y-77357198D01*
X55453000Y-77538017D01*
X55453000Y-77909983D01*
X55595345Y-78253635D01*
X55858365Y-78516655D01*
X56202017Y-78659000D01*
X56276099Y-78659000D01*
X56357345Y-78855145D01*
X56620365Y-79118165D01*
X56964017Y-79260510D01*
X57276723Y-79260510D01*
X57348313Y-79274750D01*
X57420844Y-79260323D01*
X58867579Y-79260323D01*
X58923734Y-79316478D01*
X59267386Y-79458823D01*
X59639352Y-79458823D01*
X59983004Y-79316478D01*
X60144595Y-79154887D01*
X62265000Y-79154887D01*
X62265000Y-79845113D01*
X62529138Y-80482799D01*
X63017201Y-80970862D01*
X63654887Y-81235000D01*
X64345113Y-81235000D01*
X64982799Y-80970862D01*
X65470862Y-80482799D01*
X65735000Y-79845113D01*
X65735000Y-79154887D01*
X65470862Y-78517201D01*
X64982799Y-78029138D01*
X64345113Y-77765000D01*
X63654887Y-77765000D01*
X63017201Y-78029138D01*
X62529138Y-78517201D01*
X62265000Y-79154887D01*
X60144595Y-79154887D01*
X60246024Y-79053458D01*
X60388369Y-78709806D01*
X60388369Y-78337840D01*
X60246024Y-77994188D01*
X60117000Y-77865164D01*
X60117000Y-77538017D01*
X59974655Y-77194365D01*
X59711635Y-76931345D01*
X59423032Y-76811802D01*
X59489146Y-76712855D01*
X59517188Y-76571877D01*
X67485868Y-76571877D01*
X67684677Y-76967604D01*
X68019791Y-77257127D01*
X68278126Y-77364119D01*
X68453000Y-77237954D01*
X68453000Y-76397000D01*
X67610865Y-76397000D01*
X67485868Y-76571877D01*
X59517188Y-76571877D01*
X59577235Y-76270000D01*
X59489146Y-75827145D01*
X59477131Y-75809164D01*
X59518157Y-75747765D01*
X59545361Y-75611000D01*
X59875983Y-75611000D01*
X60219635Y-75468655D01*
X60273083Y-75415207D01*
X60520017Y-75517490D01*
X60891983Y-75517490D01*
X61235635Y-75375145D01*
X61498655Y-75112125D01*
X61545098Y-75000000D01*
X67422765Y-75000000D01*
X67510854Y-75442855D01*
X67647224Y-75646947D01*
X67485868Y-75968123D01*
X67610865Y-76143000D01*
X68453000Y-76143000D01*
X68453000Y-76131973D01*
X68468217Y-76135000D01*
X68691783Y-76135000D01*
X68707000Y-76131973D01*
X68707000Y-76143000D01*
X68718027Y-76143000D01*
X68692765Y-76270000D01*
X68718027Y-76397000D01*
X68707000Y-76397000D01*
X68707000Y-77237954D01*
X68881874Y-77364119D01*
X69140209Y-77257127D01*
X69152636Y-77246390D01*
X69156233Y-77264473D01*
X69277926Y-77446600D01*
X69277930Y-77446604D01*
X69319015Y-77508092D01*
X69380503Y-77549177D01*
X70786821Y-78955495D01*
X70827908Y-79016986D01*
X71071526Y-79179767D01*
X71286359Y-79222500D01*
X71286364Y-79222500D01*
X71298655Y-79224945D01*
X71352365Y-79278655D01*
X71696017Y-79421000D01*
X72067983Y-79421000D01*
X72411635Y-79278655D01*
X72674655Y-79015635D01*
X72817000Y-78671983D01*
X72817000Y-78365290D01*
X72928655Y-78253635D01*
X73071000Y-77909983D01*
X73071000Y-77538017D01*
X72954858Y-77257626D01*
X73025000Y-77210759D01*
X73217145Y-77339146D01*
X73548217Y-77405000D01*
X73771783Y-77405000D01*
X74076365Y-77344415D01*
X74137345Y-77491635D01*
X74140176Y-77494466D01*
X74109823Y-77567746D01*
X74109823Y-77939712D01*
X74252168Y-78283364D01*
X74515188Y-78546384D01*
X74858840Y-78688729D01*
X75230806Y-78688729D01*
X75387032Y-78624018D01*
X77504999Y-78624018D01*
X77504999Y-78995984D01*
X77647344Y-79339636D01*
X77910364Y-79602656D01*
X78254016Y-79745001D01*
X78625982Y-79745001D01*
X78969634Y-79602656D01*
X79077290Y-79495000D01*
X80672710Y-79495000D01*
X80720365Y-79542655D01*
X81064017Y-79685000D01*
X81435983Y-79685000D01*
X81779635Y-79542655D01*
X82042655Y-79279635D01*
X82185000Y-78935983D01*
X82185000Y-78725689D01*
X82207345Y-78779635D01*
X82470365Y-79042655D01*
X82814017Y-79185000D01*
X83185983Y-79185000D01*
X83529635Y-79042655D01*
X83792655Y-78779635D01*
X83935000Y-78435983D01*
X83935000Y-78064017D01*
X83792655Y-77720365D01*
X83529635Y-77457345D01*
X83185983Y-77315000D01*
X83118589Y-77315000D01*
X82711704Y-76908116D01*
X82711704Y-76604685D01*
X82569359Y-76261033D01*
X82306339Y-75998013D01*
X82008823Y-75874778D01*
X94885000Y-75874778D01*
X94885000Y-76525222D01*
X95133914Y-77126153D01*
X95593847Y-77586086D01*
X96194778Y-77835000D01*
X96845222Y-77835000D01*
X97446153Y-77586086D01*
X97906086Y-77126153D01*
X97984643Y-76936500D01*
X101555357Y-76936500D01*
X101633914Y-77126153D01*
X102093847Y-77586086D01*
X102694778Y-77835000D01*
X103345222Y-77835000D01*
X103946153Y-77586086D01*
X104406086Y-77126153D01*
X104655000Y-76525222D01*
X104655000Y-75874778D01*
X104406086Y-75273847D01*
X103946153Y-74813914D01*
X103345222Y-74565000D01*
X102694778Y-74565000D01*
X102093847Y-74813914D01*
X101633914Y-75273847D01*
X101555357Y-75463500D01*
X97984643Y-75463500D01*
X97906086Y-75273847D01*
X97446153Y-74813914D01*
X96845222Y-74565000D01*
X96194778Y-74565000D01*
X95593847Y-74813914D01*
X95133914Y-75273847D01*
X94885000Y-75874778D01*
X82008823Y-75874778D01*
X81962687Y-75855668D01*
X81590721Y-75855668D01*
X81247069Y-75998013D01*
X80984049Y-76261033D01*
X80841704Y-76604685D01*
X80841704Y-76976651D01*
X80984049Y-77320303D01*
X81247069Y-77583323D01*
X81302833Y-77606421D01*
X81564748Y-77868336D01*
X81435983Y-77815000D01*
X81064017Y-77815000D01*
X80720365Y-77957345D01*
X80672710Y-78005000D01*
X78939828Y-78005000D01*
X78625982Y-77875001D01*
X78254016Y-77875001D01*
X77910364Y-78017346D01*
X77647344Y-78280366D01*
X77504999Y-78624018D01*
X75387032Y-78624018D01*
X75574458Y-78546384D01*
X75837478Y-78283364D01*
X75979823Y-77939712D01*
X75979823Y-77860297D01*
X76179002Y-77661117D01*
X76240496Y-77620028D01*
X76403277Y-77376410D01*
X76446010Y-77161577D01*
X76446010Y-77161573D01*
X76460437Y-77089042D01*
X76446010Y-77016511D01*
X76446010Y-73483790D01*
X76502165Y-73427635D01*
X76644510Y-73083983D01*
X76644510Y-72712017D01*
X76502165Y-72368365D01*
X76239145Y-72105345D01*
X75895493Y-71963000D01*
X75523527Y-71963000D01*
X75179875Y-72105345D01*
X74916855Y-72368365D01*
X74774510Y-72712017D01*
X74774510Y-73083983D01*
X74916855Y-73427635D01*
X74952710Y-73463490D01*
X74879204Y-73463490D01*
X74535552Y-73605835D01*
X74272532Y-73868855D01*
X74270202Y-73874480D01*
X74160000Y-73852560D01*
X73160000Y-73852560D01*
X72912235Y-73901843D01*
X72850836Y-73942869D01*
X72832855Y-73930854D01*
X72501783Y-73865000D01*
X72278217Y-73865000D01*
X71947145Y-73930854D01*
X71821117Y-74015063D01*
X71813767Y-73978111D01*
X71740764Y-73868855D01*
X71692074Y-73795985D01*
X71692073Y-73795984D01*
X71650986Y-73734493D01*
X71589495Y-73693406D01*
X71386510Y-73490421D01*
X71386510Y-73411006D01*
X71244165Y-73067354D01*
X70981145Y-72804334D01*
X70637493Y-72661989D01*
X70531585Y-72661989D01*
X70401273Y-72347387D01*
X70138253Y-72084367D01*
X69794601Y-71942022D01*
X69422635Y-71942022D01*
X69367331Y-71964929D01*
X69342810Y-71940408D01*
X68999158Y-71798063D01*
X68627192Y-71798063D01*
X68283540Y-71940408D01*
X68020520Y-72203428D01*
X67878175Y-72547080D01*
X67878175Y-72719382D01*
X67829073Y-72966238D01*
X67843501Y-73038773D01*
X67843500Y-74127061D01*
X67761711Y-74181711D01*
X67510854Y-74557145D01*
X67422765Y-75000000D01*
X61545098Y-75000000D01*
X61641000Y-74768473D01*
X61641000Y-74396507D01*
X61498655Y-74052855D01*
X61306987Y-73861187D01*
X61422765Y-73838157D01*
X61632809Y-73697809D01*
X61773157Y-73487765D01*
X61822440Y-73240000D01*
X61822440Y-71540000D01*
X61773157Y-71292235D01*
X61632809Y-71082191D01*
X61422765Y-70941843D01*
X61377381Y-70932816D01*
X61395625Y-70920625D01*
X61723839Y-70429418D01*
X61839092Y-69850000D01*
X61723839Y-69270582D01*
X61395625Y-68779375D01*
X61097239Y-68580000D01*
X61121159Y-68564017D01*
X78315000Y-68564017D01*
X78315000Y-68935983D01*
X78457345Y-69279635D01*
X78720365Y-69542655D01*
X79064017Y-69685000D01*
X79435983Y-69685000D01*
X79779635Y-69542655D01*
X79835790Y-69486500D01*
X82063941Y-69486500D01*
X82136472Y-69500927D01*
X82209003Y-69486500D01*
X82209007Y-69486500D01*
X82423840Y-69443767D01*
X82597241Y-69327904D01*
X82679551Y-69327904D01*
X83023203Y-69185559D01*
X83286223Y-68922539D01*
X83331174Y-68814017D01*
X85315000Y-68814017D01*
X85315000Y-69185983D01*
X85457345Y-69529635D01*
X85513500Y-69585790D01*
X85513501Y-71164209D01*
X85457345Y-71220365D01*
X85315000Y-71564017D01*
X85315000Y-71935983D01*
X85457345Y-72279635D01*
X85720365Y-72542655D01*
X86064017Y-72685000D01*
X86143432Y-72685000D01*
X86677927Y-73219495D01*
X86719014Y-73280986D01*
X86780505Y-73322073D01*
X86780506Y-73322074D01*
X86846249Y-73366002D01*
X86962632Y-73443767D01*
X87177465Y-73486500D01*
X87177469Y-73486500D01*
X87250000Y-73500927D01*
X87322531Y-73486500D01*
X89914210Y-73486500D01*
X89970365Y-73542655D01*
X90314017Y-73685000D01*
X90685983Y-73685000D01*
X91029635Y-73542655D01*
X91292655Y-73279635D01*
X91435000Y-72935983D01*
X91435000Y-72564017D01*
X91292655Y-72220365D01*
X91029635Y-71957345D01*
X90685983Y-71815000D01*
X90314017Y-71815000D01*
X89970365Y-71957345D01*
X89914210Y-72013500D01*
X87555068Y-72013500D01*
X87185000Y-71643432D01*
X87185000Y-71564017D01*
X87042655Y-71220365D01*
X86986500Y-71164210D01*
X86986500Y-69585790D01*
X87042655Y-69529635D01*
X87185000Y-69185983D01*
X87185000Y-68814017D01*
X87042655Y-68470365D01*
X86779635Y-68207345D01*
X86435983Y-68065000D01*
X86064017Y-68065000D01*
X85720365Y-68207345D01*
X85457345Y-68470365D01*
X85315000Y-68814017D01*
X83331174Y-68814017D01*
X83428568Y-68578887D01*
X83428568Y-68206921D01*
X83286223Y-67863269D01*
X83023203Y-67600249D01*
X82679551Y-67457904D01*
X82307585Y-67457904D01*
X81963933Y-67600249D01*
X81700913Y-67863269D01*
X81638685Y-68013500D01*
X79835790Y-68013500D01*
X79779635Y-67957345D01*
X79435983Y-67815000D01*
X79064017Y-67815000D01*
X78720365Y-67957345D01*
X78457345Y-68220365D01*
X78315000Y-68564017D01*
X61121159Y-68564017D01*
X61395625Y-68380625D01*
X61723839Y-67889418D01*
X61839092Y-67310000D01*
X61723839Y-66730582D01*
X61395625Y-66239375D01*
X61076522Y-66026157D01*
X61206358Y-65965183D01*
X61539146Y-65600017D01*
X74757000Y-65600017D01*
X74757000Y-65971983D01*
X74899345Y-66315635D01*
X75140672Y-66556962D01*
X75011000Y-66870017D01*
X75011000Y-67241983D01*
X75153345Y-67585635D01*
X75416365Y-67848655D01*
X75760017Y-67991000D01*
X76066710Y-67991000D01*
X76178365Y-68102655D01*
X76522017Y-68245000D01*
X76893983Y-68245000D01*
X77237635Y-68102655D01*
X77500655Y-67839635D01*
X77643000Y-67495983D01*
X77643000Y-67124017D01*
X77618148Y-67064017D01*
X92315000Y-67064017D01*
X92315000Y-67435983D01*
X92457345Y-67779635D01*
X92720365Y-68042655D01*
X93064017Y-68185000D01*
X93435983Y-68185000D01*
X93779635Y-68042655D01*
X94042655Y-67779635D01*
X94185000Y-67435983D01*
X94185000Y-67356568D01*
X94814988Y-66726580D01*
X94814988Y-67014733D01*
X94957333Y-67358385D01*
X95220353Y-67621405D01*
X95564005Y-67763750D01*
X95643420Y-67763750D01*
X95783501Y-67903831D01*
X95783500Y-70235357D01*
X95593847Y-70313914D01*
X95133914Y-70773847D01*
X94885000Y-71374778D01*
X94885000Y-72025222D01*
X95133914Y-72626153D01*
X95593847Y-73086086D01*
X96194778Y-73335000D01*
X96845222Y-73335000D01*
X97446153Y-73086086D01*
X97906086Y-72626153D01*
X97984643Y-72436500D01*
X101555357Y-72436500D01*
X101633914Y-72626153D01*
X102093847Y-73086086D01*
X102694778Y-73335000D01*
X103345222Y-73335000D01*
X103946153Y-73086086D01*
X104406086Y-72626153D01*
X104655000Y-72025222D01*
X104655000Y-71374778D01*
X104406086Y-70773847D01*
X103946153Y-70313914D01*
X103345222Y-70065000D01*
X102694778Y-70065000D01*
X102093847Y-70313914D01*
X101633914Y-70773847D01*
X101555357Y-70963500D01*
X97984643Y-70963500D01*
X97906086Y-70773847D01*
X97446153Y-70313914D01*
X97256500Y-70235357D01*
X97256500Y-67671293D01*
X97270927Y-67598762D01*
X97256500Y-67526231D01*
X97256500Y-67526227D01*
X97213767Y-67311394D01*
X97050986Y-67067776D01*
X96989495Y-67026689D01*
X96684988Y-66722182D01*
X96684988Y-66642767D01*
X96542643Y-66299115D01*
X96282909Y-66039381D01*
X96292655Y-66029635D01*
X96435000Y-65685983D01*
X96435000Y-65314017D01*
X96292655Y-64970365D01*
X96056524Y-64734234D01*
X106815000Y-64734234D01*
X106815000Y-65185766D01*
X106987793Y-65602926D01*
X107307074Y-65922207D01*
X107724234Y-66095000D01*
X108175766Y-66095000D01*
X108592926Y-65922207D01*
X108912207Y-65602926D01*
X109085000Y-65185766D01*
X109085000Y-64734234D01*
X108912207Y-64317074D01*
X108592926Y-63997793D01*
X108175766Y-63825000D01*
X107724234Y-63825000D01*
X107307074Y-63997793D01*
X106987793Y-64317074D01*
X106815000Y-64734234D01*
X96056524Y-64734234D01*
X96029635Y-64707345D01*
X95685983Y-64565000D01*
X95314017Y-64565000D01*
X94970365Y-64707345D01*
X94910919Y-64766791D01*
X94712632Y-64806233D01*
X94469014Y-64969014D01*
X94427927Y-65030505D01*
X93143432Y-66315000D01*
X93064017Y-66315000D01*
X92720365Y-66457345D01*
X92457345Y-66720365D01*
X92315000Y-67064017D01*
X77618148Y-67064017D01*
X77500655Y-66780365D01*
X77444500Y-66724210D01*
X77444500Y-66371790D01*
X77500655Y-66315635D01*
X77607832Y-66056887D01*
X83499381Y-66056887D01*
X83555536Y-66113042D01*
X83899188Y-66255387D01*
X84271154Y-66255387D01*
X84565000Y-66133672D01*
X84565000Y-66185983D01*
X84707345Y-66529635D01*
X84970365Y-66792655D01*
X85314017Y-66935000D01*
X85685983Y-66935000D01*
X86029635Y-66792655D01*
X86292655Y-66529635D01*
X86435000Y-66185983D01*
X86435000Y-65814017D01*
X86292655Y-65470365D01*
X86236500Y-65414210D01*
X86236500Y-64555068D01*
X87356568Y-63435000D01*
X87435983Y-63435000D01*
X87779635Y-63292655D01*
X88042655Y-63029635D01*
X88185000Y-62685983D01*
X88185000Y-62314017D01*
X88042655Y-61970365D01*
X87986538Y-61914248D01*
X88703787Y-61197000D01*
X92894710Y-61197000D01*
X92942365Y-61244655D01*
X93286017Y-61387000D01*
X93657983Y-61387000D01*
X94001635Y-61244655D01*
X94264655Y-60981635D01*
X94407000Y-60637983D01*
X94407000Y-60266017D01*
X94264655Y-59922365D01*
X94217000Y-59874710D01*
X94217000Y-58743290D01*
X94264655Y-58695635D01*
X94407000Y-58351983D01*
X94407000Y-57980017D01*
X94264655Y-57636365D01*
X94001635Y-57373345D01*
X93657983Y-57231000D01*
X93286017Y-57231000D01*
X92942365Y-57373345D01*
X92825000Y-57490710D01*
X92825000Y-57436506D01*
X92614147Y-56927460D01*
X92420921Y-56734234D01*
X106815000Y-56734234D01*
X106815000Y-57185766D01*
X106987793Y-57602926D01*
X107307074Y-57922207D01*
X107724234Y-58095000D01*
X108175766Y-58095000D01*
X108592926Y-57922207D01*
X108912207Y-57602926D01*
X109085000Y-57185766D01*
X109085000Y-56734234D01*
X108912207Y-56317074D01*
X108592926Y-55997793D01*
X108175766Y-55825000D01*
X107724234Y-55825000D01*
X107307074Y-55997793D01*
X106987793Y-56317074D01*
X106815000Y-56734234D01*
X92420921Y-56734234D01*
X92224540Y-56537853D01*
X91715494Y-56327000D01*
X91164506Y-56327000D01*
X90655460Y-56537853D01*
X90265853Y-56927460D01*
X90055000Y-57436506D01*
X90055000Y-57987494D01*
X90265853Y-58496540D01*
X90655460Y-58886147D01*
X91164506Y-59097000D01*
X91715494Y-59097000D01*
X92224540Y-58886147D01*
X92601935Y-58508752D01*
X92679345Y-58695635D01*
X92727001Y-58743291D01*
X92727000Y-59707000D01*
X88468570Y-59707000D01*
X88395198Y-59692405D01*
X88321825Y-59707000D01*
X88321824Y-59707000D01*
X88104514Y-59750226D01*
X87858083Y-59914885D01*
X87816519Y-59977090D01*
X87189321Y-60604288D01*
X87189321Y-52556506D01*
X90055000Y-52556506D01*
X90055000Y-53107494D01*
X90265853Y-53616540D01*
X90655460Y-54006147D01*
X91164506Y-54217000D01*
X91715494Y-54217000D01*
X92224540Y-54006147D01*
X92614147Y-53616540D01*
X92825000Y-53107494D01*
X92825000Y-52556506D01*
X92614147Y-52047460D01*
X92224540Y-51657853D01*
X91715494Y-51447000D01*
X91164506Y-51447000D01*
X90655460Y-51657853D01*
X90265853Y-52047460D01*
X90055000Y-52556506D01*
X87189321Y-52556506D01*
X87189321Y-51399169D01*
X87203916Y-51325795D01*
X87146095Y-51035110D01*
X87079322Y-50935177D01*
X87079322Y-50839813D01*
X86936977Y-50496161D01*
X86673957Y-50233141D01*
X86330305Y-50090796D01*
X85958339Y-50090796D01*
X85614687Y-50233141D01*
X85351667Y-50496161D01*
X85323153Y-50565000D01*
X85314017Y-50565000D01*
X84970365Y-50707345D01*
X84707345Y-50970365D01*
X84565000Y-51314017D01*
X84565000Y-51685983D01*
X84707345Y-52029635D01*
X84785597Y-52107887D01*
X84806233Y-52211632D01*
X84840023Y-52262202D01*
X84927926Y-52393758D01*
X84927929Y-52393761D01*
X84969015Y-52455250D01*
X85013500Y-52484974D01*
X85013501Y-59664209D01*
X84957345Y-59720365D01*
X84927462Y-59792509D01*
X84127854Y-58992901D01*
X84127854Y-58525024D01*
X84184009Y-58468869D01*
X84326354Y-58125217D01*
X84326354Y-57753251D01*
X84184009Y-57409599D01*
X83920989Y-57146579D01*
X83577337Y-57004234D01*
X83205371Y-57004234D01*
X82861719Y-57146579D01*
X82598699Y-57409599D01*
X82456354Y-57753251D01*
X82456354Y-58125217D01*
X82598699Y-58468869D01*
X82654854Y-58525024D01*
X82654855Y-59225434D01*
X82640427Y-59297969D01*
X82697587Y-59585336D01*
X82819280Y-59767463D01*
X82819284Y-59767467D01*
X82860369Y-59828955D01*
X82921857Y-59870040D01*
X84282817Y-61231000D01*
X79825290Y-61231000D01*
X79777635Y-61183345D01*
X79433983Y-61041000D01*
X79062017Y-61041000D01*
X78718365Y-61183345D01*
X78455345Y-61446365D01*
X78313000Y-61790017D01*
X78313000Y-62161983D01*
X78455345Y-62505635D01*
X78718365Y-62768655D01*
X79062017Y-62911000D01*
X79433983Y-62911000D01*
X79777635Y-62768655D01*
X79825290Y-62721000D01*
X84886220Y-62721000D01*
X84921675Y-62744690D01*
X84985378Y-62787255D01*
X85276062Y-62845076D01*
X85349436Y-62830481D01*
X85877951Y-62830481D01*
X85030505Y-63677927D01*
X84969014Y-63719014D01*
X84927927Y-63780505D01*
X84927926Y-63780506D01*
X84850128Y-63896939D01*
X84806233Y-63962633D01*
X84763500Y-64177466D01*
X84763500Y-64177469D01*
X84749073Y-64250000D01*
X84763500Y-64322531D01*
X84763500Y-64676426D01*
X84614806Y-64527732D01*
X84271154Y-64385387D01*
X83899188Y-64385387D01*
X83555536Y-64527732D01*
X83499381Y-64583887D01*
X82123736Y-64583887D01*
X82185000Y-64435983D01*
X82185000Y-64064017D01*
X82042655Y-63720365D01*
X81779635Y-63457345D01*
X81435983Y-63315000D01*
X81064017Y-63315000D01*
X80720365Y-63457345D01*
X80664210Y-63513500D01*
X77967178Y-63513500D01*
X77845329Y-63391651D01*
X77501677Y-63249306D01*
X77129711Y-63249306D01*
X76786059Y-63391651D01*
X76523039Y-63654671D01*
X76434388Y-63868694D01*
X76220365Y-63957345D01*
X75957345Y-64220365D01*
X75815000Y-64564017D01*
X75815000Y-64851000D01*
X75506017Y-64851000D01*
X75162365Y-64993345D01*
X74899345Y-65256365D01*
X74757000Y-65600017D01*
X61539146Y-65600017D01*
X61596645Y-65536924D01*
X61766476Y-65126890D01*
X61645155Y-64897000D01*
X60452000Y-64897000D01*
X60452000Y-64917000D01*
X60198000Y-64917000D01*
X60198000Y-64897000D01*
X59004845Y-64897000D01*
X58883524Y-65126890D01*
X59053355Y-65536924D01*
X59443642Y-65965183D01*
X59573478Y-66026157D01*
X59254375Y-66239375D01*
X58926161Y-66730582D01*
X58810908Y-67310000D01*
X58926161Y-67889418D01*
X59254375Y-68380625D01*
X59552761Y-68580000D01*
X59254375Y-68779375D01*
X58926161Y-69270582D01*
X58810908Y-69850000D01*
X58926161Y-70429418D01*
X59254375Y-70920625D01*
X59272619Y-70932816D01*
X59227235Y-70941843D01*
X59017191Y-71082191D01*
X58876843Y-71292235D01*
X58827560Y-71540000D01*
X58827560Y-71812480D01*
X58777315Y-71791668D01*
X58405349Y-71791668D01*
X58202929Y-71875513D01*
X58196655Y-71860365D01*
X57933635Y-71597345D01*
X57589983Y-71455000D01*
X57218017Y-71455000D01*
X56874365Y-71597345D01*
X56611345Y-71860365D01*
X56469000Y-72204017D01*
X56469000Y-72575983D01*
X56611345Y-72919635D01*
X56874365Y-73182655D01*
X57218017Y-73325000D01*
X57297432Y-73325000D01*
X57840754Y-73868323D01*
X57672235Y-73901843D01*
X57610836Y-73942869D01*
X57592855Y-73930854D01*
X57261783Y-73865000D01*
X57038217Y-73865000D01*
X56707145Y-73930854D01*
X56515000Y-74059241D01*
X56322855Y-73930854D01*
X55991783Y-73865000D01*
X55768217Y-73865000D01*
X55437145Y-73930854D01*
X55245000Y-74059241D01*
X55052855Y-73930854D01*
X54721783Y-73865000D01*
X54498217Y-73865000D01*
X54167145Y-73930854D01*
X53975000Y-74059241D01*
X53782855Y-73930854D01*
X53451783Y-73865000D01*
X53228217Y-73865000D01*
X52897145Y-73930854D01*
X52521711Y-74181711D01*
X52270854Y-74557145D01*
X52182765Y-75000000D01*
X50685000Y-75000000D01*
X50685000Y-61790017D01*
X56977000Y-61790017D01*
X56977000Y-62161983D01*
X57119345Y-62505635D01*
X57382365Y-62768655D01*
X57726017Y-62911000D01*
X57739000Y-62911000D01*
X57739000Y-62923983D01*
X57881345Y-63267635D01*
X58144365Y-63530655D01*
X58488017Y-63673000D01*
X58859983Y-63673000D01*
X59203635Y-63530655D01*
X59259790Y-63474500D01*
X59657252Y-63474500D01*
X59443642Y-63574817D01*
X59053355Y-64003076D01*
X58883524Y-64413110D01*
X59004845Y-64643000D01*
X60198000Y-64643000D01*
X60198000Y-64623000D01*
X60452000Y-64623000D01*
X60452000Y-64643000D01*
X61645155Y-64643000D01*
X61766476Y-64413110D01*
X61596645Y-64003076D01*
X61206358Y-63574817D01*
X60992748Y-63474500D01*
X61649469Y-63474500D01*
X61722000Y-63488927D01*
X61794531Y-63474500D01*
X61794535Y-63474500D01*
X62009368Y-63431767D01*
X62161985Y-63329791D01*
X62191494Y-63310074D01*
X62191495Y-63310073D01*
X62252986Y-63268986D01*
X62294073Y-63207495D01*
X63098568Y-62403000D01*
X63177983Y-62403000D01*
X63521635Y-62260655D01*
X63784655Y-61997635D01*
X63927000Y-61653983D01*
X63927000Y-61282017D01*
X63784655Y-60938365D01*
X63673000Y-60826710D01*
X63673000Y-60520017D01*
X63530655Y-60176365D01*
X63267635Y-59913345D01*
X62923983Y-59771000D01*
X62552017Y-59771000D01*
X62208365Y-59913345D01*
X61945345Y-60176365D01*
X61803000Y-60520017D01*
X61803000Y-60599432D01*
X61162932Y-61239500D01*
X58497790Y-61239500D01*
X58441635Y-61183345D01*
X58097983Y-61041000D01*
X57726017Y-61041000D01*
X57382365Y-61183345D01*
X57119345Y-61446365D01*
X56977000Y-61790017D01*
X50685000Y-61790017D01*
X50685000Y-61185000D01*
X51464250Y-61185000D01*
X51623000Y-61026250D01*
X51623000Y-59977000D01*
X51877000Y-59977000D01*
X51877000Y-61026250D01*
X52035750Y-61185000D01*
X53026310Y-61185000D01*
X53259699Y-61088327D01*
X53400000Y-60948025D01*
X53540301Y-61088327D01*
X53773690Y-61185000D01*
X54764250Y-61185000D01*
X54923000Y-61026250D01*
X54923000Y-59977000D01*
X55177000Y-59977000D01*
X55177000Y-61026250D01*
X55335750Y-61185000D01*
X56326310Y-61185000D01*
X56559699Y-61088327D01*
X56738327Y-60909698D01*
X56835000Y-60676309D01*
X56835000Y-60135750D01*
X56676250Y-59977000D01*
X55177000Y-59977000D01*
X54923000Y-59977000D01*
X53423750Y-59977000D01*
X53400000Y-60000750D01*
X53376250Y-59977000D01*
X51877000Y-59977000D01*
X51623000Y-59977000D01*
X51603000Y-59977000D01*
X51603000Y-59723000D01*
X51623000Y-59723000D01*
X51623000Y-59703000D01*
X51877000Y-59703000D01*
X51877000Y-59723000D01*
X53376250Y-59723000D01*
X53400000Y-59699250D01*
X53423750Y-59723000D01*
X54923000Y-59723000D01*
X54923000Y-59703000D01*
X55177000Y-59703000D01*
X55177000Y-59723000D01*
X56676250Y-59723000D01*
X56835000Y-59564250D01*
X56835000Y-59023691D01*
X56738327Y-58790302D01*
X56559699Y-58611673D01*
X56326310Y-58515000D01*
X55335750Y-58515000D01*
X55190510Y-58660240D01*
X55185000Y-58632538D01*
X55185000Y-51367462D01*
X55190510Y-51339760D01*
X55335750Y-51485000D01*
X56326310Y-51485000D01*
X56559699Y-51388327D01*
X56738327Y-51209698D01*
X56835000Y-50976309D01*
X56835000Y-50435750D01*
X56676250Y-50277000D01*
X55177000Y-50277000D01*
X55177000Y-50297000D01*
X54923000Y-50297000D01*
X54923000Y-50277000D01*
X53423750Y-50277000D01*
X53400000Y-50300750D01*
X53376250Y-50277000D01*
X51877000Y-50277000D01*
X51877000Y-50297000D01*
X51623000Y-50297000D01*
X51623000Y-50277000D01*
X51603000Y-50277000D01*
X51603000Y-50023000D01*
X51623000Y-50023000D01*
X51623000Y-48973750D01*
X51877000Y-48973750D01*
X51877000Y-50023000D01*
X53376250Y-50023000D01*
X53400000Y-49999250D01*
X53423750Y-50023000D01*
X54923000Y-50023000D01*
X54923000Y-48973750D01*
X54764250Y-48815000D01*
X53773690Y-48815000D01*
X53540301Y-48911673D01*
X53400000Y-49051975D01*
X53259699Y-48911673D01*
X53026310Y-48815000D01*
X52035750Y-48815000D01*
X51877000Y-48973750D01*
X51623000Y-48973750D01*
X51464250Y-48815000D01*
X50685000Y-48815000D01*
X50685000Y-43192285D01*
X50762191Y-43307809D01*
X50972235Y-43448157D01*
X51220000Y-43497440D01*
X52920000Y-43497440D01*
X53167765Y-43448157D01*
X53377809Y-43307809D01*
X53518157Y-43097765D01*
X53567440Y-42850000D01*
X53567440Y-41150000D01*
X53518157Y-40902235D01*
X53377809Y-40692191D01*
X53367047Y-40685000D01*
X54611339Y-40685000D01*
X54279138Y-41017201D01*
X54279138Y-41017201D01*
G37*
X54279138Y-41017201D02*
X54015000Y-41654887D01*
X54015000Y-42345113D01*
X54279138Y-42982799D01*
X54767201Y-43470862D01*
X55404887Y-43735000D01*
X55928254Y-43735000D01*
X55787000Y-44076017D01*
X55787000Y-44447983D01*
X55929345Y-44791635D01*
X55985500Y-44847790D01*
X55985501Y-46839485D01*
X55971073Y-46912020D01*
X56028233Y-47199387D01*
X56149926Y-47381514D01*
X56149930Y-47381518D01*
X56191015Y-47443006D01*
X56252503Y-47484091D01*
X56626980Y-47858568D01*
X56626980Y-47937983D01*
X56769325Y-48281635D01*
X56942721Y-48455031D01*
X56874365Y-48483345D01*
X56611345Y-48746365D01*
X56545337Y-48905724D01*
X56326310Y-48815000D01*
X55335750Y-48815000D01*
X55177000Y-48973750D01*
X55177000Y-50023000D01*
X56676250Y-50023000D01*
X56752480Y-49946770D01*
X56874365Y-50068655D01*
X57218017Y-50211000D01*
X57589983Y-50211000D01*
X57933635Y-50068655D01*
X57981290Y-50021000D01*
X58907412Y-50021000D01*
X57945090Y-50983322D01*
X57882886Y-51024885D01*
X57730475Y-51252986D01*
X57718227Y-51271316D01*
X57660405Y-51562000D01*
X57675001Y-51635377D01*
X57675001Y-52913000D01*
X57472017Y-52913000D01*
X57128365Y-53055345D01*
X56865345Y-53318365D01*
X56723000Y-53662017D01*
X56723000Y-54033983D01*
X56865345Y-54377635D01*
X56913000Y-54425290D01*
X56913001Y-55010696D01*
X56827332Y-55096365D01*
X56684987Y-55440017D01*
X56684987Y-55811983D01*
X56827332Y-56155635D01*
X57090352Y-56418655D01*
X57434004Y-56561000D01*
X57805970Y-56561000D01*
X58019994Y-56472349D01*
X58234017Y-56561000D01*
X58605983Y-56561000D01*
X58873000Y-56450398D01*
X58873000Y-56500000D01*
X58882667Y-56548601D01*
X58910197Y-56589803D01*
X58951399Y-56617333D01*
X59000000Y-56627000D01*
X62500000Y-56627000D01*
X62548601Y-56617333D01*
X62589803Y-56589803D01*
X62617333Y-56548601D01*
X62627000Y-56500000D01*
X62627000Y-53000000D01*
X62617333Y-52951399D01*
X62589803Y-52910197D01*
X62548601Y-52882667D01*
X62500000Y-52873000D01*
X60449290Y-52873000D01*
X60542655Y-52779635D01*
X60685000Y-52435983D01*
X60685000Y-52157598D01*
X61020923Y-52018454D01*
X61283943Y-51755434D01*
X61426288Y-51411782D01*
X61426288Y-51070181D01*
X62579328Y-51070181D01*
X62579328Y-51442147D01*
X62721673Y-51785799D01*
X62984693Y-52048819D01*
X63328345Y-52191164D01*
X63700311Y-52191164D01*
X64043963Y-52048819D01*
X64100118Y-51992664D01*
X64894374Y-51992664D01*
X65002365Y-52100655D01*
X65346017Y-52243000D01*
X65717983Y-52243000D01*
X66061635Y-52100655D01*
X66324655Y-51837635D01*
X66389505Y-51681074D01*
X66427928Y-51719497D01*
X66469014Y-51780986D01*
X66530502Y-51822071D01*
X66530505Y-51822074D01*
X66677520Y-51920306D01*
X66712632Y-51943767D01*
X66927465Y-51986500D01*
X66927469Y-51986500D01*
X67000000Y-52000927D01*
X67072531Y-51986500D01*
X67444932Y-51986500D01*
X67788113Y-52329682D01*
X67788112Y-56036859D01*
X67773685Y-56109390D01*
X67788112Y-56181921D01*
X67788112Y-56181924D01*
X67821124Y-56347884D01*
X67830845Y-56396757D01*
X67889611Y-56484707D01*
X67889611Y-56595372D01*
X68031956Y-56939024D01*
X68294976Y-57202044D01*
X68638628Y-57344389D01*
X68718013Y-57344389D01*
X68718012Y-59221981D01*
X68703585Y-59294512D01*
X68718012Y-59367043D01*
X68718012Y-59367046D01*
X68747840Y-59517000D01*
X68760745Y-59581879D01*
X68873232Y-59750227D01*
X68923526Y-59825498D01*
X68985017Y-59866585D01*
X68985171Y-59866739D01*
X68949112Y-59902797D01*
X68806767Y-60246449D01*
X68806767Y-60618415D01*
X68949112Y-60962067D01*
X69005267Y-61018222D01*
X69005267Y-61034436D01*
X68990840Y-61106967D01*
X69005267Y-61179498D01*
X69005267Y-61179502D01*
X69025659Y-61282017D01*
X69048000Y-61394334D01*
X69169693Y-61576461D01*
X69169697Y-61576465D01*
X69210782Y-61637953D01*
X69272270Y-61679038D01*
X71201008Y-63607776D01*
X71201008Y-63687191D01*
X71343353Y-64030843D01*
X71606373Y-64293863D01*
X71950025Y-64436208D01*
X72321991Y-64436208D01*
X72665643Y-64293863D01*
X72827731Y-64131775D01*
X73071170Y-64131775D01*
X73414822Y-63989430D01*
X73677842Y-63726410D01*
X73820187Y-63382758D01*
X73820187Y-63010792D01*
X73711282Y-62747870D01*
X73935754Y-62523398D01*
X74078099Y-62179746D01*
X74078099Y-62100331D01*
X74370630Y-61807799D01*
X74432124Y-61766710D01*
X74594905Y-61523092D01*
X74637638Y-61308259D01*
X74637638Y-61308254D01*
X74652065Y-61235725D01*
X74637638Y-61163196D01*
X74637638Y-58161235D01*
X74959743Y-58161235D01*
X75303395Y-58018890D01*
X75566415Y-57755870D01*
X75698769Y-57436337D01*
X76535000Y-58272568D01*
X76535000Y-58351983D01*
X76677345Y-58695635D01*
X76940365Y-58958655D01*
X77284017Y-59101000D01*
X77655983Y-59101000D01*
X77999635Y-58958655D01*
X78262655Y-58695635D01*
X78405000Y-58351983D01*
X78405000Y-57987448D01*
X78466017Y-57987448D01*
X78809669Y-57845103D01*
X79072689Y-57582083D01*
X79215034Y-57238431D01*
X79215034Y-57017915D01*
X79237370Y-57017915D01*
X79581022Y-56875570D01*
X79844042Y-56612550D01*
X79986387Y-56268898D01*
X79986387Y-55896932D01*
X79872799Y-55622707D01*
X79935852Y-55470484D01*
X79935852Y-55098518D01*
X79793507Y-54754866D01*
X79530487Y-54491846D01*
X79249948Y-54375643D01*
X80135637Y-53489954D01*
X80243182Y-53468562D01*
X80331131Y-53409796D01*
X80441796Y-53409796D01*
X80637003Y-53328939D01*
X80637002Y-54404181D01*
X80413697Y-54496677D01*
X80150677Y-54759697D01*
X80008332Y-55103349D01*
X80008332Y-55475315D01*
X80150677Y-55818967D01*
X80413697Y-56081987D01*
X80757349Y-56224332D01*
X81129315Y-56224332D01*
X81472967Y-56081987D01*
X81735987Y-55818967D01*
X81878332Y-55475315D01*
X81878332Y-55407625D01*
X81904488Y-55390148D01*
X82067269Y-55146530D01*
X82110002Y-54931697D01*
X82110002Y-54931694D01*
X82124429Y-54859163D01*
X82110002Y-54786632D01*
X82110002Y-52100011D01*
X82124429Y-52027480D01*
X82110002Y-51954949D01*
X82110002Y-51954945D01*
X82067269Y-51740112D01*
X81954774Y-51571752D01*
X81945576Y-51557986D01*
X81945575Y-51557985D01*
X81904488Y-51496494D01*
X81842997Y-51455407D01*
X81780483Y-51392893D01*
X81780483Y-51313478D01*
X81638138Y-50969826D01*
X81375118Y-50706806D01*
X81231127Y-50647163D01*
X81310655Y-50567635D01*
X81453000Y-50223983D01*
X81453000Y-49852017D01*
X81310655Y-49508365D01*
X81047635Y-49245345D01*
X80703983Y-49103000D01*
X80332017Y-49103000D01*
X79988365Y-49245345D01*
X79725345Y-49508365D01*
X79583000Y-49852017D01*
X79583000Y-49930953D01*
X79522956Y-49971073D01*
X79481871Y-50032561D01*
X79481867Y-50032565D01*
X79360174Y-50214692D01*
X79303014Y-50502059D01*
X79317442Y-50574594D01*
X79317442Y-51029774D01*
X79261286Y-51085930D01*
X79118941Y-51429582D01*
X79118941Y-51801548D01*
X79261286Y-52145200D01*
X79327189Y-52211103D01*
X79278242Y-52243809D01*
X79237155Y-52305300D01*
X77871432Y-53671023D01*
X77792017Y-53671023D01*
X77546193Y-53772847D01*
X75491013Y-51717667D01*
X75491013Y-51366877D01*
X75505440Y-51294346D01*
X75491013Y-51221815D01*
X75491013Y-51221811D01*
X75448280Y-51006978D01*
X75438183Y-50991867D01*
X75326587Y-50824851D01*
X75326584Y-50824848D01*
X75285499Y-50763360D01*
X75224010Y-50722274D01*
X75096734Y-50594999D01*
X75314017Y-50685000D01*
X75685983Y-50685000D01*
X76029635Y-50542655D01*
X76292655Y-50279635D01*
X76435000Y-49935983D01*
X76435000Y-49564017D01*
X76322367Y-49292096D01*
X76635322Y-49292096D01*
X76978974Y-49149751D01*
X77200473Y-48928252D01*
X82963490Y-48928252D01*
X82963490Y-49300218D01*
X83105835Y-49643870D01*
X83368855Y-49906890D01*
X83712507Y-50049235D01*
X84084473Y-50049235D01*
X84428125Y-49906890D01*
X84576515Y-49758500D01*
X85266210Y-49758500D01*
X85322365Y-49814655D01*
X85666017Y-49957000D01*
X86037983Y-49957000D01*
X86381635Y-49814655D01*
X86644655Y-49551635D01*
X86787000Y-49207983D01*
X86787000Y-48836017D01*
X86644655Y-48492365D01*
X86381635Y-48229345D01*
X86037983Y-48087000D01*
X85666017Y-48087000D01*
X85322365Y-48229345D01*
X85266210Y-48285500D01*
X84341020Y-48285500D01*
X84084473Y-48179235D01*
X83712507Y-48179235D01*
X83368855Y-48321580D01*
X83105835Y-48584600D01*
X82963490Y-48928252D01*
X77200473Y-48928252D01*
X77241994Y-48886731D01*
X77384339Y-48543079D01*
X77384339Y-48171113D01*
X77241994Y-47827461D01*
X77185839Y-47771306D01*
X77185839Y-47140685D01*
X89825668Y-47140685D01*
X89825668Y-47512651D01*
X89968013Y-47856303D01*
X90231033Y-48119323D01*
X90574685Y-48261668D01*
X90642080Y-48261668D01*
X91013000Y-48632589D01*
X91013000Y-48699983D01*
X91155345Y-49043635D01*
X91418365Y-49306655D01*
X91762017Y-49449000D01*
X92133983Y-49449000D01*
X92477635Y-49306655D01*
X92740655Y-49043635D01*
X92883000Y-48699983D01*
X92883000Y-48378614D01*
X93073465Y-48416500D01*
X93073469Y-48416500D01*
X93146000Y-48430927D01*
X93218531Y-48416500D01*
X95055357Y-48416500D01*
X95133914Y-48606153D01*
X95593847Y-49066086D01*
X96194778Y-49315000D01*
X96845222Y-49315000D01*
X97446153Y-49066086D01*
X97906086Y-48606153D01*
X98155000Y-48005222D01*
X98155000Y-47354778D01*
X101385000Y-47354778D01*
X101385000Y-48005222D01*
X101633914Y-48606153D01*
X102093847Y-49066086D01*
X102694778Y-49315000D01*
X103345222Y-49315000D01*
X103946153Y-49066086D01*
X104406086Y-48606153D01*
X104655000Y-48005222D01*
X104655000Y-47354778D01*
X104406086Y-46753847D01*
X103946153Y-46293914D01*
X103345222Y-46045000D01*
X102694778Y-46045000D01*
X102093847Y-46293914D01*
X101633914Y-46753847D01*
X101385000Y-47354778D01*
X98155000Y-47354778D01*
X97906086Y-46753847D01*
X97446153Y-46293914D01*
X96845222Y-46045000D01*
X96194778Y-46045000D01*
X95593847Y-46293914D01*
X95133914Y-46753847D01*
X95055357Y-46943500D01*
X93451068Y-46943500D01*
X93137000Y-46629432D01*
X93137000Y-46550017D01*
X92994655Y-46206365D01*
X92731635Y-45943345D01*
X92387983Y-45801000D01*
X92016017Y-45801000D01*
X91672365Y-45943345D01*
X91409345Y-46206365D01*
X91276071Y-46528118D01*
X90946651Y-46391668D01*
X90574685Y-46391668D01*
X90231033Y-46534013D01*
X89968013Y-46797033D01*
X89825668Y-47140685D01*
X77185839Y-47140685D01*
X77185839Y-47043939D01*
X77200266Y-46971408D01*
X77185839Y-46898875D01*
X77185839Y-46898874D01*
X77143106Y-46684041D01*
X77070882Y-46575950D01*
X77021413Y-46501914D01*
X77021410Y-46501911D01*
X76980325Y-46440423D01*
X76918837Y-46399338D01*
X76278003Y-45758505D01*
X76236916Y-45697014D01*
X75993298Y-45534233D01*
X75778465Y-45491500D01*
X75778461Y-45491500D01*
X75705930Y-45477073D01*
X75669174Y-45484384D01*
X75620135Y-45435345D01*
X75276483Y-45293000D01*
X74904517Y-45293000D01*
X74560865Y-45435345D01*
X74353303Y-45642907D01*
X74353303Y-45327526D01*
X74210958Y-44983874D01*
X73947938Y-44720854D01*
X73604286Y-44578509D01*
X73232320Y-44578509D01*
X72888668Y-44720854D01*
X72625648Y-44983874D01*
X72483303Y-45327526D01*
X72483303Y-45406942D01*
X72182014Y-45708230D01*
X72120525Y-45749316D01*
X72079440Y-45810804D01*
X72079436Y-45810808D01*
X71957743Y-45992935D01*
X71900583Y-46280302D01*
X71915011Y-46352837D01*
X71915010Y-47248878D01*
X71858855Y-47305033D01*
X71716510Y-47648685D01*
X71716510Y-47706350D01*
X69544542Y-45534382D01*
X69544542Y-45454967D01*
X69402197Y-45111315D01*
X69139177Y-44848295D01*
X68795525Y-44705950D01*
X68423559Y-44705950D01*
X68079907Y-44848295D01*
X67816887Y-45111315D01*
X67674542Y-45454967D01*
X67674542Y-45826933D01*
X67816887Y-46170585D01*
X68079907Y-46433605D01*
X68423559Y-46575950D01*
X68502974Y-46575950D01*
X69402030Y-47475006D01*
X69256682Y-47620353D01*
X69114337Y-47964005D01*
X69114337Y-48335971D01*
X69256682Y-48679623D01*
X69519702Y-48942643D01*
X69863354Y-49084988D01*
X69974019Y-49084988D01*
X70061968Y-49143754D01*
X70276801Y-49186487D01*
X70276805Y-49186487D01*
X70336937Y-49198448D01*
X70729507Y-49591018D01*
X68699552Y-49591018D01*
X68753000Y-49461983D01*
X68753000Y-49090017D01*
X68610655Y-48746365D01*
X68347635Y-48483345D01*
X68003983Y-48341000D01*
X67632017Y-48341000D01*
X67288365Y-48483345D01*
X67233055Y-48538655D01*
X67164775Y-48525073D01*
X67092246Y-48539500D01*
X67092241Y-48539500D01*
X66877408Y-48582233D01*
X66633790Y-48745014D01*
X66592703Y-48806505D01*
X65985002Y-49414206D01*
X65923514Y-49455291D01*
X65882429Y-49516779D01*
X65882425Y-49516783D01*
X65760732Y-49698910D01*
X65751761Y-49744012D01*
X65717999Y-49913742D01*
X65717999Y-49913746D01*
X65703572Y-49986277D01*
X65717999Y-50058808D01*
X65717999Y-50373007D01*
X65717983Y-50373000D01*
X65346017Y-50373000D01*
X65002365Y-50515345D01*
X64998046Y-50519664D01*
X64100118Y-50519664D01*
X64043963Y-50463509D01*
X63700311Y-50321164D01*
X63328345Y-50321164D01*
X62984693Y-50463509D01*
X62721673Y-50726529D01*
X62579328Y-51070181D01*
X61426288Y-51070181D01*
X61426288Y-51039816D01*
X61283943Y-50696164D01*
X61020923Y-50433144D01*
X60725014Y-50310575D01*
X64719825Y-46315764D01*
X64782029Y-46274201D01*
X64946688Y-46027770D01*
X64989914Y-45810460D01*
X64989914Y-45810459D01*
X65004509Y-45737087D01*
X64989914Y-45663714D01*
X64989914Y-45616730D01*
X65037569Y-45569075D01*
X65179914Y-45225423D01*
X65179914Y-44853457D01*
X65040971Y-44518017D01*
X82014991Y-44518017D01*
X82014991Y-44889983D01*
X82157336Y-45233635D01*
X82420356Y-45496655D01*
X82764008Y-45639000D01*
X83135974Y-45639000D01*
X83479626Y-45496655D01*
X83527281Y-45449000D01*
X85274710Y-45449000D01*
X85322365Y-45496655D01*
X85666017Y-45639000D01*
X86037983Y-45639000D01*
X86381635Y-45496655D01*
X86644655Y-45233635D01*
X86787000Y-44889983D01*
X86787000Y-44518017D01*
X86644655Y-44174365D01*
X86381635Y-43911345D01*
X86037983Y-43769000D01*
X85666017Y-43769000D01*
X85322365Y-43911345D01*
X85274710Y-43959000D01*
X83527281Y-43959000D01*
X83479626Y-43911345D01*
X83135974Y-43769000D01*
X82764008Y-43769000D01*
X82420356Y-43911345D01*
X82157336Y-44174365D01*
X82014991Y-44518017D01*
X65040971Y-44518017D01*
X65037569Y-44509805D01*
X64774549Y-44246785D01*
X64430897Y-44104440D01*
X64058931Y-44104440D01*
X63715279Y-44246785D01*
X63452259Y-44509805D01*
X63309914Y-44853457D01*
X63309914Y-45225423D01*
X63425043Y-45503369D01*
X60535541Y-48392871D01*
X60422825Y-48280155D01*
X60079173Y-48137810D01*
X59707207Y-48137810D01*
X59363555Y-48280155D01*
X59112710Y-48531000D01*
X58105270Y-48531000D01*
X58354635Y-48281635D01*
X58496980Y-47937983D01*
X58496980Y-47566017D01*
X58354635Y-47222365D01*
X58091615Y-46959345D01*
X57747963Y-46817000D01*
X57668548Y-46817000D01*
X57458500Y-46606952D01*
X57458500Y-44847790D01*
X57514655Y-44791635D01*
X57657000Y-44447983D01*
X57657000Y-44076017D01*
X57514655Y-43732365D01*
X57251635Y-43469345D01*
X56907983Y-43327000D01*
X56876661Y-43327000D01*
X57220862Y-42982799D01*
X57485000Y-42345113D01*
X57485000Y-42285750D01*
X58205000Y-42285750D01*
X58205000Y-42976310D01*
X58301673Y-43209699D01*
X58480302Y-43388327D01*
X58713691Y-43485000D01*
X59404250Y-43485000D01*
X59563000Y-43326250D01*
X59563000Y-42127000D01*
X59817000Y-42127000D01*
X59817000Y-43326250D01*
X59975750Y-43485000D01*
X60666309Y-43485000D01*
X60899698Y-43388327D01*
X61035000Y-43253026D01*
X61170301Y-43388327D01*
X61403690Y-43485000D01*
X62094250Y-43485000D01*
X62253000Y-43326250D01*
X62253000Y-42127000D01*
X61053750Y-42127000D01*
X61035000Y-42145750D01*
X61016250Y-42127000D01*
X59817000Y-42127000D01*
X59563000Y-42127000D01*
X58363750Y-42127000D01*
X58205000Y-42285750D01*
X57485000Y-42285750D01*
X57485000Y-41654887D01*
X57220862Y-41017201D01*
X56888661Y-40685000D01*
X58406975Y-40685000D01*
X58301673Y-40790301D01*
X58205000Y-41023690D01*
X58205000Y-41714250D01*
X58363750Y-41873000D01*
X59563000Y-41873000D01*
X59563000Y-41853000D01*
X59817000Y-41853000D01*
X59817000Y-41873000D01*
X61016250Y-41873000D01*
X61035000Y-41854250D01*
X61053750Y-41873000D01*
X62253000Y-41873000D01*
X62253000Y-41853000D01*
X62507000Y-41853000D01*
X62507000Y-41873000D01*
X62527000Y-41873000D01*
X62527000Y-42127000D01*
X62507000Y-42127000D01*
X62507000Y-43326250D01*
X62665750Y-43485000D01*
X63356310Y-43485000D01*
X63589699Y-43388327D01*
X63768327Y-43209698D01*
X63834904Y-43048967D01*
X63849375Y-43070625D01*
X64340582Y-43398839D01*
X64773744Y-43485000D01*
X65066256Y-43485000D01*
X65499418Y-43398839D01*
X65990625Y-43070625D01*
X66190000Y-42772239D01*
X66389375Y-43070625D01*
X66880582Y-43398839D01*
X67313744Y-43485000D01*
X67606256Y-43485000D01*
X68039418Y-43398839D01*
X68530625Y-43070625D01*
X68730000Y-42772239D01*
X68929375Y-43070625D01*
X69420582Y-43398839D01*
X69853744Y-43485000D01*
X70146256Y-43485000D01*
X70579418Y-43398839D01*
X71070625Y-43070625D01*
X71270000Y-42772239D01*
X71469375Y-43070625D01*
X71960582Y-43398839D01*
X72393744Y-43485000D01*
X72686256Y-43485000D01*
X73119418Y-43398839D01*
X73610625Y-43070625D01*
X73810000Y-42772239D01*
X74009375Y-43070625D01*
X74500582Y-43398839D01*
X74933744Y-43485000D01*
X75226256Y-43485000D01*
X75659418Y-43398839D01*
X76150625Y-43070625D01*
X76350000Y-42772239D01*
X76549375Y-43070625D01*
X77040582Y-43398839D01*
X77473744Y-43485000D01*
X77766256Y-43485000D01*
X78199418Y-43398839D01*
X78690625Y-43070625D01*
X78834849Y-42854778D01*
X94885000Y-42854778D01*
X94885000Y-43505222D01*
X95133914Y-44106153D01*
X95593847Y-44566086D01*
X96194778Y-44815000D01*
X96845222Y-44815000D01*
X97446153Y-44566086D01*
X97906086Y-44106153D01*
X98155000Y-43505222D01*
X98155000Y-42854778D01*
X101385000Y-42854778D01*
X101385000Y-43505222D01*
X101633914Y-44106153D01*
X102093847Y-44566086D01*
X102694778Y-44815000D01*
X103345222Y-44815000D01*
X103946153Y-44566086D01*
X104406086Y-44106153D01*
X104655000Y-43505222D01*
X104655000Y-42854778D01*
X104406086Y-42253847D01*
X103946153Y-41793914D01*
X103345222Y-41545000D01*
X102694778Y-41545000D01*
X102093847Y-41793914D01*
X101633914Y-42253847D01*
X101385000Y-42854778D01*
X98155000Y-42854778D01*
X97906086Y-42253847D01*
X97446153Y-41793914D01*
X96845222Y-41545000D01*
X96194778Y-41545000D01*
X95593847Y-41793914D01*
X95133914Y-42253847D01*
X94885000Y-42854778D01*
X78834849Y-42854778D01*
X79018839Y-42579418D01*
X79134092Y-42000000D01*
X79018839Y-41420582D01*
X78690625Y-40929375D01*
X78324892Y-40685000D01*
X111315001Y-40685000D01*
X111315001Y-44361340D01*
X110982799Y-44029138D01*
X110345113Y-43765000D01*
X109654887Y-43765000D01*
X109017201Y-44029138D01*
X108529138Y-44517201D01*
X108265000Y-45154887D01*
X108265000Y-45845113D01*
X108529138Y-46482799D01*
X109017201Y-46970862D01*
X109654887Y-47235000D01*
X110345113Y-47235000D01*
X110982799Y-46970862D01*
X111315001Y-46638660D01*
X111315000Y-78111339D01*
X110982799Y-77779138D01*
X110345113Y-77515000D01*
X109654887Y-77515000D01*
X109017201Y-77779138D01*
X108529138Y-78267201D01*
X108265000Y-78904887D01*
X108265000Y-79595113D01*
X108529138Y-80232799D01*
X109017201Y-80720862D01*
X109654887Y-80985000D01*
X110345113Y-80985000D01*
X110982799Y-80720862D01*
X111315000Y-80388661D01*
X111315000Y-81315000D01*
X50685000Y-81315000D01*
X50685000Y-76571877D01*
X52245868Y-76571877D01*
X52444677Y-76967604D01*
X52779791Y-77257127D01*
X53038126Y-77364119D01*
X53213000Y-77237954D01*
X53213000Y-76397000D01*
X52370865Y-76397000D01*
X52245868Y-76571877D01*
X50685000Y-76571877D01*
X50685000Y-75000000D01*
X52182765Y-75000000D01*
X52270854Y-75442855D01*
X52407224Y-75646947D01*
X52245868Y-75968123D01*
X52370865Y-76143000D01*
X53213000Y-76143000D01*
X53213000Y-76131973D01*
X53228217Y-76135000D01*
X53451783Y-76135000D01*
X53467000Y-76131973D01*
X53467000Y-76143000D01*
X53478027Y-76143000D01*
X53452765Y-76270000D01*
X53478027Y-76397000D01*
X53467000Y-76397000D01*
X53467000Y-77237954D01*
X53641874Y-77364119D01*
X53900209Y-77257127D01*
X53963090Y-77202801D01*
X54167145Y-77339146D01*
X54498217Y-77405000D01*
X54721783Y-77405000D01*
X55052855Y-77339146D01*
X55245000Y-77210759D01*
X55437145Y-77339146D01*
X55527898Y-77357198D01*
X55453000Y-77538017D01*
X55453000Y-77909983D01*
X55595345Y-78253635D01*
X55858365Y-78516655D01*
X56202017Y-78659000D01*
X56276099Y-78659000D01*
X56357345Y-78855145D01*
X56620365Y-79118165D01*
X56964017Y-79260510D01*
X57276723Y-79260510D01*
X57348313Y-79274750D01*
X57420844Y-79260323D01*
X58867579Y-79260323D01*
X58923734Y-79316478D01*
X59267386Y-79458823D01*
X59639352Y-79458823D01*
X59983004Y-79316478D01*
X60144595Y-79154887D01*
X62265000Y-79154887D01*
X62265000Y-79845113D01*
X62529138Y-80482799D01*
X63017201Y-80970862D01*
X63654887Y-81235000D01*
X64345113Y-81235000D01*
X64982799Y-80970862D01*
X65470862Y-80482799D01*
X65735000Y-79845113D01*
X65735000Y-79154887D01*
X65470862Y-78517201D01*
X64982799Y-78029138D01*
X64345113Y-77765000D01*
X63654887Y-77765000D01*
X63017201Y-78029138D01*
X62529138Y-78517201D01*
X62265000Y-79154887D01*
X60144595Y-79154887D01*
X60246024Y-79053458D01*
X60388369Y-78709806D01*
X60388369Y-78337840D01*
X60246024Y-77994188D01*
X60117000Y-77865164D01*
X60117000Y-77538017D01*
X59974655Y-77194365D01*
X59711635Y-76931345D01*
X59423032Y-76811802D01*
X59489146Y-76712855D01*
X59517188Y-76571877D01*
X67485868Y-76571877D01*
X67684677Y-76967604D01*
X68019791Y-77257127D01*
X68278126Y-77364119D01*
X68453000Y-77237954D01*
X68453000Y-76397000D01*
X67610865Y-76397000D01*
X67485868Y-76571877D01*
X59517188Y-76571877D01*
X59577235Y-76270000D01*
X59489146Y-75827145D01*
X59477131Y-75809164D01*
X59518157Y-75747765D01*
X59545361Y-75611000D01*
X59875983Y-75611000D01*
X60219635Y-75468655D01*
X60273083Y-75415207D01*
X60520017Y-75517490D01*
X60891983Y-75517490D01*
X61235635Y-75375145D01*
X61498655Y-75112125D01*
X61545098Y-75000000D01*
X67422765Y-75000000D01*
X67510854Y-75442855D01*
X67647224Y-75646947D01*
X67485868Y-75968123D01*
X67610865Y-76143000D01*
X68453000Y-76143000D01*
X68453000Y-76131973D01*
X68468217Y-76135000D01*
X68691783Y-76135000D01*
X68707000Y-76131973D01*
X68707000Y-76143000D01*
X68718027Y-76143000D01*
X68692765Y-76270000D01*
X68718027Y-76397000D01*
X68707000Y-76397000D01*
X68707000Y-77237954D01*
X68881874Y-77364119D01*
X69140209Y-77257127D01*
X69152636Y-77246390D01*
X69156233Y-77264473D01*
X69277926Y-77446600D01*
X69277930Y-77446604D01*
X69319015Y-77508092D01*
X69380503Y-77549177D01*
X70786821Y-78955495D01*
X70827908Y-79016986D01*
X71071526Y-79179767D01*
X71286359Y-79222500D01*
X71286364Y-79222500D01*
X71298655Y-79224945D01*
X71352365Y-79278655D01*
X71696017Y-79421000D01*
X72067983Y-79421000D01*
X72411635Y-79278655D01*
X72674655Y-79015635D01*
X72817000Y-78671983D01*
X72817000Y-78365290D01*
X72928655Y-78253635D01*
X73071000Y-77909983D01*
X73071000Y-77538017D01*
X72954858Y-77257626D01*
X73025000Y-77210759D01*
X73217145Y-77339146D01*
X73548217Y-77405000D01*
X73771783Y-77405000D01*
X74076365Y-77344415D01*
X74137345Y-77491635D01*
X74140176Y-77494466D01*
X74109823Y-77567746D01*
X74109823Y-77939712D01*
X74252168Y-78283364D01*
X74515188Y-78546384D01*
X74858840Y-78688729D01*
X75230806Y-78688729D01*
X75387032Y-78624018D01*
X77504999Y-78624018D01*
X77504999Y-78995984D01*
X77647344Y-79339636D01*
X77910364Y-79602656D01*
X78254016Y-79745001D01*
X78625982Y-79745001D01*
X78969634Y-79602656D01*
X79077290Y-79495000D01*
X80672710Y-79495000D01*
X80720365Y-79542655D01*
X81064017Y-79685000D01*
X81435983Y-79685000D01*
X81779635Y-79542655D01*
X82042655Y-79279635D01*
X82185000Y-78935983D01*
X82185000Y-78725689D01*
X82207345Y-78779635D01*
X82470365Y-79042655D01*
X82814017Y-79185000D01*
X83185983Y-79185000D01*
X83529635Y-79042655D01*
X83792655Y-78779635D01*
X83935000Y-78435983D01*
X83935000Y-78064017D01*
X83792655Y-77720365D01*
X83529635Y-77457345D01*
X83185983Y-77315000D01*
X83118589Y-77315000D01*
X82711704Y-76908116D01*
X82711704Y-76604685D01*
X82569359Y-76261033D01*
X82306339Y-75998013D01*
X82008823Y-75874778D01*
X94885000Y-75874778D01*
X94885000Y-76525222D01*
X95133914Y-77126153D01*
X95593847Y-77586086D01*
X96194778Y-77835000D01*
X96845222Y-77835000D01*
X97446153Y-77586086D01*
X97906086Y-77126153D01*
X97984643Y-76936500D01*
X101555357Y-76936500D01*
X101633914Y-77126153D01*
X102093847Y-77586086D01*
X102694778Y-77835000D01*
X103345222Y-77835000D01*
X103946153Y-77586086D01*
X104406086Y-77126153D01*
X104655000Y-76525222D01*
X104655000Y-75874778D01*
X104406086Y-75273847D01*
X103946153Y-74813914D01*
X103345222Y-74565000D01*
X102694778Y-74565000D01*
X102093847Y-74813914D01*
X101633914Y-75273847D01*
X101555357Y-75463500D01*
X97984643Y-75463500D01*
X97906086Y-75273847D01*
X97446153Y-74813914D01*
X96845222Y-74565000D01*
X96194778Y-74565000D01*
X95593847Y-74813914D01*
X95133914Y-75273847D01*
X94885000Y-75874778D01*
X82008823Y-75874778D01*
X81962687Y-75855668D01*
X81590721Y-75855668D01*
X81247069Y-75998013D01*
X80984049Y-76261033D01*
X80841704Y-76604685D01*
X80841704Y-76976651D01*
X80984049Y-77320303D01*
X81247069Y-77583323D01*
X81302833Y-77606421D01*
X81564748Y-77868336D01*
X81435983Y-77815000D01*
X81064017Y-77815000D01*
X80720365Y-77957345D01*
X80672710Y-78005000D01*
X78939828Y-78005000D01*
X78625982Y-77875001D01*
X78254016Y-77875001D01*
X77910364Y-78017346D01*
X77647344Y-78280366D01*
X77504999Y-78624018D01*
X75387032Y-78624018D01*
X75574458Y-78546384D01*
X75837478Y-78283364D01*
X75979823Y-77939712D01*
X75979823Y-77860297D01*
X76179002Y-77661117D01*
X76240496Y-77620028D01*
X76403277Y-77376410D01*
X76446010Y-77161577D01*
X76446010Y-77161573D01*
X76460437Y-77089042D01*
X76446010Y-77016511D01*
X76446010Y-73483790D01*
X76502165Y-73427635D01*
X76644510Y-73083983D01*
X76644510Y-72712017D01*
X76502165Y-72368365D01*
X76239145Y-72105345D01*
X75895493Y-71963000D01*
X75523527Y-71963000D01*
X75179875Y-72105345D01*
X74916855Y-72368365D01*
X74774510Y-72712017D01*
X74774510Y-73083983D01*
X74916855Y-73427635D01*
X74952710Y-73463490D01*
X74879204Y-73463490D01*
X74535552Y-73605835D01*
X74272532Y-73868855D01*
X74270202Y-73874480D01*
X74160000Y-73852560D01*
X73160000Y-73852560D01*
X72912235Y-73901843D01*
X72850836Y-73942869D01*
X72832855Y-73930854D01*
X72501783Y-73865000D01*
X72278217Y-73865000D01*
X71947145Y-73930854D01*
X71821117Y-74015063D01*
X71813767Y-73978111D01*
X71740764Y-73868855D01*
X71692074Y-73795985D01*
X71692073Y-73795984D01*
X71650986Y-73734493D01*
X71589495Y-73693406D01*
X71386510Y-73490421D01*
X71386510Y-73411006D01*
X71244165Y-73067354D01*
X70981145Y-72804334D01*
X70637493Y-72661989D01*
X70531585Y-72661989D01*
X70401273Y-72347387D01*
X70138253Y-72084367D01*
X69794601Y-71942022D01*
X69422635Y-71942022D01*
X69367331Y-71964929D01*
X69342810Y-71940408D01*
X68999158Y-71798063D01*
X68627192Y-71798063D01*
X68283540Y-71940408D01*
X68020520Y-72203428D01*
X67878175Y-72547080D01*
X67878175Y-72719382D01*
X67829073Y-72966238D01*
X67843501Y-73038773D01*
X67843500Y-74127061D01*
X67761711Y-74181711D01*
X67510854Y-74557145D01*
X67422765Y-75000000D01*
X61545098Y-75000000D01*
X61641000Y-74768473D01*
X61641000Y-74396507D01*
X61498655Y-74052855D01*
X61306987Y-73861187D01*
X61422765Y-73838157D01*
X61632809Y-73697809D01*
X61773157Y-73487765D01*
X61822440Y-73240000D01*
X61822440Y-71540000D01*
X61773157Y-71292235D01*
X61632809Y-71082191D01*
X61422765Y-70941843D01*
X61377381Y-70932816D01*
X61395625Y-70920625D01*
X61723839Y-70429418D01*
X61839092Y-69850000D01*
X61723839Y-69270582D01*
X61395625Y-68779375D01*
X61097239Y-68580000D01*
X61121159Y-68564017D01*
X78315000Y-68564017D01*
X78315000Y-68935983D01*
X78457345Y-69279635D01*
X78720365Y-69542655D01*
X79064017Y-69685000D01*
X79435983Y-69685000D01*
X79779635Y-69542655D01*
X79835790Y-69486500D01*
X82063941Y-69486500D01*
X82136472Y-69500927D01*
X82209003Y-69486500D01*
X82209007Y-69486500D01*
X82423840Y-69443767D01*
X82597241Y-69327904D01*
X82679551Y-69327904D01*
X83023203Y-69185559D01*
X83286223Y-68922539D01*
X83331174Y-68814017D01*
X85315000Y-68814017D01*
X85315000Y-69185983D01*
X85457345Y-69529635D01*
X85513500Y-69585790D01*
X85513501Y-71164209D01*
X85457345Y-71220365D01*
X85315000Y-71564017D01*
X85315000Y-71935983D01*
X85457345Y-72279635D01*
X85720365Y-72542655D01*
X86064017Y-72685000D01*
X86143432Y-72685000D01*
X86677927Y-73219495D01*
X86719014Y-73280986D01*
X86780505Y-73322073D01*
X86780506Y-73322074D01*
X86846249Y-73366002D01*
X86962632Y-73443767D01*
X87177465Y-73486500D01*
X87177469Y-73486500D01*
X87250000Y-73500927D01*
X87322531Y-73486500D01*
X89914210Y-73486500D01*
X89970365Y-73542655D01*
X90314017Y-73685000D01*
X90685983Y-73685000D01*
X91029635Y-73542655D01*
X91292655Y-73279635D01*
X91435000Y-72935983D01*
X91435000Y-72564017D01*
X91292655Y-72220365D01*
X91029635Y-71957345D01*
X90685983Y-71815000D01*
X90314017Y-71815000D01*
X89970365Y-71957345D01*
X89914210Y-72013500D01*
X87555068Y-72013500D01*
X87185000Y-71643432D01*
X87185000Y-71564017D01*
X87042655Y-71220365D01*
X86986500Y-71164210D01*
X86986500Y-69585790D01*
X87042655Y-69529635D01*
X87185000Y-69185983D01*
X87185000Y-68814017D01*
X87042655Y-68470365D01*
X86779635Y-68207345D01*
X86435983Y-68065000D01*
X86064017Y-68065000D01*
X85720365Y-68207345D01*
X85457345Y-68470365D01*
X85315000Y-68814017D01*
X83331174Y-68814017D01*
X83428568Y-68578887D01*
X83428568Y-68206921D01*
X83286223Y-67863269D01*
X83023203Y-67600249D01*
X82679551Y-67457904D01*
X82307585Y-67457904D01*
X81963933Y-67600249D01*
X81700913Y-67863269D01*
X81638685Y-68013500D01*
X79835790Y-68013500D01*
X79779635Y-67957345D01*
X79435983Y-67815000D01*
X79064017Y-67815000D01*
X78720365Y-67957345D01*
X78457345Y-68220365D01*
X78315000Y-68564017D01*
X61121159Y-68564017D01*
X61395625Y-68380625D01*
X61723839Y-67889418D01*
X61839092Y-67310000D01*
X61723839Y-66730582D01*
X61395625Y-66239375D01*
X61076522Y-66026157D01*
X61206358Y-65965183D01*
X61539146Y-65600017D01*
X74757000Y-65600017D01*
X74757000Y-65971983D01*
X74899345Y-66315635D01*
X75140672Y-66556962D01*
X75011000Y-66870017D01*
X75011000Y-67241983D01*
X75153345Y-67585635D01*
X75416365Y-67848655D01*
X75760017Y-67991000D01*
X76066710Y-67991000D01*
X76178365Y-68102655D01*
X76522017Y-68245000D01*
X76893983Y-68245000D01*
X77237635Y-68102655D01*
X77500655Y-67839635D01*
X77643000Y-67495983D01*
X77643000Y-67124017D01*
X77618148Y-67064017D01*
X92315000Y-67064017D01*
X92315000Y-67435983D01*
X92457345Y-67779635D01*
X92720365Y-68042655D01*
X93064017Y-68185000D01*
X93435983Y-68185000D01*
X93779635Y-68042655D01*
X94042655Y-67779635D01*
X94185000Y-67435983D01*
X94185000Y-67356568D01*
X94814988Y-66726580D01*
X94814988Y-67014733D01*
X94957333Y-67358385D01*
X95220353Y-67621405D01*
X95564005Y-67763750D01*
X95643420Y-67763750D01*
X95783501Y-67903831D01*
X95783500Y-70235357D01*
X95593847Y-70313914D01*
X95133914Y-70773847D01*
X94885000Y-71374778D01*
X94885000Y-72025222D01*
X95133914Y-72626153D01*
X95593847Y-73086086D01*
X96194778Y-73335000D01*
X96845222Y-73335000D01*
X97446153Y-73086086D01*
X97906086Y-72626153D01*
X97984643Y-72436500D01*
X101555357Y-72436500D01*
X101633914Y-72626153D01*
X102093847Y-73086086D01*
X102694778Y-73335000D01*
X103345222Y-73335000D01*
X103946153Y-73086086D01*
X104406086Y-72626153D01*
X104655000Y-72025222D01*
X104655000Y-71374778D01*
X104406086Y-70773847D01*
X103946153Y-70313914D01*
X103345222Y-70065000D01*
X102694778Y-70065000D01*
X102093847Y-70313914D01*
X101633914Y-70773847D01*
X101555357Y-70963500D01*
X97984643Y-70963500D01*
X97906086Y-70773847D01*
X97446153Y-70313914D01*
X97256500Y-70235357D01*
X97256500Y-67671293D01*
X97270927Y-67598762D01*
X97256500Y-67526231D01*
X97256500Y-67526227D01*
X97213767Y-67311394D01*
X97050986Y-67067776D01*
X96989495Y-67026689D01*
X96684988Y-66722182D01*
X96684988Y-66642767D01*
X96542643Y-66299115D01*
X96282909Y-66039381D01*
X96292655Y-66029635D01*
X96435000Y-65685983D01*
X96435000Y-65314017D01*
X96292655Y-64970365D01*
X96056524Y-64734234D01*
X106815000Y-64734234D01*
X106815000Y-65185766D01*
X106987793Y-65602926D01*
X107307074Y-65922207D01*
X107724234Y-66095000D01*
X108175766Y-66095000D01*
X108592926Y-65922207D01*
X108912207Y-65602926D01*
X109085000Y-65185766D01*
X109085000Y-64734234D01*
X108912207Y-64317074D01*
X108592926Y-63997793D01*
X108175766Y-63825000D01*
X107724234Y-63825000D01*
X107307074Y-63997793D01*
X106987793Y-64317074D01*
X106815000Y-64734234D01*
X96056524Y-64734234D01*
X96029635Y-64707345D01*
X95685983Y-64565000D01*
X95314017Y-64565000D01*
X94970365Y-64707345D01*
X94910919Y-64766791D01*
X94712632Y-64806233D01*
X94469014Y-64969014D01*
X94427927Y-65030505D01*
X93143432Y-66315000D01*
X93064017Y-66315000D01*
X92720365Y-66457345D01*
X92457345Y-66720365D01*
X92315000Y-67064017D01*
X77618148Y-67064017D01*
X77500655Y-66780365D01*
X77444500Y-66724210D01*
X77444500Y-66371790D01*
X77500655Y-66315635D01*
X77607832Y-66056887D01*
X83499381Y-66056887D01*
X83555536Y-66113042D01*
X83899188Y-66255387D01*
X84271154Y-66255387D01*
X84565000Y-66133672D01*
X84565000Y-66185983D01*
X84707345Y-66529635D01*
X84970365Y-66792655D01*
X85314017Y-66935000D01*
X85685983Y-66935000D01*
X86029635Y-66792655D01*
X86292655Y-66529635D01*
X86435000Y-66185983D01*
X86435000Y-65814017D01*
X86292655Y-65470365D01*
X86236500Y-65414210D01*
X86236500Y-64555068D01*
X87356568Y-63435000D01*
X87435983Y-63435000D01*
X87779635Y-63292655D01*
X88042655Y-63029635D01*
X88185000Y-62685983D01*
X88185000Y-62314017D01*
X88042655Y-61970365D01*
X87986538Y-61914248D01*
X88703787Y-61197000D01*
X92894710Y-61197000D01*
X92942365Y-61244655D01*
X93286017Y-61387000D01*
X93657983Y-61387000D01*
X94001635Y-61244655D01*
X94264655Y-60981635D01*
X94407000Y-60637983D01*
X94407000Y-60266017D01*
X94264655Y-59922365D01*
X94217000Y-59874710D01*
X94217000Y-58743290D01*
X94264655Y-58695635D01*
X94407000Y-58351983D01*
X94407000Y-57980017D01*
X94264655Y-57636365D01*
X94001635Y-57373345D01*
X93657983Y-57231000D01*
X93286017Y-57231000D01*
X92942365Y-57373345D01*
X92825000Y-57490710D01*
X92825000Y-57436506D01*
X92614147Y-56927460D01*
X92420921Y-56734234D01*
X106815000Y-56734234D01*
X106815000Y-57185766D01*
X106987793Y-57602926D01*
X107307074Y-57922207D01*
X107724234Y-58095000D01*
X108175766Y-58095000D01*
X108592926Y-57922207D01*
X108912207Y-57602926D01*
X109085000Y-57185766D01*
X109085000Y-56734234D01*
X108912207Y-56317074D01*
X108592926Y-55997793D01*
X108175766Y-55825000D01*
X107724234Y-55825000D01*
X107307074Y-55997793D01*
X106987793Y-56317074D01*
X106815000Y-56734234D01*
X92420921Y-56734234D01*
X92224540Y-56537853D01*
X91715494Y-56327000D01*
X91164506Y-56327000D01*
X90655460Y-56537853D01*
X90265853Y-56927460D01*
X90055000Y-57436506D01*
X90055000Y-57987494D01*
X90265853Y-58496540D01*
X90655460Y-58886147D01*
X91164506Y-59097000D01*
X91715494Y-59097000D01*
X92224540Y-58886147D01*
X92601935Y-58508752D01*
X92679345Y-58695635D01*
X92727001Y-58743291D01*
X92727000Y-59707000D01*
X88468570Y-59707000D01*
X88395198Y-59692405D01*
X88321825Y-59707000D01*
X88321824Y-59707000D01*
X88104514Y-59750226D01*
X87858083Y-59914885D01*
X87816519Y-59977090D01*
X87189321Y-60604288D01*
X87189321Y-52556506D01*
X90055000Y-52556506D01*
X90055000Y-53107494D01*
X90265853Y-53616540D01*
X90655460Y-54006147D01*
X91164506Y-54217000D01*
X91715494Y-54217000D01*
X92224540Y-54006147D01*
X92614147Y-53616540D01*
X92825000Y-53107494D01*
X92825000Y-52556506D01*
X92614147Y-52047460D01*
X92224540Y-51657853D01*
X91715494Y-51447000D01*
X91164506Y-51447000D01*
X90655460Y-51657853D01*
X90265853Y-52047460D01*
X90055000Y-52556506D01*
X87189321Y-52556506D01*
X87189321Y-51399169D01*
X87203916Y-51325795D01*
X87146095Y-51035110D01*
X87079322Y-50935177D01*
X87079322Y-50839813D01*
X86936977Y-50496161D01*
X86673957Y-50233141D01*
X86330305Y-50090796D01*
X85958339Y-50090796D01*
X85614687Y-50233141D01*
X85351667Y-50496161D01*
X85323153Y-50565000D01*
X85314017Y-50565000D01*
X84970365Y-50707345D01*
X84707345Y-50970365D01*
X84565000Y-51314017D01*
X84565000Y-51685983D01*
X84707345Y-52029635D01*
X84785597Y-52107887D01*
X84806233Y-52211632D01*
X84840023Y-52262202D01*
X84927926Y-52393758D01*
X84927929Y-52393761D01*
X84969015Y-52455250D01*
X85013500Y-52484974D01*
X85013501Y-59664209D01*
X84957345Y-59720365D01*
X84927462Y-59792509D01*
X84127854Y-58992901D01*
X84127854Y-58525024D01*
X84184009Y-58468869D01*
X84326354Y-58125217D01*
X84326354Y-57753251D01*
X84184009Y-57409599D01*
X83920989Y-57146579D01*
X83577337Y-57004234D01*
X83205371Y-57004234D01*
X82861719Y-57146579D01*
X82598699Y-57409599D01*
X82456354Y-57753251D01*
X82456354Y-58125217D01*
X82598699Y-58468869D01*
X82654854Y-58525024D01*
X82654855Y-59225434D01*
X82640427Y-59297969D01*
X82697587Y-59585336D01*
X82819280Y-59767463D01*
X82819284Y-59767467D01*
X82860369Y-59828955D01*
X82921857Y-59870040D01*
X84282817Y-61231000D01*
X79825290Y-61231000D01*
X79777635Y-61183345D01*
X79433983Y-61041000D01*
X79062017Y-61041000D01*
X78718365Y-61183345D01*
X78455345Y-61446365D01*
X78313000Y-61790017D01*
X78313000Y-62161983D01*
X78455345Y-62505635D01*
X78718365Y-62768655D01*
X79062017Y-62911000D01*
X79433983Y-62911000D01*
X79777635Y-62768655D01*
X79825290Y-62721000D01*
X84886220Y-62721000D01*
X84921675Y-62744690D01*
X84985378Y-62787255D01*
X85276062Y-62845076D01*
X85349436Y-62830481D01*
X85877951Y-62830481D01*
X85030505Y-63677927D01*
X84969014Y-63719014D01*
X84927927Y-63780505D01*
X84927926Y-63780506D01*
X84850128Y-63896939D01*
X84806233Y-63962633D01*
X84763500Y-64177466D01*
X84763500Y-64177469D01*
X84749073Y-64250000D01*
X84763500Y-64322531D01*
X84763500Y-64676426D01*
X84614806Y-64527732D01*
X84271154Y-64385387D01*
X83899188Y-64385387D01*
X83555536Y-64527732D01*
X83499381Y-64583887D01*
X82123736Y-64583887D01*
X82185000Y-64435983D01*
X82185000Y-64064017D01*
X82042655Y-63720365D01*
X81779635Y-63457345D01*
X81435983Y-63315000D01*
X81064017Y-63315000D01*
X80720365Y-63457345D01*
X80664210Y-63513500D01*
X77967178Y-63513500D01*
X77845329Y-63391651D01*
X77501677Y-63249306D01*
X77129711Y-63249306D01*
X76786059Y-63391651D01*
X76523039Y-63654671D01*
X76434388Y-63868694D01*
X76220365Y-63957345D01*
X75957345Y-64220365D01*
X75815000Y-64564017D01*
X75815000Y-64851000D01*
X75506017Y-64851000D01*
X75162365Y-64993345D01*
X74899345Y-65256365D01*
X74757000Y-65600017D01*
X61539146Y-65600017D01*
X61596645Y-65536924D01*
X61766476Y-65126890D01*
X61645155Y-64897000D01*
X60452000Y-64897000D01*
X60452000Y-64917000D01*
X60198000Y-64917000D01*
X60198000Y-64897000D01*
X59004845Y-64897000D01*
X58883524Y-65126890D01*
X59053355Y-65536924D01*
X59443642Y-65965183D01*
X59573478Y-66026157D01*
X59254375Y-66239375D01*
X58926161Y-66730582D01*
X58810908Y-67310000D01*
X58926161Y-67889418D01*
X59254375Y-68380625D01*
X59552761Y-68580000D01*
X59254375Y-68779375D01*
X58926161Y-69270582D01*
X58810908Y-69850000D01*
X58926161Y-70429418D01*
X59254375Y-70920625D01*
X59272619Y-70932816D01*
X59227235Y-70941843D01*
X59017191Y-71082191D01*
X58876843Y-71292235D01*
X58827560Y-71540000D01*
X58827560Y-71812480D01*
X58777315Y-71791668D01*
X58405349Y-71791668D01*
X58202929Y-71875513D01*
X58196655Y-71860365D01*
X57933635Y-71597345D01*
X57589983Y-71455000D01*
X57218017Y-71455000D01*
X56874365Y-71597345D01*
X56611345Y-71860365D01*
X56469000Y-72204017D01*
X56469000Y-72575983D01*
X56611345Y-72919635D01*
X56874365Y-73182655D01*
X57218017Y-73325000D01*
X57297432Y-73325000D01*
X57840754Y-73868323D01*
X57672235Y-73901843D01*
X57610836Y-73942869D01*
X57592855Y-73930854D01*
X57261783Y-73865000D01*
X57038217Y-73865000D01*
X56707145Y-73930854D01*
X56515000Y-74059241D01*
X56322855Y-73930854D01*
X55991783Y-73865000D01*
X55768217Y-73865000D01*
X55437145Y-73930854D01*
X55245000Y-74059241D01*
X55052855Y-73930854D01*
X54721783Y-73865000D01*
X54498217Y-73865000D01*
X54167145Y-73930854D01*
X53975000Y-74059241D01*
X53782855Y-73930854D01*
X53451783Y-73865000D01*
X53228217Y-73865000D01*
X52897145Y-73930854D01*
X52521711Y-74181711D01*
X52270854Y-74557145D01*
X52182765Y-75000000D01*
X50685000Y-75000000D01*
X50685000Y-61790017D01*
X56977000Y-61790017D01*
X56977000Y-62161983D01*
X57119345Y-62505635D01*
X57382365Y-62768655D01*
X57726017Y-62911000D01*
X57739000Y-62911000D01*
X57739000Y-62923983D01*
X57881345Y-63267635D01*
X58144365Y-63530655D01*
X58488017Y-63673000D01*
X58859983Y-63673000D01*
X59203635Y-63530655D01*
X59259790Y-63474500D01*
X59657252Y-63474500D01*
X59443642Y-63574817D01*
X59053355Y-64003076D01*
X58883524Y-64413110D01*
X59004845Y-64643000D01*
X60198000Y-64643000D01*
X60198000Y-64623000D01*
X60452000Y-64623000D01*
X60452000Y-64643000D01*
X61645155Y-64643000D01*
X61766476Y-64413110D01*
X61596645Y-64003076D01*
X61206358Y-63574817D01*
X60992748Y-63474500D01*
X61649469Y-63474500D01*
X61722000Y-63488927D01*
X61794531Y-63474500D01*
X61794535Y-63474500D01*
X62009368Y-63431767D01*
X62161985Y-63329791D01*
X62191494Y-63310074D01*
X62191495Y-63310073D01*
X62252986Y-63268986D01*
X62294073Y-63207495D01*
X63098568Y-62403000D01*
X63177983Y-62403000D01*
X63521635Y-62260655D01*
X63784655Y-61997635D01*
X63927000Y-61653983D01*
X63927000Y-61282017D01*
X63784655Y-60938365D01*
X63673000Y-60826710D01*
X63673000Y-60520017D01*
X63530655Y-60176365D01*
X63267635Y-59913345D01*
X62923983Y-59771000D01*
X62552017Y-59771000D01*
X62208365Y-59913345D01*
X61945345Y-60176365D01*
X61803000Y-60520017D01*
X61803000Y-60599432D01*
X61162932Y-61239500D01*
X58497790Y-61239500D01*
X58441635Y-61183345D01*
X58097983Y-61041000D01*
X57726017Y-61041000D01*
X57382365Y-61183345D01*
X57119345Y-61446365D01*
X56977000Y-61790017D01*
X50685000Y-61790017D01*
X50685000Y-61185000D01*
X51464250Y-61185000D01*
X51623000Y-61026250D01*
X51623000Y-59977000D01*
X51877000Y-59977000D01*
X51877000Y-61026250D01*
X52035750Y-61185000D01*
X53026310Y-61185000D01*
X53259699Y-61088327D01*
X53400000Y-60948025D01*
X53540301Y-61088327D01*
X53773690Y-61185000D01*
X54764250Y-61185000D01*
X54923000Y-61026250D01*
X54923000Y-59977000D01*
X55177000Y-59977000D01*
X55177000Y-61026250D01*
X55335750Y-61185000D01*
X56326310Y-61185000D01*
X56559699Y-61088327D01*
X56738327Y-60909698D01*
X56835000Y-60676309D01*
X56835000Y-60135750D01*
X56676250Y-59977000D01*
X55177000Y-59977000D01*
X54923000Y-59977000D01*
X53423750Y-59977000D01*
X53400000Y-60000750D01*
X53376250Y-59977000D01*
X51877000Y-59977000D01*
X51623000Y-59977000D01*
X51603000Y-59977000D01*
X51603000Y-59723000D01*
X51623000Y-59723000D01*
X51623000Y-59703000D01*
X51877000Y-59703000D01*
X51877000Y-59723000D01*
X53376250Y-59723000D01*
X53400000Y-59699250D01*
X53423750Y-59723000D01*
X54923000Y-59723000D01*
X54923000Y-59703000D01*
X55177000Y-59703000D01*
X55177000Y-59723000D01*
X56676250Y-59723000D01*
X56835000Y-59564250D01*
X56835000Y-59023691D01*
X56738327Y-58790302D01*
X56559699Y-58611673D01*
X56326310Y-58515000D01*
X55335750Y-58515000D01*
X55190510Y-58660240D01*
X55185000Y-58632538D01*
X55185000Y-51367462D01*
X55190510Y-51339760D01*
X55335750Y-51485000D01*
X56326310Y-51485000D01*
X56559699Y-51388327D01*
X56738327Y-51209698D01*
X56835000Y-50976309D01*
X56835000Y-50435750D01*
X56676250Y-50277000D01*
X55177000Y-50277000D01*
X55177000Y-50297000D01*
X54923000Y-50297000D01*
X54923000Y-50277000D01*
X53423750Y-50277000D01*
X53400000Y-50300750D01*
X53376250Y-50277000D01*
X51877000Y-50277000D01*
X51877000Y-50297000D01*
X51623000Y-50297000D01*
X51623000Y-50277000D01*
X51603000Y-50277000D01*
X51603000Y-50023000D01*
X51623000Y-50023000D01*
X51623000Y-48973750D01*
X51877000Y-48973750D01*
X51877000Y-50023000D01*
X53376250Y-50023000D01*
X53400000Y-49999250D01*
X53423750Y-50023000D01*
X54923000Y-50023000D01*
X54923000Y-48973750D01*
X54764250Y-48815000D01*
X53773690Y-48815000D01*
X53540301Y-48911673D01*
X53400000Y-49051975D01*
X53259699Y-48911673D01*
X53026310Y-48815000D01*
X52035750Y-48815000D01*
X51877000Y-48973750D01*
X51623000Y-48973750D01*
X51464250Y-48815000D01*
X50685000Y-48815000D01*
X50685000Y-43192285D01*
X50762191Y-43307809D01*
X50972235Y-43448157D01*
X51220000Y-43497440D01*
X52920000Y-43497440D01*
X53167765Y-43448157D01*
X53377809Y-43307809D01*
X53518157Y-43097765D01*
X53567440Y-42850000D01*
X53567440Y-41150000D01*
X53518157Y-40902235D01*
X53377809Y-40692191D01*
X53367047Y-40685000D01*
X54611339Y-40685000D01*
X54279138Y-41017201D01*
G36*
X72966138Y-56543952D02*
X73108483Y-56887604D01*
X73164638Y-56943759D01*
X73164639Y-60930656D01*
X73036531Y-61058763D01*
X72977157Y-61058763D01*
X72931828Y-60990923D01*
X72931825Y-60990920D01*
X72890740Y-60929432D01*
X72829252Y-60888347D01*
X72709674Y-60768769D01*
X72709674Y-60689355D01*
X72567329Y-60345703D01*
X72304309Y-60082683D01*
X72137462Y-60013573D01*
X72137462Y-56662783D01*
X72151889Y-56590252D01*
X72137462Y-56517721D01*
X72137462Y-56517718D01*
X72132537Y-56492959D01*
X72966138Y-56492959D01*
X72966138Y-56543952D01*
X72966138Y-56543952D01*
G37*
X72966138Y-56543952D02*
X73108483Y-56887604D01*
X73164638Y-56943759D01*
X73164639Y-60930656D01*
X73036531Y-61058763D01*
X72977157Y-61058763D01*
X72931828Y-60990923D01*
X72931825Y-60990920D01*
X72890740Y-60929432D01*
X72829252Y-60888347D01*
X72709674Y-60768769D01*
X72709674Y-60689355D01*
X72567329Y-60345703D01*
X72304309Y-60082683D01*
X72137462Y-60013573D01*
X72137462Y-56662783D01*
X72151889Y-56590252D01*
X72137462Y-56517721D01*
X72137462Y-56517718D01*
X72132537Y-56492959D01*
X72966138Y-56492959D01*
X72966138Y-56543952D01*
G04 #@! TD*
M02*
