G04 #@! TF.FileFunction,Copper,L2,Bot,Signal*
%FSLAX46Y46*%
G04 Gerber Fmt 4.6, Leading zero omitted, Abs format (unit mm)*
G04 Created by KiCad (PCBNEW 4.0.7) date 07/09/18 21:34:00*
%MOMM*%
%LPD*%
G01*
G04 APERTURE LIST*
%ADD10C,0.100000*%
%ADD11R,1.000000X1.000000*%
%ADD12O,1.000000X1.000000*%
%ADD13R,1.700000X1.700000*%
%ADD14O,1.700000X1.700000*%
%ADD15C,2.000000*%
%ADD16C,1.500000*%
%ADD17C,0.600000*%
%ADD18C,0.220000*%
%ADD19C,0.203000*%
%ADD20C,0.254000*%
G04 APERTURE END LIST*
D10*
X112000000Y-40000000D02*
X50000000Y-40000000D01*
X112000000Y-82000000D02*
X112000000Y-40000000D01*
X50000000Y-82000000D02*
X112000000Y-82000000D01*
X50000000Y-40000000D02*
X50000000Y-82000000D01*
D11*
X60000000Y-75000000D03*
D12*
X60000000Y-76270000D03*
X58730000Y-75000000D03*
X58730000Y-76270000D03*
X57460000Y-75000000D03*
X57460000Y-76270000D03*
X56190000Y-75000000D03*
X56190000Y-76270000D03*
X54920000Y-75000000D03*
X54920000Y-76270000D03*
D13*
X61000000Y-70540000D03*
D14*
X61000000Y-68000000D03*
X61000000Y-65460000D03*
X61000000Y-62920000D03*
D11*
X78000000Y-75000000D03*
D12*
X78000000Y-76270000D03*
X76730000Y-75000000D03*
X76730000Y-76270000D03*
X75460000Y-75000000D03*
X75460000Y-76270000D03*
X74190000Y-75000000D03*
X74190000Y-76270000D03*
X72920000Y-75000000D03*
X72920000Y-76270000D03*
D13*
X53960000Y-42000000D03*
D14*
X56500000Y-42000000D03*
D15*
X101000000Y-52500000D03*
X101000000Y-48000000D03*
X107500000Y-52500000D03*
X107500000Y-48000000D03*
X101000000Y-72500000D03*
X101000000Y-68000000D03*
X107500000Y-72500000D03*
X107500000Y-68000000D03*
D13*
X62380000Y-42000000D03*
D14*
X64920000Y-42000000D03*
X67460000Y-42000000D03*
X70000000Y-42000000D03*
X72540000Y-42000000D03*
X75080000Y-42000000D03*
X77620000Y-42000000D03*
D16*
X93000000Y-47520000D03*
X93000000Y-52400000D03*
D17*
X84800000Y-79600000D03*
X84600000Y-80800000D03*
X83800000Y-69200000D03*
X85800000Y-69400000D03*
X70960010Y-70000000D03*
X81015906Y-63483377D03*
X87000000Y-60500000D03*
X73750000Y-50750000D03*
X75000000Y-50750000D03*
X59250000Y-46250000D03*
X59250000Y-43000000D03*
X59250000Y-44750000D03*
X77393977Y-52250342D03*
X79000000Y-52250000D03*
X57500000Y-55500000D03*
X52750000Y-47500000D03*
X80721969Y-61750000D03*
X85500000Y-58500000D03*
X66375000Y-70000000D03*
X63500000Y-69000000D03*
X66500000Y-68000000D03*
X57500000Y-58750000D03*
X57500000Y-57000000D03*
X56750000Y-57750000D03*
X54500000Y-49250000D03*
X54500000Y-46250000D03*
X87000000Y-46000000D03*
X85250000Y-46000000D03*
X85250000Y-47500000D03*
X85250000Y-49000000D03*
X87000000Y-49000000D03*
X85500000Y-54500000D03*
X72250000Y-62750000D03*
X72500000Y-64000000D03*
X73500000Y-62500000D03*
X74000000Y-56999998D03*
X72500000Y-48750000D03*
X91250000Y-48750000D03*
X91750000Y-50750000D03*
X109250000Y-74250000D03*
X110750000Y-74250000D03*
X110000000Y-73500000D03*
X96750000Y-81000000D03*
X96750000Y-79500000D03*
X92750000Y-81000000D03*
X92750000Y-80000000D03*
X91000000Y-80000000D03*
X68200000Y-75200000D03*
X68600000Y-71800000D03*
X81771920Y-57406018D03*
X73250000Y-65750000D03*
X72500000Y-67000000D03*
X105750000Y-67250000D03*
X101250000Y-76000000D03*
X79250000Y-55500000D03*
X79250000Y-57000000D03*
X75000000Y-58000000D03*
X83000000Y-59000000D03*
X82000000Y-54750000D03*
X63400000Y-60800000D03*
X67200000Y-60800000D03*
X79000000Y-62000000D03*
X81750000Y-52500000D03*
X79486979Y-62805115D03*
X78250000Y-61500000D03*
X76730376Y-62294159D03*
X77600000Y-64200000D03*
X76500000Y-57250000D03*
X75750000Y-58500000D03*
X75000000Y-78093042D03*
X77598490Y-63166932D03*
X76933714Y-61520420D03*
X74389996Y-59575984D03*
X76916032Y-60250000D03*
X88750000Y-55000000D03*
X82000000Y-53500000D03*
X92250000Y-57000000D03*
X92750000Y-58500000D03*
X84400000Y-76000000D03*
X84400000Y-74000000D03*
X81110010Y-60689414D03*
X81000000Y-54250000D03*
X88500000Y-69500000D03*
X88500000Y-71000000D03*
X72867059Y-56429518D03*
X77806343Y-56389990D03*
X81351510Y-55980337D03*
X83448489Y-59994438D03*
X82708754Y-56601963D03*
X83806343Y-60943657D03*
X88750000Y-59000000D03*
X87000000Y-59000000D03*
X75500000Y-43425000D03*
X78825000Y-43400000D03*
X76756407Y-73579983D03*
X78589171Y-73939835D03*
X76556937Y-77690012D03*
X75484430Y-73176978D03*
X74752607Y-72592470D03*
X78750000Y-72500000D03*
X74000000Y-78500000D03*
X74000000Y-72000000D03*
D18*
X84600000Y-80800000D02*
X84600000Y-79800000D01*
X84600000Y-79800000D02*
X84800000Y-79600000D01*
X85800000Y-69400000D02*
X84000000Y-69400000D01*
X84000000Y-69400000D02*
X83800000Y-69200000D01*
X75000000Y-50750000D02*
X73750000Y-50750000D01*
X59250000Y-44750000D02*
X59250000Y-43000000D01*
X56750000Y-57750000D02*
X57500000Y-57000000D01*
X85250000Y-47500000D02*
X85250000Y-46000000D01*
X87000000Y-49000000D02*
X85250000Y-49000000D01*
X73500000Y-62500000D02*
X73500000Y-63000000D01*
X73500000Y-63000000D02*
X72500000Y-64000000D01*
X72500000Y-48750000D02*
X72500000Y-49500000D01*
X72500000Y-49500000D02*
X73750000Y-50750000D01*
X91750000Y-50750000D02*
X91750000Y-49250000D01*
X91750000Y-49250000D02*
X91250000Y-48750000D01*
X110750000Y-74250000D02*
X109250000Y-74250000D01*
X96750000Y-79500000D02*
X96750000Y-81000000D01*
X91000000Y-80000000D02*
X92750000Y-80000000D01*
X68600000Y-71800000D02*
X68200000Y-72200000D01*
X68200000Y-72200000D02*
X68200000Y-75200000D01*
X81771920Y-57771920D02*
X81771920Y-57406018D01*
X82000000Y-57177938D02*
X81771920Y-57406018D01*
X82000000Y-54750000D02*
X82000000Y-57177938D01*
X83000000Y-59000000D02*
X81771920Y-57771920D01*
X72500000Y-67000000D02*
X72500000Y-66500000D01*
X72500000Y-66500000D02*
X73250000Y-65750000D01*
X107500000Y-72500000D02*
X105750000Y-70750000D01*
X105750000Y-70750000D02*
X105750000Y-67250000D01*
X101250000Y-76000000D02*
X101250000Y-72750000D01*
X101250000Y-72750000D02*
X101000000Y-72500000D01*
X79250000Y-55500000D02*
X79250000Y-57000000D01*
X77500000Y-57000000D02*
X79250000Y-57000000D01*
X77000000Y-56500000D02*
X77500000Y-57000000D01*
X76000000Y-56500000D02*
X77000000Y-56500000D01*
X75299999Y-57200001D02*
X76000000Y-56500000D01*
X75299999Y-57700001D02*
X75299999Y-57200001D01*
X75000000Y-58000000D02*
X75299999Y-57700001D01*
X67200000Y-60800000D02*
X63400000Y-60800000D01*
D19*
X79596987Y-61414789D02*
X79585211Y-61414789D01*
X79585211Y-61414789D02*
X79000000Y-62000000D01*
X81750000Y-52500000D02*
X79851502Y-54398498D01*
X79851502Y-61160274D02*
X79596987Y-61414789D01*
X79851502Y-54398498D02*
X79851502Y-61160274D01*
X79062715Y-62805115D02*
X79486979Y-62805115D01*
X78250000Y-62140224D02*
X78914891Y-62805115D01*
X78914891Y-62805115D02*
X79062715Y-62805115D01*
X78250000Y-61500000D02*
X78250000Y-62140224D01*
X77600000Y-64200000D02*
X76730376Y-63330376D01*
X76730376Y-63330376D02*
X76730376Y-62718423D01*
X76730376Y-62718423D02*
X76730376Y-62294159D01*
X75750000Y-58500000D02*
X75750000Y-58000000D01*
X75750000Y-58000000D02*
X76500000Y-57250000D01*
X75460000Y-77633042D02*
X75000000Y-78093042D01*
X75460000Y-76270000D02*
X75460000Y-77633042D01*
X77598490Y-62185196D02*
X77233713Y-61820419D01*
X77233713Y-61820419D02*
X76933714Y-61520420D01*
X77598490Y-63166932D02*
X77598490Y-62185196D01*
X74689995Y-59875983D02*
X74389996Y-59575984D01*
X76916032Y-60250000D02*
X75064012Y-60250000D01*
X75064012Y-60250000D02*
X74689995Y-59875983D01*
X87250000Y-53500000D02*
X88750000Y-55000000D01*
X86500000Y-53500000D02*
X87250000Y-53500000D01*
X82000000Y-53500000D02*
X86500000Y-53500000D01*
X92750000Y-58500000D02*
X92750000Y-57500000D01*
X92750000Y-57500000D02*
X92250000Y-57000000D01*
X84400000Y-74000000D02*
X84400000Y-76000000D01*
X81000000Y-54250000D02*
X80700001Y-54549999D01*
X80810011Y-60389415D02*
X81110010Y-60689414D01*
X80700001Y-54549999D02*
X80700001Y-60279405D01*
X80700001Y-60279405D02*
X80810011Y-60389415D01*
X88500000Y-71000000D02*
X88500000Y-69500000D01*
X73167058Y-56129519D02*
X72867059Y-56429518D01*
X73208087Y-56088490D02*
X73167058Y-56129519D01*
X77504843Y-56088490D02*
X73208087Y-56088490D01*
X77806343Y-56389990D02*
X77504843Y-56088490D01*
X81153011Y-58123224D02*
X81153011Y-56603100D01*
X83448489Y-59994438D02*
X83024225Y-59994438D01*
X81153011Y-56603100D02*
X81351510Y-56404601D01*
X83024225Y-59994438D02*
X81153011Y-58123224D01*
X81351510Y-56404601D02*
X81351510Y-55980337D01*
X82708754Y-56641244D02*
X82708754Y-56601963D01*
X82549999Y-56799999D02*
X82708754Y-56641244D01*
X83008753Y-56901962D02*
X82708754Y-56601963D01*
X84106342Y-57999551D02*
X83008753Y-56901962D01*
X83806343Y-60943657D02*
X84106342Y-60643658D01*
X84106342Y-60643658D02*
X84106342Y-57999551D01*
X87000000Y-59000000D02*
X88750000Y-59000000D01*
X78825000Y-43400000D02*
X75525000Y-43400000D01*
X75525000Y-43400000D02*
X75500000Y-43425000D01*
X76730000Y-75000000D02*
X76730000Y-73606390D01*
X76730000Y-73606390D02*
X76756407Y-73579983D01*
X78889170Y-74239834D02*
X78589171Y-73939835D01*
X78889170Y-76567052D02*
X78889170Y-74239834D01*
X76556937Y-77690012D02*
X77766210Y-77690012D01*
X77766210Y-77690012D02*
X78889170Y-76567052D01*
X76730000Y-77516949D02*
X76556937Y-77690012D01*
X76730000Y-76270000D02*
X76730000Y-77516949D01*
X75460000Y-73201408D02*
X75484430Y-73176978D01*
X75460000Y-75000000D02*
X75460000Y-73201408D01*
X74752607Y-73016734D02*
X74752607Y-72592470D01*
X74752607Y-74437393D02*
X74752607Y-73016734D01*
X74190000Y-75000000D02*
X74752607Y-74437393D01*
X79292178Y-73402188D02*
X79292178Y-73042178D01*
X79292178Y-73042178D02*
X78750000Y-72500000D01*
X79292178Y-77207822D02*
X79292178Y-73402188D01*
X77700001Y-78799999D02*
X79292178Y-77207822D01*
X74299999Y-78799999D02*
X77700001Y-78799999D01*
X74000000Y-78500000D02*
X74299999Y-78799999D01*
X74000000Y-78500000D02*
X74000000Y-76460000D01*
X74000000Y-76460000D02*
X74190000Y-76270000D01*
X74000000Y-72000000D02*
X72920000Y-73080000D01*
X72920000Y-73080000D02*
X72920000Y-75000000D01*
D20*
G36*
X52658559Y-40685910D02*
X52513569Y-40898110D01*
X52462560Y-41150000D01*
X52462560Y-42850000D01*
X52506838Y-43085317D01*
X52645910Y-43301441D01*
X52858110Y-43446431D01*
X53110000Y-43497440D01*
X54810000Y-43497440D01*
X55045317Y-43453162D01*
X55261441Y-43314090D01*
X55406431Y-43101890D01*
X55428301Y-42993893D01*
X55733076Y-43271645D01*
X56143110Y-43441476D01*
X56373000Y-43320155D01*
X56373000Y-42127000D01*
X56627000Y-42127000D01*
X56627000Y-43320155D01*
X56856890Y-43441476D01*
X57266924Y-43271645D01*
X57695183Y-42881358D01*
X57941486Y-42356892D01*
X57904145Y-42285750D01*
X60895000Y-42285750D01*
X60895000Y-42976309D01*
X60991673Y-43209698D01*
X61170301Y-43388327D01*
X61403690Y-43485000D01*
X62094250Y-43485000D01*
X62253000Y-43326250D01*
X62253000Y-42127000D01*
X61053750Y-42127000D01*
X60895000Y-42285750D01*
X57904145Y-42285750D01*
X57820819Y-42127000D01*
X56627000Y-42127000D01*
X56373000Y-42127000D01*
X56353000Y-42127000D01*
X56353000Y-41873000D01*
X56373000Y-41873000D01*
X56373000Y-41853000D01*
X56627000Y-41853000D01*
X56627000Y-41873000D01*
X57820819Y-41873000D01*
X57941486Y-41643108D01*
X57695183Y-41118642D01*
X57266924Y-40728355D01*
X57162249Y-40685000D01*
X61096974Y-40685000D01*
X60991673Y-40790302D01*
X60895000Y-41023691D01*
X60895000Y-41714250D01*
X61053750Y-41873000D01*
X62253000Y-41873000D01*
X62253000Y-41853000D01*
X62507000Y-41853000D01*
X62507000Y-41873000D01*
X62527000Y-41873000D01*
X62527000Y-42127000D01*
X62507000Y-42127000D01*
X62507000Y-43326250D01*
X62665750Y-43485000D01*
X63356310Y-43485000D01*
X63589699Y-43388327D01*
X63768327Y-43209698D01*
X63840597Y-43035223D01*
X63869946Y-43079147D01*
X64351715Y-43401054D01*
X64920000Y-43514093D01*
X65488285Y-43401054D01*
X65970054Y-43079147D01*
X66190000Y-42749974D01*
X66409946Y-43079147D01*
X66891715Y-43401054D01*
X67460000Y-43514093D01*
X68028285Y-43401054D01*
X68510054Y-43079147D01*
X68730000Y-42749974D01*
X68949946Y-43079147D01*
X69431715Y-43401054D01*
X70000000Y-43514093D01*
X70568285Y-43401054D01*
X71050054Y-43079147D01*
X71270000Y-42749974D01*
X71489946Y-43079147D01*
X71971715Y-43401054D01*
X72540000Y-43514093D01*
X73108285Y-43401054D01*
X73590054Y-43079147D01*
X73810000Y-42749974D01*
X74029946Y-43079147D01*
X74511715Y-43401054D01*
X74565011Y-43411655D01*
X74564838Y-43610167D01*
X74706883Y-43953943D01*
X74969673Y-44217192D01*
X75313201Y-44359838D01*
X75685167Y-44360162D01*
X76028943Y-44218117D01*
X76110703Y-44136500D01*
X78239078Y-44136500D01*
X78294673Y-44192192D01*
X78638201Y-44334838D01*
X79010167Y-44335162D01*
X79353943Y-44193117D01*
X79617192Y-43930327D01*
X79759838Y-43586799D01*
X79760162Y-43214833D01*
X79618117Y-42871057D01*
X79355327Y-42607808D01*
X79017767Y-42467640D01*
X79105000Y-42029093D01*
X79105000Y-41970907D01*
X78991961Y-41402622D01*
X78670054Y-40920853D01*
X78317074Y-40685000D01*
X111315000Y-40685000D01*
X111315000Y-81315000D01*
X50685000Y-81315000D01*
X50685000Y-76571877D01*
X53825868Y-76571877D01*
X54024677Y-76967604D01*
X54359791Y-77257127D01*
X54618126Y-77364119D01*
X54793000Y-77237954D01*
X54793000Y-76397000D01*
X53950865Y-76397000D01*
X53825868Y-76571877D01*
X50685000Y-76571877D01*
X50685000Y-74977764D01*
X53785000Y-74977764D01*
X53785000Y-75022236D01*
X53871397Y-75456582D01*
X53992104Y-75637232D01*
X53825868Y-75968123D01*
X53950865Y-76143000D01*
X54793000Y-76143000D01*
X54793000Y-76131974D01*
X54920000Y-76157236D01*
X55047000Y-76131974D01*
X55047000Y-76143000D01*
X55067000Y-76143000D01*
X55067000Y-76187436D01*
X55055000Y-76247764D01*
X55055000Y-76292236D01*
X55067000Y-76352564D01*
X55067000Y-76397000D01*
X55047000Y-76397000D01*
X55047000Y-77237954D01*
X55221874Y-77364119D01*
X55480209Y-77257127D01*
X55545696Y-77200549D01*
X55755654Y-77340839D01*
X56190000Y-77427236D01*
X56624346Y-77340839D01*
X56825000Y-77206766D01*
X57025654Y-77340839D01*
X57460000Y-77427236D01*
X57894346Y-77340839D01*
X58095000Y-77206766D01*
X58295654Y-77340839D01*
X58730000Y-77427236D01*
X59164346Y-77340839D01*
X59365000Y-77206766D01*
X59565654Y-77340839D01*
X60000000Y-77427236D01*
X60434346Y-77340839D01*
X60802566Y-77094802D01*
X61048603Y-76726582D01*
X61079375Y-76571877D01*
X71825868Y-76571877D01*
X72024677Y-76967604D01*
X72359791Y-77257127D01*
X72618126Y-77364119D01*
X72793000Y-77237954D01*
X72793000Y-76397000D01*
X71950865Y-76397000D01*
X71825868Y-76571877D01*
X61079375Y-76571877D01*
X61135000Y-76292236D01*
X61135000Y-76247764D01*
X61049908Y-75819979D01*
X61096431Y-75751890D01*
X61147440Y-75500000D01*
X61147440Y-75385167D01*
X67264838Y-75385167D01*
X67406883Y-75728943D01*
X67669673Y-75992192D01*
X68013201Y-76134838D01*
X68385167Y-76135162D01*
X68728943Y-75993117D01*
X68992192Y-75730327D01*
X69134838Y-75386799D01*
X69135162Y-75014833D01*
X69119846Y-74977764D01*
X71785000Y-74977764D01*
X71785000Y-75022236D01*
X71871397Y-75456582D01*
X71992104Y-75637232D01*
X71825868Y-75968123D01*
X71950865Y-76143000D01*
X72793000Y-76143000D01*
X72793000Y-76131974D01*
X72920000Y-76157236D01*
X73047000Y-76131974D01*
X73047000Y-76143000D01*
X73067000Y-76143000D01*
X73067000Y-76187436D01*
X73055000Y-76247764D01*
X73055000Y-76292236D01*
X73067000Y-76352564D01*
X73067000Y-76397000D01*
X73047000Y-76397000D01*
X73047000Y-77237954D01*
X73221874Y-77364119D01*
X73263500Y-77346879D01*
X73263500Y-77914078D01*
X73207808Y-77969673D01*
X73065162Y-78313201D01*
X73064838Y-78685167D01*
X73206883Y-79028943D01*
X73469673Y-79292192D01*
X73813201Y-79434838D01*
X73950089Y-79434957D01*
X74018153Y-79480436D01*
X74299999Y-79536499D01*
X77700001Y-79536499D01*
X77981847Y-79480436D01*
X78220785Y-79320783D01*
X79812962Y-77728606D01*
X79972615Y-77489669D01*
X80028678Y-77207822D01*
X80028678Y-74185167D01*
X83464838Y-74185167D01*
X83606883Y-74528943D01*
X83663500Y-74585659D01*
X83663500Y-75414078D01*
X83607808Y-75469673D01*
X83465162Y-75813201D01*
X83464838Y-76185167D01*
X83606883Y-76528943D01*
X83869673Y-76792192D01*
X84213201Y-76934838D01*
X84585167Y-76935162D01*
X84928943Y-76793117D01*
X85192192Y-76530327D01*
X85334838Y-76186799D01*
X85335162Y-75814833D01*
X85193117Y-75471057D01*
X85136500Y-75414341D01*
X85136500Y-74585922D01*
X85192192Y-74530327D01*
X85334838Y-74186799D01*
X85335162Y-73814833D01*
X85193117Y-73471057D01*
X84930327Y-73207808D01*
X84586799Y-73065162D01*
X84214833Y-73064838D01*
X83871057Y-73206883D01*
X83607808Y-73469673D01*
X83465162Y-73813201D01*
X83464838Y-74185167D01*
X80028678Y-74185167D01*
X80028678Y-73042178D01*
X79985239Y-72823795D01*
X99364716Y-72823795D01*
X99613106Y-73424943D01*
X100072637Y-73885278D01*
X100505000Y-74064810D01*
X100505000Y-75422563D01*
X100457808Y-75469673D01*
X100315162Y-75813201D01*
X100314838Y-76185167D01*
X100456883Y-76528943D01*
X100719673Y-76792192D01*
X101063201Y-76934838D01*
X101435167Y-76935162D01*
X101778943Y-76793117D01*
X102042192Y-76530327D01*
X102184838Y-76186799D01*
X102185162Y-75814833D01*
X102043117Y-75471057D01*
X101995000Y-75422856D01*
X101995000Y-73816959D01*
X102385278Y-73427363D01*
X102634716Y-72826648D01*
X102635284Y-72176205D01*
X102386894Y-71575057D01*
X101927363Y-71114722D01*
X101326648Y-70865284D01*
X100676205Y-70864716D01*
X100075057Y-71113106D01*
X99614722Y-71572637D01*
X99365284Y-72173352D01*
X99364716Y-72823795D01*
X79985239Y-72823795D01*
X79972615Y-72760332D01*
X79812962Y-72521394D01*
X79685093Y-72393525D01*
X79685162Y-72314833D01*
X79543117Y-71971057D01*
X79280327Y-71707808D01*
X78936799Y-71565162D01*
X78564833Y-71564838D01*
X78221057Y-71706883D01*
X77957808Y-71969673D01*
X77815162Y-72313201D01*
X77814838Y-72685167D01*
X77956883Y-73028943D01*
X78070299Y-73142557D01*
X78060228Y-73146718D01*
X77796979Y-73409508D01*
X77691335Y-73663927D01*
X77691569Y-73394816D01*
X77549524Y-73051040D01*
X77286734Y-72787791D01*
X76943206Y-72645145D01*
X76571240Y-72644821D01*
X76319242Y-72748944D01*
X76277547Y-72648035D01*
X76014757Y-72384786D01*
X75671229Y-72242140D01*
X75619507Y-72242095D01*
X75545724Y-72063527D01*
X75282934Y-71800278D01*
X74939406Y-71657632D01*
X74870183Y-71657572D01*
X74793117Y-71471057D01*
X74530327Y-71207808D01*
X74186799Y-71065162D01*
X73814833Y-71064838D01*
X73471057Y-71206883D01*
X73207808Y-71469673D01*
X73065162Y-71813201D01*
X73065092Y-71893340D01*
X72399216Y-72559216D01*
X72239563Y-72798154D01*
X72183500Y-73080000D01*
X72183500Y-74131054D01*
X72117434Y-74175198D01*
X71871397Y-74543418D01*
X71785000Y-74977764D01*
X69119846Y-74977764D01*
X68993117Y-74671057D01*
X68945000Y-74622856D01*
X68945000Y-72669121D01*
X69128943Y-72593117D01*
X69392192Y-72330327D01*
X69534838Y-71986799D01*
X69535162Y-71614833D01*
X69393117Y-71271057D01*
X69130327Y-71007808D01*
X68786799Y-70865162D01*
X68414833Y-70864838D01*
X68071057Y-71006883D01*
X67807808Y-71269673D01*
X67665162Y-71613201D01*
X67665099Y-71685336D01*
X67511710Y-71914901D01*
X67454999Y-72200000D01*
X67455000Y-72200005D01*
X67455000Y-74622563D01*
X67407808Y-74669673D01*
X67265162Y-75013201D01*
X67264838Y-75385167D01*
X61147440Y-75385167D01*
X61147440Y-74500000D01*
X61103162Y-74264683D01*
X60964090Y-74048559D01*
X60751890Y-73903569D01*
X60500000Y-73852560D01*
X59500000Y-73852560D01*
X59264683Y-73896838D01*
X59188927Y-73945586D01*
X59164346Y-73929161D01*
X58730000Y-73842764D01*
X58295654Y-73929161D01*
X58095000Y-74063234D01*
X57894346Y-73929161D01*
X57460000Y-73842764D01*
X57025654Y-73929161D01*
X56825000Y-74063234D01*
X56624346Y-73929161D01*
X56190000Y-73842764D01*
X55755654Y-73929161D01*
X55555000Y-74063234D01*
X55354346Y-73929161D01*
X54920000Y-73842764D01*
X54485654Y-73929161D01*
X54117434Y-74175198D01*
X53871397Y-74543418D01*
X53785000Y-74977764D01*
X50685000Y-74977764D01*
X50685000Y-65460000D01*
X59485907Y-65460000D01*
X59598946Y-66028285D01*
X59920853Y-66510054D01*
X60250026Y-66730000D01*
X59920853Y-66949946D01*
X59598946Y-67431715D01*
X59485907Y-68000000D01*
X59598946Y-68568285D01*
X59920853Y-69050054D01*
X59962452Y-69077850D01*
X59914683Y-69086838D01*
X59698559Y-69225910D01*
X59553569Y-69438110D01*
X59502560Y-69690000D01*
X59502560Y-71390000D01*
X59546838Y-71625317D01*
X59685910Y-71841441D01*
X59898110Y-71986431D01*
X60150000Y-72037440D01*
X61850000Y-72037440D01*
X62085317Y-71993162D01*
X62301441Y-71854090D01*
X62446431Y-71641890D01*
X62497440Y-71390000D01*
X62497440Y-69690000D01*
X62496531Y-69685167D01*
X87564838Y-69685167D01*
X87706883Y-70028943D01*
X87763500Y-70085659D01*
X87763500Y-70414078D01*
X87707808Y-70469673D01*
X87565162Y-70813201D01*
X87564838Y-71185167D01*
X87706883Y-71528943D01*
X87969673Y-71792192D01*
X88313201Y-71934838D01*
X88685167Y-71935162D01*
X89028943Y-71793117D01*
X89292192Y-71530327D01*
X89434838Y-71186799D01*
X89435162Y-70814833D01*
X89293117Y-70471057D01*
X89236500Y-70414341D01*
X89236500Y-70085922D01*
X89292192Y-70030327D01*
X89434838Y-69686799D01*
X89435162Y-69314833D01*
X89293117Y-68971057D01*
X89030327Y-68707808D01*
X88686799Y-68565162D01*
X88314833Y-68564838D01*
X87971057Y-68706883D01*
X87707808Y-68969673D01*
X87565162Y-69313201D01*
X87564838Y-69685167D01*
X62496531Y-69685167D01*
X62453162Y-69454683D01*
X62314090Y-69238559D01*
X62101890Y-69093569D01*
X62034459Y-69079914D01*
X62079147Y-69050054D01*
X62401054Y-68568285D01*
X62449686Y-68323795D01*
X99364716Y-68323795D01*
X99613106Y-68924943D01*
X100072637Y-69385278D01*
X100673352Y-69634716D01*
X101323795Y-69635284D01*
X101924943Y-69386894D01*
X102385278Y-68927363D01*
X102634716Y-68326648D01*
X102635284Y-67676205D01*
X102535689Y-67435167D01*
X104814838Y-67435167D01*
X104956883Y-67778943D01*
X105005000Y-67827144D01*
X105005000Y-70749995D01*
X105004999Y-70750000D01*
X105061710Y-71035099D01*
X105223205Y-71276795D01*
X105939949Y-71993538D01*
X105865284Y-72173352D01*
X105864716Y-72823795D01*
X106113106Y-73424943D01*
X106572637Y-73885278D01*
X107173352Y-74134716D01*
X107823795Y-74135284D01*
X108424943Y-73886894D01*
X108885278Y-73427363D01*
X109134716Y-72826648D01*
X109135284Y-72176205D01*
X108886894Y-71575057D01*
X108427363Y-71114722D01*
X107826648Y-70865284D01*
X107176205Y-70864716D01*
X106993711Y-70940121D01*
X106495000Y-70441410D01*
X106495000Y-69307505D01*
X106572637Y-69385278D01*
X107173352Y-69634716D01*
X107823795Y-69635284D01*
X108424943Y-69386894D01*
X108885278Y-68927363D01*
X109134716Y-68326648D01*
X109135284Y-67676205D01*
X108886894Y-67075057D01*
X108427363Y-66614722D01*
X107826648Y-66365284D01*
X107176205Y-66364716D01*
X106575057Y-66613106D01*
X106505084Y-66682957D01*
X106280327Y-66457808D01*
X105936799Y-66315162D01*
X105564833Y-66314838D01*
X105221057Y-66456883D01*
X104957808Y-66719673D01*
X104815162Y-67063201D01*
X104814838Y-67435167D01*
X102535689Y-67435167D01*
X102386894Y-67075057D01*
X101927363Y-66614722D01*
X101326648Y-66365284D01*
X100676205Y-66364716D01*
X100075057Y-66613106D01*
X99614722Y-67072637D01*
X99365284Y-67673352D01*
X99364716Y-68323795D01*
X62449686Y-68323795D01*
X62514093Y-68000000D01*
X62401054Y-67431715D01*
X62236317Y-67185167D01*
X71564838Y-67185167D01*
X71706883Y-67528943D01*
X71969673Y-67792192D01*
X72313201Y-67934838D01*
X72685167Y-67935162D01*
X73028943Y-67793117D01*
X73292192Y-67530327D01*
X73434838Y-67186799D01*
X73435162Y-66814833D01*
X73381564Y-66685115D01*
X73435167Y-66685162D01*
X73778943Y-66543117D01*
X74042192Y-66280327D01*
X74184838Y-65936799D01*
X74185162Y-65564833D01*
X74043117Y-65221057D01*
X73780327Y-64957808D01*
X73436799Y-64815162D01*
X73064833Y-64814838D01*
X72721057Y-64956883D01*
X72457808Y-65219673D01*
X72315162Y-65563201D01*
X72315103Y-65631308D01*
X71973205Y-65973205D01*
X71811710Y-66214901D01*
X71774219Y-66403378D01*
X71707808Y-66469673D01*
X71565162Y-66813201D01*
X71564838Y-67185167D01*
X62236317Y-67185167D01*
X62079147Y-66949946D01*
X61749974Y-66730000D01*
X62079147Y-66510054D01*
X62401054Y-66028285D01*
X62514093Y-65460000D01*
X62401054Y-64891715D01*
X62079147Y-64409946D01*
X61738447Y-64182298D01*
X61881358Y-64115183D01*
X62271645Y-63686924D01*
X62441476Y-63276890D01*
X62320155Y-63047000D01*
X61127000Y-63047000D01*
X61127000Y-63067000D01*
X60873000Y-63067000D01*
X60873000Y-63047000D01*
X59679845Y-63047000D01*
X59558524Y-63276890D01*
X59728355Y-63686924D01*
X60118642Y-64115183D01*
X60261553Y-64182298D01*
X59920853Y-64409946D01*
X59598946Y-64891715D01*
X59485907Y-65460000D01*
X50685000Y-65460000D01*
X50685000Y-62563110D01*
X59558524Y-62563110D01*
X59679845Y-62793000D01*
X60873000Y-62793000D01*
X60873000Y-61599181D01*
X61127000Y-61599181D01*
X61127000Y-62793000D01*
X62320155Y-62793000D01*
X62441476Y-62563110D01*
X62271645Y-62153076D01*
X61881358Y-61724817D01*
X61356892Y-61478514D01*
X61127000Y-61599181D01*
X60873000Y-61599181D01*
X60643108Y-61478514D01*
X60118642Y-61724817D01*
X59728355Y-62153076D01*
X59558524Y-62563110D01*
X50685000Y-62563110D01*
X50685000Y-60985167D01*
X62464838Y-60985167D01*
X62606883Y-61328943D01*
X62869673Y-61592192D01*
X63213201Y-61734838D01*
X63585167Y-61735162D01*
X63928943Y-61593117D01*
X63977144Y-61545000D01*
X66622563Y-61545000D01*
X66669673Y-61592192D01*
X67013201Y-61734838D01*
X67385167Y-61735162D01*
X67728943Y-61593117D01*
X67992192Y-61330327D01*
X68134838Y-60986799D01*
X68135162Y-60614833D01*
X67993117Y-60271057D01*
X67730327Y-60007808D01*
X67386799Y-59865162D01*
X67014833Y-59864838D01*
X66671057Y-60006883D01*
X66622856Y-60055000D01*
X63977437Y-60055000D01*
X63930327Y-60007808D01*
X63586799Y-59865162D01*
X63214833Y-59864838D01*
X62871057Y-60006883D01*
X62607808Y-60269673D01*
X62465162Y-60613201D01*
X62464838Y-60985167D01*
X50685000Y-60985167D01*
X50685000Y-56614685D01*
X71931897Y-56614685D01*
X72073942Y-56958461D01*
X72336732Y-57221710D01*
X72680260Y-57364356D01*
X73052226Y-57364680D01*
X73396002Y-57222635D01*
X73659251Y-56959845D01*
X73715248Y-56824990D01*
X74671786Y-56824990D01*
X74611709Y-56914902D01*
X74561023Y-57169710D01*
X74471057Y-57206883D01*
X74207808Y-57469673D01*
X74065162Y-57813201D01*
X74064838Y-58185167D01*
X74206883Y-58528943D01*
X74318666Y-58640921D01*
X74204829Y-58640822D01*
X73861053Y-58782867D01*
X73597804Y-59045657D01*
X73455158Y-59389185D01*
X73454834Y-59761151D01*
X73596879Y-60104927D01*
X73859669Y-60368176D01*
X74203197Y-60510822D01*
X74283336Y-60510892D01*
X74543228Y-60770784D01*
X74782166Y-60930437D01*
X75064012Y-60986500D01*
X76145121Y-60986500D01*
X76141522Y-60990093D01*
X75998876Y-61333621D01*
X75998554Y-61703568D01*
X75938184Y-61763832D01*
X75795538Y-62107360D01*
X75795214Y-62479326D01*
X75937259Y-62823102D01*
X75993876Y-62879818D01*
X75993876Y-63330376D01*
X76049939Y-63612222D01*
X76209592Y-63851160D01*
X76664907Y-64306475D01*
X76664838Y-64385167D01*
X76806883Y-64728943D01*
X77069673Y-64992192D01*
X77413201Y-65134838D01*
X77785167Y-65135162D01*
X78128943Y-64993117D01*
X78392192Y-64730327D01*
X78534838Y-64386799D01*
X78535162Y-64014833D01*
X78397329Y-63681251D01*
X78512137Y-63404764D01*
X78633045Y-63485552D01*
X78897630Y-63538181D01*
X78956652Y-63597307D01*
X79300180Y-63739953D01*
X79672146Y-63740277D01*
X80015922Y-63598232D01*
X80279171Y-63335442D01*
X80421817Y-62991914D01*
X80422141Y-62619948D01*
X80280096Y-62276172D01*
X80022971Y-62018597D01*
X80082282Y-61959286D01*
X80117771Y-61935573D01*
X80372286Y-61681058D01*
X80531939Y-61442120D01*
X80533323Y-61435165D01*
X80579683Y-61481606D01*
X80923211Y-61624252D01*
X81295177Y-61624576D01*
X81638953Y-61482531D01*
X81902202Y-61219741D01*
X82044848Y-60876213D01*
X82045172Y-60504247D01*
X81903127Y-60160471D01*
X81640337Y-59897222D01*
X81436501Y-59812581D01*
X81436501Y-59448282D01*
X82503441Y-60515222D01*
X82742378Y-60674875D01*
X82822514Y-60690815D01*
X82876481Y-60744876D01*
X82871505Y-60756858D01*
X82871181Y-61128824D01*
X83013226Y-61472600D01*
X83276016Y-61735849D01*
X83619544Y-61878495D01*
X83991510Y-61878819D01*
X84335286Y-61736774D01*
X84598535Y-61473984D01*
X84741181Y-61130456D01*
X84741300Y-60993568D01*
X84786779Y-60925504D01*
X84842842Y-60643658D01*
X84842842Y-59185167D01*
X86064838Y-59185167D01*
X86206883Y-59528943D01*
X86469673Y-59792192D01*
X86813201Y-59934838D01*
X87185167Y-59935162D01*
X87528943Y-59793117D01*
X87585659Y-59736500D01*
X88164078Y-59736500D01*
X88219673Y-59792192D01*
X88563201Y-59934838D01*
X88935167Y-59935162D01*
X89278943Y-59793117D01*
X89542192Y-59530327D01*
X89684838Y-59186799D01*
X89685162Y-58814833D01*
X89543117Y-58471057D01*
X89280327Y-58207808D01*
X88936799Y-58065162D01*
X88564833Y-58064838D01*
X88221057Y-58206883D01*
X88164341Y-58263500D01*
X87585922Y-58263500D01*
X87530327Y-58207808D01*
X87186799Y-58065162D01*
X86814833Y-58064838D01*
X86471057Y-58206883D01*
X86207808Y-58469673D01*
X86065162Y-58813201D01*
X86064838Y-59185167D01*
X84842842Y-59185167D01*
X84842842Y-57999551D01*
X84786779Y-57717704D01*
X84627126Y-57478767D01*
X84333526Y-57185167D01*
X91314838Y-57185167D01*
X91456883Y-57528943D01*
X91719673Y-57792192D01*
X92013414Y-57914164D01*
X91957808Y-57969673D01*
X91815162Y-58313201D01*
X91814838Y-58685167D01*
X91956883Y-59028943D01*
X92219673Y-59292192D01*
X92563201Y-59434838D01*
X92935167Y-59435162D01*
X93278943Y-59293117D01*
X93542192Y-59030327D01*
X93684838Y-58686799D01*
X93685162Y-58314833D01*
X93543117Y-57971057D01*
X93486500Y-57914341D01*
X93486500Y-57500000D01*
X93430437Y-57218154D01*
X93270784Y-56979216D01*
X93185093Y-56893525D01*
X93185162Y-56814833D01*
X93043117Y-56471057D01*
X92780327Y-56207808D01*
X92436799Y-56065162D01*
X92064833Y-56064838D01*
X91721057Y-56206883D01*
X91457808Y-56469673D01*
X91315162Y-56813201D01*
X91314838Y-57185167D01*
X84333526Y-57185167D01*
X83643847Y-56495488D01*
X83643916Y-56416796D01*
X83501871Y-56073020D01*
X83239081Y-55809771D01*
X82895553Y-55667125D01*
X82745000Y-55666994D01*
X82745000Y-55327437D01*
X82792192Y-55280327D01*
X82934838Y-54936799D01*
X82935162Y-54564833D01*
X82799498Y-54236500D01*
X86944932Y-54236500D01*
X87814907Y-55106475D01*
X87814838Y-55185167D01*
X87956883Y-55528943D01*
X88219673Y-55792192D01*
X88563201Y-55934838D01*
X88935167Y-55935162D01*
X89278943Y-55793117D01*
X89542192Y-55530327D01*
X89684838Y-55186799D01*
X89685162Y-54814833D01*
X89543117Y-54471057D01*
X89280327Y-54207808D01*
X88936799Y-54065162D01*
X88856660Y-54065092D01*
X87770784Y-52979216D01*
X87531846Y-52819563D01*
X87250000Y-52763500D01*
X82652989Y-52763500D01*
X82684838Y-52686799D01*
X82684848Y-52674285D01*
X91614760Y-52674285D01*
X91825169Y-53183515D01*
X92214436Y-53573461D01*
X92723298Y-53784759D01*
X93274285Y-53785240D01*
X93783515Y-53574831D01*
X94173461Y-53185564D01*
X94323680Y-52823795D01*
X99364716Y-52823795D01*
X99613106Y-53424943D01*
X100072637Y-53885278D01*
X100673352Y-54134716D01*
X101323795Y-54135284D01*
X101924943Y-53886894D01*
X102385278Y-53427363D01*
X102634716Y-52826648D01*
X102634718Y-52823795D01*
X105864716Y-52823795D01*
X106113106Y-53424943D01*
X106572637Y-53885278D01*
X107173352Y-54134716D01*
X107823795Y-54135284D01*
X108424943Y-53886894D01*
X108885278Y-53427363D01*
X109134716Y-52826648D01*
X109135284Y-52176205D01*
X108886894Y-51575057D01*
X108427363Y-51114722D01*
X107826648Y-50865284D01*
X107176205Y-50864716D01*
X106575057Y-51113106D01*
X106114722Y-51572637D01*
X105865284Y-52173352D01*
X105864716Y-52823795D01*
X102634718Y-52823795D01*
X102635284Y-52176205D01*
X102386894Y-51575057D01*
X101927363Y-51114722D01*
X101326648Y-50865284D01*
X100676205Y-50864716D01*
X100075057Y-51113106D01*
X99614722Y-51572637D01*
X99365284Y-52173352D01*
X99364716Y-52823795D01*
X94323680Y-52823795D01*
X94384759Y-52676702D01*
X94385240Y-52125715D01*
X94174831Y-51616485D01*
X93785564Y-51226539D01*
X93276702Y-51015241D01*
X92725715Y-51014760D01*
X92216485Y-51225169D01*
X91826539Y-51614436D01*
X91615241Y-52123298D01*
X91614760Y-52674285D01*
X82684848Y-52674285D01*
X82685162Y-52314833D01*
X82543117Y-51971057D01*
X82280327Y-51707808D01*
X81936799Y-51565162D01*
X81564833Y-51564838D01*
X81221057Y-51706883D01*
X80957808Y-51969673D01*
X80815162Y-52313201D01*
X80815092Y-52393340D01*
X79330718Y-53877714D01*
X79171065Y-54116652D01*
X79115002Y-54398498D01*
X79115002Y-54564882D01*
X79064833Y-54564838D01*
X78721057Y-54706883D01*
X78457808Y-54969673D01*
X78315162Y-55313201D01*
X78314922Y-55588767D01*
X77993142Y-55455152D01*
X77857000Y-55455033D01*
X77786689Y-55408053D01*
X77504843Y-55351990D01*
X73208087Y-55351990D01*
X72926241Y-55408053D01*
X72796929Y-55494456D01*
X72681892Y-55494356D01*
X72338116Y-55636401D01*
X72074867Y-55899191D01*
X71932221Y-56242719D01*
X71931897Y-56614685D01*
X50685000Y-56614685D01*
X50685000Y-54680000D01*
X61773000Y-54680000D01*
X61773000Y-56000000D01*
X61781907Y-56046722D01*
X61809388Y-56088986D01*
X61851148Y-56117228D01*
X61900605Y-56126999D01*
X66100605Y-56106999D01*
X66146159Y-56098315D01*
X66188553Y-56071035D01*
X66216994Y-56029410D01*
X66227000Y-55980000D01*
X66227000Y-54680000D01*
X66218315Y-54633841D01*
X66191035Y-54591447D01*
X66149410Y-54563006D01*
X66100000Y-54553000D01*
X61900000Y-54553000D01*
X61853841Y-54561685D01*
X61811447Y-54588965D01*
X61783006Y-54630590D01*
X61773000Y-54680000D01*
X50685000Y-54680000D01*
X50685000Y-52680000D01*
X61773000Y-52680000D01*
X61773000Y-53980000D01*
X61781685Y-54026159D01*
X61808965Y-54068553D01*
X61850590Y-54096994D01*
X61900000Y-54107000D01*
X66100000Y-54107000D01*
X66146159Y-54098315D01*
X66188553Y-54071035D01*
X66216994Y-54029410D01*
X66227000Y-53980000D01*
X66227000Y-52680000D01*
X66218315Y-52633841D01*
X66191035Y-52591447D01*
X66149410Y-52563006D01*
X66100000Y-52553000D01*
X61900000Y-52553000D01*
X61853841Y-52561685D01*
X61811447Y-52588965D01*
X61783006Y-52630590D01*
X61773000Y-52680000D01*
X50685000Y-52680000D01*
X50685000Y-47794285D01*
X91614760Y-47794285D01*
X91825169Y-48303515D01*
X92214436Y-48693461D01*
X92723298Y-48904759D01*
X93274285Y-48905240D01*
X93783515Y-48694831D01*
X94155198Y-48323795D01*
X99364716Y-48323795D01*
X99613106Y-48924943D01*
X100072637Y-49385278D01*
X100673352Y-49634716D01*
X101323795Y-49635284D01*
X101924943Y-49386894D01*
X102385278Y-48927363D01*
X102634716Y-48326648D01*
X102634718Y-48323795D01*
X105864716Y-48323795D01*
X106113106Y-48924943D01*
X106572637Y-49385278D01*
X107173352Y-49634716D01*
X107823795Y-49635284D01*
X108424943Y-49386894D01*
X108885278Y-48927363D01*
X109134716Y-48326648D01*
X109135284Y-47676205D01*
X108886894Y-47075057D01*
X108427363Y-46614722D01*
X107826648Y-46365284D01*
X107176205Y-46364716D01*
X106575057Y-46613106D01*
X106114722Y-47072637D01*
X105865284Y-47673352D01*
X105864716Y-48323795D01*
X102634718Y-48323795D01*
X102635284Y-47676205D01*
X102386894Y-47075057D01*
X101927363Y-46614722D01*
X101326648Y-46365284D01*
X100676205Y-46364716D01*
X100075057Y-46613106D01*
X99614722Y-47072637D01*
X99365284Y-47673352D01*
X99364716Y-48323795D01*
X94155198Y-48323795D01*
X94173461Y-48305564D01*
X94384759Y-47796702D01*
X94385240Y-47245715D01*
X94174831Y-46736485D01*
X93785564Y-46346539D01*
X93276702Y-46135241D01*
X92725715Y-46134760D01*
X92216485Y-46345169D01*
X91826539Y-46734436D01*
X91615241Y-47243298D01*
X91614760Y-47794285D01*
X50685000Y-47794285D01*
X50685000Y-40685000D01*
X52659973Y-40685000D01*
X52658559Y-40685910D01*
X52658559Y-40685910D01*
G37*
X52658559Y-40685910D02*
X52513569Y-40898110D01*
X52462560Y-41150000D01*
X52462560Y-42850000D01*
X52506838Y-43085317D01*
X52645910Y-43301441D01*
X52858110Y-43446431D01*
X53110000Y-43497440D01*
X54810000Y-43497440D01*
X55045317Y-43453162D01*
X55261441Y-43314090D01*
X55406431Y-43101890D01*
X55428301Y-42993893D01*
X55733076Y-43271645D01*
X56143110Y-43441476D01*
X56373000Y-43320155D01*
X56373000Y-42127000D01*
X56627000Y-42127000D01*
X56627000Y-43320155D01*
X56856890Y-43441476D01*
X57266924Y-43271645D01*
X57695183Y-42881358D01*
X57941486Y-42356892D01*
X57904145Y-42285750D01*
X60895000Y-42285750D01*
X60895000Y-42976309D01*
X60991673Y-43209698D01*
X61170301Y-43388327D01*
X61403690Y-43485000D01*
X62094250Y-43485000D01*
X62253000Y-43326250D01*
X62253000Y-42127000D01*
X61053750Y-42127000D01*
X60895000Y-42285750D01*
X57904145Y-42285750D01*
X57820819Y-42127000D01*
X56627000Y-42127000D01*
X56373000Y-42127000D01*
X56353000Y-42127000D01*
X56353000Y-41873000D01*
X56373000Y-41873000D01*
X56373000Y-41853000D01*
X56627000Y-41853000D01*
X56627000Y-41873000D01*
X57820819Y-41873000D01*
X57941486Y-41643108D01*
X57695183Y-41118642D01*
X57266924Y-40728355D01*
X57162249Y-40685000D01*
X61096974Y-40685000D01*
X60991673Y-40790302D01*
X60895000Y-41023691D01*
X60895000Y-41714250D01*
X61053750Y-41873000D01*
X62253000Y-41873000D01*
X62253000Y-41853000D01*
X62507000Y-41853000D01*
X62507000Y-41873000D01*
X62527000Y-41873000D01*
X62527000Y-42127000D01*
X62507000Y-42127000D01*
X62507000Y-43326250D01*
X62665750Y-43485000D01*
X63356310Y-43485000D01*
X63589699Y-43388327D01*
X63768327Y-43209698D01*
X63840597Y-43035223D01*
X63869946Y-43079147D01*
X64351715Y-43401054D01*
X64920000Y-43514093D01*
X65488285Y-43401054D01*
X65970054Y-43079147D01*
X66190000Y-42749974D01*
X66409946Y-43079147D01*
X66891715Y-43401054D01*
X67460000Y-43514093D01*
X68028285Y-43401054D01*
X68510054Y-43079147D01*
X68730000Y-42749974D01*
X68949946Y-43079147D01*
X69431715Y-43401054D01*
X70000000Y-43514093D01*
X70568285Y-43401054D01*
X71050054Y-43079147D01*
X71270000Y-42749974D01*
X71489946Y-43079147D01*
X71971715Y-43401054D01*
X72540000Y-43514093D01*
X73108285Y-43401054D01*
X73590054Y-43079147D01*
X73810000Y-42749974D01*
X74029946Y-43079147D01*
X74511715Y-43401054D01*
X74565011Y-43411655D01*
X74564838Y-43610167D01*
X74706883Y-43953943D01*
X74969673Y-44217192D01*
X75313201Y-44359838D01*
X75685167Y-44360162D01*
X76028943Y-44218117D01*
X76110703Y-44136500D01*
X78239078Y-44136500D01*
X78294673Y-44192192D01*
X78638201Y-44334838D01*
X79010167Y-44335162D01*
X79353943Y-44193117D01*
X79617192Y-43930327D01*
X79759838Y-43586799D01*
X79760162Y-43214833D01*
X79618117Y-42871057D01*
X79355327Y-42607808D01*
X79017767Y-42467640D01*
X79105000Y-42029093D01*
X79105000Y-41970907D01*
X78991961Y-41402622D01*
X78670054Y-40920853D01*
X78317074Y-40685000D01*
X111315000Y-40685000D01*
X111315000Y-81315000D01*
X50685000Y-81315000D01*
X50685000Y-76571877D01*
X53825868Y-76571877D01*
X54024677Y-76967604D01*
X54359791Y-77257127D01*
X54618126Y-77364119D01*
X54793000Y-77237954D01*
X54793000Y-76397000D01*
X53950865Y-76397000D01*
X53825868Y-76571877D01*
X50685000Y-76571877D01*
X50685000Y-74977764D01*
X53785000Y-74977764D01*
X53785000Y-75022236D01*
X53871397Y-75456582D01*
X53992104Y-75637232D01*
X53825868Y-75968123D01*
X53950865Y-76143000D01*
X54793000Y-76143000D01*
X54793000Y-76131974D01*
X54920000Y-76157236D01*
X55047000Y-76131974D01*
X55047000Y-76143000D01*
X55067000Y-76143000D01*
X55067000Y-76187436D01*
X55055000Y-76247764D01*
X55055000Y-76292236D01*
X55067000Y-76352564D01*
X55067000Y-76397000D01*
X55047000Y-76397000D01*
X55047000Y-77237954D01*
X55221874Y-77364119D01*
X55480209Y-77257127D01*
X55545696Y-77200549D01*
X55755654Y-77340839D01*
X56190000Y-77427236D01*
X56624346Y-77340839D01*
X56825000Y-77206766D01*
X57025654Y-77340839D01*
X57460000Y-77427236D01*
X57894346Y-77340839D01*
X58095000Y-77206766D01*
X58295654Y-77340839D01*
X58730000Y-77427236D01*
X59164346Y-77340839D01*
X59365000Y-77206766D01*
X59565654Y-77340839D01*
X60000000Y-77427236D01*
X60434346Y-77340839D01*
X60802566Y-77094802D01*
X61048603Y-76726582D01*
X61079375Y-76571877D01*
X71825868Y-76571877D01*
X72024677Y-76967604D01*
X72359791Y-77257127D01*
X72618126Y-77364119D01*
X72793000Y-77237954D01*
X72793000Y-76397000D01*
X71950865Y-76397000D01*
X71825868Y-76571877D01*
X61079375Y-76571877D01*
X61135000Y-76292236D01*
X61135000Y-76247764D01*
X61049908Y-75819979D01*
X61096431Y-75751890D01*
X61147440Y-75500000D01*
X61147440Y-75385167D01*
X67264838Y-75385167D01*
X67406883Y-75728943D01*
X67669673Y-75992192D01*
X68013201Y-76134838D01*
X68385167Y-76135162D01*
X68728943Y-75993117D01*
X68992192Y-75730327D01*
X69134838Y-75386799D01*
X69135162Y-75014833D01*
X69119846Y-74977764D01*
X71785000Y-74977764D01*
X71785000Y-75022236D01*
X71871397Y-75456582D01*
X71992104Y-75637232D01*
X71825868Y-75968123D01*
X71950865Y-76143000D01*
X72793000Y-76143000D01*
X72793000Y-76131974D01*
X72920000Y-76157236D01*
X73047000Y-76131974D01*
X73047000Y-76143000D01*
X73067000Y-76143000D01*
X73067000Y-76187436D01*
X73055000Y-76247764D01*
X73055000Y-76292236D01*
X73067000Y-76352564D01*
X73067000Y-76397000D01*
X73047000Y-76397000D01*
X73047000Y-77237954D01*
X73221874Y-77364119D01*
X73263500Y-77346879D01*
X73263500Y-77914078D01*
X73207808Y-77969673D01*
X73065162Y-78313201D01*
X73064838Y-78685167D01*
X73206883Y-79028943D01*
X73469673Y-79292192D01*
X73813201Y-79434838D01*
X73950089Y-79434957D01*
X74018153Y-79480436D01*
X74299999Y-79536499D01*
X77700001Y-79536499D01*
X77981847Y-79480436D01*
X78220785Y-79320783D01*
X79812962Y-77728606D01*
X79972615Y-77489669D01*
X80028678Y-77207822D01*
X80028678Y-74185167D01*
X83464838Y-74185167D01*
X83606883Y-74528943D01*
X83663500Y-74585659D01*
X83663500Y-75414078D01*
X83607808Y-75469673D01*
X83465162Y-75813201D01*
X83464838Y-76185167D01*
X83606883Y-76528943D01*
X83869673Y-76792192D01*
X84213201Y-76934838D01*
X84585167Y-76935162D01*
X84928943Y-76793117D01*
X85192192Y-76530327D01*
X85334838Y-76186799D01*
X85335162Y-75814833D01*
X85193117Y-75471057D01*
X85136500Y-75414341D01*
X85136500Y-74585922D01*
X85192192Y-74530327D01*
X85334838Y-74186799D01*
X85335162Y-73814833D01*
X85193117Y-73471057D01*
X84930327Y-73207808D01*
X84586799Y-73065162D01*
X84214833Y-73064838D01*
X83871057Y-73206883D01*
X83607808Y-73469673D01*
X83465162Y-73813201D01*
X83464838Y-74185167D01*
X80028678Y-74185167D01*
X80028678Y-73042178D01*
X79985239Y-72823795D01*
X99364716Y-72823795D01*
X99613106Y-73424943D01*
X100072637Y-73885278D01*
X100505000Y-74064810D01*
X100505000Y-75422563D01*
X100457808Y-75469673D01*
X100315162Y-75813201D01*
X100314838Y-76185167D01*
X100456883Y-76528943D01*
X100719673Y-76792192D01*
X101063201Y-76934838D01*
X101435167Y-76935162D01*
X101778943Y-76793117D01*
X102042192Y-76530327D01*
X102184838Y-76186799D01*
X102185162Y-75814833D01*
X102043117Y-75471057D01*
X101995000Y-75422856D01*
X101995000Y-73816959D01*
X102385278Y-73427363D01*
X102634716Y-72826648D01*
X102635284Y-72176205D01*
X102386894Y-71575057D01*
X101927363Y-71114722D01*
X101326648Y-70865284D01*
X100676205Y-70864716D01*
X100075057Y-71113106D01*
X99614722Y-71572637D01*
X99365284Y-72173352D01*
X99364716Y-72823795D01*
X79985239Y-72823795D01*
X79972615Y-72760332D01*
X79812962Y-72521394D01*
X79685093Y-72393525D01*
X79685162Y-72314833D01*
X79543117Y-71971057D01*
X79280327Y-71707808D01*
X78936799Y-71565162D01*
X78564833Y-71564838D01*
X78221057Y-71706883D01*
X77957808Y-71969673D01*
X77815162Y-72313201D01*
X77814838Y-72685167D01*
X77956883Y-73028943D01*
X78070299Y-73142557D01*
X78060228Y-73146718D01*
X77796979Y-73409508D01*
X77691335Y-73663927D01*
X77691569Y-73394816D01*
X77549524Y-73051040D01*
X77286734Y-72787791D01*
X76943206Y-72645145D01*
X76571240Y-72644821D01*
X76319242Y-72748944D01*
X76277547Y-72648035D01*
X76014757Y-72384786D01*
X75671229Y-72242140D01*
X75619507Y-72242095D01*
X75545724Y-72063527D01*
X75282934Y-71800278D01*
X74939406Y-71657632D01*
X74870183Y-71657572D01*
X74793117Y-71471057D01*
X74530327Y-71207808D01*
X74186799Y-71065162D01*
X73814833Y-71064838D01*
X73471057Y-71206883D01*
X73207808Y-71469673D01*
X73065162Y-71813201D01*
X73065092Y-71893340D01*
X72399216Y-72559216D01*
X72239563Y-72798154D01*
X72183500Y-73080000D01*
X72183500Y-74131054D01*
X72117434Y-74175198D01*
X71871397Y-74543418D01*
X71785000Y-74977764D01*
X69119846Y-74977764D01*
X68993117Y-74671057D01*
X68945000Y-74622856D01*
X68945000Y-72669121D01*
X69128943Y-72593117D01*
X69392192Y-72330327D01*
X69534838Y-71986799D01*
X69535162Y-71614833D01*
X69393117Y-71271057D01*
X69130327Y-71007808D01*
X68786799Y-70865162D01*
X68414833Y-70864838D01*
X68071057Y-71006883D01*
X67807808Y-71269673D01*
X67665162Y-71613201D01*
X67665099Y-71685336D01*
X67511710Y-71914901D01*
X67454999Y-72200000D01*
X67455000Y-72200005D01*
X67455000Y-74622563D01*
X67407808Y-74669673D01*
X67265162Y-75013201D01*
X67264838Y-75385167D01*
X61147440Y-75385167D01*
X61147440Y-74500000D01*
X61103162Y-74264683D01*
X60964090Y-74048559D01*
X60751890Y-73903569D01*
X60500000Y-73852560D01*
X59500000Y-73852560D01*
X59264683Y-73896838D01*
X59188927Y-73945586D01*
X59164346Y-73929161D01*
X58730000Y-73842764D01*
X58295654Y-73929161D01*
X58095000Y-74063234D01*
X57894346Y-73929161D01*
X57460000Y-73842764D01*
X57025654Y-73929161D01*
X56825000Y-74063234D01*
X56624346Y-73929161D01*
X56190000Y-73842764D01*
X55755654Y-73929161D01*
X55555000Y-74063234D01*
X55354346Y-73929161D01*
X54920000Y-73842764D01*
X54485654Y-73929161D01*
X54117434Y-74175198D01*
X53871397Y-74543418D01*
X53785000Y-74977764D01*
X50685000Y-74977764D01*
X50685000Y-65460000D01*
X59485907Y-65460000D01*
X59598946Y-66028285D01*
X59920853Y-66510054D01*
X60250026Y-66730000D01*
X59920853Y-66949946D01*
X59598946Y-67431715D01*
X59485907Y-68000000D01*
X59598946Y-68568285D01*
X59920853Y-69050054D01*
X59962452Y-69077850D01*
X59914683Y-69086838D01*
X59698559Y-69225910D01*
X59553569Y-69438110D01*
X59502560Y-69690000D01*
X59502560Y-71390000D01*
X59546838Y-71625317D01*
X59685910Y-71841441D01*
X59898110Y-71986431D01*
X60150000Y-72037440D01*
X61850000Y-72037440D01*
X62085317Y-71993162D01*
X62301441Y-71854090D01*
X62446431Y-71641890D01*
X62497440Y-71390000D01*
X62497440Y-69690000D01*
X62496531Y-69685167D01*
X87564838Y-69685167D01*
X87706883Y-70028943D01*
X87763500Y-70085659D01*
X87763500Y-70414078D01*
X87707808Y-70469673D01*
X87565162Y-70813201D01*
X87564838Y-71185167D01*
X87706883Y-71528943D01*
X87969673Y-71792192D01*
X88313201Y-71934838D01*
X88685167Y-71935162D01*
X89028943Y-71793117D01*
X89292192Y-71530327D01*
X89434838Y-71186799D01*
X89435162Y-70814833D01*
X89293117Y-70471057D01*
X89236500Y-70414341D01*
X89236500Y-70085922D01*
X89292192Y-70030327D01*
X89434838Y-69686799D01*
X89435162Y-69314833D01*
X89293117Y-68971057D01*
X89030327Y-68707808D01*
X88686799Y-68565162D01*
X88314833Y-68564838D01*
X87971057Y-68706883D01*
X87707808Y-68969673D01*
X87565162Y-69313201D01*
X87564838Y-69685167D01*
X62496531Y-69685167D01*
X62453162Y-69454683D01*
X62314090Y-69238559D01*
X62101890Y-69093569D01*
X62034459Y-69079914D01*
X62079147Y-69050054D01*
X62401054Y-68568285D01*
X62449686Y-68323795D01*
X99364716Y-68323795D01*
X99613106Y-68924943D01*
X100072637Y-69385278D01*
X100673352Y-69634716D01*
X101323795Y-69635284D01*
X101924943Y-69386894D01*
X102385278Y-68927363D01*
X102634716Y-68326648D01*
X102635284Y-67676205D01*
X102535689Y-67435167D01*
X104814838Y-67435167D01*
X104956883Y-67778943D01*
X105005000Y-67827144D01*
X105005000Y-70749995D01*
X105004999Y-70750000D01*
X105061710Y-71035099D01*
X105223205Y-71276795D01*
X105939949Y-71993538D01*
X105865284Y-72173352D01*
X105864716Y-72823795D01*
X106113106Y-73424943D01*
X106572637Y-73885278D01*
X107173352Y-74134716D01*
X107823795Y-74135284D01*
X108424943Y-73886894D01*
X108885278Y-73427363D01*
X109134716Y-72826648D01*
X109135284Y-72176205D01*
X108886894Y-71575057D01*
X108427363Y-71114722D01*
X107826648Y-70865284D01*
X107176205Y-70864716D01*
X106993711Y-70940121D01*
X106495000Y-70441410D01*
X106495000Y-69307505D01*
X106572637Y-69385278D01*
X107173352Y-69634716D01*
X107823795Y-69635284D01*
X108424943Y-69386894D01*
X108885278Y-68927363D01*
X109134716Y-68326648D01*
X109135284Y-67676205D01*
X108886894Y-67075057D01*
X108427363Y-66614722D01*
X107826648Y-66365284D01*
X107176205Y-66364716D01*
X106575057Y-66613106D01*
X106505084Y-66682957D01*
X106280327Y-66457808D01*
X105936799Y-66315162D01*
X105564833Y-66314838D01*
X105221057Y-66456883D01*
X104957808Y-66719673D01*
X104815162Y-67063201D01*
X104814838Y-67435167D01*
X102535689Y-67435167D01*
X102386894Y-67075057D01*
X101927363Y-66614722D01*
X101326648Y-66365284D01*
X100676205Y-66364716D01*
X100075057Y-66613106D01*
X99614722Y-67072637D01*
X99365284Y-67673352D01*
X99364716Y-68323795D01*
X62449686Y-68323795D01*
X62514093Y-68000000D01*
X62401054Y-67431715D01*
X62236317Y-67185167D01*
X71564838Y-67185167D01*
X71706883Y-67528943D01*
X71969673Y-67792192D01*
X72313201Y-67934838D01*
X72685167Y-67935162D01*
X73028943Y-67793117D01*
X73292192Y-67530327D01*
X73434838Y-67186799D01*
X73435162Y-66814833D01*
X73381564Y-66685115D01*
X73435167Y-66685162D01*
X73778943Y-66543117D01*
X74042192Y-66280327D01*
X74184838Y-65936799D01*
X74185162Y-65564833D01*
X74043117Y-65221057D01*
X73780327Y-64957808D01*
X73436799Y-64815162D01*
X73064833Y-64814838D01*
X72721057Y-64956883D01*
X72457808Y-65219673D01*
X72315162Y-65563201D01*
X72315103Y-65631308D01*
X71973205Y-65973205D01*
X71811710Y-66214901D01*
X71774219Y-66403378D01*
X71707808Y-66469673D01*
X71565162Y-66813201D01*
X71564838Y-67185167D01*
X62236317Y-67185167D01*
X62079147Y-66949946D01*
X61749974Y-66730000D01*
X62079147Y-66510054D01*
X62401054Y-66028285D01*
X62514093Y-65460000D01*
X62401054Y-64891715D01*
X62079147Y-64409946D01*
X61738447Y-64182298D01*
X61881358Y-64115183D01*
X62271645Y-63686924D01*
X62441476Y-63276890D01*
X62320155Y-63047000D01*
X61127000Y-63047000D01*
X61127000Y-63067000D01*
X60873000Y-63067000D01*
X60873000Y-63047000D01*
X59679845Y-63047000D01*
X59558524Y-63276890D01*
X59728355Y-63686924D01*
X60118642Y-64115183D01*
X60261553Y-64182298D01*
X59920853Y-64409946D01*
X59598946Y-64891715D01*
X59485907Y-65460000D01*
X50685000Y-65460000D01*
X50685000Y-62563110D01*
X59558524Y-62563110D01*
X59679845Y-62793000D01*
X60873000Y-62793000D01*
X60873000Y-61599181D01*
X61127000Y-61599181D01*
X61127000Y-62793000D01*
X62320155Y-62793000D01*
X62441476Y-62563110D01*
X62271645Y-62153076D01*
X61881358Y-61724817D01*
X61356892Y-61478514D01*
X61127000Y-61599181D01*
X60873000Y-61599181D01*
X60643108Y-61478514D01*
X60118642Y-61724817D01*
X59728355Y-62153076D01*
X59558524Y-62563110D01*
X50685000Y-62563110D01*
X50685000Y-60985167D01*
X62464838Y-60985167D01*
X62606883Y-61328943D01*
X62869673Y-61592192D01*
X63213201Y-61734838D01*
X63585167Y-61735162D01*
X63928943Y-61593117D01*
X63977144Y-61545000D01*
X66622563Y-61545000D01*
X66669673Y-61592192D01*
X67013201Y-61734838D01*
X67385167Y-61735162D01*
X67728943Y-61593117D01*
X67992192Y-61330327D01*
X68134838Y-60986799D01*
X68135162Y-60614833D01*
X67993117Y-60271057D01*
X67730327Y-60007808D01*
X67386799Y-59865162D01*
X67014833Y-59864838D01*
X66671057Y-60006883D01*
X66622856Y-60055000D01*
X63977437Y-60055000D01*
X63930327Y-60007808D01*
X63586799Y-59865162D01*
X63214833Y-59864838D01*
X62871057Y-60006883D01*
X62607808Y-60269673D01*
X62465162Y-60613201D01*
X62464838Y-60985167D01*
X50685000Y-60985167D01*
X50685000Y-56614685D01*
X71931897Y-56614685D01*
X72073942Y-56958461D01*
X72336732Y-57221710D01*
X72680260Y-57364356D01*
X73052226Y-57364680D01*
X73396002Y-57222635D01*
X73659251Y-56959845D01*
X73715248Y-56824990D01*
X74671786Y-56824990D01*
X74611709Y-56914902D01*
X74561023Y-57169710D01*
X74471057Y-57206883D01*
X74207808Y-57469673D01*
X74065162Y-57813201D01*
X74064838Y-58185167D01*
X74206883Y-58528943D01*
X74318666Y-58640921D01*
X74204829Y-58640822D01*
X73861053Y-58782867D01*
X73597804Y-59045657D01*
X73455158Y-59389185D01*
X73454834Y-59761151D01*
X73596879Y-60104927D01*
X73859669Y-60368176D01*
X74203197Y-60510822D01*
X74283336Y-60510892D01*
X74543228Y-60770784D01*
X74782166Y-60930437D01*
X75064012Y-60986500D01*
X76145121Y-60986500D01*
X76141522Y-60990093D01*
X75998876Y-61333621D01*
X75998554Y-61703568D01*
X75938184Y-61763832D01*
X75795538Y-62107360D01*
X75795214Y-62479326D01*
X75937259Y-62823102D01*
X75993876Y-62879818D01*
X75993876Y-63330376D01*
X76049939Y-63612222D01*
X76209592Y-63851160D01*
X76664907Y-64306475D01*
X76664838Y-64385167D01*
X76806883Y-64728943D01*
X77069673Y-64992192D01*
X77413201Y-65134838D01*
X77785167Y-65135162D01*
X78128943Y-64993117D01*
X78392192Y-64730327D01*
X78534838Y-64386799D01*
X78535162Y-64014833D01*
X78397329Y-63681251D01*
X78512137Y-63404764D01*
X78633045Y-63485552D01*
X78897630Y-63538181D01*
X78956652Y-63597307D01*
X79300180Y-63739953D01*
X79672146Y-63740277D01*
X80015922Y-63598232D01*
X80279171Y-63335442D01*
X80421817Y-62991914D01*
X80422141Y-62619948D01*
X80280096Y-62276172D01*
X80022971Y-62018597D01*
X80082282Y-61959286D01*
X80117771Y-61935573D01*
X80372286Y-61681058D01*
X80531939Y-61442120D01*
X80533323Y-61435165D01*
X80579683Y-61481606D01*
X80923211Y-61624252D01*
X81295177Y-61624576D01*
X81638953Y-61482531D01*
X81902202Y-61219741D01*
X82044848Y-60876213D01*
X82045172Y-60504247D01*
X81903127Y-60160471D01*
X81640337Y-59897222D01*
X81436501Y-59812581D01*
X81436501Y-59448282D01*
X82503441Y-60515222D01*
X82742378Y-60674875D01*
X82822514Y-60690815D01*
X82876481Y-60744876D01*
X82871505Y-60756858D01*
X82871181Y-61128824D01*
X83013226Y-61472600D01*
X83276016Y-61735849D01*
X83619544Y-61878495D01*
X83991510Y-61878819D01*
X84335286Y-61736774D01*
X84598535Y-61473984D01*
X84741181Y-61130456D01*
X84741300Y-60993568D01*
X84786779Y-60925504D01*
X84842842Y-60643658D01*
X84842842Y-59185167D01*
X86064838Y-59185167D01*
X86206883Y-59528943D01*
X86469673Y-59792192D01*
X86813201Y-59934838D01*
X87185167Y-59935162D01*
X87528943Y-59793117D01*
X87585659Y-59736500D01*
X88164078Y-59736500D01*
X88219673Y-59792192D01*
X88563201Y-59934838D01*
X88935167Y-59935162D01*
X89278943Y-59793117D01*
X89542192Y-59530327D01*
X89684838Y-59186799D01*
X89685162Y-58814833D01*
X89543117Y-58471057D01*
X89280327Y-58207808D01*
X88936799Y-58065162D01*
X88564833Y-58064838D01*
X88221057Y-58206883D01*
X88164341Y-58263500D01*
X87585922Y-58263500D01*
X87530327Y-58207808D01*
X87186799Y-58065162D01*
X86814833Y-58064838D01*
X86471057Y-58206883D01*
X86207808Y-58469673D01*
X86065162Y-58813201D01*
X86064838Y-59185167D01*
X84842842Y-59185167D01*
X84842842Y-57999551D01*
X84786779Y-57717704D01*
X84627126Y-57478767D01*
X84333526Y-57185167D01*
X91314838Y-57185167D01*
X91456883Y-57528943D01*
X91719673Y-57792192D01*
X92013414Y-57914164D01*
X91957808Y-57969673D01*
X91815162Y-58313201D01*
X91814838Y-58685167D01*
X91956883Y-59028943D01*
X92219673Y-59292192D01*
X92563201Y-59434838D01*
X92935167Y-59435162D01*
X93278943Y-59293117D01*
X93542192Y-59030327D01*
X93684838Y-58686799D01*
X93685162Y-58314833D01*
X93543117Y-57971057D01*
X93486500Y-57914341D01*
X93486500Y-57500000D01*
X93430437Y-57218154D01*
X93270784Y-56979216D01*
X93185093Y-56893525D01*
X93185162Y-56814833D01*
X93043117Y-56471057D01*
X92780327Y-56207808D01*
X92436799Y-56065162D01*
X92064833Y-56064838D01*
X91721057Y-56206883D01*
X91457808Y-56469673D01*
X91315162Y-56813201D01*
X91314838Y-57185167D01*
X84333526Y-57185167D01*
X83643847Y-56495488D01*
X83643916Y-56416796D01*
X83501871Y-56073020D01*
X83239081Y-55809771D01*
X82895553Y-55667125D01*
X82745000Y-55666994D01*
X82745000Y-55327437D01*
X82792192Y-55280327D01*
X82934838Y-54936799D01*
X82935162Y-54564833D01*
X82799498Y-54236500D01*
X86944932Y-54236500D01*
X87814907Y-55106475D01*
X87814838Y-55185167D01*
X87956883Y-55528943D01*
X88219673Y-55792192D01*
X88563201Y-55934838D01*
X88935167Y-55935162D01*
X89278943Y-55793117D01*
X89542192Y-55530327D01*
X89684838Y-55186799D01*
X89685162Y-54814833D01*
X89543117Y-54471057D01*
X89280327Y-54207808D01*
X88936799Y-54065162D01*
X88856660Y-54065092D01*
X87770784Y-52979216D01*
X87531846Y-52819563D01*
X87250000Y-52763500D01*
X82652989Y-52763500D01*
X82684838Y-52686799D01*
X82684848Y-52674285D01*
X91614760Y-52674285D01*
X91825169Y-53183515D01*
X92214436Y-53573461D01*
X92723298Y-53784759D01*
X93274285Y-53785240D01*
X93783515Y-53574831D01*
X94173461Y-53185564D01*
X94323680Y-52823795D01*
X99364716Y-52823795D01*
X99613106Y-53424943D01*
X100072637Y-53885278D01*
X100673352Y-54134716D01*
X101323795Y-54135284D01*
X101924943Y-53886894D01*
X102385278Y-53427363D01*
X102634716Y-52826648D01*
X102634718Y-52823795D01*
X105864716Y-52823795D01*
X106113106Y-53424943D01*
X106572637Y-53885278D01*
X107173352Y-54134716D01*
X107823795Y-54135284D01*
X108424943Y-53886894D01*
X108885278Y-53427363D01*
X109134716Y-52826648D01*
X109135284Y-52176205D01*
X108886894Y-51575057D01*
X108427363Y-51114722D01*
X107826648Y-50865284D01*
X107176205Y-50864716D01*
X106575057Y-51113106D01*
X106114722Y-51572637D01*
X105865284Y-52173352D01*
X105864716Y-52823795D01*
X102634718Y-52823795D01*
X102635284Y-52176205D01*
X102386894Y-51575057D01*
X101927363Y-51114722D01*
X101326648Y-50865284D01*
X100676205Y-50864716D01*
X100075057Y-51113106D01*
X99614722Y-51572637D01*
X99365284Y-52173352D01*
X99364716Y-52823795D01*
X94323680Y-52823795D01*
X94384759Y-52676702D01*
X94385240Y-52125715D01*
X94174831Y-51616485D01*
X93785564Y-51226539D01*
X93276702Y-51015241D01*
X92725715Y-51014760D01*
X92216485Y-51225169D01*
X91826539Y-51614436D01*
X91615241Y-52123298D01*
X91614760Y-52674285D01*
X82684848Y-52674285D01*
X82685162Y-52314833D01*
X82543117Y-51971057D01*
X82280327Y-51707808D01*
X81936799Y-51565162D01*
X81564833Y-51564838D01*
X81221057Y-51706883D01*
X80957808Y-51969673D01*
X80815162Y-52313201D01*
X80815092Y-52393340D01*
X79330718Y-53877714D01*
X79171065Y-54116652D01*
X79115002Y-54398498D01*
X79115002Y-54564882D01*
X79064833Y-54564838D01*
X78721057Y-54706883D01*
X78457808Y-54969673D01*
X78315162Y-55313201D01*
X78314922Y-55588767D01*
X77993142Y-55455152D01*
X77857000Y-55455033D01*
X77786689Y-55408053D01*
X77504843Y-55351990D01*
X73208087Y-55351990D01*
X72926241Y-55408053D01*
X72796929Y-55494456D01*
X72681892Y-55494356D01*
X72338116Y-55636401D01*
X72074867Y-55899191D01*
X71932221Y-56242719D01*
X71931897Y-56614685D01*
X50685000Y-56614685D01*
X50685000Y-54680000D01*
X61773000Y-54680000D01*
X61773000Y-56000000D01*
X61781907Y-56046722D01*
X61809388Y-56088986D01*
X61851148Y-56117228D01*
X61900605Y-56126999D01*
X66100605Y-56106999D01*
X66146159Y-56098315D01*
X66188553Y-56071035D01*
X66216994Y-56029410D01*
X66227000Y-55980000D01*
X66227000Y-54680000D01*
X66218315Y-54633841D01*
X66191035Y-54591447D01*
X66149410Y-54563006D01*
X66100000Y-54553000D01*
X61900000Y-54553000D01*
X61853841Y-54561685D01*
X61811447Y-54588965D01*
X61783006Y-54630590D01*
X61773000Y-54680000D01*
X50685000Y-54680000D01*
X50685000Y-52680000D01*
X61773000Y-52680000D01*
X61773000Y-53980000D01*
X61781685Y-54026159D01*
X61808965Y-54068553D01*
X61850590Y-54096994D01*
X61900000Y-54107000D01*
X66100000Y-54107000D01*
X66146159Y-54098315D01*
X66188553Y-54071035D01*
X66216994Y-54029410D01*
X66227000Y-53980000D01*
X66227000Y-52680000D01*
X66218315Y-52633841D01*
X66191035Y-52591447D01*
X66149410Y-52563006D01*
X66100000Y-52553000D01*
X61900000Y-52553000D01*
X61853841Y-52561685D01*
X61811447Y-52588965D01*
X61783006Y-52630590D01*
X61773000Y-52680000D01*
X50685000Y-52680000D01*
X50685000Y-47794285D01*
X91614760Y-47794285D01*
X91825169Y-48303515D01*
X92214436Y-48693461D01*
X92723298Y-48904759D01*
X93274285Y-48905240D01*
X93783515Y-48694831D01*
X94155198Y-48323795D01*
X99364716Y-48323795D01*
X99613106Y-48924943D01*
X100072637Y-49385278D01*
X100673352Y-49634716D01*
X101323795Y-49635284D01*
X101924943Y-49386894D01*
X102385278Y-48927363D01*
X102634716Y-48326648D01*
X102634718Y-48323795D01*
X105864716Y-48323795D01*
X106113106Y-48924943D01*
X106572637Y-49385278D01*
X107173352Y-49634716D01*
X107823795Y-49635284D01*
X108424943Y-49386894D01*
X108885278Y-48927363D01*
X109134716Y-48326648D01*
X109135284Y-47676205D01*
X108886894Y-47075057D01*
X108427363Y-46614722D01*
X107826648Y-46365284D01*
X107176205Y-46364716D01*
X106575057Y-46613106D01*
X106114722Y-47072637D01*
X105865284Y-47673352D01*
X105864716Y-48323795D01*
X102634718Y-48323795D01*
X102635284Y-47676205D01*
X102386894Y-47075057D01*
X101927363Y-46614722D01*
X101326648Y-46365284D01*
X100676205Y-46364716D01*
X100075057Y-46613106D01*
X99614722Y-47072637D01*
X99365284Y-47673352D01*
X99364716Y-48323795D01*
X94155198Y-48323795D01*
X94173461Y-48305564D01*
X94384759Y-47796702D01*
X94385240Y-47245715D01*
X94174831Y-46736485D01*
X93785564Y-46346539D01*
X93276702Y-46135241D01*
X92725715Y-46134760D01*
X92216485Y-46345169D01*
X91826539Y-46734436D01*
X91615241Y-47243298D01*
X91614760Y-47794285D01*
X50685000Y-47794285D01*
X50685000Y-40685000D01*
X52659973Y-40685000D01*
X52658559Y-40685910D01*
M02*
